G04*
G04 #@! TF.GenerationSoftware,Altium Limited,Altium Designer,24.6.1 (21)*
G04*
G04 Layer_Color=16711935*
%FSLAX44Y44*%
%MOMM*%
G71*
G04*
G04 #@! TF.SameCoordinates,B0C6F459-AFBE-4FB2-BAD8-FBBEB889AAAA*
G04*
G04*
G04 #@! TF.FilePolarity,Negative*
G04*
G01*
G75*
%ADD26R,1.5500X0.7000*%
%ADD27O,1.5500X0.7000*%
%ADD31R,1.0500X0.9000*%
%ADD35R,0.9000X1.0500*%
%ADD38C,1.9000*%
%ADD39C,3.4000*%
%ADD40R,1.6300X1.6300*%
%ADD41C,1.6300*%
%ADD42R,4.9000X4.9000*%
%ADD43C,4.9000*%
%ADD44R,8.2032X8.2032*%
%ADD45C,8.2032*%
%ADD65R,1.8500X1.3500*%
%ADD66R,1.6000X2.2200*%
%ADD67O,0.7000X1.5500*%
%ADD68R,0.7000X1.5500*%
%ADD69R,1.1500X1.0000*%
%ADD70R,2.2000X2.3500*%
%ADD71R,0.6334X1.8018*%
%ADD72R,1.0000X1.1500*%
D26*
X817250Y619050D02*
D03*
D27*
X762750Y580950D02*
D03*
Y593650D02*
D03*
Y606350D02*
D03*
Y619050D02*
D03*
X817250Y580950D02*
D03*
Y593650D02*
D03*
Y606350D02*
D03*
D31*
X352500Y471500D02*
D03*
Y458500D02*
D03*
X367500Y698500D02*
D03*
Y711500D02*
D03*
X607500Y698500D02*
D03*
Y711500D02*
D03*
X582500Y698500D02*
D03*
Y711500D02*
D03*
X592500Y471500D02*
D03*
Y458500D02*
D03*
X762500Y564000D02*
D03*
Y551000D02*
D03*
X917500Y616500D02*
D03*
Y603500D02*
D03*
X1000000Y674000D02*
D03*
Y661000D02*
D03*
Y699000D02*
D03*
Y686000D02*
D03*
D35*
X783500Y637500D02*
D03*
X796500D02*
D03*
X326500Y677500D02*
D03*
X313500D02*
D03*
X401000Y492500D02*
D03*
X414000D02*
D03*
X641000D02*
D03*
X654000D02*
D03*
D38*
X882700Y750500D02*
D03*
X882700Y623500D02*
D03*
X882700Y598100D02*
D03*
Y699700D02*
D03*
Y674300D02*
D03*
X882700Y801300D02*
D03*
X882700Y775900D02*
D03*
X857300Y801300D02*
D03*
X882700Y648900D02*
D03*
X882700Y572700D02*
D03*
X882700Y725100D02*
D03*
X882700Y547300D02*
D03*
X882700Y471100D02*
D03*
X882700Y394900D02*
D03*
X882700Y369500D02*
D03*
Y496500D02*
D03*
X882700Y445700D02*
D03*
X882700Y521900D02*
D03*
X882700Y420300D02*
D03*
X882700Y344100D02*
D03*
X882700Y318700D02*
D03*
X857300Y318700D02*
D03*
X857300Y699700D02*
D03*
Y725100D02*
D03*
X857300Y674300D02*
D03*
X857300Y648900D02*
D03*
X857300Y521900D02*
D03*
X857300Y623500D02*
D03*
Y572700D02*
D03*
Y750500D02*
D03*
X857300Y547300D02*
D03*
X857300Y775900D02*
D03*
X857300Y598100D02*
D03*
X857300Y496500D02*
D03*
X857300Y420300D02*
D03*
X857300Y445700D02*
D03*
X857300Y394900D02*
D03*
X857300Y344100D02*
D03*
X857300Y471100D02*
D03*
X857300Y369500D02*
D03*
D39*
X870000Y870000D02*
D03*
Y250000D02*
D03*
X200000Y870000D02*
D03*
Y250000D02*
D03*
X97060Y280070D02*
D03*
X963090D02*
D03*
X530000Y1030000D02*
D03*
D40*
X288700Y172700D02*
D03*
D41*
X771300Y147300D02*
D03*
Y172700D02*
D03*
X745900Y147300D02*
D03*
Y172700D02*
D03*
X720500Y147300D02*
D03*
Y172700D02*
D03*
X695100Y147300D02*
D03*
Y172700D02*
D03*
X669700Y147300D02*
D03*
Y172700D02*
D03*
X644300D02*
D03*
Y147300D02*
D03*
X618900D02*
D03*
Y172700D02*
D03*
X593500D02*
D03*
Y147300D02*
D03*
X568100D02*
D03*
Y172700D02*
D03*
X542700D02*
D03*
Y147300D02*
D03*
X517300D02*
D03*
Y172700D02*
D03*
X491900D02*
D03*
Y147300D02*
D03*
X466500D02*
D03*
X441100D02*
D03*
X415700D02*
D03*
X390300D02*
D03*
X364900D02*
D03*
X339500D02*
D03*
X314100D02*
D03*
X288700D02*
D03*
X314100Y172700D02*
D03*
X339500D02*
D03*
X364900D02*
D03*
X390300D02*
D03*
X415700D02*
D03*
X441100D02*
D03*
X466500D02*
D03*
D42*
X540000Y375000D02*
D03*
X780000Y375000D02*
D03*
X660000D02*
D03*
X420000Y375000D02*
D03*
X300000D02*
D03*
X540000Y815000D02*
D03*
X660000Y815000D02*
D03*
X300000Y785000D02*
D03*
X780000Y805000D02*
D03*
X420000Y815000D02*
D03*
D43*
X540000Y320000D02*
D03*
Y265000D02*
D03*
X780000Y265000D02*
D03*
Y320000D02*
D03*
X660000Y265000D02*
D03*
X660000Y320000D02*
D03*
X420000Y265000D02*
D03*
Y320000D02*
D03*
X300000Y265000D02*
D03*
Y320000D02*
D03*
X540000Y870000D02*
D03*
Y925000D02*
D03*
X660000Y870000D02*
D03*
Y925000D02*
D03*
X300000Y840000D02*
D03*
Y895000D02*
D03*
X780000Y860000D02*
D03*
Y915000D02*
D03*
X420000Y925000D02*
D03*
Y870000D02*
D03*
D44*
X185000Y470000D02*
D03*
Y660000D02*
D03*
D45*
Y360000D02*
D03*
Y770000D02*
D03*
D65*
X953250Y727500D02*
D03*
X926750D02*
D03*
X976750D02*
D03*
X1003250D02*
D03*
D66*
X700000Y431150D02*
D03*
Y388850D02*
D03*
X460000Y431150D02*
D03*
Y388850D02*
D03*
X820000Y431150D02*
D03*
Y388850D02*
D03*
X580000Y768850D02*
D03*
Y811150D02*
D03*
X250000Y728850D02*
D03*
Y771150D02*
D03*
X580000Y388850D02*
D03*
Y431150D02*
D03*
X340000Y388850D02*
D03*
Y431150D02*
D03*
X820000Y791150D02*
D03*
Y748850D02*
D03*
X700000Y811150D02*
D03*
Y768850D02*
D03*
X460000Y801150D02*
D03*
Y758850D02*
D03*
D67*
X945950Y704750D02*
D03*
X958650D02*
D03*
X971350D02*
D03*
X984050D02*
D03*
X945950Y650250D02*
D03*
X958650D02*
D03*
X971350D02*
D03*
X619050Y492750D02*
D03*
X606350D02*
D03*
X593650D02*
D03*
X580950D02*
D03*
X619050Y547250D02*
D03*
X606350D02*
D03*
X593650D02*
D03*
X379050Y492750D02*
D03*
X366350D02*
D03*
X353650D02*
D03*
X340950D02*
D03*
X379050Y547250D02*
D03*
X366350D02*
D03*
X353650D02*
D03*
X580950Y677250D02*
D03*
X593650D02*
D03*
X606350D02*
D03*
X619050D02*
D03*
X580950Y622750D02*
D03*
X593650D02*
D03*
X606350D02*
D03*
X340950Y677249D02*
D03*
X353650D02*
D03*
X366350D02*
D03*
X379050D02*
D03*
X340950Y622749D02*
D03*
X353650D02*
D03*
X366350D02*
D03*
D68*
X984050Y650250D02*
D03*
X580950Y547250D02*
D03*
X340950Y547250D02*
D03*
X619050Y622750D02*
D03*
X379050Y622749D02*
D03*
D69*
X320000Y658000D02*
D03*
Y642000D02*
D03*
X930000Y654500D02*
D03*
Y670500D02*
D03*
X917500Y588000D02*
D03*
Y572000D02*
D03*
X400000Y512000D02*
D03*
Y528000D02*
D03*
X640000Y512000D02*
D03*
Y528000D02*
D03*
X560000Y642000D02*
D03*
Y658000D02*
D03*
D70*
X250000Y367250D02*
D03*
Y332750D02*
D03*
X370000Y367250D02*
D03*
Y332750D02*
D03*
X490000Y367250D02*
D03*
Y332750D02*
D03*
X610000Y367250D02*
D03*
Y332750D02*
D03*
X730000Y367250D02*
D03*
Y332750D02*
D03*
X250000Y837250D02*
D03*
Y802750D02*
D03*
X730000Y857250D02*
D03*
Y822750D02*
D03*
X490000Y832750D02*
D03*
Y867250D02*
D03*
X610000D02*
D03*
Y832750D02*
D03*
X370000Y867250D02*
D03*
Y832750D02*
D03*
D71*
X934400Y614408D02*
D03*
X947100D02*
D03*
X959800D02*
D03*
X972500D02*
D03*
X985200D02*
D03*
X997900D02*
D03*
X1010600D02*
D03*
Y562592D02*
D03*
X997900D02*
D03*
X985200D02*
D03*
X972500D02*
D03*
X959800D02*
D03*
X947100D02*
D03*
X934400D02*
D03*
D72*
X782000Y560000D02*
D03*
X798000D02*
D03*
M02*
