G04*
G04 #@! TF.GenerationSoftware,Altium Limited,Altium Designer,24.6.1 (21)*
G04*
G04 Layer_Color=8421504*
%FSLAX44Y44*%
%MOMM*%
G71*
G04*
G04 #@! TF.SameCoordinates,B0C6F459-AFBE-4FB2-BAD8-FBBEB889AAAA*
G04*
G04*
G04 #@! TF.FilePolarity,Positive*
G04*
G01*
G75*
%ADD15R,1.4500X0.6000*%
%ADD16O,1.4500X0.6000*%
G04:AMPARAMS|DCode=17|XSize=1mm|YSize=0.35mm|CornerRadius=0.0438mm|HoleSize=0mm|Usage=FLASHONLY|Rotation=0.000|XOffset=0mm|YOffset=0mm|HoleType=Round|Shape=RoundedRectangle|*
%AMROUNDEDRECTD17*
21,1,1.0000,0.2625,0,0,0.0*
21,1,0.9125,0.3500,0,0,0.0*
1,1,0.0875,0.4563,-0.1313*
1,1,0.0875,-0.4563,-0.1313*
1,1,0.0875,-0.4563,0.1313*
1,1,0.0875,0.4563,0.1313*
%
%ADD17ROUNDEDRECTD17*%
%ADD18R,2.5400X1.2700*%
%ADD19R,1.6500X3.4300*%
%ADD20R,0.9500X0.8000*%
%ADD21R,2.2500X2.1000*%
%ADD22R,1.5000X1.4000*%
%ADD23R,1.4000X1.5000*%
%ADD24R,0.8000X0.9500*%
%ADD25R,0.6100X1.4200*%
G36*
X538250Y465850D02*
X523850D01*
Y476850D01*
X538250D01*
Y465850D01*
D02*
G37*
G36*
X436150D02*
X421750D01*
Y476850D01*
X436150D01*
Y465850D01*
D02*
G37*
G36*
X418250D02*
X403850D01*
Y476850D01*
X418250D01*
Y465850D01*
D02*
G37*
G36*
X316150D02*
X301750D01*
Y476850D01*
X316150D01*
Y465850D01*
D02*
G37*
G36*
X298250D02*
X283850D01*
Y476850D01*
X298250D01*
Y465850D01*
D02*
G37*
G36*
X538250Y451350D02*
X523850D01*
Y462350D01*
X538250D01*
Y451350D01*
D02*
G37*
G36*
X436150D02*
X421750D01*
Y462350D01*
X436150D01*
Y451350D01*
D02*
G37*
G36*
X418250D02*
X403850D01*
Y462350D01*
X418250D01*
Y451350D01*
D02*
G37*
G36*
X316150D02*
X301750D01*
Y462350D01*
X316150D01*
Y451350D01*
D02*
G37*
G36*
X298250D02*
X283850D01*
Y462350D01*
X298250D01*
Y451350D01*
D02*
G37*
G36*
X436150Y727650D02*
X421750D01*
Y738650D01*
X436150D01*
Y727650D01*
D02*
G37*
G36*
X418250D02*
X403850D01*
Y738650D01*
X418250D01*
Y727650D01*
D02*
G37*
G36*
X538250Y727650D02*
X523850D01*
Y738650D01*
X538250D01*
Y727650D01*
D02*
G37*
G36*
X436150Y713150D02*
X421750D01*
Y724150D01*
X436150D01*
Y713150D01*
D02*
G37*
G36*
X418250D02*
X403850D01*
Y724150D01*
X418250D01*
Y713150D01*
D02*
G37*
G36*
X538250Y713150D02*
X523850D01*
Y724150D01*
X538250D01*
Y713150D01*
D02*
G37*
G36*
X316150Y697650D02*
X301750D01*
Y708650D01*
X316150D01*
Y697650D01*
D02*
G37*
G36*
X298250D02*
X283850D01*
Y708650D01*
X298250D01*
Y697650D01*
D02*
G37*
G36*
X316150Y683150D02*
X301750D01*
Y694150D01*
X316150D01*
Y683150D01*
D02*
G37*
G36*
X298250D02*
X283850D01*
Y694150D01*
X298250D01*
Y683150D01*
D02*
G37*
G36*
X556150Y465850D02*
X541750D01*
Y476850D01*
X556150D01*
Y465850D01*
D02*
G37*
G36*
X796150Y465850D02*
X781750D01*
Y476850D01*
X796150D01*
Y465850D01*
D02*
G37*
G36*
X778250D02*
X763850D01*
Y476850D01*
X778250D01*
Y465850D01*
D02*
G37*
G36*
X676150D02*
X661750D01*
Y476850D01*
X676150D01*
Y465850D01*
D02*
G37*
G36*
X658250D02*
X643850D01*
Y476850D01*
X658250D01*
Y465850D01*
D02*
G37*
G36*
X556150Y451350D02*
X541750D01*
Y462350D01*
X556150D01*
Y451350D01*
D02*
G37*
G36*
X796150Y451350D02*
X781750D01*
Y462350D01*
X796150D01*
Y451350D01*
D02*
G37*
G36*
X778250D02*
X763850D01*
Y462350D01*
X778250D01*
Y451350D01*
D02*
G37*
G36*
X676150D02*
X661750D01*
Y462350D01*
X676150D01*
Y451350D01*
D02*
G37*
G36*
X658250D02*
X643850D01*
Y462350D01*
X658250D01*
Y451350D01*
D02*
G37*
G36*
X676150Y727650D02*
X661750D01*
Y738650D01*
X676150D01*
Y727650D01*
D02*
G37*
G36*
X658250D02*
X643850D01*
Y738650D01*
X658250D01*
Y727650D01*
D02*
G37*
G36*
X556150D02*
X541750D01*
Y738650D01*
X556150D01*
Y727650D01*
D02*
G37*
G36*
X796150Y717650D02*
X781750D01*
Y728650D01*
X796150D01*
Y717650D01*
D02*
G37*
G36*
X778250D02*
X763850D01*
Y728650D01*
X778250D01*
Y717650D01*
D02*
G37*
G36*
X676150Y713150D02*
X661750D01*
Y724150D01*
X676150D01*
Y713150D01*
D02*
G37*
G36*
X658250D02*
X643850D01*
Y724150D01*
X658250D01*
Y713150D01*
D02*
G37*
G36*
X556150D02*
X541750D01*
Y724150D01*
X556150D01*
Y713150D01*
D02*
G37*
G36*
X796150Y703150D02*
X781750D01*
Y714150D01*
X796150D01*
Y703150D01*
D02*
G37*
G36*
X778250D02*
X763850D01*
Y714150D01*
X778250D01*
Y703150D01*
D02*
G37*
D15*
X112250Y620950D02*
D03*
Y480950D02*
D03*
D16*
Y633650D02*
D03*
Y646350D02*
D03*
Y659050D02*
D03*
X57750Y620950D02*
D03*
Y633650D02*
D03*
Y646350D02*
D03*
Y659050D02*
D03*
Y519050D02*
D03*
Y506350D02*
D03*
Y493650D02*
D03*
Y480950D02*
D03*
X112250Y519050D02*
D03*
Y506350D02*
D03*
Y493650D02*
D03*
D17*
X127000Y592000D02*
D03*
X127050Y585000D02*
D03*
X127000Y578000D02*
D03*
X108000D02*
D03*
X107950Y585000D02*
D03*
X108000Y592000D02*
D03*
X58000Y578000D02*
D03*
X57950Y585000D02*
D03*
X58000Y592000D02*
D03*
X77000D02*
D03*
X77050Y585000D02*
D03*
X77000Y578000D02*
D03*
D18*
X1027001Y589999D02*
D03*
Y559999D02*
D03*
X933001Y589999D02*
D03*
Y559999D02*
D03*
X1027001Y439999D02*
D03*
Y409999D02*
D03*
X933001Y439999D02*
D03*
Y409999D02*
D03*
X913000Y710000D02*
D03*
X1007000D02*
D03*
D19*
X980001Y628849D02*
D03*
Y521149D02*
D03*
Y478849D02*
D03*
Y371149D02*
D03*
X960000Y671150D02*
D03*
Y748850D02*
D03*
D20*
X55000Y559000D02*
D03*
Y546000D02*
D03*
X80000D02*
D03*
Y559000D02*
D03*
X105000D02*
D03*
Y546000D02*
D03*
X1005000Y661500D02*
D03*
Y648500D02*
D03*
X904000Y618500D02*
D03*
Y631500D02*
D03*
X130000Y546000D02*
D03*
Y559000D02*
D03*
D21*
X257250Y160000D02*
D03*
X222750D02*
D03*
D22*
X1025000Y665000D02*
D03*
Y645000D02*
D03*
X922000Y635000D02*
D03*
Y615000D02*
D03*
D23*
X817500Y162500D02*
D03*
X837500D02*
D03*
X817500Y195000D02*
D03*
X837500D02*
D03*
D24*
X801500Y162500D02*
D03*
X788500D02*
D03*
X801500Y195000D02*
D03*
X788500D02*
D03*
D25*
X760950Y487450D02*
D03*
X773650D02*
D03*
X786350D02*
D03*
X799050D02*
D03*
Y432550D02*
D03*
X786350D02*
D03*
X773650D02*
D03*
X760950D02*
D03*
X640950Y487450D02*
D03*
X653650D02*
D03*
X666350D02*
D03*
X679050D02*
D03*
Y432550D02*
D03*
X666350D02*
D03*
X653650D02*
D03*
X640950D02*
D03*
X520950Y432550D02*
D03*
X533650D02*
D03*
X546350D02*
D03*
X559050D02*
D03*
Y487450D02*
D03*
X546350D02*
D03*
X533650D02*
D03*
X520950D02*
D03*
X400950D02*
D03*
X413650D02*
D03*
X426350D02*
D03*
X439050D02*
D03*
Y432550D02*
D03*
X426350D02*
D03*
X413650D02*
D03*
X400950D02*
D03*
X280950Y487450D02*
D03*
X293650D02*
D03*
X306350D02*
D03*
X319050D02*
D03*
Y432550D02*
D03*
X306350D02*
D03*
X293650D02*
D03*
X280950D02*
D03*
X799050Y692550D02*
D03*
X786350D02*
D03*
X773650D02*
D03*
X760950D02*
D03*
Y747450D02*
D03*
X773650D02*
D03*
X786350D02*
D03*
X799050D02*
D03*
X679050Y702550D02*
D03*
X666350D02*
D03*
X653650D02*
D03*
X640950D02*
D03*
Y757450D02*
D03*
X653650D02*
D03*
X666350D02*
D03*
X679050D02*
D03*
X559050D02*
D03*
X546350D02*
D03*
X533650D02*
D03*
X520950D02*
D03*
Y702550D02*
D03*
X533650D02*
D03*
X546350D02*
D03*
X559050D02*
D03*
X439050Y757450D02*
D03*
X426350D02*
D03*
X413650D02*
D03*
X400950D02*
D03*
Y702550D02*
D03*
X413650D02*
D03*
X426350D02*
D03*
X439050D02*
D03*
X319050Y727450D02*
D03*
X306350D02*
D03*
X293650D02*
D03*
X280950D02*
D03*
Y672550D02*
D03*
X293650D02*
D03*
X306350D02*
D03*
X319050D02*
D03*
M02*
