G04*
G04 #@! TF.GenerationSoftware,Altium Limited,Altium Designer,24.6.1 (21)*
G04*
G04 Layer_Color=32896*
%FSLAX44Y44*%
%MOMM*%
G71*
G04*
G04 #@! TF.SameCoordinates,76CF6C06-BC2D-46F0-ABF8-FF5A8D4226AB*
G04*
G04*
G04 #@! TF.FilePolarity,Positive*
G04*
G01*
G75*
%ADD10C,0.2500*%
%ADD11C,0.2000*%
%ADD12C,0.1500*%
%ADD79C,0.6000*%
%ADD80C,0.1000*%
%ADD81C,0.1524*%
G36*
X973526Y528134D02*
X975205D01*
Y527966D01*
X976213D01*
Y527799D01*
X977220D01*
Y527631D01*
X978060D01*
Y527463D01*
X978731D01*
Y527295D01*
X979235D01*
Y527127D01*
X979907D01*
Y526959D01*
X980410D01*
Y526791D01*
X980746D01*
Y526623D01*
X981250D01*
Y526455D01*
X981586D01*
Y526287D01*
X982090D01*
Y526119D01*
X982425D01*
Y525951D01*
X982593D01*
Y525784D01*
X982929D01*
Y525616D01*
X983265D01*
Y525448D01*
X983601D01*
Y525280D01*
X983937D01*
Y525112D01*
X984105D01*
Y524944D01*
X984272D01*
Y524776D01*
X984608D01*
Y524608D01*
X984776D01*
Y524440D01*
X985112D01*
Y524272D01*
X985280D01*
Y524104D01*
X985448D01*
Y523937D01*
X985616D01*
Y523769D01*
X985784D01*
Y523601D01*
X985952D01*
Y523433D01*
X986119D01*
Y523265D01*
X986287D01*
Y523097D01*
X986455D01*
Y522929D01*
X986623D01*
Y522761D01*
X986791D01*
Y522593D01*
X986959D01*
Y522425D01*
X987127D01*
Y522257D01*
X987295D01*
Y521922D01*
X987463D01*
Y521754D01*
X987631D01*
Y521418D01*
X987798D01*
Y521250D01*
X987966D01*
Y520914D01*
X988134D01*
Y520746D01*
X988302D01*
Y520410D01*
X988470D01*
Y520075D01*
X988638D01*
Y519739D01*
X988806D01*
Y519403D01*
X988974D01*
Y518899D01*
X989142D01*
Y518396D01*
X989310D01*
Y518060D01*
X989478D01*
Y517388D01*
X989645D01*
Y516716D01*
X989813D01*
Y516045D01*
X989981D01*
Y515037D01*
X990149D01*
Y513190D01*
X990317D01*
Y510840D01*
X990149D01*
Y508657D01*
X989981D01*
Y507313D01*
X989813D01*
Y506306D01*
X989645D01*
Y505466D01*
X989478D01*
Y504627D01*
X989310D01*
Y503787D01*
X989142D01*
Y503116D01*
X988974D01*
Y502444D01*
X988806D01*
Y501940D01*
X988638D01*
Y501269D01*
X988470D01*
Y500765D01*
X988302D01*
Y500261D01*
X988134D01*
Y499590D01*
X987966D01*
Y499086D01*
X987798D01*
Y498582D01*
X987631D01*
Y498078D01*
X987463D01*
Y497575D01*
X987295D01*
Y497239D01*
X987127D01*
Y496735D01*
X986959D01*
Y496231D01*
X986791D01*
Y495728D01*
X986623D01*
Y495392D01*
X986455D01*
Y494888D01*
X986287D01*
Y494552D01*
X986119D01*
Y494049D01*
X985952D01*
Y493713D01*
X985784D01*
Y493377D01*
X985616D01*
Y492873D01*
X985448D01*
Y492537D01*
X985280D01*
Y492201D01*
X985112D01*
Y491866D01*
X984944D01*
Y491362D01*
X984776D01*
Y491026D01*
X984608D01*
Y490690D01*
X984440D01*
Y490354D01*
X984272D01*
Y490019D01*
X984105D01*
Y489683D01*
X983937D01*
Y489347D01*
X983769D01*
Y489011D01*
X983601D01*
Y488675D01*
X983433D01*
Y488340D01*
X983265D01*
Y488004D01*
X983097D01*
Y487500D01*
X983433D01*
Y487332D01*
X983601D01*
Y487164D01*
X983769D01*
Y486996D01*
X983937D01*
Y486828D01*
X984105D01*
Y486660D01*
X984272D01*
Y486493D01*
X984440D01*
Y486325D01*
X984608D01*
Y486157D01*
X984776D01*
Y485821D01*
X984944D01*
Y485653D01*
X985112D01*
Y485317D01*
X985280D01*
Y484981D01*
X985448D01*
Y484478D01*
X985616D01*
Y483974D01*
X985784D01*
Y481791D01*
X985616D01*
Y481287D01*
X985448D01*
Y480784D01*
X985280D01*
Y480448D01*
X985112D01*
Y480280D01*
X984944D01*
Y479944D01*
X984776D01*
Y479440D01*
X984608D01*
Y479104D01*
X984440D01*
Y478601D01*
X984272D01*
Y478265D01*
X984105D01*
Y477761D01*
X984272D01*
Y477257D01*
X984440D01*
Y476922D01*
X984608D01*
Y476418D01*
X984776D01*
Y475914D01*
X984944D01*
Y475578D01*
X985112D01*
Y475075D01*
X985280D01*
Y474739D01*
X985448D01*
Y474235D01*
X985616D01*
Y473899D01*
X985784D01*
Y473563D01*
X985952D01*
Y473060D01*
X986119D01*
Y472724D01*
X986287D01*
Y472388D01*
X986455D01*
Y471884D01*
X986623D01*
Y471549D01*
X986791D01*
Y471213D01*
X986959D01*
Y470877D01*
X987127D01*
Y470373D01*
X987295D01*
Y470037D01*
X987463D01*
Y469701D01*
X987631D01*
Y469366D01*
X987798D01*
Y469030D01*
X987966D01*
Y468694D01*
X988134D01*
Y468358D01*
X988302D01*
Y468022D01*
X988470D01*
Y467687D01*
X988638D01*
Y467351D01*
X988806D01*
Y467015D01*
X988974D01*
Y466679D01*
X989142D01*
Y466343D01*
X989310D01*
Y466175D01*
X989478D01*
Y465840D01*
X989645D01*
Y465504D01*
X989813D01*
Y465168D01*
X989981D01*
Y465000D01*
X990149D01*
Y464664D01*
X990317D01*
Y464328D01*
X990485D01*
Y463993D01*
X990653D01*
Y463825D01*
X990821D01*
Y463489D01*
X990989D01*
Y463321D01*
X991157D01*
Y462985D01*
X991325D01*
Y462817D01*
X991492D01*
Y462481D01*
X991660D01*
Y462146D01*
X991828D01*
Y461978D01*
X991996D01*
Y461642D01*
X992164D01*
Y461474D01*
X992332D01*
Y461306D01*
X992500D01*
Y460970D01*
X992668D01*
Y460802D01*
X992836D01*
Y460466D01*
X993004D01*
Y460299D01*
X993172D01*
Y460131D01*
X993339D01*
Y459795D01*
X993508D01*
Y459627D01*
X993675D01*
Y459459D01*
X993843D01*
Y459291D01*
X994011D01*
Y459123D01*
X994179D01*
Y458787D01*
X994347D01*
Y458619D01*
X994515D01*
Y458451D01*
X994683D01*
Y458284D01*
X994851D01*
Y458116D01*
X995019D01*
Y457780D01*
X995187D01*
Y457612D01*
X995355D01*
Y457444D01*
X995522D01*
Y457276D01*
X995690D01*
Y457108D01*
X995858D01*
Y456940D01*
X996026D01*
Y456772D01*
X996194D01*
Y456604D01*
X996362D01*
Y456437D01*
X996530D01*
Y456269D01*
X996698D01*
Y456101D01*
X996866D01*
Y455933D01*
X997034D01*
Y455765D01*
X997369D01*
Y455597D01*
X997537D01*
Y455429D01*
X997705D01*
Y455261D01*
X997873D01*
Y455093D01*
X998041D01*
Y454925D01*
X998377D01*
Y454757D01*
X998545D01*
Y454590D01*
X998713D01*
Y454422D01*
X999048D01*
Y454254D01*
X999216D01*
Y454086D01*
X999552D01*
Y453918D01*
X999720D01*
Y453750D01*
X1000056D01*
Y453582D01*
X1000392D01*
Y453414D01*
X1000728D01*
Y453246D01*
X1000895D01*
Y453078D01*
X1001399D01*
Y452910D01*
X1001735D01*
Y452743D01*
X1002071D01*
Y452575D01*
X1002575D01*
Y452407D01*
X1003078D01*
Y452239D01*
X1003750D01*
Y452071D01*
X1004590D01*
Y451903D01*
X1006101D01*
Y451735D01*
X1008116D01*
Y451903D01*
X1009795D01*
Y452071D01*
X1010634D01*
Y452239D01*
X1011306D01*
Y452407D01*
X1011810D01*
Y452575D01*
X1012313D01*
Y452743D01*
X1012817D01*
Y452910D01*
X1013153D01*
Y453078D01*
X1013489D01*
Y453246D01*
X1013825D01*
Y453414D01*
X1014160D01*
Y453582D01*
X1014328D01*
Y453750D01*
X1014664D01*
Y453918D01*
X1014832D01*
Y454086D01*
X1015168D01*
Y454254D01*
X1015336D01*
Y454422D01*
X1015504D01*
Y454590D01*
X1015672D01*
Y454757D01*
X1015839D01*
Y454925D01*
X1016008D01*
Y455093D01*
X1016175D01*
Y455261D01*
X1016343D01*
Y455429D01*
X1016511D01*
Y455597D01*
X1016679D01*
Y455765D01*
X1016847D01*
Y455933D01*
X1017015D01*
Y456101D01*
X1017183D01*
Y456437D01*
X1017351D01*
Y456604D01*
X1017519D01*
Y456940D01*
X1017687D01*
Y457276D01*
X1017855D01*
Y457444D01*
X1018022D01*
Y457780D01*
X1018190D01*
Y458116D01*
X1018358D01*
Y458619D01*
X1018526D01*
Y458955D01*
X1018694D01*
Y459459D01*
X1018862D01*
Y459963D01*
X1019030D01*
Y460634D01*
X1019198D01*
Y461642D01*
X1019366D01*
Y465336D01*
X1019198D01*
Y466343D01*
X1019030D01*
Y466847D01*
X1018862D01*
Y467519D01*
X1018694D01*
Y468022D01*
X1018526D01*
Y468358D01*
X1018358D01*
Y468694D01*
X1018190D01*
Y469030D01*
X1018022D01*
Y469366D01*
X1017855D01*
Y469701D01*
X1017687D01*
Y469869D01*
X1017519D01*
Y470037D01*
X1017351D01*
Y470373D01*
X1017183D01*
Y470541D01*
X1017015D01*
Y470709D01*
X1016847D01*
Y470877D01*
X1016679D01*
Y471045D01*
X1016511D01*
Y471213D01*
X1016343D01*
Y471381D01*
X1016175D01*
Y471549D01*
X1016008D01*
Y471716D01*
X1015672D01*
Y471884D01*
X1015504D01*
Y472052D01*
X1015336D01*
Y472220D01*
X1015000D01*
Y472388D01*
X1014832D01*
Y472556D01*
X1014496D01*
Y472724D01*
X1014160D01*
Y472892D01*
X1013825D01*
Y473060D01*
X1013321D01*
Y473228D01*
X1012985D01*
Y473396D01*
X1012481D01*
Y473563D01*
X1011978D01*
Y473731D01*
X1011306D01*
Y473899D01*
X1010634D01*
Y474067D01*
X1009627D01*
Y474235D01*
X1005933D01*
Y474403D01*
X1005597D01*
Y474571D01*
X1005261D01*
Y474907D01*
X1005093D01*
Y475410D01*
X1005261D01*
Y475746D01*
X1005429D01*
Y476082D01*
X1005597D01*
Y476250D01*
X1005765D01*
Y476418D01*
X1006101D01*
Y476586D01*
X1006269D01*
Y476754D01*
X1006605D01*
Y476922D01*
X1006940D01*
Y477090D01*
X1007444D01*
Y477257D01*
X1008116D01*
Y477425D01*
X1009123D01*
Y477593D01*
X1011978D01*
Y477425D01*
X1012985D01*
Y477257D01*
X1013657D01*
Y477090D01*
X1014328D01*
Y476922D01*
X1014832D01*
Y476754D01*
X1015336D01*
Y476586D01*
X1015839D01*
Y476418D01*
X1016175D01*
Y476250D01*
X1016511D01*
Y476082D01*
X1016847D01*
Y475914D01*
X1017183D01*
Y475746D01*
X1017519D01*
Y475578D01*
X1017687D01*
Y475410D01*
X1018022D01*
Y475243D01*
X1018358D01*
Y475075D01*
X1018526D01*
Y474907D01*
X1018862D01*
Y474739D01*
X1019030D01*
Y474571D01*
X1019198D01*
Y474403D01*
X1019366D01*
Y474235D01*
X1019702D01*
Y474067D01*
X1019869D01*
Y473899D01*
X1020037D01*
Y473731D01*
X1020205D01*
Y473563D01*
X1020373D01*
Y473396D01*
X1020541D01*
Y473228D01*
X1020709D01*
Y473060D01*
X1020877D01*
Y472892D01*
X1021045D01*
Y472724D01*
X1021213D01*
Y472556D01*
X1021381D01*
Y472388D01*
X1021548D01*
Y472052D01*
X1021716D01*
Y471884D01*
X1021884D01*
Y471716D01*
X1022052D01*
Y471549D01*
X1022220D01*
Y471213D01*
X1022388D01*
Y471045D01*
X1022556D01*
Y470709D01*
X1022724D01*
Y470373D01*
X1022892D01*
Y470205D01*
X1023060D01*
Y469869D01*
X1023228D01*
Y469534D01*
X1023395D01*
Y469198D01*
X1023563D01*
Y468862D01*
X1023731D01*
Y468526D01*
X1023899D01*
Y468022D01*
X1024067D01*
Y467687D01*
X1024235D01*
Y467183D01*
X1024403D01*
Y466679D01*
X1024571D01*
Y466175D01*
X1024739D01*
Y465504D01*
X1024907D01*
Y464664D01*
X1025075D01*
Y463657D01*
X1025242D01*
Y459291D01*
X1025075D01*
Y458284D01*
X1024907D01*
Y457612D01*
X1024739D01*
Y456940D01*
X1024571D01*
Y456437D01*
X1024403D01*
Y455933D01*
X1024235D01*
Y455429D01*
X1024067D01*
Y455093D01*
X1023899D01*
Y454590D01*
X1023731D01*
Y454254D01*
X1023563D01*
Y453918D01*
X1023395D01*
Y453582D01*
X1023228D01*
Y453246D01*
X1023060D01*
Y453078D01*
X1022892D01*
Y452743D01*
X1022724D01*
Y452407D01*
X1022556D01*
Y452239D01*
X1022388D01*
Y451903D01*
X1022220D01*
Y451735D01*
X1022052D01*
Y451399D01*
X1021884D01*
Y451231D01*
X1021716D01*
Y450896D01*
X1021548D01*
Y450728D01*
X1021381D01*
Y450560D01*
X1021213D01*
Y450392D01*
X1021045D01*
Y450224D01*
X1020877D01*
Y449888D01*
X1020709D01*
Y449720D01*
X1020541D01*
Y449552D01*
X1020373D01*
Y449384D01*
X1020205D01*
Y449216D01*
X1019869D01*
Y449049D01*
X1019702D01*
Y448881D01*
X1019534D01*
Y448713D01*
X1019366D01*
Y448545D01*
X1019030D01*
Y448377D01*
X1018862D01*
Y448209D01*
X1018694D01*
Y448041D01*
X1018358D01*
Y447873D01*
X1018022D01*
Y447705D01*
X1017855D01*
Y447537D01*
X1017519D01*
Y447369D01*
X1017183D01*
Y447201D01*
X1016847D01*
Y447034D01*
X1016511D01*
Y446866D01*
X1016008D01*
Y446698D01*
X1015672D01*
Y446530D01*
X1015168D01*
Y446362D01*
X1014664D01*
Y446194D01*
X1014160D01*
Y446026D01*
X1013657D01*
Y445858D01*
X1012985D01*
Y445690D01*
X1012145D01*
Y445522D01*
X1011306D01*
Y445354D01*
X1010131D01*
Y445187D01*
X1008619D01*
Y445019D01*
X1005765D01*
Y444851D01*
X1004758D01*
Y445019D01*
X1003246D01*
Y444683D01*
X1003414D01*
Y444011D01*
X1003582D01*
Y443340D01*
X1003750D01*
Y442500D01*
X1003918D01*
Y441828D01*
X1004086D01*
Y440989D01*
X1004254D01*
Y440149D01*
X1004422D01*
Y439310D01*
X1004590D01*
Y438302D01*
X1004758D01*
Y437295D01*
X1004925D01*
Y436119D01*
X1005093D01*
Y434944D01*
X1005261D01*
Y433097D01*
X1005429D01*
Y427556D01*
X1007108D01*
Y427724D01*
X1008116D01*
Y427892D01*
X1008955D01*
Y428060D01*
X1009459D01*
Y428228D01*
X1009963D01*
Y428396D01*
X1010298D01*
Y428563D01*
X1010634D01*
Y428731D01*
X1010970D01*
Y428899D01*
X1011306D01*
Y429067D01*
X1011642D01*
Y429235D01*
X1011810D01*
Y429403D01*
X1012145D01*
Y429571D01*
X1012313D01*
Y429739D01*
X1012481D01*
Y429907D01*
X1012649D01*
Y430075D01*
X1012817D01*
Y430243D01*
X1013153D01*
Y430410D01*
X1013321D01*
Y430578D01*
X1013489D01*
Y430914D01*
X1013657D01*
Y431082D01*
X1013825D01*
Y431250D01*
X1013992D01*
Y431418D01*
X1014160D01*
Y431754D01*
X1014328D01*
Y431922D01*
X1014496D01*
Y432090D01*
X1014664D01*
Y432425D01*
X1014832D01*
Y432761D01*
X1015000D01*
Y432929D01*
X1015168D01*
Y433265D01*
X1015336D01*
Y433601D01*
X1015504D01*
Y434104D01*
X1015672D01*
Y434440D01*
X1015839D01*
Y434944D01*
X1016008D01*
Y435616D01*
X1016175D01*
Y436791D01*
X1016343D01*
Y437295D01*
X1016511D01*
Y437631D01*
X1016679D01*
Y437966D01*
X1016847D01*
Y438134D01*
X1017015D01*
Y438302D01*
X1017855D01*
Y438134D01*
X1018190D01*
Y437966D01*
X1018358D01*
Y437799D01*
X1018526D01*
Y437631D01*
X1018694D01*
Y437463D01*
X1018862D01*
Y437127D01*
X1019030D01*
Y436791D01*
X1019198D01*
Y436119D01*
X1019366D01*
Y433601D01*
X1019198D01*
Y432761D01*
X1019030D01*
Y432257D01*
X1018862D01*
Y431754D01*
X1018694D01*
Y431250D01*
X1018526D01*
Y430914D01*
X1018358D01*
Y430578D01*
X1018190D01*
Y430243D01*
X1018022D01*
Y429907D01*
X1017855D01*
Y429739D01*
X1017687D01*
Y429403D01*
X1017519D01*
Y429235D01*
X1017351D01*
Y428899D01*
X1017183D01*
Y428731D01*
X1017015D01*
Y428563D01*
X1016847D01*
Y428228D01*
X1016679D01*
Y428060D01*
X1016511D01*
Y427892D01*
X1016343D01*
Y427724D01*
X1016175D01*
Y427556D01*
X1016008D01*
Y427388D01*
X1015839D01*
Y427220D01*
X1015672D01*
Y427052D01*
X1015504D01*
Y426884D01*
X1015336D01*
Y426716D01*
X1015168D01*
Y426549D01*
X1014832D01*
Y426381D01*
X1014664D01*
Y426213D01*
X1014496D01*
Y426045D01*
X1014160D01*
Y425877D01*
X1013992D01*
Y425709D01*
X1013657D01*
Y425541D01*
X1013489D01*
Y425373D01*
X1013153D01*
Y425205D01*
X1012985D01*
Y425037D01*
X1012649D01*
Y424869D01*
X1012313D01*
Y424701D01*
X1011978D01*
Y424534D01*
X1011642D01*
Y424366D01*
X1011306D01*
Y424198D01*
X1010970D01*
Y424030D01*
X1010466D01*
Y423862D01*
X1009963D01*
Y423694D01*
X1009459D01*
Y423526D01*
X1008787D01*
Y423358D01*
X1008116D01*
Y423190D01*
X1007276D01*
Y423022D01*
X1006269D01*
Y422854D01*
X1004758D01*
Y422351D01*
X1004590D01*
Y421679D01*
X1004422D01*
Y421007D01*
X1004254D01*
Y420672D01*
X1004086D01*
Y420168D01*
X1003918D01*
Y419832D01*
X1003750D01*
Y419328D01*
X1003582D01*
Y418993D01*
X1003414D01*
Y418657D01*
X1003246D01*
Y418321D01*
X1003078D01*
Y417985D01*
X1002910D01*
Y417649D01*
X1002742D01*
Y417313D01*
X1002575D01*
Y416978D01*
X1002407D01*
Y416810D01*
X1002239D01*
Y416474D01*
X1002071D01*
Y416138D01*
X1001903D01*
Y415970D01*
X1001735D01*
Y415634D01*
X1001567D01*
Y415466D01*
X1001399D01*
Y415131D01*
X1001231D01*
Y414963D01*
X1001063D01*
Y414627D01*
X1000895D01*
Y414459D01*
X1000728D01*
Y414291D01*
X1000560D01*
Y413955D01*
X1000392D01*
Y413787D01*
X1000224D01*
Y413619D01*
X1000056D01*
Y413451D01*
X999888D01*
Y413284D01*
X999720D01*
Y412948D01*
X999552D01*
Y412780D01*
X999384D01*
Y412612D01*
X999216D01*
Y412444D01*
X999048D01*
Y412276D01*
X998881D01*
Y412108D01*
X998713D01*
Y411940D01*
X998545D01*
Y411772D01*
X998377D01*
Y411604D01*
X998209D01*
Y411437D01*
X998041D01*
Y411269D01*
X997705D01*
Y411101D01*
X997537D01*
Y410933D01*
X997369D01*
Y410765D01*
X997202D01*
Y410597D01*
X996866D01*
Y410429D01*
X996698D01*
Y410261D01*
X996362D01*
Y410093D01*
X996194D01*
Y409925D01*
X995858D01*
Y409757D01*
X995690D01*
Y409590D01*
X995355D01*
Y409422D01*
X995019D01*
Y409254D01*
X994683D01*
Y409086D01*
X994347D01*
Y408918D01*
X994011D01*
Y408750D01*
X993675D01*
Y408582D01*
X993172D01*
Y408414D01*
X992668D01*
Y408246D01*
X991996D01*
Y408078D01*
X991325D01*
Y407910D01*
X990317D01*
Y407743D01*
X989142D01*
Y407575D01*
X988974D01*
Y407071D01*
X988806D01*
Y406735D01*
X988638D01*
Y406399D01*
X988470D01*
Y406063D01*
X988302D01*
Y405728D01*
X988134D01*
Y405560D01*
X987966D01*
Y405224D01*
X987798D01*
Y404888D01*
X987631D01*
Y404552D01*
X987463D01*
Y404384D01*
X987295D01*
Y404049D01*
X987127D01*
Y403713D01*
X986959D01*
Y403377D01*
X986791D01*
Y403209D01*
X986623D01*
Y402873D01*
X986455D01*
Y402537D01*
X986287D01*
Y402369D01*
X986119D01*
Y402034D01*
X985952D01*
Y401698D01*
X985784D01*
Y401530D01*
X985616D01*
Y401194D01*
X985448D01*
Y400858D01*
X985280D01*
Y400690D01*
X985112D01*
Y400354D01*
X984944D01*
Y400019D01*
X984776D01*
Y399851D01*
X984608D01*
Y399515D01*
X984440D01*
Y399347D01*
X984272D01*
Y399179D01*
X984105D01*
Y398843D01*
X983937D01*
Y398675D01*
X983769D01*
Y398507D01*
X983601D01*
Y398340D01*
X983433D01*
Y398004D01*
X983265D01*
Y397836D01*
X983097D01*
Y397668D01*
X982929D01*
Y397500D01*
X982761D01*
Y397332D01*
X982593D01*
Y397164D01*
X982425D01*
Y396996D01*
X982090D01*
Y396828D01*
X981922D01*
Y396660D01*
X981754D01*
Y396493D01*
X981586D01*
Y396325D01*
X981250D01*
Y396157D01*
X981082D01*
Y395989D01*
X980914D01*
Y395821D01*
X980578D01*
Y395653D01*
X980410D01*
Y395485D01*
X980075D01*
Y395317D01*
X979739D01*
Y395149D01*
X979403D01*
Y394981D01*
X979067D01*
Y394813D01*
X978731D01*
Y394646D01*
X978395D01*
Y394478D01*
X978060D01*
Y394310D01*
X977556D01*
Y394142D01*
X977052D01*
Y393974D01*
X976548D01*
Y393806D01*
X975877D01*
Y393638D01*
X975037D01*
Y393470D01*
X974198D01*
Y393302D01*
X969832D01*
Y393470D01*
X968657D01*
Y393638D01*
X967985D01*
Y393806D01*
X967313D01*
Y393974D01*
X966810D01*
Y394142D01*
X966306D01*
Y394310D01*
X965802D01*
Y394478D01*
X965466D01*
Y394646D01*
X965131D01*
Y394813D01*
X964795D01*
Y394981D01*
X964627D01*
Y395149D01*
X964291D01*
Y395317D01*
X964123D01*
Y395485D01*
X963787D01*
Y395653D01*
X963619D01*
Y395821D01*
X963452D01*
Y395989D01*
X963284D01*
Y396157D01*
X962948D01*
Y396493D01*
X962780D01*
Y396660D01*
X962612D01*
Y396828D01*
X962444D01*
Y396996D01*
X962276D01*
Y397332D01*
X962108D01*
Y397668D01*
X961940D01*
Y398172D01*
X961772D01*
Y398843D01*
X961940D01*
Y399011D01*
X962108D01*
Y399179D01*
X962444D01*
Y399347D01*
X964459D01*
Y399179D01*
X965298D01*
Y399011D01*
X965970D01*
Y398843D01*
X966474D01*
Y398675D01*
X967145D01*
Y398507D01*
X967649D01*
Y398340D01*
X968153D01*
Y398172D01*
X968657D01*
Y398004D01*
X969328D01*
Y397836D01*
X970504D01*
Y397668D01*
X970839D01*
Y397836D01*
X972519D01*
Y398004D01*
X973190D01*
Y398172D01*
X973694D01*
Y398340D01*
X974030D01*
Y398507D01*
X974366D01*
Y398675D01*
X974869D01*
Y398843D01*
X975037D01*
Y399011D01*
X975373D01*
Y399179D01*
X975709D01*
Y399347D01*
X975877D01*
Y399515D01*
X976213D01*
Y399683D01*
X976381D01*
Y399851D01*
X976548D01*
Y400019D01*
X976884D01*
Y400187D01*
X977052D01*
Y400354D01*
X977220D01*
Y400522D01*
X977388D01*
Y400690D01*
X977556D01*
Y400858D01*
X977724D01*
Y401026D01*
X977892D01*
Y401194D01*
X978060D01*
Y401362D01*
X978228D01*
Y401530D01*
X978395D01*
Y401698D01*
X978563D01*
Y401866D01*
X978731D01*
Y402034D01*
X978899D01*
Y402201D01*
X979067D01*
Y402369D01*
X979235D01*
Y402537D01*
X979403D01*
Y402873D01*
X979571D01*
Y403041D01*
X979739D01*
Y403209D01*
X979907D01*
Y403377D01*
X980075D01*
Y403713D01*
X980242D01*
Y403881D01*
X980410D01*
Y404049D01*
X980578D01*
Y404384D01*
X980746D01*
Y404552D01*
X980914D01*
Y404888D01*
X981082D01*
Y405224D01*
X981250D01*
Y405392D01*
X981418D01*
Y405728D01*
X981586D01*
Y406063D01*
X981754D01*
Y406399D01*
X981922D01*
Y406567D01*
X982090D01*
Y407071D01*
X982257D01*
Y407407D01*
X982425D01*
Y407743D01*
X982593D01*
Y408246D01*
X982761D01*
Y408414D01*
X982425D01*
Y408582D01*
X981922D01*
Y408750D01*
X981586D01*
Y408918D01*
X981082D01*
Y409086D01*
X980914D01*
Y409254D01*
X980578D01*
Y409422D01*
X980242D01*
Y409590D01*
X979907D01*
Y409757D01*
X979739D01*
Y409925D01*
X979403D01*
Y410093D01*
X979235D01*
Y410261D01*
X979067D01*
Y410429D01*
X978731D01*
Y410597D01*
X978563D01*
Y410765D01*
X978395D01*
Y410933D01*
X978228D01*
Y411101D01*
X978060D01*
Y411269D01*
X977892D01*
Y411437D01*
X977724D01*
Y411604D01*
X977556D01*
Y411772D01*
X977388D01*
Y411940D01*
X977220D01*
Y412108D01*
X977052D01*
Y412276D01*
X976884D01*
Y412444D01*
X976716D01*
Y412612D01*
X976548D01*
Y412948D01*
X976381D01*
Y413116D01*
X976213D01*
Y413284D01*
X976045D01*
Y413619D01*
X975877D01*
Y413787D01*
X975709D01*
Y414123D01*
X975541D01*
Y414459D01*
X975373D01*
Y414795D01*
X975205D01*
Y414963D01*
X975037D01*
Y415299D01*
X974869D01*
Y415634D01*
X974702D01*
Y416138D01*
X974534D01*
Y416474D01*
X974366D01*
Y416978D01*
X974198D01*
Y417481D01*
X974030D01*
Y417985D01*
X973862D01*
Y418657D01*
X973694D01*
Y419328D01*
X973526D01*
Y420504D01*
X973358D01*
Y422687D01*
X973526D01*
Y423526D01*
X973694D01*
Y423862D01*
X973862D01*
Y424198D01*
X974030D01*
Y424366D01*
X974198D01*
Y424534D01*
X974366D01*
Y424701D01*
X974534D01*
Y424869D01*
X974869D01*
Y425037D01*
X975373D01*
Y424869D01*
X975709D01*
Y424701D01*
X975877D01*
Y424366D01*
X976045D01*
Y424030D01*
X976213D01*
Y423526D01*
X976381D01*
Y422519D01*
X976548D01*
Y421679D01*
X976716D01*
Y421343D01*
X976884D01*
Y420840D01*
X977052D01*
Y420336D01*
X977220D01*
Y420000D01*
X977388D01*
Y419832D01*
X977556D01*
Y419496D01*
X977724D01*
Y419160D01*
X977892D01*
Y418825D01*
X978060D01*
Y418657D01*
X978228D01*
Y418321D01*
X978395D01*
Y418153D01*
X978563D01*
Y417985D01*
X978731D01*
Y417817D01*
X978899D01*
Y417481D01*
X979067D01*
Y417313D01*
X979235D01*
Y417146D01*
X979403D01*
Y416978D01*
X979571D01*
Y416810D01*
X979739D01*
Y416642D01*
X980075D01*
Y416474D01*
X980242D01*
Y416306D01*
X980410D01*
Y416138D01*
X980746D01*
Y415970D01*
X980914D01*
Y415802D01*
X981250D01*
Y415634D01*
X981418D01*
Y415466D01*
X981754D01*
Y415299D01*
X982090D01*
Y415131D01*
X982593D01*
Y414963D01*
X982929D01*
Y414795D01*
X983097D01*
Y415131D01*
X982929D01*
Y415970D01*
X982761D01*
Y416810D01*
X982593D01*
Y417481D01*
X982425D01*
Y418153D01*
X982257D01*
Y418657D01*
X982090D01*
Y419160D01*
X981922D01*
Y419664D01*
X981754D01*
Y420168D01*
X981586D01*
Y420672D01*
X981418D01*
Y421175D01*
X981250D01*
Y421511D01*
X981082D01*
Y422015D01*
X980914D01*
Y422351D01*
X980746D01*
Y422854D01*
X980578D01*
Y423190D01*
X980410D01*
Y423526D01*
X980242D01*
Y424030D01*
X980075D01*
Y424366D01*
X979907D01*
Y424701D01*
X979739D01*
Y425037D01*
X979571D01*
Y425373D01*
X979403D01*
Y425709D01*
X979235D01*
Y426045D01*
X979067D01*
Y426381D01*
X978899D01*
Y426716D01*
X978731D01*
Y427052D01*
X978563D01*
Y427388D01*
X978395D01*
Y427724D01*
X978228D01*
Y428060D01*
X978060D01*
Y428396D01*
X977892D01*
Y428563D01*
X977724D01*
Y428899D01*
X977556D01*
Y429235D01*
X977388D01*
Y429571D01*
X977220D01*
Y429907D01*
X977052D01*
Y430075D01*
X976884D01*
Y430410D01*
X976716D01*
Y430746D01*
X976548D01*
Y430914D01*
X976381D01*
Y431250D01*
X976213D01*
Y431586D01*
X976045D01*
Y431754D01*
X975877D01*
Y432090D01*
X975709D01*
Y432425D01*
X975541D01*
Y432593D01*
X975373D01*
Y432929D01*
X975205D01*
Y433265D01*
X975037D01*
Y433433D01*
X974869D01*
Y433769D01*
X974702D01*
Y433937D01*
X974534D01*
Y434272D01*
X974366D01*
Y434440D01*
X974198D01*
Y434776D01*
X974030D01*
Y434944D01*
X973862D01*
Y435280D01*
X973694D01*
Y435448D01*
X973526D01*
Y435784D01*
X973358D01*
Y435951D01*
X973190D01*
Y436287D01*
X973022D01*
Y436455D01*
X972855D01*
Y436791D01*
X972686D01*
Y436959D01*
X972519D01*
Y437127D01*
X972351D01*
Y437463D01*
X972183D01*
Y437631D01*
X972015D01*
Y437966D01*
X971847D01*
Y438134D01*
X971679D01*
Y438302D01*
X971511D01*
Y438638D01*
X971343D01*
Y438806D01*
X971175D01*
Y438974D01*
X971008D01*
Y439310D01*
X970839D01*
Y439478D01*
X970672D01*
Y439646D01*
X970504D01*
Y439310D01*
X970336D01*
Y439142D01*
X970168D01*
Y438974D01*
X970000D01*
Y438638D01*
X969832D01*
Y438470D01*
X969664D01*
Y438302D01*
X969496D01*
Y437966D01*
X969328D01*
Y437799D01*
X969160D01*
Y437631D01*
X968992D01*
Y437295D01*
X968825D01*
Y437127D01*
X968657D01*
Y436791D01*
X968489D01*
Y436623D01*
X968321D01*
Y436287D01*
X968153D01*
Y436119D01*
X967985D01*
Y435784D01*
X967817D01*
Y435616D01*
X967649D01*
Y435280D01*
X967481D01*
Y435112D01*
X967313D01*
Y434776D01*
X967145D01*
Y434608D01*
X966978D01*
Y434272D01*
X966810D01*
Y434104D01*
X966642D01*
Y433769D01*
X966474D01*
Y433433D01*
X966306D01*
Y433265D01*
X966138D01*
Y432929D01*
X965970D01*
Y432593D01*
X965802D01*
Y432257D01*
X965634D01*
Y431922D01*
X965466D01*
Y431754D01*
X965298D01*
Y431418D01*
X965131D01*
Y431082D01*
X964963D01*
Y430746D01*
X964795D01*
Y430410D01*
X964627D01*
Y430075D01*
X964459D01*
Y429739D01*
X964291D01*
Y429403D01*
X964123D01*
Y428899D01*
X963955D01*
Y428563D01*
X963787D01*
Y428228D01*
X963619D01*
Y427724D01*
X963452D01*
Y427388D01*
X963284D01*
Y426884D01*
X963116D01*
Y426381D01*
X962948D01*
Y425877D01*
X962780D01*
Y425541D01*
X962612D01*
Y424869D01*
X962444D01*
Y424366D01*
X962276D01*
Y423694D01*
X962108D01*
Y423022D01*
X961940D01*
Y422183D01*
X961772D01*
Y421343D01*
X961605D01*
Y419832D01*
X961437D01*
Y417146D01*
X961605D01*
Y415802D01*
X961772D01*
Y415131D01*
X962276D01*
Y415299D01*
X962780D01*
Y415466D01*
X963284D01*
Y415634D01*
X963619D01*
Y415802D01*
X963955D01*
Y415970D01*
X964291D01*
Y416138D01*
X964459D01*
Y416306D01*
X964795D01*
Y416474D01*
X964963D01*
Y416642D01*
X965131D01*
Y416810D01*
X965466D01*
Y416978D01*
X965634D01*
Y417146D01*
X965802D01*
Y417313D01*
X965970D01*
Y417649D01*
X966138D01*
Y417817D01*
X966306D01*
Y417985D01*
X966474D01*
Y418321D01*
X966642D01*
Y418489D01*
X966810D01*
Y418825D01*
X966978D01*
Y419160D01*
X967145D01*
Y419664D01*
X967313D01*
Y420168D01*
X967481D01*
Y420840D01*
X967649D01*
Y422519D01*
X967817D01*
Y423526D01*
X967985D01*
Y424030D01*
X968153D01*
Y424366D01*
X968321D01*
Y424701D01*
X968489D01*
Y424869D01*
X968825D01*
Y425037D01*
X969328D01*
Y424869D01*
X969664D01*
Y424701D01*
X969832D01*
Y424534D01*
X970168D01*
Y424198D01*
X970336D01*
Y424030D01*
X970504D01*
Y423526D01*
X970672D01*
Y422687D01*
X970839D01*
Y420504D01*
X970672D01*
Y419328D01*
X970504D01*
Y418489D01*
X970336D01*
Y417985D01*
X970168D01*
Y417481D01*
X970000D01*
Y416978D01*
X969832D01*
Y416474D01*
X969664D01*
Y416138D01*
X969496D01*
Y415634D01*
X969328D01*
Y415299D01*
X969160D01*
Y414963D01*
X968992D01*
Y414627D01*
X968825D01*
Y414459D01*
X968657D01*
Y414123D01*
X968489D01*
Y413787D01*
X968321D01*
Y413619D01*
X968153D01*
Y413284D01*
X967985D01*
Y413116D01*
X967817D01*
Y412948D01*
X967649D01*
Y412612D01*
X967481D01*
Y412444D01*
X967313D01*
Y412276D01*
X967145D01*
Y412108D01*
X966978D01*
Y411940D01*
X966810D01*
Y411772D01*
X966642D01*
Y411604D01*
X966474D01*
Y411437D01*
X966306D01*
Y411269D01*
X966138D01*
Y411101D01*
X965970D01*
Y410933D01*
X965802D01*
Y410765D01*
X965634D01*
Y410597D01*
X965466D01*
Y410429D01*
X965131D01*
Y410261D01*
X964963D01*
Y410093D01*
X964795D01*
Y409925D01*
X964459D01*
Y409757D01*
X964291D01*
Y409590D01*
X963955D01*
Y409422D01*
X963619D01*
Y409254D01*
X963787D01*
Y409086D01*
X963955D01*
Y408918D01*
X964123D01*
Y408750D01*
X964291D01*
Y408582D01*
X964627D01*
Y408414D01*
X964795D01*
Y408246D01*
X965131D01*
Y408078D01*
X965466D01*
Y407910D01*
X965802D01*
Y407743D01*
X966138D01*
Y407575D01*
X966642D01*
Y407407D01*
X967145D01*
Y407239D01*
X967817D01*
Y407071D01*
X971511D01*
Y407239D01*
X972519D01*
Y407407D01*
X973526D01*
Y407575D01*
X974702D01*
Y407743D01*
X975709D01*
Y407575D01*
X976381D01*
Y407407D01*
X976716D01*
Y407239D01*
X976884D01*
Y407071D01*
X977052D01*
Y406399D01*
X976884D01*
Y406063D01*
X976716D01*
Y405728D01*
X976548D01*
Y405560D01*
X976381D01*
Y405392D01*
X976213D01*
Y405224D01*
X975877D01*
Y405056D01*
X975709D01*
Y404888D01*
X975541D01*
Y404720D01*
X975205D01*
Y404552D01*
X974869D01*
Y404384D01*
X974534D01*
Y404216D01*
X974198D01*
Y404049D01*
X973862D01*
Y403881D01*
X973358D01*
Y403713D01*
X972855D01*
Y403545D01*
X972351D01*
Y403377D01*
X971679D01*
Y403209D01*
X970504D01*
Y403041D01*
X967313D01*
Y403209D01*
X966306D01*
Y403377D01*
X965634D01*
Y403545D01*
X965131D01*
Y403713D01*
X964627D01*
Y403881D01*
X964291D01*
Y404049D01*
X963787D01*
Y404216D01*
X963452D01*
Y404384D01*
X963116D01*
Y404552D01*
X962780D01*
Y404720D01*
X962444D01*
Y404888D01*
X962276D01*
Y405056D01*
X961940D01*
Y405224D01*
X961772D01*
Y405392D01*
X961437D01*
Y405560D01*
X961269D01*
Y405728D01*
X961101D01*
Y405896D01*
X960765D01*
Y406063D01*
X960597D01*
Y406231D01*
X960429D01*
Y406399D01*
X960261D01*
Y406567D01*
X960093D01*
Y406735D01*
X959757D01*
Y406903D01*
X959589D01*
Y407071D01*
X959422D01*
Y407239D01*
X959254D01*
Y407407D01*
X959086D01*
Y407743D01*
X957742D01*
Y407575D01*
X955728D01*
Y407743D01*
X954384D01*
Y407910D01*
X953545D01*
Y408078D01*
X952873D01*
Y408246D01*
X952202D01*
Y408414D01*
X951698D01*
Y408582D01*
X951362D01*
Y408750D01*
X950858D01*
Y408918D01*
X950522D01*
Y409086D01*
X950187D01*
Y409254D01*
X949851D01*
Y409422D01*
X949515D01*
Y409590D01*
X949179D01*
Y409757D01*
X948843D01*
Y409925D01*
X948675D01*
Y410093D01*
X948339D01*
Y410261D01*
X948004D01*
Y410429D01*
X947836D01*
Y410597D01*
X947668D01*
Y410765D01*
X947332D01*
Y410933D01*
X947164D01*
Y411101D01*
X946828D01*
Y411269D01*
X946660D01*
Y411437D01*
X946492D01*
Y411604D01*
X946325D01*
Y411772D01*
X946157D01*
Y411940D01*
X945821D01*
Y412108D01*
X945653D01*
Y412276D01*
X945485D01*
Y412444D01*
X945317D01*
Y412612D01*
X945149D01*
Y412780D01*
X944981D01*
Y412948D01*
X944813D01*
Y413116D01*
X944645D01*
Y413284D01*
X944478D01*
Y413451D01*
X944310D01*
Y413619D01*
X944142D01*
Y413787D01*
X943974D01*
Y414123D01*
X943806D01*
Y414291D01*
X943638D01*
Y414459D01*
X943470D01*
Y414627D01*
X943302D01*
Y414963D01*
X943134D01*
Y415131D01*
X942966D01*
Y415299D01*
X942798D01*
Y415634D01*
X942631D01*
Y415802D01*
X942463D01*
Y415970D01*
X942295D01*
Y416306D01*
X942127D01*
Y416474D01*
X941959D01*
Y416810D01*
X941791D01*
Y417146D01*
X941623D01*
Y417313D01*
X941455D01*
Y417649D01*
X941287D01*
Y417985D01*
X941119D01*
Y418321D01*
X940952D01*
Y418657D01*
X940784D01*
Y418993D01*
X940616D01*
Y419328D01*
X940448D01*
Y419832D01*
X940280D01*
Y420168D01*
X940112D01*
Y420672D01*
X939944D01*
Y421175D01*
X939776D01*
Y421679D01*
X939608D01*
Y422351D01*
X939440D01*
Y422687D01*
X938097D01*
Y422854D01*
X936586D01*
Y423022D01*
X935578D01*
Y423190D01*
X934739D01*
Y423358D01*
X934067D01*
Y423526D01*
X933395D01*
Y423694D01*
X932892D01*
Y423862D01*
X932388D01*
Y424030D01*
X932052D01*
Y424198D01*
X931548D01*
Y424366D01*
X931213D01*
Y424534D01*
X930877D01*
Y424701D01*
X930541D01*
Y424869D01*
X930373D01*
Y425037D01*
X930037D01*
Y425205D01*
X929702D01*
Y425373D01*
X929366D01*
Y425541D01*
X929198D01*
Y425709D01*
X928862D01*
Y425877D01*
X928694D01*
Y426045D01*
X928358D01*
Y426213D01*
X928190D01*
Y426381D01*
X928022D01*
Y426549D01*
X927855D01*
Y426716D01*
X927687D01*
Y426884D01*
X927351D01*
Y427052D01*
X927183D01*
Y427220D01*
X927015D01*
Y427388D01*
X926847D01*
Y427556D01*
X926679D01*
Y427724D01*
X926511D01*
Y427892D01*
X926343D01*
Y428228D01*
X926175D01*
Y428396D01*
X926007D01*
Y428563D01*
X925840D01*
Y428731D01*
X925672D01*
Y429067D01*
X925504D01*
Y429235D01*
X925336D01*
Y429571D01*
X925168D01*
Y429739D01*
X925000D01*
Y430075D01*
X924832D01*
Y430410D01*
X924664D01*
Y430746D01*
X924496D01*
Y431082D01*
X924328D01*
Y431418D01*
X924160D01*
Y431922D01*
X923992D01*
Y432425D01*
X923825D01*
Y433097D01*
X923657D01*
Y433937D01*
X923489D01*
Y435784D01*
X923657D01*
Y436623D01*
X923825D01*
Y437127D01*
X923992D01*
Y437295D01*
X924160D01*
Y437631D01*
X924328D01*
Y437799D01*
X924496D01*
Y437966D01*
X924832D01*
Y438134D01*
X925168D01*
Y438302D01*
X925840D01*
Y438134D01*
X926007D01*
Y437966D01*
X926175D01*
Y437799D01*
X926343D01*
Y437463D01*
X926511D01*
Y436959D01*
X926679D01*
Y435951D01*
X926847D01*
Y435112D01*
X927015D01*
Y434608D01*
X927183D01*
Y434272D01*
X927351D01*
Y433769D01*
X927519D01*
Y433433D01*
X927687D01*
Y433097D01*
X927855D01*
Y432761D01*
X928022D01*
Y432593D01*
X928190D01*
Y432257D01*
X928358D01*
Y431922D01*
X928526D01*
Y431754D01*
X928694D01*
Y431586D01*
X928862D01*
Y431250D01*
X929030D01*
Y431082D01*
X929198D01*
Y430914D01*
X929366D01*
Y430746D01*
X929534D01*
Y430578D01*
X929702D01*
Y430410D01*
X929869D01*
Y430243D01*
X930037D01*
Y430075D01*
X930205D01*
Y429907D01*
X930373D01*
Y429739D01*
X930541D01*
Y429571D01*
X930877D01*
Y429403D01*
X931045D01*
Y429235D01*
X931381D01*
Y429067D01*
X931548D01*
Y428899D01*
X931884D01*
Y428731D01*
X932220D01*
Y428563D01*
X932556D01*
Y428396D01*
X932892D01*
Y428228D01*
X933395D01*
Y428060D01*
X934067D01*
Y427892D01*
X934739D01*
Y427724D01*
X936082D01*
Y427556D01*
X937929D01*
Y427724D01*
X938769D01*
Y433097D01*
X938937D01*
Y434944D01*
X939105D01*
Y436119D01*
X939272D01*
Y437295D01*
X939440D01*
Y438302D01*
X939608D01*
Y439310D01*
X939776D01*
Y440149D01*
X939944D01*
Y440989D01*
X940112D01*
Y441828D01*
X940280D01*
Y442500D01*
X940448D01*
Y443172D01*
X940616D01*
Y444011D01*
X940784D01*
Y444683D01*
X940952D01*
Y445187D01*
X941119D01*
Y445522D01*
X940280D01*
Y445354D01*
X939105D01*
Y445187D01*
X937593D01*
Y445019D01*
X931381D01*
Y445187D01*
X930205D01*
Y445354D01*
X929198D01*
Y445522D01*
X928526D01*
Y445690D01*
X927855D01*
Y445858D01*
X927351D01*
Y446026D01*
X926847D01*
Y446194D01*
X926343D01*
Y446362D01*
X926007D01*
Y446530D01*
X925504D01*
Y446698D01*
X925168D01*
Y446866D01*
X924832D01*
Y447034D01*
X924496D01*
Y447201D01*
X924160D01*
Y447369D01*
X923825D01*
Y447537D01*
X923657D01*
Y447705D01*
X923321D01*
Y447873D01*
X923153D01*
Y448041D01*
X922817D01*
Y448209D01*
X922649D01*
Y448377D01*
X922481D01*
Y448545D01*
X922145D01*
Y448713D01*
X921978D01*
Y448881D01*
X921810D01*
Y449049D01*
X921642D01*
Y449216D01*
X921474D01*
Y449384D01*
X921306D01*
Y449552D01*
X920970D01*
Y449720D01*
X920802D01*
Y449888D01*
X920634D01*
Y450224D01*
X920466D01*
Y450392D01*
X920298D01*
Y450560D01*
X920131D01*
Y450728D01*
X919963D01*
Y450896D01*
X919795D01*
Y451063D01*
X919627D01*
Y451399D01*
X919459D01*
Y451567D01*
X919291D01*
Y451903D01*
X919123D01*
Y452071D01*
X918955D01*
Y452239D01*
X918787D01*
Y452575D01*
X918619D01*
Y452743D01*
X918452D01*
Y453078D01*
X918284D01*
Y453414D01*
X918116D01*
Y453582D01*
X917948D01*
Y453918D01*
X917780D01*
Y454254D01*
X917612D01*
Y454590D01*
X917444D01*
Y455093D01*
X917276D01*
Y455429D01*
X917108D01*
Y455765D01*
X916940D01*
Y456269D01*
X916772D01*
Y456772D01*
X916605D01*
Y457444D01*
X916436D01*
Y458284D01*
X916269D01*
Y459291D01*
X916101D01*
Y462817D01*
X916269D01*
Y463825D01*
X916436D01*
Y464664D01*
X916605D01*
Y465336D01*
X916772D01*
Y465840D01*
X916940D01*
Y466343D01*
X917108D01*
Y466679D01*
X917276D01*
Y467183D01*
X917444D01*
Y467519D01*
X917612D01*
Y467854D01*
X917780D01*
Y468190D01*
X917948D01*
Y468526D01*
X918116D01*
Y468862D01*
X918284D01*
Y469198D01*
X918452D01*
Y469366D01*
X918619D01*
Y469701D01*
X918787D01*
Y469869D01*
X918955D01*
Y470205D01*
X919123D01*
Y470373D01*
X919291D01*
Y470709D01*
X919459D01*
Y470877D01*
X919627D01*
Y471045D01*
X919795D01*
Y471213D01*
X919963D01*
Y471381D01*
X920131D01*
Y471549D01*
X920298D01*
Y471716D01*
X920466D01*
Y471884D01*
X920634D01*
Y472052D01*
X920802D01*
Y472220D01*
X920970D01*
Y472388D01*
X921138D01*
Y472556D01*
X921306D01*
Y472724D01*
X921474D01*
Y472892D01*
X921810D01*
Y473060D01*
X921978D01*
Y473228D01*
X922145D01*
Y473396D01*
X922313D01*
Y473563D01*
X922649D01*
Y473731D01*
X922817D01*
Y473899D01*
X923153D01*
Y474067D01*
X923489D01*
Y474235D01*
X923657D01*
Y474403D01*
X923992D01*
Y474571D01*
X924328D01*
Y474739D01*
X924664D01*
Y474907D01*
X925168D01*
Y475075D01*
X925504D01*
Y475243D01*
X925840D01*
Y475410D01*
X926511D01*
Y475578D01*
X927015D01*
Y475746D01*
X927687D01*
Y475914D01*
X928358D01*
Y476082D01*
X929534D01*
Y476250D01*
X932220D01*
Y476082D01*
X933228D01*
Y475914D01*
X933899D01*
Y475746D01*
X934403D01*
Y475578D01*
X934907D01*
Y475410D01*
X935242D01*
Y475243D01*
X935410D01*
Y475075D01*
X935578D01*
Y474907D01*
X935746D01*
Y474739D01*
X935914D01*
Y474571D01*
X936082D01*
Y474235D01*
X936250D01*
Y473563D01*
X936082D01*
Y473396D01*
X935914D01*
Y473228D01*
X935410D01*
Y473060D01*
X931716D01*
Y472892D01*
X930709D01*
Y472724D01*
X929869D01*
Y472556D01*
X929198D01*
Y472388D01*
X928694D01*
Y472220D01*
X928190D01*
Y472052D01*
X927855D01*
Y471884D01*
X927351D01*
Y471716D01*
X927015D01*
Y471549D01*
X926679D01*
Y471381D01*
X926511D01*
Y471213D01*
X926175D01*
Y471045D01*
X925840D01*
Y470877D01*
X925672D01*
Y470709D01*
X925504D01*
Y470541D01*
X925168D01*
Y470373D01*
X925000D01*
Y470205D01*
X924832D01*
Y470037D01*
X924664D01*
Y469869D01*
X924496D01*
Y469701D01*
X924328D01*
Y469534D01*
X924160D01*
Y469366D01*
X923992D01*
Y469198D01*
X923825D01*
Y468862D01*
X923657D01*
Y468694D01*
X923489D01*
Y468358D01*
X923321D01*
Y468190D01*
X923153D01*
Y467854D01*
X922985D01*
Y467519D01*
X922817D01*
Y467015D01*
X922649D01*
Y466679D01*
X922481D01*
Y466007D01*
X922313D01*
Y465336D01*
X922145D01*
Y464328D01*
X921978D01*
Y462146D01*
X922145D01*
Y460970D01*
X922313D01*
Y460299D01*
X922481D01*
Y459795D01*
X922649D01*
Y459291D01*
X922817D01*
Y458787D01*
X922985D01*
Y458451D01*
X923153D01*
Y458284D01*
Y458116D01*
X923321D01*
Y457780D01*
X923489D01*
Y457444D01*
X923657D01*
Y457276D01*
X923825D01*
Y456940D01*
X923992D01*
Y456772D01*
X924160D01*
Y456604D01*
X924328D01*
Y456269D01*
X924496D01*
Y456101D01*
X924664D01*
Y455933D01*
X924832D01*
Y455765D01*
X925000D01*
Y455597D01*
X925168D01*
Y455429D01*
X925336D01*
Y455261D01*
X925504D01*
Y455093D01*
X925672D01*
Y454925D01*
X925840D01*
Y454757D01*
X926007D01*
Y454590D01*
X926175D01*
Y454422D01*
X926511D01*
Y454254D01*
X926679D01*
Y454086D01*
X927015D01*
Y453918D01*
X927183D01*
Y453750D01*
X927519D01*
Y453582D01*
X927855D01*
Y453414D01*
X928190D01*
Y453246D01*
X928526D01*
Y453078D01*
X928862D01*
Y452910D01*
X929366D01*
Y452743D01*
X929869D01*
Y452575D01*
X930541D01*
Y452407D01*
X931381D01*
Y452239D01*
X934739D01*
Y452407D01*
X935410D01*
Y452575D01*
X936082D01*
Y452743D01*
X936418D01*
Y452910D01*
X936922D01*
Y453078D01*
X937425D01*
Y453246D01*
X937761D01*
Y453414D01*
X938097D01*
Y453582D01*
X938433D01*
Y453750D01*
X938769D01*
Y453918D01*
X939105D01*
Y454086D01*
X939440D01*
Y454254D01*
X939608D01*
Y454422D01*
X939944D01*
Y454590D01*
X940280D01*
Y454757D01*
X940448D01*
Y454925D01*
X940784D01*
Y455093D01*
X941119D01*
Y455261D01*
X941287D01*
Y455429D01*
X941623D01*
Y455597D01*
X941791D01*
Y455765D01*
X941959D01*
Y455933D01*
X942295D01*
Y456101D01*
X942463D01*
Y456269D01*
X942798D01*
Y456437D01*
X942966D01*
Y456604D01*
X943134D01*
Y456772D01*
X943470D01*
Y456940D01*
X943638D01*
Y457108D01*
X943806D01*
Y457276D01*
X943974D01*
Y457444D01*
X944310D01*
Y457612D01*
X944478D01*
Y457780D01*
X944645D01*
Y457948D01*
X944813D01*
Y458116D01*
X945149D01*
Y458284D01*
X945317D01*
Y458451D01*
X945485D01*
Y458619D01*
X945653D01*
Y458787D01*
X945989D01*
Y458955D01*
X946157D01*
Y459123D01*
X946325D01*
Y459291D01*
X946492D01*
Y459459D01*
X946660D01*
Y459627D01*
X946828D01*
Y459795D01*
X946996D01*
Y459963D01*
X947164D01*
Y460131D01*
X947500D01*
Y460299D01*
X947668D01*
Y460466D01*
X947836D01*
Y460634D01*
X948004D01*
Y460802D01*
X948172D01*
Y460970D01*
X948339D01*
Y461138D01*
X948508D01*
Y461306D01*
X948675D01*
Y461474D01*
X948843D01*
Y461642D01*
X949011D01*
Y461810D01*
X949179D01*
Y461978D01*
X949347D01*
Y462146D01*
X949515D01*
Y462313D01*
X949683D01*
Y462481D01*
X949851D01*
Y462649D01*
X950019D01*
Y462817D01*
X950187D01*
Y462985D01*
X950355D01*
Y463153D01*
X950522D01*
Y463321D01*
X950690D01*
Y463489D01*
X950858D01*
Y463657D01*
X951026D01*
Y463825D01*
X951194D01*
Y463993D01*
X951362D01*
Y464328D01*
X951530D01*
Y464496D01*
X951698D01*
Y464664D01*
X951866D01*
Y465000D01*
X952034D01*
Y465168D01*
X952202D01*
Y465504D01*
X952369D01*
Y465672D01*
X952537D01*
Y466007D01*
X952705D01*
Y466343D01*
X952873D01*
Y466511D01*
X953041D01*
Y466847D01*
X953209D01*
Y467183D01*
X953377D01*
Y467519D01*
X953545D01*
Y467854D01*
X953713D01*
Y468190D01*
X953881D01*
Y468526D01*
X954048D01*
Y468862D01*
X954216D01*
Y469366D01*
X954384D01*
Y469701D01*
X954552D01*
Y470205D01*
X954720D01*
Y470709D01*
X954888D01*
Y471045D01*
X955056D01*
Y471549D01*
X955224D01*
Y472052D01*
X955392D01*
Y472724D01*
X955560D01*
Y473228D01*
X955728D01*
Y473731D01*
X955895D01*
Y474403D01*
X956063D01*
Y475075D01*
X956231D01*
Y475746D01*
X956399D01*
Y476586D01*
X956567D01*
Y477425D01*
X956735D01*
Y478097D01*
X956567D01*
Y478433D01*
X956399D01*
Y478937D01*
X956231D01*
Y479272D01*
X956063D01*
Y479440D01*
X955895D01*
Y479608D01*
X955728D01*
Y479776D01*
X955560D01*
Y480112D01*
X955392D01*
Y480448D01*
X955224D01*
Y480616D01*
X955056D01*
Y481119D01*
X954888D01*
Y481623D01*
X954720D01*
Y482799D01*
X954552D01*
Y483134D01*
X954720D01*
Y484310D01*
X954888D01*
Y484813D01*
X955056D01*
Y485149D01*
X955224D01*
Y485485D01*
X955392D01*
Y485821D01*
X955560D01*
Y485989D01*
X955728D01*
Y486157D01*
X955895D01*
Y486493D01*
X956063D01*
Y486660D01*
X956231D01*
Y486828D01*
X956399D01*
Y486996D01*
X956567D01*
Y487164D01*
X956903D01*
Y487332D01*
X957071D01*
Y487500D01*
X957239D01*
Y487668D01*
X957407D01*
Y488004D01*
X957239D01*
Y488340D01*
X957071D01*
Y488675D01*
X956903D01*
Y489011D01*
X956735D01*
Y489347D01*
X956567D01*
Y489683D01*
X956399D01*
Y490019D01*
X956231D01*
Y490354D01*
X956063D01*
Y490858D01*
X955895D01*
Y491194D01*
X955728D01*
Y491530D01*
X955560D01*
Y491866D01*
X955392D01*
Y492201D01*
X955224D01*
Y492537D01*
X955056D01*
Y493041D01*
X954888D01*
Y493377D01*
X954720D01*
Y493713D01*
X954552D01*
Y494216D01*
X954384D01*
Y494552D01*
X954216D01*
Y495056D01*
X954048D01*
Y495392D01*
X953881D01*
Y495896D01*
X953713D01*
Y496231D01*
X953545D01*
Y496735D01*
X953377D01*
Y497071D01*
X953209D01*
Y497575D01*
X953041D01*
Y498078D01*
X952873D01*
Y498582D01*
X952705D01*
Y499086D01*
X952537D01*
Y499590D01*
X952369D01*
Y500093D01*
X952202D01*
Y500597D01*
X952034D01*
Y501101D01*
X951866D01*
Y501772D01*
X951698D01*
Y502276D01*
X951530D01*
Y502948D01*
X951362D01*
Y503619D01*
X951194D01*
Y504291D01*
X951026D01*
Y505131D01*
X950858D01*
Y505970D01*
X950690D01*
Y506978D01*
X950522D01*
Y507985D01*
X950355D01*
Y509664D01*
X950187D01*
Y513862D01*
X950355D01*
Y515373D01*
X950522D01*
Y516213D01*
X950690D01*
Y516884D01*
X950858D01*
Y517556D01*
X951026D01*
Y518060D01*
X951194D01*
Y518563D01*
X951362D01*
Y519067D01*
X951530D01*
Y519403D01*
X951698D01*
Y519739D01*
X951866D01*
Y520075D01*
X952034D01*
Y520410D01*
X952202D01*
Y520746D01*
X952369D01*
Y520914D01*
X952537D01*
Y521250D01*
X952705D01*
Y521418D01*
X952873D01*
Y521754D01*
X953041D01*
Y521922D01*
X953209D01*
Y522090D01*
X953377D01*
Y522425D01*
X953545D01*
Y522593D01*
X953713D01*
Y522761D01*
X953881D01*
Y522929D01*
X954048D01*
Y523097D01*
X954216D01*
Y523265D01*
X954384D01*
Y523433D01*
X954552D01*
Y523601D01*
X954720D01*
Y523769D01*
X954888D01*
Y523937D01*
X955056D01*
Y524104D01*
X955224D01*
Y524272D01*
X955392D01*
Y524440D01*
X955728D01*
Y524608D01*
X955895D01*
Y524776D01*
X956231D01*
Y524944D01*
X956399D01*
Y525112D01*
X956735D01*
Y525280D01*
X956903D01*
Y525448D01*
X957239D01*
Y525616D01*
X957575D01*
Y525784D01*
X957910D01*
Y525951D01*
X958246D01*
Y526119D01*
X958582D01*
Y526287D01*
X958918D01*
Y526455D01*
X959422D01*
Y526623D01*
X959757D01*
Y526791D01*
X960261D01*
Y526959D01*
X960765D01*
Y527127D01*
X961437D01*
Y527295D01*
X961940D01*
Y527463D01*
X962612D01*
Y527631D01*
X963452D01*
Y527799D01*
X964459D01*
Y527966D01*
X965466D01*
Y528134D01*
X967145D01*
Y528302D01*
X973526D01*
Y528134D01*
D02*
G37*
%LPC*%
G36*
X972686Y521754D02*
X972519D01*
Y521250D01*
X972351D01*
Y520578D01*
X972183D01*
Y519907D01*
X972015D01*
Y519067D01*
X971847D01*
Y518899D01*
X971511D01*
Y519067D01*
X968992D01*
Y519739D01*
X968825D01*
Y520746D01*
X968657D01*
Y521754D01*
X967985D01*
Y521586D01*
X966978D01*
Y521418D01*
X966642D01*
Y520746D01*
X966810D01*
Y519739D01*
X966978D01*
Y518731D01*
X966810D01*
Y518563D01*
X966306D01*
Y518396D01*
X965802D01*
Y518228D01*
X965298D01*
Y518060D01*
X964963D01*
Y517892D01*
X964627D01*
Y517724D01*
X964459D01*
Y517892D01*
X964291D01*
Y518060D01*
X964123D01*
Y518396D01*
X963955D01*
Y518731D01*
X963787D01*
Y518899D01*
X963619D01*
Y519235D01*
X963452D01*
Y519403D01*
X963284D01*
Y519739D01*
X963116D01*
Y519907D01*
X962948D01*
Y520075D01*
X962780D01*
Y519907D01*
X962444D01*
Y519739D01*
X962108D01*
Y519571D01*
X961940D01*
Y519403D01*
X961605D01*
Y519235D01*
X961437D01*
Y519067D01*
X961269D01*
Y518899D01*
X961437D01*
Y518563D01*
X961605D01*
Y518396D01*
X961772D01*
Y518060D01*
X961940D01*
Y517892D01*
X962108D01*
Y517556D01*
X962276D01*
Y517220D01*
X962444D01*
Y517052D01*
X962612D01*
Y516716D01*
X962780D01*
Y516549D01*
X962612D01*
Y516381D01*
X962444D01*
Y516213D01*
X962108D01*
Y516045D01*
X961940D01*
Y515877D01*
X961772D01*
Y515709D01*
X961605D01*
Y515541D01*
X961437D01*
Y515373D01*
X961269D01*
Y515205D01*
X961101D01*
Y515037D01*
X960933D01*
Y515205D01*
X960765D01*
Y515373D01*
X960429D01*
Y515541D01*
X960261D01*
Y515709D01*
X959925D01*
Y515877D01*
X959757D01*
Y516045D01*
X959422D01*
Y516213D01*
X959254D01*
Y516381D01*
X959086D01*
Y516549D01*
X958750D01*
Y516716D01*
X958582D01*
Y516549D01*
X958414D01*
Y516213D01*
X958246D01*
Y516045D01*
X958078D01*
Y515709D01*
X957910D01*
Y515541D01*
X957742D01*
Y515373D01*
X957575D01*
Y515037D01*
X957742D01*
Y514869D01*
X957910D01*
Y514701D01*
X958078D01*
Y514534D01*
X958414D01*
Y514366D01*
X958582D01*
Y514198D01*
X958918D01*
Y514030D01*
X959086D01*
Y513862D01*
X959422D01*
Y513694D01*
X959589D01*
Y513526D01*
X959757D01*
Y513358D01*
X959925D01*
Y513190D01*
X959757D01*
Y512854D01*
X959589D01*
Y512687D01*
X959422D01*
Y512183D01*
X959254D01*
Y511847D01*
X959086D01*
Y511343D01*
X958918D01*
Y511175D01*
X958246D01*
Y511343D01*
X957575D01*
Y511511D01*
X956903D01*
Y511679D01*
X956231D01*
Y511847D01*
X956063D01*
Y511175D01*
X955895D01*
Y510504D01*
X955728D01*
Y509832D01*
X956063D01*
Y509664D01*
X956735D01*
Y509496D01*
X957407D01*
Y509328D01*
X958078D01*
Y509160D01*
X958414D01*
Y508153D01*
X958246D01*
Y506978D01*
X958414D01*
Y506138D01*
X957742D01*
Y505970D01*
X956735D01*
Y505802D01*
X955728D01*
Y505634D01*
X955560D01*
Y505299D01*
X955728D01*
Y504291D01*
X955895D01*
Y503787D01*
X956735D01*
Y503955D01*
X957742D01*
Y504123D01*
X958750D01*
Y503955D01*
X958918D01*
Y503451D01*
X959086D01*
Y502948D01*
X959254D01*
Y502612D01*
X959422D01*
Y502276D01*
X959589D01*
Y501940D01*
X959757D01*
Y501772D01*
X959589D01*
Y501604D01*
X959422D01*
Y501437D01*
X959086D01*
Y501269D01*
X958750D01*
Y501101D01*
X958582D01*
Y500933D01*
X958246D01*
Y500765D01*
X958078D01*
Y500597D01*
X957742D01*
Y500429D01*
X957575D01*
Y500261D01*
X957407D01*
Y500093D01*
X957575D01*
Y499757D01*
X957742D01*
Y499590D01*
X957910D01*
Y499254D01*
X958078D01*
Y499086D01*
X958246D01*
Y498750D01*
X958414D01*
Y498582D01*
X958582D01*
Y498750D01*
X958918D01*
Y498918D01*
X959086D01*
Y499086D01*
X959422D01*
Y499254D01*
X959757D01*
Y499422D01*
X959925D01*
Y499590D01*
X960261D01*
Y499757D01*
X960429D01*
Y499925D01*
X960765D01*
Y500093D01*
X960933D01*
Y499925D01*
X961101D01*
Y499757D01*
X961269D01*
Y499590D01*
X961437D01*
Y499422D01*
X961605D01*
Y499254D01*
X961772D01*
Y499086D01*
X961940D01*
Y498918D01*
X962108D01*
Y498750D01*
X962276D01*
Y498582D01*
X962444D01*
Y498246D01*
X962276D01*
Y497910D01*
X962108D01*
Y497743D01*
X961940D01*
Y497407D01*
X961772D01*
Y497239D01*
X961605D01*
Y497071D01*
X961437D01*
Y496735D01*
X961269D01*
Y496567D01*
X961101D01*
Y496063D01*
X961269D01*
Y495896D01*
X961437D01*
Y495728D01*
X961772D01*
Y495560D01*
X961940D01*
Y495392D01*
X962276D01*
Y495224D01*
X962444D01*
Y495056D01*
X962612D01*
Y495224D01*
X962780D01*
Y495392D01*
X962948D01*
Y495560D01*
X963116D01*
Y495896D01*
X963284D01*
Y496063D01*
X963452D01*
Y496399D01*
X963619D01*
Y496567D01*
X963787D01*
Y496903D01*
X963955D01*
Y497071D01*
X964123D01*
Y497239D01*
X964459D01*
Y497071D01*
X964795D01*
Y496903D01*
X965131D01*
Y496735D01*
X965634D01*
Y496567D01*
X965970D01*
Y496399D01*
X966474D01*
Y495896D01*
X966306D01*
Y495224D01*
X966138D01*
Y494552D01*
X965970D01*
Y493881D01*
X965802D01*
Y493545D01*
X966306D01*
Y493377D01*
X966978D01*
Y493209D01*
X967649D01*
Y493041D01*
X967817D01*
Y493713D01*
X967985D01*
Y494384D01*
X968153D01*
Y495056D01*
X968321D01*
Y495728D01*
X968489D01*
Y495896D01*
X969328D01*
Y495728D01*
X970336D01*
Y495896D01*
X970839D01*
Y495728D01*
X971008D01*
Y494888D01*
X971175D01*
Y493881D01*
X971343D01*
Y492873D01*
X971847D01*
Y493041D01*
X972855D01*
Y493209D01*
X973358D01*
Y493881D01*
X973190D01*
Y494888D01*
X973022D01*
Y495896D01*
X972855D01*
Y496063D01*
X973022D01*
Y496231D01*
X973358D01*
Y496399D01*
X973862D01*
Y496567D01*
X974366D01*
Y496735D01*
X974702D01*
Y496903D01*
X975037D01*
Y497071D01*
X975541D01*
Y496903D01*
X975709D01*
Y496567D01*
X975877D01*
Y496399D01*
X976045D01*
Y496063D01*
X976213D01*
Y495896D01*
X976381D01*
Y495560D01*
X976548D01*
Y495392D01*
X976716D01*
Y495056D01*
X976884D01*
Y494720D01*
X977052D01*
Y494888D01*
X977388D01*
Y495056D01*
X977556D01*
Y495224D01*
X977892D01*
Y495392D01*
X978060D01*
Y495560D01*
X978395D01*
Y495728D01*
X978563D01*
Y496231D01*
X978395D01*
Y496399D01*
X978228D01*
Y496735D01*
X978060D01*
Y496903D01*
X977892D01*
Y497239D01*
X977724D01*
Y497407D01*
X977556D01*
Y497743D01*
X977388D01*
Y497910D01*
X977220D01*
Y498414D01*
X977388D01*
Y498582D01*
X977556D01*
Y498750D01*
X977724D01*
Y498918D01*
X978060D01*
Y499086D01*
X978228D01*
Y499254D01*
X978395D01*
Y499590D01*
X978563D01*
Y499757D01*
X978731D01*
Y499925D01*
X979235D01*
Y499757D01*
X979403D01*
Y499590D01*
X979739D01*
Y499422D01*
X979907D01*
Y499254D01*
X980242D01*
Y499086D01*
X980410D01*
Y498918D01*
X980746D01*
Y498750D01*
X980914D01*
Y498582D01*
X981082D01*
Y498414D01*
X981250D01*
Y498582D01*
X981418D01*
Y498918D01*
X981586D01*
Y499086D01*
X981754D01*
Y499254D01*
X981922D01*
Y499590D01*
X982090D01*
Y499757D01*
X982257D01*
Y500261D01*
X982090D01*
Y500429D01*
X981754D01*
Y500597D01*
X981586D01*
Y500765D01*
X981250D01*
Y500933D01*
X981082D01*
Y501101D01*
X980746D01*
Y501269D01*
X980578D01*
Y501437D01*
X980410D01*
Y501604D01*
X980075D01*
Y501772D01*
X980242D01*
Y502108D01*
X980410D01*
Y502444D01*
X980578D01*
Y502780D01*
X980746D01*
Y503284D01*
X980914D01*
Y503619D01*
X981082D01*
Y503787D01*
X981250D01*
Y503619D01*
X982090D01*
Y503451D01*
X982761D01*
Y503284D01*
X983433D01*
Y503116D01*
X983769D01*
Y503284D01*
X983937D01*
Y503955D01*
X984105D01*
Y504795D01*
X984272D01*
Y505131D01*
X983601D01*
Y505299D01*
X982929D01*
Y505466D01*
X982257D01*
Y505634D01*
X981586D01*
Y507985D01*
X981754D01*
Y508153D01*
X982593D01*
Y508321D01*
X983601D01*
Y508489D01*
X984440D01*
Y509160D01*
X984272D01*
Y510168D01*
X984105D01*
Y510504D01*
X983601D01*
Y510336D01*
X982593D01*
Y510168D01*
X981586D01*
Y510000D01*
X981418D01*
Y510168D01*
X981250D01*
Y510504D01*
X981082D01*
Y511175D01*
X980914D01*
Y511679D01*
X980746D01*
Y512015D01*
X980578D01*
Y512351D01*
X980410D01*
Y512854D01*
X980578D01*
Y513022D01*
X980914D01*
Y513190D01*
X981082D01*
Y513358D01*
X981418D01*
Y513526D01*
X981754D01*
Y513694D01*
X981922D01*
Y513862D01*
X982257D01*
Y514030D01*
X982425D01*
Y514198D01*
X982761D01*
Y514366D01*
X982593D01*
Y514701D01*
X982425D01*
Y515037D01*
X982257D01*
Y515205D01*
X982090D01*
Y515541D01*
X981922D01*
Y515709D01*
X981754D01*
Y516045D01*
X981586D01*
Y515877D01*
X981418D01*
Y515709D01*
X981082D01*
Y515541D01*
X980914D01*
Y515373D01*
X980578D01*
Y515205D01*
X980242D01*
Y515037D01*
X980075D01*
Y514869D01*
X979739D01*
Y514701D01*
X979571D01*
Y514534D01*
X979235D01*
Y514701D01*
X979067D01*
Y514869D01*
X978899D01*
Y515037D01*
X978731D01*
Y515205D01*
X978563D01*
Y515373D01*
X978395D01*
Y515541D01*
X978228D01*
Y515709D01*
X978060D01*
Y515877D01*
X977892D01*
Y516045D01*
X977724D01*
Y516213D01*
X977556D01*
Y516381D01*
X977724D01*
Y516716D01*
X977892D01*
Y516884D01*
X978060D01*
Y517220D01*
X978228D01*
Y517388D01*
X978395D01*
Y517724D01*
X978563D01*
Y517892D01*
X978731D01*
Y518060D01*
X978899D01*
Y518396D01*
X979067D01*
Y518563D01*
X979235D01*
Y518731D01*
X979067D01*
Y518899D01*
X978899D01*
Y519067D01*
X978731D01*
Y519235D01*
X978395D01*
Y519403D01*
X978228D01*
Y519571D01*
X977892D01*
Y519739D01*
X977724D01*
Y519907D01*
X977556D01*
Y519739D01*
X977388D01*
Y519403D01*
X977220D01*
Y519235D01*
X977052D01*
Y519067D01*
X976884D01*
Y518731D01*
X976716D01*
Y518563D01*
X976548D01*
Y518228D01*
X976381D01*
Y518060D01*
X976213D01*
Y517892D01*
X976045D01*
Y517556D01*
X975541D01*
Y517724D01*
X975373D01*
Y517892D01*
X975037D01*
Y518060D01*
X974534D01*
Y518228D01*
X974198D01*
Y518396D01*
X973862D01*
Y518899D01*
X974030D01*
Y519739D01*
X974198D01*
Y520410D01*
X974366D01*
Y521082D01*
X974534D01*
Y521250D01*
X974198D01*
Y521418D01*
X973358D01*
Y521586D01*
X972686D01*
Y521754D01*
D02*
G37*
G36*
X972015Y491530D02*
X971847D01*
Y491026D01*
X971679D01*
Y490354D01*
X971511D01*
Y490187D01*
X970336D01*
Y490354D01*
X970168D01*
Y491026D01*
X970000D01*
Y491530D01*
X969664D01*
Y491362D01*
X969160D01*
Y490690D01*
X969328D01*
Y490019D01*
X968825D01*
Y489851D01*
X968321D01*
Y489683D01*
X967985D01*
Y489851D01*
X967817D01*
Y490187D01*
X967649D01*
Y490522D01*
X967481D01*
Y490690D01*
X967145D01*
Y490522D01*
X966978D01*
Y490354D01*
X966642D01*
Y490187D01*
X966810D01*
Y489851D01*
X966978D01*
Y489515D01*
X967145D01*
Y489347D01*
X967313D01*
Y489011D01*
X967145D01*
Y488843D01*
X966978D01*
Y488675D01*
X966810D01*
Y488507D01*
X966642D01*
Y488340D01*
X966474D01*
Y488507D01*
X966138D01*
Y488675D01*
X965970D01*
Y488843D01*
X965802D01*
Y489011D01*
X965466D01*
Y489179D01*
X965298D01*
Y488843D01*
X965131D01*
Y488675D01*
X964963D01*
Y488340D01*
X965131D01*
Y488172D01*
X965466D01*
Y488004D01*
X965634D01*
Y487836D01*
X965802D01*
Y487668D01*
X965970D01*
Y487332D01*
X965802D01*
Y486996D01*
X965634D01*
Y486660D01*
X964795D01*
Y486828D01*
X964291D01*
Y486660D01*
X964123D01*
Y485989D01*
X964459D01*
Y485821D01*
X965131D01*
Y485653D01*
X965298D01*
Y484310D01*
X964963D01*
Y484142D01*
X964123D01*
Y483974D01*
X963955D01*
Y483806D01*
X964123D01*
Y483134D01*
X964291D01*
Y483302D01*
X965466D01*
Y483134D01*
X965634D01*
Y482799D01*
X965802D01*
Y482463D01*
X965970D01*
Y482295D01*
X965802D01*
Y482127D01*
X965634D01*
Y481959D01*
X965298D01*
Y481791D01*
X965131D01*
Y481623D01*
X964795D01*
Y481455D01*
X964963D01*
Y481287D01*
X965131D01*
Y480951D01*
X965298D01*
Y480784D01*
X965466D01*
Y480951D01*
X965634D01*
Y481119D01*
X965970D01*
Y481287D01*
X966306D01*
Y481455D01*
X966642D01*
Y481287D01*
X966810D01*
Y481119D01*
X966978D01*
Y480951D01*
X967145D01*
Y480448D01*
X966978D01*
Y480280D01*
X966810D01*
Y479944D01*
X966642D01*
Y479776D01*
X966474D01*
Y479608D01*
X966642D01*
Y479440D01*
X966978D01*
Y479272D01*
X967145D01*
Y479104D01*
X967313D01*
Y479440D01*
X967481D01*
Y479608D01*
X967649D01*
Y479944D01*
X967817D01*
Y480112D01*
X968321D01*
Y479944D01*
X968825D01*
Y479776D01*
X968992D01*
Y479104D01*
X968825D01*
Y478433D01*
X969160D01*
Y478265D01*
X969664D01*
Y478769D01*
X969832D01*
Y479440D01*
X970000D01*
Y479608D01*
X970168D01*
Y479440D01*
X971175D01*
Y478769D01*
X971343D01*
Y478097D01*
X971511D01*
Y478265D01*
X972183D01*
Y479104D01*
X972015D01*
Y479608D01*
X972183D01*
Y479776D01*
X972686D01*
Y479944D01*
X973022D01*
Y480112D01*
X973358D01*
Y479776D01*
X973526D01*
Y479440D01*
X973694D01*
Y479272D01*
X973862D01*
Y479104D01*
X974198D01*
Y479272D01*
X974366D01*
Y479440D01*
X974702D01*
Y479608D01*
X974534D01*
Y479776D01*
X974366D01*
Y480112D01*
X974198D01*
Y480448D01*
X974030D01*
Y480784D01*
X974198D01*
Y480951D01*
X974366D01*
Y481119D01*
X974534D01*
Y481287D01*
X974702D01*
Y481455D01*
X975037D01*
Y481287D01*
X975205D01*
Y481119D01*
X975373D01*
Y480951D01*
X975709D01*
Y480784D01*
X976045D01*
Y481119D01*
X976213D01*
Y481287D01*
X976381D01*
Y481455D01*
X976213D01*
Y481623D01*
X976045D01*
Y481791D01*
X975877D01*
Y481959D01*
X975541D01*
Y482127D01*
X975373D01*
Y482463D01*
X975541D01*
Y482799D01*
X975709D01*
Y483134D01*
X976381D01*
Y482966D01*
X977052D01*
Y483134D01*
X977220D01*
Y483806D01*
X976716D01*
Y483974D01*
X976045D01*
Y485149D01*
X976213D01*
Y485317D01*
X977220D01*
Y485485D01*
X977388D01*
Y485821D01*
X977220D01*
Y486325D01*
X977052D01*
Y486157D01*
X975877D01*
Y486493D01*
X975709D01*
Y486996D01*
X975541D01*
Y487500D01*
X975877D01*
Y487668D01*
X976045D01*
Y487836D01*
X976381D01*
Y488004D01*
X976548D01*
Y488172D01*
X976381D01*
Y488507D01*
X976213D01*
Y488675D01*
X975709D01*
Y488507D01*
X975541D01*
Y488340D01*
X975205D01*
Y488172D01*
X974869D01*
Y488340D01*
X974702D01*
Y488507D01*
X974534D01*
Y488675D01*
X974366D01*
Y488843D01*
X974198D01*
Y489179D01*
X974366D01*
Y489515D01*
X974534D01*
Y489683D01*
X974702D01*
Y489851D01*
X974869D01*
Y490187D01*
X974702D01*
Y490354D01*
X974534D01*
Y490522D01*
X974030D01*
Y490187D01*
X973862D01*
Y490019D01*
X973694D01*
Y489851D01*
X973526D01*
Y489515D01*
X973190D01*
Y489683D01*
X972855D01*
Y489851D01*
X972519D01*
Y490690D01*
X972686D01*
Y491362D01*
X972015D01*
Y491530D01*
D02*
G37*
G36*
X984272Y484813D02*
X984105D01*
Y484646D01*
X983937D01*
Y484478D01*
X983769D01*
Y484310D01*
X983601D01*
Y484142D01*
X983433D01*
Y483974D01*
X983265D01*
Y483806D01*
X983097D01*
Y483638D01*
X982929D01*
Y483302D01*
X982761D01*
Y483134D01*
X982593D01*
Y482966D01*
X982425D01*
Y482631D01*
X982257D01*
Y482463D01*
X982090D01*
Y482127D01*
X981922D01*
Y481623D01*
X981754D01*
Y480951D01*
X981586D01*
Y480616D01*
X981754D01*
Y480280D01*
X981922D01*
Y480112D01*
Y479944D01*
X982257D01*
Y479776D01*
X983265D01*
Y479944D01*
X983601D01*
Y480112D01*
X983769D01*
Y480280D01*
X984105D01*
Y480448D01*
X984272D01*
Y480616D01*
X984440D01*
Y480951D01*
X984608D01*
Y481119D01*
X984776D01*
Y481455D01*
X984944D01*
Y481959D01*
X985112D01*
Y483302D01*
X984944D01*
Y483806D01*
X984776D01*
Y484142D01*
X984608D01*
Y484478D01*
X984440D01*
Y484646D01*
X984272D01*
Y484813D01*
D02*
G37*
G36*
X956567D02*
X956399D01*
Y484646D01*
X956231D01*
Y484478D01*
X956063D01*
Y484142D01*
X955895D01*
Y483638D01*
X955728D01*
Y481623D01*
X955895D01*
Y481287D01*
X956063D01*
Y480951D01*
X956231D01*
Y480784D01*
X956399D01*
Y480616D01*
X956567D01*
Y480448D01*
X956735D01*
Y480280D01*
X956903D01*
Y480112D01*
X957239D01*
Y479944D01*
X957742D01*
Y479776D01*
X958414D01*
Y479944D01*
X958750D01*
Y480112D01*
X958918D01*
Y480280D01*
X959086D01*
Y481623D01*
X958918D01*
Y481959D01*
X958750D01*
Y482295D01*
X958582D01*
Y482463D01*
X958414D01*
Y482799D01*
X958246D01*
Y482966D01*
X958078D01*
Y483134D01*
X957910D01*
Y483470D01*
X957742D01*
Y483638D01*
X957575D01*
Y483806D01*
X957407D01*
Y483974D01*
X957239D01*
Y484142D01*
X957071D01*
Y484310D01*
X956903D01*
Y484478D01*
X956735D01*
Y484646D01*
X956567D01*
Y484813D01*
D02*
G37*
G36*
X971008Y465336D02*
X970504D01*
Y465168D01*
X970168D01*
Y465000D01*
X970000D01*
Y464832D01*
X969832D01*
Y464664D01*
X969664D01*
Y464328D01*
X969496D01*
Y464160D01*
X969328D01*
Y463825D01*
X969160D01*
Y463657D01*
X968992D01*
Y463321D01*
X968825D01*
Y463153D01*
X968657D01*
Y462817D01*
X968489D01*
Y462649D01*
X968321D01*
Y462313D01*
X968153D01*
Y462146D01*
X967985D01*
Y461810D01*
X967817D01*
Y461474D01*
X967649D01*
Y461306D01*
X967481D01*
Y460970D01*
X967313D01*
Y460634D01*
X967145D01*
Y460466D01*
X966978D01*
Y460131D01*
X966810D01*
Y459795D01*
X966642D01*
Y459459D01*
X966474D01*
Y459123D01*
X966306D01*
Y458787D01*
X966138D01*
Y458451D01*
X965970D01*
Y457948D01*
X965802D01*
Y457444D01*
X965634D01*
Y456940D01*
X965466D01*
Y454757D01*
X965634D01*
Y454086D01*
X965802D01*
Y453750D01*
X965970D01*
Y453414D01*
X966138D01*
Y453078D01*
X966306D01*
Y452910D01*
X966474D01*
Y452575D01*
X966642D01*
Y452407D01*
X966810D01*
Y452239D01*
X966978D01*
Y452071D01*
X967145D01*
Y451903D01*
X967313D01*
Y451735D01*
X967481D01*
Y451567D01*
X967817D01*
Y451399D01*
X968153D01*
Y451231D01*
X968321D01*
Y451063D01*
X968657D01*
Y450896D01*
X969328D01*
Y450728D01*
X970168D01*
Y450560D01*
X971343D01*
Y450728D01*
X972183D01*
Y450896D01*
X972686D01*
Y451063D01*
X973022D01*
Y451231D01*
X973358D01*
Y451399D01*
X973694D01*
Y451567D01*
X973862D01*
Y451735D01*
X974198D01*
Y451903D01*
X974366D01*
Y452071D01*
X974534D01*
Y452239D01*
X974702D01*
Y452407D01*
X974869D01*
Y452743D01*
X975037D01*
Y452910D01*
X975205D01*
Y453246D01*
X975373D01*
Y453414D01*
X975541D01*
Y453750D01*
X975709D01*
Y454254D01*
X975877D01*
Y454757D01*
X976045D01*
Y456772D01*
X975877D01*
Y457276D01*
X975709D01*
Y457780D01*
X975541D01*
Y458284D01*
X975373D01*
Y458619D01*
X975205D01*
Y458955D01*
X975037D01*
Y459291D01*
X974869D01*
Y459627D01*
X974702D01*
Y459963D01*
X974534D01*
Y460299D01*
X974366D01*
Y460634D01*
X974198D01*
Y460970D01*
X974030D01*
Y461138D01*
X973862D01*
Y461474D01*
X973694D01*
Y461810D01*
X973526D01*
Y461978D01*
X973358D01*
Y462313D01*
X973190D01*
Y462481D01*
X973022D01*
Y462817D01*
X972855D01*
Y463153D01*
X972686D01*
Y463321D01*
X972519D01*
Y463657D01*
X972351D01*
Y463825D01*
X972183D01*
Y463993D01*
X972015D01*
Y464328D01*
X971847D01*
Y464496D01*
X971679D01*
Y464832D01*
X971511D01*
Y465000D01*
X971343D01*
Y465168D01*
X971008D01*
Y465336D01*
D02*
G37*
G36*
X949851Y446698D02*
X949515D01*
Y446194D01*
X949347D01*
Y445690D01*
X949179D01*
Y445187D01*
X949011D01*
Y444683D01*
X948843D01*
Y444179D01*
X948675D01*
Y443675D01*
X948508D01*
Y443172D01*
X948339D01*
Y442500D01*
X948172D01*
Y441996D01*
X948004D01*
Y441325D01*
X947836D01*
Y440653D01*
X947668D01*
Y439981D01*
X947500D01*
Y439310D01*
X947332D01*
Y438638D01*
X947164D01*
Y437966D01*
Y437799D01*
X946996D01*
Y436959D01*
X946828D01*
Y436119D01*
X946660D01*
Y435112D01*
X946492D01*
Y434104D01*
X946325D01*
Y432761D01*
X946157D01*
Y431082D01*
X945989D01*
Y430578D01*
X946157D01*
Y430746D01*
X946492D01*
Y430914D01*
X946660D01*
Y431082D01*
X946828D01*
Y431250D01*
X946996D01*
Y431418D01*
X947332D01*
Y431586D01*
X947500D01*
Y431754D01*
X947668D01*
Y431922D01*
X947836D01*
Y432090D01*
X948004D01*
Y432257D01*
X948172D01*
Y432425D01*
X948339D01*
Y432593D01*
X948508D01*
Y432761D01*
X948675D01*
Y432929D01*
X948843D01*
Y433097D01*
X949011D01*
Y433265D01*
X949179D01*
Y433433D01*
X949347D01*
Y433601D01*
X949515D01*
Y433937D01*
X949683D01*
Y434104D01*
X949851D01*
Y434440D01*
X950019D01*
Y434608D01*
X950187D01*
Y434944D01*
X950355D01*
Y435280D01*
X950522D01*
Y435616D01*
X950690D01*
Y435951D01*
X950858D01*
Y436287D01*
X951026D01*
Y436791D01*
X951194D01*
Y437295D01*
X951362D01*
Y437966D01*
X951530D01*
Y438974D01*
X951698D01*
Y441157D01*
X951530D01*
Y442164D01*
X951362D01*
Y442836D01*
X951194D01*
Y443340D01*
X951026D01*
Y443843D01*
X950858D01*
Y444347D01*
X950690D01*
Y444851D01*
X950522D01*
Y445187D01*
X950355D01*
Y445690D01*
X950187D01*
Y446026D01*
X950019D01*
Y446362D01*
X949851D01*
Y446698D01*
D02*
G37*
G36*
X993675Y447537D02*
X993508D01*
Y447369D01*
X993339D01*
Y447201D01*
X993172D01*
Y446866D01*
X993004D01*
Y446530D01*
X992836D01*
Y446026D01*
X992668D01*
Y445522D01*
X992500D01*
Y445187D01*
X992332D01*
Y444683D01*
X992164D01*
Y444179D01*
X991996D01*
Y443675D01*
X991828D01*
Y443172D01*
X991660D01*
Y442668D01*
X991492D01*
Y441996D01*
X991325D01*
Y440653D01*
X991157D01*
Y439478D01*
X991325D01*
Y438134D01*
X991492D01*
Y437463D01*
X991660D01*
Y436959D01*
X991828D01*
Y436455D01*
X991996D01*
Y435951D01*
X992164D01*
Y435616D01*
X992332D01*
Y435280D01*
X992500D01*
Y435112D01*
X992668D01*
Y434776D01*
X992836D01*
Y434440D01*
X993004D01*
Y434272D01*
X993172D01*
Y433937D01*
X993339D01*
Y433769D01*
X993508D01*
Y433601D01*
X993675D01*
Y433265D01*
X993843D01*
Y433097D01*
X994011D01*
Y432929D01*
X994179D01*
Y432761D01*
X994347D01*
Y432593D01*
X994515D01*
Y432425D01*
X994683D01*
Y432257D01*
X994851D01*
Y432090D01*
X995019D01*
Y431922D01*
X995187D01*
Y431754D01*
X995522D01*
Y431586D01*
X995690D01*
Y431418D01*
X995858D01*
Y431250D01*
X996026D01*
Y431082D01*
X996194D01*
Y430914D01*
X996530D01*
Y430746D01*
X996698D01*
Y430578D01*
X997034D01*
Y430410D01*
X997202D01*
Y430243D01*
X997537D01*
Y430075D01*
X997705D01*
Y429907D01*
X998041D01*
Y429739D01*
X998209D01*
Y431250D01*
X998041D01*
Y432761D01*
X997873D01*
Y433937D01*
X997705D01*
Y434944D01*
X997537D01*
Y435784D01*
X997369D01*
Y436623D01*
X997202D01*
Y437295D01*
X997034D01*
Y437966D01*
X996866D01*
Y438638D01*
X996698D01*
Y439310D01*
X996530D01*
Y439813D01*
X996362D01*
Y440485D01*
X996194D01*
Y440989D01*
X996026D01*
Y441493D01*
X995858D01*
Y442164D01*
X995690D01*
Y442668D01*
X995522D01*
Y443172D01*
X995355D01*
Y443675D01*
X995187D01*
Y444179D01*
X995019D01*
Y444683D01*
X994851D01*
Y445019D01*
X994683D01*
Y445522D01*
X994515D01*
Y446026D01*
X994347D01*
Y446362D01*
X994179D01*
Y446866D01*
X994011D01*
Y447201D01*
X993843D01*
Y447369D01*
X993675D01*
Y447537D01*
D02*
G37*
G36*
X982425Y451735D02*
X982257D01*
Y451567D01*
X982090D01*
Y451399D01*
X981922D01*
Y451231D01*
X981586D01*
Y451063D01*
X981418D01*
Y450896D01*
X981250D01*
Y450728D01*
X981082D01*
Y450560D01*
X980914D01*
Y450392D01*
X980746D01*
Y450224D01*
X980578D01*
Y450056D01*
X980242D01*
Y449888D01*
X980075D01*
Y449720D01*
X979907D01*
Y449552D01*
X979739D01*
Y449384D01*
X979571D01*
Y449216D01*
X979403D01*
Y449049D01*
X979235D01*
Y448881D01*
X979067D01*
Y448713D01*
X978899D01*
Y448545D01*
X978731D01*
Y448377D01*
X978563D01*
Y448209D01*
X978395D01*
Y448041D01*
X978060D01*
Y447873D01*
X977892D01*
Y447705D01*
X977724D01*
Y447537D01*
X977556D01*
Y447369D01*
X977388D01*
Y447201D01*
X977220D01*
Y447034D01*
X977052D01*
Y446866D01*
X976884D01*
Y446698D01*
X976716D01*
Y446362D01*
X976548D01*
Y446194D01*
X976381D01*
Y446026D01*
X976213D01*
Y445858D01*
X976045D01*
Y445690D01*
X975877D01*
Y445522D01*
X975709D01*
Y445354D01*
X975541D01*
Y445187D01*
X975373D01*
Y444851D01*
X975541D01*
Y444683D01*
X975709D01*
Y444347D01*
X975877D01*
Y444179D01*
X976045D01*
Y443843D01*
X976213D01*
Y443675D01*
X976381D01*
Y443340D01*
X976548D01*
Y443172D01*
X976716D01*
Y442836D01*
X976884D01*
Y442500D01*
X977052D01*
Y442332D01*
X977220D01*
Y441996D01*
X977388D01*
Y441828D01*
X977556D01*
Y441493D01*
X977724D01*
Y441325D01*
X977892D01*
Y440989D01*
X978060D01*
Y440821D01*
X978228D01*
Y440485D01*
X978395D01*
Y440317D01*
X978563D01*
Y439981D01*
X978731D01*
Y439813D01*
X978899D01*
Y439478D01*
X979067D01*
Y439310D01*
X979235D01*
Y438974D01*
X979403D01*
Y438806D01*
X979571D01*
Y438470D01*
X979739D01*
Y438134D01*
X979907D01*
Y437966D01*
X980075D01*
Y437631D01*
X980242D01*
Y437463D01*
X980410D01*
Y437127D01*
X980578D01*
Y436791D01*
X980746D01*
Y436623D01*
X980914D01*
Y436287D01*
X981082D01*
Y436119D01*
X981250D01*
Y435784D01*
X981418D01*
Y435616D01*
X981586D01*
Y435280D01*
X981754D01*
Y434944D01*
X981922D01*
Y434776D01*
X982090D01*
Y434440D01*
X982257D01*
Y434104D01*
X982425D01*
Y433937D01*
X982593D01*
Y433601D01*
X982761D01*
Y433265D01*
X982929D01*
Y432929D01*
X983097D01*
Y432761D01*
X983265D01*
Y432425D01*
X983433D01*
Y432090D01*
X983601D01*
Y431922D01*
X983769D01*
Y431586D01*
X983937D01*
Y431250D01*
X984105D01*
Y431082D01*
X984272D01*
Y430746D01*
X984440D01*
Y430410D01*
X984608D01*
Y430075D01*
X984776D01*
Y429739D01*
X984944D01*
Y429403D01*
X985112D01*
Y429235D01*
X985280D01*
Y428899D01*
X985448D01*
Y428563D01*
X985616D01*
Y428228D01*
X985784D01*
Y427892D01*
X985952D01*
Y427556D01*
X986119D01*
Y427220D01*
X986287D01*
Y426884D01*
X986455D01*
Y426381D01*
X986623D01*
Y426045D01*
X986791D01*
Y425709D01*
X986959D01*
Y425373D01*
X987127D01*
Y425037D01*
X987295D01*
Y424534D01*
X987463D01*
Y424198D01*
X987631D01*
Y423862D01*
X987798D01*
Y423358D01*
X987966D01*
Y423022D01*
X988134D01*
Y422519D01*
X988302D01*
Y422015D01*
X988470D01*
Y421511D01*
X988638D01*
Y421175D01*
X988806D01*
Y420504D01*
X988974D01*
Y420336D01*
Y420000D01*
X989142D01*
Y419496D01*
X989310D01*
Y418825D01*
X989478D01*
Y418153D01*
X989645D01*
Y417481D01*
X989813D01*
Y416642D01*
X989981D01*
Y415466D01*
X990149D01*
Y414795D01*
X990821D01*
Y414963D01*
X991660D01*
Y415131D01*
X992164D01*
Y415299D01*
X992668D01*
Y415466D01*
X993004D01*
Y415634D01*
X993339D01*
Y415802D01*
X993508D01*
Y415970D01*
X993843D01*
Y416138D01*
X994011D01*
Y416306D01*
X994347D01*
Y416474D01*
X994515D01*
Y416642D01*
X994683D01*
Y416810D01*
X994851D01*
Y416978D01*
X995019D01*
Y417146D01*
X995187D01*
Y417481D01*
X995355D01*
Y417649D01*
X995522D01*
Y417817D01*
X995690D01*
Y418153D01*
X995858D01*
Y418489D01*
X996026D01*
Y418657D01*
X996194D01*
Y419160D01*
X996362D01*
Y419496D01*
X996530D01*
Y419832D01*
X996698D01*
Y420336D01*
X996866D01*
Y420672D01*
X997034D01*
Y421175D01*
X997202D01*
Y421679D01*
X997369D01*
Y422351D01*
X997537D01*
Y423022D01*
X997705D01*
Y423358D01*
X997537D01*
Y423526D01*
X996866D01*
Y423694D01*
X996362D01*
Y423862D01*
X995858D01*
Y424030D01*
X995522D01*
Y424198D01*
X995019D01*
Y424366D01*
X994683D01*
Y424534D01*
X994347D01*
Y424701D01*
X994011D01*
Y424869D01*
X993675D01*
Y425037D01*
X993339D01*
Y425205D01*
X993004D01*
Y425373D01*
X992668D01*
Y425541D01*
X992500D01*
Y425709D01*
X992164D01*
Y425877D01*
X991828D01*
Y426045D01*
X991660D01*
Y426213D01*
X991325D01*
Y426381D01*
X991157D01*
Y426549D01*
X990989D01*
Y426716D01*
X990653D01*
Y426884D01*
X990485D01*
Y427052D01*
X990317D01*
Y427220D01*
X989981D01*
Y427388D01*
X989813D01*
Y427556D01*
X989645D01*
Y427724D01*
X989478D01*
Y427892D01*
X989310D01*
Y428060D01*
X989142D01*
Y428228D01*
X988974D01*
Y428396D01*
X988806D01*
Y428563D01*
X988638D01*
Y428731D01*
X988470D01*
Y428899D01*
X988302D01*
Y429067D01*
X988134D01*
Y429235D01*
X987966D01*
Y429403D01*
X987798D01*
Y429739D01*
X987631D01*
Y429907D01*
X987463D01*
Y430075D01*
X987295D01*
Y430410D01*
X987127D01*
Y430578D01*
X986959D01*
Y430914D01*
X986791D01*
Y431250D01*
X986623D01*
Y431418D01*
X986455D01*
Y431754D01*
X986287D01*
Y432090D01*
X986119D01*
Y432425D01*
X985952D01*
Y432761D01*
X985784D01*
Y433265D01*
X985616D01*
Y433601D01*
X985448D01*
Y433937D01*
X985280D01*
Y434440D01*
X985112D01*
Y434776D01*
X984944D01*
Y435448D01*
X984776D01*
Y435951D01*
X984608D01*
Y436455D01*
X984440D01*
Y436959D01*
X984272D01*
Y437631D01*
X984105D01*
Y438302D01*
X983937D01*
Y439142D01*
X983769D01*
Y439813D01*
X983601D01*
Y440653D01*
X983433D01*
Y441660D01*
X983265D01*
Y442668D01*
X983097D01*
Y443843D01*
X982929D01*
Y445522D01*
X982761D01*
Y447369D01*
X982593D01*
Y450728D01*
X982425D01*
Y451735D01*
D02*
G37*
G36*
X960765Y450728D02*
X960429D01*
Y449552D01*
X960261D01*
Y446698D01*
X960093D01*
Y444851D01*
X959925D01*
Y443675D01*
X959757D01*
Y442332D01*
X959589D01*
Y441325D01*
X959422D01*
Y440485D01*
X959254D01*
Y439646D01*
X959086D01*
Y438806D01*
X958918D01*
Y437966D01*
X958750D01*
Y437295D01*
X958582D01*
Y436791D01*
X958414D01*
Y436287D01*
X958246D01*
Y435616D01*
X958078D01*
Y435280D01*
X957910D01*
Y434776D01*
X957742D01*
Y434272D01*
X957575D01*
Y433937D01*
X957407D01*
Y433433D01*
X957239D01*
Y433097D01*
X957071D01*
Y432761D01*
X956903D01*
Y432425D01*
X956735D01*
Y432090D01*
X956567D01*
Y431754D01*
X956399D01*
Y431418D01*
X956231D01*
Y431082D01*
X956063D01*
Y430914D01*
X955895D01*
Y430578D01*
X955728D01*
Y430243D01*
X955560D01*
Y430075D01*
X955392D01*
Y429907D01*
X955224D01*
Y429571D01*
X955056D01*
Y429403D01*
X954888D01*
Y429235D01*
X954720D01*
Y429067D01*
X954552D01*
Y428899D01*
X954384D01*
Y428731D01*
X954216D01*
Y428563D01*
X954048D01*
Y428228D01*
X953881D01*
Y428060D01*
X953545D01*
Y427892D01*
X953377D01*
Y427724D01*
X953209D01*
Y427556D01*
X953041D01*
Y427388D01*
X952873D01*
Y427220D01*
X952705D01*
Y427052D01*
X952369D01*
Y426884D01*
X952202D01*
Y426716D01*
X952034D01*
Y426549D01*
X951698D01*
Y426381D01*
X951530D01*
Y426213D01*
X951194D01*
Y426045D01*
X951026D01*
Y425877D01*
X950690D01*
Y425709D01*
X950522D01*
Y425541D01*
X950187D01*
Y425373D01*
X949851D01*
Y425205D01*
X949515D01*
Y425037D01*
X949179D01*
Y424869D01*
X948843D01*
Y424701D01*
X948508D01*
Y424534D01*
X948172D01*
Y424366D01*
X947836D01*
Y424198D01*
X947332D01*
Y424030D01*
X946828D01*
Y423862D01*
X946492D01*
Y423022D01*
X946660D01*
Y422351D01*
X946828D01*
Y421847D01*
X946996D01*
Y421511D01*
X947164D01*
Y421007D01*
X947332D01*
Y420672D01*
X947500D01*
Y420336D01*
X947668D01*
Y420000D01*
X947836D01*
Y419664D01*
X948004D01*
Y419496D01*
Y419328D01*
X948172D01*
Y419160D01*
X948339D01*
Y418825D01*
X948508D01*
Y418657D01*
X948675D01*
Y418321D01*
X948843D01*
Y418153D01*
X949011D01*
Y417985D01*
X949179D01*
Y417817D01*
X949347D01*
Y417649D01*
X949515D01*
Y417481D01*
X949683D01*
Y417313D01*
X949851D01*
Y417146D01*
X950019D01*
Y416978D01*
X950187D01*
Y416810D01*
X950355D01*
Y416642D01*
X950522D01*
Y416474D01*
X950858D01*
Y416306D01*
X951026D01*
Y416138D01*
X951194D01*
Y415970D01*
X951530D01*
Y415802D01*
X951866D01*
Y415634D01*
X952202D01*
Y415466D01*
X952537D01*
Y415299D01*
X952873D01*
Y415131D01*
X953209D01*
Y414963D01*
X953713D01*
Y414795D01*
X954216D01*
Y414627D01*
X954888D01*
Y414459D01*
X955560D01*
Y414795D01*
X955392D01*
Y415970D01*
X955224D01*
Y420336D01*
X955392D01*
Y421679D01*
X955560D01*
Y422687D01*
X955728D01*
Y423526D01*
X955895D01*
Y424366D01*
X956063D01*
Y424869D01*
X956231D01*
Y425541D01*
X956399D01*
Y426213D01*
X956567D01*
Y426716D01*
X956735D01*
Y427220D01*
X956903D01*
Y427724D01*
X957071D01*
Y428228D01*
X957239D01*
Y428731D01*
X957407D01*
Y429235D01*
X957575D01*
Y429571D01*
X957742D01*
Y430075D01*
X957910D01*
Y430410D01*
X958078D01*
Y430914D01*
X958246D01*
Y431250D01*
X958414D01*
Y431586D01*
X958582D01*
Y432090D01*
X958750D01*
Y432425D01*
X958918D01*
Y432761D01*
X959086D01*
Y433097D01*
X959254D01*
Y433601D01*
X959422D01*
Y433937D01*
X959589D01*
Y434272D01*
X959757D01*
Y434608D01*
X959925D01*
Y434944D01*
X960093D01*
Y435280D01*
X960261D01*
Y435616D01*
X960429D01*
Y435951D01*
X960597D01*
Y436119D01*
X960765D01*
Y436455D01*
X960933D01*
Y436791D01*
X961101D01*
Y437127D01*
X961269D01*
Y437463D01*
X961437D01*
Y437799D01*
X961605D01*
Y438134D01*
X961772D01*
Y438470D01*
X961940D01*
Y438806D01*
X962108D01*
Y438974D01*
X962276D01*
Y439310D01*
X962444D01*
Y439646D01*
X962612D01*
Y439813D01*
X962780D01*
Y440149D01*
X962948D01*
Y440485D01*
X963116D01*
Y440653D01*
X963284D01*
Y440989D01*
X963452D01*
Y441325D01*
X963619D01*
Y441493D01*
X963787D01*
Y441828D01*
X963955D01*
Y442164D01*
X964123D01*
Y442332D01*
X964291D01*
Y442668D01*
X964459D01*
Y442836D01*
X964627D01*
Y443172D01*
X964795D01*
Y443507D01*
X964963D01*
Y443675D01*
X965131D01*
Y444011D01*
X965298D01*
Y444179D01*
X965466D01*
Y444515D01*
X965634D01*
Y444683D01*
X965802D01*
Y445019D01*
X965970D01*
Y445354D01*
X965802D01*
Y445690D01*
X965634D01*
Y445858D01*
X965466D01*
Y446026D01*
X965298D01*
Y446194D01*
X965131D01*
Y446362D01*
X964963D01*
Y446530D01*
X964795D01*
Y446698D01*
X964627D01*
Y446866D01*
X964459D01*
Y447034D01*
X964291D01*
Y447201D01*
X964123D01*
Y447369D01*
X963955D01*
Y447537D01*
X963787D01*
Y447705D01*
X963619D01*
Y447873D01*
X963452D01*
Y448041D01*
X963284D01*
Y448209D01*
X963116D01*
Y448377D01*
X962948D01*
Y448545D01*
X962780D01*
Y448713D01*
X962612D01*
Y448881D01*
X962444D01*
Y449049D01*
X962276D01*
Y449216D01*
X962108D01*
Y449384D01*
X961940D01*
Y449552D01*
X961772D01*
Y449720D01*
X961605D01*
Y449888D01*
X961437D01*
Y450056D01*
X961269D01*
Y450224D01*
X961101D01*
Y450392D01*
X960933D01*
Y450560D01*
X960765D01*
Y450728D01*
D02*
G37*
%LPD*%
G36*
X970336Y511511D02*
X971175D01*
Y511343D01*
X971679D01*
Y511175D01*
X972015D01*
Y511007D01*
X972183D01*
Y510840D01*
X972519D01*
Y510672D01*
X972686D01*
Y510504D01*
X972855D01*
Y510336D01*
X973022D01*
Y510168D01*
X973190D01*
Y510000D01*
X973358D01*
Y509664D01*
X973526D01*
Y509328D01*
X973694D01*
Y508993D01*
X973862D01*
Y508657D01*
X974030D01*
Y507481D01*
X974198D01*
Y507146D01*
X974030D01*
Y506306D01*
X973862D01*
Y505802D01*
X973694D01*
Y505466D01*
X973526D01*
Y505131D01*
X973358D01*
Y504963D01*
X973190D01*
Y504795D01*
X973022D01*
Y504627D01*
X972855D01*
Y504459D01*
X972686D01*
Y504291D01*
X972519D01*
Y504123D01*
X972351D01*
Y503955D01*
X972015D01*
Y503787D01*
X971679D01*
Y503619D01*
X971343D01*
Y503451D01*
X970672D01*
Y503284D01*
X969160D01*
Y503451D01*
X968657D01*
Y503619D01*
X968153D01*
Y503787D01*
X967817D01*
Y503955D01*
X967649D01*
Y504123D01*
X967313D01*
Y504291D01*
X967145D01*
Y504459D01*
X966978D01*
Y504627D01*
X966810D01*
Y504795D01*
X966642D01*
Y505131D01*
X966474D01*
Y505299D01*
X966306D01*
Y505634D01*
X966138D01*
Y505970D01*
X965970D01*
Y506642D01*
X965802D01*
Y508321D01*
X965970D01*
Y508825D01*
X966138D01*
Y509328D01*
X966306D01*
Y509496D01*
X966474D01*
Y509832D01*
X966642D01*
Y510000D01*
X966810D01*
Y510168D01*
X966978D01*
Y510504D01*
X967313D01*
Y510672D01*
X967481D01*
Y510840D01*
X967649D01*
Y511007D01*
X967985D01*
Y511175D01*
X968321D01*
Y511343D01*
X968825D01*
Y511511D01*
X969664D01*
Y511679D01*
X970336D01*
Y511511D01*
D02*
G37*
G36*
X971175Y486660D02*
X971679D01*
Y486493D01*
X971847D01*
Y486325D01*
X972015D01*
Y486157D01*
X972183D01*
Y485989D01*
X972351D01*
Y485653D01*
X972519D01*
Y484981D01*
X972686D01*
Y484813D01*
X972519D01*
Y484646D01*
Y484142D01*
X972351D01*
Y483806D01*
X972183D01*
Y483638D01*
X972015D01*
Y483470D01*
X971847D01*
Y483302D01*
X971679D01*
Y483134D01*
X971343D01*
Y482966D01*
X970000D01*
Y483134D01*
X969664D01*
Y483302D01*
X969328D01*
Y483638D01*
X969160D01*
Y483806D01*
X968992D01*
Y483974D01*
X968825D01*
Y484478D01*
X968657D01*
Y485317D01*
X968825D01*
Y485821D01*
X968992D01*
Y485989D01*
X969160D01*
Y486157D01*
X969328D01*
Y486325D01*
X969496D01*
Y486493D01*
X969664D01*
Y486660D01*
X970168D01*
Y486828D01*
X971175D01*
Y486660D01*
D02*
G37*
D10*
X993800Y650250D02*
G03*
X993800Y650250I-1250J0D01*
G01*
X573700Y547250D02*
G03*
X573700Y547250I-1250J0D01*
G01*
X333700Y547250D02*
G03*
X333700Y547250I-1250J0D01*
G01*
X818500Y627550D02*
G03*
X818500Y627550I-1250J0D01*
G01*
X628800Y622750D02*
G03*
X628800Y622750I-1250J0D01*
G01*
X388800Y622749D02*
G03*
X388800Y622749I-1250J0D01*
G01*
X235250Y380500D02*
G03*
X235250Y380500I-1250J0D01*
G01*
X355250D02*
G03*
X355250Y380500I-1250J0D01*
G01*
X475250D02*
G03*
X475250Y380500I-1250J0D01*
G01*
X595250Y380500D02*
G03*
X595250Y380500I-1250J0D01*
G01*
X715250D02*
G03*
X715250Y380500I-1250J0D01*
G01*
X267250Y789500D02*
G03*
X267250Y789500I-1250J0D01*
G01*
X747250Y809500D02*
G03*
X747250Y809500I-1250J0D01*
G01*
X507250Y819500D02*
G03*
X507250Y819500I-1250J0D01*
G01*
X627250D02*
G03*
X627250Y819500I-1250J0D01*
G01*
X387250D02*
G03*
X387250Y819500I-1250J0D01*
G01*
D11*
X713500Y440000D02*
G03*
X713500Y440000I-1000J0D01*
G01*
X473500Y440000D02*
G03*
X473500Y440000I-1000J0D01*
G01*
X833500Y440000D02*
G03*
X833500Y440000I-1000J0D01*
G01*
X568500Y760000D02*
G03*
X568500Y760000I-1000J0D01*
G01*
X238500Y720000D02*
G03*
X238500Y720000I-1000J0D01*
G01*
X568500Y380000D02*
G03*
X568500Y380000I-1000J0D01*
G01*
X328500D02*
G03*
X328500Y380000I-1000J0D01*
G01*
X833500Y800000D02*
G03*
X833500Y800000I-1000J0D01*
G01*
X713500Y820000D02*
G03*
X713500Y820000I-1000J0D01*
G01*
X473500Y810000D02*
G03*
X473500Y810000I-1000J0D01*
G01*
X844600Y814000D02*
X857300Y814000D01*
X844600Y801300D02*
X844600Y814000D01*
X882700Y814000D02*
X895400Y814000D01*
X895400Y801300D01*
X844600Y306000D02*
X844600Y318700D01*
X844600Y306000D02*
X857300Y306000D01*
X895400D02*
X895400Y318700D01*
X882700Y306000D02*
X895400Y306000D01*
X237900Y111750D02*
X250600D01*
Y115550D01*
Y115550D02*
X517300Y115550D01*
Y111750D02*
Y115550D01*
Y111750D02*
X542700D01*
Y115550D01*
X809400D01*
Y111750D02*
Y115550D01*
Y111750D02*
X822100D01*
X237900Y204450D02*
X822100Y204450D01*
Y111750D02*
Y204450D01*
X237900Y111750D02*
Y204450D01*
X940000Y661500D02*
Y693500D01*
X990000Y661500D02*
Y693500D01*
X940000D02*
X990000D01*
X940000Y661500D02*
X990000D01*
X625000Y504000D02*
Y536000D01*
X575000Y504000D02*
Y536000D01*
Y504000D02*
X625000D01*
X575000Y536000D02*
X625000D01*
X385000Y504000D02*
Y536000D01*
X335000Y504000D02*
Y536000D01*
Y504000D02*
X385000D01*
X335000Y536000D02*
X385000D01*
X774000Y575000D02*
X806000D01*
X774000Y625000D02*
X806000D01*
X774000Y575000D02*
Y625000D01*
X806000Y575000D02*
Y625000D01*
X575000Y634000D02*
Y666000D01*
X625000Y634000D02*
Y666000D01*
X575000D02*
X625000D01*
X575000Y634000D02*
X625000D01*
X335000Y633999D02*
Y665999D01*
X385000Y633999D02*
Y665999D01*
X335000D02*
X385000D01*
X335000Y633999D02*
X385000D01*
X922982Y737152D02*
X942540D01*
Y717848D02*
Y737152D01*
X922982Y717848D02*
X942540D01*
Y737152D02*
X956764D01*
X942540Y717848D02*
X957018D01*
X987460D02*
X1007018D01*
X987460D02*
Y737152D01*
X1007018D01*
X973236Y717848D02*
X987460D01*
X972982Y737152D02*
X987460D01*
X231000Y326000D02*
Y374000D01*
X269000Y326000D02*
Y374000D01*
X231000D02*
X235500D01*
X231000Y326000D02*
X235500D01*
X264500Y374000D02*
X269000D01*
X264500Y326000D02*
X269000D01*
X351000D02*
Y374000D01*
X389000Y326000D02*
Y374000D01*
X351000D02*
X355500D01*
X351000Y326000D02*
X355500D01*
X384500Y374000D02*
X389000D01*
X384500Y326000D02*
X389000D01*
X471000D02*
Y374000D01*
X509000Y326000D02*
Y374000D01*
X471000D02*
X475500D01*
X471000Y326000D02*
X475500D01*
X504500Y374000D02*
X509000D01*
X504500Y326000D02*
X509000D01*
X591000Y326000D02*
Y374000D01*
X629000Y326000D02*
Y374000D01*
X591000D02*
X595500D01*
X591000Y326000D02*
X595500D01*
X624500Y374000D02*
X629000D01*
X624500Y326000D02*
X629000D01*
X711000D02*
Y374000D01*
X749000Y326000D02*
Y374000D01*
X711000D02*
X715500D01*
X711000Y326000D02*
X715500D01*
X744500Y374000D02*
X749000D01*
X744500Y326000D02*
X749000D01*
X231000Y844000D02*
X235500D01*
X231000Y796000D02*
X235500D01*
X264500Y844000D02*
X269000D01*
X264500Y796000D02*
X269000D01*
X231000D02*
Y844000D01*
X269000Y796000D02*
Y844000D01*
X711000Y864000D02*
X715500D01*
X711000Y816000D02*
X715500D01*
X744500Y864000D02*
X749000D01*
X744500Y816000D02*
X749000D01*
X711000D02*
Y864000D01*
X749000Y816000D02*
Y864000D01*
X509000Y826000D02*
Y874000D01*
X471000Y826000D02*
Y874000D01*
X504500Y826000D02*
X509000D01*
X504500Y874000D02*
X509000D01*
X471000Y826000D02*
X475500D01*
X471000Y874000D02*
X475500D01*
X591000D02*
X595500D01*
X591000Y826000D02*
X595500D01*
X624500Y874000D02*
X629000D01*
X624500Y826000D02*
X629000D01*
X591000D02*
Y874000D01*
X629000Y826000D02*
Y874000D01*
X351000D02*
X355500D01*
X351000Y826000D02*
X355500D01*
X384500Y874000D02*
X389000D01*
X384500Y826000D02*
X389000D01*
X351000D02*
Y874000D01*
X389000Y826000D02*
Y874000D01*
X115329Y352000D02*
X105332D01*
X110331D01*
Y358665D01*
X115329D01*
X105332D01*
X111997Y361997D02*
X106998D01*
X105332Y363663D01*
Y368661D01*
X103666D01*
X102000Y366995D01*
Y365329D01*
X105332Y368661D02*
X111997D01*
X115329Y378658D02*
X105332D01*
Y373660D01*
X106998Y371993D01*
X110331D01*
X111997Y373660D01*
Y378658D01*
Y381990D02*
X105332D01*
X108665D01*
X110331Y383657D01*
X111997Y385323D01*
Y386989D01*
X105332Y393653D02*
Y396986D01*
X106998Y398652D01*
X110331D01*
X111997Y396986D01*
Y393653D01*
X110331Y391987D01*
X106998D01*
X105332Y393653D01*
Y401984D02*
X111997D01*
Y406982D01*
X110331Y408648D01*
X105332D01*
X111997Y413647D02*
Y416979D01*
X110331Y418645D01*
X105332D01*
Y413647D01*
X106998Y411981D01*
X108665Y413647D01*
Y418645D01*
X111997Y421977D02*
X106998D01*
X105332Y423644D01*
Y428642D01*
X111997D01*
X113663Y433640D02*
X111997D01*
Y431974D01*
Y435307D01*
Y433640D01*
X106998D01*
X105332Y435307D01*
Y440305D02*
Y443637D01*
Y441971D01*
X111997D01*
Y440305D01*
Y455300D02*
Y450302D01*
X110331Y448635D01*
X106998D01*
X105332Y450302D01*
Y455300D01*
Y458632D02*
Y463631D01*
X106998Y465297D01*
X108665Y463631D01*
Y460298D01*
X110331Y458632D01*
X111997Y460298D01*
Y465297D01*
X113663Y480292D02*
X111997D01*
Y478626D01*
Y481958D01*
Y480292D01*
X106998D01*
X105332Y481958D01*
Y491955D02*
Y488623D01*
X106998Y486956D01*
X110331D01*
X111997Y488623D01*
Y491955D01*
X110331Y493621D01*
X108665D01*
Y486956D01*
X111997Y498619D02*
Y501952D01*
X110331Y503618D01*
X105332D01*
Y498619D01*
X106998Y496953D01*
X108665Y498619D01*
Y503618D01*
X105332Y506950D02*
X111997D01*
Y508616D01*
X110331Y510282D01*
X105332D01*
X110331D01*
X111997Y511948D01*
X110331Y513615D01*
X105332D01*
X82000Y352000D02*
X91997D01*
Y356998D01*
X90331Y358665D01*
X86998D01*
X85332Y356998D01*
Y352000D01*
X91997Y366995D02*
Y363663D01*
X90331Y361997D01*
X83666D01*
X82000Y363663D01*
Y366995D01*
X83666Y368661D01*
X90331D01*
X91997Y366995D01*
Y371994D02*
X82000D01*
X85332Y375326D01*
X82000Y378658D01*
X91997D01*
Y388655D02*
Y381990D01*
X82000D01*
Y388655D01*
X86998Y381990D02*
Y385323D01*
X82000Y391987D02*
X91997D01*
Y396986D01*
X90331Y398652D01*
X86998D01*
X85332Y396986D01*
Y391987D01*
Y395319D02*
X82000Y398652D01*
X91997Y401984D02*
X82000D01*
Y406982D01*
X83666Y408648D01*
X85332D01*
X86998Y406982D01*
Y401984D01*
Y406982D01*
X88665Y408648D01*
X90331D01*
X91997Y406982D01*
Y401984D01*
Y416979D02*
Y413647D01*
X90331Y411981D01*
X83666D01*
X82000Y413647D01*
Y416979D01*
X83666Y418645D01*
X90331D01*
X91997Y416979D01*
X82000Y421978D02*
X88665D01*
X91997Y425310D01*
X88665Y428642D01*
X82000D01*
X86998D01*
Y421978D01*
X82000Y431974D02*
X91997D01*
Y436973D01*
X90331Y438639D01*
X86998D01*
X85332Y436973D01*
Y431974D01*
Y435307D02*
X82000Y438639D01*
X91997Y441971D02*
X82000D01*
Y446969D01*
X83666Y448635D01*
X90331D01*
X91997Y446969D01*
Y441971D01*
X90331Y468629D02*
X91997Y466963D01*
Y463631D01*
X90331Y461965D01*
X88665D01*
X86998Y463631D01*
Y466963D01*
X85332Y468629D01*
X83666D01*
X82000Y466963D01*
Y463631D01*
X83666Y461965D01*
X82000Y471961D02*
X88665D01*
X91997Y475294D01*
X88665Y478626D01*
X82000D01*
X86998D01*
Y471961D01*
X91997Y481958D02*
X83666D01*
X82000Y483624D01*
Y486956D01*
X83666Y488623D01*
X91997D01*
Y491955D02*
X85332D01*
X82000Y495287D01*
X85332Y498619D01*
X91997D01*
X90331Y508616D02*
X91997Y506950D01*
Y503618D01*
X90331Y501952D01*
X83666D01*
X82000Y503618D01*
Y506950D01*
X83666Y508616D01*
X82000Y518613D02*
Y511949D01*
X88665Y518613D01*
X90331D01*
X91997Y516947D01*
Y513615D01*
X90331Y511949D01*
X91997Y528610D02*
X90331Y525277D01*
X86998Y521945D01*
X83666D01*
X82000Y523611D01*
Y526944D01*
X83666Y528610D01*
X85332D01*
X86998Y526944D01*
Y521945D01*
X71997Y352000D02*
X65332D01*
X62000Y355332D01*
X65332Y358665D01*
X71997D01*
X62000Y361997D02*
Y365329D01*
Y363663D01*
X71997D01*
X70331Y361997D01*
X62000Y370327D02*
X63666D01*
Y371993D01*
X62000D01*
Y370327D01*
X70331Y378658D02*
X71997Y380324D01*
Y383656D01*
X70331Y385322D01*
X63666D01*
X62000Y383656D01*
Y380324D01*
X63666Y378658D01*
X70331D01*
X35329Y432000D02*
X25332D01*
Y436998D01*
X26998Y438665D01*
X33663D01*
X35329Y436998D01*
Y432000D01*
X25332Y446995D02*
Y443663D01*
X26998Y441997D01*
X30331D01*
X31997Y443663D01*
Y446995D01*
X30331Y448661D01*
X28665D01*
Y441997D01*
X31997Y451994D02*
X25332Y455326D01*
X31997Y458658D01*
X25332Y466989D02*
Y463657D01*
X26998Y461990D01*
X30331D01*
X31997Y463657D01*
Y466989D01*
X30331Y468655D01*
X28665D01*
Y461990D01*
X25332Y471987D02*
Y475319D01*
Y473653D01*
X35329D01*
Y471987D01*
X25332Y481984D02*
Y485316D01*
X26998Y486982D01*
X30331D01*
X31997Y485316D01*
Y481984D01*
X30331Y480318D01*
X26998D01*
X25332Y481984D01*
X22000Y490314D02*
X31997D01*
Y495313D01*
X30331Y496979D01*
X26998D01*
X25332Y495313D01*
Y490314D01*
Y505310D02*
Y501978D01*
X26998Y500311D01*
X30331D01*
X31997Y501978D01*
Y505310D01*
X30331Y506976D01*
X28665D01*
Y500311D01*
X35329Y516973D02*
X25332D01*
Y511974D01*
X26998Y510308D01*
X30331D01*
X31997Y511974D01*
Y516973D01*
X35329Y530302D02*
X25332D01*
Y535300D01*
X26998Y536966D01*
X28665D01*
X30331D01*
X31997Y535300D01*
Y530302D01*
Y540298D02*
X26998D01*
X25332Y541965D01*
Y546963D01*
X23666D01*
X22000Y545297D01*
Y543631D01*
X25332Y546963D02*
X31997D01*
X33663Y566956D02*
X35329Y565290D01*
Y561958D01*
X33663Y560292D01*
X26998D01*
X25332Y561958D01*
Y565290D01*
X26998Y566956D01*
X30331D01*
Y563624D01*
X25332Y570289D02*
Y573621D01*
Y571955D01*
X35329D01*
Y570289D01*
X25332Y583618D02*
Y580286D01*
X26998Y578619D01*
X30331D01*
X31997Y580286D01*
Y583618D01*
X30331Y585284D01*
X28665D01*
Y578619D01*
X35329Y588616D02*
X25332D01*
Y593615D01*
X26998Y595281D01*
X28665D01*
X30331D01*
X31997Y593615D01*
Y588616D01*
X25332Y608610D02*
X35329D01*
X31997Y611942D01*
X35329Y615274D01*
X25332D01*
Y618606D02*
X26998D01*
Y620273D01*
X25332D01*
Y618606D01*
X578327Y460835D02*
Y470831D01*
X573329D01*
X571663Y469165D01*
Y465833D01*
X573329Y464167D01*
X578327D01*
X574995D02*
X571663Y460835D01*
X561666D02*
X568331D01*
X561666Y467499D01*
Y469165D01*
X563332Y470831D01*
X566665D01*
X568331Y469165D01*
X558334Y459169D02*
X551669D01*
X541673Y470831D02*
X548337D01*
Y465833D01*
X545005Y467499D01*
X543339D01*
X541673Y465833D01*
Y462501D01*
X543339Y460835D01*
X546671D01*
X548337Y462501D01*
X338327Y460835D02*
Y470831D01*
X333329D01*
X331663Y469165D01*
Y465833D01*
X333329Y464167D01*
X338327D01*
X334995D02*
X331663Y460835D01*
X321666D02*
X328331D01*
X321666Y467499D01*
Y469165D01*
X323332Y470831D01*
X326665D01*
X328331Y469165D01*
X318334Y459169D02*
X311669D01*
X303339Y460835D02*
Y470831D01*
X308337Y465833D01*
X301673D01*
X808327Y653335D02*
Y663332D01*
X803329D01*
X801663Y661665D01*
Y658333D01*
X803329Y656667D01*
X808327D01*
X804995D02*
X801663Y653335D01*
X791666D02*
X798331D01*
X791666Y659999D01*
Y661665D01*
X793332Y663332D01*
X796665D01*
X798331Y661665D01*
X788334Y651668D02*
X781669D01*
X778337Y661665D02*
X776671Y663332D01*
X773339D01*
X771673Y661665D01*
Y659999D01*
X773339Y658333D01*
X775005D01*
X773339D01*
X771673Y656667D01*
Y655001D01*
X773339Y653335D01*
X776671D01*
X778337Y655001D01*
X655827Y700835D02*
Y710832D01*
X650829D01*
X649163Y709165D01*
Y705833D01*
X650829Y704167D01*
X655827D01*
X652495D02*
X649163Y700835D01*
X639166D02*
X645831D01*
X639166Y707499D01*
Y709165D01*
X640832Y710832D01*
X644165D01*
X645831Y709165D01*
X635834Y699169D02*
X629169D01*
X619173Y700835D02*
X625837D01*
X619173Y707499D01*
Y709165D01*
X620839Y710832D01*
X624171D01*
X625837Y709165D01*
X374161Y723335D02*
Y733332D01*
X369163D01*
X367497Y731665D01*
Y728333D01*
X369163Y726667D01*
X374161D01*
X370829D02*
X367497Y723335D01*
X357500D02*
X364165D01*
X357500Y729999D01*
Y731665D01*
X359166Y733332D01*
X362498D01*
X364165Y731665D01*
X354168Y721668D02*
X347503D01*
X344171Y723335D02*
X340839D01*
X342505D01*
Y733332D01*
X344171Y731665D01*
X667494Y470835D02*
Y480831D01*
X662496D01*
X660830Y479165D01*
Y475833D01*
X662496Y474167D01*
X667494D01*
X664162D02*
X660830Y470835D01*
X657498D02*
X654165D01*
X655831D01*
Y480831D01*
X657498Y479165D01*
X649167Y469169D02*
X642502D01*
X632506Y480831D02*
X639170D01*
Y475833D01*
X635838Y477499D01*
X634172D01*
X632506Y475833D01*
Y472501D01*
X634172Y470835D01*
X637504D01*
X639170Y472501D01*
X427494Y470835D02*
Y480831D01*
X422496D01*
X420830Y479165D01*
Y475833D01*
X422496Y474167D01*
X427494D01*
X424162D02*
X420830Y470835D01*
X417498D02*
X414165D01*
X415831D01*
Y480831D01*
X417498Y479165D01*
X409167Y469169D02*
X402502D01*
X394172Y470835D02*
Y480831D01*
X399170Y475833D01*
X392506D01*
X740835Y540006D02*
X750831D01*
Y545004D01*
X749165Y546670D01*
X745833D01*
X744167Y545004D01*
Y540006D01*
Y543338D02*
X740835Y546670D01*
Y550002D02*
Y553335D01*
Y551669D01*
X750831D01*
X749165Y550002D01*
X739168Y558333D02*
Y564997D01*
X749165Y568330D02*
X750831Y569996D01*
Y573328D01*
X749165Y574994D01*
X747499D01*
X745833Y573328D01*
Y571662D01*
Y573328D01*
X744167Y574994D01*
X742501D01*
X740835Y573328D01*
Y569996D01*
X742501Y568330D01*
X569994Y700835D02*
Y710832D01*
X564996D01*
X563330Y709165D01*
Y705833D01*
X564996Y704167D01*
X569994D01*
X566662D02*
X563330Y700835D01*
X559998D02*
X556665D01*
X558331D01*
Y710832D01*
X559998Y709165D01*
X551667Y699169D02*
X545002D01*
X535006Y700835D02*
X541670D01*
X535006Y707499D01*
Y709165D01*
X536672Y710832D01*
X540004D01*
X541670Y709165D01*
X335828Y690835D02*
Y700832D01*
X330830D01*
X329164Y699165D01*
Y695833D01*
X330830Y694167D01*
X335828D01*
X332496D02*
X329164Y690835D01*
X325831D02*
X322499D01*
X324165D01*
Y700832D01*
X325831Y699165D01*
X317501Y689168D02*
X310836D01*
X307504Y690835D02*
X304172D01*
X305838D01*
Y700832D01*
X307504Y699165D01*
X925829Y817498D02*
X919165Y807502D01*
Y817498D02*
X925829Y807502D01*
X915832D02*
Y817498D01*
X910834D01*
X909168Y815832D01*
Y812500D01*
X910834Y810834D01*
X915832D01*
X899171Y817498D02*
X902503Y815832D01*
X905835Y812500D01*
Y809168D01*
X904169Y807502D01*
X900837D01*
X899171Y809168D01*
Y810834D01*
X900837Y812500D01*
X905835D01*
X803326Y430831D02*
Y424167D01*
X799994Y420835D01*
X796661Y424167D01*
Y430831D01*
X793329D02*
Y420835D01*
X788331D01*
X786665Y422501D01*
Y429165D01*
X788331Y430831D01*
X793329D01*
X778334Y420835D02*
Y430831D01*
X783332Y425833D01*
X776668D01*
X773335Y419169D02*
X766671D01*
X763339Y429165D02*
X761673Y430831D01*
X758340D01*
X756674Y429165D01*
Y427499D01*
X758340Y425833D01*
X760006D01*
X758340D01*
X756674Y424167D01*
Y422501D01*
X758340Y420835D01*
X761673D01*
X763339Y422501D01*
X838326Y730832D02*
Y724167D01*
X834994Y720835D01*
X831661Y724167D01*
Y730832D01*
X828329D02*
Y720835D01*
X823331D01*
X821665Y722501D01*
Y729165D01*
X823331Y730832D01*
X828329D01*
X818332Y729165D02*
X816666Y730832D01*
X813334D01*
X811668Y729165D01*
Y727499D01*
X813334Y725833D01*
X815000D01*
X813334D01*
X811668Y724167D01*
Y722501D01*
X813334Y720835D01*
X816666D01*
X818332Y722501D01*
X808335Y719168D02*
X801671D01*
X798339Y729165D02*
X796673Y730832D01*
X793340D01*
X791674Y729165D01*
Y727499D01*
X793340Y725833D01*
X795006D01*
X793340D01*
X791674Y724167D01*
Y722501D01*
X793340Y720835D01*
X796673D01*
X798339Y722501D01*
X747493Y310832D02*
Y304167D01*
X744161Y300835D01*
X740828Y304167D01*
Y310832D01*
X737496D02*
Y300835D01*
X732498D01*
X730832Y302501D01*
Y309165D01*
X732498Y310832D01*
X737496D01*
X727499Y300835D02*
X724167D01*
X725833D01*
Y310832D01*
X727499Y309165D01*
X719168Y299168D02*
X712504D01*
X709172Y309165D02*
X707506Y310832D01*
X704173D01*
X702507Y309165D01*
Y307499D01*
X704173Y305833D01*
X705839D01*
X704173D01*
X702507Y304167D01*
Y302501D01*
X704173Y300835D01*
X707506D01*
X709172Y302501D01*
X753326Y885832D02*
Y879167D01*
X749994Y875835D01*
X746661Y879167D01*
Y885832D01*
X743329D02*
Y875835D01*
X738331D01*
X736665Y877501D01*
Y884165D01*
X738331Y885832D01*
X743329D01*
X726668Y875835D02*
X733332D01*
X726668Y882499D01*
Y884165D01*
X728334Y885832D01*
X731666D01*
X733332Y884165D01*
X723335Y874168D02*
X716671D01*
X713339Y884165D02*
X711673Y885832D01*
X708340D01*
X706674Y884165D01*
Y882499D01*
X708340Y880833D01*
X710006D01*
X708340D01*
X706674Y879167D01*
Y877501D01*
X708340Y875835D01*
X711673D01*
X713339Y877501D01*
X757493Y635831D02*
Y625835D01*
X752494D01*
X750828Y627501D01*
Y634165D01*
X752494Y635831D01*
X757493D01*
X747496D02*
Y625835D01*
X742498D01*
X740832Y627501D01*
Y634165D01*
X742498Y635831D01*
X747496D01*
X737499Y625835D02*
X734167D01*
X735833D01*
Y635831D01*
X737499Y634165D01*
X729168Y624169D02*
X722504D01*
X719172Y634165D02*
X717506Y635831D01*
X714173D01*
X712507Y634165D01*
Y632499D01*
X714173Y630833D01*
X715839D01*
X714173D01*
X712507Y629167D01*
Y627501D01*
X714173Y625835D01*
X717506D01*
X719172Y627501D01*
X798330Y546665D02*
X799996Y548331D01*
X803328D01*
X804994Y546665D01*
Y540001D01*
X803328Y538335D01*
X799996D01*
X798330Y540001D01*
X794998Y538335D02*
X791665D01*
X793331D01*
Y548331D01*
X794998Y546665D01*
X786667Y536669D02*
X780002D01*
X776670Y546665D02*
X775004Y548331D01*
X771672D01*
X770006Y546665D01*
Y544999D01*
X771672Y543333D01*
X773338D01*
X771672D01*
X770006Y541667D01*
Y540001D01*
X771672Y538335D01*
X775004D01*
X776670Y540001D01*
X683326Y430831D02*
Y424167D01*
X679994Y420835D01*
X676661Y424167D01*
Y430831D01*
X673329D02*
Y420835D01*
X668331D01*
X666665Y422501D01*
Y429165D01*
X668331Y430831D01*
X673329D01*
X658334Y420835D02*
Y430831D01*
X663332Y425833D01*
X656668D01*
X653335Y419169D02*
X646671D01*
X636674Y430831D02*
X643339D01*
Y425833D01*
X640006Y427499D01*
X638340D01*
X636674Y425833D01*
Y422501D01*
X638340Y420835D01*
X641673D01*
X643339Y422501D01*
X443326Y430831D02*
Y424167D01*
X439994Y420835D01*
X436661Y424167D01*
Y430831D01*
X433329D02*
Y420835D01*
X428331D01*
X426665Y422501D01*
Y429165D01*
X428331Y430831D01*
X433329D01*
X418334Y420835D02*
Y430831D01*
X423332Y425833D01*
X416668D01*
X413335Y419169D02*
X406671D01*
X398340Y420835D02*
Y430831D01*
X403339Y425833D01*
X396674D01*
X598326Y750832D02*
Y744167D01*
X594994Y740835D01*
X591661Y744167D01*
Y750832D01*
X588329D02*
Y740835D01*
X583331D01*
X581665Y742501D01*
Y749165D01*
X583331Y750832D01*
X588329D01*
X573334Y740835D02*
Y750832D01*
X578332Y745833D01*
X571668D01*
X568335Y739168D02*
X561671D01*
X551674Y740835D02*
X558339D01*
X551674Y747499D01*
Y749165D01*
X553340Y750832D01*
X556673D01*
X558339Y749165D01*
X286660Y710832D02*
Y704167D01*
X283327Y700835D01*
X279995Y704167D01*
Y710832D01*
X276663D02*
Y700835D01*
X271665D01*
X269998Y702501D01*
Y709165D01*
X271665Y710832D01*
X276663D01*
X261668Y700835D02*
Y710832D01*
X266666Y705833D01*
X260002D01*
X256669Y699169D02*
X250005D01*
X246673Y700835D02*
X243340D01*
X245006D01*
Y710832D01*
X246673Y709165D01*
X563326Y430831D02*
Y424167D01*
X559994Y420835D01*
X556661Y424167D01*
Y430831D01*
X553329D02*
Y420835D01*
X548331D01*
X546665Y422501D01*
Y429165D01*
X548331Y430831D01*
X553329D01*
X543332Y429165D02*
X541666Y430831D01*
X538334D01*
X536668Y429165D01*
Y427499D01*
X538334Y425833D01*
X540000D01*
X538334D01*
X536668Y424167D01*
Y422501D01*
X538334Y420835D01*
X541666D01*
X543332Y422501D01*
X533335Y419169D02*
X526671D01*
X516674Y430831D02*
X523339D01*
Y425833D01*
X520006Y427499D01*
X518340D01*
X516674Y425833D01*
Y422501D01*
X518340Y420835D01*
X521673D01*
X523339Y422501D01*
X323326Y430831D02*
Y424167D01*
X319994Y420835D01*
X316661Y424167D01*
Y430831D01*
X313329D02*
Y420835D01*
X308331D01*
X306665Y422501D01*
Y429165D01*
X308331Y430831D01*
X313329D01*
X303332Y429165D02*
X301666Y430831D01*
X298334D01*
X296668Y429165D01*
Y427499D01*
X298334Y425833D01*
X300000D01*
X298334D01*
X296668Y424167D01*
Y422501D01*
X298334Y420835D01*
X301666D01*
X303332Y422501D01*
X293335Y419169D02*
X286671D01*
X278340Y420835D02*
Y430831D01*
X283339Y425833D01*
X276674D01*
X718326Y750832D02*
Y744167D01*
X714994Y740835D01*
X711661Y744167D01*
Y750832D01*
X708329D02*
Y740835D01*
X703331D01*
X701665Y742501D01*
Y749165D01*
X703331Y750832D01*
X708329D01*
X698332Y749165D02*
X696666Y750832D01*
X693334D01*
X691668Y749165D01*
Y747499D01*
X693334Y745833D01*
X695000D01*
X693334D01*
X691668Y744167D01*
Y742501D01*
X693334Y740835D01*
X696666D01*
X698332Y742501D01*
X688335Y739168D02*
X681671D01*
X671674Y740835D02*
X678339D01*
X671674Y747499D01*
Y749165D01*
X673340Y750832D01*
X676673D01*
X678339Y749165D01*
X484160Y743332D02*
Y736667D01*
X480827Y733335D01*
X477495Y736667D01*
Y743332D01*
X474163D02*
Y733335D01*
X469165D01*
X467498Y735001D01*
Y741665D01*
X469165Y743332D01*
X474163D01*
X464166Y741665D02*
X462500Y743332D01*
X459168D01*
X457502Y741665D01*
Y739999D01*
X459168Y738333D01*
X460834D01*
X459168D01*
X457502Y736667D01*
Y735001D01*
X459168Y733335D01*
X462500D01*
X464166Y735001D01*
X454169Y731668D02*
X447505D01*
X444173Y733335D02*
X440840D01*
X442506D01*
Y743332D01*
X444173Y741665D01*
X627493Y310832D02*
Y304167D01*
X624160Y300835D01*
X620828Y304167D01*
Y310832D01*
X617496D02*
Y300835D01*
X612498D01*
X610831Y302501D01*
Y309165D01*
X612498Y310832D01*
X617496D01*
X607499Y300835D02*
X604167D01*
X605833D01*
Y310832D01*
X607499Y309165D01*
X599169Y299168D02*
X592504D01*
X582507Y310832D02*
X589172D01*
Y305833D01*
X585840Y307499D01*
X584173D01*
X582507Y305833D01*
Y302501D01*
X584173Y300835D01*
X587506D01*
X589172Y302501D01*
X387493Y310832D02*
Y304167D01*
X384160Y300835D01*
X380828Y304167D01*
Y310832D01*
X377496D02*
Y300835D01*
X372498D01*
X370831Y302501D01*
Y309165D01*
X372498Y310832D01*
X377496D01*
X367499Y300835D02*
X364167D01*
X365833D01*
Y310832D01*
X367499Y309165D01*
X359169Y299168D02*
X352504D01*
X344173Y300835D02*
Y310832D01*
X349172Y305833D01*
X342507D01*
X508342Y898257D02*
Y891592D01*
X505010Y888260D01*
X501678Y891592D01*
Y898257D01*
X498345D02*
Y888260D01*
X493347D01*
X491681Y889926D01*
Y896591D01*
X493347Y898257D01*
X498345D01*
X488348Y888260D02*
X485016D01*
X486682D01*
Y898257D01*
X488348Y896591D01*
X480018Y886594D02*
X473353D01*
X463357Y888260D02*
X470021D01*
X463357Y894924D01*
Y896591D01*
X465023Y898257D01*
X468355D01*
X470021Y896591D01*
X225827Y828332D02*
Y821667D01*
X222494Y818335D01*
X219162Y821667D01*
Y828332D01*
X215830D02*
Y818335D01*
X210831D01*
X209165Y820001D01*
Y826665D01*
X210831Y828332D01*
X215830D01*
X205833Y818335D02*
X202501D01*
X204167D01*
Y828332D01*
X205833Y826665D01*
X197502Y816668D02*
X190838D01*
X187506Y818335D02*
X184173D01*
X185840D01*
Y828332D01*
X187506Y826665D01*
X508326Y310832D02*
Y304167D01*
X504994Y300835D01*
X501661Y304167D01*
Y310832D01*
X498329D02*
Y300835D01*
X493331D01*
X491665Y302501D01*
Y309165D01*
X493331Y310832D01*
X498329D01*
X481668Y300835D02*
X488332D01*
X481668Y307499D01*
Y309165D01*
X483334Y310832D01*
X486666D01*
X488332Y309165D01*
X478335Y299168D02*
X471671D01*
X461674Y310832D02*
X468339D01*
Y305833D01*
X465006Y307499D01*
X463340D01*
X461674Y305833D01*
Y302501D01*
X463340Y300835D01*
X466673D01*
X468339Y302501D01*
X268326Y310832D02*
Y304167D01*
X264994Y300835D01*
X261661Y304167D01*
Y310832D01*
X258329D02*
Y300835D01*
X253331D01*
X251665Y302501D01*
Y309165D01*
X253331Y310832D01*
X258329D01*
X241668Y300835D02*
X248332D01*
X241668Y307499D01*
Y309165D01*
X243334Y310832D01*
X246666D01*
X248332Y309165D01*
X238335Y299168D02*
X231671D01*
X223340Y300835D02*
Y310832D01*
X228339Y305833D01*
X221674D01*
X628230Y898257D02*
Y891592D01*
X624898Y888260D01*
X621566Y891592D01*
Y898257D01*
X618233D02*
Y888260D01*
X613235D01*
X611569Y889926D01*
Y896591D01*
X613235Y898257D01*
X618233D01*
X601572Y888260D02*
X608236D01*
X601572Y894924D01*
Y896591D01*
X603238Y898257D01*
X606570D01*
X608236Y896591D01*
X598240Y886594D02*
X591575D01*
X581578Y888260D02*
X588243D01*
X581578Y894924D01*
Y896591D01*
X583245Y898257D01*
X586577D01*
X588243Y896591D01*
X388200Y898257D02*
Y891592D01*
X384868Y888260D01*
X381535Y891592D01*
Y898257D01*
X378203D02*
Y888260D01*
X373205D01*
X371539Y889926D01*
Y896591D01*
X373205Y898257D01*
X378203D01*
X361542Y888260D02*
X368206D01*
X361542Y894924D01*
Y896591D01*
X363208Y898257D01*
X366540D01*
X368206Y896591D01*
X358210Y886594D02*
X351545D01*
X348213Y888260D02*
X344881D01*
X346547D01*
Y898257D01*
X348213Y896591D01*
X927496Y625002D02*
Y634998D01*
X922498D01*
X920832Y633332D01*
Y630000D01*
X922498Y628334D01*
X927496D01*
X924164D02*
X920832Y625002D01*
X917499D02*
X914167D01*
X915833D01*
Y634998D01*
X917499Y633332D01*
X909168D02*
X907502Y634998D01*
X904170D01*
X902504Y633332D01*
Y631666D01*
X904170Y630000D01*
X905836D01*
X904170D01*
X902504Y628334D01*
Y626668D01*
X904170Y625002D01*
X907502D01*
X909168Y626668D01*
X1010002Y682504D02*
X1019998D01*
Y687502D01*
X1018332Y689168D01*
X1015000D01*
X1013334Y687502D01*
Y682504D01*
Y685836D02*
X1010002Y689168D01*
Y692501D02*
Y695833D01*
Y694167D01*
X1019998D01*
X1018332Y692501D01*
X1010002Y707496D02*
Y700831D01*
X1016666Y707496D01*
X1018332D01*
X1019998Y705830D01*
Y702498D01*
X1018332Y700831D01*
X1010002Y654170D02*
X1019998D01*
Y659168D01*
X1018332Y660835D01*
X1015000D01*
X1013334Y659168D01*
Y654170D01*
Y657502D02*
X1010002Y660835D01*
Y664167D02*
Y667499D01*
Y665833D01*
X1019998D01*
X1018332Y664167D01*
X1010002Y672498D02*
Y675830D01*
Y674164D01*
X1019998D01*
X1018332Y672498D01*
X1045829Y607498D02*
Y597502D01*
X1040831D01*
X1039165Y599168D01*
Y605832D01*
X1040831Y607498D01*
X1045829D01*
X1035832D02*
Y597502D01*
X1030834D01*
X1029168Y599168D01*
Y605832D01*
X1030834Y607498D01*
X1035832D01*
X1025835Y605832D02*
X1024169Y607498D01*
X1020837D01*
X1019171Y605832D01*
Y604166D01*
X1020837Y602500D01*
X1022503D01*
X1020837D01*
X1019171Y600834D01*
Y599168D01*
X1020837Y597502D01*
X1024169D01*
X1025835Y599168D01*
X933329Y699998D02*
Y690002D01*
X928331D01*
X926665Y691668D01*
Y698332D01*
X928331Y699998D01*
X933329D01*
X923332D02*
Y690002D01*
X918334D01*
X916668Y691668D01*
Y698332D01*
X918334Y699998D01*
X923332D01*
X906671Y690002D02*
X913335D01*
X906671Y696666D01*
Y698332D01*
X908337Y699998D01*
X911669D01*
X913335Y698332D01*
X569993Y515831D02*
Y505835D01*
X564994D01*
X563328Y507501D01*
Y514165D01*
X564994Y515831D01*
X569993D01*
X559996D02*
Y505835D01*
X554998D01*
X553331Y507501D01*
Y514165D01*
X554998Y515831D01*
X559996D01*
X549999Y505835D02*
X546667D01*
X548333D01*
Y515831D01*
X549999Y514165D01*
X541669Y504169D02*
X535004D01*
X525007Y515831D02*
X531672D01*
Y510833D01*
X528340Y512499D01*
X526673D01*
X525007Y510833D01*
Y507501D01*
X526673Y505835D01*
X530006D01*
X531672Y507501D01*
X382493Y570831D02*
Y560835D01*
X377494D01*
X375828Y562501D01*
Y569165D01*
X377494Y570831D01*
X382493D01*
X372496D02*
Y560835D01*
X367498D01*
X365831Y562501D01*
Y569165D01*
X367498Y570831D01*
X372496D01*
X362499Y560835D02*
X359167D01*
X360833D01*
Y570831D01*
X362499Y569165D01*
X354169Y559169D02*
X347504D01*
X339173Y560835D02*
Y570831D01*
X344172Y565833D01*
X337507D01*
X674993Y663332D02*
Y653335D01*
X669994D01*
X668328Y655001D01*
Y661665D01*
X669994Y663332D01*
X674993D01*
X664996D02*
Y653335D01*
X659998D01*
X658331Y655001D01*
Y661665D01*
X659998Y663332D01*
X664996D01*
X654999Y653335D02*
X651667D01*
X653333D01*
Y663332D01*
X654999Y661665D01*
X646668Y651668D02*
X640004D01*
X630007Y653335D02*
X636672D01*
X630007Y659999D01*
Y661665D01*
X631673Y663332D01*
X635006D01*
X636672Y661665D01*
X430827Y665832D02*
Y655835D01*
X425828D01*
X424162Y657501D01*
Y664165D01*
X425828Y665832D01*
X430827D01*
X420830D02*
Y655835D01*
X415831D01*
X414165Y657501D01*
Y664165D01*
X415831Y665832D01*
X420830D01*
X410833Y655835D02*
X407501D01*
X409167D01*
Y665832D01*
X410833Y664165D01*
X402502Y654168D02*
X395838D01*
X392506Y655835D02*
X389173D01*
X390840D01*
Y665832D01*
X392506Y664165D01*
X916666Y558332D02*
X918332Y559998D01*
X921665D01*
X923331Y558332D01*
Y551668D01*
X921665Y550002D01*
X918332D01*
X916666Y551668D01*
X906669Y559998D02*
X913334D01*
Y555000D01*
X910002Y556666D01*
X908335D01*
X906669Y555000D01*
Y551668D01*
X908335Y550002D01*
X911668D01*
X913334Y551668D01*
X911666Y670832D02*
X913332Y672498D01*
X916665D01*
X918331Y670832D01*
Y664168D01*
X916665Y662502D01*
X913332D01*
X911666Y664168D01*
X903335Y662502D02*
Y672498D01*
X908334Y667500D01*
X901669D01*
X931666Y750832D02*
X933332Y752498D01*
X936665D01*
X938331Y750832D01*
Y744168D01*
X936665Y742502D01*
X933332D01*
X931666Y744168D01*
X928334Y750832D02*
X926668Y752498D01*
X923335D01*
X921669Y750832D01*
Y749166D01*
X923335Y747500D01*
X925002D01*
X923335D01*
X921669Y745834D01*
Y744168D01*
X923335Y742502D01*
X926668D01*
X928334Y744168D01*
X981666Y750832D02*
X983332Y752498D01*
X986665D01*
X988331Y750832D01*
Y744168D01*
X986665Y742502D01*
X983332D01*
X981666Y744168D01*
X971669Y742502D02*
X978334D01*
X971669Y749166D01*
Y750832D01*
X973335Y752498D01*
X976668D01*
X978334Y750832D01*
X680830Y524165D02*
X682496Y525831D01*
X685828D01*
X687494Y524165D01*
Y517501D01*
X685828Y515835D01*
X682496D01*
X680830Y517501D01*
X677498Y515835D02*
X674165D01*
X675831D01*
Y525831D01*
X677498Y524165D01*
X669167Y514169D02*
X662502D01*
X652506Y525831D02*
X659170D01*
Y520833D01*
X655838Y522499D01*
X654172D01*
X652506Y520833D01*
Y517501D01*
X654172Y515835D01*
X657504D01*
X659170Y517501D01*
X440830Y519165D02*
X442496Y520831D01*
X445828D01*
X447494Y519165D01*
Y512501D01*
X445828Y510835D01*
X442496D01*
X440830Y512501D01*
X437498Y510835D02*
X434165D01*
X435831D01*
Y520831D01*
X437498Y519165D01*
X429167Y509169D02*
X422502D01*
X414172Y510835D02*
Y520831D01*
X419170Y515833D01*
X412506D01*
X540830Y659165D02*
X542496Y660832D01*
X545828D01*
X547494Y659165D01*
Y652501D01*
X545828Y650835D01*
X542496D01*
X540830Y652501D01*
X537498Y650835D02*
X534165D01*
X535831D01*
Y660832D01*
X537498Y659165D01*
X529167Y649169D02*
X522502D01*
X512506Y650835D02*
X519170D01*
X512506Y657499D01*
Y659165D01*
X514172Y660832D01*
X517504D01*
X519170Y659165D01*
X304164Y664165D02*
X305830Y665832D01*
X309162D01*
X310828Y664165D01*
Y657501D01*
X309162Y655835D01*
X305830D01*
X304164Y657501D01*
X300831Y655835D02*
X297499D01*
X299165D01*
Y665832D01*
X300831Y664165D01*
X292501Y654168D02*
X285836D01*
X282504Y655835D02*
X279172D01*
X280838D01*
Y665832D01*
X282504Y664165D01*
X265518Y223379D02*
X258853Y213382D01*
Y223379D02*
X265518Y213382D01*
X255521D02*
Y223379D01*
X250523D01*
X248857Y221713D01*
Y218380D01*
X250523Y216714D01*
X255521D01*
X245524Y221713D02*
X243858Y223379D01*
X240526D01*
X238860Y221713D01*
Y220047D01*
X240526Y218380D01*
X242192D01*
X240526D01*
X238860Y216714D01*
Y215048D01*
X240526Y213382D01*
X243858D01*
X245524Y215048D01*
D12*
X687200Y431650D02*
X689300D01*
X710700D02*
X712800D01*
X687200Y388350D02*
X689300D01*
X710700D02*
X712800D01*
Y431650D01*
X687200Y388350D02*
Y431650D01*
X447200Y431650D02*
X449300D01*
X470700D02*
X472800D01*
X447200Y388350D02*
X449300D01*
X470700D02*
X472800D01*
Y431650D01*
X447200Y388350D02*
Y431650D01*
X807200Y431650D02*
X809300D01*
X830700D02*
X832800D01*
X807200Y388350D02*
X809300D01*
X830700D02*
X832800D01*
Y431650D01*
X807200Y388350D02*
Y431650D01*
X590700Y768350D02*
X592800D01*
X567200D02*
X569300D01*
X590700Y811650D02*
X592800D01*
X567200D02*
X569300D01*
X567200Y768350D02*
Y811650D01*
X592800Y768350D02*
Y811650D01*
X260700Y728350D02*
X262800D01*
X237200D02*
X239300D01*
X260700Y771650D02*
X262800D01*
X237200D02*
X239300D01*
X237200Y728350D02*
Y771650D01*
X262800Y728350D02*
Y771650D01*
X590700Y388350D02*
X592800D01*
X567200D02*
X569300D01*
X590700Y431650D02*
X592800D01*
X567200D02*
X569300D01*
X567200Y388350D02*
Y431650D01*
X592800Y388350D02*
Y431650D01*
X350700Y388350D02*
X352800D01*
X327200D02*
X329300D01*
X350700Y431650D02*
X352800D01*
X327200D02*
X329300D01*
X327200Y388350D02*
Y431650D01*
X352800Y388350D02*
Y431650D01*
X807200Y791650D02*
X809300D01*
X830700D02*
X832800D01*
X807200Y748350D02*
X809300D01*
X830700D02*
X832800D01*
Y791650D01*
X807200Y748350D02*
Y791650D01*
X687200Y811650D02*
X689300D01*
X710700D02*
X712800D01*
X687200Y768350D02*
X689300D01*
X710700D02*
X712800D01*
Y811650D01*
X687200Y768350D02*
Y811650D01*
X447200Y801650D02*
X449300D01*
X470700D02*
X472800D01*
X447200Y758350D02*
X449300D01*
X470700D02*
X472800D01*
Y801650D01*
X447200Y758350D02*
Y801650D01*
X359750Y460000D02*
Y470000D01*
X345250Y460000D02*
Y470000D01*
X360250Y700000D02*
Y710000D01*
X374750Y700000D02*
Y710000D01*
X600250Y700000D02*
Y710000D01*
X614750Y700000D02*
Y710000D01*
X575250Y700000D02*
Y710000D01*
X589750Y700000D02*
Y710000D01*
X785000Y644750D02*
X795000D01*
X785000Y630250D02*
X795000D01*
X315000Y670250D02*
X325000D01*
X315000Y684750D02*
X325000D01*
X315500Y650000D02*
X324500D01*
X327750Y645000D02*
Y655000D01*
X312250Y645000D02*
Y655000D01*
X402500Y499750D02*
X412500D01*
X402500Y485250D02*
X412500D01*
X599750Y460000D02*
Y470000D01*
X585250Y460000D02*
Y470000D01*
X642500Y499750D02*
X652500D01*
X642500Y485250D02*
X652500D01*
X769750Y552500D02*
Y562500D01*
X755250Y552500D02*
Y562500D01*
X925500Y662500D02*
X934500D01*
X922250Y657500D02*
Y667500D01*
X937750Y657500D02*
Y667500D01*
X913000Y580000D02*
X922000D01*
X925250Y575000D02*
Y585000D01*
X909750Y575000D02*
Y585000D01*
X924750Y605000D02*
Y615000D01*
X910250Y605000D02*
Y615000D01*
X1007250Y662500D02*
Y672500D01*
X992750Y662500D02*
Y672500D01*
X395500Y520000D02*
X404500D01*
X392250Y515000D02*
Y525000D01*
X407750Y515000D02*
Y525000D01*
X790000Y555500D02*
Y564500D01*
X785000Y567750D02*
X795000D01*
X785000Y552250D02*
X795000D01*
X635500Y520000D02*
X644500D01*
X632250Y515000D02*
Y525000D01*
X647750Y515000D02*
Y525000D01*
X1007250Y687500D02*
Y697500D01*
X992750Y687500D02*
Y697500D01*
X552250Y645000D02*
Y655000D01*
X567750Y645000D02*
Y655000D01*
X555500Y650000D02*
X564500D01*
D79*
X983000Y671500D02*
G03*
X983000Y671500I-3000J0D01*
G01*
X588000Y526000D02*
G03*
X588000Y526000I-3000J0D01*
G01*
X348000Y526000D02*
G03*
X348000Y526000I-3000J0D01*
G01*
X799000Y615000D02*
G03*
X799000Y615000I-3000J0D01*
G01*
X618000Y644000D02*
G03*
X618000Y644000I-3000J0D01*
G01*
X378000Y643999D02*
G03*
X378000Y643999I-3000J0D01*
G01*
D80*
X961500Y737000D02*
G03*
X961500Y737000I-500J0D01*
G01*
X969500Y718000D02*
G03*
X969500Y718000I-500J0D01*
G01*
D81*
X928812Y585452D02*
G03*
X928812Y591548I0J3048D01*
G01*
X1016188Y572498D02*
Y604502D01*
X928812Y572498D02*
Y585452D01*
Y591548D01*
Y604502D01*
M02*
