G04*
G04 #@! TF.GenerationSoftware,Altium Limited,Altium Designer,24.6.1 (21)*
G04*
G04 Layer_Color=32896*
%FSLAX44Y44*%
%MOMM*%
G71*
G04*
G04 #@! TF.SameCoordinates,B0C6F459-AFBE-4FB2-BAD8-FBBEB889AAAA*
G04*
G04*
G04 #@! TF.FilePolarity,Positive*
G04*
G01*
G75*
%ADD10C,0.2500*%
%ADD13C,0.2000*%
G36*
X900713Y793913D02*
X901091Y793833D01*
X901409Y793694D01*
X901687Y793555D01*
X901926Y793416D01*
X902085Y793277D01*
X902185Y793197D01*
X902224Y793157D01*
X902483Y792859D01*
X902682Y792541D01*
X902801Y792223D01*
X902901Y791924D01*
X902960Y791666D01*
X902980Y791447D01*
X903000Y791367D01*
Y791328D01*
Y791288D01*
Y791268D01*
Y783213D01*
X902960Y782815D01*
X902881Y782438D01*
X902741Y782119D01*
X902602Y781841D01*
X902463Y781602D01*
X902324Y781443D01*
X902244Y781344D01*
X902205Y781304D01*
X901886Y781045D01*
X901568Y780846D01*
X901250Y780727D01*
X900952Y780628D01*
X900693Y780568D01*
X900494Y780548D01*
X900415Y780528D01*
X896954D01*
X896835Y780548D01*
X896735Y780568D01*
X896596Y780648D01*
X896497Y780707D01*
X896477Y780747D01*
X896377Y780906D01*
X896318Y781045D01*
X896298Y781145D01*
Y781184D01*
X896338Y781364D01*
X896397Y781503D01*
X896457Y781602D01*
X896497Y781642D01*
X896576Y781721D01*
X896656Y781761D01*
X896795Y781841D01*
X896914Y781861D01*
X900335D01*
X900514Y781881D01*
X900673Y781900D01*
X900812Y781920D01*
X900832Y781940D01*
X900852D01*
X901011Y782040D01*
X901150Y782139D01*
X901250Y782219D01*
X901290Y782239D01*
X901409Y782398D01*
X901508Y782557D01*
X901568Y782716D01*
X901628Y782875D01*
X901648Y782994D01*
X901667Y783094D01*
Y783173D01*
Y783193D01*
Y791268D01*
X901648Y791467D01*
X901628Y791626D01*
X901608Y791745D01*
X901588Y791765D01*
Y791785D01*
X901508Y791964D01*
X901409Y792103D01*
X901329Y792183D01*
X901290Y792223D01*
X901131Y792362D01*
X900972Y792461D01*
X900812Y792521D01*
X900653Y792580D01*
X900534Y792600D01*
X900434Y792620D01*
X896974D01*
X896855Y792640D01*
X896755Y792660D01*
X896596Y792740D01*
X896497Y792799D01*
X896477Y792839D01*
X896377Y792998D01*
X896318Y793137D01*
X896298Y793237D01*
Y793277D01*
X896338Y793456D01*
X896397Y793595D01*
X896457Y793694D01*
X896497Y793734D01*
X896576Y793813D01*
X896636Y793853D01*
X896795Y793933D01*
X896914Y793953D01*
X900315D01*
X900713Y793913D01*
D02*
G37*
G36*
X893235Y793893D02*
X893374Y793833D01*
X893474Y793754D01*
X893513Y793734D01*
Y793714D01*
X893613Y793555D01*
X893653Y793396D01*
X893672Y793296D01*
Y793277D01*
Y793257D01*
X893653Y793058D01*
X893593Y792919D01*
X893533Y792819D01*
X893513Y792779D01*
X893354Y792680D01*
X893195Y792620D01*
X893056Y792600D01*
X890331D01*
X889993Y792580D01*
X889695Y792501D01*
X889436Y792402D01*
X889218Y792302D01*
X889058Y792183D01*
X888939Y792083D01*
X888859Y792004D01*
X888840Y791984D01*
X888680Y791765D01*
X888561Y791526D01*
X888482Y791308D01*
X888422Y791089D01*
X888382Y790890D01*
X888362Y790751D01*
Y790651D01*
Y790611D01*
X888382Y790313D01*
X888442Y790035D01*
X888521Y789796D01*
X888601Y789597D01*
X888700Y789418D01*
X888780Y789299D01*
X888840Y789219D01*
X888859Y789200D01*
X889078Y788981D01*
X889337Y788841D01*
X889576Y788722D01*
X889814Y788643D01*
X890013Y788603D01*
X890172Y788583D01*
X890292Y788563D01*
X891783D01*
X891882Y788523D01*
X892042Y788444D01*
X892141Y788364D01*
X892181Y788344D01*
Y788324D01*
X892280Y788165D01*
X892320Y788026D01*
X892340Y787927D01*
Y787907D01*
Y787887D01*
X892320Y787708D01*
X892241Y787549D01*
X892181Y787449D01*
X892161Y787429D01*
Y787410D01*
X892002Y787310D01*
X891843Y787250D01*
X891723Y787231D01*
X890331D01*
X890033Y787211D01*
X889754Y787131D01*
X889496Y787051D01*
X889297Y786932D01*
X889118Y786833D01*
X888999Y786733D01*
X888919Y786654D01*
X888899Y786634D01*
X888700Y786395D01*
X888561Y786157D01*
X888442Y785918D01*
X888382Y785699D01*
X888342Y785500D01*
X888303Y785341D01*
Y785242D01*
Y785202D01*
Y783869D01*
X888323Y783571D01*
X888402Y783293D01*
X888482Y783054D01*
X888601Y782835D01*
X888700Y782676D01*
X888800Y782537D01*
X888879Y782457D01*
X888899Y782438D01*
X889138Y782239D01*
X889377Y782099D01*
X889615Y782000D01*
X889834Y781940D01*
X890033Y781900D01*
X890192Y781861D01*
X893136D01*
X893235Y781821D01*
X893394Y781741D01*
X893474Y781662D01*
X893513Y781642D01*
Y781622D01*
X893613Y781463D01*
X893653Y781324D01*
X893672Y781224D01*
Y781204D01*
Y781184D01*
X893653Y781005D01*
X893593Y780846D01*
X893533Y780747D01*
X893513Y780727D01*
Y780707D01*
X893354Y780608D01*
X893195Y780548D01*
X893056Y780528D01*
X890331D01*
X890073Y780548D01*
X889834Y780568D01*
X889377Y780687D01*
X888979Y780846D01*
X888641Y781025D01*
X888342Y781204D01*
X888144Y781344D01*
X888064Y781423D01*
X888004Y781463D01*
X887984Y781483D01*
X887965Y781503D01*
X887786Y781702D01*
X887626Y781900D01*
X887507Y782099D01*
X887388Y782298D01*
X887209Y782696D01*
X887089Y783054D01*
X887030Y783392D01*
X886990Y783531D01*
Y783631D01*
X886970Y783730D01*
Y783810D01*
Y783849D01*
Y783869D01*
Y785202D01*
X886990Y785500D01*
X887050Y785779D01*
X887109Y786037D01*
X887169Y786256D01*
X887249Y786455D01*
X887308Y786594D01*
X887348Y786674D01*
X887368Y786713D01*
X887507Y786972D01*
X887666Y787191D01*
X887805Y787390D01*
X887965Y787549D01*
X888084Y787688D01*
X888183Y787787D01*
X888263Y787847D01*
X888283Y787867D01*
X888044Y788066D01*
X887845Y788285D01*
X887686Y788484D01*
X887547Y788682D01*
X887448Y788841D01*
X887368Y788961D01*
X887328Y789060D01*
X887308Y789080D01*
X887209Y789339D01*
X887129Y789617D01*
X887070Y789856D01*
X887010Y790094D01*
X886990Y790293D01*
X886970Y790452D01*
Y790552D01*
Y790592D01*
Y790850D01*
X887010Y791089D01*
X887109Y791526D01*
X887249Y791924D01*
X887388Y792262D01*
X887547Y792521D01*
X887686Y792720D01*
X887746Y792799D01*
X887786Y792859D01*
X887805Y792879D01*
X887825Y792899D01*
X888004Y793078D01*
X888203Y793237D01*
X888402Y793376D01*
X888601Y793495D01*
X889019Y793674D01*
X889436Y793813D01*
X889774Y793873D01*
X889933Y793893D01*
X890073Y793913D01*
X890172Y793933D01*
X893136D01*
X893235Y793893D01*
D02*
G37*
G36*
X1042533Y674452D02*
X1042632Y674432D01*
X1042771Y674352D01*
X1042871Y674293D01*
X1042891Y674253D01*
X1042990Y674094D01*
X1043050Y673955D01*
X1043070Y673855D01*
Y673815D01*
X1043030Y673636D01*
X1042970Y673497D01*
X1042911Y673398D01*
X1042871Y673358D01*
X1042791Y673278D01*
X1042732Y673239D01*
X1042572Y673159D01*
X1042453Y673139D01*
X1038237D01*
X1042572Y666238D01*
X1042712Y665920D01*
X1042831Y665621D01*
X1042911Y665343D01*
X1042950Y665104D01*
X1042990Y664886D01*
X1043010Y664726D01*
Y664627D01*
Y664587D01*
X1042990Y664329D01*
X1042970Y664070D01*
X1042831Y663593D01*
X1042672Y663155D01*
X1042473Y662797D01*
X1042254Y662499D01*
X1042175Y662380D01*
X1042095Y662280D01*
X1042016Y662201D01*
X1041956Y662141D01*
X1041936Y662121D01*
X1041916Y662101D01*
X1041697Y661922D01*
X1041479Y661743D01*
X1041260Y661604D01*
X1041041Y661485D01*
X1040584Y661306D01*
X1040166Y661186D01*
X1039808Y661107D01*
X1039649Y661087D01*
X1039510Y661067D01*
X1039410Y661047D01*
X1039251D01*
X1038993Y661067D01*
X1038734Y661107D01*
X1038635Y661147D01*
X1038555Y661167D01*
X1038515Y661186D01*
X1038495D01*
X1038217Y661286D01*
X1037959Y661405D01*
X1037859Y661445D01*
X1037779Y661485D01*
X1037740Y661505D01*
X1037720Y661525D01*
X1037441Y661703D01*
X1037183Y661902D01*
X1036984Y662101D01*
X1036805Y662280D01*
X1036646Y662439D01*
X1036546Y662579D01*
X1036487Y662658D01*
X1036467Y662698D01*
X1036407Y662857D01*
X1036367Y662976D01*
X1036348Y663056D01*
Y663076D01*
X1036367Y663175D01*
X1036387Y663275D01*
X1036467Y663414D01*
X1036526Y663513D01*
X1036566Y663553D01*
X1036725Y663652D01*
X1036885Y663712D01*
X1037004Y663732D01*
X1037044D01*
X1037342Y663672D01*
X1037461Y663593D01*
X1037541Y663513D01*
X1037581Y663454D01*
X1037600Y663434D01*
X1037839Y663116D01*
X1037978Y662976D01*
X1038098Y662857D01*
X1038217Y662777D01*
X1038297Y662718D01*
X1038356Y662678D01*
X1038376Y662658D01*
X1038555Y662559D01*
X1038734Y662499D01*
X1038893Y662439D01*
X1039052Y662420D01*
X1039172Y662400D01*
X1039271Y662380D01*
X1039351D01*
X1039709Y662400D01*
X1039868Y662439D01*
X1039987Y662459D01*
X1040106Y662499D01*
X1040186Y662539D01*
X1040246Y662559D01*
X1040266D01*
X1040564Y662718D01*
X1040783Y662857D01*
X1040882Y662937D01*
X1040942Y662976D01*
X1040982Y663016D01*
X1041001Y663036D01*
X1041220Y663275D01*
X1041399Y663533D01*
X1041518Y663792D01*
X1041598Y664010D01*
X1041638Y664229D01*
X1041677Y664388D01*
Y664488D01*
Y664508D01*
Y664528D01*
X1041658Y664707D01*
X1041638Y664886D01*
X1041598Y665065D01*
X1041558Y665204D01*
X1041499Y665343D01*
X1041459Y665443D01*
X1041439Y665522D01*
X1041419Y665542D01*
X1036467Y673438D01*
X1036367Y673636D01*
X1036328Y673795D01*
X1036308Y673895D01*
Y673935D01*
X1036348Y674114D01*
X1036427Y674253D01*
X1036546Y674333D01*
X1036686Y674412D01*
X1036805Y674452D01*
X1036924Y674472D01*
X1042413D01*
X1042533Y674452D01*
D02*
G37*
G36*
X1033165D02*
X1033265Y674432D01*
X1033404Y674352D01*
X1033503Y674293D01*
X1033523Y674253D01*
X1033623Y674094D01*
X1033682Y673955D01*
X1033702Y673855D01*
Y673815D01*
X1033663Y673636D01*
X1033603Y673497D01*
X1033543Y673398D01*
X1033503Y673358D01*
X1033424Y673278D01*
X1033344Y673239D01*
X1033205Y673159D01*
X1033086Y673139D01*
X1029665D01*
X1029486Y673119D01*
X1029327Y673099D01*
X1029188Y673080D01*
X1029168Y673060D01*
X1029148D01*
X1028989Y672960D01*
X1028850Y672861D01*
X1028750Y672781D01*
X1028710Y672761D01*
X1028591Y672602D01*
X1028492Y672443D01*
X1028432Y672284D01*
X1028372Y672125D01*
X1028353Y672006D01*
X1028333Y671906D01*
Y671827D01*
Y671807D01*
Y663732D01*
X1028353Y663533D01*
X1028372Y663374D01*
X1028392Y663255D01*
X1028412Y663235D01*
Y663215D01*
X1028492Y663036D01*
X1028591Y662897D01*
X1028671Y662817D01*
X1028710Y662777D01*
X1028869Y662638D01*
X1029029Y662539D01*
X1029188Y662479D01*
X1029347Y662420D01*
X1029466Y662400D01*
X1029566Y662380D01*
X1033026D01*
X1033146Y662360D01*
X1033245Y662340D01*
X1033404Y662260D01*
X1033503Y662201D01*
X1033523Y662161D01*
X1033623Y662002D01*
X1033682Y661863D01*
X1033702Y661763D01*
Y661723D01*
X1033663Y661544D01*
X1033603Y661405D01*
X1033543Y661306D01*
X1033503Y661266D01*
X1033424Y661186D01*
X1033364Y661147D01*
X1033205Y661067D01*
X1033086Y661047D01*
X1029685D01*
X1029287Y661087D01*
X1028909Y661167D01*
X1028591Y661306D01*
X1028313Y661445D01*
X1028074Y661584D01*
X1027915Y661723D01*
X1027815Y661803D01*
X1027776Y661843D01*
X1027517Y662141D01*
X1027318Y662459D01*
X1027199Y662777D01*
X1027100Y663076D01*
X1027040Y663334D01*
X1027020Y663553D01*
X1027000Y663633D01*
Y663672D01*
Y663712D01*
Y663732D01*
Y671787D01*
X1027040Y672185D01*
X1027119Y672562D01*
X1027259Y672881D01*
X1027398Y673159D01*
X1027537Y673398D01*
X1027676Y673557D01*
X1027756Y673656D01*
X1027796Y673696D01*
X1028114Y673955D01*
X1028432Y674154D01*
X1028750Y674273D01*
X1029048Y674372D01*
X1029307Y674432D01*
X1029506Y674452D01*
X1029585Y674472D01*
X1033046D01*
X1033165Y674452D01*
D02*
G37*
D10*
X957000Y718500D02*
Y736500D01*
X923000Y718500D02*
Y736500D01*
X957000D01*
X923000Y718500D02*
X957000D01*
X973000D02*
Y736500D01*
X1007000Y718500D02*
Y736500D01*
X973000Y718500D02*
X1007000D01*
X973000Y736500D02*
X1007000D01*
D13*
X589619Y3364D02*
G03*
X652989Y14468I-59619J526636D01*
G01*
X405904Y14733D02*
G03*
X469249Y3493I124096J515267D01*
G01*
X379837Y1038282D02*
G03*
X292837Y56024I150163J-508283D01*
G01*
X562736Y1058988D02*
G03*
X498401Y1059057I-32736J-528988D01*
G01*
X766144Y55515D02*
G03*
X681255Y1037959I-236144J474485D01*
G01*
X623179Y1000869D02*
G03*
X603487Y1004341I-93179J-470869D01*
G01*
X681255Y1037959D02*
G03*
X653082Y1023175I-6695J-21478D01*
G01*
X583024Y1035522D02*
G03*
X562742Y1059082I-21921J1639D01*
G01*
X623179Y1000869D02*
G03*
X651644Y1019502I4916J23549D01*
G01*
X583117Y1031583D02*
G03*
X603487Y1004341I23805J-3436D01*
G01*
X456513Y1004341D02*
G03*
X436821Y1000869I73487J-474341D01*
G01*
X498401Y1059057D02*
G03*
X476983Y1035530I1055J-22473D01*
G01*
X406927Y1023170D02*
G03*
X379810Y1038373I-21160J-5957D01*
G01*
X456513Y1004341D02*
G03*
X476889Y1031586I-3435J23810D01*
G01*
X408363Y1019501D02*
G03*
X436821Y1000869I23545J4913D01*
G01*
X356471Y82465D02*
G03*
X375261Y75626I173529J447535D01*
G01*
X292837Y56024D02*
G03*
X323149Y65690I10323J19989D01*
G01*
X389999Y41366D02*
G03*
X405882Y14641I21304J-5421D01*
G01*
X356471Y82465D02*
G03*
X325203Y69058I-8931J-22338D01*
G01*
X390591Y45261D02*
G03*
X375261Y75626I-22847J7517D01*
G01*
X684739Y75626D02*
G03*
X703529Y82465I-154739J454374D01*
G01*
X652989Y14468D02*
G03*
X669996Y41357I-4941J21948D01*
G01*
X736841Y65694D02*
G03*
X766186Y55430I19804J9541D01*
G01*
X684739Y75626D02*
G03*
X669404Y45257I7517J-22852D01*
G01*
X734790Y69058D02*
G03*
X703529Y82465I-22334J-8927D01*
G01*
X564789Y26814D02*
G03*
X539998Y50104I-24041J-750D01*
G01*
X520002Y50104D02*
G03*
X495205Y26811I-752J-24045D01*
G01*
X565565Y22951D02*
G03*
X589630Y3270I21873J2192D01*
G01*
X469249Y3493D02*
G03*
X494427Y22944I2864J22314D01*
G01*
X520002Y50104D02*
G03*
X539998Y50104I9998J479896D01*
G01*
X651644Y1019502D02*
X653082Y1023175D01*
X583024Y1035522D02*
X583117Y1031582D01*
X476889Y1031586D02*
X476983Y1035530D01*
X406927Y1023170D02*
X408363Y1019501D01*
X323149Y65690D02*
X325203Y69058D01*
X389999Y41366D02*
X390591Y45261D01*
X669404Y45257D02*
X669996Y41357D01*
X734790Y69058D02*
X736841Y65694D01*
X564789Y26814D02*
X565565Y22951D01*
X494427Y22944D02*
X495205Y26811D01*
M02*
