G04*
G04 #@! TF.GenerationSoftware,Altium Limited,Altium Designer,24.6.1 (21)*
G04*
G04 Layer_Physical_Order=1*
G04 Layer_Color=255*
%FSLAX44Y44*%
%MOMM*%
G71*
G04*
G04 #@! TF.SameCoordinates,B0C6F459-AFBE-4FB2-BAD8-FBBEB889AAAA*
G04*
G04*
G04 #@! TF.FilePolarity,Positive*
G04*
G01*
G75*
%ADD15R,1.4500X0.6000*%
%ADD16O,1.4500X0.6000*%
G04:AMPARAMS|DCode=17|XSize=1mm|YSize=0.35mm|CornerRadius=0.0438mm|HoleSize=0mm|Usage=FLASHONLY|Rotation=0.000|XOffset=0mm|YOffset=0mm|HoleType=Round|Shape=RoundedRectangle|*
%AMROUNDEDRECTD17*
21,1,1.0000,0.2625,0,0,0.0*
21,1,0.9125,0.3500,0,0,0.0*
1,1,0.0875,0.4563,-0.1313*
1,1,0.0875,-0.4563,-0.1313*
1,1,0.0875,-0.4563,0.1313*
1,1,0.0875,0.4563,0.1313*
%
%ADD17ROUNDEDRECTD17*%
%ADD18R,2.5400X1.2700*%
%ADD19R,1.6500X3.4300*%
%ADD20R,0.9500X0.8000*%
%ADD21R,2.2500X2.1000*%
%ADD22R,1.5000X1.4000*%
%ADD23R,1.4000X1.5000*%
%ADD24R,0.8000X0.9500*%
%ADD25R,0.6100X1.4200*%
%ADD46R,3.9100X3.7500*%
%ADD47C,0.3500*%
%ADD48C,1.8000*%
%ADD49R,1.5300X1.5300*%
%ADD50C,1.5300*%
%ADD51R,4.8000X4.8000*%
%ADD52C,4.8000*%
%ADD53R,8.0000X8.0000*%
%ADD54C,8.0000*%
%ADD55C,1.0000*%
G36*
X508826Y1052026D02*
X508367Y1051633D01*
X505249Y1047983D01*
X502740Y1043889D01*
X500903Y1039454D01*
X499782Y1034786D01*
X499406Y1030000D01*
X499782Y1025214D01*
X500903Y1020546D01*
X502740Y1016111D01*
X505249Y1012017D01*
X508367Y1008367D01*
X512017Y1005249D01*
X516110Y1002740D01*
X520546Y1000903D01*
X525214Y999782D01*
X530000Y999406D01*
X534786Y999782D01*
X539454Y1000903D01*
X543890Y1002740D01*
X547983Y1005249D01*
X551633Y1008367D01*
X554751Y1012017D01*
X557260Y1016111D01*
X559097Y1020546D01*
X560218Y1025214D01*
X560594Y1030000D01*
X560218Y1034786D01*
X559097Y1039454D01*
X557260Y1043889D01*
X554751Y1047983D01*
X551633Y1051633D01*
X551188Y1052014D01*
X552527Y1055473D01*
X554514Y1055411D01*
X562484Y1054918D01*
X562547Y1054926D01*
X562609Y1054912D01*
X564283Y1054860D01*
X567594Y1053940D01*
X570743Y1052351D01*
X573521Y1050178D01*
X575822Y1047505D01*
X577557Y1044435D01*
X578660Y1041085D01*
X579088Y1037584D01*
X578957Y1035826D01*
X578981Y1035624D01*
X578946Y1035425D01*
X579035Y1031726D01*
X578835Y1029616D01*
X578866Y1029316D01*
X578823Y1029017D01*
X579072Y1024308D01*
X579172Y1023919D01*
X579193Y1023518D01*
X580356Y1018949D01*
X580530Y1018586D01*
X580629Y1018197D01*
X582662Y1013942D01*
X582902Y1013621D01*
X583075Y1013258D01*
X585899Y1009482D01*
X586198Y1009214D01*
X586438Y1008892D01*
X589944Y1005739D01*
X590289Y1005534D01*
X590588Y1005266D01*
X594642Y1002858D01*
X595020Y1002724D01*
X595366Y1002518D01*
X599811Y1000947D01*
X600111Y1000904D01*
X600390Y1000790D01*
X602707Y1000338D01*
X602787Y1000339D01*
X602863Y1000311D01*
X605311Y999932D01*
X610202Y999122D01*
X615084Y998261D01*
X619956Y997350D01*
X622387Y996868D01*
X622467Y996869D01*
X622543Y996841D01*
X624874Y996472D01*
X625176Y996484D01*
X625472Y996423D01*
X630188Y996378D01*
X630583Y996453D01*
X630984Y996449D01*
X635618Y997325D01*
X635991Y997475D01*
X636385Y997550D01*
X640759Y999313D01*
X641095Y999533D01*
X641468Y999684D01*
X645414Y1002266D01*
X645700Y1002548D01*
X646036Y1002768D01*
X649402Y1006071D01*
X649629Y1006403D01*
X649915Y1006684D01*
X652572Y1010580D01*
X652730Y1010950D01*
X652956Y1011282D01*
X654802Y1015621D01*
X654864Y1015917D01*
X654995Y1016189D01*
X655530Y1018240D01*
X656880Y1021689D01*
X656905Y1021833D01*
X656975Y1021962D01*
X657515Y1023694D01*
X659250Y1026880D01*
X661573Y1029667D01*
X664395Y1031948D01*
X667608Y1033633D01*
X671088Y1034660D01*
X674701Y1034988D01*
X678309Y1034605D01*
X680041Y1034065D01*
X680068Y1034062D01*
X680091Y1034050D01*
X690850Y1030846D01*
X712076Y1023526D01*
X732970Y1015307D01*
X753495Y1006204D01*
X773612Y996232D01*
X793285Y985413D01*
X812479Y973763D01*
X831158Y961304D01*
X849289Y948060D01*
X866838Y934054D01*
X883773Y919313D01*
X900064Y903862D01*
X915680Y887729D01*
X930594Y870946D01*
X944778Y853541D01*
X958207Y835546D01*
X970855Y816995D01*
X982700Y797922D01*
X993721Y778359D01*
X1003897Y758345D01*
X1013209Y737915D01*
X1019353Y722753D01*
X1017397Y719850D01*
X990800D01*
Y700150D01*
X1006938D01*
X1009142Y696650D01*
X1009000Y696119D01*
Y693881D01*
X1009579Y691719D01*
X1010698Y689781D01*
X1012281Y688198D01*
X1014219Y687079D01*
X1016381Y686500D01*
X1018619D01*
X1020781Y687079D01*
X1022719Y688198D01*
X1024302Y689781D01*
X1025421Y691719D01*
X1026000Y693881D01*
Y694384D01*
X1029500Y694913D01*
X1034627Y678316D01*
X1032549Y675500D01*
X1014000D01*
Y672189D01*
X1013250Y669000D01*
X996750D01*
Y654000D01*
Y641000D01*
X996398Y640274D01*
X995208Y640145D01*
X991751Y643218D01*
Y649499D01*
X981751D01*
Y628849D01*
Y608199D01*
X991751D01*
Y619752D01*
X993453Y621086D01*
X995251Y621937D01*
X996881Y621500D01*
X999119D01*
X1001281Y622079D01*
X1003219Y623198D01*
X1004802Y624781D01*
X1008046Y624236D01*
X1010208Y623657D01*
X1012446D01*
X1014607Y624236D01*
X1016546Y625355D01*
X1018128Y626938D01*
X1019247Y628876D01*
X1019827Y631038D01*
Y633276D01*
X1020766Y634500D01*
X1023250D01*
Y645000D01*
X1025000D01*
Y646750D01*
X1036000D01*
Y654500D01*
Y660101D01*
X1039471Y660549D01*
X1041510Y652788D01*
X1046284Y630848D01*
X1050117Y608725D01*
X1053003Y586459D01*
X1054936Y564089D01*
X1055912Y541658D01*
X1055931Y519205D01*
X1054991Y496772D01*
X1053095Y474400D01*
X1050246Y452129D01*
X1046701Y431467D01*
X1043201Y431765D01*
X1043201Y433413D01*
X1043201Y433413D01*
X1043201Y433525D01*
Y438249D01*
X1028751D01*
Y430149D01*
X1040321D01*
X1042901Y430149D01*
X1046243Y429043D01*
X1044234Y419739D01*
X1043201Y419849D01*
Y419849D01*
X1028751D01*
Y409999D01*
Y400149D01*
X1036786D01*
X1038926Y397379D01*
X1036041Y386327D01*
X1029450Y364864D01*
X1021948Y343702D01*
X1013550Y322879D01*
X1004271Y302433D01*
X996001Y286101D01*
X992298Y286535D01*
X991597Y289454D01*
X989760Y293890D01*
X987251Y297983D01*
X984133Y301633D01*
X980483Y304751D01*
X976389Y307260D01*
X971954Y309097D01*
X967286Y310218D01*
X962500Y310594D01*
X957714Y310218D01*
X953046Y309097D01*
X948611Y307260D01*
X944517Y304751D01*
X940867Y301633D01*
X937749Y297983D01*
X935240Y293890D01*
X933403Y289454D01*
X932282Y284786D01*
X931906Y280000D01*
X932282Y275214D01*
X933403Y270546D01*
X935240Y266110D01*
X937749Y262017D01*
X940867Y258367D01*
X944517Y255249D01*
X948611Y252740D01*
X953046Y250903D01*
X957714Y249782D01*
X962500Y249406D01*
X967286Y249782D01*
X971596Y250817D01*
X972445Y250164D01*
X973926Y247932D01*
X971326Y243729D01*
X958708Y225157D01*
X945309Y207141D01*
X931153Y189713D01*
X916267Y172904D01*
X900677Y156747D01*
X884412Y141269D01*
X867501Y126499D01*
X849975Y112465D01*
X831866Y99191D01*
X813208Y86702D01*
X794033Y75020D01*
X774377Y64168D01*
X764327Y59166D01*
X764276Y59127D01*
X764215Y59108D01*
X762740Y58317D01*
X759412Y57458D01*
X755891Y57259D01*
X752399Y57752D01*
X749070Y58916D01*
X746032Y60708D01*
X743402Y63057D01*
X741280Y65875D01*
X740515Y67464D01*
X740393Y67626D01*
X740323Y67816D01*
X738398Y70975D01*
X737516Y72902D01*
X737339Y73147D01*
X737227Y73428D01*
X734656Y77380D01*
X734376Y77668D01*
X734156Y78005D01*
X730864Y81380D01*
X730533Y81607D01*
X730253Y81895D01*
X726365Y84563D01*
X725996Y84721D01*
X725665Y84948D01*
X721331Y86807D01*
X720938Y86890D01*
X720569Y87048D01*
X715957Y88026D01*
X715555Y88031D01*
X715162Y88114D01*
X710447Y88173D01*
X710052Y88099D01*
X709651Y88104D01*
X705015Y87242D01*
X704734Y87129D01*
X704435Y87089D01*
X702203Y86321D01*
X702134Y86281D01*
X702055Y86267D01*
X699744Y85372D01*
X695104Y83628D01*
X690444Y81931D01*
X685771Y80286D01*
X683425Y79486D01*
X683355Y79446D01*
X683276Y79433D01*
X681072Y78586D01*
X680817Y78425D01*
X680530Y78330D01*
X676424Y76011D01*
X676119Y75749D01*
X675769Y75551D01*
X672195Y72476D01*
X671947Y72159D01*
X671643Y71897D01*
X668736Y68183D01*
X668555Y67825D01*
X668308Y67508D01*
X666182Y63299D01*
X666075Y62912D01*
X665893Y62553D01*
X664630Y58010D01*
X664600Y57609D01*
X664492Y57222D01*
X664139Y52519D01*
X664188Y52120D01*
X664158Y51720D01*
X664729Y47039D01*
X664824Y46752D01*
X664846Y46450D01*
X665408Y44407D01*
X665964Y40745D01*
X666013Y40607D01*
X666017Y40461D01*
X666415Y38691D01*
X666507Y35064D01*
X665888Y31489D01*
X664584Y28103D01*
X662645Y25037D01*
X660144Y22408D01*
X657179Y20317D01*
X653863Y18844D01*
X652093Y18446D01*
X652069Y18435D01*
X652042Y18434D01*
X644275Y16581D01*
X628635Y13349D01*
X612903Y10592D01*
X597095Y8314D01*
X589160Y7416D01*
X589100Y7397D01*
X589036Y7400D01*
X587379Y7161D01*
X583958Y7492D01*
X580581Y8510D01*
X577468Y10167D01*
X574738Y12400D01*
X572496Y15122D01*
X570828Y18230D01*
X569799Y21603D01*
X569623Y23358D01*
X569563Y23551D01*
X569563Y23754D01*
X568834Y27381D01*
X568664Y29494D01*
X568582Y29785D01*
X568572Y30087D01*
X567509Y34680D01*
X567343Y35046D01*
X567253Y35438D01*
X565313Y39735D01*
X565080Y40062D01*
X564915Y40428D01*
X562174Y44265D01*
X561881Y44540D01*
X561648Y44867D01*
X558212Y48095D01*
X557871Y48308D01*
X557578Y48583D01*
X553578Y51079D01*
X553202Y51221D01*
X552861Y51434D01*
X548451Y53101D01*
X548055Y53167D01*
X547679Y53309D01*
X543028Y54085D01*
X542726Y54075D01*
X542431Y54139D01*
X540071Y54182D01*
X539992Y54167D01*
X539913Y54181D01*
X537435Y54130D01*
X532479Y54078D01*
X527521D01*
X522565Y54130D01*
X520087Y54181D01*
X520008Y54167D01*
X519929Y54182D01*
X517569Y54140D01*
X517274Y54075D01*
X516972Y54085D01*
X512320Y53310D01*
X511944Y53168D01*
X511548Y53102D01*
X507136Y51434D01*
X506796Y51222D01*
X506420Y51080D01*
X502419Y48583D01*
X502126Y48308D01*
X501785Y48096D01*
X498348Y44867D01*
X498115Y44540D01*
X497822Y44265D01*
X495080Y40428D01*
X494915Y40062D01*
X494682Y39735D01*
X492742Y35436D01*
X492651Y35045D01*
X492486Y34679D01*
X491422Y30085D01*
X491412Y29783D01*
X491329Y29492D01*
X491159Y27379D01*
X490429Y23749D01*
X490429Y23602D01*
X490382Y23463D01*
X490151Y21664D01*
X488996Y18224D01*
X487192Y15076D01*
X484809Y12341D01*
X481938Y10122D01*
X478689Y8507D01*
X475187Y7556D01*
X471568Y7307D01*
X469768Y7538D01*
X469742Y7537D01*
X469717Y7545D01*
X461783Y8460D01*
X445981Y10771D01*
X430255Y13562D01*
X414622Y16828D01*
X406858Y18698D01*
X406795Y18700D01*
X406736Y18725D01*
X405097Y19067D01*
X401996Y20548D01*
X399171Y22660D01*
X396812Y25282D01*
X395010Y28314D01*
X393835Y31639D01*
X393330Y35129D01*
X393516Y38651D01*
X393951Y40360D01*
X393962Y40563D01*
X394031Y40753D01*
X394587Y44411D01*
X395149Y46454D01*
X395171Y46755D01*
X395266Y47043D01*
X395837Y51723D01*
X395807Y52123D01*
X395856Y52522D01*
X395504Y57224D01*
X395396Y57611D01*
X395366Y58011D01*
X394103Y62554D01*
X393922Y62913D01*
X393814Y63300D01*
X391689Y67509D01*
X391442Y67825D01*
X391261Y68184D01*
X388355Y71897D01*
X388051Y72159D01*
X387803Y72476D01*
X384229Y75551D01*
X383880Y75749D01*
X383575Y76011D01*
X379470Y78330D01*
X379183Y78424D01*
X378927Y78586D01*
X376724Y79433D01*
X376645Y79446D01*
X376576Y79486D01*
X374229Y80285D01*
X369556Y81932D01*
X364896Y83628D01*
X360255Y85372D01*
X357945Y86267D01*
X357867Y86281D01*
X357797Y86321D01*
X355565Y87089D01*
X355265Y87130D01*
X354985Y87242D01*
X350348Y88105D01*
X349947Y88100D01*
X349552Y88173D01*
X344836Y88115D01*
X344443Y88032D01*
X344042Y88027D01*
X339428Y87050D01*
X339059Y86891D01*
X338666Y86808D01*
X334332Y84950D01*
X334000Y84722D01*
X333631Y84564D01*
X329743Y81896D01*
X329462Y81608D01*
X329131Y81381D01*
X325838Y78005D01*
X325619Y77669D01*
X325338Y77381D01*
X322767Y73428D01*
X322655Y73147D01*
X322478Y72902D01*
X321595Y70975D01*
X319667Y67813D01*
X319617Y67676D01*
X319526Y67561D01*
X318693Y65949D01*
X316431Y63112D01*
X313659Y60771D01*
X310484Y59015D01*
X307028Y57913D01*
X303422Y57506D01*
X299807Y57811D01*
X296320Y58815D01*
X294708Y59647D01*
X294683Y59654D01*
X294662Y59671D01*
X284622Y64694D01*
X264990Y75589D01*
X245840Y87311D01*
X227209Y99841D01*
X209128Y113153D01*
X191633Y127225D01*
X174753Y142031D01*
X158522Y157544D01*
X148273Y168211D01*
X149645Y171431D01*
X208000D01*
Y161750D01*
X222750D01*
Y160000D01*
X224500D01*
Y146000D01*
X237500D01*
Y146000D01*
X241000Y146998D01*
X242500Y146000D01*
Y146000D01*
X245184Y144030D01*
X261737Y127477D01*
X262895Y126703D01*
X264261Y126431D01*
X367500Y126431D01*
X368866Y126703D01*
X370023Y127477D01*
X379714Y137168D01*
X380546Y137614D01*
X382842Y138217D01*
X384219Y137936D01*
X385996Y136910D01*
X388832Y136150D01*
X391768D01*
X394604Y136910D01*
X397146Y138378D01*
X399222Y140454D01*
X400690Y142996D01*
X401188Y144855D01*
X404812D01*
X405310Y142996D01*
X406778Y140454D01*
X408854Y138378D01*
X411396Y136910D01*
X413950Y136226D01*
Y147300D01*
X417450D01*
Y136226D01*
X420004Y136910D01*
X422546Y138378D01*
X424622Y140454D01*
X426090Y142996D01*
X426588Y144855D01*
X430212D01*
X430710Y142996D01*
X432178Y140454D01*
X434254Y138378D01*
X436796Y136910D01*
X439350Y136226D01*
Y147300D01*
X442850D01*
Y136226D01*
X445404Y136910D01*
X447946Y138378D01*
X450022Y140454D01*
X451490Y142996D01*
X451988Y144855D01*
X455612D01*
X456110Y142996D01*
X457578Y140454D01*
X459654Y138378D01*
X462196Y136910D01*
X464750Y136226D01*
Y147300D01*
X468250D01*
Y136226D01*
X470804Y136910D01*
X473346Y138378D01*
X475422Y140454D01*
X476890Y142996D01*
X477388Y144855D01*
X481012D01*
X481510Y142996D01*
X482978Y140454D01*
X485054Y138378D01*
X487596Y136910D01*
X490150Y136226D01*
Y147300D01*
X493650D01*
Y136226D01*
X496204Y136910D01*
X498746Y138378D01*
X500822Y140454D01*
X502290Y142996D01*
X502788Y144855D01*
X506412D01*
X506910Y142996D01*
X508378Y140454D01*
X510454Y138378D01*
X512996Y136910D01*
X515550Y136226D01*
Y147300D01*
X519050D01*
Y136226D01*
X521604Y136910D01*
X524146Y138378D01*
X526222Y140454D01*
X527690Y142996D01*
X528188Y144855D01*
X531812D01*
X532310Y142996D01*
X533778Y140454D01*
X535854Y138378D01*
X538396Y136910D01*
X540950Y136226D01*
Y147300D01*
X544450D01*
Y136226D01*
X547004Y136910D01*
X549546Y138378D01*
X551622Y140454D01*
X553090Y142996D01*
X553588Y144855D01*
X557212D01*
X557710Y142996D01*
X559178Y140454D01*
X561254Y138378D01*
X563796Y136910D01*
X566350Y136226D01*
Y147300D01*
X569850D01*
Y136226D01*
X572404Y136910D01*
X574946Y138378D01*
X577022Y140454D01*
X578490Y142996D01*
X578988Y144855D01*
X582612D01*
X583110Y142996D01*
X584578Y140454D01*
X586654Y138378D01*
X589196Y136910D01*
X591750Y136226D01*
Y147300D01*
X595250D01*
Y136226D01*
X597804Y136910D01*
X600346Y138378D01*
X602422Y140454D01*
X603890Y142996D01*
X604388Y144855D01*
X608012D01*
X608510Y142996D01*
X609978Y140454D01*
X612054Y138378D01*
X614596Y136910D01*
X617150Y136226D01*
Y147300D01*
X620650D01*
Y136226D01*
X623204Y136910D01*
X625746Y138378D01*
X627822Y140454D01*
X629290Y142996D01*
X629788Y144855D01*
X633412D01*
X633910Y142996D01*
X635378Y140454D01*
X637454Y138378D01*
X639996Y136910D01*
X642832Y136150D01*
X645768D01*
X647434Y136596D01*
X672815Y111215D01*
X674552Y110055D01*
X676600Y109647D01*
X835000D01*
X837048Y110055D01*
X838785Y111215D01*
X923785Y196215D01*
X924945Y197952D01*
X925353Y200000D01*
Y327783D01*
X964751Y367181D01*
X968251Y365731D01*
Y350499D01*
X978251D01*
Y371149D01*
Y391799D01*
X969353D01*
Y458199D01*
X978251D01*
Y478849D01*
X980001D01*
Y480599D01*
X991751D01*
Y499499D01*
X991751D01*
Y500499D01*
X991751D01*
Y519399D01*
X980001D01*
Y521149D01*
X978251D01*
Y541799D01*
X969353D01*
Y576000D01*
X968945Y578049D01*
X967785Y579785D01*
X953786Y593784D01*
X952049Y594944D01*
X950001Y595352D01*
X949201D01*
Y599849D01*
X916801D01*
Y582369D01*
X913301Y580919D01*
X910353Y583867D01*
Y601268D01*
X911000Y604500D01*
X920250D01*
Y615000D01*
X922000D01*
Y616750D01*
X933000D01*
Y624500D01*
Y645500D01*
X911000D01*
Y639000D01*
X895750D01*
Y632897D01*
X894104Y631967D01*
X892250Y631628D01*
X890375Y633503D01*
X889158Y634205D01*
X889158Y638195D01*
X890375Y638898D01*
X892702Y641225D01*
X894348Y644075D01*
X895200Y647254D01*
Y650546D01*
X894348Y653725D01*
X892702Y656575D01*
X890375Y658903D01*
X889157Y659606D01*
X889157Y663595D01*
X890375Y664298D01*
X892702Y666625D01*
X894348Y669475D01*
X895172Y672550D01*
X882700D01*
Y676050D01*
X895172D01*
X894348Y679125D01*
X892702Y681975D01*
X890375Y684303D01*
X889158Y685006D01*
Y688995D01*
X890375Y689698D01*
X892702Y692025D01*
X894348Y694876D01*
X895021Y697387D01*
X895726Y698482D01*
X897781Y700150D01*
X898700Y700150D01*
X911250D01*
Y710000D01*
Y719850D01*
X897858D01*
X894969Y722591D01*
X895172Y723350D01*
X882700D01*
Y726850D01*
X895172D01*
X894348Y729925D01*
X892702Y732775D01*
X890375Y735102D01*
X889157Y735805D01*
X889158Y739795D01*
X890375Y740498D01*
X892703Y742825D01*
X894348Y745675D01*
X895172Y748750D01*
X882700D01*
Y752250D01*
X895172D01*
X894348Y755325D01*
X892703Y758175D01*
X890375Y760502D01*
X889158Y761205D01*
X889158Y765195D01*
X890375Y765898D01*
X892702Y768225D01*
X894348Y771075D01*
X895172Y774150D01*
X882700D01*
Y777650D01*
X895172D01*
X894348Y780725D01*
X892702Y783575D01*
X890375Y785902D01*
X889158Y786605D01*
X889158Y790595D01*
X890375Y791297D01*
X892702Y793625D01*
X894348Y796475D01*
X895200Y799654D01*
Y802945D01*
X894348Y806125D01*
X892702Y808975D01*
X890375Y811302D01*
X887525Y812948D01*
X884346Y813800D01*
X881054D01*
X877875Y812948D01*
X875025Y811302D01*
X872697Y808975D01*
X871995Y807758D01*
X868005Y807758D01*
X867303Y808975D01*
X864975Y811302D01*
X862125Y812948D01*
X858946Y813800D01*
X855655D01*
X852475Y812948D01*
X849625Y811302D01*
X847298Y808975D01*
X845652Y806125D01*
X844800Y802946D01*
Y799654D01*
X845652Y796475D01*
X847298Y793625D01*
X849625Y791298D01*
X850842Y790595D01*
X850842Y786606D01*
X849624Y785903D01*
X847297Y783575D01*
X845652Y780725D01*
X844828Y777650D01*
X857300D01*
Y774150D01*
X844828D01*
X845652Y771075D01*
X847297Y768225D01*
X849624Y765898D01*
X850842Y765195D01*
X850842Y761205D01*
X849625Y760502D01*
X847298Y758175D01*
X845652Y755325D01*
X844828Y752250D01*
X857300D01*
Y748750D01*
X844828D01*
X845652Y745675D01*
X847298Y742825D01*
X849625Y740498D01*
X850842Y739795D01*
X850842Y735805D01*
X849625Y735103D01*
X847298Y732775D01*
X845652Y729925D01*
X844828Y726850D01*
X857300D01*
Y723350D01*
X844828D01*
X845652Y720275D01*
X847298Y717425D01*
X849625Y715098D01*
X850843Y714395D01*
Y710406D01*
X849625Y709703D01*
X847298Y707375D01*
X845652Y704525D01*
X844828Y701450D01*
X857300D01*
Y697950D01*
X844828D01*
X845652Y694875D01*
X847298Y692025D01*
X849625Y689698D01*
X850842Y688995D01*
X850842Y685005D01*
X849625Y684303D01*
X847298Y681975D01*
X845652Y679125D01*
X844828Y676050D01*
X857300D01*
Y672550D01*
X844828D01*
X845652Y669475D01*
X847298Y666625D01*
X849625Y664298D01*
X850843Y663595D01*
X850843Y659605D01*
X849625Y658902D01*
X847298Y656575D01*
X845652Y653725D01*
X844800Y650546D01*
Y647254D01*
X845652Y644075D01*
X847298Y641225D01*
X849625Y638897D01*
X850842Y638195D01*
X850842Y634205D01*
X849625Y633502D01*
X847298Y631175D01*
X845652Y628325D01*
X844800Y625146D01*
Y621854D01*
X845652Y618675D01*
X847298Y615825D01*
X849625Y613498D01*
X850842Y612795D01*
X850842Y608805D01*
X849625Y608102D01*
X847297Y605775D01*
X845652Y602925D01*
X844828Y599850D01*
X857300D01*
Y596350D01*
X844828D01*
X845652Y593275D01*
X847297Y590425D01*
X849625Y588097D01*
X850842Y587394D01*
X850843Y583405D01*
X849625Y582702D01*
X847298Y580375D01*
X845652Y577525D01*
X844800Y574346D01*
Y571054D01*
X845652Y567875D01*
X847298Y565025D01*
X849625Y562697D01*
X850842Y561995D01*
X850842Y558005D01*
X849625Y557303D01*
X847297Y554975D01*
X845652Y552125D01*
X844800Y548946D01*
Y545654D01*
X845652Y542475D01*
X847297Y539625D01*
X849625Y537298D01*
X850842Y536595D01*
X850842Y532605D01*
X849625Y531903D01*
X847298Y529575D01*
X845652Y526725D01*
X844828Y523650D01*
X857300D01*
Y520150D01*
X844828D01*
X845652Y517075D01*
X847298Y514225D01*
X849625Y511898D01*
X850843Y511194D01*
X850843Y507205D01*
X849625Y506502D01*
X847298Y504175D01*
X845652Y501325D01*
X844828Y498250D01*
X857300D01*
Y494750D01*
X844828D01*
X845652Y491675D01*
X847298Y488825D01*
X849625Y486497D01*
X850842Y485795D01*
X850842Y481805D01*
X849625Y481102D01*
X847297Y478775D01*
X845652Y475925D01*
X844800Y472746D01*
Y469454D01*
X845652Y466275D01*
X847297Y463425D01*
X849625Y461098D01*
X850842Y460395D01*
X850843Y456405D01*
X849625Y455702D01*
X847297Y453375D01*
X845652Y450525D01*
X844800Y447346D01*
Y444054D01*
X845652Y440875D01*
X847297Y438025D01*
X849625Y435697D01*
X850842Y434995D01*
X850842Y431005D01*
X849625Y430303D01*
X847298Y427975D01*
X845652Y425125D01*
X844800Y421946D01*
Y418654D01*
X845652Y415475D01*
X847298Y412625D01*
X846213Y408760D01*
X842477Y405023D01*
X841703Y403866D01*
X841431Y402500D01*
Y337500D01*
X841703Y336134D01*
X842477Y334977D01*
X847477Y329977D01*
X847299Y326404D01*
X847228Y326254D01*
X845652Y323525D01*
X844800Y320346D01*
Y317054D01*
X845652Y313875D01*
X847298Y311025D01*
X849625Y308698D01*
X852475Y307052D01*
X855655Y306200D01*
X858946D01*
X862125Y307052D01*
X864975Y308698D01*
X866364Y310086D01*
X867477Y309977D01*
X874977Y302477D01*
X876134Y301703D01*
X877500Y301431D01*
X887500D01*
X888866Y301703D01*
X890023Y302477D01*
X890023Y302477D01*
X897523Y309977D01*
X898297Y311134D01*
X898569Y312500D01*
Y386022D01*
X906478Y393931D01*
X947500D01*
X949647Y390836D01*
Y384717D01*
X906215Y341285D01*
X905055Y339548D01*
X904647Y337500D01*
Y207217D01*
X851500Y154070D01*
X848000Y155520D01*
Y160750D01*
X839250D01*
Y151500D01*
X843980D01*
X845430Y148000D01*
X830283Y132853D01*
X773986D01*
X773525Y136353D01*
X775604Y136910D01*
X778146Y138378D01*
X780222Y140454D01*
X781690Y142996D01*
X782450Y145832D01*
Y148768D01*
X782426Y148856D01*
X787820Y154250D01*
X807000D01*
Y151500D01*
X835750D01*
Y162500D01*
Y173500D01*
X807000D01*
Y170750D01*
X782820D01*
X782450Y171232D01*
Y174168D01*
X781690Y177004D01*
X780366Y179296D01*
X787820Y186750D01*
X807000D01*
Y184000D01*
X835750D01*
Y195000D01*
Y206000D01*
X807000D01*
Y203250D01*
X781000D01*
Y195070D01*
X769761Y183831D01*
X766996Y183090D01*
X764454Y181622D01*
X762378Y179546D01*
X760910Y177004D01*
X760412Y175145D01*
X756788D01*
X756290Y177004D01*
X754822Y179546D01*
X752746Y181622D01*
X750204Y183090D01*
X747368Y183850D01*
X744432D01*
X741596Y183090D01*
X739054Y181622D01*
X736978Y179546D01*
X735510Y177004D01*
X735012Y175145D01*
X731388D01*
X730890Y177004D01*
X729422Y179546D01*
X727346Y181622D01*
X724804Y183090D01*
X721968Y183850D01*
X719032D01*
X716196Y183090D01*
X713654Y181622D01*
X711578Y179546D01*
X710110Y177004D01*
X709612Y175145D01*
X705988D01*
X705490Y177004D01*
X704022Y179546D01*
X701946Y181622D01*
X699404Y183090D01*
X696568Y183850D01*
X693632D01*
X690796Y183090D01*
X688254Y181622D01*
X686178Y179546D01*
X684710Y177004D01*
X684212Y175145D01*
X680588D01*
X680090Y177004D01*
X678622Y179546D01*
X676546Y181622D01*
X674004Y183090D01*
X671450Y183774D01*
Y172700D01*
X667950D01*
Y183774D01*
X665396Y183090D01*
X662854Y181622D01*
X660778Y179546D01*
X659310Y177004D01*
X658812Y175145D01*
X655188D01*
X654690Y177004D01*
X653222Y179546D01*
X651146Y181622D01*
X648604Y183090D01*
X645768Y183850D01*
X642832D01*
X639996Y183090D01*
X637454Y181622D01*
X635378Y179546D01*
X633910Y177004D01*
X633412Y175145D01*
X629788D01*
X629290Y177004D01*
X627822Y179546D01*
X625746Y181622D01*
X623204Y183090D01*
X620368Y183850D01*
X617432D01*
X614596Y183090D01*
X612054Y181622D01*
X609978Y179546D01*
X608510Y177004D01*
X608012Y175145D01*
X604388D01*
X603890Y177004D01*
X602422Y179546D01*
X600346Y181622D01*
X597804Y183090D01*
X594968Y183850D01*
X592032D01*
X589196Y183090D01*
X586654Y181622D01*
X584578Y179546D01*
X583110Y177004D01*
X582612Y175145D01*
X578988D01*
X578490Y177004D01*
X577022Y179546D01*
X574946Y181622D01*
X572404Y183090D01*
X569568Y183850D01*
X566632D01*
X563796Y183090D01*
X561254Y181622D01*
X559178Y179546D01*
X557710Y177004D01*
X557212Y175145D01*
X553588D01*
X553090Y177004D01*
X551622Y179546D01*
X549546Y181622D01*
X547004Y183090D01*
X544168Y183850D01*
X541232D01*
X538396Y183090D01*
X535854Y181622D01*
X533778Y179546D01*
X532310Y177004D01*
X531812Y175145D01*
X528188D01*
X527690Y177004D01*
X526222Y179546D01*
X524146Y181622D01*
X521604Y183090D01*
X518768Y183850D01*
X515832D01*
X512996Y183090D01*
X510454Y181622D01*
X508378Y179546D01*
X506910Y177004D01*
X506412Y175145D01*
X502788D01*
X502290Y177004D01*
X500822Y179546D01*
X498746Y181622D01*
X496204Y183090D01*
X493368Y183850D01*
X490432D01*
X487596Y183090D01*
X485054Y181622D01*
X482978Y179546D01*
X481510Y177004D01*
X481012Y175145D01*
X477388D01*
X476890Y177004D01*
X475422Y179546D01*
X473346Y181622D01*
X470804Y183090D01*
X467968Y183850D01*
X465032D01*
X462196Y183090D01*
X459654Y181622D01*
X457578Y179546D01*
X456110Y177004D01*
X455612Y175145D01*
X451988D01*
X451490Y177004D01*
X450022Y179546D01*
X447946Y181622D01*
X445404Y183090D01*
X442568Y183850D01*
X439632D01*
X436796Y183090D01*
X434254Y181622D01*
X432178Y179546D01*
X430710Y177004D01*
X430212Y175145D01*
X426588D01*
X426090Y177004D01*
X424622Y179546D01*
X422546Y181622D01*
X420004Y183090D01*
X417168Y183850D01*
X414232D01*
X411396Y183090D01*
X408854Y181622D01*
X406778Y179546D01*
X405310Y177004D01*
X404812Y175145D01*
X401188D01*
X400690Y177004D01*
X399222Y179546D01*
X397146Y181622D01*
X394604Y183090D01*
X391768Y183850D01*
X388832D01*
X385996Y183090D01*
X384569Y182266D01*
X381577Y183599D01*
X381069Y184134D01*
Y187500D01*
X380797Y188866D01*
X380023Y190023D01*
X375023Y195023D01*
X373866Y195797D01*
X372500Y196069D01*
X286478D01*
X260023Y222523D01*
X258866Y223297D01*
X257500Y223569D01*
X221405D01*
X220114Y227069D01*
X221633Y228367D01*
X224751Y232017D01*
X227260Y236110D01*
X229097Y240546D01*
X230218Y245214D01*
X230594Y250000D01*
X230218Y254786D01*
X229097Y259454D01*
X227260Y263890D01*
X224751Y267983D01*
X221633Y271633D01*
X217983Y274751D01*
X213890Y277260D01*
X209454Y279097D01*
X204786Y280218D01*
X200000Y280594D01*
X195214Y280218D01*
X190546Y279097D01*
X189569Y278692D01*
X186069Y281031D01*
Y295000D01*
X185797Y296366D01*
X185023Y297523D01*
X93569Y388978D01*
Y426030D01*
X93525Y426247D01*
X93542Y426467D01*
X93391Y426924D01*
X93297Y427395D01*
X93174Y427579D01*
X93104Y427789D01*
X92790Y428153D01*
X92523Y428553D01*
X92339Y428676D01*
X92195Y428843D01*
X91039Y429745D01*
X89921Y431719D01*
X90500Y433881D01*
Y436119D01*
X89921Y438281D01*
X91039Y440255D01*
X92195Y441157D01*
X92339Y441324D01*
X92523Y441447D01*
X92790Y441847D01*
X93104Y442211D01*
X93174Y442421D01*
X93297Y442605D01*
X93391Y443076D01*
X93542Y443533D01*
X93525Y443753D01*
X93569Y443970D01*
Y469208D01*
X95042Y470640D01*
X95288Y470826D01*
X96826Y471566D01*
X97500Y471431D01*
X136022D01*
X138931Y468522D01*
Y410000D01*
X139203Y408634D01*
X139977Y407477D01*
X141134Y406703D01*
X142500Y406431D01*
X230000D01*
X231366Y406703D01*
X232523Y407477D01*
X243198Y418151D01*
X246431Y416812D01*
X246432Y360000D01*
X246703Y358634D01*
X247477Y357477D01*
X259977Y344977D01*
X261134Y344203D01*
X262500Y343932D01*
X280198D01*
X281072Y342563D01*
X281541Y340432D01*
X279024Y337915D01*
X276480Y334413D01*
X274515Y330556D01*
X273177Y326440D01*
X272500Y322164D01*
Y317836D01*
X273177Y313560D01*
X274515Y309444D01*
X276480Y305587D01*
X279024Y302085D01*
X282085Y299024D01*
X285587Y296480D01*
X289444Y294515D01*
X293560Y293177D01*
X297836Y292500D01*
X302164D01*
X306440Y293177D01*
X310556Y294515D01*
X314413Y296480D01*
X317915Y299024D01*
X320976Y302085D01*
X323520Y305587D01*
X325485Y309444D01*
X326823Y313560D01*
X327500Y317836D01*
Y322164D01*
X326823Y326440D01*
X325485Y330556D01*
X323520Y334413D01*
X320976Y337915D01*
X318459Y340432D01*
X318928Y342563D01*
X319802Y343932D01*
X325000D01*
X326366Y344203D01*
X327523Y344977D01*
X337523Y354977D01*
X338297Y356134D01*
X338569Y357500D01*
Y405643D01*
X338452Y406229D01*
X338369Y406820D01*
X338317Y406908D01*
X338297Y407009D01*
X337965Y407505D01*
X337662Y408020D01*
X337331Y408390D01*
X337314Y408404D01*
X337302Y408423D01*
X336758Y408823D01*
X336219Y409228D01*
X335607Y412416D01*
X336000Y413881D01*
Y416119D01*
X335421Y418281D01*
X334302Y420219D01*
X332719Y421802D01*
X331351Y422592D01*
X331202Y423342D01*
X330041Y425079D01*
X325600Y429520D01*
Y443150D01*
X328776Y443931D01*
X363148D01*
X366431Y442500D01*
Y360000D01*
X366703Y358634D01*
X367477Y357477D01*
X379977Y344977D01*
X381134Y344203D01*
X382500Y343932D01*
X400199D01*
X401072Y342563D01*
X401541Y340432D01*
X399024Y337915D01*
X396480Y334413D01*
X394515Y330556D01*
X393177Y326440D01*
X392500Y322164D01*
Y317836D01*
X393177Y313560D01*
X394515Y309444D01*
X396480Y305587D01*
X399024Y302085D01*
X402085Y299024D01*
X405587Y296480D01*
X409444Y294515D01*
X413560Y293177D01*
X417836Y292500D01*
X422164D01*
X426440Y293177D01*
X430556Y294515D01*
X434413Y296480D01*
X437915Y299024D01*
X440976Y302085D01*
X443520Y305587D01*
X445485Y309444D01*
X446823Y313560D01*
X447500Y317836D01*
Y322164D01*
X446823Y326440D01*
X445485Y330556D01*
X443520Y334413D01*
X440976Y337915D01*
X438459Y340432D01*
X438928Y342563D01*
X439801Y343932D01*
X445000D01*
X446366Y344203D01*
X447523Y344977D01*
X457523Y354977D01*
X458297Y356134D01*
X458569Y357500D01*
Y405643D01*
X458452Y406229D01*
X458369Y406820D01*
X458317Y406908D01*
X458297Y407009D01*
X457965Y407505D01*
X457662Y408020D01*
X457331Y408390D01*
X457314Y408404D01*
X457302Y408423D01*
X456758Y408823D01*
X456219Y409228D01*
X455607Y412416D01*
X456000Y413881D01*
Y416119D01*
X455421Y418281D01*
X454302Y420219D01*
X452719Y421802D01*
X451351Y422592D01*
X451202Y423342D01*
X450041Y425079D01*
X445600Y429520D01*
Y443150D01*
X448776Y443931D01*
X483148D01*
X486432Y442500D01*
Y360000D01*
X486703Y358634D01*
X487477Y357477D01*
X499977Y344977D01*
X501134Y344203D01*
X502500Y343932D01*
X520199D01*
X521072Y342563D01*
X521541Y340432D01*
X519024Y337915D01*
X516480Y334413D01*
X514515Y330556D01*
X513177Y326440D01*
X512500Y322164D01*
Y317836D01*
X513177Y313560D01*
X514515Y309444D01*
X516480Y305587D01*
X519024Y302085D01*
X522085Y299024D01*
X525587Y296480D01*
X529444Y294515D01*
X533560Y293177D01*
X537836Y292500D01*
X542164D01*
X546440Y293177D01*
X550556Y294515D01*
X554413Y296480D01*
X557915Y299024D01*
X560976Y302085D01*
X563520Y305587D01*
X565485Y309444D01*
X566823Y313560D01*
X567500Y317836D01*
Y322164D01*
X566823Y326440D01*
X565485Y330556D01*
X563520Y334413D01*
X560976Y337915D01*
X558459Y340432D01*
X558928Y342563D01*
X559801Y343932D01*
X565000D01*
X566366Y344203D01*
X567523Y344977D01*
X577523Y354977D01*
X578297Y356134D01*
X578569Y357500D01*
Y405643D01*
X578452Y406229D01*
X578369Y406820D01*
X578317Y406908D01*
X578297Y407009D01*
X577965Y407505D01*
X577662Y408020D01*
X577331Y408390D01*
X577314Y408404D01*
X577302Y408423D01*
X576758Y408823D01*
X576219Y409228D01*
X575607Y412416D01*
X576000Y413881D01*
Y416119D01*
X575421Y418281D01*
X574302Y420219D01*
X572719Y421802D01*
X571351Y422592D01*
X571202Y423342D01*
X570041Y425079D01*
X565600Y429520D01*
Y443150D01*
X568776Y443931D01*
X603148D01*
X606432Y442500D01*
Y360000D01*
X606703Y358634D01*
X607477Y357477D01*
X619977Y344977D01*
X621134Y344203D01*
X622500Y343932D01*
X640199D01*
X641072Y342563D01*
X641541Y340432D01*
X639024Y337915D01*
X636480Y334413D01*
X634515Y330556D01*
X633177Y326440D01*
X632500Y322164D01*
Y317836D01*
X633177Y313560D01*
X634515Y309444D01*
X636480Y305587D01*
X639024Y302085D01*
X642085Y299024D01*
X645587Y296480D01*
X649444Y294515D01*
X653560Y293177D01*
X657836Y292500D01*
X662164D01*
X666440Y293177D01*
X670556Y294515D01*
X674413Y296480D01*
X677915Y299024D01*
X680976Y302085D01*
X683520Y305587D01*
X685485Y309444D01*
X686823Y313560D01*
X687500Y317836D01*
Y322164D01*
X686823Y326440D01*
X685485Y330556D01*
X683520Y334413D01*
X680976Y337915D01*
X678459Y340432D01*
X678928Y342563D01*
X679801Y343932D01*
X685000D01*
X686366Y344203D01*
X687523Y344977D01*
X697523Y354977D01*
X698297Y356134D01*
X698569Y357500D01*
Y410821D01*
X698445Y411442D01*
X698344Y412068D01*
X698310Y412123D01*
X698297Y412186D01*
X697945Y412713D01*
X697612Y413252D01*
X697559Y413290D01*
X697523Y413344D01*
X696996Y413696D01*
X696482Y414067D01*
X694295Y415065D01*
X693500Y416381D01*
Y418619D01*
X692921Y420781D01*
X691802Y422719D01*
X690219Y424302D01*
X688851Y425092D01*
X688702Y425842D01*
X687541Y427579D01*
X685600Y429520D01*
Y443150D01*
X688776Y443931D01*
X723148D01*
X726432Y442500D01*
Y360000D01*
X726703Y358634D01*
X727477Y357477D01*
X739977Y344977D01*
X741134Y344203D01*
X742500Y343932D01*
X760199D01*
X761072Y342563D01*
X761541Y340432D01*
X759024Y337915D01*
X756480Y334413D01*
X754515Y330556D01*
X753177Y326440D01*
X752500Y322164D01*
Y317836D01*
X753177Y313560D01*
X754515Y309444D01*
X756480Y305587D01*
X759024Y302085D01*
X762085Y299024D01*
X765587Y296480D01*
X769444Y294515D01*
X773560Y293177D01*
X777836Y292500D01*
X782164D01*
X786440Y293177D01*
X790556Y294515D01*
X794413Y296480D01*
X797915Y299024D01*
X800976Y302085D01*
X803520Y305587D01*
X805485Y309444D01*
X806823Y313560D01*
X807500Y317836D01*
Y322164D01*
X806823Y326440D01*
X805485Y330556D01*
X803520Y334413D01*
X800976Y337915D01*
X798459Y340432D01*
X798928Y342563D01*
X799801Y343932D01*
X805000D01*
X806366Y344203D01*
X807523Y344977D01*
X817523Y354977D01*
X818297Y356134D01*
X818569Y357500D01*
Y405643D01*
X818452Y406229D01*
X818369Y406820D01*
X818317Y406908D01*
X818297Y407009D01*
X817965Y407505D01*
X817662Y408020D01*
X817331Y408390D01*
X817314Y408404D01*
X817302Y408423D01*
X816758Y408823D01*
X816219Y409228D01*
X815608Y412416D01*
X816000Y413881D01*
Y416119D01*
X815421Y418281D01*
X814302Y420219D01*
X812719Y421802D01*
X811351Y422592D01*
X811202Y423342D01*
X810041Y425079D01*
X805600Y429520D01*
Y443150D01*
X808776Y443931D01*
X815000D01*
X816366Y444203D01*
X817523Y444977D01*
X818297Y446134D01*
X818569Y447500D01*
Y530608D01*
X818552Y530692D01*
X818565Y530778D01*
X818417Y531372D01*
X818297Y531973D01*
X818249Y532045D01*
X818228Y532129D01*
X817864Y532622D01*
X817523Y533131D01*
X817452Y533179D01*
X817400Y533248D01*
X816196Y534343D01*
X815788Y534589D01*
X815413Y534883D01*
X813118Y536051D01*
X812537Y536214D01*
X811966Y536408D01*
X811870Y536402D01*
X811777Y536428D01*
X811178Y536357D01*
X810576Y536317D01*
X809649Y536069D01*
X808351D01*
X807096Y536405D01*
X805972Y537054D01*
X805054Y537972D01*
X804405Y539096D01*
X804069Y540351D01*
Y541649D01*
X804405Y542904D01*
X805054Y544028D01*
X805972Y544946D01*
X807096Y545595D01*
X808351Y545931D01*
X809649D01*
X810576Y545683D01*
X811178Y545644D01*
X811777Y545572D01*
X811870Y545598D01*
X811966Y545592D01*
X812537Y545786D01*
X813118Y545949D01*
X815413Y547117D01*
X815788Y547411D01*
X816196Y547657D01*
X817400Y548752D01*
X817452Y548821D01*
X817523Y548869D01*
X817864Y549378D01*
X818228Y549871D01*
X818249Y549955D01*
X818297Y550027D01*
X818417Y550628D01*
X818565Y551222D01*
X818552Y551308D01*
X818569Y551392D01*
Y638143D01*
X818452Y638728D01*
X818369Y639320D01*
X818317Y639408D01*
X818297Y639509D01*
X817965Y640005D01*
X817662Y640519D01*
X817331Y640890D01*
X817314Y640903D01*
X817302Y640922D01*
X816758Y641322D01*
X816219Y641728D01*
X815607Y644916D01*
X816000Y646381D01*
Y648619D01*
X815607Y650084D01*
X816219Y653272D01*
X816759Y653679D01*
X817302Y654078D01*
X817314Y654097D01*
X817331Y654110D01*
X817662Y654481D01*
X817965Y654995D01*
X818297Y655491D01*
X818317Y655592D01*
X818369Y655680D01*
X818452Y656271D01*
X818569Y656857D01*
Y730000D01*
X818483Y730431D01*
X820021Y733139D01*
X820792Y733931D01*
X830000D01*
X831366Y734203D01*
X832523Y734977D01*
X833297Y736134D01*
X833569Y737500D01*
Y820000D01*
X833297Y821366D01*
X832523Y822523D01*
X820023Y835023D01*
X818866Y835797D01*
X817500Y836069D01*
X799801D01*
X798928Y837437D01*
X798459Y839569D01*
X800976Y842085D01*
X803520Y845587D01*
X805485Y849444D01*
X806823Y853560D01*
X807500Y857836D01*
Y862164D01*
X806823Y866440D01*
X805485Y870556D01*
X803520Y874413D01*
X800976Y877915D01*
X797915Y880976D01*
X794413Y883520D01*
X790556Y885485D01*
X786440Y886823D01*
X782164Y887500D01*
X777836D01*
X773560Y886823D01*
X769444Y885485D01*
X765587Y883520D01*
X762085Y880976D01*
X759024Y877915D01*
X756480Y874413D01*
X754515Y870556D01*
X753177Y866440D01*
X752500Y862164D01*
Y857836D01*
X753177Y853560D01*
X754515Y849444D01*
X756480Y845587D01*
X759024Y842085D01*
X761541Y839569D01*
X761072Y837437D01*
X760199Y836069D01*
X755000D01*
X753634Y835797D01*
X752477Y835023D01*
X742477Y825023D01*
X741703Y823866D01*
X741431Y822500D01*
Y767500D01*
X741703Y766134D01*
X742477Y764977D01*
X745587Y761866D01*
X744506Y757998D01*
X744219Y757921D01*
X742281Y756802D01*
X740698Y755219D01*
X739579Y753281D01*
X739000Y751119D01*
Y748881D01*
X739579Y746719D01*
X740698Y744781D01*
X742281Y743198D01*
X744219Y742079D01*
X746381Y741500D01*
X748619D01*
X750781Y742079D01*
X750928Y742164D01*
X754400Y741276D01*
Y736850D01*
X754400D01*
X753873Y733569D01*
X725000D01*
X724569Y733483D01*
X721861Y735021D01*
X721069Y735792D01*
Y740000D01*
X720797Y741366D01*
X720023Y742523D01*
X718866Y743297D01*
X717500Y743569D01*
X715792D01*
X715021Y744361D01*
X713483Y747069D01*
X713568Y747500D01*
Y830000D01*
X713297Y831366D01*
X712523Y832523D01*
X700023Y845023D01*
X698866Y845797D01*
X697500Y846068D01*
X679801D01*
X678928Y847437D01*
X678459Y849568D01*
X680976Y852085D01*
X683520Y855587D01*
X685485Y859444D01*
X686823Y863560D01*
X687500Y867836D01*
Y872164D01*
X686823Y876440D01*
X685485Y880556D01*
X683520Y884413D01*
X680976Y887915D01*
X677915Y890976D01*
X674413Y893520D01*
X670556Y895485D01*
X666440Y896823D01*
X662164Y897500D01*
X657836D01*
X653560Y896823D01*
X649444Y895485D01*
X645587Y893520D01*
X642085Y890976D01*
X639024Y887915D01*
X636480Y884413D01*
X634515Y880556D01*
X633177Y876440D01*
X632500Y872164D01*
Y867836D01*
X633177Y863560D01*
X634515Y859444D01*
X636480Y855587D01*
X639024Y852085D01*
X641541Y849568D01*
X641072Y847437D01*
X640199Y846068D01*
X635000D01*
X633634Y845797D01*
X632477Y845023D01*
X622477Y835023D01*
X621703Y833866D01*
X621431Y832500D01*
Y777500D01*
X621703Y776134D01*
X622477Y774977D01*
X627477Y769977D01*
X628190Y769500D01*
X628176Y767773D01*
X627608Y766000D01*
X626381D01*
X624219Y765421D01*
X622281Y764302D01*
X620698Y762719D01*
X619579Y760781D01*
X619000Y758619D01*
Y756381D01*
X619579Y754219D01*
X620698Y752281D01*
X622281Y750698D01*
X624219Y749579D01*
X626381Y749000D01*
X628619D01*
X630781Y749579D01*
X630900Y749648D01*
X631835Y749108D01*
X634400Y746850D01*
X633872Y743569D01*
X595792D01*
X595021Y744361D01*
X593483Y747069D01*
X593569Y747500D01*
Y830000D01*
X593297Y831366D01*
X592523Y832523D01*
X580023Y845023D01*
X578866Y845797D01*
X577500Y846068D01*
X559801D01*
X558928Y847437D01*
X558459Y849568D01*
X560976Y852085D01*
X563520Y855587D01*
X565485Y859444D01*
X566823Y863560D01*
X567500Y867836D01*
Y872164D01*
X566823Y876440D01*
X565485Y880556D01*
X563520Y884413D01*
X560976Y887915D01*
X557915Y890976D01*
X554413Y893520D01*
X550556Y895485D01*
X546440Y896823D01*
X542164Y897500D01*
X537836D01*
X533560Y896823D01*
X529444Y895485D01*
X525587Y893520D01*
X522085Y890976D01*
X519024Y887915D01*
X516480Y884413D01*
X514515Y880556D01*
X513177Y876440D01*
X512500Y872164D01*
Y867836D01*
X513177Y863560D01*
X514515Y859444D01*
X516480Y855587D01*
X519024Y852085D01*
X521541Y849568D01*
X521072Y847437D01*
X520199Y846068D01*
X515000D01*
X513634Y845797D01*
X512477Y845023D01*
X502477Y835023D01*
X501703Y833866D01*
X501431Y832500D01*
Y777500D01*
X501703Y776134D01*
X502477Y774977D01*
X507477Y769977D01*
X508190Y769500D01*
X508176Y767774D01*
X507608Y766000D01*
X506381D01*
X504219Y765421D01*
X502281Y764302D01*
X500698Y762719D01*
X499579Y760781D01*
X499000Y758619D01*
Y756381D01*
X499579Y754219D01*
X500698Y752281D01*
X502281Y750698D01*
X504219Y749579D01*
X506381Y749000D01*
X508619D01*
X510781Y749579D01*
X510900Y749648D01*
X511835Y749108D01*
X514400Y746850D01*
X513872Y743569D01*
X475792D01*
X475021Y744361D01*
X473483Y747069D01*
X473568Y747500D01*
Y830000D01*
X473297Y831366D01*
X472523Y832523D01*
X460023Y845023D01*
X458866Y845797D01*
X457500Y846069D01*
X439801D01*
X438928Y847437D01*
X438459Y849569D01*
X440976Y852085D01*
X443520Y855587D01*
X445485Y859444D01*
X446823Y863560D01*
X447500Y867836D01*
Y872164D01*
X446823Y876440D01*
X445485Y880556D01*
X443520Y884413D01*
X440976Y887915D01*
X437915Y890976D01*
X434413Y893520D01*
X430556Y895485D01*
X426440Y896823D01*
X422164Y897500D01*
X417836D01*
X413560Y896823D01*
X409444Y895485D01*
X405587Y893520D01*
X402085Y890976D01*
X399024Y887915D01*
X396480Y884413D01*
X394515Y880556D01*
X393177Y876440D01*
X392500Y872164D01*
Y867836D01*
X393177Y863560D01*
X394515Y859444D01*
X396480Y855587D01*
X399024Y852085D01*
X401541Y849569D01*
X401072Y847437D01*
X400199Y846069D01*
X395000D01*
X393634Y845797D01*
X392477Y845023D01*
X382477Y835023D01*
X381703Y833866D01*
X381431Y832500D01*
Y777500D01*
X381703Y776134D01*
X382477Y774977D01*
X387477Y769977D01*
X388190Y769500D01*
X388176Y767774D01*
X387608Y766000D01*
X386381D01*
X384219Y765421D01*
X382281Y764302D01*
X380698Y762719D01*
X379579Y760781D01*
X379000Y758619D01*
Y756381D01*
X379579Y754219D01*
X380698Y752281D01*
X382281Y750698D01*
X384219Y749579D01*
X386381Y749000D01*
X388619D01*
X390781Y749579D01*
X390900Y749648D01*
X391835Y749108D01*
X394400Y746850D01*
X393872Y743569D01*
X355000D01*
X353569Y746852D01*
Y800000D01*
X353297Y801366D01*
X352523Y802523D01*
X340023Y815023D01*
X338866Y815797D01*
X337500Y816069D01*
X319802D01*
X318928Y817437D01*
X318459Y819569D01*
X320976Y822085D01*
X323520Y825587D01*
X325485Y829444D01*
X326823Y833560D01*
X327500Y837836D01*
Y842164D01*
X326823Y846440D01*
X325485Y850556D01*
X323520Y854413D01*
X320976Y857915D01*
X317915Y860976D01*
X314413Y863520D01*
X310556Y865485D01*
X306440Y866823D01*
X302164Y867500D01*
X297836D01*
X293560Y866823D01*
X289444Y865485D01*
X285587Y863520D01*
X282085Y860976D01*
X279024Y857915D01*
X276480Y854413D01*
X274515Y850556D01*
X273177Y846440D01*
X272500Y842164D01*
Y837836D01*
X273177Y833560D01*
X274515Y829444D01*
X276480Y825587D01*
X279024Y822085D01*
X281541Y819569D01*
X281072Y817437D01*
X280198Y816069D01*
X275000D01*
X273634Y815797D01*
X272477Y815023D01*
X262477Y805023D01*
X261703Y803866D01*
X261431Y802500D01*
Y747500D01*
X261703Y746134D01*
X262477Y744977D01*
X267477Y739977D01*
X268190Y739500D01*
X268176Y737775D01*
X267608Y736000D01*
X266381D01*
X264219Y735421D01*
X262281Y734302D01*
X260698Y732719D01*
X259579Y730781D01*
X259000Y728619D01*
Y726381D01*
X259579Y724219D01*
X260698Y722281D01*
X260911Y722069D01*
X259461Y718569D01*
X157500D01*
X156134Y718297D01*
X154977Y717523D01*
X132477Y695023D01*
X131703Y693866D01*
X131431Y692500D01*
Y656069D01*
X125825D01*
X123056Y659050D01*
X122833Y660747D01*
X122178Y662328D01*
X121136Y663686D01*
X119778Y664728D01*
X118197Y665383D01*
X116500Y665606D01*
X108000D01*
X106303Y665383D01*
X104722Y664728D01*
X104299Y664403D01*
X95100D01*
X93052Y663995D01*
X92069Y663338D01*
X88569Y664544D01*
Y672500D01*
X88297Y673866D01*
X87523Y675023D01*
X82476Y680071D01*
X81318Y680844D01*
X79953Y681116D01*
X29179Y681116D01*
X27104Y683935D01*
X31180Y697028D01*
X38762Y718161D01*
X47239Y738953D01*
X56595Y759363D01*
X66814Y779356D01*
X77876Y798894D01*
X89763Y817942D01*
X102451Y836466D01*
X115918Y854431D01*
X130139Y871806D01*
X145089Y888557D01*
X160741Y904656D01*
X177064Y920072D01*
X194031Y934777D01*
X211610Y948745D01*
X229769Y961950D01*
X248475Y974368D01*
X267694Y985977D01*
X287390Y996755D01*
X307529Y1006683D01*
X328073Y1015742D01*
X348985Y1023916D01*
X370226Y1031191D01*
X380993Y1034371D01*
X381049Y1034401D01*
X381112Y1034409D01*
X382703Y1034932D01*
X386129Y1035200D01*
X389631Y1034784D01*
X392985Y1033692D01*
X396061Y1031968D01*
X398742Y1029676D01*
X400924Y1026905D01*
X402524Y1023762D01*
X403002Y1022065D01*
X403094Y1021884D01*
X403129Y1021684D01*
X404477Y1018240D01*
X405011Y1016189D01*
X405143Y1015917D01*
X405205Y1015620D01*
X407050Y1011282D01*
X407276Y1010950D01*
X407433Y1010580D01*
X410089Y1006684D01*
X410376Y1006403D01*
X410602Y1006071D01*
X413968Y1002768D01*
X414304Y1002549D01*
X414590Y1002267D01*
X418535Y999685D01*
X418908Y999534D01*
X419244Y999314D01*
X423616Y997551D01*
X424011Y997476D01*
X424384Y997326D01*
X429017Y996449D01*
X429418Y996453D01*
X429813Y996379D01*
X434528Y996423D01*
X434824Y996485D01*
X435126Y996472D01*
X437457Y996841D01*
X437533Y996869D01*
X437613Y996868D01*
X440044Y997349D01*
X444919Y998261D01*
X449800Y999122D01*
X454687Y999931D01*
X457137Y1000311D01*
X457213Y1000339D01*
X457293Y1000338D01*
X459610Y1000790D01*
X459890Y1000904D01*
X460189Y1000947D01*
X464635Y1002518D01*
X464981Y1002723D01*
X465359Y1002857D01*
X469414Y1005266D01*
X469713Y1005534D01*
X470058Y1005739D01*
X473565Y1008892D01*
X473806Y1009214D01*
X474104Y1009482D01*
X476929Y1013259D01*
X477102Y1013622D01*
X477342Y1013943D01*
X479376Y1018198D01*
X479475Y1018587D01*
X479648Y1018950D01*
X480812Y1023520D01*
X480834Y1023921D01*
X480933Y1024310D01*
X481183Y1029019D01*
X481140Y1029319D01*
X481171Y1029619D01*
X480971Y1031729D01*
X481060Y1035432D01*
X481035Y1035576D01*
X481057Y1035721D01*
X480972Y1037533D01*
X481512Y1041121D01*
X482742Y1044534D01*
X484614Y1047642D01*
X487056Y1050325D01*
X489975Y1052480D01*
X493259Y1054024D01*
X496780Y1054898D01*
X498592Y1054983D01*
X498618Y1054990D01*
X498644Y1054986D01*
X506615Y1055462D01*
X507490Y1055488D01*
X508826Y1052026D01*
D02*
G37*
G36*
X470000Y830000D02*
Y747500D01*
X407500D01*
Y772500D01*
X390000D01*
X385000Y777500D01*
Y832500D01*
X395000Y842500D01*
X457500D01*
X470000Y830000D01*
D02*
G37*
G36*
X590000Y830000D02*
Y747500D01*
X527500D01*
Y772500D01*
X510000D01*
X505000Y777500D01*
Y832500D01*
X515000Y842500D01*
X577500D01*
X590000Y830000D01*
D02*
G37*
G36*
X710000Y830000D02*
Y747500D01*
X647500D01*
Y768050D01*
X647500D01*
Y772500D01*
X630000D01*
X625000Y777500D01*
Y832500D01*
X635000Y842500D01*
X697500D01*
X710000Y830000D01*
D02*
G37*
G36*
X830000Y820000D02*
Y737500D01*
X767500D01*
Y762500D01*
X750000D01*
X745000Y767500D01*
Y822500D01*
X755000Y832500D01*
X817500D01*
X830000Y820000D01*
D02*
G37*
G36*
X350000Y800000D02*
Y740047D01*
X328522Y718569D01*
X287500D01*
Y742500D01*
X270000D01*
X265000Y747500D01*
Y802500D01*
X275000Y812500D01*
X337500D01*
X350000Y800000D01*
D02*
G37*
G36*
X815000Y656857D02*
X814669Y656486D01*
X811500Y655005D01*
X810781Y655421D01*
X808619Y656000D01*
X806381D01*
X804219Y655421D01*
X802281Y654302D01*
X800698Y652719D01*
X799579Y650781D01*
X799000Y648619D01*
Y646381D01*
X799579Y644219D01*
X800698Y642281D01*
X802281Y640698D01*
X804219Y639579D01*
X806381Y639000D01*
X808619D01*
X810781Y639579D01*
X811500Y639995D01*
X814669Y638514D01*
X815000Y638143D01*
Y551392D01*
X813796Y550298D01*
X811500Y549130D01*
X810119Y549500D01*
X807881D01*
X805719Y548921D01*
X803781Y547802D01*
X802198Y546219D01*
X801079Y544281D01*
X800500Y542119D01*
Y539881D01*
X801079Y537719D01*
X802198Y535781D01*
X803781Y534198D01*
X805719Y533079D01*
X807881Y532500D01*
X810119D01*
X811500Y532870D01*
X813796Y531702D01*
X815000Y530608D01*
Y447500D01*
X267500D01*
X230000Y410000D01*
X142500D01*
Y470000D01*
X137500Y475000D01*
X97500D01*
X95000Y477500D01*
Y510000D01*
X97500Y512500D01*
X107954D01*
X108000Y512494D01*
X116500D01*
X116546Y512500D01*
X142500D01*
Y512500D01*
X145000Y515000D01*
Y530557D01*
X145671Y531719D01*
X146250Y533881D01*
Y536119D01*
X146222Y536222D01*
X180000Y570000D01*
X597940D01*
X599000Y568619D01*
Y566381D01*
X599579Y564219D01*
X600698Y562281D01*
X602281Y560698D01*
X604219Y559579D01*
X606381Y559000D01*
X608619D01*
X610781Y559579D01*
X612719Y560698D01*
X614302Y562281D01*
X615421Y564219D01*
X616000Y566381D01*
Y568619D01*
X617060Y570000D01*
X680000D01*
X725000Y615000D01*
Y730000D01*
X815000D01*
Y656857D01*
D02*
G37*
G36*
X717500Y617500D02*
X675000Y575000D01*
X611510D01*
X610781Y575421D01*
X608619Y576000D01*
X606381D01*
X604219Y575421D01*
X603490Y575000D01*
X170000D01*
X132500Y612500D01*
X100000D01*
X96353Y616147D01*
Y651353D01*
X97500Y652500D01*
X107954D01*
X108000Y652494D01*
X116500D01*
X116546Y652500D01*
X135000D01*
Y692500D01*
X157500Y715000D01*
X330000D01*
X355000Y740000D01*
X717500D01*
Y617500D01*
D02*
G37*
G36*
X894104Y615033D02*
X895750Y614103D01*
Y611000D01*
X899647D01*
Y581650D01*
X900055Y579602D01*
X901215Y577865D01*
X907017Y572063D01*
X894977Y560023D01*
X894203Y558866D01*
X890807Y558628D01*
X890306Y558874D01*
X890298Y558883D01*
X890375Y562698D01*
X892702Y565025D01*
X894348Y567875D01*
X895200Y571054D01*
Y574346D01*
X894348Y577525D01*
X892702Y580375D01*
X890375Y582702D01*
X889157Y583405D01*
X889158Y587395D01*
X890375Y588098D01*
X892702Y590425D01*
X894348Y593275D01*
X895172Y596350D01*
X882700D01*
Y599850D01*
X895172D01*
X894348Y602925D01*
X892702Y605775D01*
X890375Y608103D01*
X889158Y608806D01*
X889158Y612795D01*
X890375Y613498D01*
X892250Y615372D01*
X894104Y615033D01*
D02*
G37*
G36*
X952500Y570000D02*
Y552500D01*
X947997Y547997D01*
X946119Y548500D01*
X943881D01*
X941719Y547921D01*
X940990Y547500D01*
X937500D01*
X925000Y535000D01*
Y460000D01*
X920000Y455000D01*
X916801Y451801D01*
Y449849D01*
Y430149D01*
X919450Y427500D01*
X942500D01*
X949647Y420353D01*
Y399647D01*
X947500Y397500D01*
X905000D01*
X895000Y387500D01*
Y312500D01*
X887500Y305000D01*
Y305000D01*
X877500D01*
X870000Y312500D01*
Y330000D01*
X867500Y332500D01*
X850000D01*
X845000Y337500D01*
Y402500D01*
X850000Y407500D01*
X867500D01*
X870000Y410000D01*
X870000D01*
Y427500D01*
X875000Y432500D01*
X890000D01*
X897500Y440000D01*
Y557500D01*
X915000Y575000D01*
X947500D01*
X952500Y570000D01*
D02*
G37*
G36*
X85000Y672500D02*
Y615000D01*
X80000Y610000D01*
X47500D01*
Y595000D01*
X38448Y585948D01*
Y583469D01*
X37329Y581531D01*
X36750Y579369D01*
Y577131D01*
X37329Y574969D01*
X38448Y573031D01*
Y571552D01*
X43750Y566250D01*
Y528750D01*
X47500Y525000D01*
X51124D01*
X52719Y524079D01*
X54881Y523500D01*
X57119D01*
X59281Y524079D01*
X60876Y525000D01*
X65945D01*
X65965Y524969D01*
X71969Y518965D01*
X73706Y517805D01*
X74941Y517559D01*
X87500Y505000D01*
Y472500D01*
X90000Y470000D01*
Y443970D01*
X88844Y443069D01*
X86500Y442217D01*
X85281Y442921D01*
X83119Y443500D01*
X80881D01*
X78719Y442921D01*
X76781Y441802D01*
X75198Y440219D01*
X74079Y438281D01*
X73500Y436119D01*
Y433881D01*
X74079Y431719D01*
X75198Y429781D01*
X76781Y428198D01*
X78719Y427079D01*
X80881Y426500D01*
X83119D01*
X85281Y427079D01*
X86500Y427783D01*
X88844Y426931D01*
X90000Y426030D01*
Y387500D01*
X182500Y295000D01*
Y275047D01*
X182017Y274751D01*
X178367Y271633D01*
X175249Y267983D01*
X172740Y263890D01*
X170903Y259454D01*
X169782Y254786D01*
X169406Y250000D01*
X169782Y245214D01*
X170903Y240546D01*
X172740Y236110D01*
X175249Y232017D01*
X178367Y228367D01*
X182017Y225249D01*
X186110Y222740D01*
X190546Y220903D01*
X195214Y219782D01*
X200000Y219406D01*
X204786Y219782D01*
X205693Y220000D01*
X257500D01*
X285000Y192500D01*
X372500D01*
X377500Y187500D01*
Y140000D01*
X367500Y130000D01*
X264261Y130000D01*
X240000Y154261D01*
Y175000D01*
X141851D01*
X128116Y190575D01*
X113998Y208034D01*
X100638Y226079D01*
X88060Y244678D01*
X86050Y247941D01*
X87573Y250202D01*
X88387Y250821D01*
X92714Y249782D01*
X97500Y249406D01*
X102286Y249782D01*
X106954Y250903D01*
X111390Y252740D01*
X115483Y255249D01*
X119133Y258367D01*
X122251Y262017D01*
X124760Y266110D01*
X126597Y270546D01*
X127718Y275214D01*
X128094Y280000D01*
X127718Y284786D01*
X126597Y289454D01*
X124760Y293890D01*
X122251Y297983D01*
X119133Y301633D01*
X115483Y304751D01*
X111390Y307260D01*
X106954Y309097D01*
X102286Y310218D01*
X97500Y310594D01*
X92714Y310218D01*
X88046Y309097D01*
X83610Y307260D01*
X79517Y304751D01*
X75867Y301633D01*
X72749Y297983D01*
X70240Y293890D01*
X68403Y289454D01*
X67695Y286506D01*
X63993Y286077D01*
X55241Y303453D01*
X46006Y323918D01*
X37653Y344759D01*
X30197Y365938D01*
X23651Y387415D01*
X18028Y409152D01*
X13337Y431109D01*
X9588Y453247D01*
X6787Y475524D01*
X4939Y497901D01*
X4047Y520336D01*
X4114Y542788D01*
X5139Y565218D01*
X7120Y587582D01*
X10053Y609843D01*
X13934Y631957D01*
X18755Y653886D01*
X24507Y675590D01*
X25116Y677548D01*
X79953Y677548D01*
X85000Y672500D01*
D02*
G37*
G36*
X552500Y421950D02*
Y417500D01*
X557940D01*
X559000Y416119D01*
Y413881D01*
X559579Y411719D01*
X560698Y409781D01*
X562281Y408198D01*
X564219Y407079D01*
X566381Y406500D01*
X568619D01*
X570781Y407079D01*
X571500Y407495D01*
X574669Y406014D01*
X575000Y405643D01*
Y357500D01*
X565000Y347500D01*
X502500D01*
X490000Y360000D01*
Y442500D01*
X552500D01*
Y421950D01*
D02*
G37*
G36*
X432500D02*
Y417500D01*
X437940D01*
X439000Y416119D01*
Y413881D01*
X439579Y411719D01*
X440698Y409781D01*
X442281Y408198D01*
X444219Y407079D01*
X446381Y406500D01*
X448619D01*
X450781Y407079D01*
X451500Y407495D01*
X454669Y406014D01*
X455000Y405643D01*
Y357500D01*
X445000Y347500D01*
X382500D01*
X370000Y360000D01*
Y442500D01*
X432500D01*
Y421950D01*
D02*
G37*
G36*
X312500D02*
Y417500D01*
X317940D01*
X319000Y416119D01*
Y413881D01*
X319579Y411719D01*
X320698Y409781D01*
X322281Y408198D01*
X324219Y407079D01*
X326381Y406500D01*
X328619D01*
X330781Y407079D01*
X331500Y407495D01*
X334669Y406014D01*
X335000Y405643D01*
Y357500D01*
X325000Y347500D01*
X262500D01*
X250000Y360000D01*
X250000Y424953D01*
X267547Y442500D01*
X312500D01*
Y421950D01*
D02*
G37*
G36*
X792500Y421950D02*
Y417500D01*
X797940D01*
X799000Y416119D01*
Y413881D01*
X799579Y411719D01*
X800698Y409781D01*
X802281Y408198D01*
X804219Y407079D01*
X806381Y406500D01*
X808619D01*
X810781Y407079D01*
X811500Y407495D01*
X814669Y406014D01*
X815000Y405643D01*
Y357500D01*
X805000Y347500D01*
X742500D01*
X730000Y360000D01*
Y442500D01*
X792500D01*
Y421950D01*
D02*
G37*
G36*
X672500Y417500D02*
X676500D01*
Y416381D01*
X677079Y414219D01*
X678198Y412281D01*
X679781Y410698D01*
X681719Y409579D01*
X683881Y409000D01*
X686119D01*
X688281Y409579D01*
X690219Y410698D01*
X691500Y411979D01*
X692813Y411819D01*
X695000Y410821D01*
Y357500D01*
X685000Y347500D01*
X622500D01*
X610000Y360000D01*
Y442500D01*
X672500D01*
Y417500D01*
D02*
G37*
%LPC*%
G36*
X870000Y900594D02*
X865214Y900218D01*
X860546Y899097D01*
X856111Y897260D01*
X852017Y894751D01*
X848367Y891633D01*
X845249Y887983D01*
X842740Y883889D01*
X840903Y879454D01*
X839782Y874786D01*
X839406Y870000D01*
X839782Y865214D01*
X840903Y860546D01*
X842740Y856111D01*
X845249Y852017D01*
X848367Y848367D01*
X852017Y845249D01*
X856111Y842740D01*
X860546Y840903D01*
X865214Y839782D01*
X870000Y839406D01*
X874786Y839782D01*
X879454Y840903D01*
X883889Y842740D01*
X887983Y845249D01*
X891633Y848367D01*
X894751Y852017D01*
X897260Y856111D01*
X899097Y860546D01*
X900218Y865214D01*
X900594Y870000D01*
X900218Y874786D01*
X899097Y879454D01*
X897260Y883889D01*
X894751Y887983D01*
X891633Y891633D01*
X887983Y894751D01*
X883889Y897260D01*
X879454Y899097D01*
X874786Y900218D01*
X870000Y900594D01*
D02*
G37*
G36*
X200000D02*
X195214Y900218D01*
X190546Y899097D01*
X186110Y897260D01*
X182017Y894751D01*
X178367Y891633D01*
X175249Y887983D01*
X172740Y883889D01*
X170903Y879454D01*
X169782Y874786D01*
X169406Y870000D01*
X169782Y865214D01*
X170903Y860546D01*
X172740Y856111D01*
X175249Y852017D01*
X178367Y848367D01*
X182017Y845249D01*
X186110Y842740D01*
X190546Y840903D01*
X195214Y839782D01*
X200000Y839406D01*
X204786Y839782D01*
X209454Y840903D01*
X213890Y842740D01*
X217983Y845249D01*
X221633Y848367D01*
X224751Y852017D01*
X227260Y856111D01*
X229097Y860546D01*
X230218Y865214D01*
X230594Y870000D01*
X230218Y874786D01*
X229097Y879454D01*
X227260Y883889D01*
X224751Y887983D01*
X221633Y891633D01*
X217983Y894751D01*
X213890Y897260D01*
X209454Y899097D01*
X204786Y900218D01*
X200000Y900594D01*
D02*
G37*
G36*
X971750Y769500D02*
X961750D01*
Y750600D01*
X971750D01*
Y769500D01*
D02*
G37*
G36*
X958250D02*
X948250D01*
Y750600D01*
X958250D01*
Y769500D01*
D02*
G37*
G36*
X971750Y747100D02*
X961750D01*
Y728200D01*
X971750D01*
Y747100D01*
D02*
G37*
G36*
X958250D02*
X948250D01*
Y728200D01*
X958250D01*
Y747100D01*
D02*
G37*
G36*
X929200Y719850D02*
X914750D01*
Y711750D01*
X929200D01*
Y719850D01*
D02*
G37*
G36*
Y708250D02*
X914750D01*
Y700150D01*
X929200D01*
Y708250D01*
D02*
G37*
G36*
X971750Y691800D02*
X961750D01*
Y672900D01*
X971750D01*
Y691800D01*
D02*
G37*
G36*
X958250D02*
X948250D01*
Y672900D01*
X958250D01*
Y691800D01*
D02*
G37*
G36*
Y669400D02*
X948250D01*
Y650500D01*
X958250D01*
Y669400D01*
D02*
G37*
G36*
X1036000Y643250D02*
X1026750D01*
Y634500D01*
X1036000D01*
Y643250D01*
D02*
G37*
G36*
X971750Y669400D02*
X961750D01*
Y650500D01*
X965165D01*
X968251Y649499D01*
X968251Y647000D01*
Y630599D01*
X978251D01*
Y649499D01*
X974836D01*
X971750Y650500D01*
X971750Y652999D01*
Y669400D01*
D02*
G37*
G36*
X948119Y639500D02*
X945881D01*
X943719Y638921D01*
X941781Y637802D01*
X940198Y636219D01*
X939079Y634281D01*
X938500Y632119D01*
Y629881D01*
X939079Y627719D01*
X940198Y625781D01*
X941781Y624198D01*
X943719Y623079D01*
X945881Y622500D01*
X948119D01*
X950281Y623079D01*
X952219Y624198D01*
X953802Y625781D01*
X954921Y627719D01*
X955500Y629881D01*
Y632119D01*
X954921Y634281D01*
X953802Y636219D01*
X952219Y637802D01*
X950281Y638921D01*
X948119Y639500D01*
D02*
G37*
G36*
X978251Y627099D02*
X968251D01*
Y608199D01*
X978251D01*
Y627099D01*
D02*
G37*
G36*
X933000Y613250D02*
X923750D01*
Y604500D01*
X933000D01*
Y613250D01*
D02*
G37*
G36*
X1043201Y599849D02*
X1028751D01*
Y591749D01*
X1043201D01*
Y599849D01*
D02*
G37*
G36*
X1025251D02*
X1010801D01*
Y591749D01*
X1025251D01*
Y599849D01*
D02*
G37*
G36*
X1043201Y588249D02*
X1028751D01*
Y580149D01*
X1043201D01*
Y588249D01*
D02*
G37*
G36*
X1025251D02*
X1010801D01*
Y580149D01*
X1025251D01*
Y588249D01*
D02*
G37*
G36*
X1043201Y569849D02*
X1028751D01*
Y561749D01*
X1043201D01*
Y569849D01*
D02*
G37*
G36*
X1025251D02*
X1010801D01*
Y561749D01*
X1025251D01*
Y569849D01*
D02*
G37*
G36*
X1043201Y558249D02*
X1028751D01*
Y550149D01*
X1043201D01*
Y558249D01*
D02*
G37*
G36*
X1025251D02*
X1010801D01*
Y550149D01*
X1025251D01*
Y558249D01*
D02*
G37*
G36*
X991751Y541799D02*
X981751D01*
Y522899D01*
X991751D01*
Y541799D01*
D02*
G37*
G36*
Y477099D02*
X981751D01*
Y458199D01*
X991751D01*
Y477099D01*
D02*
G37*
G36*
X1043201Y449849D02*
X1028751D01*
Y441749D01*
X1043201D01*
Y449849D01*
D02*
G37*
G36*
X1025251D02*
X1010801D01*
Y441749D01*
X1025251D01*
Y449849D01*
D02*
G37*
G36*
Y438249D02*
X1010801D01*
Y430149D01*
X1025251D01*
Y438249D01*
D02*
G37*
G36*
Y419849D02*
X1010801D01*
Y411749D01*
X1025251D01*
Y419849D01*
D02*
G37*
G36*
Y408249D02*
X1010801D01*
Y400149D01*
X1025251D01*
Y408249D01*
D02*
G37*
G36*
X991751Y391799D02*
X981751D01*
Y372899D01*
X991751D01*
Y391799D01*
D02*
G37*
G36*
Y369399D02*
X981751D01*
Y350499D01*
X991751D01*
Y369399D01*
D02*
G37*
G36*
X949619Y336000D02*
X947381D01*
X945219Y335421D01*
X943281Y334302D01*
X941698Y332719D01*
X940579Y330781D01*
X940000Y328619D01*
Y326381D01*
X940579Y324219D01*
X941698Y322281D01*
X943281Y320698D01*
X945219Y319579D01*
X947381Y319000D01*
X949619D01*
X951781Y319579D01*
X953719Y320698D01*
X955302Y322281D01*
X956421Y324219D01*
X957000Y326381D01*
Y328619D01*
X956421Y330781D01*
X955302Y332719D01*
X953719Y334302D01*
X951781Y335421D01*
X949619Y336000D01*
D02*
G37*
G36*
X870000Y280594D02*
X865214Y280218D01*
X860546Y279097D01*
X856111Y277260D01*
X852017Y274751D01*
X848367Y271633D01*
X845249Y267983D01*
X842740Y263890D01*
X840903Y259454D01*
X839782Y254786D01*
X839406Y250000D01*
X839782Y245214D01*
X840903Y240546D01*
X842740Y236110D01*
X845249Y232017D01*
X848367Y228367D01*
X852017Y225249D01*
X856111Y222740D01*
X860546Y220903D01*
X865214Y219782D01*
X870000Y219406D01*
X874786Y219782D01*
X879454Y220903D01*
X883889Y222740D01*
X887983Y225249D01*
X891633Y228367D01*
X894751Y232017D01*
X897260Y236110D01*
X899097Y240546D01*
X900218Y245214D01*
X900594Y250000D01*
X900218Y254786D01*
X899097Y259454D01*
X897260Y263890D01*
X894751Y267983D01*
X891633Y271633D01*
X887983Y274751D01*
X883889Y277260D01*
X879454Y279097D01*
X874786Y280218D01*
X870000Y280594D01*
D02*
G37*
G36*
X848000Y206000D02*
X839250D01*
Y196750D01*
X848000D01*
Y206000D01*
D02*
G37*
G36*
Y193250D02*
X839250D01*
Y184000D01*
X848000D01*
Y193250D01*
D02*
G37*
G36*
X848000Y173500D02*
X839250D01*
Y164250D01*
X848000D01*
Y173500D01*
D02*
G37*
G36*
X221000Y158250D02*
X208000D01*
Y146000D01*
X221000D01*
Y158250D01*
D02*
G37*
G36*
X787369Y680750D02*
X785131D01*
X782969Y680171D01*
X781031Y679052D01*
X779448Y677469D01*
X778329Y675531D01*
X777750Y673369D01*
Y671131D01*
X778329Y668969D01*
X779448Y667031D01*
X781031Y665448D01*
X782969Y664329D01*
X785131Y663750D01*
X787369D01*
X789531Y664329D01*
X791469Y665448D01*
X793052Y667031D01*
X794171Y668969D01*
X794750Y671131D01*
Y673369D01*
X794171Y675531D01*
X793052Y677469D01*
X791469Y679052D01*
X789531Y680171D01*
X787369Y680750D01*
D02*
G37*
G36*
X789119Y549500D02*
X786881D01*
X784719Y548921D01*
X782781Y547802D01*
X781198Y546219D01*
X780079Y544281D01*
X779500Y542119D01*
Y539881D01*
X780079Y537719D01*
X781198Y535781D01*
X782781Y534198D01*
X784719Y533079D01*
X786881Y532500D01*
X789119D01*
X791281Y533079D01*
X793219Y534198D01*
X794802Y535781D01*
X795921Y537719D01*
X796500Y539881D01*
Y542119D01*
X795921Y544281D01*
X794802Y546219D01*
X793219Y547802D01*
X791281Y548921D01*
X789119Y549500D01*
D02*
G37*
G36*
X768869Y536000D02*
X766631D01*
X764469Y535421D01*
X762531Y534302D01*
X760948Y532719D01*
X759829Y530781D01*
X759250Y528619D01*
Y526381D01*
X759829Y524219D01*
X760948Y522281D01*
X762531Y520698D01*
X764469Y519579D01*
X766631Y519000D01*
X768869D01*
X771031Y519579D01*
X772969Y520698D01*
X774552Y522281D01*
X775671Y524219D01*
X776250Y526381D01*
Y528619D01*
X775671Y530781D01*
X774552Y532719D01*
X772969Y534302D01*
X771031Y535421D01*
X768869Y536000D01*
D02*
G37*
G36*
X733619D02*
X731381D01*
X729219Y535421D01*
X727281Y534302D01*
X725698Y532719D01*
X724579Y530781D01*
X724000Y528619D01*
Y526381D01*
X724579Y524219D01*
X725698Y522281D01*
X727281Y520698D01*
X729219Y519579D01*
X731381Y519000D01*
X733619D01*
X735781Y519579D01*
X737719Y520698D01*
X739302Y522281D01*
X740421Y524219D01*
X741000Y526381D01*
Y528619D01*
X740421Y530781D01*
X739302Y532719D01*
X737719Y534302D01*
X735781Y535421D01*
X733619Y536000D01*
D02*
G37*
G36*
X418619D02*
X416381D01*
X414219Y535421D01*
X412281Y534302D01*
X410698Y532719D01*
X409579Y530781D01*
X409000Y528619D01*
Y526381D01*
X409579Y524219D01*
X410698Y522281D01*
X412281Y520698D01*
X414219Y519579D01*
X416381Y519000D01*
X418619D01*
X420781Y519579D01*
X422719Y520698D01*
X424302Y522281D01*
X425421Y524219D01*
X426000Y526381D01*
Y528619D01*
X425421Y530781D01*
X424302Y532719D01*
X422719Y534302D01*
X420781Y535421D01*
X418619Y536000D01*
D02*
G37*
G36*
X596119Y651000D02*
X593881D01*
X591719Y650421D01*
X589781Y649302D01*
X588198Y647719D01*
X587079Y645781D01*
X586500Y643619D01*
Y641381D01*
X587079Y639219D01*
X588198Y637281D01*
X589781Y635698D01*
X591719Y634579D01*
X593881Y634000D01*
X596119D01*
X598281Y634579D01*
X600219Y635698D01*
X601802Y637281D01*
X602921Y639219D01*
X603500Y641381D01*
Y643619D01*
X602921Y645781D01*
X601802Y647719D01*
X600219Y649302D01*
X598281Y650421D01*
X596119Y651000D01*
D02*
G37*
G36*
X356119D02*
X353881D01*
X351719Y650421D01*
X349781Y649302D01*
X348198Y647719D01*
X347079Y645781D01*
X346500Y643619D01*
Y641381D01*
X347079Y639219D01*
X348198Y637281D01*
X349781Y635698D01*
X351719Y634579D01*
X353881Y634000D01*
X356119D01*
X358281Y634579D01*
X360219Y635698D01*
X361802Y637281D01*
X362921Y639219D01*
X363500Y641381D01*
Y643619D01*
X362921Y645781D01*
X361802Y647719D01*
X360219Y649302D01*
X358281Y650421D01*
X356119Y651000D01*
D02*
G37*
G36*
X321119Y626000D02*
X318881D01*
X316719Y625421D01*
X314781Y624302D01*
X313198Y622719D01*
X312079Y620781D01*
X311500Y618619D01*
Y616381D01*
X312079Y614219D01*
X313198Y612281D01*
X314781Y610698D01*
X316719Y609579D01*
X318881Y609000D01*
X321119D01*
X323281Y609579D01*
X325219Y610698D01*
X326802Y612281D01*
X327921Y614219D01*
X328500Y616381D01*
Y618619D01*
X327921Y620781D01*
X326802Y622719D01*
X325219Y624302D01*
X323281Y625421D01*
X321119Y626000D01*
D02*
G37*
G36*
X121119Y238500D02*
X118881D01*
X116719Y237921D01*
X114781Y236802D01*
X113198Y235219D01*
X112079Y233281D01*
X111500Y231119D01*
Y228881D01*
X112079Y226719D01*
X113198Y224781D01*
X114781Y223198D01*
X116719Y222079D01*
X118881Y221500D01*
X121119D01*
X123281Y222079D01*
X125219Y223198D01*
X126802Y224781D01*
X127921Y226719D01*
X128500Y228881D01*
Y231119D01*
X127921Y233281D01*
X126802Y235219D01*
X125219Y236802D01*
X123281Y237921D01*
X121119Y238500D01*
D02*
G37*
%LPD*%
D15*
X112250Y620950D02*
D03*
Y480950D02*
D03*
D16*
Y633650D02*
D03*
Y646350D02*
D03*
Y659050D02*
D03*
X57750Y620950D02*
D03*
Y633650D02*
D03*
Y646350D02*
D03*
Y659050D02*
D03*
Y519050D02*
D03*
Y506350D02*
D03*
Y493650D02*
D03*
Y480950D02*
D03*
X112250Y519050D02*
D03*
Y506350D02*
D03*
Y493650D02*
D03*
D17*
X127000Y592000D02*
D03*
X127050Y585000D02*
D03*
X127000Y578000D02*
D03*
X108000D02*
D03*
X107950Y585000D02*
D03*
X108000Y592000D02*
D03*
X58000Y578000D02*
D03*
X57950Y585000D02*
D03*
X58000Y592000D02*
D03*
X77000D02*
D03*
X77050Y585000D02*
D03*
X77000Y578000D02*
D03*
D18*
X1027001Y589999D02*
D03*
Y559999D02*
D03*
X933001Y589999D02*
D03*
Y559999D02*
D03*
X1027001Y439999D02*
D03*
Y409999D02*
D03*
X933001Y439999D02*
D03*
Y409999D02*
D03*
X913000Y710000D02*
D03*
X1007000D02*
D03*
D19*
X980001Y628849D02*
D03*
Y521149D02*
D03*
Y478849D02*
D03*
Y371149D02*
D03*
X960000Y671150D02*
D03*
Y748850D02*
D03*
D20*
X55000Y559000D02*
D03*
Y546000D02*
D03*
X80000D02*
D03*
Y559000D02*
D03*
X105000D02*
D03*
Y546000D02*
D03*
X1005000Y661500D02*
D03*
Y648500D02*
D03*
X904000Y618500D02*
D03*
Y631500D02*
D03*
X130000Y546000D02*
D03*
Y559000D02*
D03*
D21*
X257250Y160000D02*
D03*
X222750D02*
D03*
D22*
X1025000Y665000D02*
D03*
Y645000D02*
D03*
X922000Y635000D02*
D03*
Y615000D02*
D03*
D23*
X817500Y162500D02*
D03*
X837500D02*
D03*
X817500Y195000D02*
D03*
X837500D02*
D03*
D24*
X801500Y162500D02*
D03*
X788500D02*
D03*
X801500Y195000D02*
D03*
X788500D02*
D03*
D25*
X760950Y487450D02*
D03*
X773650D02*
D03*
X786350D02*
D03*
X799050D02*
D03*
Y432550D02*
D03*
X786350D02*
D03*
X773650D02*
D03*
X760950D02*
D03*
X640950Y487450D02*
D03*
X653650D02*
D03*
X666350D02*
D03*
X679050D02*
D03*
Y432550D02*
D03*
X666350D02*
D03*
X653650D02*
D03*
X640950D02*
D03*
X520950Y432550D02*
D03*
X533650D02*
D03*
X546350D02*
D03*
X559050D02*
D03*
Y487450D02*
D03*
X546350D02*
D03*
X533650D02*
D03*
X520950D02*
D03*
X400950D02*
D03*
X413650D02*
D03*
X426350D02*
D03*
X439050D02*
D03*
Y432550D02*
D03*
X426350D02*
D03*
X413650D02*
D03*
X400950D02*
D03*
X280950Y487450D02*
D03*
X293650D02*
D03*
X306350D02*
D03*
X319050D02*
D03*
Y432550D02*
D03*
X306350D02*
D03*
X293650D02*
D03*
X280950D02*
D03*
X799050Y692550D02*
D03*
X786350D02*
D03*
X773650D02*
D03*
X760950D02*
D03*
Y747450D02*
D03*
X773650D02*
D03*
X786350D02*
D03*
X799050D02*
D03*
X679050Y702550D02*
D03*
X666350D02*
D03*
X653650D02*
D03*
X640950D02*
D03*
Y757450D02*
D03*
X653650D02*
D03*
X666350D02*
D03*
X679050D02*
D03*
X559050D02*
D03*
X546350D02*
D03*
X533650D02*
D03*
X520950D02*
D03*
Y702550D02*
D03*
X533650D02*
D03*
X546350D02*
D03*
X559050D02*
D03*
X439050Y757450D02*
D03*
X426350D02*
D03*
X413650D02*
D03*
X400950D02*
D03*
Y702550D02*
D03*
X413650D02*
D03*
X426350D02*
D03*
X439050D02*
D03*
X319050Y727450D02*
D03*
X306350D02*
D03*
X293650D02*
D03*
X280950D02*
D03*
Y672550D02*
D03*
X293650D02*
D03*
X306350D02*
D03*
X319050D02*
D03*
D46*
X780000Y466600D02*
D03*
X660000D02*
D03*
X540000Y466600D02*
D03*
X420000D02*
D03*
X300000D02*
D03*
X780000Y713400D02*
D03*
X660000Y723400D02*
D03*
X540000D02*
D03*
X420000Y723400D02*
D03*
X300000Y693400D02*
D03*
D47*
X905000Y581650D02*
Y618500D01*
X127000Y592000D02*
X136818D01*
X174000Y554818D01*
Y546000D02*
Y554818D01*
X91000Y529505D02*
Y592000D01*
X84246Y522750D02*
X91000Y529505D01*
X95100Y659050D02*
X112250D01*
X91000Y592000D02*
Y654949D01*
X95100Y659050D01*
X77000Y592000D02*
X91000D01*
X75754Y522750D02*
X84246D01*
X69750Y528755D02*
X75754Y522750D01*
X69750Y528755D02*
Y552250D01*
X63000Y559000D02*
X69750Y552250D01*
X55000Y559000D02*
X63000D01*
X80000Y533000D02*
Y546000D01*
X104000Y534000D02*
X104500Y534500D01*
Y545500D01*
X105000Y546000D01*
X55500Y532500D02*
X56000Y532000D01*
X55000Y546000D02*
X55500Y545500D01*
Y532500D02*
Y545500D01*
X57875Y592000D02*
Y620825D01*
X57750Y620950D02*
X57875Y620825D01*
Y592000D02*
X58000D01*
X123750Y578000D02*
X127000D01*
X118494Y569244D02*
Y572744D01*
X123750Y578000D01*
X117250Y568000D02*
X118494Y569244D01*
X130000Y561500D02*
X136899D01*
X141000Y565601D02*
Y577918D01*
X136899Y561500D02*
X141000Y565601D01*
X127050Y585000D02*
X133918D01*
X141000Y577918D01*
X108000Y585000D02*
Y592000D01*
Y585000D02*
X127050D01*
X107950D02*
X108000D01*
X45250Y578250D02*
X45500Y578000D01*
X58000D01*
X130750Y546000D02*
X136506Y540244D01*
Y536244D02*
X137750Y535000D01*
X130000Y546000D02*
X130750D01*
X136506Y536244D02*
Y540244D01*
X112250Y519050D02*
X113845D01*
X115000Y520205D01*
Y554675D01*
X110425Y559250D02*
X115000Y554675D01*
X107250Y559250D02*
X110425D01*
X105000Y561500D02*
X107250Y559250D01*
X105000Y561500D02*
Y578000D01*
X108000D01*
X77050D02*
Y585000D01*
X77000Y563750D02*
X79250Y561500D01*
X77000Y563750D02*
Y578000D01*
X79250Y561500D02*
X80000D01*
X77000Y578000D02*
X77050D01*
X57950Y585000D02*
X77050D01*
X964000Y374000D02*
Y576000D01*
X920000Y330000D02*
X964000Y374000D01*
X920000Y200000D02*
Y330000D01*
X319050Y428500D02*
Y432550D01*
Y428500D02*
X326256Y421294D01*
Y416244D02*
Y421294D01*
Y416244D02*
X327500Y415000D01*
X446256Y416244D02*
X447500Y415000D01*
X439050Y428500D02*
Y432550D01*
Y428500D02*
X446256Y421294D01*
Y416244D02*
Y421294D01*
X559050Y428500D02*
X566256Y421294D01*
Y416244D02*
X567500Y415000D01*
X566256Y416244D02*
Y421294D01*
X559050Y428500D02*
Y432550D01*
X679050Y428500D02*
X683756Y423794D01*
Y418744D02*
X685000Y417500D01*
X679050Y428500D02*
Y432550D01*
X683756Y418744D02*
Y423794D01*
X799050Y428500D02*
Y432550D01*
Y428500D02*
X806256Y421294D01*
Y416244D02*
Y421294D01*
Y416244D02*
X807500Y415000D01*
X280900Y727500D02*
X280950Y727450D01*
X267500Y727500D02*
X280900D01*
X387500Y757500D02*
X400900D01*
X400950Y757450D01*
X507500Y757500D02*
X520900D01*
X520950Y757450D01*
X627500Y757500D02*
X640900D01*
X640950Y757450D01*
X749259Y750000D02*
X751809Y747450D01*
X760950D01*
X747500Y750000D02*
X749259D01*
X676600Y115000D02*
X835000D01*
X644300Y147300D02*
X676600Y115000D01*
X669700Y147300D02*
X689500Y127500D01*
X832500D01*
X771300Y172700D02*
Y177800D01*
X788500Y195000D01*
X771300Y147300D02*
X773300D01*
X788500Y162500D01*
X801500Y195000D02*
X817500D01*
X801500Y162500D02*
X817500D01*
X832500Y127500D02*
X910000Y205000D01*
Y337500D01*
X835000Y115000D02*
X920000Y200000D01*
X1017500Y695000D02*
Y705400D01*
X1007000Y710000D02*
X1012900D01*
X1017500Y705400D01*
X950001Y589999D02*
X964000Y576000D01*
X1021500Y661500D02*
X1025000Y665000D01*
X1005000Y661500D02*
X1021500D01*
X918500Y631500D02*
X922000Y635000D01*
X905000Y631500D02*
X918500D01*
X905000Y581650D02*
X926651Y559999D01*
X933001D01*
X1005000Y648500D02*
X1005750D01*
X1008000Y646250D01*
Y645500D02*
Y646250D01*
Y645500D02*
X1011327Y642173D01*
Y632157D02*
Y642173D01*
X933001Y589999D02*
X950001D01*
X910000Y337500D02*
X955000Y382500D01*
Y435899D01*
X950900Y439999D02*
X955000Y435899D01*
X933001Y439999D02*
X950900D01*
D48*
X882700Y750500D02*
D03*
X882700Y623500D02*
D03*
X882700Y598100D02*
D03*
Y699700D02*
D03*
Y674300D02*
D03*
X882700Y801300D02*
D03*
X882700Y775900D02*
D03*
X857300Y801300D02*
D03*
X882700Y648900D02*
D03*
X882700Y572700D02*
D03*
X882700Y725100D02*
D03*
X882700Y547300D02*
D03*
X882700Y471100D02*
D03*
X882700Y394900D02*
D03*
X882700Y369500D02*
D03*
Y496500D02*
D03*
X882700Y445700D02*
D03*
X882700Y521900D02*
D03*
X882700Y420300D02*
D03*
X882700Y344100D02*
D03*
X882700Y318700D02*
D03*
X857300Y318700D02*
D03*
X857300Y699700D02*
D03*
Y725100D02*
D03*
X857300Y674300D02*
D03*
X857300Y648900D02*
D03*
X857300Y521900D02*
D03*
X857300Y623500D02*
D03*
Y572700D02*
D03*
Y750500D02*
D03*
X857300Y547300D02*
D03*
X857300Y775900D02*
D03*
X857300Y598100D02*
D03*
X857300Y496500D02*
D03*
X857300Y420300D02*
D03*
X857300Y445700D02*
D03*
X857300Y394900D02*
D03*
X857300Y344100D02*
D03*
X857300Y471100D02*
D03*
X857300Y369500D02*
D03*
D49*
X288700Y172700D02*
D03*
D50*
X771300Y147300D02*
D03*
Y172700D02*
D03*
X745900Y147300D02*
D03*
Y172700D02*
D03*
X720500Y147300D02*
D03*
Y172700D02*
D03*
X695100Y147300D02*
D03*
Y172700D02*
D03*
X669700Y147300D02*
D03*
Y172700D02*
D03*
X644300D02*
D03*
Y147300D02*
D03*
X618900D02*
D03*
Y172700D02*
D03*
X593500D02*
D03*
Y147300D02*
D03*
X568100D02*
D03*
Y172700D02*
D03*
X542700D02*
D03*
Y147300D02*
D03*
X517300D02*
D03*
Y172700D02*
D03*
X491900D02*
D03*
Y147300D02*
D03*
X466500D02*
D03*
X441100D02*
D03*
X415700D02*
D03*
X390300D02*
D03*
X364900D02*
D03*
X339500D02*
D03*
X314100D02*
D03*
X288700D02*
D03*
X314100Y172700D02*
D03*
X339500D02*
D03*
X364900D02*
D03*
X390300D02*
D03*
X415700D02*
D03*
X441100D02*
D03*
X466500D02*
D03*
D51*
X540000Y375000D02*
D03*
X780000Y375000D02*
D03*
X660000D02*
D03*
X420000Y375000D02*
D03*
X300000D02*
D03*
X540000Y815000D02*
D03*
X660000Y815000D02*
D03*
X300000Y785000D02*
D03*
X780000Y805000D02*
D03*
X420000Y815000D02*
D03*
D52*
X540000Y320000D02*
D03*
Y265000D02*
D03*
X780000Y265000D02*
D03*
Y320000D02*
D03*
X660000Y265000D02*
D03*
X660000Y320000D02*
D03*
X420000Y265000D02*
D03*
Y320000D02*
D03*
X300000Y265000D02*
D03*
Y320000D02*
D03*
X540000Y870000D02*
D03*
Y925000D02*
D03*
X660000Y870000D02*
D03*
Y925000D02*
D03*
X300000Y840000D02*
D03*
Y895000D02*
D03*
X780000Y860000D02*
D03*
Y915000D02*
D03*
X420000Y925000D02*
D03*
Y870000D02*
D03*
D53*
X185000Y470000D02*
D03*
Y660000D02*
D03*
D54*
Y360000D02*
D03*
Y770000D02*
D03*
D55*
X82000Y435000D02*
D03*
X80000Y533000D02*
D03*
X104000Y534000D02*
D03*
X56000Y532000D02*
D03*
X35000Y525000D02*
D03*
X117250Y568000D02*
D03*
X137750Y535000D02*
D03*
X45250Y578250D02*
D03*
X980000Y410000D02*
D03*
X1000000D02*
D03*
Y440000D02*
D03*
X980000D02*
D03*
X1005000Y470000D02*
D03*
X1035000Y490000D02*
D03*
X1005000D02*
D03*
X1035000Y510000D02*
D03*
X1005000D02*
D03*
Y530000D02*
D03*
X267500Y727500D02*
D03*
X387500Y757500D02*
D03*
X507500D02*
D03*
X627500D02*
D03*
X747500Y750000D02*
D03*
X786250Y672250D02*
D03*
X807500Y647500D02*
D03*
Y415000D02*
D03*
X327500D02*
D03*
X447500D02*
D03*
X567500D02*
D03*
X685000Y417500D02*
D03*
X770000Y80000D02*
D03*
X320000Y110000D02*
D03*
X640000Y30000D02*
D03*
X600000Y20000D02*
D03*
X420000Y30000D02*
D03*
X460000Y20000D02*
D03*
X280000Y90000D02*
D03*
X120000Y230000D02*
D03*
X180000Y160000D02*
D03*
X417500Y527500D02*
D03*
X797999Y610000D02*
D03*
Y514000D02*
D03*
X789999Y594000D02*
D03*
X782000Y514000D02*
D03*
X766000Y673999D02*
D03*
Y642000D02*
D03*
X749999Y706000D02*
D03*
Y673999D02*
D03*
X733999Y706000D02*
D03*
X742000Y689999D02*
D03*
X733999Y673999D02*
D03*
X742000Y498000D02*
D03*
X733999Y482000D02*
D03*
X742000Y466000D02*
D03*
X726000Y594000D02*
D03*
X717999Y578000D02*
D03*
X726000Y562000D02*
D03*
X717999Y546000D02*
D03*
X726000Y498000D02*
D03*
X717999Y482000D02*
D03*
X726000Y466000D02*
D03*
X702000Y578000D02*
D03*
X709999Y562000D02*
D03*
X702000Y546000D02*
D03*
X709999Y498000D02*
D03*
X702000Y482000D02*
D03*
X709999Y466000D02*
D03*
X693999Y562000D02*
D03*
Y498000D02*
D03*
X677999Y562000D02*
D03*
X653999Y546000D02*
D03*
X662000Y530000D02*
D03*
X637999Y546000D02*
D03*
X630000Y562000D02*
D03*
Y466000D02*
D03*
X613999D02*
D03*
X597999Y530000D02*
D03*
X582000D02*
D03*
X566000Y562000D02*
D03*
X558000Y546000D02*
D03*
X566000Y530000D02*
D03*
X550000Y562000D02*
D03*
X542000Y546000D02*
D03*
X550000Y530000D02*
D03*
X534000Y562000D02*
D03*
X526000Y546000D02*
D03*
X534000Y530000D02*
D03*
X518000Y562000D02*
D03*
X510000Y546000D02*
D03*
X518000Y530000D02*
D03*
X502000Y562000D02*
D03*
X494000Y546000D02*
D03*
X502000Y530000D02*
D03*
Y498000D02*
D03*
X494000Y482000D02*
D03*
X502000Y466000D02*
D03*
X486000Y562000D02*
D03*
X478000Y546000D02*
D03*
X486000Y530000D02*
D03*
Y498000D02*
D03*
X478000Y482000D02*
D03*
X486000Y466000D02*
D03*
X470000Y562000D02*
D03*
X462000Y546000D02*
D03*
X470000Y530000D02*
D03*
Y498000D02*
D03*
X462000Y482000D02*
D03*
X470000Y466000D02*
D03*
X454000Y562000D02*
D03*
X446000Y546000D02*
D03*
X454000Y530000D02*
D03*
Y498000D02*
D03*
X438000Y562000D02*
D03*
X430000Y546000D02*
D03*
X438000Y530000D02*
D03*
X422000Y562000D02*
D03*
X414000Y546000D02*
D03*
X406000Y562000D02*
D03*
X398000Y546000D02*
D03*
X390000Y562000D02*
D03*
Y466000D02*
D03*
X374000D02*
D03*
X358000Y530000D02*
D03*
X350000Y514000D02*
D03*
X342000Y530000D02*
D03*
X334000Y514000D02*
D03*
X326000Y562000D02*
D03*
X318000Y546000D02*
D03*
X326000Y530000D02*
D03*
X318000Y514000D02*
D03*
X310000Y562000D02*
D03*
X302000Y546000D02*
D03*
X310000Y530000D02*
D03*
X302000Y514000D02*
D03*
X294000Y562000D02*
D03*
X286000Y546000D02*
D03*
X294000Y530000D02*
D03*
X286000Y514000D02*
D03*
X278000Y562000D02*
D03*
X270000Y546000D02*
D03*
X278000Y530000D02*
D03*
X270000Y514000D02*
D03*
X262000Y562000D02*
D03*
X254000Y546000D02*
D03*
X262000Y530000D02*
D03*
X254000Y514000D02*
D03*
X262000Y498000D02*
D03*
X254000Y482000D02*
D03*
X262000Y466000D02*
D03*
X254000Y450000D02*
D03*
X246000Y562000D02*
D03*
X238000Y546000D02*
D03*
X246000Y530000D02*
D03*
X238000Y514000D02*
D03*
X246000Y498000D02*
D03*
X238000Y482000D02*
D03*
X246000Y466000D02*
D03*
X238000Y450000D02*
D03*
X246000Y434000D02*
D03*
X230000Y562000D02*
D03*
X222000Y546000D02*
D03*
X230000Y530000D02*
D03*
X222000Y418000D02*
D03*
X214000Y562000D02*
D03*
X206000Y546000D02*
D03*
X214000Y530000D02*
D03*
X206000Y418000D02*
D03*
X198000Y562000D02*
D03*
X190000Y546000D02*
D03*
X198000Y530000D02*
D03*
X190000Y418000D02*
D03*
X182000Y562000D02*
D03*
X174000Y546000D02*
D03*
X182000Y530000D02*
D03*
X174000Y418000D02*
D03*
X166000Y530000D02*
D03*
X158000Y418000D02*
D03*
X693999Y706000D02*
D03*
Y673999D02*
D03*
Y642000D02*
D03*
X686000Y626000D02*
D03*
X677999Y673999D02*
D03*
Y642000D02*
D03*
X669999Y626000D02*
D03*
X677999Y610000D02*
D03*
X669999Y594000D02*
D03*
X662000Y673999D02*
D03*
Y642000D02*
D03*
X653999Y626000D02*
D03*
X662000Y610000D02*
D03*
X653999Y594000D02*
D03*
X646000Y673999D02*
D03*
Y642000D02*
D03*
X637999Y626000D02*
D03*
X646000Y610000D02*
D03*
X622000Y722000D02*
D03*
X630000Y642000D02*
D03*
Y610000D02*
D03*
X613999Y642000D02*
D03*
X566000Y673999D02*
D03*
X558000Y626000D02*
D03*
X566000Y610000D02*
D03*
X550000Y673999D02*
D03*
X542000Y626000D02*
D03*
X550000Y610000D02*
D03*
X534000Y673999D02*
D03*
Y642000D02*
D03*
X526000Y626000D02*
D03*
X534000Y610000D02*
D03*
X510000Y722000D02*
D03*
Y689999D02*
D03*
X518000Y673999D02*
D03*
Y642000D02*
D03*
X510000Y626000D02*
D03*
X518000Y610000D02*
D03*
X494000Y722000D02*
D03*
X502000Y706000D02*
D03*
X494000Y689999D02*
D03*
X502000Y673999D02*
D03*
Y642000D02*
D03*
X494000Y626000D02*
D03*
X502000Y610000D02*
D03*
X478000Y722000D02*
D03*
X486000Y706000D02*
D03*
X478000Y689999D02*
D03*
X486000Y673999D02*
D03*
Y642000D02*
D03*
X478000Y626000D02*
D03*
X486000Y610000D02*
D03*
X462000Y722000D02*
D03*
X470000Y706000D02*
D03*
X462000Y689999D02*
D03*
X470000Y673999D02*
D03*
Y642000D02*
D03*
X462000Y626000D02*
D03*
X470000Y610000D02*
D03*
X454000Y706000D02*
D03*
Y673999D02*
D03*
Y642000D02*
D03*
X446000Y626000D02*
D03*
X454000Y610000D02*
D03*
X438000Y673999D02*
D03*
Y642000D02*
D03*
X430000Y626000D02*
D03*
X438000Y610000D02*
D03*
X422000Y673999D02*
D03*
Y642000D02*
D03*
X414000Y626000D02*
D03*
X422000Y610000D02*
D03*
X406000Y673999D02*
D03*
Y642000D02*
D03*
X398000Y626000D02*
D03*
X406000Y610000D02*
D03*
X382000Y722000D02*
D03*
X390000Y642000D02*
D03*
Y610000D02*
D03*
X374000Y642000D02*
D03*
X342000Y706000D02*
D03*
X318000Y594000D02*
D03*
X302000Y626000D02*
D03*
Y594000D02*
D03*
X294000Y642000D02*
D03*
X286000Y626000D02*
D03*
X294000Y610000D02*
D03*
X286000Y594000D02*
D03*
X270000Y657999D02*
D03*
X278000Y642000D02*
D03*
X270000Y626000D02*
D03*
X278000Y610000D02*
D03*
X270000Y594000D02*
D03*
X262000Y673999D02*
D03*
X254000Y657999D02*
D03*
X262000Y642000D02*
D03*
X254000Y626000D02*
D03*
X262000Y610000D02*
D03*
X254000Y594000D02*
D03*
X238000Y689999D02*
D03*
X246000Y673999D02*
D03*
X238000Y657999D02*
D03*
X246000Y642000D02*
D03*
X238000Y626000D02*
D03*
X246000Y610000D02*
D03*
X238000Y594000D02*
D03*
X230000Y610000D02*
D03*
X222000Y594000D02*
D03*
X214000Y610000D02*
D03*
X206000Y594000D02*
D03*
X198000Y610000D02*
D03*
X190000Y594000D02*
D03*
X182000Y610000D02*
D03*
X174000Y594000D02*
D03*
X166000Y610000D02*
D03*
X150000D02*
D03*
X607500Y567500D02*
D03*
X355000Y642500D02*
D03*
X320000Y617500D02*
D03*
X595000Y642500D02*
D03*
X1017500Y695000D02*
D03*
X945000Y540000D02*
D03*
X809000Y541000D02*
D03*
X1035000Y470000D02*
D03*
Y530000D02*
D03*
Y625000D02*
D03*
X977500Y587500D02*
D03*
X1002500D02*
D03*
X948500Y327500D02*
D03*
X788000Y541000D02*
D03*
X1011327Y632157D02*
D03*
X947000Y631000D02*
D03*
X998000Y630000D02*
D03*
X822500Y772500D02*
D03*
X700000Y830000D02*
D03*
X580000D02*
D03*
X462500Y782500D02*
D03*
X267500Y355000D02*
D03*
X267500Y367500D02*
D03*
Y380000D02*
D03*
X257500Y390000D02*
D03*
X270000Y392500D02*
D03*
X257500Y402500D02*
D03*
X270000Y405000D02*
D03*
X257500Y415000D02*
D03*
X270000Y417500D02*
D03*
X282500Y407500D02*
D03*
X295000D02*
D03*
X307500D02*
D03*
X330000Y362500D02*
D03*
X387500Y355000D02*
D03*
X387500Y367500D02*
D03*
Y380000D02*
D03*
X377500Y390000D02*
D03*
X390000Y392500D02*
D03*
X377500Y402500D02*
D03*
X390000Y405000D02*
D03*
X377500Y415000D02*
D03*
X390000Y417500D02*
D03*
X402500Y407500D02*
D03*
X415000D02*
D03*
X427500D02*
D03*
X450000Y362500D02*
D03*
X507500Y355000D02*
D03*
X507500Y367500D02*
D03*
Y380000D02*
D03*
X497500Y390000D02*
D03*
X510000Y392500D02*
D03*
X497500Y402500D02*
D03*
X510000Y405000D02*
D03*
X497500Y415000D02*
D03*
X510000Y417500D02*
D03*
X522500Y407500D02*
D03*
X535000D02*
D03*
X547500D02*
D03*
X570000Y362500D02*
D03*
X627500Y355000D02*
D03*
X627500Y367500D02*
D03*
Y380000D02*
D03*
X617500Y390000D02*
D03*
X630000Y392500D02*
D03*
X617500Y402500D02*
D03*
X630000Y405000D02*
D03*
X617500Y415000D02*
D03*
X630000Y417500D02*
D03*
X642500Y407500D02*
D03*
X655000D02*
D03*
X667500D02*
D03*
X690000Y362500D02*
D03*
X750000Y367500D02*
D03*
Y380000D02*
D03*
X737500Y390000D02*
D03*
X750000Y392500D02*
D03*
X737500Y402500D02*
D03*
X750000Y405000D02*
D03*
X737500Y415000D02*
D03*
X750000Y417500D02*
D03*
X762500Y407500D02*
D03*
X775000D02*
D03*
X787500D02*
D03*
X812500Y825000D02*
D03*
X822500Y815000D02*
D03*
X810000Y812500D02*
D03*
X810000Y772500D02*
D03*
X797500Y772500D02*
D03*
X785000D02*
D03*
X772500D02*
D03*
X750000Y817500D02*
D03*
Y805000D02*
D03*
Y792500D02*
D03*
X690000Y837500D02*
D03*
X677500Y782500D02*
D03*
X665000D02*
D03*
X652500D02*
D03*
X630000Y827500D02*
D03*
Y815000D02*
D03*
Y802500D02*
D03*
X570000Y835000D02*
D03*
X557500Y782500D02*
D03*
X545000D02*
D03*
X532500D02*
D03*
X510000Y827500D02*
D03*
Y815000D02*
D03*
Y802500D02*
D03*
X452500Y835000D02*
D03*
X462500Y825000D02*
D03*
X450000Y822500D02*
D03*
X450000Y782500D02*
D03*
X437500Y782500D02*
D03*
X425000D02*
D03*
X412500D02*
D03*
X390000Y827500D02*
D03*
Y815000D02*
D03*
Y802500D02*
D03*
X732500Y527500D02*
D03*
X767750D02*
D03*
X270000Y772500D02*
D03*
Y785000D02*
D03*
Y797500D02*
D03*
X292500Y752500D02*
D03*
X305000D02*
D03*
X317500D02*
D03*
X330000Y742500D02*
D03*
X342500Y745000D02*
D03*
X330000Y755000D02*
D03*
X342500Y757500D02*
D03*
X330000Y767500D02*
D03*
X342500Y770000D02*
D03*
X330000Y780000D02*
D03*
X342500Y782500D02*
D03*
X330000Y792500D02*
D03*
X342500Y795000D02*
D03*
X332500Y805000D02*
D03*
M02*
