G04*
G04 #@! TF.GenerationSoftware,Altium Limited,Altium Designer,24.6.1 (21)*
G04*
G04 Layer_Physical_Order=4*
G04 Layer_Color=16711680*
%FSLAX44Y44*%
%MOMM*%
G71*
G04*
G04 #@! TF.SameCoordinates,B0C6F459-AFBE-4FB2-BAD8-FBBEB889AAAA*
G04*
G04*
G04 #@! TF.FilePolarity,Positive*
G04*
G01*
G75*
%ADD15R,1.4500X0.6000*%
%ADD16O,1.4500X0.6000*%
%ADD20R,0.9500X0.8000*%
%ADD24R,0.8000X0.9500*%
%ADD31R,1.0500X0.9000*%
%ADD35R,0.9000X1.0500*%
%ADD47C,0.3500*%
%ADD48C,1.8000*%
%ADD49R,1.5300X1.5300*%
%ADD50C,1.5300*%
%ADD51R,4.8000X4.8000*%
%ADD52C,4.8000*%
%ADD53R,8.0000X8.0000*%
%ADD54C,8.0000*%
%ADD55C,1.0000*%
%ADD57R,1.7500X1.2500*%
%ADD58R,1.5000X2.1200*%
%ADD59O,0.6000X1.4500*%
%ADD60R,0.6000X1.4500*%
%ADD61R,2.1000X2.2500*%
%ADD62R,0.5334X1.7018*%
%ADD63C,1.8000*%
%ADD64C,0.7500*%
G36*
X508826Y1052026D02*
X508367Y1051633D01*
X505249Y1047983D01*
X502740Y1043889D01*
X500903Y1039454D01*
X499782Y1034786D01*
X499406Y1030000D01*
X499782Y1025214D01*
X500903Y1020546D01*
X502740Y1016111D01*
X505249Y1012017D01*
X508367Y1008367D01*
X512017Y1005249D01*
X516110Y1002740D01*
X520546Y1000903D01*
X525214Y999782D01*
X530000Y999406D01*
X534786Y999782D01*
X539454Y1000903D01*
X543890Y1002740D01*
X547983Y1005249D01*
X551633Y1008367D01*
X554751Y1012017D01*
X557260Y1016111D01*
X559097Y1020546D01*
X560218Y1025214D01*
X560594Y1030000D01*
X560218Y1034786D01*
X559097Y1039454D01*
X557260Y1043889D01*
X554751Y1047983D01*
X551633Y1051633D01*
X551188Y1052014D01*
X552527Y1055473D01*
X554514Y1055411D01*
X562484Y1054918D01*
X562547Y1054926D01*
X562609Y1054912D01*
X564283Y1054860D01*
X567594Y1053940D01*
X570743Y1052351D01*
X573521Y1050178D01*
X575822Y1047505D01*
X577557Y1044435D01*
X578660Y1041085D01*
X579088Y1037584D01*
X578957Y1035826D01*
X578981Y1035624D01*
X578946Y1035425D01*
X579035Y1031726D01*
X578835Y1029616D01*
X578866Y1029316D01*
X578823Y1029017D01*
X579072Y1024308D01*
X579172Y1023919D01*
X579193Y1023518D01*
X580356Y1018949D01*
X580530Y1018586D01*
X580629Y1018197D01*
X582662Y1013942D01*
X582902Y1013621D01*
X583075Y1013258D01*
X585899Y1009482D01*
X586198Y1009214D01*
X586438Y1008892D01*
X589944Y1005739D01*
X590289Y1005534D01*
X590588Y1005266D01*
X594642Y1002858D01*
X595020Y1002724D01*
X595366Y1002518D01*
X599811Y1000947D01*
X600111Y1000904D01*
X600390Y1000790D01*
X602707Y1000338D01*
X602787Y1000339D01*
X602863Y1000311D01*
X605311Y999932D01*
X610202Y999122D01*
X615084Y998261D01*
X619956Y997350D01*
X622387Y996868D01*
X622467Y996869D01*
X622543Y996841D01*
X624874Y996472D01*
X625176Y996484D01*
X625472Y996423D01*
X630188Y996378D01*
X630583Y996453D01*
X630984Y996449D01*
X635618Y997325D01*
X635991Y997475D01*
X636385Y997550D01*
X640759Y999313D01*
X641095Y999533D01*
X641468Y999684D01*
X645414Y1002266D01*
X645700Y1002548D01*
X646036Y1002768D01*
X649402Y1006071D01*
X649629Y1006403D01*
X649915Y1006684D01*
X652572Y1010580D01*
X652730Y1010950D01*
X652956Y1011282D01*
X654802Y1015621D01*
X654864Y1015917D01*
X654995Y1016189D01*
X655530Y1018240D01*
X656880Y1021689D01*
X656905Y1021833D01*
X656975Y1021962D01*
X657515Y1023694D01*
X659250Y1026880D01*
X661573Y1029667D01*
X664395Y1031948D01*
X667608Y1033633D01*
X671088Y1034660D01*
X674701Y1034988D01*
X678309Y1034605D01*
X680041Y1034065D01*
X680068Y1034062D01*
X680091Y1034050D01*
X690850Y1030846D01*
X712076Y1023526D01*
X732970Y1015307D01*
X753495Y1006204D01*
X773612Y996232D01*
X793285Y985413D01*
X812479Y973763D01*
X831158Y961304D01*
X849289Y948060D01*
X866838Y934054D01*
X883773Y919313D01*
X900064Y903862D01*
X915680Y887729D01*
X930594Y870946D01*
X944778Y853541D01*
X958207Y835546D01*
X970855Y816995D01*
X982700Y797922D01*
X993721Y778359D01*
X1003897Y758345D01*
X1011917Y740750D01*
X1009666Y737250D01*
X1005000D01*
Y727500D01*
Y717750D01*
X1015500D01*
Y723114D01*
X1018935Y723784D01*
X1021641Y717106D01*
X1026777Y702692D01*
X1023744Y700776D01*
X1022719Y701802D01*
X1020781Y702921D01*
X1018619Y703500D01*
X1016381D01*
X1014219Y702921D01*
X1012281Y701802D01*
X1011750Y701271D01*
X1008250Y702721D01*
Y706500D01*
X1005353D01*
Y706750D01*
X1004945Y708798D01*
X1003785Y710535D01*
X999804Y714516D01*
X1001143Y717750D01*
X1001500D01*
Y727500D01*
Y737250D01*
X991000D01*
X991000Y737250D01*
X989000D01*
Y737250D01*
X987500Y737250D01*
X942500D01*
X940000Y737250D01*
X937500Y737250D01*
X928500D01*
Y727500D01*
X926750D01*
D01*
X928500D01*
Y717750D01*
X937097D01*
X939000Y717750D01*
X940597Y714911D01*
Y712701D01*
X940272Y712278D01*
X939617Y710697D01*
X939394Y709000D01*
Y700500D01*
X939617Y698803D01*
X940272Y697222D01*
X941314Y695864D01*
X942672Y694822D01*
X944253Y694167D01*
X945950Y693944D01*
X947647Y694167D01*
X949228Y694822D01*
X949969Y695391D01*
X952977Y694858D01*
X953615Y694590D01*
X953838Y694353D01*
X954865Y692815D01*
X958966Y688715D01*
X960702Y687555D01*
X961564Y687383D01*
X963037Y683907D01*
X942250Y663120D01*
X941885Y663132D01*
X938750Y664224D01*
X938750Y666000D01*
Y668750D01*
X930000D01*
X921250D01*
Y666000D01*
X921250Y662500D01*
X918640Y660353D01*
X909187D01*
X907139Y659945D01*
X905402Y658785D01*
X900783Y654165D01*
X894094D01*
X892702Y656575D01*
X890375Y658903D01*
X889157Y659606D01*
X889157Y663595D01*
X890375Y664298D01*
X892702Y666625D01*
X894348Y669475D01*
X895172Y672550D01*
X882700D01*
Y676050D01*
X895172D01*
X894348Y679125D01*
X892702Y681975D01*
X890375Y684303D01*
X889158Y685006D01*
Y688995D01*
X890375Y689698D01*
X892702Y692025D01*
X894348Y694876D01*
X895172Y697950D01*
X882700D01*
Y701450D01*
X895172D01*
X894348Y704525D01*
X892702Y707376D01*
X890375Y709703D01*
X889158Y710405D01*
X889158Y714395D01*
X890375Y715098D01*
X892702Y717425D01*
X894348Y720275D01*
X895172Y723350D01*
X882700D01*
Y726850D01*
X895172D01*
X894348Y729925D01*
X892702Y732775D01*
X890375Y735102D01*
X889157Y735805D01*
X889158Y739795D01*
X890375Y740498D01*
X892703Y742825D01*
X894348Y745675D01*
X895172Y748750D01*
X882700D01*
Y752250D01*
X895172D01*
X894348Y755325D01*
X892703Y758175D01*
X890375Y760502D01*
X889158Y761205D01*
X889158Y765195D01*
X890375Y765898D01*
X892702Y768225D01*
X894348Y771075D01*
X895172Y774150D01*
X882700D01*
Y777650D01*
X895172D01*
X894348Y780725D01*
X892702Y783575D01*
X890375Y785902D01*
X889158Y786605D01*
X889158Y790595D01*
X890375Y791297D01*
X892702Y793625D01*
X894348Y796475D01*
X895200Y799654D01*
Y802945D01*
X894348Y806125D01*
X892702Y808975D01*
X890375Y811302D01*
X887525Y812948D01*
X884346Y813800D01*
X881054D01*
X877875Y812948D01*
X875025Y811302D01*
X872697Y808975D01*
X872488Y808613D01*
X867512D01*
X867303Y808975D01*
X864975Y811302D01*
X862125Y812948D01*
X858946Y813800D01*
X855655D01*
X852475Y812948D01*
X849625Y811302D01*
X847298Y808975D01*
X845652Y806125D01*
X844800Y802946D01*
Y799654D01*
X844909Y799250D01*
X836802Y791143D01*
X833569Y792483D01*
Y820000D01*
X833297Y821366D01*
X832523Y822523D01*
X820023Y835023D01*
X818866Y835797D01*
X817500Y836069D01*
X799801D01*
X798928Y837437D01*
X798459Y839569D01*
X800976Y842085D01*
X803520Y845587D01*
X805485Y849444D01*
X806823Y853560D01*
X807500Y857836D01*
Y862164D01*
X806823Y866440D01*
X805485Y870556D01*
X803520Y874413D01*
X800976Y877915D01*
X797915Y880976D01*
X794413Y883520D01*
X790556Y885485D01*
X786440Y886823D01*
X782164Y887500D01*
X777836D01*
X773560Y886823D01*
X769444Y885485D01*
X765587Y883520D01*
X762085Y880976D01*
X759024Y877915D01*
X756480Y874413D01*
X754515Y870556D01*
X753177Y866440D01*
X752500Y862164D01*
Y857836D01*
X753177Y853560D01*
X754515Y849444D01*
X756480Y845587D01*
X759024Y842085D01*
X761541Y839569D01*
X761072Y837437D01*
X760199Y836069D01*
X756478D01*
X750023Y842523D01*
X748866Y843297D01*
X747500Y843569D01*
X744000D01*
Y855500D01*
X716000D01*
Y843207D01*
X714977Y842523D01*
X709977Y837523D01*
X706471Y838576D01*
X700023Y845023D01*
X698866Y845797D01*
X697500Y846068D01*
X679801D01*
X678928Y847437D01*
X678459Y849568D01*
X680976Y852085D01*
X683520Y855587D01*
X685485Y859444D01*
X686823Y863560D01*
X687500Y867836D01*
Y872164D01*
X686823Y876440D01*
X685485Y880556D01*
X683520Y884413D01*
X680976Y887915D01*
X677915Y890976D01*
X674413Y893520D01*
X670556Y895485D01*
X666440Y896823D01*
X662164Y897500D01*
X657836D01*
X653560Y896823D01*
X649444Y895485D01*
X645587Y893520D01*
X642085Y890976D01*
X639024Y887915D01*
X636480Y884413D01*
X634515Y880556D01*
X633177Y876440D01*
X632500Y872164D01*
Y867836D01*
X633177Y863560D01*
X634515Y859444D01*
X636480Y855587D01*
X639024Y852085D01*
X641541Y849568D01*
X641072Y847437D01*
X640199Y846068D01*
X636478D01*
X630023Y852523D01*
X628866Y853297D01*
X627500Y853568D01*
X624000D01*
Y865500D01*
X596000D01*
Y853207D01*
X594977Y852523D01*
X589977Y847523D01*
X589203Y846366D01*
X588931Y845000D01*
Y840688D01*
X585698Y839349D01*
X580023Y845023D01*
X578866Y845797D01*
X577500Y846068D01*
X559801D01*
X558928Y847437D01*
X558459Y849568D01*
X560976Y852085D01*
X563520Y855587D01*
X565485Y859444D01*
X566823Y863560D01*
X567500Y867836D01*
Y872164D01*
X566823Y876440D01*
X565485Y880556D01*
X563520Y884413D01*
X560976Y887915D01*
X557915Y890976D01*
X554413Y893520D01*
X550556Y895485D01*
X546440Y896823D01*
X542164Y897500D01*
X537836D01*
X533560Y896823D01*
X529444Y895485D01*
X525587Y893520D01*
X522085Y890976D01*
X519024Y887915D01*
X516480Y884413D01*
X514515Y880556D01*
X513177Y876440D01*
X512500Y872164D01*
Y867836D01*
X513177Y863560D01*
X514515Y859444D01*
X516480Y855587D01*
X519024Y852085D01*
X521541Y849568D01*
X521072Y847437D01*
X520199Y846068D01*
X516478D01*
X510023Y852523D01*
X508866Y853297D01*
X507500Y853568D01*
X504000D01*
Y865500D01*
X476000D01*
Y853207D01*
X474977Y852523D01*
X469977Y847523D01*
X469203Y846366D01*
X468931Y845000D01*
Y840688D01*
X465698Y839349D01*
X460023Y845023D01*
X458866Y845797D01*
X457500Y846069D01*
X439801D01*
X438928Y847437D01*
X438459Y849569D01*
X440976Y852085D01*
X443520Y855587D01*
X445485Y859444D01*
X446823Y863560D01*
X447500Y867836D01*
Y872164D01*
X446823Y876440D01*
X445485Y880556D01*
X443520Y884413D01*
X440976Y887915D01*
X437915Y890976D01*
X434413Y893520D01*
X430556Y895485D01*
X426440Y896823D01*
X422164Y897500D01*
X417836D01*
X413560Y896823D01*
X409444Y895485D01*
X405587Y893520D01*
X402085Y890976D01*
X399024Y887915D01*
X396480Y884413D01*
X394515Y880556D01*
X393177Y876440D01*
X392500Y872164D01*
Y867836D01*
X393177Y863560D01*
X394515Y859444D01*
X396480Y855587D01*
X399024Y852085D01*
X401541Y849569D01*
X401072Y847437D01*
X400199Y846069D01*
X396478D01*
X390023Y852523D01*
X388866Y853297D01*
X387500Y853569D01*
X384000D01*
Y865500D01*
X356000D01*
Y853207D01*
X354977Y852523D01*
X349977Y847523D01*
X349203Y846366D01*
X348931Y845000D01*
X348931Y815000D01*
X349203Y813634D01*
X349977Y812477D01*
X382477Y779977D01*
X392477Y769977D01*
X393634Y769203D01*
X395000Y768931D01*
X449000D01*
Y762853D01*
X394168D01*
X392719Y764302D01*
X390781Y765421D01*
X388619Y766000D01*
X386381D01*
X384219Y765421D01*
X382281Y764302D01*
X380698Y762719D01*
X379579Y760781D01*
X379000Y758619D01*
Y756570D01*
X363715Y741285D01*
X362555Y739548D01*
X362147Y737500D01*
Y719000D01*
X359250D01*
Y704000D01*
Y691000D01*
X361476D01*
Y687728D01*
X359295Y686638D01*
X358009Y686380D01*
X357817Y686495D01*
X356928Y687177D01*
X355347Y687832D01*
X353650Y688055D01*
X351954Y687832D01*
X350372Y687177D01*
X349483Y686495D01*
X348885Y686135D01*
X345715D01*
X345117Y686495D01*
X344228Y687177D01*
X342647Y687832D01*
X340950Y688055D01*
X339254Y687832D01*
X337672Y687177D01*
X337093Y686732D01*
X334000Y685750D01*
X334000Y685750D01*
X306820D01*
X274539Y718031D01*
X274302Y722281D01*
X275421Y724219D01*
X276000Y726381D01*
Y728619D01*
X275421Y730781D01*
X274302Y732719D01*
X272719Y734302D01*
X270781Y735421D01*
X268619Y736000D01*
X266381D01*
X264500Y735496D01*
X264063Y735527D01*
X261000Y737604D01*
Y742950D01*
X239000D01*
Y714750D01*
X261000D01*
Y714750D01*
X263967Y713463D01*
X303715Y673715D01*
X305452Y672555D01*
X306000Y672446D01*
Y669250D01*
X310646D01*
X311250Y666000D01*
X311250D01*
Y653500D01*
X311250Y650000D01*
X311250Y646500D01*
Y643750D01*
X328750D01*
Y646500D01*
X328750Y650000D01*
X331965Y650687D01*
X365717D01*
X367198Y647219D01*
X366079Y645280D01*
X365500Y643119D01*
Y640881D01*
X366079Y638719D01*
X367077Y636990D01*
X366794Y635650D01*
X365575Y633453D01*
X364654Y633332D01*
X363072Y632677D01*
X362183Y631995D01*
X361585Y631635D01*
X358415D01*
X357817Y631995D01*
X356928Y632677D01*
X355400Y633310D01*
Y622749D01*
Y612188D01*
X356928Y612821D01*
X357498Y613258D01*
X360146Y612376D01*
X360998Y611695D01*
Y592252D01*
X350318D01*
X346303Y596267D01*
Y611695D01*
X347155Y612376D01*
X349803Y613258D01*
X350372Y612821D01*
X351900Y612188D01*
Y622749D01*
Y633310D01*
X350372Y632677D01*
X349483Y631995D01*
X348885Y631635D01*
X345715D01*
X345117Y631995D01*
X344228Y632677D01*
X342647Y633332D01*
X340950Y633555D01*
X339254Y633332D01*
X337672Y632677D01*
X336315Y631635D01*
X335273Y630277D01*
X334618Y628696D01*
X334394Y626999D01*
Y618499D01*
X334618Y616802D01*
X335273Y615221D01*
X335598Y614798D01*
Y594050D01*
X336005Y592001D01*
X337165Y590265D01*
X344315Y583115D01*
X346052Y581954D01*
X348101Y581547D01*
X348297D01*
Y561149D01*
X347450Y558000D01*
X337351D01*
X334500Y560881D01*
X334500Y563119D01*
X333920Y565280D01*
X332801Y567219D01*
X331219Y568801D01*
X329281Y569920D01*
X327119Y570500D01*
X324881D01*
X322719Y569920D01*
X320780Y568801D01*
X320241Y568261D01*
X318000Y567582D01*
X315759Y568261D01*
X315219Y568801D01*
X313281Y569920D01*
X311119Y570500D01*
X308881D01*
X306719Y569920D01*
X304781Y568801D01*
X304241Y568261D01*
X302000Y567582D01*
X299759Y568261D01*
X299219Y568801D01*
X297281Y569920D01*
X295119Y570500D01*
X292881D01*
X290719Y569920D01*
X288781Y568801D01*
X288241Y568261D01*
X286000Y567582D01*
X283759Y568261D01*
X283219Y568801D01*
X281280Y569920D01*
X279119Y570500D01*
X276881D01*
X274719Y569920D01*
X272781Y568801D01*
X272241Y568261D01*
X270000Y567582D01*
X267759Y568261D01*
X267219Y568801D01*
X265280Y569920D01*
X263119Y570500D01*
X260881D01*
X258719Y569920D01*
X256781Y568801D01*
X256241Y568261D01*
X254000Y567582D01*
X251759Y568261D01*
X251219Y568801D01*
X249281Y569920D01*
X247119Y570500D01*
X244881D01*
X242719Y569920D01*
X240781Y568801D01*
X240241Y568261D01*
X238000Y567582D01*
X235759Y568261D01*
X235219Y568801D01*
X233281Y569920D01*
X231119Y570500D01*
X228881D01*
X226719Y569920D01*
X224781Y568801D01*
X224241Y568261D01*
X222000Y567582D01*
X219759Y568261D01*
X219219Y568801D01*
X217281Y569920D01*
X215119Y570500D01*
X212881D01*
X210719Y569920D01*
X208781Y568801D01*
X208241Y568261D01*
X206000Y567582D01*
X203759Y568261D01*
X203219Y568801D01*
X201281Y569920D01*
X199119Y570500D01*
X196881D01*
X194719Y569920D01*
X192781Y568801D01*
X192241Y568261D01*
X190000Y567582D01*
X187759Y568261D01*
X187219Y568801D01*
X185281Y569920D01*
X183119Y570500D01*
X180881D01*
X178719Y569920D01*
X176781Y568801D01*
X175198Y567219D01*
X174079Y565280D01*
X173500Y563119D01*
Y560881D01*
X174079Y558719D01*
X174494Y558000D01*
X172993Y554744D01*
X172667Y554442D01*
X170719Y553920D01*
X168781Y552801D01*
X167198Y551219D01*
X166079Y549281D01*
X165500Y547119D01*
Y544880D01*
X166079Y542719D01*
X166494Y542000D01*
X164993Y538744D01*
X164667Y538442D01*
X162719Y537920D01*
X160781Y536801D01*
X159198Y535219D01*
X158079Y533280D01*
X157500Y531119D01*
Y528881D01*
X158079Y526719D01*
X159198Y524781D01*
X160781Y523198D01*
X162719Y522079D01*
X164881Y521500D01*
X167119D01*
X169281Y522079D01*
X171219Y523198D01*
X171759Y523738D01*
X174000Y524417D01*
X176241Y523738D01*
X176781Y523198D01*
X178719Y522079D01*
X180881Y521500D01*
X183119D01*
X185281Y522079D01*
X187219Y523198D01*
X187759Y523738D01*
X190000Y524417D01*
X192241Y523738D01*
X192781Y523198D01*
X194719Y522079D01*
X196881Y521500D01*
X199119D01*
X201281Y522079D01*
X203219Y523198D01*
X203759Y523738D01*
X206000Y524417D01*
X208241Y523738D01*
X208781Y523198D01*
X210719Y522079D01*
X212881Y521500D01*
X215119D01*
X217281Y522079D01*
X219219Y523198D01*
X219759Y523738D01*
X222000Y524417D01*
X224241Y523738D01*
X224781Y523198D01*
X226719Y522079D01*
X228666Y521557D01*
X228993Y521255D01*
X230494Y518000D01*
X230079Y517281D01*
X229854Y516439D01*
X229163Y514940D01*
X226451Y513500D01*
X226000D01*
X141500D01*
Y440353D01*
X88668D01*
X87219Y441802D01*
X85281Y442921D01*
X83119Y443500D01*
X80881D01*
X78719Y442921D01*
X76781Y441802D01*
X75198Y440219D01*
X74079Y438281D01*
X73500Y436119D01*
Y433881D01*
X74079Y431719D01*
X75198Y429781D01*
X76781Y428198D01*
X78719Y427079D01*
X80881Y426500D01*
X83119D01*
X85281Y427079D01*
X87219Y428198D01*
X88668Y429647D01*
X141500D01*
Y426500D01*
X149529D01*
X150824Y423955D01*
X151072Y423000D01*
X150079Y421281D01*
X149500Y419119D01*
Y416881D01*
X150079Y414719D01*
X151198Y412780D01*
X152781Y411198D01*
X154719Y410079D01*
X156881Y409500D01*
X159119D01*
X161281Y410079D01*
X163219Y411198D01*
X163759Y411738D01*
X166000Y412417D01*
X168241Y411738D01*
X168781Y411198D01*
X170719Y410079D01*
X172881Y409500D01*
X175119D01*
X177281Y410079D01*
X179219Y411198D01*
X179759Y411738D01*
X182000Y412417D01*
X184241Y411738D01*
X184781Y411198D01*
X186719Y410079D01*
X188881Y409500D01*
X191119D01*
X193281Y410079D01*
X195219Y411198D01*
X195759Y411738D01*
X198000Y412417D01*
X200241Y411738D01*
X200781Y411198D01*
X202719Y410079D01*
X204881Y409500D01*
X207119D01*
X209281Y410079D01*
X211219Y411198D01*
X211759Y411738D01*
X214000Y412417D01*
X216241Y411738D01*
X216781Y411198D01*
X218719Y410079D01*
X220881Y409500D01*
X223119D01*
X225281Y410079D01*
X227219Y411198D01*
X228801Y412780D01*
X229920Y414719D01*
X230500Y416881D01*
Y419119D01*
X229920Y421281D01*
X228801Y423219D01*
X228500Y426500D01*
X228500Y428103D01*
Y442775D01*
X228666Y442898D01*
X232000Y443979D01*
X232781Y443198D01*
X234719Y442079D01*
X236667Y441557D01*
X236993Y441255D01*
X238494Y438000D01*
X238079Y437281D01*
X237500Y435119D01*
Y432881D01*
X238079Y430719D01*
X239198Y428781D01*
X240781Y427198D01*
X242719Y426079D01*
X244881Y425500D01*
X247119D01*
X248327Y425823D01*
X250139Y422685D01*
X232477Y405023D01*
X231703Y403866D01*
X231431Y402500D01*
Y360000D01*
X231703Y358634D01*
X232477Y357477D01*
X236000Y353953D01*
Y352500D01*
X236413D01*
X237575Y351000D01*
X236000Y347500D01*
X236000D01*
Y334500D01*
X250000D01*
X264000D01*
Y346431D01*
X283821D01*
X283893Y346313D01*
X284777Y342931D01*
X282085Y340976D01*
X279024Y337915D01*
X276480Y334413D01*
X274515Y330556D01*
X273177Y326440D01*
X272500Y322164D01*
Y317836D01*
X273177Y313560D01*
X274515Y309444D01*
X276480Y305587D01*
X279024Y302085D01*
X282085Y299024D01*
X285587Y296480D01*
X289444Y294515D01*
X293560Y293177D01*
X297836Y292500D01*
X302164D01*
X306440Y293177D01*
X310556Y294515D01*
X314413Y296480D01*
X317915Y299024D01*
X320976Y302085D01*
X323520Y305587D01*
X325485Y309444D01*
X326823Y313560D01*
X327500Y317836D01*
Y322164D01*
X326823Y326440D01*
X325485Y330556D01*
X323520Y334413D01*
X320976Y337915D01*
X317915Y340976D01*
X315223Y342931D01*
X316107Y346313D01*
X316179Y346431D01*
X327500D01*
X328866Y346703D01*
X330023Y347477D01*
X348198Y365651D01*
X351431Y364312D01*
Y360000D01*
X351703Y358634D01*
X352477Y357477D01*
X356000Y353953D01*
Y352500D01*
X356413D01*
X357575Y351000D01*
X356000Y347500D01*
X356000D01*
Y334500D01*
X370000D01*
X384000D01*
Y346431D01*
X403821D01*
X403893Y346313D01*
X404777Y342931D01*
X402085Y340976D01*
X399024Y337915D01*
X396480Y334413D01*
X394515Y330556D01*
X393177Y326440D01*
X392500Y322164D01*
Y317836D01*
X393177Y313560D01*
X394515Y309444D01*
X396480Y305587D01*
X399024Y302085D01*
X402085Y299024D01*
X405587Y296480D01*
X409444Y294515D01*
X413560Y293177D01*
X417836Y292500D01*
X422164D01*
X426440Y293177D01*
X430556Y294515D01*
X434413Y296480D01*
X437915Y299024D01*
X440976Y302085D01*
X443520Y305587D01*
X445485Y309444D01*
X446823Y313560D01*
X447500Y317836D01*
Y322164D01*
X446823Y326440D01*
X445485Y330556D01*
X443520Y334413D01*
X440976Y337915D01*
X437915Y340976D01*
X435223Y342931D01*
X436107Y346313D01*
X436179Y346431D01*
X447500D01*
X448866Y346703D01*
X450023Y347477D01*
X468198Y365651D01*
X471431Y364312D01*
Y360000D01*
X471703Y358634D01*
X472477Y357477D01*
X476000Y353953D01*
Y352500D01*
X476413D01*
X477575Y351000D01*
X476000Y347500D01*
X476000D01*
Y334500D01*
X490000D01*
X504000D01*
Y346431D01*
X523821D01*
X523893Y346313D01*
X524777Y342931D01*
X522085Y340976D01*
X519024Y337915D01*
X516480Y334413D01*
X514515Y330556D01*
X513177Y326440D01*
X512500Y322164D01*
Y317836D01*
X513177Y313560D01*
X514515Y309444D01*
X516480Y305587D01*
X519024Y302085D01*
X522085Y299024D01*
X525587Y296480D01*
X529444Y294515D01*
X533560Y293177D01*
X537836Y292500D01*
X542164D01*
X546440Y293177D01*
X550556Y294515D01*
X554413Y296480D01*
X557915Y299024D01*
X560976Y302085D01*
X563520Y305587D01*
X565485Y309444D01*
X566823Y313560D01*
X567500Y317836D01*
Y322164D01*
X566823Y326440D01*
X565485Y330556D01*
X563520Y334413D01*
X560976Y337915D01*
X557915Y340976D01*
X555224Y342931D01*
X556107Y346313D01*
X556179Y346431D01*
X567500D01*
X568866Y346703D01*
X570023Y347477D01*
X588198Y365651D01*
X591431Y364312D01*
Y360000D01*
X591703Y358634D01*
X592477Y357477D01*
X596000Y353953D01*
Y352500D01*
X596413D01*
X597575Y351000D01*
X596000Y347500D01*
X596000D01*
Y334500D01*
X610000D01*
X624000D01*
Y346431D01*
X643821D01*
X643893Y346313D01*
X644777Y342931D01*
X642085Y340976D01*
X639024Y337915D01*
X636480Y334413D01*
X634515Y330556D01*
X633177Y326440D01*
X632500Y322164D01*
Y317836D01*
X633177Y313560D01*
X634515Y309444D01*
X636480Y305587D01*
X639024Y302085D01*
X642085Y299024D01*
X645587Y296480D01*
X649444Y294515D01*
X653560Y293177D01*
X657836Y292500D01*
X662164D01*
X666440Y293177D01*
X670556Y294515D01*
X674413Y296480D01*
X677915Y299024D01*
X680976Y302085D01*
X683520Y305587D01*
X685485Y309444D01*
X686823Y313560D01*
X687500Y317836D01*
Y322164D01*
X686823Y326440D01*
X685485Y330556D01*
X683520Y334413D01*
X680976Y337915D01*
X677915Y340976D01*
X675223Y342931D01*
X676107Y346313D01*
X676179Y346431D01*
X687500D01*
X688866Y346703D01*
X690023Y347477D01*
X708198Y365651D01*
X711431Y364312D01*
Y360000D01*
X711703Y358634D01*
X712477Y357477D01*
X716000Y353953D01*
Y352500D01*
X716413D01*
X717575Y351000D01*
X716000Y347500D01*
X716000D01*
Y334500D01*
X730000D01*
X744000D01*
Y346431D01*
X763821D01*
X763893Y346313D01*
X764777Y342931D01*
X762085Y340976D01*
X759024Y337915D01*
X756480Y334413D01*
X754515Y330556D01*
X753177Y326440D01*
X752500Y322164D01*
Y317836D01*
X753177Y313560D01*
X754515Y309444D01*
X756480Y305587D01*
X759024Y302085D01*
X762085Y299024D01*
X765587Y296480D01*
X769444Y294515D01*
X773560Y293177D01*
X777836Y292500D01*
X782164D01*
X786440Y293177D01*
X790556Y294515D01*
X794413Y296480D01*
X797915Y299024D01*
X800976Y302085D01*
X803520Y305587D01*
X805485Y309444D01*
X806823Y313560D01*
X807500Y317836D01*
Y322164D01*
X806823Y326440D01*
X805485Y330556D01*
X803520Y334413D01*
X800976Y337915D01*
X797915Y340976D01*
X795223Y342931D01*
X796107Y346313D01*
X796179Y346431D01*
X807500D01*
X808866Y346703D01*
X810023Y347477D01*
X826414Y363867D01*
X829647Y362528D01*
Y341000D01*
X830055Y338951D01*
X831215Y337215D01*
X845494Y322936D01*
X844800Y320346D01*
Y317054D01*
X845652Y313875D01*
X847298Y311025D01*
X849625Y308698D01*
X852475Y307052D01*
X855655Y306200D01*
X858946D01*
X862125Y307052D01*
X864975Y308698D01*
X867303Y311025D01*
X868006Y312242D01*
X871995Y312242D01*
X872698Y311025D01*
X875025Y308697D01*
X877875Y307052D01*
X881054Y306200D01*
X884346D01*
X887525Y307052D01*
X890375Y308697D01*
X892703Y311025D01*
X894348Y313875D01*
X895200Y317054D01*
Y320345D01*
X894348Y323525D01*
X892703Y326375D01*
X890375Y328702D01*
X889158Y329405D01*
X889157Y333395D01*
X890375Y334098D01*
X892702Y336425D01*
X894348Y339275D01*
X895200Y342454D01*
Y345746D01*
X894348Y348925D01*
X892702Y351775D01*
X890375Y354103D01*
X889158Y354805D01*
X889158Y358795D01*
X890375Y359498D01*
X892703Y361825D01*
X894348Y364675D01*
X895200Y367854D01*
Y371146D01*
X894348Y374325D01*
X892703Y377175D01*
X890375Y379502D01*
X889158Y380205D01*
Y384195D01*
X890375Y384897D01*
X892703Y387225D01*
X894348Y390075D01*
X895200Y393254D01*
Y396545D01*
X894348Y399725D01*
X892703Y402575D01*
X890375Y404902D01*
X889158Y405605D01*
X889158Y409594D01*
X890375Y410297D01*
X892702Y412625D01*
X894348Y415475D01*
X894518Y416108D01*
X898421Y417154D01*
X903393Y412183D01*
Y299265D01*
X903392Y299261D01*
Y269761D01*
X903822Y266498D01*
X903892Y266328D01*
Y252706D01*
X900392Y252568D01*
X900218Y254786D01*
X899097Y259454D01*
X897260Y263890D01*
X894751Y267983D01*
X891633Y271633D01*
X887983Y274751D01*
X883889Y277260D01*
X879454Y279097D01*
X874786Y280218D01*
X870000Y280594D01*
X865214Y280218D01*
X860546Y279097D01*
X856111Y277260D01*
X852017Y274751D01*
X848367Y271633D01*
X845249Y267983D01*
X842740Y263890D01*
X840903Y259454D01*
X839782Y254786D01*
X839406Y250000D01*
X839782Y245214D01*
X840903Y240546D01*
X842740Y236110D01*
X845249Y232017D01*
X848367Y228367D01*
X852017Y225249D01*
X856111Y222740D01*
X860546Y220903D01*
X865214Y219782D01*
X870000Y219406D01*
X874786Y219782D01*
X879454Y220903D01*
X883889Y222740D01*
X887983Y225249D01*
X891633Y228367D01*
X894751Y232017D01*
X897260Y236110D01*
X899097Y240546D01*
X900218Y245214D01*
X900392Y247432D01*
X903892Y247294D01*
Y229722D01*
X794778Y120608D01*
X358222D01*
X353399Y125431D01*
X354849Y128931D01*
X377500D01*
X378866Y129203D01*
X380023Y129977D01*
X380797Y131134D01*
X381069Y132500D01*
Y135866D01*
X381577Y136401D01*
X384569Y137734D01*
X385996Y136910D01*
X388832Y136150D01*
X391768D01*
X394604Y136910D01*
X397146Y138378D01*
X399222Y140454D01*
X400690Y142996D01*
X401188Y144855D01*
X404812D01*
X405310Y142996D01*
X406778Y140454D01*
X408854Y138378D01*
X411396Y136910D01*
X413950Y136226D01*
Y147300D01*
X417450D01*
Y136226D01*
X420004Y136910D01*
X422546Y138378D01*
X424622Y140454D01*
X426090Y142996D01*
X426588Y144855D01*
X430212D01*
X430710Y142996D01*
X432178Y140454D01*
X434254Y138378D01*
X436796Y136910D01*
X439350Y136226D01*
Y147300D01*
X442850D01*
Y136226D01*
X445404Y136910D01*
X447946Y138378D01*
X450022Y140454D01*
X451490Y142996D01*
X451988Y144855D01*
X455612D01*
X456110Y142996D01*
X457578Y140454D01*
X459654Y138378D01*
X462196Y136910D01*
X464750Y136226D01*
Y147300D01*
X468250D01*
Y136226D01*
X470804Y136910D01*
X473346Y138378D01*
X475422Y140454D01*
X476890Y142996D01*
X477388Y144855D01*
X481012D01*
X481510Y142996D01*
X482978Y140454D01*
X485054Y138378D01*
X487596Y136910D01*
X490150Y136226D01*
Y147300D01*
X493650D01*
Y136226D01*
X496204Y136910D01*
X498746Y138378D01*
X500822Y140454D01*
X502290Y142996D01*
X502788Y144855D01*
X506412D01*
X506910Y142996D01*
X508378Y140454D01*
X510454Y138378D01*
X512996Y136910D01*
X515550Y136226D01*
Y147300D01*
X519050D01*
Y136226D01*
X521604Y136910D01*
X524146Y138378D01*
X526222Y140454D01*
X527690Y142996D01*
X528188Y144855D01*
X531812D01*
X532310Y142996D01*
X533778Y140454D01*
X535854Y138378D01*
X538396Y136910D01*
X540950Y136226D01*
Y147300D01*
X544450D01*
Y136226D01*
X547004Y136910D01*
X549546Y138378D01*
X551622Y140454D01*
X553090Y142996D01*
X553588Y144855D01*
X557212D01*
X557710Y142996D01*
X559178Y140454D01*
X561254Y138378D01*
X563796Y136910D01*
X566350Y136226D01*
Y147300D01*
X569850D01*
Y136226D01*
X572404Y136910D01*
X574946Y138378D01*
X577022Y140454D01*
X578490Y142996D01*
X578988Y144855D01*
X582612D01*
X583110Y142996D01*
X584578Y140454D01*
X586654Y138378D01*
X589196Y136910D01*
X591750Y136226D01*
Y147300D01*
X595250D01*
Y136226D01*
X597804Y136910D01*
X600346Y138378D01*
X602422Y140454D01*
X603890Y142996D01*
X604388Y144855D01*
X608012D01*
X608510Y142996D01*
X609978Y140454D01*
X612054Y138378D01*
X614596Y136910D01*
X617150Y136226D01*
Y147300D01*
X620650D01*
Y136226D01*
X623204Y136910D01*
X625746Y138378D01*
X627822Y140454D01*
X629290Y142996D01*
X629788Y144855D01*
X633412D01*
X633910Y142996D01*
X635378Y140454D01*
X637454Y138378D01*
X639996Y136910D01*
X642832Y136150D01*
X645768D01*
X648604Y136910D01*
X651146Y138378D01*
X653222Y140454D01*
X654690Y142996D01*
X655188Y144855D01*
X658812D01*
X659310Y142996D01*
X660778Y140454D01*
X662854Y138378D01*
X665396Y136910D01*
X668232Y136150D01*
X671168D01*
X674004Y136910D01*
X676546Y138378D01*
X678622Y140454D01*
X680090Y142996D01*
X680588Y144855D01*
X684212D01*
X684710Y142996D01*
X686178Y140454D01*
X688254Y138378D01*
X690796Y136910D01*
X693350Y136226D01*
Y147300D01*
X696850D01*
Y136226D01*
X699404Y136910D01*
X701946Y138378D01*
X704022Y140454D01*
X705490Y142996D01*
X705988Y144855D01*
X709612D01*
X710110Y142996D01*
X711578Y140454D01*
X713654Y138378D01*
X716196Y136910D01*
X719032Y136150D01*
X721968D01*
X724804Y136910D01*
X727346Y138378D01*
X729422Y140454D01*
X730890Y142996D01*
X731388Y144855D01*
X735012D01*
X735510Y142996D01*
X736978Y140454D01*
X739054Y138378D01*
X741596Y136910D01*
X744432Y136150D01*
X747368D01*
X750204Y136910D01*
X752746Y138378D01*
X754822Y140454D01*
X756290Y142996D01*
X756788Y144855D01*
X760412D01*
X760910Y142996D01*
X762378Y140454D01*
X764454Y138378D01*
X766996Y136910D01*
X769832Y136150D01*
X772768D01*
X775604Y136910D01*
X778146Y138378D01*
X780222Y140454D01*
X781690Y142996D01*
X782450Y145832D01*
Y148768D01*
X781690Y151604D01*
X780222Y154146D01*
X778146Y156222D01*
X775604Y157690D01*
X773745Y158188D01*
Y161812D01*
X775604Y162310D01*
X778146Y163778D01*
X780222Y165854D01*
X781690Y168396D01*
X782450Y171232D01*
Y174168D01*
X781690Y177004D01*
X780222Y179546D01*
X778146Y181622D01*
X775604Y183090D01*
X772768Y183850D01*
X769832D01*
X766996Y183090D01*
X764454Y181622D01*
X762378Y179546D01*
X760910Y177004D01*
X760412Y175145D01*
X756788D01*
X756290Y177004D01*
X754822Y179546D01*
X752746Y181622D01*
X750204Y183090D01*
X747368Y183850D01*
X744432D01*
X741596Y183090D01*
X739054Y181622D01*
X736978Y179546D01*
X735510Y177004D01*
X735012Y175145D01*
X731388D01*
X730890Y177004D01*
X729422Y179546D01*
X727346Y181622D01*
X724804Y183090D01*
X721968Y183850D01*
X719032D01*
X716196Y183090D01*
X713654Y181622D01*
X711578Y179546D01*
X710110Y177004D01*
X709612Y175145D01*
X705988D01*
X705490Y177004D01*
X704022Y179546D01*
X701946Y181622D01*
X699404Y183090D01*
X696568Y183850D01*
X693632D01*
X690796Y183090D01*
X688254Y181622D01*
X686178Y179546D01*
X684710Y177004D01*
X684212Y175145D01*
X680588D01*
X680090Y177004D01*
X678622Y179546D01*
X676546Y181622D01*
X674004Y183090D01*
X671450Y183774D01*
Y172700D01*
X667950D01*
Y183774D01*
X665396Y183090D01*
X662854Y181622D01*
X660778Y179546D01*
X659310Y177004D01*
X658812Y175145D01*
X655188D01*
X654690Y177004D01*
X653222Y179546D01*
X651146Y181622D01*
X648604Y183090D01*
X645768Y183850D01*
X642832D01*
X639996Y183090D01*
X637454Y181622D01*
X635378Y179546D01*
X633910Y177004D01*
X633412Y175145D01*
X629788D01*
X629290Y177004D01*
X627822Y179546D01*
X625746Y181622D01*
X623204Y183090D01*
X620368Y183850D01*
X617432D01*
X614596Y183090D01*
X612054Y181622D01*
X609978Y179546D01*
X608510Y177004D01*
X608012Y175145D01*
X604388D01*
X603890Y177004D01*
X602422Y179546D01*
X600346Y181622D01*
X597804Y183090D01*
X594968Y183850D01*
X592032D01*
X589196Y183090D01*
X586654Y181622D01*
X584578Y179546D01*
X583110Y177004D01*
X582612Y175145D01*
X578988D01*
X578490Y177004D01*
X577022Y179546D01*
X574946Y181622D01*
X572404Y183090D01*
X569568Y183850D01*
X566632D01*
X563796Y183090D01*
X561254Y181622D01*
X559178Y179546D01*
X557710Y177004D01*
X557212Y175145D01*
X553588D01*
X553090Y177004D01*
X551622Y179546D01*
X549546Y181622D01*
X547004Y183090D01*
X544168Y183850D01*
X541232D01*
X538396Y183090D01*
X535854Y181622D01*
X533778Y179546D01*
X532310Y177004D01*
X531812Y175145D01*
X528188D01*
X527690Y177004D01*
X526222Y179546D01*
X524146Y181622D01*
X521604Y183090D01*
X518768Y183850D01*
X515832D01*
X512996Y183090D01*
X510454Y181622D01*
X508378Y179546D01*
X506910Y177004D01*
X506412Y175145D01*
X502788D01*
X502290Y177004D01*
X500822Y179546D01*
X498746Y181622D01*
X496204Y183090D01*
X493368Y183850D01*
X490432D01*
X487596Y183090D01*
X485054Y181622D01*
X482978Y179546D01*
X481510Y177004D01*
X481012Y175145D01*
X477388D01*
X476890Y177004D01*
X475422Y179546D01*
X473346Y181622D01*
X470804Y183090D01*
X467968Y183850D01*
X465032D01*
X462196Y183090D01*
X459654Y181622D01*
X457578Y179546D01*
X456110Y177004D01*
X455612Y175145D01*
X451988D01*
X451490Y177004D01*
X450022Y179546D01*
X447946Y181622D01*
X445404Y183090D01*
X442568Y183850D01*
X439632D01*
X436796Y183090D01*
X434254Y181622D01*
X432178Y179546D01*
X430710Y177004D01*
X430212Y175145D01*
X426588D01*
X426090Y177004D01*
X424622Y179546D01*
X422546Y181622D01*
X420004Y183090D01*
X417168Y183850D01*
X414232D01*
X411396Y183090D01*
X408854Y181622D01*
X406778Y179546D01*
X405310Y177004D01*
X404812Y175145D01*
X401188D01*
X400690Y177004D01*
X399222Y179546D01*
X397146Y181622D01*
X394604Y183090D01*
X391768Y183850D01*
X388832D01*
X385996Y183090D01*
X384569Y182266D01*
X381577Y183599D01*
X381069Y184134D01*
Y190000D01*
X380797Y191366D01*
X380023Y192523D01*
X378866Y193297D01*
X377500Y193569D01*
X267500D01*
X266134Y193297D01*
X264977Y192523D01*
X264203Y191366D01*
X263931Y190000D01*
Y132500D01*
X264203Y131134D01*
X264977Y129977D01*
X266134Y129203D01*
X267500Y128931D01*
X326892D01*
Y121500D01*
X327322Y118237D01*
X328582Y115196D01*
X330585Y112585D01*
X344085Y99085D01*
X346696Y97081D01*
X349737Y95822D01*
X353000Y95392D01*
X800000D01*
X803263Y95822D01*
X806304Y97081D01*
X808915Y99085D01*
X925415Y215585D01*
X927419Y218196D01*
X928678Y221237D01*
X929108Y224500D01*
Y269261D01*
X928678Y272524D01*
X928608Y272694D01*
Y277294D01*
X932108Y277432D01*
X932282Y275214D01*
X933403Y270546D01*
X935240Y266110D01*
X937749Y262017D01*
X940867Y258367D01*
X944517Y255249D01*
X948611Y252740D01*
X953046Y250903D01*
X957714Y249782D01*
X962500Y249406D01*
X967286Y249782D01*
X971596Y250817D01*
X972445Y250164D01*
X973926Y247932D01*
X971326Y243729D01*
X958708Y225157D01*
X945309Y207141D01*
X931153Y189713D01*
X916267Y172904D01*
X900677Y156747D01*
X884412Y141269D01*
X867501Y126499D01*
X849975Y112465D01*
X831866Y99191D01*
X813208Y86702D01*
X794033Y75020D01*
X774377Y64168D01*
X764327Y59166D01*
X764276Y59127D01*
X764215Y59108D01*
X762740Y58317D01*
X759412Y57458D01*
X755891Y57259D01*
X752399Y57752D01*
X749070Y58916D01*
X746032Y60708D01*
X743402Y63057D01*
X741280Y65875D01*
X740515Y67464D01*
X740393Y67626D01*
X740323Y67816D01*
X738398Y70975D01*
X737516Y72902D01*
X737339Y73147D01*
X737227Y73428D01*
X734656Y77380D01*
X734376Y77668D01*
X734156Y78005D01*
X730864Y81380D01*
X730533Y81607D01*
X730253Y81895D01*
X726365Y84563D01*
X725996Y84721D01*
X725665Y84948D01*
X721331Y86807D01*
X720938Y86890D01*
X720569Y87048D01*
X715957Y88026D01*
X715555Y88031D01*
X715162Y88114D01*
X710447Y88173D01*
X710052Y88099D01*
X709651Y88104D01*
X705015Y87242D01*
X704734Y87129D01*
X704435Y87089D01*
X702203Y86321D01*
X702134Y86281D01*
X702055Y86267D01*
X699744Y85372D01*
X695104Y83628D01*
X690444Y81931D01*
X685771Y80286D01*
X683425Y79486D01*
X683355Y79446D01*
X683276Y79433D01*
X681072Y78586D01*
X680817Y78425D01*
X680530Y78330D01*
X676424Y76011D01*
X676119Y75749D01*
X675769Y75551D01*
X672195Y72476D01*
X671947Y72159D01*
X671643Y71897D01*
X668736Y68183D01*
X668555Y67825D01*
X668308Y67508D01*
X666182Y63299D01*
X666075Y62912D01*
X665893Y62553D01*
X664630Y58010D01*
X664600Y57609D01*
X664492Y57222D01*
X664139Y52519D01*
X664188Y52120D01*
X664158Y51720D01*
X664729Y47039D01*
X664824Y46752D01*
X664846Y46450D01*
X665408Y44407D01*
X665964Y40745D01*
X666013Y40607D01*
X666017Y40461D01*
X666415Y38691D01*
X666507Y35064D01*
X665888Y31489D01*
X664584Y28103D01*
X662645Y25037D01*
X660144Y22408D01*
X657179Y20317D01*
X653863Y18844D01*
X652093Y18446D01*
X652069Y18435D01*
X652042Y18434D01*
X644275Y16581D01*
X628635Y13349D01*
X612903Y10592D01*
X597095Y8314D01*
X589160Y7416D01*
X589100Y7397D01*
X589036Y7400D01*
X587379Y7161D01*
X583958Y7492D01*
X580581Y8510D01*
X577468Y10167D01*
X574738Y12400D01*
X572496Y15122D01*
X570828Y18230D01*
X569799Y21603D01*
X569623Y23358D01*
X569563Y23551D01*
X569563Y23754D01*
X568834Y27381D01*
X568664Y29494D01*
X568582Y29785D01*
X568572Y30087D01*
X567509Y34680D01*
X567343Y35046D01*
X567253Y35438D01*
X565313Y39735D01*
X565080Y40062D01*
X564915Y40428D01*
X562174Y44265D01*
X561881Y44540D01*
X561648Y44867D01*
X558212Y48095D01*
X557871Y48308D01*
X557578Y48583D01*
X553578Y51079D01*
X553202Y51221D01*
X552861Y51434D01*
X548451Y53101D01*
X548055Y53167D01*
X547679Y53309D01*
X543028Y54085D01*
X542726Y54075D01*
X542431Y54139D01*
X540071Y54182D01*
X539992Y54167D01*
X539913Y54181D01*
X537435Y54130D01*
X532479Y54078D01*
X527521D01*
X522565Y54130D01*
X520087Y54181D01*
X520008Y54167D01*
X519929Y54182D01*
X517569Y54140D01*
X517274Y54075D01*
X516972Y54085D01*
X512320Y53310D01*
X511944Y53168D01*
X511548Y53102D01*
X507136Y51434D01*
X506796Y51222D01*
X506420Y51080D01*
X502419Y48583D01*
X502126Y48308D01*
X501785Y48096D01*
X498348Y44867D01*
X498115Y44540D01*
X497822Y44265D01*
X495080Y40428D01*
X494915Y40062D01*
X494682Y39735D01*
X492742Y35436D01*
X492651Y35045D01*
X492486Y34679D01*
X491422Y30085D01*
X491412Y29783D01*
X491329Y29492D01*
X491159Y27379D01*
X490429Y23749D01*
X490429Y23602D01*
X490382Y23463D01*
X490151Y21664D01*
X488996Y18224D01*
X487192Y15076D01*
X484809Y12341D01*
X481938Y10122D01*
X478689Y8507D01*
X475187Y7556D01*
X471568Y7307D01*
X469768Y7538D01*
X469742Y7537D01*
X469717Y7545D01*
X461783Y8460D01*
X445981Y10771D01*
X430255Y13562D01*
X414622Y16828D01*
X406858Y18698D01*
X406795Y18700D01*
X406736Y18725D01*
X405097Y19067D01*
X401996Y20548D01*
X399171Y22660D01*
X396812Y25282D01*
X395010Y28314D01*
X393835Y31639D01*
X393330Y35129D01*
X393516Y38651D01*
X393951Y40360D01*
X393962Y40563D01*
X394031Y40753D01*
X394587Y44411D01*
X395149Y46454D01*
X395171Y46755D01*
X395266Y47043D01*
X395837Y51723D01*
X395807Y52123D01*
X395856Y52522D01*
X395504Y57224D01*
X395396Y57611D01*
X395366Y58011D01*
X394103Y62554D01*
X393922Y62913D01*
X393814Y63300D01*
X391689Y67509D01*
X391442Y67825D01*
X391261Y68184D01*
X388355Y71897D01*
X388051Y72159D01*
X387803Y72476D01*
X384229Y75551D01*
X383880Y75749D01*
X383575Y76011D01*
X379470Y78330D01*
X379183Y78424D01*
X378927Y78586D01*
X376724Y79433D01*
X376645Y79446D01*
X376576Y79486D01*
X374229Y80285D01*
X369556Y81932D01*
X364896Y83628D01*
X360255Y85372D01*
X357945Y86267D01*
X357867Y86281D01*
X357797Y86321D01*
X355565Y87089D01*
X355265Y87130D01*
X354985Y87242D01*
X350348Y88105D01*
X349947Y88100D01*
X349552Y88173D01*
X344836Y88115D01*
X344443Y88032D01*
X344042Y88027D01*
X339428Y87050D01*
X339059Y86891D01*
X338666Y86808D01*
X334332Y84950D01*
X334000Y84722D01*
X333631Y84564D01*
X329743Y81896D01*
X329462Y81608D01*
X329131Y81381D01*
X325838Y78005D01*
X325619Y77669D01*
X325338Y77381D01*
X322767Y73428D01*
X322655Y73147D01*
X322478Y72902D01*
X321595Y70975D01*
X319667Y67813D01*
X319617Y67676D01*
X319526Y67561D01*
X318693Y65949D01*
X316431Y63112D01*
X313659Y60771D01*
X310484Y59015D01*
X307028Y57913D01*
X303422Y57506D01*
X299807Y57811D01*
X296320Y58815D01*
X294708Y59647D01*
X294683Y59654D01*
X294662Y59671D01*
X284622Y64694D01*
X264990Y75589D01*
X245840Y87311D01*
X227209Y99841D01*
X209128Y113153D01*
X191633Y127225D01*
X174753Y142031D01*
X158522Y157544D01*
X142966Y173735D01*
X128116Y190575D01*
X113998Y208034D01*
X100638Y226079D01*
X88060Y244678D01*
X86050Y247941D01*
X87573Y250202D01*
X88387Y250821D01*
X92714Y249782D01*
X97500Y249406D01*
X102286Y249782D01*
X106954Y250903D01*
X111390Y252740D01*
X115483Y255249D01*
X119133Y258367D01*
X122251Y262017D01*
X124760Y266110D01*
X126597Y270546D01*
X127718Y275214D01*
X128094Y280000D01*
X127718Y284786D01*
X126597Y289454D01*
X124760Y293890D01*
X122251Y297983D01*
X119133Y301633D01*
X115483Y304751D01*
X111390Y307260D01*
X106954Y309097D01*
X102286Y310218D01*
X97500Y310594D01*
X92714Y310218D01*
X88046Y309097D01*
X83610Y307260D01*
X79517Y304751D01*
X75867Y301633D01*
X72749Y297983D01*
X70240Y293890D01*
X68403Y289454D01*
X67695Y286506D01*
X63993Y286077D01*
X55241Y303453D01*
X46006Y323918D01*
X37653Y344759D01*
X30197Y365938D01*
X23651Y387415D01*
X18028Y409152D01*
X13337Y431109D01*
X9588Y453247D01*
X6787Y475524D01*
X4939Y497901D01*
X4047Y520336D01*
X4114Y542788D01*
X5139Y565218D01*
X7120Y587582D01*
X10053Y609843D01*
X13934Y631957D01*
X18755Y653886D01*
X24507Y675590D01*
X31180Y697028D01*
X38762Y718161D01*
X47239Y738953D01*
X56595Y759363D01*
X66814Y779356D01*
X77876Y798894D01*
X89763Y817942D01*
X102451Y836466D01*
X115918Y854431D01*
X130139Y871806D01*
X145089Y888557D01*
X160741Y904656D01*
X177064Y920072D01*
X194031Y934777D01*
X211610Y948745D01*
X229769Y961950D01*
X248475Y974368D01*
X267694Y985977D01*
X287390Y996755D01*
X307529Y1006683D01*
X328073Y1015742D01*
X348985Y1023916D01*
X370226Y1031191D01*
X380993Y1034371D01*
X381049Y1034401D01*
X381112Y1034409D01*
X382703Y1034932D01*
X386129Y1035200D01*
X389631Y1034784D01*
X392985Y1033692D01*
X396061Y1031968D01*
X398742Y1029676D01*
X400924Y1026905D01*
X402524Y1023762D01*
X403002Y1022065D01*
X403094Y1021884D01*
X403129Y1021684D01*
X404477Y1018240D01*
X405011Y1016189D01*
X405143Y1015917D01*
X405205Y1015620D01*
X407050Y1011282D01*
X407276Y1010950D01*
X407433Y1010580D01*
X410089Y1006684D01*
X410376Y1006403D01*
X410602Y1006071D01*
X413968Y1002768D01*
X414304Y1002549D01*
X414590Y1002267D01*
X418535Y999685D01*
X418908Y999534D01*
X419244Y999314D01*
X423616Y997551D01*
X424011Y997476D01*
X424384Y997326D01*
X429017Y996449D01*
X429418Y996453D01*
X429813Y996379D01*
X434528Y996423D01*
X434824Y996485D01*
X435126Y996472D01*
X437457Y996841D01*
X437533Y996869D01*
X437613Y996868D01*
X440044Y997349D01*
X444919Y998261D01*
X449800Y999122D01*
X454687Y999931D01*
X457137Y1000311D01*
X457213Y1000339D01*
X457293Y1000338D01*
X459610Y1000790D01*
X459890Y1000904D01*
X460189Y1000947D01*
X464635Y1002518D01*
X464981Y1002723D01*
X465359Y1002857D01*
X469414Y1005266D01*
X469713Y1005534D01*
X470058Y1005739D01*
X473565Y1008892D01*
X473806Y1009214D01*
X474104Y1009482D01*
X476929Y1013259D01*
X477102Y1013622D01*
X477342Y1013943D01*
X479376Y1018198D01*
X479475Y1018587D01*
X479648Y1018950D01*
X480812Y1023520D01*
X480834Y1023921D01*
X480933Y1024310D01*
X481183Y1029019D01*
X481140Y1029319D01*
X481171Y1029619D01*
X480971Y1031729D01*
X481060Y1035432D01*
X481035Y1035576D01*
X481057Y1035721D01*
X480972Y1037533D01*
X481512Y1041121D01*
X482742Y1044534D01*
X484614Y1047642D01*
X487056Y1050325D01*
X489975Y1052480D01*
X493259Y1054024D01*
X496780Y1054898D01*
X498592Y1054983D01*
X498618Y1054990D01*
X498644Y1054986D01*
X506615Y1055462D01*
X507490Y1055488D01*
X508826Y1052026D01*
D02*
G37*
G36*
X395000Y842500D02*
X457500D01*
X470000Y830000D01*
Y777500D01*
X470000Y777500D01*
X470000Y777500D01*
X467712Y775211D01*
X465450Y772950D01*
X449000D01*
Y772500D01*
X395000D01*
X385000Y782500D01*
X352500Y815000D01*
X352500Y845000D01*
X357500Y850000D01*
X387500D01*
X395000Y842500D01*
D02*
G37*
G36*
X515000Y842500D02*
X577500D01*
X590000Y830000D01*
Y782950D01*
X569000D01*
Y772500D01*
X515000D01*
X505000Y782500D01*
X473568Y813931D01*
Y830000D01*
X473297Y831366D01*
X472523Y832523D01*
X472500Y832547D01*
Y845000D01*
X477500Y850000D01*
X507500D01*
X515000Y842500D01*
D02*
G37*
G36*
X635000Y842500D02*
X697500D01*
X710000Y830000D01*
Y782950D01*
X689000D01*
Y772500D01*
X635000D01*
X625000Y782500D01*
X593569Y813931D01*
Y830000D01*
X593297Y831366D01*
X592523Y832523D01*
X592500Y832547D01*
Y845000D01*
X597500Y850000D01*
X627500D01*
X635000Y842500D01*
D02*
G37*
G36*
X755000Y832500D02*
X817500D01*
X830000Y820000D01*
Y784090D01*
X829667Y783656D01*
X828937Y781892D01*
X828688Y780000D01*
Y766187D01*
X825450Y762950D01*
X809000D01*
Y762500D01*
X755000D01*
X745000Y772500D01*
X713568Y803931D01*
Y830000D01*
X713297Y831366D01*
X712523Y832523D01*
X712500Y832547D01*
Y835000D01*
X717500Y840000D01*
X747500D01*
X755000Y832500D01*
D02*
G37*
G36*
X609449Y649187D02*
X608780Y648801D01*
X607198Y647219D01*
X606079Y645280D01*
X605500Y643119D01*
Y640881D01*
X606079Y638719D01*
X607076Y636991D01*
X606794Y635653D01*
X605574Y633454D01*
X604653Y633333D01*
X603072Y632678D01*
X602183Y631996D01*
X601585Y631636D01*
X598415D01*
X597817Y631996D01*
X596928Y632678D01*
X595400Y633311D01*
Y622750D01*
Y612189D01*
X596928Y612822D01*
X597497Y613259D01*
X600145Y612377D01*
X600997Y611696D01*
Y591184D01*
X586303D01*
Y611696D01*
X587155Y612377D01*
X589803Y613259D01*
X590372Y612822D01*
X591900Y612189D01*
Y622750D01*
Y633311D01*
X590372Y632678D01*
X589483Y631996D01*
X588885Y631636D01*
X585715D01*
X585117Y631996D01*
X584228Y632678D01*
X582647Y633333D01*
X580950Y633556D01*
X579253Y633333D01*
X577672Y632678D01*
X576314Y631636D01*
X575272Y630278D01*
X574617Y628697D01*
X574394Y627000D01*
Y618576D01*
X574215Y618404D01*
X571719Y617069D01*
X571077Y616883D01*
X569280Y617920D01*
X567333Y618442D01*
X567006Y618744D01*
X565505Y622000D01*
X565920Y622719D01*
X566500Y624880D01*
Y627119D01*
X565920Y629280D01*
X565216Y630500D01*
X566068Y632843D01*
X566970Y634000D01*
X568750D01*
Y640250D01*
X560000D01*
Y643750D01*
X568750D01*
Y646500D01*
X568750Y650000D01*
X570712Y652687D01*
X608512D01*
X609449Y649187D01*
D02*
G37*
G36*
X1035805Y674503D02*
X1041510Y652788D01*
X1046284Y630848D01*
X1050117Y608725D01*
X1053003Y586459D01*
X1054936Y564089D01*
X1055912Y541658D01*
X1055931Y519205D01*
X1054991Y496772D01*
X1053095Y474400D01*
X1050246Y452129D01*
X1046449Y429999D01*
X1041711Y408052D01*
X1036041Y386327D01*
X1029450Y364864D01*
X1021948Y343702D01*
X1013550Y322879D01*
X1004271Y302433D01*
X996001Y286101D01*
X992298Y286535D01*
X991597Y289454D01*
X989760Y293890D01*
X987251Y297983D01*
X984133Y301633D01*
X980483Y304751D01*
X976389Y307260D01*
X971954Y309097D01*
X967286Y310218D01*
X962500Y310594D01*
X957714Y310218D01*
X953046Y309097D01*
X948611Y307260D01*
X944517Y304751D01*
X940867Y301633D01*
X937749Y297983D01*
X935240Y293890D01*
X933403Y289454D01*
X932282Y284786D01*
X932108Y282568D01*
X928608Y282706D01*
Y299258D01*
X928608Y299261D01*
Y417405D01*
X928179Y420668D01*
X926919Y423709D01*
X924916Y426320D01*
X898569Y452667D01*
Y502500D01*
X898297Y503866D01*
X897523Y505023D01*
X892523Y510023D01*
X892376Y513769D01*
X892443Y513966D01*
X892702Y514225D01*
X894348Y517075D01*
X895172Y520150D01*
X882700D01*
Y523650D01*
X895172D01*
X894348Y526725D01*
X892702Y529575D01*
X890375Y531903D01*
X889158Y532605D01*
X889158Y536595D01*
X890375Y537298D01*
X892702Y539625D01*
X894348Y542475D01*
X895172Y545550D01*
X882700D01*
Y549050D01*
X895172D01*
X894348Y552125D01*
X892702Y554975D01*
X890375Y557303D01*
X889158Y558005D01*
X889158Y561995D01*
X890375Y562698D01*
X892702Y565025D01*
X894348Y567875D01*
X895200Y571054D01*
Y574346D01*
X894348Y577525D01*
X892702Y580375D01*
X890375Y582702D01*
X889157Y583405D01*
X889158Y587395D01*
X890375Y588098D01*
X892702Y590425D01*
X894348Y593275D01*
X895172Y596350D01*
X882700D01*
Y599850D01*
X895172D01*
X894348Y602925D01*
X892702Y605775D01*
X890375Y608103D01*
X889158Y608806D01*
X889158Y612795D01*
X890375Y613498D01*
X892703Y615825D01*
X894348Y618675D01*
X895172Y621750D01*
X882700D01*
Y625250D01*
X895172D01*
X894348Y628325D01*
X892703Y631175D01*
X890375Y633503D01*
X889158Y634205D01*
X889158Y638195D01*
X890375Y638898D01*
X892702Y641225D01*
X893993Y643460D01*
X903000D01*
X905048Y643867D01*
X906785Y645028D01*
X911404Y649647D01*
X921250D01*
Y646500D01*
X938750D01*
X939617Y644303D01*
X940272Y642722D01*
X941203Y641509D01*
X941324Y641286D01*
X941473Y640153D01*
X941325Y637484D01*
X941200Y637221D01*
X940198Y636219D01*
X939079Y634281D01*
X938500Y632119D01*
Y629881D01*
X936003Y626417D01*
X928233D01*
Y626417D01*
X925750Y624000D01*
X909250D01*
Y609000D01*
Y605250D01*
X917500D01*
Y601750D01*
X909250D01*
Y599293D01*
X908750Y596000D01*
X908750Y592707D01*
Y589750D01*
X926250D01*
Y592707D01*
X926250Y596000D01*
X926059Y597261D01*
X926722Y598157D01*
X930511Y598161D01*
X930768Y598008D01*
X937561Y591215D01*
X939298Y590055D01*
X941346Y589647D01*
X965554D01*
X967602Y590055D01*
X969339Y591215D01*
X976285Y598161D01*
X977445Y599898D01*
X979033Y602399D01*
X991367D01*
X991367Y602399D01*
X991733D01*
Y602399D01*
X994867Y602399D01*
X1000933D01*
X1004067Y602399D01*
Y602399D01*
X1004433D01*
Y602399D01*
X1008850D01*
Y614408D01*
X1012350D01*
Y602399D01*
X1014647D01*
Y574601D01*
X1004433Y574601D01*
X1000933Y574601D01*
X991733Y574601D01*
X988233Y574601D01*
X979033Y574601D01*
X975533Y574601D01*
X966333Y574601D01*
X962833Y574601D01*
X953633Y574601D01*
X950133Y574601D01*
X940933D01*
X940933Y574601D01*
X940567D01*
Y574601D01*
X937433Y574601D01*
X934000D01*
X933483Y574704D01*
X926250D01*
X926250Y580000D01*
X926250Y583500D01*
Y586250D01*
X908750D01*
Y583500D01*
X908750Y580000D01*
X908750Y576500D01*
Y564000D01*
X920140D01*
X920149Y563998D01*
X928233D01*
Y550583D01*
X929400D01*
X929455Y550310D01*
X930615Y548574D01*
X936832Y542357D01*
X936500Y541119D01*
Y538881D01*
X937079Y536719D01*
X938198Y534781D01*
X939781Y533198D01*
X941719Y532079D01*
X943881Y531500D01*
X946119D01*
X948281Y532079D01*
X950219Y533198D01*
X951802Y534781D01*
X952921Y536719D01*
X953500Y538881D01*
Y541119D01*
X952921Y543281D01*
X951802Y545219D01*
X950219Y546802D01*
X949732Y547083D01*
X950670Y550583D01*
X953267Y550583D01*
X956767Y550583D01*
X965967Y550583D01*
X969467Y550583D01*
X978667Y550583D01*
X982167Y550583D01*
X991367Y550583D01*
X994867Y550583D01*
X1004067Y550583D01*
X1007567Y550583D01*
X1014647D01*
Y401217D01*
X949430Y336000D01*
X947381D01*
X945219Y335421D01*
X943281Y334302D01*
X941698Y332719D01*
X940579Y330781D01*
X940000Y328619D01*
Y326381D01*
X940579Y324219D01*
X941698Y322281D01*
X943281Y320698D01*
X945219Y319579D01*
X947381Y319000D01*
X949619D01*
X951781Y319579D01*
X953719Y320698D01*
X955302Y322281D01*
X956421Y324219D01*
X957000Y326381D01*
Y328430D01*
X1023785Y395215D01*
X1024945Y396952D01*
X1025353Y399000D01*
Y623609D01*
X1024945Y625657D01*
X1023785Y627394D01*
X1019827Y631352D01*
Y633276D01*
X1019247Y635438D01*
X1018128Y637376D01*
X1016546Y638959D01*
X1014607Y640078D01*
X1012446Y640657D01*
X1010397D01*
X1007019Y644035D01*
X1005282Y645195D01*
X1003234Y645603D01*
X993754D01*
X990550Y648312D01*
Y648500D01*
X984050D01*
Y652000D01*
X991151D01*
X991750Y653500D01*
X1008250D01*
Y658824D01*
X1009210Y659465D01*
X1021285Y671540D01*
X1022445Y673277D01*
X1022853Y675325D01*
Y688332D01*
X1024302Y689781D01*
X1025421Y691719D01*
X1026000Y693881D01*
Y694384D01*
X1029500Y694913D01*
X1035805Y674503D01*
D02*
G37*
G36*
X806880Y603111D02*
X807433Y602871D01*
X807531Y602799D01*
X808004Y602183D01*
X808364Y601585D01*
Y598415D01*
X808004Y597817D01*
X807322Y596928D01*
X806689Y595400D01*
X817250D01*
Y591900D01*
X806689D01*
X807322Y590372D01*
X808004Y589483D01*
X808364Y588885D01*
Y585715D01*
X808004Y585117D01*
X807322Y584228D01*
X806667Y582647D01*
X806444Y580950D01*
X806667Y579253D01*
X807322Y577672D01*
X808364Y576314D01*
X809722Y575272D01*
X811303Y574617D01*
X813000Y574394D01*
X821500D01*
X823197Y574617D01*
X824778Y575272D01*
X825201Y575597D01*
X829647D01*
Y532853D01*
X774418D01*
X772969Y534302D01*
X771031Y535421D01*
X768869Y536000D01*
X768465D01*
X767853Y536746D01*
Y543500D01*
X770750D01*
Y550647D01*
X774000Y551250D01*
Y551250D01*
X786500D01*
X790000Y551250D01*
X793500Y551250D01*
X796250D01*
Y560000D01*
Y568750D01*
X793500D01*
X790000Y568750D01*
X787353Y570809D01*
Y578650D01*
X786945Y580698D01*
X785785Y582435D01*
X787020Y585765D01*
X787227Y585943D01*
X788880Y585500D01*
X791118D01*
X793280Y586079D01*
X795219Y587198D01*
X796801Y588781D01*
X797920Y590719D01*
X798499Y592881D01*
Y595119D01*
X797920Y597280D01*
X797505Y598000D01*
X799006Y601255D01*
X799333Y601557D01*
X801280Y602079D01*
X803219Y603198D01*
X803434Y603413D01*
X806880Y603111D01*
D02*
G37*
G36*
X373697Y558304D02*
X372845Y557623D01*
X370197Y556741D01*
X369628Y557178D01*
X368100Y557811D01*
Y547250D01*
X364600D01*
Y557811D01*
X363072Y557178D01*
X362503Y556741D01*
X359855Y557623D01*
X359003Y558304D01*
Y581547D01*
X373697D01*
Y558304D01*
D02*
G37*
G36*
X613697Y558304D02*
X612845Y557623D01*
X610197Y556741D01*
X609628Y557178D01*
X608100Y557811D01*
Y547250D01*
X604600D01*
Y557811D01*
X603072Y557178D01*
X602503Y556741D01*
X599855Y557623D01*
X599003Y558304D01*
Y580478D01*
X613697D01*
Y558304D01*
D02*
G37*
G36*
X389755Y548073D02*
X389500Y547119D01*
Y544880D01*
X390079Y542719D01*
X391198Y540780D01*
X392478Y539500D01*
X392318Y538186D01*
X391320Y536000D01*
X391250D01*
Y529750D01*
X400000D01*
X408750D01*
Y535174D01*
X409309Y535999D01*
X411473Y537877D01*
X412881Y537500D01*
X415119D01*
X417281Y538079D01*
X419219Y539198D01*
X419758Y539738D01*
X422000Y540417D01*
X424241Y539738D01*
X424781Y539198D01*
X426719Y538079D01*
X428666Y537557D01*
X428993Y537255D01*
X430494Y534000D01*
X430079Y533280D01*
X429500Y531119D01*
Y528881D01*
X430079Y526719D01*
X431198Y524781D01*
X432780Y523198D01*
X433448Y522813D01*
X432510Y519313D01*
X411965D01*
X408750Y520000D01*
X408750Y523500D01*
Y526250D01*
X400000D01*
X391250D01*
Y523500D01*
X391250Y520000D01*
X388035Y519313D01*
X372000D01*
X370107Y519063D01*
X368344Y518333D01*
X366829Y517171D01*
X361852Y512193D01*
X360646Y512440D01*
X359140Y513185D01*
X358500Y513708D01*
Y515119D01*
X357920Y517281D01*
X357505Y518000D01*
X359006Y521255D01*
X359333Y521557D01*
X361281Y522079D01*
X363219Y523198D01*
X364801Y524781D01*
X365920Y526719D01*
X366500Y528881D01*
Y531119D01*
X365995Y533001D01*
X366045Y533482D01*
X368009Y536662D01*
X368047Y536667D01*
X369628Y537322D01*
X370517Y538004D01*
X371115Y538364D01*
X374285D01*
X374883Y538004D01*
X375772Y537322D01*
X377353Y536667D01*
X379050Y536444D01*
X380747Y536667D01*
X382328Y537322D01*
X383686Y538364D01*
X384728Y539722D01*
X385383Y541303D01*
X385606Y543000D01*
Y547948D01*
X388098Y550425D01*
X389755Y548073D01*
D02*
G37*
G36*
X629755Y548072D02*
X629500Y547119D01*
Y544880D01*
X630079Y542719D01*
X631198Y540780D01*
X632478Y539500D01*
X632318Y538186D01*
X631319Y536000D01*
X631250D01*
Y529750D01*
X640000D01*
Y526250D01*
X631250D01*
Y523500D01*
X631250Y520000D01*
X628035Y519313D01*
X603489D01*
X602551Y522812D01*
X603219Y523198D01*
X604801Y524781D01*
X605920Y526719D01*
X606499Y528881D01*
Y531119D01*
X605995Y533001D01*
X606045Y533482D01*
X608009Y536662D01*
X608047Y536667D01*
X609628Y537322D01*
X610490Y537984D01*
X612700Y538299D01*
X614910Y537984D01*
X615772Y537322D01*
X617353Y536667D01*
X619050Y536444D01*
X620747Y536667D01*
X622328Y537322D01*
X623686Y538364D01*
X624728Y539722D01*
X625383Y541303D01*
X625606Y543000D01*
Y547948D01*
X628098Y550424D01*
X629755Y548072D01*
D02*
G37*
G36*
X846267Y668411D02*
X847298Y666625D01*
X849625Y664298D01*
X850843Y663595D01*
X850843Y659605D01*
X849625Y658902D01*
X847298Y656575D01*
X845652Y653725D01*
X844800Y650546D01*
Y647254D01*
X845652Y644075D01*
X847298Y641225D01*
X849625Y638897D01*
X850842Y638195D01*
X850842Y634205D01*
X849625Y633502D01*
X847298Y631175D01*
X845652Y628325D01*
X844800Y625146D01*
Y621854D01*
X845652Y618675D01*
X847298Y615825D01*
X849625Y613498D01*
X850842Y612795D01*
X850842Y608805D01*
X849625Y608102D01*
X847297Y605775D01*
X845652Y602925D01*
X844828Y599850D01*
X857300D01*
Y596350D01*
X844828D01*
X845652Y593275D01*
X847297Y590425D01*
X849625Y588097D01*
X850842Y587394D01*
X850843Y583405D01*
X849625Y582702D01*
X847298Y580375D01*
X845652Y577525D01*
X844800Y574346D01*
Y571054D01*
X845652Y567875D01*
X847298Y565025D01*
X849625Y562697D01*
X850842Y561995D01*
X850842Y558005D01*
X849625Y557303D01*
X847297Y554975D01*
X845652Y552125D01*
X844800Y548946D01*
Y545654D01*
X845652Y542475D01*
X847297Y539625D01*
X849625Y537298D01*
X850842Y536595D01*
X850842Y532605D01*
X849625Y531903D01*
X847298Y529575D01*
X845652Y526725D01*
X844828Y523650D01*
X857300D01*
Y520150D01*
X844828D01*
X845652Y517075D01*
X847298Y514225D01*
X849625Y511898D01*
X850843Y511194D01*
X850843Y507205D01*
X849625Y506502D01*
X847298Y504175D01*
X845652Y501325D01*
X844828Y498250D01*
X857300D01*
Y494750D01*
X844828D01*
X845652Y491675D01*
X847298Y488825D01*
X847477Y485023D01*
X843853Y481399D01*
X840353Y482849D01*
Y527500D01*
Y580000D01*
X840164Y580950D01*
X840353Y581900D01*
Y600900D01*
X839945Y602948D01*
X838785Y604684D01*
X833335Y610135D01*
X831598Y611295D01*
X831027Y611409D01*
X828000Y612550D01*
Y625550D01*
X806500D01*
Y618470D01*
X803954Y617175D01*
X803000Y616927D01*
X801280Y617920D01*
X799118Y618500D01*
X796880D01*
X794719Y617920D01*
X792780Y616801D01*
X791198Y615219D01*
X790079Y613280D01*
X789500Y611119D01*
Y608881D01*
X790079Y606719D01*
X790494Y605999D01*
X788993Y602744D01*
X788666Y602442D01*
X786719Y601920D01*
X784780Y600801D01*
X783198Y599219D01*
X782079Y597280D01*
X781499Y595119D01*
Y592881D01*
X778497Y590564D01*
X777758Y590462D01*
X773402Y594818D01*
X773333Y595347D01*
X772678Y596928D01*
X771996Y597817D01*
X771636Y598415D01*
Y601585D01*
X771996Y602183D01*
X772678Y603072D01*
X773333Y604653D01*
X773402Y605182D01*
X787285Y619065D01*
X788445Y620802D01*
X788853Y622850D01*
Y629250D01*
X804000D01*
Y636136D01*
X806381Y639000D01*
X808619D01*
X810781Y639579D01*
X812719Y640698D01*
X814302Y642281D01*
X815421Y644219D01*
X816000Y646381D01*
Y648619D01*
X815848Y649187D01*
X818034Y652687D01*
X824284D01*
X826177Y652937D01*
X827941Y653667D01*
X829455Y654829D01*
X841171Y666545D01*
X842333Y668059D01*
X842449Y668338D01*
X842895Y668497D01*
X846267Y668411D01*
D02*
G37*
G36*
X895000Y502500D02*
Y437500D01*
X890000Y432500D01*
X885465D01*
X884346Y432800D01*
X881054D01*
X879935Y432500D01*
X872500D01*
X870000Y430000D01*
X870000Y412500D01*
X865000Y407500D01*
X850000D01*
X845000Y412500D01*
Y477500D01*
X850000Y482500D01*
X867500D01*
X870000Y485000D01*
X870000Y502500D01*
X875000Y507500D01*
X890000D01*
X895000Y502500D01*
D02*
G37*
G36*
X552500Y417500D02*
X570000Y400000D01*
X587500D01*
X590000Y397500D01*
X590000Y372500D01*
X567500Y350000D01*
X485000Y350000D01*
X475000Y360000D01*
Y402500D01*
X515000Y442500D01*
X552500D01*
Y417500D01*
D02*
G37*
G36*
X432500D02*
X450000Y400000D01*
X467500D01*
X470000Y397500D01*
X470000Y372500D01*
X447500Y350000D01*
X365000Y350000D01*
X355000Y360000D01*
Y402500D01*
X395000Y442500D01*
X432500D01*
Y417500D01*
D02*
G37*
G36*
X312500D02*
X330000Y400000D01*
X347500D01*
X350000Y397500D01*
X350000Y372500D01*
X327500Y350000D01*
X245000Y350000D01*
X235000Y360000D01*
Y402500D01*
X275000Y442500D01*
X312500D01*
Y417500D01*
D02*
G37*
G36*
X792500Y417500D02*
X810000Y400000D01*
X827500D01*
X829647Y397853D01*
Y372147D01*
X807500Y350000D01*
X725000Y350000D01*
X715000Y360000D01*
Y402500D01*
X755000Y442500D01*
X792500D01*
Y417500D01*
D02*
G37*
G36*
X672500D02*
X690000Y400000D01*
X707500D01*
X710000Y397500D01*
X710000Y372500D01*
X687500Y350000D01*
X605000Y350000D01*
X595000Y360000D01*
Y402500D01*
X635000Y442500D01*
X672500D01*
Y417500D01*
D02*
G37*
G36*
X377500Y132500D02*
X267500D01*
Y190000D01*
X377500D01*
Y132500D01*
D02*
G37*
%LPC*%
G36*
X624000Y882000D02*
X611750D01*
Y869000D01*
X624000D01*
Y882000D01*
D02*
G37*
G36*
X608250D02*
X596000D01*
Y869000D01*
X608250D01*
Y882000D01*
D02*
G37*
G36*
X504000D02*
X491750D01*
Y869000D01*
X504000D01*
Y882000D01*
D02*
G37*
G36*
X488250D02*
X476000D01*
Y869000D01*
X488250D01*
Y882000D01*
D02*
G37*
G36*
X384000D02*
X371750D01*
Y869000D01*
X384000D01*
Y882000D01*
D02*
G37*
G36*
X368250D02*
X356000D01*
Y869000D01*
X368250D01*
Y882000D01*
D02*
G37*
G36*
X744000Y872000D02*
X731750D01*
Y859000D01*
X744000D01*
Y872000D01*
D02*
G37*
G36*
X728250D02*
X716000D01*
Y859000D01*
X728250D01*
Y872000D01*
D02*
G37*
G36*
X200000Y900594D02*
X195214Y900218D01*
X190546Y899097D01*
X186110Y897260D01*
X182017Y894751D01*
X178367Y891633D01*
X175249Y887983D01*
X172740Y883889D01*
X170903Y879454D01*
X169782Y874786D01*
X169406Y870000D01*
X169782Y865214D01*
X170903Y860546D01*
X172740Y856111D01*
X175249Y852017D01*
X178367Y848367D01*
X182017Y845249D01*
X186110Y842740D01*
X190546Y840903D01*
X195214Y839782D01*
X200000Y839406D01*
X204786Y839782D01*
X209454Y840903D01*
X213890Y842740D01*
X217983Y845249D01*
X221633Y848367D01*
X224751Y852017D01*
X227260Y856111D01*
X229097Y860546D01*
X230218Y865214D01*
X230594Y870000D01*
X230218Y874786D01*
X229097Y879454D01*
X227260Y883889D01*
X224751Y887983D01*
X221633Y891633D01*
X217983Y894751D01*
X213890Y897260D01*
X209454Y899097D01*
X204786Y900218D01*
X200000Y900594D01*
D02*
G37*
G36*
X870000Y900594D02*
X865214Y900218D01*
X860546Y899097D01*
X856111Y897260D01*
X852017Y894751D01*
X848367Y891633D01*
X845249Y887983D01*
X842740Y883889D01*
X840903Y879454D01*
X839782Y874786D01*
X839406Y870000D01*
X839782Y865214D01*
X840903Y860546D01*
X842740Y856111D01*
X845249Y852017D01*
X848367Y848367D01*
X852017Y845249D01*
X856111Y842740D01*
X860546Y840903D01*
X865214Y839782D01*
X870000Y839406D01*
X874786Y839782D01*
X879454Y840903D01*
X883889Y842740D01*
X887983Y845249D01*
X891633Y848367D01*
X894751Y852017D01*
X897260Y856111D01*
X899097Y860546D01*
X900218Y865214D01*
X900594Y870000D01*
X900218Y874786D01*
X899097Y879454D01*
X897260Y883889D01*
X894751Y887983D01*
X891633Y891633D01*
X887983Y894751D01*
X883889Y897260D01*
X879454Y899097D01*
X874786Y900218D01*
X870000Y900594D01*
D02*
G37*
G36*
X264000Y852000D02*
X251750D01*
Y839000D01*
X264000D01*
Y852000D01*
D02*
G37*
G36*
X248250D02*
X236000D01*
Y839000D01*
X248250D01*
Y852000D01*
D02*
G37*
G36*
X302164Y867500D02*
X297836D01*
X293560Y866823D01*
X289444Y865485D01*
X285587Y863520D01*
X282085Y860976D01*
X279024Y857915D01*
X276480Y854413D01*
X274515Y850556D01*
X273177Y846440D01*
X272500Y842164D01*
Y837836D01*
X273177Y833560D01*
X274515Y829444D01*
X276480Y825587D01*
X279024Y822085D01*
X281541Y819569D01*
X281072Y817437D01*
X280198Y816069D01*
X276478D01*
X270023Y822523D01*
X268866Y823297D01*
X267500Y823569D01*
X264000D01*
Y835500D01*
X236000D01*
Y823207D01*
X234977Y822523D01*
X229977Y817523D01*
X229203Y816366D01*
X228931Y815000D01*
Y760000D01*
X229203Y758634D01*
X229977Y757477D01*
X237477Y749977D01*
X238634Y749203D01*
X240000Y748931D01*
X263522D01*
X279977Y732477D01*
X281134Y731703D01*
X282500Y731431D01*
X342500D01*
X343866Y731703D01*
X345023Y732477D01*
X352523Y739977D01*
X353297Y741134D01*
X353569Y742500D01*
Y800000D01*
X353297Y801366D01*
X352523Y802523D01*
X340023Y815023D01*
X338866Y815797D01*
X337500Y816069D01*
X319802D01*
X318928Y817437D01*
X318459Y819569D01*
X320976Y822085D01*
X323520Y825587D01*
X325485Y829444D01*
X326823Y833560D01*
X327500Y837836D01*
Y842164D01*
X326823Y846440D01*
X325485Y850556D01*
X323520Y854413D01*
X320976Y857915D01*
X317915Y860976D01*
X314413Y863520D01*
X310556Y865485D01*
X306440Y866823D01*
X302164Y867500D01*
D02*
G37*
G36*
X925000Y737250D02*
X914500D01*
Y729250D01*
X925000D01*
Y737250D01*
D02*
G37*
G36*
Y725750D02*
X914500D01*
Y717750D01*
X925000D01*
Y725750D01*
D02*
G37*
G36*
X343119Y714500D02*
X340881D01*
X338719Y713920D01*
X336781Y712801D01*
X335198Y711219D01*
X334079Y709280D01*
X333500Y707119D01*
Y704881D01*
X334079Y702719D01*
X335198Y700780D01*
X336781Y699198D01*
X338719Y698079D01*
X340881Y697499D01*
X343119D01*
X345280Y698079D01*
X347219Y699198D01*
X348801Y700780D01*
X349920Y702719D01*
X350500Y704881D01*
Y707119D01*
X349920Y709280D01*
X348801Y711219D01*
X347219Y712801D01*
X345280Y713920D01*
X343119Y714500D01*
D02*
G37*
G36*
X938750Y678500D02*
X931750D01*
Y672250D01*
X938750D01*
Y678500D01*
D02*
G37*
G36*
X928250D02*
X921250D01*
Y672250D01*
X928250D01*
Y678500D01*
D02*
G37*
G36*
X328750Y640250D02*
X321750D01*
Y634000D01*
X328750D01*
Y640250D01*
D02*
G37*
G36*
X318250D02*
X311250D01*
Y634000D01*
X318250D01*
Y640250D01*
D02*
G37*
G36*
X228500Y703500D02*
X141500D01*
Y627353D01*
X89000D01*
X86952Y626945D01*
X85215Y625785D01*
X46180Y586750D01*
X44131D01*
X41969Y586171D01*
X40031Y585052D01*
X38448Y583469D01*
X37329Y581531D01*
X36750Y579369D01*
Y577131D01*
X37329Y574969D01*
X38448Y573031D01*
X40031Y571448D01*
X41969Y570329D01*
X44131Y569750D01*
X46369D01*
X48531Y570329D01*
X50469Y571448D01*
X52052Y573031D01*
X53171Y574969D01*
X53750Y577131D01*
Y579180D01*
X91217Y616647D01*
X139981D01*
X141953Y613726D01*
X142004Y613000D01*
X141500Y611119D01*
Y608881D01*
X142079Y606719D01*
X143198Y604781D01*
X144781Y603198D01*
X146719Y602079D01*
X148881Y601500D01*
X151119D01*
X153281Y602079D01*
X155219Y603198D01*
X155759Y603738D01*
X158000Y604417D01*
X160241Y603738D01*
X160781Y603198D01*
X162719Y602079D01*
X164667Y601557D01*
X164993Y601255D01*
X166494Y598000D01*
X166079Y597280D01*
X165500Y595119D01*
Y592881D01*
X166079Y590719D01*
X167198Y588781D01*
X168781Y587198D01*
X170719Y586079D01*
X172881Y585500D01*
X175119D01*
X177281Y586079D01*
X179219Y587198D01*
X179759Y587738D01*
X182000Y588417D01*
X184241Y587738D01*
X184781Y587198D01*
X186719Y586079D01*
X188881Y585500D01*
X191119D01*
X193281Y586079D01*
X195219Y587198D01*
X195759Y587738D01*
X198000Y588417D01*
X200241Y587738D01*
X200781Y587198D01*
X202719Y586079D01*
X204881Y585500D01*
X207119D01*
X209281Y586079D01*
X211219Y587198D01*
X211759Y587738D01*
X214000Y588417D01*
X216241Y587738D01*
X216781Y587198D01*
X218719Y586079D01*
X220881Y585500D01*
X223119D01*
X225281Y586079D01*
X227219Y587198D01*
X227759Y587738D01*
X230000Y588417D01*
X232241Y587738D01*
X232781Y587198D01*
X234719Y586079D01*
X236881Y585500D01*
X239119D01*
X241281Y586079D01*
X243219Y587198D01*
X243759Y587738D01*
X246000Y588417D01*
X248241Y587738D01*
X248781Y587198D01*
X250719Y586079D01*
X252881Y585500D01*
X255119D01*
X257281Y586079D01*
X259219Y587198D01*
X259759Y587738D01*
X262000Y588417D01*
X264241Y587738D01*
X264781Y587198D01*
X266719Y586079D01*
X268881Y585500D01*
X271119D01*
X273281Y586079D01*
X275219Y587198D01*
X275759Y587738D01*
X278000Y588417D01*
X280241Y587738D01*
X280781Y587198D01*
X282719Y586079D01*
X284881Y585500D01*
X287119D01*
X289280Y586079D01*
X291219Y587198D01*
X291759Y587738D01*
X294000Y588417D01*
X296241Y587738D01*
X296781Y587198D01*
X298719Y586079D01*
X300881Y585500D01*
X303119D01*
X305280Y586079D01*
X307219Y587198D01*
X307759Y587738D01*
X310000Y588417D01*
X312241Y587738D01*
X312781Y587198D01*
X314719Y586079D01*
X316881Y585500D01*
X319119D01*
X321281Y586079D01*
X323219Y587198D01*
X324801Y588781D01*
X325920Y590719D01*
X326500Y592881D01*
Y595119D01*
X325920Y597280D01*
X324801Y599219D01*
X323219Y600801D01*
X321281Y601920D01*
X319119Y602500D01*
X316881D01*
X314719Y601920D01*
X312781Y600801D01*
X312241Y600261D01*
X310000Y599582D01*
X307759Y600261D01*
X307219Y600801D01*
X305280Y601920D01*
X303333Y602442D01*
X303006Y602744D01*
X301505Y605999D01*
X301920Y606719D01*
X302500Y608881D01*
Y611119D01*
X301920Y613280D01*
X301505Y614000D01*
X303006Y617255D01*
X303333Y617557D01*
X305280Y618079D01*
X307219Y619198D01*
X308801Y620780D01*
X309920Y622719D01*
X310500Y624880D01*
Y627119D01*
X309920Y629280D01*
X308801Y631219D01*
X307219Y632801D01*
X305280Y633920D01*
X303333Y634442D01*
X303006Y634744D01*
X301505Y637999D01*
X301920Y638719D01*
X302500Y640881D01*
Y643119D01*
X301920Y645280D01*
X300801Y647219D01*
X299219Y648801D01*
X297281Y649920D01*
X295119Y650499D01*
X292881D01*
X290719Y649920D01*
X288781Y648801D01*
X288241Y648261D01*
X286000Y647582D01*
X283759Y648261D01*
X283219Y648801D01*
X281280Y649920D01*
X279333Y650442D01*
X279006Y650744D01*
X277505Y653999D01*
X277920Y654719D01*
X278500Y656880D01*
Y659119D01*
X277920Y661280D01*
X276801Y663219D01*
X275219Y664801D01*
X273281Y665920D01*
X271333Y666442D01*
X271006Y666744D01*
X269505Y669999D01*
X269920Y670719D01*
X270500Y672880D01*
Y675119D01*
X269920Y677280D01*
X268801Y679219D01*
X267219Y680801D01*
X265280Y681920D01*
X263119Y682499D01*
X260881D01*
X258719Y681920D01*
X256781Y680801D01*
X256241Y680262D01*
X254000Y679582D01*
X251759Y680262D01*
X251219Y680801D01*
X249281Y681920D01*
X247333Y682442D01*
X247006Y682744D01*
X245505Y686000D01*
X245920Y686719D01*
X246500Y688880D01*
Y691119D01*
X245920Y693280D01*
X244801Y695219D01*
X243219Y696801D01*
X241281Y697920D01*
X239119Y698500D01*
X236881D01*
X234719Y697920D01*
X232781Y696801D01*
X232000Y696021D01*
X228666Y697101D01*
X228500Y697224D01*
Y703500D01*
D02*
G37*
G36*
X118369Y576500D02*
X116131D01*
X113969Y575921D01*
X112031Y574802D01*
X110582Y573353D01*
X68000D01*
X65952Y572945D01*
X64215Y571785D01*
X31215Y538785D01*
X30055Y537048D01*
X29647Y535000D01*
Y531668D01*
X28198Y530219D01*
X27079Y528281D01*
X26500Y526119D01*
Y523881D01*
X27079Y521719D01*
X28198Y519781D01*
X29781Y518198D01*
X31719Y517079D01*
X33881Y516500D01*
X36119D01*
X38281Y517079D01*
X40219Y518198D01*
X41802Y519781D01*
X42921Y521719D01*
X43500Y523881D01*
Y526119D01*
X42921Y528281D01*
X41802Y530219D01*
X42039Y534469D01*
X70217Y562647D01*
X110582D01*
X112031Y561198D01*
X113969Y560079D01*
X116131Y559500D01*
X118369D01*
X120531Y560079D01*
X122469Y561198D01*
X124052Y562781D01*
X125171Y564719D01*
X125750Y566881D01*
Y569119D01*
X125171Y571281D01*
X124052Y573219D01*
X122469Y574802D01*
X120531Y575921D01*
X118369Y576500D01*
D02*
G37*
G36*
X504000Y331000D02*
X491750D01*
Y318000D01*
X504000D01*
Y331000D01*
D02*
G37*
G36*
X488250D02*
X476000D01*
Y318000D01*
X488250D01*
Y331000D01*
D02*
G37*
G36*
X384000D02*
X371750D01*
Y318000D01*
X384000D01*
Y331000D01*
D02*
G37*
G36*
X368250D02*
X356000D01*
Y318000D01*
X368250D01*
Y331000D01*
D02*
G37*
G36*
X264000D02*
X251750D01*
Y318000D01*
X264000D01*
Y331000D01*
D02*
G37*
G36*
X248250D02*
X236000D01*
Y318000D01*
X248250D01*
Y331000D01*
D02*
G37*
G36*
X744000Y331000D02*
X731750D01*
Y318000D01*
X744000D01*
Y331000D01*
D02*
G37*
G36*
X728250D02*
X716000D01*
Y318000D01*
X728250D01*
Y331000D01*
D02*
G37*
G36*
X624000D02*
X611750D01*
Y318000D01*
X624000D01*
Y331000D01*
D02*
G37*
G36*
X608250D02*
X596000D01*
Y318000D01*
X608250D01*
Y331000D01*
D02*
G37*
G36*
X200000Y280594D02*
X195214Y280218D01*
X190546Y279097D01*
X186110Y277260D01*
X182017Y274751D01*
X178367Y271633D01*
X175249Y267983D01*
X172740Y263890D01*
X170903Y259454D01*
X169782Y254786D01*
X169406Y250000D01*
X169782Y245214D01*
X170903Y240546D01*
X172740Y236110D01*
X175249Y232017D01*
X178367Y228367D01*
X182017Y225249D01*
X186110Y222740D01*
X190546Y220903D01*
X195214Y219782D01*
X200000Y219406D01*
X204786Y219782D01*
X209454Y220903D01*
X213890Y222740D01*
X217983Y225249D01*
X221633Y228367D01*
X224751Y232017D01*
X227260Y236110D01*
X229097Y240546D01*
X230218Y245214D01*
X230594Y250000D01*
X230218Y254786D01*
X229097Y259454D01*
X227260Y263890D01*
X224751Y267983D01*
X221633Y271633D01*
X217983Y274751D01*
X213890Y277260D01*
X209454Y279097D01*
X204786Y280218D01*
X200000Y280594D01*
D02*
G37*
%LPD*%
G36*
X275000Y812500D02*
X337500D01*
X350000Y800000D01*
Y742500D01*
X342500Y735000D01*
X282500D01*
X265000Y752500D01*
X240000D01*
X232500Y760000D01*
Y815000D01*
X237500Y820000D01*
X267500D01*
X275000Y812500D01*
D02*
G37*
%LPC*%
G36*
X799750Y568750D02*
Y561750D01*
X806000D01*
Y568750D01*
X799750D01*
D02*
G37*
G36*
X806000Y558250D02*
X799750D01*
Y551250D01*
X806000D01*
Y558250D01*
D02*
G37*
%LPD*%
D15*
X817250Y619050D02*
D03*
D16*
X762750Y580950D02*
D03*
Y593650D02*
D03*
Y606350D02*
D03*
Y619050D02*
D03*
X817250Y580950D02*
D03*
Y593650D02*
D03*
Y606350D02*
D03*
D20*
X352500Y471500D02*
D03*
Y458500D02*
D03*
X367500Y698500D02*
D03*
Y711500D02*
D03*
X607500Y698500D02*
D03*
Y711500D02*
D03*
X582500Y698500D02*
D03*
Y711500D02*
D03*
X592500Y471500D02*
D03*
Y458500D02*
D03*
X762500Y564000D02*
D03*
Y551000D02*
D03*
X917500Y616500D02*
D03*
Y603500D02*
D03*
X1000000Y674000D02*
D03*
Y661000D02*
D03*
Y699000D02*
D03*
Y686000D02*
D03*
D24*
X783500Y637500D02*
D03*
X796500D02*
D03*
X326500Y677500D02*
D03*
X313500D02*
D03*
X401000Y492500D02*
D03*
X414000D02*
D03*
X641000D02*
D03*
X654000D02*
D03*
D31*
X320000Y658000D02*
D03*
Y642000D02*
D03*
X930000Y654500D02*
D03*
Y670500D02*
D03*
X917500Y588000D02*
D03*
Y572000D02*
D03*
X400000Y512000D02*
D03*
Y528000D02*
D03*
X640000Y512000D02*
D03*
Y528000D02*
D03*
X560000Y642000D02*
D03*
Y658000D02*
D03*
D35*
X782000Y560000D02*
D03*
X798000D02*
D03*
D47*
X82000Y435000D02*
X150000D01*
X185000Y470000D01*
X35000Y525000D02*
Y535000D01*
X68000Y568000D02*
X117250D01*
X35000Y535000D02*
X68000Y568000D01*
X147000Y622000D02*
X185000Y660000D01*
X45250Y578250D02*
X89000Y622000D01*
X147000D01*
X267500Y717500D02*
Y727500D01*
Y717500D02*
X307500Y677500D01*
X313500D01*
X251350Y727500D02*
X267500D01*
X250000Y728850D02*
X251350Y727500D01*
X326626Y677374D02*
X340825D01*
X326500Y677500D02*
X326626Y677374D01*
X340825D02*
X340950Y677249D01*
X458650Y757500D02*
X460000Y758850D01*
X387500Y757500D02*
X458650D01*
X367500Y737500D02*
X387500Y757500D01*
X367500Y711500D02*
Y737500D01*
X366829Y677727D02*
Y697829D01*
X366350Y677249D02*
X366829Y677727D01*
Y697829D02*
X367500Y698500D01*
X581750Y711500D02*
X582500D01*
X571750Y721500D02*
X581750Y711500D01*
X571750Y757500D02*
X580000Y765750D01*
X507500Y757500D02*
X571750D01*
X580000Y765750D02*
Y768850D01*
X571750Y721500D02*
Y757500D01*
X580950Y677250D02*
X581428Y677728D01*
Y697428D01*
X582500Y698500D01*
X631759Y760000D02*
X694250D01*
X629259Y757500D02*
X631759Y760000D01*
X700000Y765750D02*
Y768850D01*
X694250Y760000D02*
X700000Y765750D01*
X627500Y757500D02*
X629259D01*
X607500Y737500D02*
X627500Y757500D01*
X607500Y711500D02*
Y737500D01*
X606828Y697828D02*
X607500Y698500D01*
X606350Y677250D02*
X606828Y677728D01*
Y697828D01*
X747500Y750000D02*
X748650Y748850D01*
X820000D01*
X786250Y672250D02*
X817500Y703500D01*
Y746350D01*
X820000Y748850D01*
X805750Y647500D02*
X807500D01*
X796500Y637500D02*
Y638250D01*
X805750Y647500D01*
X762750Y606350D02*
X767000D01*
X783500Y622850D01*
Y637500D01*
X820000Y428050D02*
Y431150D01*
X807500Y415550D02*
X820000Y428050D01*
X807500Y415000D02*
Y415550D01*
X757500Y531746D02*
X762500Y536746D01*
Y551000D01*
X757500Y517123D02*
Y531746D01*
Y517123D02*
X820000Y454623D01*
Y431150D02*
Y454623D01*
X762625Y564125D02*
Y580825D01*
X762750Y580950D01*
X762500Y564000D02*
X762625Y564125D01*
X327500Y415000D02*
Y415550D01*
X340000Y428050D02*
Y431150D01*
X327500Y415550D02*
X340000Y428050D01*
Y446750D02*
X351750Y458500D01*
X340000Y431150D02*
Y446750D01*
X351750Y458500D02*
X352500D01*
X353172Y472172D02*
Y492272D01*
X353650Y492750D01*
X352500Y471500D02*
X353172Y472172D01*
X447500Y415550D02*
X460000Y428050D01*
Y431150D01*
X447500Y415000D02*
Y415550D01*
X414000Y491750D02*
X460000Y445750D01*
X414000Y491750D02*
Y492500D01*
X460000Y431150D02*
Y445750D01*
X400875Y492625D02*
X401000Y492500D01*
X379050Y492750D02*
X379175Y492625D01*
X400875D01*
X567500Y415550D02*
X580000Y428050D01*
Y431150D01*
X567500Y415000D02*
Y415550D01*
X580000Y446750D02*
X591750Y458500D01*
X592500D01*
X580000Y431150D02*
Y446750D01*
X593172Y472172D02*
Y492272D01*
X593650Y492750D01*
X592500Y471500D02*
X593172Y472172D01*
X690694Y418744D02*
X700000Y428050D01*
X686244Y418744D02*
X690694D01*
X685000Y417500D02*
X686244Y418744D01*
X700000Y428050D02*
Y431150D01*
X654000Y491750D02*
X700000Y445750D01*
Y431150D02*
Y445750D01*
X654000Y491750D02*
Y492500D01*
X640875Y492625D02*
X641000Y492500D01*
X619050Y492750D02*
X619175Y492625D01*
X640875D01*
X1017500Y675325D02*
Y695000D01*
X1005425Y663250D02*
X1017500Y675325D01*
X945950Y650250D02*
Y659250D01*
X934400Y552359D02*
X945000Y541759D01*
X934400Y552359D02*
Y568434D01*
X920149Y569351D02*
X933483D01*
X934400Y568434D01*
X945000Y540000D02*
Y541759D01*
X917500Y572000D02*
X920149Y569351D01*
X958650Y645323D02*
X959800Y644174D01*
X958650Y645323D02*
Y650250D01*
X959800Y614408D02*
Y644174D01*
X606350Y538189D02*
X613419Y531120D01*
X636130D01*
X606350Y538189D02*
Y547250D01*
X639250Y528000D02*
X640000D01*
X636130Y531120D02*
X639250Y528000D01*
X381350Y528000D02*
X400000D01*
X366350Y543000D02*
Y547250D01*
Y543000D02*
X381350Y528000D01*
X379050Y547250D02*
Y585950D01*
X380000Y586899D02*
X580950D01*
X930050Y654450D02*
X944795D01*
X945950Y650250D02*
Y653295D01*
X944795Y654450D02*
X945950Y653295D01*
X929500Y655000D02*
X930050Y654450D01*
X971801Y685100D02*
X983900D01*
X945950Y659250D02*
X971801Y685100D01*
X983900D02*
Y704599D01*
X998250Y662750D02*
X1000000Y661000D01*
X975451Y662750D02*
X998250D01*
X971350Y658650D02*
X975451Y662750D01*
X971350Y650250D02*
Y658650D01*
X1000000Y661000D02*
X1002250Y663250D01*
X1005425D01*
X1000000Y674000D02*
Y686000D01*
X353650Y658000D02*
Y677249D01*
X917500Y588000D02*
Y603500D01*
X979250Y727500D02*
X1000000Y706750D01*
X976750Y727500D02*
X979250D01*
X1000000Y699000D02*
Y706750D01*
X882787Y648813D02*
X903000D01*
X909187Y655000D02*
X929500D01*
X903000Y648813D02*
X909187Y655000D01*
X983900Y685100D02*
X999100D01*
X1000000Y686000D01*
X1011451Y632157D02*
X1020000Y623609D01*
X948500Y327500D02*
X1020000Y399000D01*
Y623609D01*
X1011327Y632157D02*
X1011451D01*
X1003234Y640250D02*
X1011327Y632157D01*
X993754Y640250D02*
X1003234D01*
X985200Y631696D02*
X993754Y640250D01*
X985200Y614408D02*
Y631696D01*
X947000Y631000D02*
X947050Y630950D01*
Y614458D02*
Y630950D01*
Y614458D02*
X947100Y614408D01*
X997950Y614458D02*
Y629950D01*
X998000Y630000D01*
X997900Y614408D02*
X997950Y614458D01*
X972500Y601946D02*
Y614408D01*
X934400Y601946D02*
Y615583D01*
X941346Y595000D02*
X965554D01*
X972500Y601946D01*
X934400D02*
X941346Y595000D01*
X933483Y616500D02*
X934400Y615583D01*
X917500Y616500D02*
X933483D01*
X971350Y722100D02*
X976750Y727500D01*
X971350Y704750D02*
Y722100D01*
X958650Y696600D02*
Y704750D01*
Y696600D02*
X962751Y692500D01*
X967500D02*
X971350Y696350D01*
Y704750D01*
X962751Y692500D02*
X967500D01*
X950750Y727500D02*
X953250D01*
X945950Y704750D02*
Y722700D01*
X950750Y727500D01*
X692500Y527500D02*
X732500D01*
X634169Y585831D02*
X692500Y527500D01*
X366350Y492750D02*
Y506350D01*
X767750Y527500D02*
X835000D01*
Y580000D01*
Y341000D02*
Y527500D01*
X834050Y580950D02*
X835000Y580000D01*
Y341000D02*
X857300Y318700D01*
X835000Y581900D02*
Y600900D01*
X834050Y580950D02*
X835000Y581900D01*
X817250Y580950D02*
X834050D01*
X746350Y593650D02*
X762750D01*
X606350Y492750D02*
Y511350D01*
X593650Y661150D02*
Y677250D01*
X620835Y585831D02*
X634169D01*
X607500D02*
X620835D01*
X619050Y547250D02*
Y584046D01*
X620835Y585831D01*
X593650D02*
X607500D01*
X606350Y586981D02*
Y622750D01*
Y586981D02*
X607500Y585831D01*
X580950D02*
Y622750D01*
Y585831D02*
X593650D01*
Y547250D02*
Y585831D01*
X367500Y586899D02*
X380000D01*
X379050Y585950D02*
X380000Y586899D01*
X354500D02*
X367500D01*
X348101D02*
X354500D01*
X353650Y547250D02*
Y586049D01*
X354500Y586899D01*
X366350Y588049D02*
Y622749D01*
Y588049D02*
X367500Y586899D01*
X340950Y594050D02*
Y622749D01*
Y594050D02*
X348101Y586899D01*
X817250Y606350D02*
X829549D01*
X835000Y600900D01*
X767000Y593650D02*
X782000Y578650D01*
Y560000D02*
Y578650D01*
D48*
X882700Y750500D02*
D03*
X882700Y623500D02*
D03*
X882700Y598100D02*
D03*
Y699700D02*
D03*
Y674300D02*
D03*
X882700Y801300D02*
D03*
X882700Y775900D02*
D03*
X857300Y801300D02*
D03*
X882700Y648900D02*
D03*
X882700Y572700D02*
D03*
X882700Y725100D02*
D03*
X882700Y547300D02*
D03*
X882700Y471100D02*
D03*
X882700Y394900D02*
D03*
X882700Y369500D02*
D03*
Y496500D02*
D03*
X882700Y445700D02*
D03*
X882700Y521900D02*
D03*
X882700Y420300D02*
D03*
X882700Y344100D02*
D03*
X882700Y318700D02*
D03*
X857300Y318700D02*
D03*
X857300Y699700D02*
D03*
Y725100D02*
D03*
X857300Y674300D02*
D03*
X857300Y648900D02*
D03*
X857300Y521900D02*
D03*
X857300Y623500D02*
D03*
Y572700D02*
D03*
Y750500D02*
D03*
X857300Y547300D02*
D03*
X857300Y775900D02*
D03*
X857300Y598100D02*
D03*
X857300Y496500D02*
D03*
X857300Y420300D02*
D03*
X857300Y445700D02*
D03*
X857300Y394900D02*
D03*
X857300Y344100D02*
D03*
X857300Y471100D02*
D03*
X857300Y369500D02*
D03*
D49*
X288700Y172700D02*
D03*
D50*
X771300Y147300D02*
D03*
Y172700D02*
D03*
X745900Y147300D02*
D03*
Y172700D02*
D03*
X720500Y147300D02*
D03*
Y172700D02*
D03*
X695100Y147300D02*
D03*
Y172700D02*
D03*
X669700Y147300D02*
D03*
Y172700D02*
D03*
X644300D02*
D03*
Y147300D02*
D03*
X618900D02*
D03*
Y172700D02*
D03*
X593500D02*
D03*
Y147300D02*
D03*
X568100D02*
D03*
Y172700D02*
D03*
X542700D02*
D03*
Y147300D02*
D03*
X517300D02*
D03*
Y172700D02*
D03*
X491900D02*
D03*
Y147300D02*
D03*
X466500D02*
D03*
X441100D02*
D03*
X415700D02*
D03*
X390300D02*
D03*
X364900D02*
D03*
X339500D02*
D03*
X314100D02*
D03*
X288700D02*
D03*
X314100Y172700D02*
D03*
X339500D02*
D03*
X364900D02*
D03*
X390300D02*
D03*
X415700D02*
D03*
X441100D02*
D03*
X466500D02*
D03*
D51*
X540000Y375000D02*
D03*
X780000Y375000D02*
D03*
X660000D02*
D03*
X420000Y375000D02*
D03*
X300000D02*
D03*
X540000Y815000D02*
D03*
X660000Y815000D02*
D03*
X300000Y785000D02*
D03*
X780000Y805000D02*
D03*
X420000Y815000D02*
D03*
D52*
X540000Y320000D02*
D03*
Y265000D02*
D03*
X780000Y265000D02*
D03*
Y320000D02*
D03*
X660000Y265000D02*
D03*
X660000Y320000D02*
D03*
X420000Y265000D02*
D03*
Y320000D02*
D03*
X300000Y265000D02*
D03*
Y320000D02*
D03*
X540000Y870000D02*
D03*
Y925000D02*
D03*
X660000Y870000D02*
D03*
Y925000D02*
D03*
X300000Y840000D02*
D03*
Y895000D02*
D03*
X780000Y860000D02*
D03*
Y915000D02*
D03*
X420000Y925000D02*
D03*
Y870000D02*
D03*
D53*
X185000Y470000D02*
D03*
Y660000D02*
D03*
D54*
Y360000D02*
D03*
Y770000D02*
D03*
D55*
X82000Y435000D02*
D03*
X80000Y533000D02*
D03*
X104000Y534000D02*
D03*
X56000Y532000D02*
D03*
X35000Y525000D02*
D03*
X117250Y568000D02*
D03*
X137750Y535000D02*
D03*
X45250Y578250D02*
D03*
X980000Y410000D02*
D03*
X1000000D02*
D03*
Y440000D02*
D03*
X980000D02*
D03*
X1005000Y470000D02*
D03*
X1035000Y490000D02*
D03*
X1005000D02*
D03*
X1035000Y510000D02*
D03*
X1005000D02*
D03*
Y530000D02*
D03*
X267500Y727500D02*
D03*
X387500Y757500D02*
D03*
X507500D02*
D03*
X627500D02*
D03*
X747500Y750000D02*
D03*
X786250Y672250D02*
D03*
X807500Y647500D02*
D03*
Y415000D02*
D03*
X327500D02*
D03*
X447500D02*
D03*
X567500D02*
D03*
X685000Y417500D02*
D03*
X770000Y80000D02*
D03*
X320000Y110000D02*
D03*
X640000Y30000D02*
D03*
X600000Y20000D02*
D03*
X420000Y30000D02*
D03*
X460000Y20000D02*
D03*
X280000Y90000D02*
D03*
X120000Y230000D02*
D03*
X180000Y160000D02*
D03*
X417500Y527500D02*
D03*
X797999Y610000D02*
D03*
Y514000D02*
D03*
X789999Y594000D02*
D03*
X782000Y514000D02*
D03*
X766000Y673999D02*
D03*
Y642000D02*
D03*
X749999Y706000D02*
D03*
Y673999D02*
D03*
X733999Y706000D02*
D03*
X742000Y689999D02*
D03*
X733999Y673999D02*
D03*
X742000Y498000D02*
D03*
X733999Y482000D02*
D03*
X742000Y466000D02*
D03*
X726000Y594000D02*
D03*
X717999Y578000D02*
D03*
X726000Y562000D02*
D03*
X717999Y546000D02*
D03*
X726000Y498000D02*
D03*
X717999Y482000D02*
D03*
X726000Y466000D02*
D03*
X702000Y578000D02*
D03*
X709999Y562000D02*
D03*
X702000Y546000D02*
D03*
X709999Y498000D02*
D03*
X702000Y482000D02*
D03*
X709999Y466000D02*
D03*
X693999Y562000D02*
D03*
Y498000D02*
D03*
X677999Y562000D02*
D03*
X653999Y546000D02*
D03*
X662000Y530000D02*
D03*
X637999Y546000D02*
D03*
X630000Y562000D02*
D03*
Y466000D02*
D03*
X613999D02*
D03*
X597999Y530000D02*
D03*
X582000D02*
D03*
X566000Y562000D02*
D03*
X558000Y546000D02*
D03*
X566000Y530000D02*
D03*
X550000Y562000D02*
D03*
X542000Y546000D02*
D03*
X550000Y530000D02*
D03*
X534000Y562000D02*
D03*
X526000Y546000D02*
D03*
X534000Y530000D02*
D03*
X518000Y562000D02*
D03*
X510000Y546000D02*
D03*
X518000Y530000D02*
D03*
X502000Y562000D02*
D03*
X494000Y546000D02*
D03*
X502000Y530000D02*
D03*
Y498000D02*
D03*
X494000Y482000D02*
D03*
X502000Y466000D02*
D03*
X486000Y562000D02*
D03*
X478000Y546000D02*
D03*
X486000Y530000D02*
D03*
Y498000D02*
D03*
X478000Y482000D02*
D03*
X486000Y466000D02*
D03*
X470000Y562000D02*
D03*
X462000Y546000D02*
D03*
X470000Y530000D02*
D03*
Y498000D02*
D03*
X462000Y482000D02*
D03*
X470000Y466000D02*
D03*
X454000Y562000D02*
D03*
X446000Y546000D02*
D03*
X454000Y530000D02*
D03*
Y498000D02*
D03*
X438000Y562000D02*
D03*
X430000Y546000D02*
D03*
X438000Y530000D02*
D03*
X422000Y562000D02*
D03*
X414000Y546000D02*
D03*
X406000Y562000D02*
D03*
X398000Y546000D02*
D03*
X390000Y562000D02*
D03*
Y466000D02*
D03*
X374000D02*
D03*
X358000Y530000D02*
D03*
X350000Y514000D02*
D03*
X342000Y530000D02*
D03*
X334000Y514000D02*
D03*
X326000Y562000D02*
D03*
X318000Y546000D02*
D03*
X326000Y530000D02*
D03*
X318000Y514000D02*
D03*
X310000Y562000D02*
D03*
X302000Y546000D02*
D03*
X310000Y530000D02*
D03*
X302000Y514000D02*
D03*
X294000Y562000D02*
D03*
X286000Y546000D02*
D03*
X294000Y530000D02*
D03*
X286000Y514000D02*
D03*
X278000Y562000D02*
D03*
X270000Y546000D02*
D03*
X278000Y530000D02*
D03*
X270000Y514000D02*
D03*
X262000Y562000D02*
D03*
X254000Y546000D02*
D03*
X262000Y530000D02*
D03*
X254000Y514000D02*
D03*
X262000Y498000D02*
D03*
X254000Y482000D02*
D03*
X262000Y466000D02*
D03*
X254000Y450000D02*
D03*
X246000Y562000D02*
D03*
X238000Y546000D02*
D03*
X246000Y530000D02*
D03*
X238000Y514000D02*
D03*
X246000Y498000D02*
D03*
X238000Y482000D02*
D03*
X246000Y466000D02*
D03*
X238000Y450000D02*
D03*
X246000Y434000D02*
D03*
X230000Y562000D02*
D03*
X222000Y546000D02*
D03*
X230000Y530000D02*
D03*
X222000Y418000D02*
D03*
X214000Y562000D02*
D03*
X206000Y546000D02*
D03*
X214000Y530000D02*
D03*
X206000Y418000D02*
D03*
X198000Y562000D02*
D03*
X190000Y546000D02*
D03*
X198000Y530000D02*
D03*
X190000Y418000D02*
D03*
X182000Y562000D02*
D03*
X174000Y546000D02*
D03*
X182000Y530000D02*
D03*
X174000Y418000D02*
D03*
X166000Y530000D02*
D03*
X158000Y418000D02*
D03*
X693999Y706000D02*
D03*
Y673999D02*
D03*
Y642000D02*
D03*
X686000Y626000D02*
D03*
X677999Y673999D02*
D03*
Y642000D02*
D03*
X669999Y626000D02*
D03*
X677999Y610000D02*
D03*
X669999Y594000D02*
D03*
X662000Y673999D02*
D03*
Y642000D02*
D03*
X653999Y626000D02*
D03*
X662000Y610000D02*
D03*
X653999Y594000D02*
D03*
X646000Y673999D02*
D03*
Y642000D02*
D03*
X637999Y626000D02*
D03*
X646000Y610000D02*
D03*
X622000Y722000D02*
D03*
X630000Y642000D02*
D03*
Y610000D02*
D03*
X613999Y642000D02*
D03*
X566000Y673999D02*
D03*
X558000Y626000D02*
D03*
X566000Y610000D02*
D03*
X550000Y673999D02*
D03*
X542000Y626000D02*
D03*
X550000Y610000D02*
D03*
X534000Y673999D02*
D03*
Y642000D02*
D03*
X526000Y626000D02*
D03*
X534000Y610000D02*
D03*
X510000Y722000D02*
D03*
Y689999D02*
D03*
X518000Y673999D02*
D03*
Y642000D02*
D03*
X510000Y626000D02*
D03*
X518000Y610000D02*
D03*
X494000Y722000D02*
D03*
X502000Y706000D02*
D03*
X494000Y689999D02*
D03*
X502000Y673999D02*
D03*
Y642000D02*
D03*
X494000Y626000D02*
D03*
X502000Y610000D02*
D03*
X478000Y722000D02*
D03*
X486000Y706000D02*
D03*
X478000Y689999D02*
D03*
X486000Y673999D02*
D03*
Y642000D02*
D03*
X478000Y626000D02*
D03*
X486000Y610000D02*
D03*
X462000Y722000D02*
D03*
X470000Y706000D02*
D03*
X462000Y689999D02*
D03*
X470000Y673999D02*
D03*
Y642000D02*
D03*
X462000Y626000D02*
D03*
X470000Y610000D02*
D03*
X454000Y706000D02*
D03*
Y673999D02*
D03*
Y642000D02*
D03*
X446000Y626000D02*
D03*
X454000Y610000D02*
D03*
X438000Y673999D02*
D03*
Y642000D02*
D03*
X430000Y626000D02*
D03*
X438000Y610000D02*
D03*
X422000Y673999D02*
D03*
Y642000D02*
D03*
X414000Y626000D02*
D03*
X422000Y610000D02*
D03*
X406000Y673999D02*
D03*
Y642000D02*
D03*
X398000Y626000D02*
D03*
X406000Y610000D02*
D03*
X382000Y722000D02*
D03*
X390000Y642000D02*
D03*
Y610000D02*
D03*
X374000Y642000D02*
D03*
X342000Y706000D02*
D03*
X318000Y594000D02*
D03*
X302000Y626000D02*
D03*
Y594000D02*
D03*
X294000Y642000D02*
D03*
X286000Y626000D02*
D03*
X294000Y610000D02*
D03*
X286000Y594000D02*
D03*
X270000Y657999D02*
D03*
X278000Y642000D02*
D03*
X270000Y626000D02*
D03*
X278000Y610000D02*
D03*
X270000Y594000D02*
D03*
X262000Y673999D02*
D03*
X254000Y657999D02*
D03*
X262000Y642000D02*
D03*
X254000Y626000D02*
D03*
X262000Y610000D02*
D03*
X254000Y594000D02*
D03*
X238000Y689999D02*
D03*
X246000Y673999D02*
D03*
X238000Y657999D02*
D03*
X246000Y642000D02*
D03*
X238000Y626000D02*
D03*
X246000Y610000D02*
D03*
X238000Y594000D02*
D03*
X230000Y610000D02*
D03*
X222000Y594000D02*
D03*
X214000Y610000D02*
D03*
X206000Y594000D02*
D03*
X198000Y610000D02*
D03*
X190000Y594000D02*
D03*
X182000Y610000D02*
D03*
X174000Y594000D02*
D03*
X166000Y610000D02*
D03*
X150000D02*
D03*
X607500Y567500D02*
D03*
X355000Y642500D02*
D03*
X320000Y617500D02*
D03*
X595000Y642500D02*
D03*
X1017500Y695000D02*
D03*
X945000Y540000D02*
D03*
X809000Y541000D02*
D03*
X1035000Y470000D02*
D03*
Y530000D02*
D03*
Y625000D02*
D03*
X977500Y587500D02*
D03*
X1002500D02*
D03*
X948500Y327500D02*
D03*
X788000Y541000D02*
D03*
X1011327Y632157D02*
D03*
X947000Y631000D02*
D03*
X998000Y630000D02*
D03*
X822500Y772500D02*
D03*
X700000Y830000D02*
D03*
X580000D02*
D03*
X462500Y782500D02*
D03*
X267500Y355000D02*
D03*
X267500Y367500D02*
D03*
Y380000D02*
D03*
X257500Y390000D02*
D03*
X270000Y392500D02*
D03*
X257500Y402500D02*
D03*
X270000Y405000D02*
D03*
X257500Y415000D02*
D03*
X270000Y417500D02*
D03*
X282500Y407500D02*
D03*
X295000D02*
D03*
X307500D02*
D03*
X330000Y362500D02*
D03*
X387500Y355000D02*
D03*
X387500Y367500D02*
D03*
Y380000D02*
D03*
X377500Y390000D02*
D03*
X390000Y392500D02*
D03*
X377500Y402500D02*
D03*
X390000Y405000D02*
D03*
X377500Y415000D02*
D03*
X390000Y417500D02*
D03*
X402500Y407500D02*
D03*
X415000D02*
D03*
X427500D02*
D03*
X450000Y362500D02*
D03*
X507500Y355000D02*
D03*
X507500Y367500D02*
D03*
Y380000D02*
D03*
X497500Y390000D02*
D03*
X510000Y392500D02*
D03*
X497500Y402500D02*
D03*
X510000Y405000D02*
D03*
X497500Y415000D02*
D03*
X510000Y417500D02*
D03*
X522500Y407500D02*
D03*
X535000D02*
D03*
X547500D02*
D03*
X570000Y362500D02*
D03*
X627500Y355000D02*
D03*
X627500Y367500D02*
D03*
Y380000D02*
D03*
X617500Y390000D02*
D03*
X630000Y392500D02*
D03*
X617500Y402500D02*
D03*
X630000Y405000D02*
D03*
X617500Y415000D02*
D03*
X630000Y417500D02*
D03*
X642500Y407500D02*
D03*
X655000D02*
D03*
X667500D02*
D03*
X690000Y362500D02*
D03*
X750000Y367500D02*
D03*
Y380000D02*
D03*
X737500Y390000D02*
D03*
X750000Y392500D02*
D03*
X737500Y402500D02*
D03*
X750000Y405000D02*
D03*
X737500Y415000D02*
D03*
X750000Y417500D02*
D03*
X762500Y407500D02*
D03*
X775000D02*
D03*
X787500D02*
D03*
X812500Y825000D02*
D03*
X822500Y815000D02*
D03*
X810000Y812500D02*
D03*
X810000Y772500D02*
D03*
X797500Y772500D02*
D03*
X785000D02*
D03*
X772500D02*
D03*
X750000Y817500D02*
D03*
Y805000D02*
D03*
Y792500D02*
D03*
X690000Y837500D02*
D03*
X677500Y782500D02*
D03*
X665000D02*
D03*
X652500D02*
D03*
X630000Y827500D02*
D03*
Y815000D02*
D03*
Y802500D02*
D03*
X570000Y835000D02*
D03*
X557500Y782500D02*
D03*
X545000D02*
D03*
X532500D02*
D03*
X510000Y827500D02*
D03*
Y815000D02*
D03*
Y802500D02*
D03*
X452500Y835000D02*
D03*
X462500Y825000D02*
D03*
X450000Y822500D02*
D03*
X450000Y782500D02*
D03*
X437500Y782500D02*
D03*
X425000D02*
D03*
X412500D02*
D03*
X390000Y827500D02*
D03*
Y815000D02*
D03*
Y802500D02*
D03*
X732500Y527500D02*
D03*
X767750D02*
D03*
X270000Y772500D02*
D03*
Y785000D02*
D03*
Y797500D02*
D03*
X292500Y752500D02*
D03*
X305000D02*
D03*
X317500D02*
D03*
X330000Y742500D02*
D03*
X342500Y745000D02*
D03*
X330000Y755000D02*
D03*
X342500Y757500D02*
D03*
X330000Y767500D02*
D03*
X342500Y770000D02*
D03*
X330000Y780000D02*
D03*
X342500Y782500D02*
D03*
X330000Y792500D02*
D03*
X342500Y795000D02*
D03*
X332500Y805000D02*
D03*
D57*
X953250Y727500D02*
D03*
X926750D02*
D03*
X976750D02*
D03*
X1003250D02*
D03*
D58*
X700000Y431150D02*
D03*
Y388850D02*
D03*
X460000Y431150D02*
D03*
Y388850D02*
D03*
X820000Y431150D02*
D03*
Y388850D02*
D03*
X580000Y768850D02*
D03*
Y811150D02*
D03*
X250000Y728850D02*
D03*
Y771150D02*
D03*
X580000Y388850D02*
D03*
Y431150D02*
D03*
X340000Y388850D02*
D03*
Y431150D02*
D03*
X820000Y791150D02*
D03*
Y748850D02*
D03*
X700000Y811150D02*
D03*
Y768850D02*
D03*
X460000Y801150D02*
D03*
Y758850D02*
D03*
D59*
X945950Y704750D02*
D03*
X958650D02*
D03*
X971350D02*
D03*
X984050D02*
D03*
X945950Y650250D02*
D03*
X958650D02*
D03*
X971350D02*
D03*
X619050Y492750D02*
D03*
X606350D02*
D03*
X593650D02*
D03*
X580950D02*
D03*
X619050Y547250D02*
D03*
X606350D02*
D03*
X593650D02*
D03*
X379050Y492750D02*
D03*
X366350D02*
D03*
X353650D02*
D03*
X340950D02*
D03*
X379050Y547250D02*
D03*
X366350D02*
D03*
X353650D02*
D03*
X580950Y677250D02*
D03*
X593650D02*
D03*
X606350D02*
D03*
X619050D02*
D03*
X580950Y622750D02*
D03*
X593650D02*
D03*
X606350D02*
D03*
X340950Y677249D02*
D03*
X353650D02*
D03*
X366350D02*
D03*
X379050D02*
D03*
X340950Y622749D02*
D03*
X353650D02*
D03*
X366350D02*
D03*
D60*
X984050Y650250D02*
D03*
X580950Y547250D02*
D03*
X340950Y547250D02*
D03*
X619050Y622750D02*
D03*
X379050Y622749D02*
D03*
D61*
X250000Y367250D02*
D03*
Y332750D02*
D03*
X370000Y367250D02*
D03*
Y332750D02*
D03*
X490000Y367250D02*
D03*
Y332750D02*
D03*
X610000Y367250D02*
D03*
Y332750D02*
D03*
X730000Y367250D02*
D03*
Y332750D02*
D03*
X250000Y837250D02*
D03*
Y802750D02*
D03*
X730000Y857250D02*
D03*
Y822750D02*
D03*
X490000Y832750D02*
D03*
Y867250D02*
D03*
X610000D02*
D03*
Y832750D02*
D03*
X370000Y867250D02*
D03*
Y832750D02*
D03*
D62*
X934400Y614408D02*
D03*
X947100D02*
D03*
X959800D02*
D03*
X972500D02*
D03*
X985200D02*
D03*
X997900D02*
D03*
X1010600D02*
D03*
Y562592D02*
D03*
X997900D02*
D03*
X985200D02*
D03*
X972500D02*
D03*
X959800D02*
D03*
X947100D02*
D03*
X934400D02*
D03*
D63*
X339500Y121500D02*
Y147300D01*
X353000Y108000D02*
X800000D01*
X339500Y121500D02*
X353000Y108000D01*
X800000D02*
X916500Y224500D01*
Y269261D01*
X916001Y299261D02*
Y417405D01*
X916000Y299261D02*
X916001Y299261D01*
X887705Y445700D02*
X916001Y417405D01*
X916000Y269761D02*
Y299261D01*
Y269761D02*
X916500Y269261D01*
X882700Y445700D02*
X887705D01*
D64*
X320000Y658000D02*
X353650D01*
X560000D01*
X366350Y506350D02*
X372000Y512000D01*
X400000D01*
X560000Y660000D02*
X592500D01*
X400000Y512000D02*
X508800D01*
X746000Y660000D02*
X824284D01*
X592500D02*
X746000D01*
Y521908D02*
Y660000D01*
X824284D02*
X836000Y671716D01*
Y780000D01*
X607000Y512000D02*
X640000D01*
X836000Y780000D02*
X857300Y801300D01*
X508800Y512000D02*
X607000D01*
X606350Y511350D02*
X607000Y512000D01*
X640000D02*
X736092D01*
X508800Y512000D02*
X508800Y512000D01*
X736092D02*
X746000Y521908D01*
X746250Y593750D02*
X746350Y593650D01*
X592500Y660000D02*
X593650Y661150D01*
X857300Y801300D02*
X882700D01*
X882700Y801300D01*
X857300Y801300D02*
X857300Y801300D01*
M02*
