G04*
G04 #@! TF.GenerationSoftware,Altium Limited,Altium Designer,24.6.1 (21)*
G04*
G04 Layer_Physical_Order=3*
G04 Layer_Color=16440176*
%FSLAX44Y44*%
%MOMM*%
G71*
G04*
G04 #@! TF.SameCoordinates,2E76E9DF-5346-47BD-B1D1-113FD9C7C588*
G04*
G04*
G04 #@! TF.FilePolarity,Positive*
G04*
G01*
G75*
%ADD50C,0.3500*%
%ADD52C,1.5300*%
%ADD55C,4.8000*%
%ADD57C,1.8000*%
%ADD59C,8.0000*%
%ADD60C,1.0000*%
%ADD61C,1.0000*%
G36*
X564480Y1054996D02*
X587344Y1052995D01*
X610099Y1050000D01*
X632702Y1046014D01*
X655109Y1041047D01*
X677278Y1035106D01*
X699167Y1028205D01*
X720734Y1020355D01*
X741939Y1011572D01*
X762739Y1001872D01*
X783098Y991274D01*
X802974Y979799D01*
X822331Y967467D01*
X841131Y954303D01*
X859340Y940331D01*
X876922Y925578D01*
X893843Y910072D01*
X910073Y893843D01*
X925578Y876922D01*
X940331Y859340D01*
X954303Y841131D01*
X967467Y822331D01*
X979799Y802974D01*
X991274Y783098D01*
X1001872Y762739D01*
X1011572Y741939D01*
X1020355Y720734D01*
X1027128Y702126D01*
X1024302Y700219D01*
X1022719Y701802D01*
X1020781Y702921D01*
X1018619Y703500D01*
X1016381D01*
X1014219Y702921D01*
X1012281Y701802D01*
X1010698Y700219D01*
X1009579Y698281D01*
X1009000Y696119D01*
Y693881D01*
X1009579Y691719D01*
X1010698Y689781D01*
X1012281Y688198D01*
X1014219Y687079D01*
X1016381Y686500D01*
X1018619D01*
X1020781Y687079D01*
X1022719Y688198D01*
X1024302Y689781D01*
X1025421Y691719D01*
X1026000Y693881D01*
Y694520D01*
X1029500Y695059D01*
X1035106Y677278D01*
X1041047Y655109D01*
X1046014Y632702D01*
X1050000Y610099D01*
X1052995Y587344D01*
X1054996Y564480D01*
X1055997Y541551D01*
Y530075D01*
Y518599D01*
X1054996Y495670D01*
X1052995Y472806D01*
X1050000Y450051D01*
X1046014Y427448D01*
X1041047Y405041D01*
X1035106Y382872D01*
X1028205Y360983D01*
X1020355Y339416D01*
X1011572Y318211D01*
X1001872Y297411D01*
X991274Y277052D01*
X990154Y275112D01*
X986745Y276207D01*
X987119Y280000D01*
X986646Y284803D01*
X985245Y289421D01*
X982970Y293677D01*
X979908Y297408D01*
X976177Y300470D01*
X971921Y302745D01*
X967303Y304146D01*
X962500Y304618D01*
X957697Y304146D01*
X953079Y302745D01*
X948823Y300470D01*
X945092Y297408D01*
X945073Y297385D01*
X941573Y298637D01*
Y317643D01*
X945073Y319663D01*
X945219Y319579D01*
X947381Y319000D01*
X949619D01*
X951781Y319579D01*
X953719Y320698D01*
X955302Y322281D01*
X956421Y324219D01*
X957000Y326381D01*
Y328619D01*
X956421Y330781D01*
X955302Y332719D01*
X953719Y334302D01*
X951781Y335421D01*
X949619Y336000D01*
X947381D01*
X945219Y335421D01*
X945073Y335337D01*
X941573Y337357D01*
Y528495D01*
X943881Y531500D01*
X946119D01*
X948281Y532079D01*
X950219Y533198D01*
X951802Y534781D01*
X952921Y536719D01*
X953500Y538881D01*
Y541119D01*
X952921Y543281D01*
X951802Y545219D01*
X950219Y546802D01*
X948281Y547921D01*
X946119Y548500D01*
X943881D01*
X941573Y551505D01*
Y617000D01*
X941281Y619219D01*
X940613Y620831D01*
X941347Y621976D01*
X943214Y623371D01*
X943719Y623079D01*
X945881Y622500D01*
X948119D01*
X950281Y623079D01*
X952219Y624198D01*
X953802Y625781D01*
X954921Y627719D01*
X955500Y629881D01*
Y632119D01*
X954921Y634281D01*
X953802Y636219D01*
X952219Y637802D01*
X950281Y638921D01*
X948119Y639500D01*
X945881D01*
X943719Y638921D01*
X941781Y637802D01*
X940198Y636219D01*
X939079Y634281D01*
X938500Y632119D01*
Y629881D01*
X935654Y627117D01*
X935129Y626996D01*
X907162Y654962D01*
X905387Y656325D01*
X903319Y657181D01*
X901100Y657473D01*
X891804D01*
X890375Y658903D01*
X889157Y659606D01*
X889157Y663595D01*
X890375Y664298D01*
X892702Y666625D01*
X894348Y669475D01*
X895172Y672550D01*
X882700D01*
Y676050D01*
X895172D01*
X894348Y679125D01*
X892702Y681975D01*
X890375Y684303D01*
X889158Y685006D01*
Y688995D01*
X890375Y689698D01*
X892702Y692025D01*
X894348Y694876D01*
X895172Y697950D01*
X882700D01*
Y701450D01*
X895172D01*
X894348Y704525D01*
X892702Y707376D01*
X890375Y709703D01*
X889158Y710405D01*
X889158Y714395D01*
X890375Y715098D01*
X892702Y717425D01*
X894348Y720275D01*
X895172Y723350D01*
X882700D01*
Y726850D01*
X895172D01*
X894348Y729925D01*
X892702Y732775D01*
X890375Y735102D01*
X889157Y735805D01*
X889158Y739795D01*
X890375Y740498D01*
X892703Y742825D01*
X894348Y745675D01*
X895172Y748750D01*
X882700D01*
Y752250D01*
X895172D01*
X894348Y755325D01*
X892703Y758175D01*
X890375Y760502D01*
X889158Y761205D01*
X889158Y765195D01*
X890375Y765898D01*
X892702Y768225D01*
X894348Y771075D01*
X895172Y774150D01*
X882700D01*
Y777650D01*
X895172D01*
X894348Y780725D01*
X892702Y783575D01*
X890375Y785902D01*
X889158Y786605D01*
X889158Y790595D01*
X890375Y791297D01*
X892702Y793625D01*
X894348Y796475D01*
X895200Y799654D01*
Y802945D01*
X894348Y806125D01*
X892702Y808975D01*
X890375Y811302D01*
X887525Y812948D01*
X884346Y813800D01*
X881054D01*
X877875Y812948D01*
X875025Y811302D01*
X872697Y808975D01*
X871995Y807758D01*
X868005Y807758D01*
X867303Y808975D01*
X864975Y811302D01*
X862125Y812948D01*
X858946Y813800D01*
X855655D01*
X852475Y812948D01*
X849625Y811302D01*
X847298Y808975D01*
X845652Y806125D01*
X844800Y802946D01*
Y799654D01*
X845652Y796475D01*
X847298Y793625D01*
X849625Y791298D01*
X850842Y790595D01*
X850842Y786606D01*
X849624Y785903D01*
X847297Y783575D01*
X845652Y780725D01*
X844828Y777650D01*
X857300D01*
Y774150D01*
X844828D01*
X845652Y771075D01*
X847297Y768225D01*
X849624Y765898D01*
X850842Y765195D01*
X850842Y761205D01*
X849625Y760502D01*
X847298Y758175D01*
X845652Y755325D01*
X844828Y752250D01*
X857300D01*
Y748750D01*
X844828D01*
X845652Y745675D01*
X847298Y742825D01*
X849625Y740498D01*
X850842Y739795D01*
X850842Y735805D01*
X849625Y735103D01*
X847298Y732775D01*
X845652Y729925D01*
X844828Y726850D01*
X857300D01*
Y723350D01*
X844828D01*
X845652Y720275D01*
X847298Y717425D01*
X849625Y715098D01*
X850843Y714395D01*
Y710406D01*
X849625Y709703D01*
X847298Y707375D01*
X845652Y704525D01*
X844828Y701450D01*
X857300D01*
Y697950D01*
X844828D01*
X845652Y694875D01*
X847298Y692025D01*
X849625Y689698D01*
X850842Y688995D01*
X850842Y685005D01*
X849625Y684303D01*
X847298Y681975D01*
X845652Y679125D01*
X844828Y676050D01*
X857300D01*
Y672550D01*
X844828D01*
X845652Y669475D01*
X847298Y666625D01*
X849625Y664298D01*
X850843Y663595D01*
X850843Y659605D01*
X849625Y658902D01*
X847298Y656575D01*
X845652Y653725D01*
X844800Y650546D01*
Y647254D01*
X845652Y644075D01*
X847298Y641225D01*
X848727Y639796D01*
Y632604D01*
X847298Y631175D01*
X845652Y628325D01*
X844800Y625146D01*
Y621854D01*
X845652Y618675D01*
X847298Y615825D01*
X849625Y613498D01*
X850842Y612795D01*
X850842Y608805D01*
X849625Y608102D01*
X847297Y605775D01*
X845652Y602925D01*
X844828Y599850D01*
X857300D01*
Y596350D01*
X844828D01*
X845652Y593275D01*
X847297Y590425D01*
X849625Y588097D01*
X850842Y587394D01*
X850843Y583405D01*
X849625Y582702D01*
X847298Y580375D01*
X845652Y577525D01*
X844800Y574346D01*
Y571054D01*
X845652Y567875D01*
X847298Y565025D01*
X848727Y563596D01*
Y556404D01*
X847297Y554975D01*
X845652Y552125D01*
X844800Y548946D01*
Y545654D01*
X845652Y542475D01*
X847297Y539625D01*
X849625Y537298D01*
X850842Y536595D01*
X850842Y532605D01*
X849625Y531903D01*
X847298Y529575D01*
X845652Y526725D01*
X844828Y523650D01*
X857300D01*
Y520150D01*
X844828D01*
X845652Y517075D01*
X847298Y514225D01*
X849625Y511898D01*
X850843Y511194D01*
X850843Y507205D01*
X849625Y506502D01*
X847298Y504175D01*
X845652Y501325D01*
X844828Y498250D01*
X857300D01*
Y494750D01*
X844828D01*
X845652Y491675D01*
X847298Y488825D01*
X849625Y486497D01*
X850842Y485795D01*
X850842Y481805D01*
X849625Y481102D01*
X847297Y478775D01*
X845652Y475925D01*
X844800Y472746D01*
Y469454D01*
X845652Y466275D01*
X847297Y463425D01*
X849625Y461098D01*
X850842Y460395D01*
X850843Y456405D01*
X849625Y455702D01*
X847297Y453375D01*
X845652Y450525D01*
X844800Y447346D01*
Y444054D01*
X845652Y440875D01*
X847297Y438025D01*
X849625Y435697D01*
X850842Y434995D01*
X850842Y431005D01*
X849625Y430303D01*
X847298Y427975D01*
X845652Y425125D01*
X844800Y421946D01*
Y418654D01*
X845652Y415475D01*
X847298Y412625D01*
X849625Y410298D01*
X850842Y409595D01*
Y405605D01*
X849625Y404902D01*
X847298Y402575D01*
X845652Y399725D01*
X844800Y396546D01*
Y393254D01*
X845652Y390075D01*
X847298Y387225D01*
X849625Y384898D01*
X850843Y384195D01*
X850842Y380205D01*
X849625Y379502D01*
X847297Y377175D01*
X845652Y374325D01*
X844800Y371146D01*
Y367854D01*
X845652Y364675D01*
X847297Y361825D01*
X849625Y359497D01*
X850842Y358795D01*
X850842Y354805D01*
X849625Y354103D01*
X847298Y351775D01*
X845652Y348925D01*
X844800Y345746D01*
Y342454D01*
X845652Y339275D01*
X847298Y336425D01*
X849625Y334098D01*
X850842Y333395D01*
X850842Y329405D01*
X849625Y328703D01*
X847298Y326375D01*
X845652Y323525D01*
X844800Y320346D01*
Y317054D01*
X845652Y313875D01*
X847298Y311025D01*
X849625Y308698D01*
X852475Y307052D01*
X855655Y306200D01*
X858946D01*
X862125Y307052D01*
X864975Y308698D01*
X867303Y311025D01*
X868006Y312242D01*
X871995Y312242D01*
X872698Y311025D01*
X875025Y308697D01*
X877875Y307052D01*
X881054Y306200D01*
X884346D01*
X887525Y307052D01*
X890375Y308697D01*
X892703Y311025D01*
X894348Y313875D01*
X895200Y317054D01*
Y320345D01*
X894348Y323525D01*
X892703Y326375D01*
X890375Y328702D01*
X889158Y329405D01*
X889157Y333395D01*
X890375Y334098D01*
X892702Y336425D01*
X894348Y339275D01*
X895200Y342454D01*
Y345746D01*
X894348Y348925D01*
X892702Y351775D01*
X890375Y354103D01*
X889158Y354805D01*
X889158Y358795D01*
X890375Y359498D01*
X892703Y361825D01*
X894348Y364675D01*
X895200Y367854D01*
Y371146D01*
X894348Y374325D01*
X892703Y377175D01*
X890375Y379502D01*
X889158Y380205D01*
Y384195D01*
X890375Y384897D01*
X892703Y387225D01*
X894348Y390075D01*
X895200Y393254D01*
Y396545D01*
X894348Y399725D01*
X892703Y402575D01*
X890375Y404902D01*
X889158Y405605D01*
X889158Y409594D01*
X890375Y410297D01*
X892702Y412625D01*
X894348Y415475D01*
X895200Y418654D01*
Y421945D01*
X894348Y425125D01*
X892702Y427975D01*
X890375Y430302D01*
X889157Y431006D01*
X889157Y434995D01*
X890375Y435698D01*
X892702Y438025D01*
X894348Y440875D01*
X895200Y444054D01*
Y447346D01*
X894348Y450525D01*
X892702Y453375D01*
X890375Y455703D01*
X889158Y456405D01*
X889158Y460395D01*
X890375Y461097D01*
X892703Y463425D01*
X894348Y466275D01*
X895200Y469454D01*
Y472746D01*
X894348Y475925D01*
X892703Y478775D01*
X890375Y481102D01*
X889158Y481805D01*
X889158Y485795D01*
X890375Y486497D01*
X892703Y488825D01*
X894348Y491675D01*
X895200Y494854D01*
Y498145D01*
X894348Y501325D01*
X892703Y504175D01*
X890375Y506502D01*
X889158Y507205D01*
X889157Y511194D01*
X890375Y511898D01*
X892702Y514225D01*
X894348Y517075D01*
X895172Y520150D01*
X882700D01*
Y523650D01*
X895172D01*
X894348Y526725D01*
X892702Y529575D01*
X890375Y531903D01*
X889158Y532605D01*
X889158Y536595D01*
X890375Y537298D01*
X892702Y539625D01*
X894348Y542475D01*
X895172Y545550D01*
X882700D01*
Y549050D01*
X895172D01*
X894348Y552125D01*
X892702Y554975D01*
X890375Y557303D01*
X889158Y558005D01*
X889158Y561995D01*
X890375Y562698D01*
X891804Y564127D01*
X894533D01*
X901427Y557233D01*
Y251051D01*
X897891Y247515D01*
X894530Y249105D01*
X894619Y250000D01*
X894146Y254803D01*
X892745Y259421D01*
X890470Y263677D01*
X887408Y267408D01*
X883677Y270470D01*
X879421Y272745D01*
X874803Y274146D01*
X870000Y274619D01*
X865197Y274146D01*
X860579Y272745D01*
X856323Y270470D01*
X852592Y267408D01*
X849530Y263677D01*
X847255Y259421D01*
X845854Y254803D01*
X845381Y250000D01*
X845854Y245197D01*
X847255Y240579D01*
X849530Y236323D01*
X852592Y232592D01*
X856323Y229530D01*
X860579Y227255D01*
X865197Y225854D01*
X870000Y225382D01*
X870895Y225470D01*
X872485Y222109D01*
X831649Y181273D01*
X778495D01*
X778146Y181622D01*
X775604Y183090D01*
X772768Y183850D01*
X769832D01*
X766996Y183090D01*
X764454Y181622D01*
X762378Y179546D01*
X760910Y177004D01*
X760412Y175144D01*
X756788D01*
X756290Y177004D01*
X754822Y179546D01*
X752746Y181622D01*
X750204Y183090D01*
X747368Y183850D01*
X744432D01*
X741596Y183090D01*
X739054Y181622D01*
X738705Y181273D01*
X727695D01*
X727346Y181622D01*
X724804Y183090D01*
X721968Y183850D01*
X719032D01*
X716196Y183090D01*
X713654Y181622D01*
X711578Y179546D01*
X710110Y177004D01*
X709612Y175145D01*
X705988D01*
X705490Y177004D01*
X704022Y179546D01*
X701946Y181622D01*
X699404Y183090D01*
X696850Y183775D01*
Y172700D01*
X693350D01*
Y183775D01*
X690796Y183090D01*
X688254Y181622D01*
X686178Y179546D01*
X684710Y177004D01*
X684212Y175145D01*
X680588D01*
X680090Y177004D01*
X678622Y179546D01*
X676546Y181622D01*
X674004Y183090D01*
X671450Y183774D01*
Y172700D01*
X667950D01*
Y183774D01*
X665396Y183090D01*
X662854Y181622D01*
X660778Y179546D01*
X659310Y177004D01*
X658812Y175145D01*
X655188D01*
X654690Y177004D01*
X653222Y179546D01*
X651146Y181622D01*
X648604Y183090D01*
X645768Y183850D01*
X642832D01*
X639996Y183090D01*
X637454Y181622D01*
X635378Y179546D01*
X633910Y177004D01*
X633412Y175145D01*
X629788D01*
X629290Y177004D01*
X627822Y179546D01*
X625746Y181622D01*
X623204Y183090D01*
X620368Y183850D01*
X617432D01*
X614596Y183090D01*
X612054Y181622D01*
X609978Y179546D01*
X608510Y177004D01*
X608012Y175145D01*
X604388D01*
X603890Y177004D01*
X602422Y179546D01*
X600346Y181622D01*
X597804Y183090D01*
X594968Y183850D01*
X592032D01*
X589196Y183090D01*
X586654Y181622D01*
X584578Y179546D01*
X583110Y177004D01*
X582612Y175144D01*
X578988D01*
X578490Y177004D01*
X577022Y179546D01*
X574946Y181622D01*
X572404Y183090D01*
X569568Y183850D01*
X566632D01*
X563796Y183090D01*
X561254Y181622D01*
X559178Y179546D01*
X557710Y177004D01*
X557212Y175145D01*
X553588D01*
X553090Y177004D01*
X551622Y179546D01*
X549546Y181622D01*
X547004Y183090D01*
X544168Y183850D01*
X541232D01*
X538396Y183090D01*
X535854Y181622D01*
X533778Y179546D01*
X532310Y177004D01*
X531812Y175145D01*
X528188D01*
X527690Y177004D01*
X526222Y179546D01*
X524146Y181622D01*
X521604Y183090D01*
X518768Y183850D01*
X515832D01*
X512996Y183090D01*
X510454Y181622D01*
X508378Y179546D01*
X506910Y177004D01*
X506412Y175145D01*
X502788D01*
X502290Y177003D01*
X500822Y179546D01*
X498746Y181622D01*
X496204Y183090D01*
X493368Y183850D01*
X490432D01*
X487596Y183090D01*
X485054Y181622D01*
X482978Y179546D01*
X481510Y177003D01*
X481012Y175144D01*
X477388D01*
X476890Y177004D01*
X475422Y179547D01*
X473346Y181622D01*
X470804Y183090D01*
X467968Y183850D01*
X465032D01*
X462196Y183090D01*
X459654Y181622D01*
X457578Y179547D01*
X456110Y177004D01*
X455612Y175145D01*
X451988D01*
X451490Y177004D01*
X450022Y179546D01*
X447946Y181622D01*
X445404Y183090D01*
X442568Y183850D01*
X439632D01*
X436796Y183090D01*
X434254Y181622D01*
X432178Y179546D01*
X430710Y177004D01*
X430212Y175145D01*
X426588D01*
X426090Y177004D01*
X424622Y179546D01*
X422546Y181622D01*
X420004Y183090D01*
X417168Y183850D01*
X414232D01*
X411396Y183090D01*
X408854Y181622D01*
X406778Y179546D01*
X405310Y177004D01*
X404812Y175145D01*
X401188D01*
X400690Y177004D01*
X399222Y179546D01*
X397146Y181622D01*
X394604Y183090D01*
X392050Y183774D01*
Y172700D01*
X388550D01*
Y183774D01*
X385996Y183090D01*
X383454Y181622D01*
X381378Y179546D01*
X379910Y177004D01*
X379412Y175144D01*
X375788D01*
X375290Y177004D01*
X373822Y179546D01*
X371746Y181622D01*
X369204Y183090D01*
X366368Y183850D01*
X363432D01*
X360596Y183090D01*
X358054Y181622D01*
X355978Y179546D01*
X354510Y177004D01*
X354012Y175145D01*
X350388D01*
X349890Y177004D01*
X348422Y179546D01*
X346346Y181622D01*
X343804Y183090D01*
X340968Y183850D01*
X338032D01*
X335196Y183090D01*
X332654Y181622D01*
X330578Y179546D01*
X329110Y177004D01*
X328612Y175145D01*
X324988D01*
X324490Y177004D01*
X323022Y179546D01*
X320946Y181622D01*
X318404Y183090D01*
X315568Y183850D01*
X312632D01*
X309796Y183090D01*
X307254Y181622D01*
X305178Y179546D01*
X303710Y177004D01*
X303212Y175145D01*
X299588D01*
X299090Y177004D01*
X297622Y179547D01*
X295546Y181622D01*
X293004Y183090D01*
X290168Y183850D01*
X287232D01*
X284396Y183090D01*
X281854Y181622D01*
X279778Y179547D01*
X278310Y177004D01*
X277550Y174168D01*
Y171232D01*
X278310Y168396D01*
X279778Y165854D01*
X281854Y163778D01*
X284396Y162310D01*
X286255Y161812D01*
Y158188D01*
X284396Y157690D01*
X281854Y156222D01*
X279778Y154146D01*
X278310Y151604D01*
X277550Y148768D01*
Y145832D01*
X278310Y142996D01*
X279778Y140454D01*
X281854Y138378D01*
X284396Y136910D01*
X287232Y136150D01*
X290168D01*
X293004Y136910D01*
X295546Y138378D01*
X297622Y140454D01*
X299090Y142996D01*
X299588Y144856D01*
X303212D01*
X303710Y142996D01*
X305178Y140454D01*
X307254Y138378D01*
X309796Y136910D01*
X312632Y136150D01*
X315568D01*
X318404Y136910D01*
X320946Y138378D01*
X323022Y140454D01*
X324490Y142996D01*
X324988Y144855D01*
X328612D01*
X329110Y142996D01*
X330578Y140454D01*
X332654Y138378D01*
X335196Y136910D01*
X338032Y136150D01*
X340968D01*
X343804Y136910D01*
X346346Y138378D01*
X348422Y140454D01*
X349890Y142996D01*
X350388Y144855D01*
X354012D01*
X354510Y142996D01*
X355978Y140454D01*
X358054Y138378D01*
X360597Y136910D01*
X363432Y136150D01*
X366368D01*
X369204Y136910D01*
X371746Y138378D01*
X373822Y140454D01*
X375290Y142996D01*
X375788Y144855D01*
X379412D01*
X379910Y142996D01*
X381378Y140454D01*
X383454Y138378D01*
X385996Y136910D01*
X388550Y136226D01*
Y147300D01*
X392050D01*
Y136226D01*
X394604Y136910D01*
X397146Y138378D01*
X399222Y140454D01*
X400690Y142996D01*
X401188Y144855D01*
X404812D01*
X405310Y142996D01*
X406778Y140454D01*
X408854Y138378D01*
X411396Y136910D01*
X413950Y136226D01*
Y147300D01*
X417450D01*
Y136226D01*
X420004Y136910D01*
X422546Y138378D01*
X424622Y140454D01*
X426090Y142996D01*
X426588Y144855D01*
X430212D01*
X430710Y142996D01*
X432178Y140454D01*
X434254Y138378D01*
X436796Y136910D01*
X439350Y136226D01*
Y147300D01*
X442850D01*
Y136226D01*
X445404Y136910D01*
X447946Y138378D01*
X450022Y140454D01*
X451490Y142996D01*
X451988Y144855D01*
X455612D01*
X456110Y142996D01*
X457578Y140454D01*
X459654Y138378D01*
X462196Y136910D01*
X464750Y136226D01*
Y147300D01*
X468250D01*
Y136226D01*
X470804Y136910D01*
X473346Y138378D01*
X475422Y140454D01*
X476890Y142996D01*
X477388Y144856D01*
X481012D01*
X481510Y142996D01*
X482978Y140454D01*
X485054Y138378D01*
X487596Y136910D01*
X490150Y136226D01*
Y147300D01*
X493650D01*
Y136226D01*
X496204Y136910D01*
X498746Y138378D01*
X500822Y140454D01*
X502290Y142996D01*
X502788Y144855D01*
X506412D01*
X506910Y142996D01*
X508378Y140454D01*
X510454Y138378D01*
X512996Y136910D01*
X515550Y136226D01*
Y147300D01*
X519050D01*
Y136226D01*
X521604Y136910D01*
X524146Y138378D01*
X526222Y140454D01*
X527690Y142996D01*
X528188Y144855D01*
X531812D01*
X532310Y142996D01*
X533778Y140454D01*
X535854Y138378D01*
X538396Y136910D01*
X540950Y136226D01*
Y147300D01*
X544450D01*
Y136226D01*
X547004Y136910D01*
X549546Y138378D01*
X551622Y140454D01*
X553090Y142996D01*
X553588Y144855D01*
X557212D01*
X557710Y142997D01*
X559178Y140454D01*
X561254Y138378D01*
X563796Y136910D01*
X566350Y136226D01*
Y147300D01*
X569850D01*
Y136226D01*
X572404Y136910D01*
X574946Y138378D01*
X577022Y140454D01*
X578490Y142997D01*
X578988Y144856D01*
X582612D01*
X583110Y142996D01*
X584578Y140454D01*
X586654Y138378D01*
X589196Y136910D01*
X591750Y136225D01*
Y147300D01*
X595250D01*
Y136225D01*
X597804Y136910D01*
X600346Y138378D01*
X602422Y140454D01*
X603890Y142996D01*
X604388Y144855D01*
X608012D01*
X608510Y142996D01*
X609978Y140454D01*
X612054Y138378D01*
X614596Y136910D01*
X617150Y136226D01*
Y147300D01*
X620650D01*
Y136226D01*
X623204Y136910D01*
X625746Y138378D01*
X627822Y140454D01*
X629290Y142996D01*
X629788Y144855D01*
X633412D01*
X633910Y142996D01*
X635378Y140454D01*
X637454Y138378D01*
X639996Y136910D01*
X642550Y136226D01*
Y147300D01*
X646050D01*
Y136226D01*
X648604Y136910D01*
X651146Y138378D01*
X653222Y140454D01*
X654690Y142996D01*
X655188Y144855D01*
X658812D01*
X659310Y142996D01*
X660778Y140454D01*
X662854Y138378D01*
X665396Y136910D01*
X668232Y136150D01*
X671168D01*
X674004Y136910D01*
X676546Y138378D01*
X678622Y140454D01*
X680090Y142996D01*
X680588Y144856D01*
X684212D01*
X684710Y142996D01*
X686178Y140454D01*
X688254Y138378D01*
X690796Y136910D01*
X693632Y136150D01*
X696568D01*
X699404Y136910D01*
X701946Y138378D01*
X704022Y140454D01*
X705490Y142996D01*
X705988Y144855D01*
X709612D01*
X710110Y142996D01*
X711578Y140454D01*
X711926Y140105D01*
Y131716D01*
X712219Y129497D01*
X713075Y127429D01*
X714438Y125653D01*
X725457Y114634D01*
X727233Y113271D01*
X729301Y112415D01*
X731519Y112123D01*
X815696D01*
X817915Y112415D01*
X819983Y113271D01*
X821758Y114634D01*
X939062Y231938D01*
X940425Y233713D01*
X941281Y235781D01*
X941573Y238000D01*
Y261363D01*
X945073Y262615D01*
X945092Y262592D01*
X948823Y259530D01*
X953079Y257255D01*
X957697Y255854D01*
X962500Y255382D01*
X967303Y255854D01*
X971921Y257255D01*
X976177Y259530D01*
X977963Y260996D01*
X980675Y258694D01*
X979799Y257176D01*
X967467Y237819D01*
X954303Y219019D01*
X940331Y200810D01*
X925578Y183228D01*
X910072Y166307D01*
X893843Y150077D01*
X876922Y134572D01*
X859340Y119819D01*
X841131Y105847D01*
X822331Y92683D01*
X802974Y80351D01*
X783098Y68876D01*
X762739Y58278D01*
X741939Y48578D01*
X720734Y39795D01*
X699167Y31945D01*
X677278Y25044D01*
X655109Y19103D01*
X632702Y14136D01*
X610099Y10150D01*
X587344Y7155D01*
X564480Y5154D01*
X541551Y4153D01*
X518599D01*
X495670Y5154D01*
X472806Y7155D01*
X450051Y10150D01*
X427448Y14136D01*
X405041Y19103D01*
X382872Y25044D01*
X360983Y31945D01*
X339416Y39795D01*
X318211Y48578D01*
X297411Y58278D01*
X277052Y68875D01*
X257176Y80351D01*
X237819Y92683D01*
X219019Y105847D01*
X200810Y119819D01*
X183228Y134572D01*
X166307Y150078D01*
X150077Y166307D01*
X134572Y183228D01*
X119819Y200810D01*
X105847Y219019D01*
X92683Y237819D01*
X80351Y257176D01*
X79610Y258460D01*
X82322Y260762D01*
X83823Y259530D01*
X88079Y257255D01*
X92697Y255854D01*
X97500Y255382D01*
X102303Y255854D01*
X106921Y257255D01*
X111177Y259530D01*
X114908Y262592D01*
X117970Y266323D01*
X120245Y270579D01*
X121645Y275197D01*
X122119Y280000D01*
X121645Y284803D01*
X120245Y289421D01*
X117970Y293677D01*
X114908Y297408D01*
X111177Y300470D01*
X106921Y302745D01*
X102303Y304146D01*
X97500Y304618D01*
X92697Y304146D01*
X88079Y302745D01*
X83823Y300470D01*
X80092Y297408D01*
X77030Y293677D01*
X74756Y289421D01*
X73355Y284803D01*
X72881Y280000D01*
X73224Y276520D01*
X69815Y275425D01*
X68876Y277052D01*
X58278Y297411D01*
X48578Y318211D01*
X39795Y339416D01*
X31945Y360983D01*
X25044Y382872D01*
X19103Y405041D01*
X14136Y427448D01*
X10150Y450051D01*
X7155Y472806D01*
X5154Y495670D01*
X4153Y518599D01*
Y530075D01*
Y541551D01*
X5154Y564480D01*
X7155Y587344D01*
X10150Y610099D01*
X14136Y632702D01*
X19103Y655109D01*
X25044Y677278D01*
X31945Y699167D01*
X39795Y720734D01*
X48578Y741939D01*
X58278Y762739D01*
X68876Y783098D01*
X80351Y802974D01*
X92683Y822331D01*
X105847Y841131D01*
X119819Y859340D01*
X134572Y876922D01*
X150078Y893843D01*
X166307Y910073D01*
X183228Y925578D01*
X200810Y940331D01*
X219019Y954303D01*
X237819Y967467D01*
X257176Y979799D01*
X277052Y991274D01*
X297411Y1001872D01*
X318211Y1011572D01*
X339416Y1020355D01*
X360983Y1028205D01*
X382872Y1035106D01*
X405041Y1041047D01*
X427448Y1046014D01*
X450051Y1050000D01*
X472806Y1052995D01*
X495670Y1054996D01*
X517904Y1055966D01*
X518296Y1055493D01*
X517743Y1051229D01*
X516323Y1050470D01*
X512592Y1047408D01*
X509530Y1043677D01*
X507255Y1039421D01*
X505854Y1034803D01*
X505382Y1030000D01*
X505854Y1025197D01*
X507255Y1020579D01*
X509530Y1016323D01*
X512592Y1012592D01*
X516323Y1009530D01*
X520579Y1007255D01*
X525197Y1005854D01*
X530000Y1005381D01*
X534803Y1005854D01*
X539421Y1007255D01*
X543677Y1009530D01*
X547408Y1012592D01*
X550470Y1016323D01*
X552745Y1020579D01*
X554146Y1025197D01*
X554619Y1030000D01*
X554146Y1034803D01*
X552745Y1039421D01*
X550470Y1043677D01*
X547408Y1047408D01*
X543677Y1050470D01*
X542050Y1051339D01*
X541690Y1055501D01*
X542092Y1055973D01*
X564480Y1054996D01*
D02*
G37*
G36*
X924427Y613449D02*
Y540000D01*
Y241551D01*
X812145Y129269D01*
X735071D01*
X729073Y135267D01*
Y140105D01*
X729422Y140454D01*
X730890Y142996D01*
X731388Y144855D01*
X735012D01*
X735510Y142996D01*
X736978Y140454D01*
X739054Y138378D01*
X741596Y136910D01*
X744432Y136150D01*
X747368D01*
X750204Y136910D01*
X752746Y138378D01*
X753095Y138727D01*
X764105D01*
X764454Y138378D01*
X766996Y136910D01*
X769832Y136150D01*
X772768D01*
X775604Y136910D01*
X778146Y138378D01*
X780222Y140454D01*
X781690Y142996D01*
X782450Y145832D01*
Y148768D01*
X781690Y151603D01*
X780222Y154146D01*
X779874Y154495D01*
Y164127D01*
X835200D01*
X837419Y164419D01*
X839487Y165275D01*
X841262Y166638D01*
X916062Y241438D01*
X917425Y243213D01*
X918281Y245281D01*
X918573Y247500D01*
Y560784D01*
X918281Y563003D01*
X917425Y565071D01*
X916062Y566847D01*
X904146Y578762D01*
X902371Y580125D01*
X900303Y580981D01*
X898084Y581273D01*
X891804D01*
X890375Y582702D01*
X889157Y583405D01*
X889158Y587395D01*
X890375Y588098D01*
X892702Y590425D01*
X894348Y593275D01*
X895172Y596350D01*
X882700D01*
Y599850D01*
X895172D01*
X894348Y602925D01*
X892702Y605775D01*
X890375Y608103D01*
X889158Y608806D01*
X889158Y612795D01*
X890375Y613498D01*
X892703Y615825D01*
X894348Y618675D01*
X895172Y621750D01*
X882700D01*
Y625250D01*
X895172D01*
X894348Y628325D01*
X892703Y631175D01*
X890375Y633503D01*
X889158Y634205D01*
X889158Y638195D01*
X890375Y638898D01*
X891804Y640327D01*
X897549D01*
X924427Y613449D01*
D02*
G37*
%LPC*%
G36*
X870000Y894619D02*
X865197Y894146D01*
X860579Y892745D01*
X856323Y890470D01*
X852592Y887408D01*
X849530Y883677D01*
X847255Y879421D01*
X845854Y874803D01*
X845381Y870000D01*
X845854Y865197D01*
X847255Y860579D01*
X849530Y856323D01*
X852592Y852592D01*
X856323Y849530D01*
X860579Y847255D01*
X865197Y845854D01*
X870000Y845381D01*
X874803Y845854D01*
X879421Y847255D01*
X883677Y849530D01*
X887408Y852592D01*
X890470Y856323D01*
X892745Y860579D01*
X894146Y865197D01*
X894619Y870000D01*
X894146Y874803D01*
X892745Y879421D01*
X890470Y883677D01*
X887408Y887408D01*
X883677Y890470D01*
X879421Y892745D01*
X874803Y894146D01*
X870000Y894619D01*
D02*
G37*
G36*
X200000D02*
X195197Y894146D01*
X190579Y892745D01*
X186323Y890470D01*
X182592Y887408D01*
X179530Y883677D01*
X177255Y879421D01*
X175854Y874803D01*
X175382Y870000D01*
X175854Y865197D01*
X177255Y860579D01*
X179530Y856323D01*
X182592Y852592D01*
X186323Y849530D01*
X190579Y847255D01*
X195197Y845854D01*
X200000Y845381D01*
X204803Y845854D01*
X209421Y847255D01*
X213677Y849530D01*
X217408Y852592D01*
X220470Y856323D01*
X222745Y860579D01*
X224146Y865197D01*
X224618Y870000D01*
X224146Y874803D01*
X222745Y879421D01*
X220470Y883677D01*
X217408Y887408D01*
X213677Y890470D01*
X209421Y892745D01*
X204803Y894146D01*
X200000Y894619D01*
D02*
G37*
G36*
X662164Y897500D02*
X657836D01*
X653560Y896823D01*
X649444Y895485D01*
X645587Y893520D01*
X642085Y890976D01*
X639024Y887915D01*
X636480Y884413D01*
X634515Y880556D01*
X633177Y876440D01*
X632500Y872164D01*
Y867836D01*
X633177Y863560D01*
X634515Y859444D01*
X636480Y855587D01*
X639024Y852085D01*
X642085Y849024D01*
X645587Y846480D01*
X646529Y846000D01*
X645688Y842500D01*
X632500D01*
Y837060D01*
X631119Y836000D01*
X628881D01*
X626719Y835421D01*
X624781Y834302D01*
X623198Y832719D01*
X622079Y830781D01*
X621500Y828619D01*
Y826381D01*
X622079Y824219D01*
X623198Y822281D01*
X624229Y821250D01*
X623198Y820219D01*
X622079Y818281D01*
X621500Y816119D01*
Y813881D01*
X622079Y811719D01*
X623198Y809781D01*
X624229Y808750D01*
X623198Y807719D01*
X622079Y805781D01*
X621500Y803619D01*
Y801381D01*
X622079Y799219D01*
X623198Y797281D01*
X624781Y795698D01*
X626719Y794579D01*
X628881Y794000D01*
X631119D01*
X632500Y792940D01*
Y787500D01*
X641823D01*
X644102Y784000D01*
X644000Y783619D01*
Y781381D01*
X644579Y779219D01*
X645698Y777281D01*
X647281Y775698D01*
X649219Y774579D01*
X651381Y774000D01*
X653619D01*
X655781Y774579D01*
X657719Y775698D01*
X658750Y776729D01*
X659781Y775698D01*
X661719Y774579D01*
X663881Y774000D01*
X666119D01*
X668281Y774579D01*
X670219Y775698D01*
X671250Y776729D01*
X672281Y775698D01*
X674219Y774579D01*
X676381Y774000D01*
X678619D01*
X680781Y774579D01*
X682719Y775698D01*
X684302Y777281D01*
X685421Y779219D01*
X686000Y781381D01*
Y783619D01*
X685898Y784000D01*
X687500Y787500D01*
X687500D01*
Y824751D01*
X691000Y827645D01*
X691750Y827502D01*
X692079Y826719D01*
X693198Y824781D01*
X694781Y823198D01*
X696719Y822079D01*
X698881Y821500D01*
X701119D01*
X703281Y822079D01*
X705219Y823198D01*
X706802Y824781D01*
X707921Y826719D01*
X708500Y828881D01*
Y831119D01*
X707921Y833281D01*
X706802Y835219D01*
X705219Y836802D01*
X703281Y837921D01*
X701119Y838500D01*
X698881D01*
X697921Y840781D01*
X696802Y842719D01*
X695219Y844302D01*
X693281Y845421D01*
X691119Y846000D01*
X688881D01*
X686719Y845421D01*
X684781Y844302D01*
X683198Y842719D01*
X683072Y842500D01*
X674312D01*
X673471Y846000D01*
X674413Y846480D01*
X677915Y849024D01*
X680976Y852085D01*
X683520Y855587D01*
X685485Y859444D01*
X686823Y863560D01*
X687500Y867836D01*
Y872164D01*
X686823Y876440D01*
X685485Y880556D01*
X683520Y884413D01*
X680976Y887915D01*
X677915Y890976D01*
X674413Y893520D01*
X670556Y895485D01*
X666440Y896823D01*
X662164Y897500D01*
D02*
G37*
G36*
X542164Y897500D02*
X537836D01*
X533560Y896823D01*
X529444Y895485D01*
X525587Y893520D01*
X522085Y890976D01*
X519024Y887915D01*
X516480Y884413D01*
X514515Y880556D01*
X513177Y876440D01*
X512500Y872164D01*
Y867836D01*
X513177Y863560D01*
X514515Y859444D01*
X516480Y855587D01*
X519024Y852085D01*
X522085Y849024D01*
X525587Y846480D01*
X526529Y846000D01*
X525689Y842500D01*
X512500D01*
Y837060D01*
X511119Y836000D01*
X508881D01*
X506719Y835421D01*
X504781Y834302D01*
X503198Y832719D01*
X502079Y830781D01*
X501500Y828619D01*
Y826381D01*
X502079Y824219D01*
X503198Y822281D01*
X504229Y821250D01*
X503198Y820219D01*
X502079Y818281D01*
X501500Y816119D01*
Y813881D01*
X502079Y811719D01*
X503198Y809781D01*
X504229Y808750D01*
X503198Y807719D01*
X502079Y805781D01*
X501500Y803619D01*
Y801381D01*
X502079Y799219D01*
X503198Y797281D01*
X504781Y795698D01*
X506719Y794579D01*
X508881Y794000D01*
X511119D01*
X512500Y792940D01*
Y787500D01*
X521823D01*
X524102Y784000D01*
X524000Y783619D01*
Y781381D01*
X524579Y779219D01*
X525698Y777281D01*
X527281Y775698D01*
X529219Y774579D01*
X531381Y774000D01*
X533619D01*
X535781Y774579D01*
X537719Y775698D01*
X538750Y776729D01*
X539781Y775698D01*
X541719Y774579D01*
X543881Y774000D01*
X546119D01*
X548281Y774579D01*
X550219Y775698D01*
X551250Y776729D01*
X552281Y775698D01*
X554219Y774579D01*
X556381Y774000D01*
X558619D01*
X560781Y774579D01*
X562719Y775698D01*
X564302Y777281D01*
X565421Y779219D01*
X566000Y781381D01*
Y783619D01*
X565898Y784000D01*
X567500Y787500D01*
X567500D01*
Y823763D01*
X570582Y826451D01*
X572248Y826426D01*
X573198Y824781D01*
X574781Y823198D01*
X576719Y822079D01*
X578881Y821500D01*
X581119D01*
X583281Y822079D01*
X585219Y823198D01*
X586802Y824781D01*
X587921Y826719D01*
X588500Y828881D01*
Y831119D01*
X587921Y833281D01*
X586802Y835219D01*
X585219Y836802D01*
X583281Y837921D01*
X581119Y838500D01*
X578881D01*
X577930Y838245D01*
X577921Y838281D01*
X576802Y840219D01*
X575219Y841802D01*
X573281Y842921D01*
X571119Y843500D01*
X568881D01*
X566719Y842921D01*
X565990Y842500D01*
X554312D01*
X553471Y846000D01*
X554413Y846480D01*
X557915Y849024D01*
X560976Y852085D01*
X563520Y855587D01*
X565485Y859444D01*
X566823Y863560D01*
X567500Y867836D01*
Y872164D01*
X566823Y876440D01*
X565485Y880556D01*
X563520Y884413D01*
X560976Y887915D01*
X557915Y890976D01*
X554413Y893520D01*
X550556Y895485D01*
X546440Y896823D01*
X542164Y897500D01*
D02*
G37*
G36*
X422164Y897500D02*
X417836D01*
X413560Y896823D01*
X409444Y895485D01*
X405587Y893520D01*
X402085Y890976D01*
X399024Y887915D01*
X396480Y884413D01*
X394515Y880556D01*
X393177Y876440D01*
X392500Y872164D01*
Y867836D01*
X393177Y863560D01*
X394515Y859444D01*
X396480Y855587D01*
X399024Y852085D01*
X402085Y849024D01*
X405587Y846480D01*
X406529Y846000D01*
X405688Y842500D01*
X392500D01*
Y837060D01*
X391119Y836000D01*
X388881D01*
X386719Y835421D01*
X384781Y834302D01*
X383198Y832719D01*
X382079Y830781D01*
X381500Y828619D01*
Y826381D01*
X382079Y824219D01*
X383198Y822281D01*
X384229Y821250D01*
X383198Y820219D01*
X382079Y818281D01*
X381500Y816119D01*
Y813881D01*
X382079Y811719D01*
X383198Y809781D01*
X384229Y808750D01*
X383198Y807719D01*
X382079Y805781D01*
X381500Y803619D01*
Y801381D01*
X382079Y799219D01*
X383198Y797281D01*
X384781Y795698D01*
X386719Y794579D01*
X388881Y794000D01*
X391119D01*
X392500Y792940D01*
Y787500D01*
X401823D01*
X404102Y784000D01*
X404000Y783619D01*
Y781381D01*
X404579Y779219D01*
X405698Y777281D01*
X407281Y775698D01*
X409219Y774579D01*
X411381Y774000D01*
X413619D01*
X415781Y774579D01*
X417719Y775698D01*
X418750Y776729D01*
X419781Y775698D01*
X421719Y774579D01*
X423881Y774000D01*
X426119D01*
X428281Y774579D01*
X430219Y775698D01*
X431250Y776729D01*
X432281Y775698D01*
X434219Y774579D01*
X436381Y774000D01*
X438619D01*
X440781Y774579D01*
X442719Y775698D01*
X443750Y776729D01*
X444781Y775698D01*
X446719Y774579D01*
X448881Y774000D01*
X451119D01*
X453281Y774579D01*
X455219Y775698D01*
X456250Y776729D01*
X457281Y775698D01*
X459219Y774579D01*
X461381Y774000D01*
X463619D01*
X465781Y774579D01*
X467719Y775698D01*
X469302Y777281D01*
X470421Y779219D01*
X471000Y781381D01*
Y783619D01*
X470421Y785781D01*
X469302Y787719D01*
X467719Y789302D01*
X465781Y790421D01*
X463619Y791000D01*
X461381D01*
X459219Y790421D01*
X457281Y789302D01*
X456250Y788271D01*
X455219Y789302D01*
X453281Y790421D01*
X451119Y791000D01*
X448881D01*
X447500Y792060D01*
Y812940D01*
X448881Y814000D01*
X451119D01*
X453281Y814579D01*
X455219Y815698D01*
X456802Y817281D01*
X457319Y818176D01*
X459219Y817079D01*
X461381Y816500D01*
X463619D01*
X465781Y817079D01*
X467719Y818198D01*
X469302Y819781D01*
X470421Y821719D01*
X471000Y823881D01*
Y826119D01*
X470421Y828281D01*
X469302Y830219D01*
X467719Y831802D01*
X465781Y832921D01*
X463619Y833500D01*
X461333Y833833D01*
X461000Y836119D01*
X460421Y838281D01*
X459302Y840219D01*
X457719Y841802D01*
X455781Y842921D01*
X453619Y843500D01*
X451381D01*
X450665Y843308D01*
X447500Y842500D01*
X447500Y842500D01*
X434311D01*
X433471Y846000D01*
X434413Y846480D01*
X437915Y849024D01*
X440976Y852085D01*
X443520Y855587D01*
X445485Y859444D01*
X446823Y863560D01*
X447500Y867836D01*
Y872164D01*
X446823Y876440D01*
X445485Y880556D01*
X443520Y884413D01*
X440976Y887915D01*
X437915Y890976D01*
X434413Y893520D01*
X430556Y895485D01*
X426440Y896823D01*
X422164Y897500D01*
D02*
G37*
G36*
X782164Y887500D02*
X777836D01*
X773560Y886823D01*
X769444Y885485D01*
X765587Y883520D01*
X762085Y880976D01*
X759024Y877915D01*
X756480Y874413D01*
X754515Y870556D01*
X753177Y866440D01*
X752500Y862164D01*
Y857836D01*
X753177Y853560D01*
X754515Y849444D01*
X756480Y845587D01*
X759024Y842085D01*
X762085Y839024D01*
X765587Y836480D01*
X766529Y836000D01*
X765688Y832500D01*
X752500D01*
Y827060D01*
X751119Y826000D01*
X748881D01*
X746719Y825421D01*
X744781Y824302D01*
X743198Y822719D01*
X742079Y820781D01*
X741500Y818619D01*
Y816381D01*
X742079Y814219D01*
X743198Y812281D01*
X744229Y811250D01*
X743198Y810219D01*
X742079Y808281D01*
X741500Y806119D01*
Y803881D01*
X742079Y801719D01*
X743198Y799781D01*
X744229Y798750D01*
X743198Y797719D01*
X742079Y795781D01*
X741500Y793619D01*
Y791381D01*
X742079Y789219D01*
X743198Y787281D01*
X744781Y785698D01*
X746719Y784579D01*
X748881Y784000D01*
X751119D01*
X752500Y782940D01*
Y777500D01*
X761823D01*
X764102Y774000D01*
X764000Y773619D01*
Y771381D01*
X764579Y769219D01*
X765698Y767281D01*
X767281Y765698D01*
X769219Y764579D01*
X771381Y764000D01*
X773619D01*
X775781Y764579D01*
X777719Y765698D01*
X778750Y766729D01*
X779781Y765698D01*
X781719Y764579D01*
X783881Y764000D01*
X786119D01*
X788281Y764579D01*
X790219Y765698D01*
X791250Y766729D01*
X792281Y765698D01*
X794219Y764579D01*
X796381Y764000D01*
X798619D01*
X800781Y764579D01*
X802719Y765698D01*
X803750Y766729D01*
X804781Y765698D01*
X806719Y764579D01*
X808881Y764000D01*
X811119D01*
X813281Y764579D01*
X815219Y765698D01*
X816250Y766729D01*
X817281Y765698D01*
X819219Y764579D01*
X821381Y764000D01*
X823619D01*
X825781Y764579D01*
X827719Y765698D01*
X829302Y767281D01*
X830421Y769219D01*
X831000Y771381D01*
Y773619D01*
X830421Y775781D01*
X829302Y777719D01*
X827719Y779302D01*
X825781Y780421D01*
X823619Y781000D01*
X821381D01*
X819219Y780421D01*
X817281Y779302D01*
X816250Y778271D01*
X815219Y779302D01*
X813281Y780421D01*
X811119Y781000D01*
X808881D01*
X807500Y782060D01*
Y802940D01*
X808881Y804000D01*
X811119D01*
X813281Y804579D01*
X815219Y805698D01*
X816802Y807281D01*
X817319Y808176D01*
X819219Y807079D01*
X821381Y806500D01*
X823619D01*
X825781Y807079D01*
X827719Y808198D01*
X829302Y809781D01*
X830421Y811719D01*
X831000Y813881D01*
Y816119D01*
X830421Y818281D01*
X829302Y820219D01*
X827719Y821802D01*
X825781Y822921D01*
X823619Y823500D01*
X821333Y823833D01*
X821000Y826119D01*
X820421Y828281D01*
X819302Y830219D01*
X817719Y831802D01*
X815781Y832921D01*
X813619Y833500D01*
X811381D01*
X810665Y833308D01*
X807500Y832500D01*
X807500Y832500D01*
X794312D01*
X793471Y836000D01*
X794413Y836480D01*
X797915Y839024D01*
X800976Y842085D01*
X803520Y845587D01*
X805485Y849444D01*
X806823Y853560D01*
X807500Y857836D01*
Y862164D01*
X806823Y866440D01*
X805485Y870556D01*
X803520Y874413D01*
X800976Y877915D01*
X797915Y880976D01*
X794413Y883520D01*
X790556Y885485D01*
X786440Y886823D01*
X782164Y887500D01*
D02*
G37*
G36*
X628619Y766000D02*
X626381D01*
X624219Y765421D01*
X622281Y764302D01*
X620698Y762719D01*
X619579Y760781D01*
X619000Y758619D01*
Y756381D01*
X619579Y754219D01*
X620698Y752281D01*
X622281Y750698D01*
X624219Y749579D01*
X626381Y749000D01*
X628619D01*
X630781Y749579D01*
X632719Y750698D01*
X634302Y752281D01*
X635421Y754219D01*
X636000Y756381D01*
Y758619D01*
X635421Y760781D01*
X634302Y762719D01*
X632719Y764302D01*
X630781Y765421D01*
X628619Y766000D01*
D02*
G37*
G36*
X508619D02*
X506381D01*
X504219Y765421D01*
X502281Y764302D01*
X500698Y762719D01*
X499579Y760781D01*
X499000Y758619D01*
Y756381D01*
X499579Y754219D01*
X500698Y752281D01*
X502281Y750698D01*
X504219Y749579D01*
X506381Y749000D01*
X508619D01*
X510781Y749579D01*
X512719Y750698D01*
X514302Y752281D01*
X515421Y754219D01*
X516000Y756381D01*
Y758619D01*
X515421Y760781D01*
X514302Y762719D01*
X512719Y764302D01*
X510781Y765421D01*
X508619Y766000D01*
D02*
G37*
G36*
X388619D02*
X386381D01*
X384219Y765421D01*
X382281Y764302D01*
X380698Y762719D01*
X379579Y760781D01*
X379000Y758619D01*
Y756381D01*
X379579Y754219D01*
X380698Y752281D01*
X382281Y750698D01*
X384219Y749579D01*
X386381Y749000D01*
X388619D01*
X390781Y749579D01*
X392719Y750698D01*
X394302Y752281D01*
X395421Y754219D01*
X396000Y756381D01*
Y758619D01*
X395421Y760781D01*
X394302Y762719D01*
X392719Y764302D01*
X390781Y765421D01*
X388619Y766000D01*
D02*
G37*
G36*
X748619Y758500D02*
X746381D01*
X744219Y757921D01*
X742281Y756802D01*
X740698Y755219D01*
X739579Y753281D01*
X739000Y751119D01*
Y748881D01*
X739579Y746719D01*
X740698Y744781D01*
X742281Y743198D01*
X744219Y742079D01*
X746381Y741500D01*
X748619D01*
X750781Y742079D01*
X752719Y743198D01*
X754302Y744781D01*
X755421Y746719D01*
X756000Y748881D01*
Y751119D01*
X755421Y753281D01*
X754302Y755219D01*
X752719Y756802D01*
X750781Y757921D01*
X748619Y758500D01*
D02*
G37*
G36*
X302164Y867500D02*
X297836D01*
X293560Y866823D01*
X289444Y865485D01*
X285587Y863520D01*
X282085Y860976D01*
X279024Y857915D01*
X276480Y854413D01*
X274515Y850556D01*
X273177Y846440D01*
X272500Y842164D01*
Y837836D01*
X273177Y833560D01*
X274515Y829444D01*
X276480Y825587D01*
X279024Y822085D01*
X282085Y819024D01*
X285587Y816480D01*
X286529Y816000D01*
X285688Y812500D01*
X272500D01*
Y807060D01*
X271119Y806000D01*
X268881D01*
X266719Y805421D01*
X264781Y804302D01*
X263198Y802719D01*
X262079Y800781D01*
X261500Y798619D01*
Y796381D01*
X262079Y794219D01*
X263198Y792281D01*
X264229Y791250D01*
X263198Y790219D01*
X262079Y788281D01*
X261500Y786119D01*
Y783881D01*
X262079Y781719D01*
X263198Y779781D01*
X264229Y778750D01*
X263198Y777719D01*
X262079Y775781D01*
X261500Y773619D01*
Y771381D01*
X262079Y769219D01*
X263198Y767281D01*
X264781Y765698D01*
X266719Y764579D01*
X268881Y764000D01*
X271119D01*
X272500Y762940D01*
Y757500D01*
X281823D01*
X284102Y754000D01*
X284000Y753619D01*
Y751381D01*
X284579Y749219D01*
X285698Y747281D01*
X287281Y745698D01*
X289219Y744579D01*
X291381Y744000D01*
X293619D01*
X295781Y744579D01*
X297719Y745698D01*
X298750Y746729D01*
X299781Y745698D01*
X301719Y744579D01*
X303881Y744000D01*
X306119D01*
X308281Y744579D01*
X310219Y745698D01*
X311250Y746729D01*
X312281Y745698D01*
X314219Y744579D01*
X316381Y744000D01*
X318188D01*
X318681Y743943D01*
X321500Y741381D01*
X322079Y739219D01*
X323198Y737281D01*
X324781Y735698D01*
X326719Y734579D01*
X328881Y734000D01*
X331119D01*
X333281Y734579D01*
X335219Y735698D01*
X336802Y737281D01*
X337319Y738176D01*
X339219Y737079D01*
X341381Y736500D01*
X343619D01*
X345781Y737079D01*
X347719Y738198D01*
X349302Y739781D01*
X350421Y741719D01*
X351000Y743881D01*
Y746119D01*
X350421Y748281D01*
X349302Y750219D01*
X348271Y751250D01*
X349302Y752281D01*
X350421Y754219D01*
X351000Y756381D01*
Y758619D01*
X350421Y760781D01*
X349302Y762719D01*
X348271Y763750D01*
X349302Y764781D01*
X350421Y766719D01*
X351000Y768881D01*
Y771119D01*
X350421Y773281D01*
X349302Y775219D01*
X348271Y776250D01*
X349302Y777281D01*
X350421Y779219D01*
X351000Y781381D01*
Y783619D01*
X350421Y785781D01*
X349302Y787719D01*
X348271Y788750D01*
X349302Y789781D01*
X350421Y791719D01*
X351000Y793881D01*
Y796119D01*
X350421Y798281D01*
X349302Y800219D01*
X347719Y801802D01*
X345781Y802921D01*
X343619Y803500D01*
X341333Y803833D01*
X341000Y806119D01*
X340421Y808281D01*
X339302Y810219D01*
X337719Y811802D01*
X335781Y812921D01*
X333619Y813500D01*
X331381D01*
X330665Y813308D01*
X327500Y812500D01*
X327500Y812500D01*
X314312D01*
X313471Y816000D01*
X314413Y816480D01*
X317915Y819024D01*
X320976Y822085D01*
X323520Y825587D01*
X325485Y829444D01*
X326823Y833560D01*
X327500Y837836D01*
Y842164D01*
X326823Y846440D01*
X325485Y850556D01*
X323520Y854413D01*
X320976Y857915D01*
X317915Y860976D01*
X314413Y863520D01*
X310556Y865485D01*
X306440Y866823D01*
X302164Y867500D01*
D02*
G37*
G36*
X268619Y736000D02*
X266381D01*
X264219Y735421D01*
X262281Y734302D01*
X260698Y732719D01*
X259579Y730781D01*
X259000Y728619D01*
Y726381D01*
X259579Y724219D01*
X260698Y722281D01*
X262281Y720698D01*
X264219Y719579D01*
X266381Y719000D01*
X268619D01*
X270781Y719579D01*
X272719Y720698D01*
X274302Y722281D01*
X275421Y724219D01*
X276000Y726381D01*
Y728619D01*
X275421Y730781D01*
X274302Y732719D01*
X272719Y734302D01*
X270781Y735421D01*
X268619Y736000D01*
D02*
G37*
G36*
X511120Y718501D02*
X508881D01*
X506720Y717921D01*
X504781Y716802D01*
X503199Y715220D01*
X502080Y713281D01*
X501812Y712283D01*
X498189D01*
X497921Y713281D01*
X496802Y715220D01*
X495220Y716802D01*
X493281Y717921D01*
X491119Y718501D01*
X488881D01*
X486720Y717921D01*
X484781Y716802D01*
X483199Y715220D01*
X482080Y713281D01*
X481812Y712283D01*
X478189D01*
X477921Y713281D01*
X476802Y715220D01*
X475220Y716802D01*
X473281Y717921D01*
X471119Y718501D01*
X468881D01*
X466720Y717921D01*
X464781Y716802D01*
X463199Y715220D01*
X462080Y713281D01*
X461812Y712283D01*
X458189D01*
X457921Y713281D01*
X456802Y715220D01*
X455220Y716802D01*
X453281Y717921D01*
X451119Y718501D01*
X448881D01*
X446720Y717921D01*
X444781Y716802D01*
X443199Y715220D01*
X442080Y713281D01*
X441501Y711120D01*
Y708882D01*
X442080Y706720D01*
X443199Y704781D01*
X444781Y703199D01*
X446720Y702080D01*
X448881Y701501D01*
X451119D01*
X453281Y702080D01*
X455220Y703199D01*
X456802Y704781D01*
X457921Y706720D01*
X458189Y707718D01*
X461812D01*
X462080Y706720D01*
X463199Y704781D01*
X464781Y703199D01*
X466720Y702080D01*
X468881Y701501D01*
X471119D01*
X473281Y702080D01*
X475220Y703199D01*
X476802Y704781D01*
X477921Y706720D01*
X478189Y707718D01*
X481812D01*
X482080Y706720D01*
X483199Y704781D01*
X484781Y703199D01*
X486720Y702080D01*
X488881Y701501D01*
X491119D01*
X493281Y702080D01*
X495220Y703199D01*
X496802Y704781D01*
X497921Y706720D01*
X498189Y707718D01*
X501812D01*
X502080Y706720D01*
X503199Y704781D01*
X504781Y703199D01*
X506720Y702080D01*
X508881Y701501D01*
X511120D01*
X513281Y702080D01*
X515220Y703199D01*
X516802Y704781D01*
X517921Y706720D01*
X518501Y708882D01*
Y711120D01*
X517921Y713281D01*
X516802Y715220D01*
X515220Y716802D01*
X513281Y717921D01*
X511120Y718501D01*
D02*
G37*
G36*
X631120D02*
X628881D01*
X626720Y717921D01*
X624781Y716802D01*
X623199Y715220D01*
X622080Y713281D01*
X621501Y711120D01*
Y708882D01*
X622080Y706720D01*
X623199Y704781D01*
X624781Y703199D01*
X626720Y702080D01*
X628881Y701501D01*
X631120D01*
X633281Y702080D01*
X635220Y703199D01*
X636802Y704781D01*
X637921Y706720D01*
X638501Y708882D01*
Y711120D01*
X637921Y713281D01*
X636802Y715220D01*
X635220Y716802D01*
X633281Y717921D01*
X631120Y718501D01*
D02*
G37*
G36*
X571120D02*
X568881D01*
X566720Y717921D01*
X564781Y716802D01*
X563199Y715220D01*
X562080Y713281D01*
X561501Y711120D01*
Y708882D01*
X562080Y706720D01*
X563199Y704781D01*
X564781Y703199D01*
X566720Y702080D01*
X568881Y701501D01*
X571120D01*
X573281Y702080D01*
X575220Y703199D01*
X576802Y704781D01*
X577921Y706720D01*
X578501Y708882D01*
Y711120D01*
X577921Y713281D01*
X576802Y715220D01*
X575220Y716802D01*
X573281Y717921D01*
X571120Y718501D01*
D02*
G37*
G36*
X391119D02*
X388881D01*
X386720Y717921D01*
X384781Y716802D01*
X383199Y715220D01*
X382080Y713281D01*
X381501Y711120D01*
Y708882D01*
X382080Y706720D01*
X383199Y704781D01*
X384781Y703199D01*
X386720Y702080D01*
X388881Y701501D01*
X391119D01*
X393281Y702080D01*
X395220Y703199D01*
X396802Y704781D01*
X397921Y706720D01*
X398500Y708882D01*
Y711120D01*
X397921Y713281D01*
X396802Y715220D01*
X395220Y716802D01*
X393281Y717921D01*
X391119Y718501D01*
D02*
G37*
G36*
X501119Y698501D02*
X498881D01*
X496720Y697921D01*
X494781Y696802D01*
X493199Y695220D01*
X492080Y693281D01*
X491812Y692283D01*
X488189D01*
X487921Y693281D01*
X486802Y695220D01*
X485220Y696802D01*
X483281Y697921D01*
X481119Y698501D01*
X478881D01*
X476720Y697921D01*
X474781Y696802D01*
X473199Y695220D01*
X472080Y693281D01*
X471812Y692283D01*
X468189D01*
X467921Y693281D01*
X466802Y695220D01*
X465220Y696802D01*
X463281Y697921D01*
X461119Y698501D01*
X458881D01*
X456720Y697921D01*
X454781Y696802D01*
X453199Y695220D01*
X452080Y693281D01*
X451501Y691120D01*
Y688882D01*
X452080Y686720D01*
X453199Y684781D01*
X454781Y683199D01*
X456720Y682080D01*
X458881Y681501D01*
X461119D01*
X463281Y682080D01*
X465220Y683199D01*
X466802Y684781D01*
X467921Y686720D01*
X468189Y687718D01*
X471812D01*
X472080Y686720D01*
X473199Y684781D01*
X474781Y683199D01*
X476720Y682080D01*
X478881Y681501D01*
X481119D01*
X483281Y682080D01*
X485220Y683199D01*
X486802Y684781D01*
X487921Y686720D01*
X488189Y687718D01*
X491812D01*
X492080Y686720D01*
X493199Y684781D01*
X494781Y683199D01*
X496720Y682080D01*
X498881Y681501D01*
X501119D01*
X503281Y682080D01*
X505220Y683199D01*
X506802Y684781D01*
X507921Y686720D01*
X508501Y688882D01*
Y691120D01*
X507921Y693281D01*
X506802Y695220D01*
X505220Y696802D01*
X503281Y697921D01*
X501119Y698501D01*
D02*
G37*
G36*
X228500Y703500D02*
X141500D01*
Y616500D01*
X149896D01*
X151973Y613439D01*
X152004Y613000D01*
X151500Y611120D01*
Y608881D01*
X152080Y606720D01*
X153199Y604781D01*
X154781Y603199D01*
X156719Y602080D01*
X158881Y601501D01*
X161119D01*
X163281Y602080D01*
X165219Y603199D01*
X166802Y604781D01*
X167921Y606720D01*
X168189Y607718D01*
X171812D01*
X172080Y606720D01*
X173199Y604781D01*
X174781Y603199D01*
X176719Y602080D01*
X178881Y601501D01*
X181119D01*
X183281Y602080D01*
X185219Y603199D01*
X186802Y604781D01*
X187921Y606720D01*
X188189Y607718D01*
X191812D01*
X192080Y606720D01*
X193199Y604781D01*
X194781Y603199D01*
X196719Y602080D01*
X198881Y601501D01*
X201119D01*
X203281Y602080D01*
X205219Y603199D01*
X206802Y604781D01*
X207921Y606720D01*
X208189Y607718D01*
X211812D01*
X212080Y606720D01*
X213199Y604781D01*
X214781Y603199D01*
X216719Y602080D01*
X218881Y601501D01*
X221119D01*
X223281Y602080D01*
X225219Y603199D01*
X226802Y604781D01*
X227921Y606720D01*
X228189Y607718D01*
X231812D01*
X232080Y606720D01*
X233199Y604781D01*
X234781Y603199D01*
X236719Y602080D01*
X238881Y601501D01*
X241119D01*
X243281Y602080D01*
X245219Y603199D01*
X246802Y604781D01*
X247921Y606720D01*
X248189Y607718D01*
X251812D01*
X252080Y606720D01*
X253199Y604781D01*
X254781Y603199D01*
X256719Y602080D01*
X258881Y601501D01*
X261119D01*
X263281Y602080D01*
X265219Y603199D01*
X266802Y604781D01*
X267921Y606720D01*
X268189Y607718D01*
X271812D01*
X272080Y606720D01*
X273199Y604781D01*
X274781Y603199D01*
X276719Y602080D01*
X278881Y601501D01*
X281119D01*
X283281Y602080D01*
X285219Y603199D01*
X286802Y604781D01*
X287921Y606720D01*
X288189Y607718D01*
X291812D01*
X292080Y606720D01*
X293199Y604781D01*
X294781Y603199D01*
X296719Y602080D01*
X298881Y601501D01*
X301119D01*
X303281Y602080D01*
X305219Y603199D01*
X306802Y604781D01*
X307921Y606720D01*
X308500Y608881D01*
Y611120D01*
X307921Y613281D01*
X306802Y615220D01*
X305219Y616802D01*
X303281Y617921D01*
X301119Y618501D01*
X298881D01*
X296719Y617921D01*
X294781Y616802D01*
X293199Y615220D01*
X292080Y613281D01*
X291812Y612283D01*
X288189D01*
X287921Y613281D01*
X286802Y615220D01*
X285219Y616802D01*
X283281Y617921D01*
X281119Y618501D01*
X278881D01*
X276719Y617921D01*
X274781Y616802D01*
X273199Y615220D01*
X272080Y613281D01*
X271812Y612283D01*
X268189D01*
X267921Y613281D01*
X266802Y615220D01*
X265219Y616802D01*
X263281Y617921D01*
X261119Y618501D01*
X258881D01*
X256719Y617921D01*
X254781Y616802D01*
X253199Y615220D01*
X252080Y613281D01*
X251812Y612283D01*
X248189D01*
X247921Y613281D01*
X246802Y615220D01*
X245219Y616802D01*
X243281Y617921D01*
X241119Y618501D01*
X238881D01*
X236719Y617921D01*
X234781Y616802D01*
X233199Y615220D01*
X233153Y615140D01*
X233015Y615025D01*
X229020Y614814D01*
X228390Y615755D01*
X228500Y616500D01*
X228500D01*
Y646556D01*
X232000Y647017D01*
X232080Y646720D01*
X233199Y644781D01*
X234781Y643199D01*
X236719Y642080D01*
X238881Y641501D01*
X241119D01*
X243281Y642080D01*
X245219Y643199D01*
X246802Y644781D01*
X247921Y646720D01*
X248189Y647718D01*
X251812D01*
X252080Y646720D01*
X253199Y644781D01*
X254781Y643199D01*
X256719Y642080D01*
X258881Y641501D01*
X261119D01*
X263281Y642080D01*
X265219Y643199D01*
X266802Y644781D01*
X267921Y646720D01*
X268189Y647718D01*
X271812D01*
X272080Y646720D01*
X273199Y644781D01*
X274781Y643199D01*
X276719Y642080D01*
X278881Y641501D01*
X281119D01*
X283281Y642080D01*
X285219Y643199D01*
X286802Y644781D01*
X287921Y646720D01*
X288189Y647718D01*
X291812D01*
X292080Y646720D01*
X293199Y644781D01*
X294781Y643199D01*
X296719Y642080D01*
X298881Y641501D01*
X301119D01*
X303281Y642080D01*
X305219Y643199D01*
X306802Y644781D01*
X307921Y646720D01*
X308500Y648882D01*
Y651120D01*
X307921Y653281D01*
X306802Y655220D01*
X305219Y656802D01*
X303281Y657921D01*
X301119Y658501D01*
X298881D01*
X296719Y657921D01*
X294781Y656802D01*
X293199Y655220D01*
X292080Y653281D01*
X291812Y652283D01*
X288189D01*
X287921Y653281D01*
X286802Y655220D01*
X285219Y656802D01*
X283281Y657921D01*
X281119Y658501D01*
X278881D01*
X276719Y657921D01*
X274781Y656802D01*
X273199Y655220D01*
X272080Y653281D01*
X271812Y652283D01*
X268189D01*
X267921Y653281D01*
X266802Y655220D01*
X265219Y656802D01*
X263281Y657921D01*
X261119Y658501D01*
X258881D01*
X256719Y657921D01*
X254781Y656802D01*
X253199Y655220D01*
X252080Y653281D01*
X251812Y652283D01*
X248189D01*
X247921Y653281D01*
X246802Y655220D01*
X245219Y656802D01*
X243281Y657921D01*
X241119Y658501D01*
X238881D01*
X236719Y657921D01*
X234781Y656802D01*
X233199Y655220D01*
X232080Y653281D01*
X232000Y652984D01*
X228500Y653445D01*
Y686556D01*
X232000Y687017D01*
X232080Y686720D01*
X233199Y684781D01*
X234781Y683199D01*
X236719Y682080D01*
X238881Y681501D01*
X241119D01*
X243281Y682080D01*
X245219Y683199D01*
X246802Y684781D01*
X247921Y686720D01*
X248500Y688882D01*
Y691120D01*
X247921Y693281D01*
X246802Y695220D01*
X245219Y696802D01*
X243281Y697921D01*
X241119Y698501D01*
X238881D01*
X236719Y697921D01*
X234781Y696802D01*
X233199Y695220D01*
X232080Y693281D01*
X232000Y692984D01*
X228500Y693445D01*
Y703500D01*
D02*
G37*
G36*
X271119Y678501D02*
X268881D01*
X266719Y677921D01*
X264781Y676802D01*
X263199Y675220D01*
X262080Y673281D01*
X261812Y672283D01*
X258189D01*
X257921Y673281D01*
X256802Y675220D01*
X255219Y676802D01*
X253281Y677921D01*
X251119Y678501D01*
X248881D01*
X246719Y677921D01*
X244781Y676802D01*
X243199Y675220D01*
X242080Y673281D01*
X241500Y671120D01*
Y668882D01*
X242080Y666720D01*
X243199Y664781D01*
X244781Y663199D01*
X246719Y662080D01*
X248881Y661501D01*
X251119D01*
X253281Y662080D01*
X255219Y663199D01*
X256802Y664781D01*
X257921Y666720D01*
X258189Y667718D01*
X261812D01*
X262080Y666720D01*
X263199Y664781D01*
X264781Y663199D01*
X266719Y662080D01*
X268881Y661501D01*
X271119D01*
X273281Y662080D01*
X275219Y663199D01*
X276802Y664781D01*
X277921Y666720D01*
X278500Y668882D01*
Y671120D01*
X277921Y673281D01*
X276802Y675220D01*
X275219Y676802D01*
X273281Y677921D01*
X271119Y678501D01*
D02*
G37*
G36*
X786119Y682000D02*
X783881D01*
X781719Y681421D01*
X779781Y680302D01*
X778198Y678719D01*
X777079Y676781D01*
X776500Y674619D01*
Y672381D01*
X777079Y670219D01*
X778198Y668281D01*
X779781Y666698D01*
X781719Y665579D01*
X783881Y665000D01*
X786119D01*
X788281Y665579D01*
X790219Y666698D01*
X791802Y668281D01*
X792921Y670219D01*
X793500Y672381D01*
Y674619D01*
X792921Y676781D01*
X791802Y678719D01*
X790219Y680302D01*
X788281Y681421D01*
X786119Y682000D01*
D02*
G37*
G36*
Y655000D02*
X783881D01*
X781719Y654421D01*
X779781Y653302D01*
X778198Y651719D01*
X777079Y649781D01*
X776500Y647619D01*
Y645381D01*
X777079Y643219D01*
X778198Y641281D01*
X779781Y639698D01*
X781719Y638579D01*
X783881Y638000D01*
X786119D01*
X788281Y638579D01*
X790219Y639698D01*
X791802Y641281D01*
X792921Y643219D01*
X793500Y645381D01*
Y647619D01*
X792921Y649781D01*
X791802Y651719D01*
X790219Y653302D01*
X788281Y654421D01*
X786119Y655000D01*
D02*
G37*
G36*
X1012446Y640657D02*
X1010208D01*
X1008046Y640078D01*
X1006107Y638959D01*
X1004525Y637376D01*
X1004273Y636940D01*
X1003219Y636802D01*
X1001281Y637921D01*
X999119Y638500D01*
X996881D01*
X994719Y637921D01*
X992781Y636802D01*
X991198Y635219D01*
X990079Y633281D01*
X989500Y631119D01*
Y628881D01*
X990079Y626719D01*
X991198Y624781D01*
X992781Y623198D01*
X994719Y622079D01*
X996881Y621500D01*
X999119D01*
X1001281Y622079D01*
X1003219Y623198D01*
X1004802Y624781D01*
X1008046Y624236D01*
X1010208Y623657D01*
X1012446D01*
X1014607Y624236D01*
X1016546Y625355D01*
X1018128Y626938D01*
X1019247Y628876D01*
X1019827Y631038D01*
Y633276D01*
X1019247Y635438D01*
X1018128Y637376D01*
X1016546Y638959D01*
X1014607Y640078D01*
X1012446Y640657D01*
D02*
G37*
G36*
X671120Y638501D02*
X668882D01*
X666720Y637921D01*
X664781Y636802D01*
X663199Y635220D01*
X662080Y633281D01*
X661812Y632283D01*
X658189D01*
X657921Y633281D01*
X656802Y635220D01*
X655220Y636802D01*
X653281Y637921D01*
X651120Y638501D01*
X648882D01*
X646720Y637921D01*
X644781Y636802D01*
X643199Y635220D01*
X642080Y633281D01*
X641501Y631120D01*
Y628881D01*
X642080Y626720D01*
X643199Y624781D01*
X644781Y623199D01*
X646720Y622080D01*
X648882Y621501D01*
X651120D01*
X653281Y622080D01*
X655220Y623199D01*
X656802Y624781D01*
X657921Y626720D01*
X658189Y627718D01*
X661812D01*
X662080Y626720D01*
X663199Y624781D01*
X664781Y623199D01*
X666720Y622080D01*
X668882Y621501D01*
X671120D01*
X673281Y622080D01*
X675220Y623199D01*
X676802Y624781D01*
X677921Y626720D01*
X678501Y628881D01*
Y631120D01*
X677921Y633281D01*
X676802Y635220D01*
X675220Y636802D01*
X673281Y637921D01*
X671120Y638501D01*
D02*
G37*
G36*
X551120D02*
X548881D01*
X546720Y637921D01*
X544781Y636802D01*
X543199Y635220D01*
X542080Y633281D01*
X541812Y632283D01*
X538189D01*
X537921Y633281D01*
X536802Y635220D01*
X535220Y636802D01*
X533281Y637921D01*
X531120Y638501D01*
X528881D01*
X526720Y637921D01*
X524781Y636802D01*
X523199Y635220D01*
X522080Y633281D01*
X521812Y632283D01*
X518189D01*
X517921Y633281D01*
X516802Y635220D01*
X515220Y636802D01*
X513281Y637921D01*
X511120Y638501D01*
X508881D01*
X506720Y637921D01*
X504781Y636802D01*
X503199Y635220D01*
X502080Y633281D01*
X501812Y632283D01*
X498189D01*
X497921Y633281D01*
X496802Y635220D01*
X495220Y636802D01*
X493281Y637921D01*
X491119Y638501D01*
X488881D01*
X486720Y637921D01*
X484781Y636802D01*
X483199Y635220D01*
X482080Y633281D01*
X481812Y632283D01*
X478189D01*
X477921Y633281D01*
X476802Y635220D01*
X475220Y636802D01*
X473281Y637921D01*
X471119Y638501D01*
X468881D01*
X466720Y637921D01*
X464781Y636802D01*
X463199Y635220D01*
X462080Y633281D01*
X461812Y632283D01*
X458189D01*
X457921Y633281D01*
X456802Y635220D01*
X455220Y636802D01*
X453281Y637921D01*
X451119Y638501D01*
X448881D01*
X446720Y637921D01*
X444781Y636802D01*
X443199Y635220D01*
X442080Y633281D01*
X441812Y632283D01*
X438189D01*
X437921Y633281D01*
X436802Y635220D01*
X435220Y636802D01*
X433281Y637921D01*
X431119Y638501D01*
X428881D01*
X426720Y637921D01*
X424781Y636802D01*
X423199Y635220D01*
X422080Y633281D01*
X421812Y632283D01*
X418189D01*
X417921Y633281D01*
X416802Y635220D01*
X415220Y636802D01*
X413281Y637921D01*
X411119Y638501D01*
X408881D01*
X406720Y637921D01*
X404781Y636802D01*
X403199Y635220D01*
X402080Y633281D01*
X401501Y631120D01*
Y628881D01*
X402080Y626720D01*
X403199Y624781D01*
X404781Y623199D01*
X406720Y622080D01*
X408881Y621501D01*
X411119D01*
X413281Y622080D01*
X415220Y623199D01*
X416802Y624781D01*
X417921Y626720D01*
X418189Y627718D01*
X421812D01*
X422080Y626720D01*
X423199Y624781D01*
X424781Y623199D01*
X426720Y622080D01*
X428881Y621501D01*
X431119D01*
X433281Y622080D01*
X435220Y623199D01*
X436802Y624781D01*
X437921Y626720D01*
X438189Y627718D01*
X441812D01*
X442080Y626720D01*
X443199Y624781D01*
X444781Y623199D01*
X446720Y622080D01*
X448881Y621501D01*
X451119D01*
X453281Y622080D01*
X455220Y623199D01*
X456802Y624781D01*
X457921Y626720D01*
X458189Y627718D01*
X461812D01*
X462080Y626720D01*
X463199Y624781D01*
X464781Y623199D01*
X466720Y622080D01*
X468881Y621501D01*
X471119D01*
X473281Y622080D01*
X475220Y623199D01*
X476802Y624781D01*
X477921Y626720D01*
X478189Y627718D01*
X481812D01*
X482080Y626720D01*
X483199Y624781D01*
X484781Y623199D01*
X486720Y622080D01*
X488881Y621501D01*
X491119D01*
X493281Y622080D01*
X495220Y623199D01*
X496802Y624781D01*
X497921Y626720D01*
X498189Y627718D01*
X501812D01*
X502080Y626720D01*
X503199Y624781D01*
X504781Y623199D01*
X506720Y622080D01*
X508881Y621501D01*
X511120D01*
X513281Y622080D01*
X515220Y623199D01*
X516802Y624781D01*
X517921Y626720D01*
X518189Y627718D01*
X521812D01*
X522080Y626720D01*
X523199Y624781D01*
X524781Y623199D01*
X526720Y622080D01*
X528881Y621501D01*
X531120D01*
X533281Y622080D01*
X535220Y623199D01*
X536802Y624781D01*
X537921Y626720D01*
X538189Y627718D01*
X541812D01*
X542080Y626720D01*
X543199Y624781D01*
X544781Y623199D01*
X546720Y622080D01*
X548881Y621501D01*
X551120D01*
X553281Y622080D01*
X555220Y623199D01*
X556802Y624781D01*
X557921Y626720D01*
X558501Y628881D01*
Y631120D01*
X557921Y633281D01*
X556802Y635220D01*
X555220Y636802D01*
X553281Y637921D01*
X551120Y638501D01*
D02*
G37*
G36*
X291119D02*
X288881D01*
X286719Y637921D01*
X284781Y636802D01*
X283199Y635220D01*
X282080Y633281D01*
X281812Y632283D01*
X278189D01*
X277921Y633281D01*
X276802Y635220D01*
X275219Y636802D01*
X273281Y637921D01*
X271119Y638501D01*
X268881D01*
X266719Y637921D01*
X264781Y636802D01*
X263199Y635220D01*
X262080Y633281D01*
X261812Y632283D01*
X258189D01*
X257921Y633281D01*
X256802Y635220D01*
X255219Y636802D01*
X253281Y637921D01*
X251119Y638501D01*
X248881D01*
X246719Y637921D01*
X244781Y636802D01*
X243199Y635220D01*
X242080Y633281D01*
X241500Y631120D01*
Y628881D01*
X242080Y626720D01*
X243199Y624781D01*
X244781Y623199D01*
X246719Y622080D01*
X248881Y621501D01*
X251119D01*
X253281Y622080D01*
X255219Y623199D01*
X256802Y624781D01*
X257921Y626720D01*
X258189Y627718D01*
X261812D01*
X262080Y626720D01*
X263199Y624781D01*
X264781Y623199D01*
X266719Y622080D01*
X268881Y621501D01*
X271119D01*
X273281Y622080D01*
X275219Y623199D01*
X276802Y624781D01*
X277921Y626720D01*
X278189Y627718D01*
X281812D01*
X282080Y626720D01*
X283199Y624781D01*
X284781Y623199D01*
X286719Y622080D01*
X288881Y621501D01*
X291119D01*
X293281Y622080D01*
X295219Y623199D01*
X296802Y624781D01*
X297921Y626720D01*
X298500Y628881D01*
Y631120D01*
X297921Y633281D01*
X296802Y635220D01*
X295219Y636802D01*
X293281Y637921D01*
X291119Y638501D01*
D02*
G37*
G36*
X561120Y618501D02*
X558881D01*
X556720Y617921D01*
X554781Y616802D01*
X553199Y615220D01*
X552080Y613281D01*
X551812Y612283D01*
X548189D01*
X547921Y613281D01*
X546802Y615220D01*
X545220Y616802D01*
X543281Y617921D01*
X541120Y618501D01*
X538881D01*
X536720Y617921D01*
X534781Y616802D01*
X533199Y615220D01*
X532080Y613281D01*
X531812Y612283D01*
X528189D01*
X527921Y613281D01*
X526802Y615220D01*
X525220Y616802D01*
X523281Y617921D01*
X521120Y618501D01*
X518881D01*
X516720Y617921D01*
X514781Y616802D01*
X513199Y615220D01*
X512080Y613281D01*
X511812Y612283D01*
X508189D01*
X507921Y613281D01*
X506802Y615220D01*
X505220Y616802D01*
X503281Y617921D01*
X501119Y618501D01*
X498881D01*
X496720Y617921D01*
X494781Y616802D01*
X493199Y615220D01*
X492080Y613281D01*
X491812Y612283D01*
X488189D01*
X487921Y613281D01*
X486802Y615220D01*
X485220Y616802D01*
X483281Y617921D01*
X481119Y618501D01*
X478881D01*
X476720Y617921D01*
X474781Y616802D01*
X473199Y615220D01*
X472080Y613281D01*
X471812Y612283D01*
X468189D01*
X467921Y613281D01*
X466802Y615220D01*
X465220Y616802D01*
X463281Y617921D01*
X461119Y618501D01*
X458881D01*
X456720Y617921D01*
X454781Y616802D01*
X453199Y615220D01*
X452080Y613281D01*
X451812Y612283D01*
X448189D01*
X447921Y613281D01*
X446802Y615220D01*
X445220Y616802D01*
X443281Y617921D01*
X441119Y618501D01*
X438881D01*
X436720Y617921D01*
X434781Y616802D01*
X433199Y615220D01*
X432080Y613281D01*
X431812Y612283D01*
X428189D01*
X427921Y613281D01*
X426802Y615220D01*
X425220Y616802D01*
X423281Y617921D01*
X421119Y618501D01*
X418881D01*
X416720Y617921D01*
X414781Y616802D01*
X413199Y615220D01*
X412080Y613281D01*
X411812Y612283D01*
X408189D01*
X407921Y613281D01*
X406802Y615220D01*
X405220Y616802D01*
X403281Y617921D01*
X401119Y618501D01*
X398881D01*
X396720Y617921D01*
X394781Y616802D01*
X393199Y615220D01*
X392080Y613281D01*
X391501Y611120D01*
Y608881D01*
X392080Y606720D01*
X393199Y604781D01*
X394781Y603199D01*
X396720Y602080D01*
X398881Y601501D01*
X401119D01*
X403281Y602080D01*
X405220Y603199D01*
X406802Y604781D01*
X407921Y606720D01*
X408189Y607718D01*
X411812D01*
X412080Y606720D01*
X413199Y604781D01*
X414781Y603199D01*
X416720Y602080D01*
X418881Y601501D01*
X421119D01*
X423281Y602080D01*
X425220Y603199D01*
X426802Y604781D01*
X427921Y606720D01*
X428189Y607718D01*
X431812D01*
X432080Y606720D01*
X433199Y604781D01*
X434781Y603199D01*
X436720Y602080D01*
X438881Y601501D01*
X441119D01*
X443281Y602080D01*
X445220Y603199D01*
X446802Y604781D01*
X447921Y606720D01*
X448189Y607718D01*
X451812D01*
X452080Y606720D01*
X453199Y604781D01*
X454781Y603199D01*
X456720Y602080D01*
X458881Y601501D01*
X461119D01*
X463281Y602080D01*
X465220Y603199D01*
X466802Y604781D01*
X467921Y606720D01*
X468189Y607718D01*
X471812D01*
X472080Y606720D01*
X473199Y604781D01*
X474781Y603199D01*
X476720Y602080D01*
X478881Y601501D01*
X481119D01*
X483281Y602080D01*
X485220Y603199D01*
X486802Y604781D01*
X487921Y606720D01*
X488189Y607718D01*
X491812D01*
X492080Y606720D01*
X493199Y604781D01*
X494781Y603199D01*
X496720Y602080D01*
X498881Y601501D01*
X501119D01*
X503281Y602080D01*
X505220Y603199D01*
X506802Y604781D01*
X507921Y606720D01*
X508189Y607718D01*
X511812D01*
X512080Y606720D01*
X513199Y604781D01*
X514781Y603199D01*
X516720Y602080D01*
X518881Y601501D01*
X521120D01*
X523281Y602080D01*
X525220Y603199D01*
X526802Y604781D01*
X527921Y606720D01*
X528189Y607718D01*
X531812D01*
X532080Y606720D01*
X533199Y604781D01*
X534781Y603199D01*
X536720Y602080D01*
X538881Y601501D01*
X541120D01*
X543281Y602080D01*
X545220Y603199D01*
X546802Y604781D01*
X547921Y606720D01*
X548189Y607718D01*
X551812D01*
X552080Y606720D01*
X553199Y604781D01*
X554781Y603199D01*
X556720Y602080D01*
X558881Y601501D01*
X561120D01*
X563281Y602080D01*
X565220Y603199D01*
X566802Y604781D01*
X567921Y606720D01*
X568501Y608881D01*
Y611120D01*
X567921Y613281D01*
X566802Y615220D01*
X565220Y616802D01*
X563281Y617921D01*
X561120Y618501D01*
D02*
G37*
G36*
X103619Y606000D02*
X101381D01*
X99219Y605421D01*
X97281Y604302D01*
X96250Y603271D01*
X95219Y604302D01*
X93281Y605421D01*
X91119Y606000D01*
X88881D01*
X86719Y605421D01*
X84781Y604302D01*
X83198Y602719D01*
X82079Y600781D01*
X81500Y598619D01*
Y596381D01*
X82079Y594219D01*
X83198Y592281D01*
X84229Y591250D01*
X83198Y590219D01*
X82079Y588281D01*
X81500Y586119D01*
Y583881D01*
X82079Y581719D01*
X83198Y579781D01*
X84781Y578198D01*
X84781Y574302D01*
X83198Y572719D01*
X82079Y570781D01*
X81500Y568619D01*
Y566381D01*
X82079Y564219D01*
X83198Y562281D01*
X84229Y561250D01*
X83198Y560219D01*
X82079Y558281D01*
X81500Y556119D01*
Y553881D01*
X79219Y552921D01*
X77281Y551802D01*
X75698Y550219D01*
X74579Y548281D01*
X71119Y548500D01*
X68881D01*
X66719Y547921D01*
X64781Y546802D01*
X63198Y545219D01*
X62079Y543281D01*
X61500Y541119D01*
Y538881D01*
X62079Y536719D01*
X63198Y534781D01*
X64229Y533750D01*
X63198Y532719D01*
X62079Y530781D01*
X61500Y528619D01*
Y526381D01*
X61508Y526349D01*
X58651Y523492D01*
X58619Y523500D01*
X56381D01*
X54219Y522921D01*
X52281Y521802D01*
X50698Y520219D01*
X49579Y518281D01*
X49000Y516119D01*
Y513881D01*
X49579Y511719D01*
X50698Y509781D01*
X51729Y508750D01*
X50698Y507719D01*
X49579Y505781D01*
X49000Y503619D01*
Y501381D01*
X49579Y499219D01*
X50698Y497281D01*
X51729Y496250D01*
X50698Y495219D01*
X49579Y493281D01*
X49000Y491119D01*
Y488881D01*
X49579Y486719D01*
X50698Y484781D01*
X52281Y483198D01*
X54219Y482079D01*
X56381Y481500D01*
X58619D01*
X60781Y482079D01*
X62719Y483198D01*
X63750Y484229D01*
X64781Y483198D01*
X66719Y482079D01*
X68881Y481500D01*
X71119D01*
X73281Y482079D01*
X75219Y483198D01*
X76802Y484781D01*
X77921Y486719D01*
X78500Y488881D01*
Y491119D01*
X77921Y493281D01*
X76802Y495219D01*
X75771Y496250D01*
X76802Y497281D01*
X77921Y499219D01*
X78500Y501381D01*
Y503619D01*
X77921Y505781D01*
X76802Y507719D01*
X75771Y508750D01*
X76802Y509781D01*
X77921Y511719D01*
X78500Y513881D01*
Y516119D01*
X77921Y518281D01*
X76802Y520219D01*
X75771Y521250D01*
X76802Y522281D01*
X77921Y524219D01*
X78500Y526381D01*
Y528619D01*
X77921Y530781D01*
X76802Y532719D01*
X75771Y533750D01*
X76802Y534781D01*
X77921Y536719D01*
X81381Y536500D01*
X83619D01*
X85781Y537079D01*
X87719Y538198D01*
X89302Y539781D01*
X90421Y541719D01*
X91000Y543881D01*
Y546119D01*
X93281Y547079D01*
X95219Y548198D01*
X96802Y549781D01*
X97921Y551719D01*
X98500Y553881D01*
Y556119D01*
X97921Y558281D01*
X96802Y560219D01*
X98282Y563688D01*
X98783Y564165D01*
X101381Y564000D01*
X103619D01*
X105781Y564579D01*
X107719Y565698D01*
X108750Y566729D01*
X109781Y565698D01*
X111719Y564579D01*
X113881Y564000D01*
X116119D01*
X118281Y564579D01*
X120219Y565698D01*
X121802Y567281D01*
X122921Y569219D01*
X123500Y571381D01*
Y573619D01*
X122921Y575781D01*
X121802Y577719D01*
X120219Y579302D01*
X118281Y580421D01*
X116119Y581000D01*
X113881D01*
X113849Y580992D01*
X110991Y583849D01*
X111000Y583881D01*
Y586119D01*
X110421Y588281D01*
X109302Y590219D01*
X108271Y591250D01*
X109302Y592281D01*
X110421Y594219D01*
X111000Y596381D01*
Y598619D01*
X110421Y600781D01*
X109302Y602719D01*
X107719Y604302D01*
X105781Y605421D01*
X103619Y606000D01*
D02*
G37*
G36*
X801120Y618501D02*
X798882D01*
X796720Y617921D01*
X794781Y616802D01*
X793199Y615220D01*
X792080Y613281D01*
X791501Y611120D01*
Y608881D01*
X792080Y606720D01*
X793199Y604781D01*
X794781Y603199D01*
X796720Y602080D01*
X798882Y601501D01*
X801120D01*
X803281Y602080D01*
X805220Y603199D01*
X806802Y604781D01*
X807921Y606720D01*
X808501Y608881D01*
Y611120D01*
X807921Y613281D01*
X806802Y615220D01*
X805220Y616802D01*
X803281Y617921D01*
X801120Y618501D01*
D02*
G37*
G36*
X681120D02*
X678882D01*
X676720Y617921D01*
X674781Y616802D01*
X673199Y615220D01*
X672080Y613281D01*
X671501Y611120D01*
Y608881D01*
X672080Y606720D01*
X673199Y604781D01*
X674781Y603199D01*
X676720Y602080D01*
X678882Y601501D01*
X681120D01*
X683281Y602080D01*
X685220Y603199D01*
X686802Y604781D01*
X687921Y606720D01*
X688501Y608881D01*
Y611120D01*
X687921Y613281D01*
X686802Y615220D01*
X685220Y616802D01*
X683281Y617921D01*
X681120Y618501D01*
D02*
G37*
G36*
X731120Y598501D02*
X728882D01*
X726720Y597921D01*
X724781Y596802D01*
X723199Y595220D01*
X722080Y593281D01*
X721812Y592283D01*
X718189D01*
X717921Y593281D01*
X716802Y595220D01*
X715220Y596802D01*
X713281Y597921D01*
X711120Y598501D01*
X708882D01*
X706720Y597921D01*
X704781Y596802D01*
X703199Y595220D01*
X702080Y593281D01*
X701501Y591120D01*
Y588881D01*
X702080Y586720D01*
X703199Y584781D01*
X704781Y583199D01*
X706720Y582080D01*
X708882Y581501D01*
X711120D01*
X713281Y582080D01*
X715220Y583199D01*
X716802Y584781D01*
X717921Y586720D01*
X718189Y587718D01*
X721812D01*
X722080Y586720D01*
X723199Y584781D01*
X724781Y583199D01*
X726720Y582080D01*
X728882Y581501D01*
X731120D01*
X733281Y582080D01*
X735220Y583199D01*
X736802Y584781D01*
X737921Y586720D01*
X738501Y588881D01*
Y591120D01*
X737921Y593281D01*
X736802Y595220D01*
X735220Y596802D01*
X733281Y597921D01*
X731120Y598501D01*
D02*
G37*
G36*
X291119D02*
X288881D01*
X286719Y597921D01*
X284781Y596802D01*
X283199Y595220D01*
X282080Y593281D01*
X281812Y592283D01*
X278189D01*
X277921Y593281D01*
X276802Y595220D01*
X275219Y596802D01*
X273281Y597921D01*
X271119Y598501D01*
X268881D01*
X266719Y597921D01*
X264781Y596802D01*
X263199Y595220D01*
X262080Y593281D01*
X261812Y592283D01*
X258189D01*
X257921Y593281D01*
X256802Y595220D01*
X255219Y596802D01*
X253281Y597921D01*
X251119Y598501D01*
X248881D01*
X246719Y597921D01*
X244781Y596802D01*
X243199Y595220D01*
X242080Y593281D01*
X241812Y592283D01*
X238189D01*
X237921Y593281D01*
X236802Y595220D01*
X235219Y596802D01*
X233281Y597921D01*
X231119Y598501D01*
X228881D01*
X226719Y597921D01*
X224781Y596802D01*
X223199Y595220D01*
X222080Y593281D01*
X221812Y592283D01*
X218189D01*
X217921Y593281D01*
X216802Y595220D01*
X215219Y596802D01*
X213281Y597921D01*
X211119Y598501D01*
X208881D01*
X206719Y597921D01*
X204781Y596802D01*
X203199Y595220D01*
X202080Y593281D01*
X201812Y592283D01*
X198189D01*
X197921Y593281D01*
X196802Y595220D01*
X195219Y596802D01*
X193281Y597921D01*
X191119Y598501D01*
X188881D01*
X186719Y597921D01*
X184781Y596802D01*
X183199Y595220D01*
X182080Y593281D01*
X181812Y592283D01*
X178189D01*
X177921Y593281D01*
X176802Y595220D01*
X175219Y596802D01*
X173281Y597921D01*
X171119Y598501D01*
X168881D01*
X166719Y597921D01*
X164781Y596802D01*
X163199Y595220D01*
X162080Y593281D01*
X161500Y591120D01*
Y588881D01*
X162080Y586720D01*
X163199Y584781D01*
X164781Y583199D01*
X166719Y582080D01*
X168881Y581501D01*
X171119D01*
X173281Y582080D01*
X175219Y583199D01*
X176802Y584781D01*
X177921Y586720D01*
X178189Y587718D01*
X181812D01*
X182080Y586720D01*
X183199Y584781D01*
X184781Y583199D01*
X186719Y582080D01*
X188881Y581501D01*
X191119D01*
X193281Y582080D01*
X195219Y583199D01*
X196802Y584781D01*
X197921Y586720D01*
X198189Y587718D01*
X201812D01*
X202080Y586720D01*
X203199Y584781D01*
X204781Y583199D01*
X206719Y582080D01*
X208881Y581501D01*
X211119D01*
X213281Y582080D01*
X215219Y583199D01*
X216802Y584781D01*
X217921Y586720D01*
X218189Y587718D01*
X221812D01*
X222080Y586720D01*
X223199Y584781D01*
X224781Y583199D01*
X226719Y582080D01*
X228881Y581501D01*
X231119D01*
X233281Y582080D01*
X235219Y583199D01*
X236802Y584781D01*
X237921Y586720D01*
X238189Y587718D01*
X241812D01*
X242080Y586720D01*
X243199Y584781D01*
X244781Y583199D01*
X246719Y582080D01*
X248881Y581501D01*
X251119D01*
X253281Y582080D01*
X255219Y583199D01*
X256802Y584781D01*
X257921Y586720D01*
X258189Y587718D01*
X261812D01*
X262080Y586720D01*
X263199Y584781D01*
X264781Y583199D01*
X266719Y582080D01*
X268881Y581501D01*
X271119D01*
X273281Y582080D01*
X275219Y583199D01*
X276802Y584781D01*
X277921Y586720D01*
X278189Y587718D01*
X281812D01*
X282080Y586720D01*
X283199Y584781D01*
X284781Y583199D01*
X286719Y582080D01*
X288881Y581501D01*
X291119D01*
X293281Y582080D01*
X295219Y583199D01*
X296802Y584781D01*
X297921Y586720D01*
X298500Y588881D01*
Y591120D01*
X297921Y593281D01*
X296802Y595220D01*
X295219Y596802D01*
X293281Y597921D01*
X291119Y598501D01*
D02*
G37*
G36*
X791120D02*
X788882D01*
X786720Y597921D01*
X784781Y596802D01*
X783199Y595220D01*
X782080Y593281D01*
X781501Y591120D01*
Y588881D01*
X782080Y586720D01*
X783199Y584781D01*
X784781Y583199D01*
X786720Y582080D01*
X788882Y581501D01*
X791120D01*
X793281Y582080D01*
X795220Y583199D01*
X796802Y584781D01*
X797921Y586720D01*
X798501Y588881D01*
Y591120D01*
X797921Y593281D01*
X796802Y595220D01*
X795220Y596802D01*
X793281Y597921D01*
X791120Y598501D01*
D02*
G37*
G36*
X651120D02*
X648882D01*
X646720Y597921D01*
X644781Y596802D01*
X643199Y595220D01*
X642080Y593281D01*
X641501Y591120D01*
Y588881D01*
X642080Y586720D01*
X643199Y584781D01*
X644781Y583199D01*
X646720Y582080D01*
X648882Y581501D01*
X651120D01*
X653281Y582080D01*
X655220Y583199D01*
X656802Y584781D01*
X657921Y586720D01*
X658501Y588881D01*
Y591120D01*
X657921Y593281D01*
X656802Y595220D01*
X655220Y596802D01*
X653281Y597921D01*
X651120Y598501D01*
D02*
G37*
G36*
X721120Y578501D02*
X718882D01*
X716720Y577921D01*
X714781Y576802D01*
X713199Y575220D01*
X712080Y573281D01*
X711812Y572283D01*
X708189D01*
X707921Y573281D01*
X706802Y575220D01*
X705220Y576802D01*
X703281Y577921D01*
X701120Y578501D01*
X698882D01*
X696720Y577921D01*
X694781Y576802D01*
X693199Y575220D01*
X692080Y573281D01*
X691501Y571120D01*
Y568881D01*
X692080Y566720D01*
X693199Y564781D01*
X694781Y563199D01*
X696720Y562080D01*
X698882Y561501D01*
X701120D01*
X703281Y562080D01*
X705220Y563199D01*
X706802Y564781D01*
X707921Y566720D01*
X708189Y567718D01*
X711812D01*
X712080Y566720D01*
X713199Y564781D01*
X714781Y563199D01*
X716720Y562080D01*
X718882Y561501D01*
X721120D01*
X723281Y562080D01*
X725220Y563199D01*
X726802Y564781D01*
X727921Y566720D01*
X728501Y568881D01*
Y571120D01*
X727921Y573281D01*
X726802Y575220D01*
X725220Y576802D01*
X723281Y577921D01*
X721120Y578501D01*
D02*
G37*
G36*
X731120Y558501D02*
X728882D01*
X726720Y557921D01*
X724781Y556802D01*
X723199Y555220D01*
X722080Y553281D01*
X721812Y552283D01*
X718189D01*
X717921Y553281D01*
X716802Y555220D01*
X715220Y556802D01*
X713281Y557921D01*
X711120Y558501D01*
X708882D01*
X706720Y557921D01*
X704781Y556802D01*
X703199Y555220D01*
X702080Y553281D01*
X701812Y552283D01*
X698189D01*
X697921Y553281D01*
X696802Y555220D01*
X695220Y556802D01*
X693281Y557921D01*
X691120Y558501D01*
X688882D01*
X686720Y557921D01*
X684781Y556802D01*
X683199Y555220D01*
X682080Y553281D01*
X681501Y551120D01*
Y548881D01*
X682080Y546720D01*
X683199Y544781D01*
X684781Y543199D01*
X686720Y542080D01*
X688882Y541501D01*
X691120D01*
X693281Y542080D01*
X695220Y543199D01*
X696802Y544781D01*
X697921Y546720D01*
X698189Y547718D01*
X701812D01*
X702080Y546720D01*
X703199Y544781D01*
X704781Y543199D01*
X706720Y542080D01*
X708882Y541501D01*
X711120D01*
X713281Y542080D01*
X715220Y543199D01*
X716802Y544781D01*
X717921Y546720D01*
X718189Y547718D01*
X721812D01*
X722080Y546720D01*
X723199Y544781D01*
X724781Y543199D01*
X726720Y542080D01*
X728882Y541501D01*
X731120D01*
X733281Y542080D01*
X735220Y543199D01*
X736802Y544781D01*
X737921Y546720D01*
X738501Y548881D01*
Y551120D01*
X737921Y553281D01*
X736802Y555220D01*
X735220Y556802D01*
X733281Y557921D01*
X731120Y558501D01*
D02*
G37*
G36*
X551120D02*
X548881D01*
X546720Y557921D01*
X544781Y556802D01*
X543199Y555220D01*
X542080Y553281D01*
X541812Y552283D01*
X538189D01*
X537921Y553281D01*
X536802Y555220D01*
X535220Y556802D01*
X533281Y557921D01*
X531120Y558501D01*
X528881D01*
X526720Y557921D01*
X524781Y556802D01*
X523199Y555220D01*
X522080Y553281D01*
X521812Y552283D01*
X518189D01*
X517921Y553281D01*
X516802Y555220D01*
X515220Y556802D01*
X513281Y557921D01*
X511120Y558501D01*
X508881D01*
X506720Y557921D01*
X504781Y556802D01*
X503199Y555220D01*
X502080Y553281D01*
X501812Y552283D01*
X498189D01*
X497921Y553281D01*
X496802Y555220D01*
X495220Y556802D01*
X493281Y557921D01*
X491119Y558501D01*
X488881D01*
X486720Y557921D01*
X484781Y556802D01*
X483199Y555220D01*
X482080Y553281D01*
X481812Y552283D01*
X478189D01*
X477921Y553281D01*
X476802Y555220D01*
X475220Y556802D01*
X473281Y557921D01*
X471119Y558501D01*
X468881D01*
X466720Y557921D01*
X464781Y556802D01*
X463199Y555220D01*
X462080Y553281D01*
X461812Y552283D01*
X458189D01*
X457921Y553281D01*
X456802Y555220D01*
X455220Y556802D01*
X453281Y557921D01*
X451119Y558501D01*
X448881D01*
X446720Y557921D01*
X444781Y556802D01*
X443199Y555220D01*
X442080Y553281D01*
X441812Y552283D01*
X438189D01*
X437921Y553281D01*
X436802Y555220D01*
X435220Y556802D01*
X433281Y557921D01*
X431119Y558501D01*
X428881D01*
X426720Y557921D01*
X424781Y556802D01*
X423199Y555220D01*
X422080Y553281D01*
X421501Y551120D01*
Y548881D01*
X422080Y546720D01*
X423199Y544781D01*
X424781Y543199D01*
X426720Y542080D01*
X428881Y541501D01*
X431119D01*
X433281Y542080D01*
X435220Y543199D01*
X436802Y544781D01*
X437921Y546720D01*
X438189Y547718D01*
X441812D01*
X442080Y546720D01*
X443199Y544781D01*
X444781Y543199D01*
X446720Y542080D01*
X448881Y541501D01*
X451119D01*
X453281Y542080D01*
X455220Y543199D01*
X456802Y544781D01*
X457921Y546720D01*
X458189Y547718D01*
X461812D01*
X462080Y546720D01*
X463199Y544781D01*
X464781Y543199D01*
X466720Y542080D01*
X468881Y541501D01*
X471119D01*
X473281Y542080D01*
X475220Y543199D01*
X476802Y544781D01*
X477921Y546720D01*
X478189Y547718D01*
X481812D01*
X482080Y546720D01*
X483199Y544781D01*
X484781Y543199D01*
X486720Y542080D01*
X488881Y541501D01*
X491119D01*
X493281Y542080D01*
X495220Y543199D01*
X496802Y544781D01*
X497921Y546720D01*
X498189Y547718D01*
X501812D01*
X502080Y546720D01*
X503199Y544781D01*
X504781Y543199D01*
X506720Y542080D01*
X508881Y541501D01*
X511120D01*
X513281Y542080D01*
X515220Y543199D01*
X516802Y544781D01*
X517921Y546720D01*
X518189Y547718D01*
X521812D01*
X522080Y546720D01*
X523199Y544781D01*
X524781Y543199D01*
X526720Y542080D01*
X528881Y541501D01*
X531120D01*
X533281Y542080D01*
X535220Y543199D01*
X536802Y544781D01*
X537921Y546720D01*
X538189Y547718D01*
X541812D01*
X542080Y546720D01*
X543199Y544781D01*
X544781Y543199D01*
X546720Y542080D01*
X548881Y541501D01*
X551120D01*
X553281Y542080D01*
X555220Y543199D01*
X556802Y544781D01*
X557921Y546720D01*
X558501Y548881D01*
Y551120D01*
X557921Y553281D01*
X556802Y555220D01*
X555220Y556802D01*
X553281Y557921D01*
X551120Y558501D01*
D02*
G37*
G36*
X311119D02*
X308881D01*
X306719Y557921D01*
X304781Y556802D01*
X303199Y555220D01*
X302080Y553281D01*
X301812Y552283D01*
X298189D01*
X297921Y553281D01*
X296802Y555220D01*
X295219Y556802D01*
X293281Y557921D01*
X291119Y558501D01*
X288881D01*
X286719Y557921D01*
X284781Y556802D01*
X283199Y555220D01*
X282080Y553281D01*
X281812Y552283D01*
X278189D01*
X277921Y553281D01*
X276802Y555220D01*
X275219Y556802D01*
X273281Y557921D01*
X271119Y558501D01*
X268881D01*
X266719Y557921D01*
X264781Y556802D01*
X263199Y555220D01*
X262080Y553281D01*
X261812Y552283D01*
X258189D01*
X257921Y553281D01*
X256802Y555220D01*
X255219Y556802D01*
X253281Y557921D01*
X251119Y558501D01*
X248881D01*
X246719Y557921D01*
X244781Y556802D01*
X243199Y555220D01*
X242080Y553281D01*
X241812Y552283D01*
X238189D01*
X237921Y553281D01*
X236802Y555220D01*
X235219Y556802D01*
X233281Y557921D01*
X231119Y558501D01*
X228881D01*
X226719Y557921D01*
X224781Y556802D01*
X223199Y555220D01*
X222080Y553281D01*
X221812Y552283D01*
X218189D01*
X217921Y553281D01*
X216802Y555220D01*
X215219Y556802D01*
X213281Y557921D01*
X211119Y558501D01*
X208881D01*
X206719Y557921D01*
X204781Y556802D01*
X203199Y555220D01*
X202080Y553281D01*
X201812Y552283D01*
X198189D01*
X197921Y553281D01*
X196802Y555220D01*
X195219Y556802D01*
X193281Y557921D01*
X191119Y558501D01*
X188881D01*
X186719Y557921D01*
X184781Y556802D01*
X183199Y555220D01*
X182080Y553281D01*
X181812Y552283D01*
X178189D01*
X177921Y553281D01*
X176802Y555220D01*
X175219Y556802D01*
X173281Y557921D01*
X171119Y558501D01*
X168881D01*
X166719Y557921D01*
X164781Y556802D01*
X163199Y555220D01*
X162080Y553281D01*
X161500Y551120D01*
Y548881D01*
X162080Y546720D01*
X163199Y544781D01*
X164781Y543199D01*
X166719Y542080D01*
X168881Y541501D01*
X171119D01*
X173281Y542080D01*
X175219Y543199D01*
X176802Y544781D01*
X177921Y546720D01*
X178189Y547718D01*
X181812D01*
X182080Y546720D01*
X183199Y544781D01*
X184781Y543199D01*
X186719Y542080D01*
X188881Y541501D01*
X191119D01*
X193281Y542080D01*
X195219Y543199D01*
X196802Y544781D01*
X197921Y546720D01*
X198189Y547718D01*
X201812D01*
X202080Y546720D01*
X203199Y544781D01*
X204781Y543199D01*
X206719Y542080D01*
X208881Y541501D01*
X211119D01*
X213281Y542080D01*
X215219Y543199D01*
X216802Y544781D01*
X217921Y546720D01*
X218189Y547718D01*
X221812D01*
X222080Y546720D01*
X223199Y544781D01*
X224781Y543199D01*
X226719Y542080D01*
X228881Y541501D01*
X231119D01*
X233281Y542080D01*
X235219Y543199D01*
X236802Y544781D01*
X237921Y546720D01*
X238189Y547718D01*
X241812D01*
X242080Y546720D01*
X243199Y544781D01*
X244781Y543199D01*
X246719Y542080D01*
X248881Y541501D01*
X251119D01*
X253281Y542080D01*
X255219Y543199D01*
X256802Y544781D01*
X257921Y546720D01*
X258189Y547718D01*
X261812D01*
X262080Y546720D01*
X263199Y544781D01*
X264781Y543199D01*
X266719Y542080D01*
X268881Y541501D01*
X271119D01*
X273281Y542080D01*
X275219Y543199D01*
X276802Y544781D01*
X277921Y546720D01*
X278189Y547718D01*
X281812D01*
X282080Y546720D01*
X283199Y544781D01*
X284781Y543199D01*
X286719Y542080D01*
X288881Y541501D01*
X291119D01*
X293281Y542080D01*
X295219Y543199D01*
X296802Y544781D01*
X297921Y546720D01*
X298189Y547718D01*
X301812D01*
X302080Y546720D01*
X303199Y544781D01*
X304781Y543199D01*
X306719Y542080D01*
X308881Y541501D01*
X311119D01*
X313281Y542080D01*
X315219Y543199D01*
X316802Y544781D01*
X317921Y546720D01*
X318500Y548881D01*
Y551120D01*
X317921Y553281D01*
X316802Y555220D01*
X315219Y556802D01*
X313281Y557921D01*
X311119Y558501D01*
D02*
G37*
G36*
X771120D02*
X768882D01*
X766720Y557921D01*
X764781Y556802D01*
X763199Y555220D01*
X762080Y553281D01*
X761501Y551120D01*
Y548881D01*
X762080Y546720D01*
X763199Y544781D01*
X764781Y543199D01*
X766720Y542080D01*
X768882Y541501D01*
X771120D01*
X773281Y542080D01*
X775220Y543199D01*
X776802Y544781D01*
X777921Y546720D01*
X778501Y548881D01*
Y551120D01*
X777921Y553281D01*
X776802Y555220D01*
X775220Y556802D01*
X773281Y557921D01*
X771120Y558501D01*
D02*
G37*
G36*
X651120D02*
X648882D01*
X646720Y557921D01*
X644781Y556802D01*
X643199Y555220D01*
X642080Y553281D01*
X641501Y551120D01*
Y548881D01*
X642080Y546720D01*
X643199Y544781D01*
X644781Y543199D01*
X646720Y542080D01*
X648882Y541501D01*
X651120D01*
X653281Y542080D01*
X655220Y543199D01*
X656802Y544781D01*
X657921Y546720D01*
X658501Y548881D01*
Y551120D01*
X657921Y553281D01*
X656802Y555220D01*
X655220Y556802D01*
X653281Y557921D01*
X651120Y558501D01*
D02*
G37*
G36*
X601120Y538501D02*
X598881D01*
X596720Y537921D01*
X594781Y536802D01*
X593199Y535220D01*
X592080Y533281D01*
X591812Y532283D01*
X588189D01*
X587921Y533281D01*
X586802Y535220D01*
X585220Y536802D01*
X583281Y537921D01*
X581120Y538501D01*
X578881D01*
X576720Y537921D01*
X574781Y536802D01*
X573199Y535220D01*
X572080Y533281D01*
X571812Y532283D01*
X568189D01*
X567921Y533281D01*
X566802Y535220D01*
X565220Y536802D01*
X563281Y537921D01*
X561120Y538501D01*
X558881D01*
X556720Y537921D01*
X554781Y536802D01*
X553199Y535220D01*
X552080Y533281D01*
X551812Y532283D01*
X548189D01*
X547921Y533281D01*
X546802Y535220D01*
X545220Y536802D01*
X543281Y537921D01*
X541120Y538501D01*
X538881D01*
X536720Y537921D01*
X534781Y536802D01*
X533199Y535220D01*
X532080Y533281D01*
X531812Y532283D01*
X528189D01*
X527921Y533281D01*
X526802Y535220D01*
X525220Y536802D01*
X523281Y537921D01*
X521120Y538501D01*
X518881D01*
X516720Y537921D01*
X514781Y536802D01*
X513199Y535220D01*
X512080Y533281D01*
X511812Y532283D01*
X508189D01*
X507921Y533281D01*
X506802Y535220D01*
X505220Y536802D01*
X503281Y537921D01*
X501119Y538501D01*
X498881D01*
X496720Y537921D01*
X494781Y536802D01*
X493199Y535220D01*
X492080Y533281D01*
X491812Y532283D01*
X488189D01*
X487921Y533281D01*
X486802Y535220D01*
X485220Y536802D01*
X483281Y537921D01*
X481119Y538501D01*
X478881D01*
X476720Y537921D01*
X474781Y536802D01*
X473199Y535220D01*
X472080Y533281D01*
X471812Y532283D01*
X468189D01*
X467921Y533281D01*
X466802Y535220D01*
X465220Y536802D01*
X463281Y537921D01*
X461119Y538501D01*
X458881D01*
X456720Y537921D01*
X454781Y536802D01*
X453199Y535220D01*
X452080Y533281D01*
X451812Y532283D01*
X448189D01*
X447921Y533281D01*
X446802Y535220D01*
X445220Y536802D01*
X443281Y537921D01*
X441119Y538501D01*
X438881D01*
X436720Y537921D01*
X434781Y536802D01*
X433199Y535220D01*
X432080Y533281D01*
X431812Y532283D01*
X428189D01*
X427921Y533281D01*
X426802Y535220D01*
X425220Y536802D01*
X423281Y537921D01*
X421119Y538501D01*
X418881D01*
X416720Y537921D01*
X414781Y536802D01*
X413199Y535220D01*
X412080Y533281D01*
X411501Y531120D01*
Y528881D01*
X412080Y526720D01*
X413199Y524781D01*
X414781Y523199D01*
X416720Y522080D01*
X418881Y521501D01*
X421119D01*
X423281Y522080D01*
X425220Y523199D01*
X426802Y524781D01*
X427921Y526720D01*
X428189Y527718D01*
X431812D01*
X432080Y526720D01*
X433199Y524781D01*
X434781Y523199D01*
X436720Y522080D01*
X438881Y521501D01*
X441119D01*
X443281Y522080D01*
X445220Y523199D01*
X446802Y524781D01*
X447921Y526720D01*
X448189Y527718D01*
X451812D01*
X452080Y526720D01*
X453199Y524781D01*
X454781Y523199D01*
X456720Y522080D01*
X458881Y521501D01*
X461119D01*
X463281Y522080D01*
X465220Y523199D01*
X466802Y524781D01*
X467921Y526720D01*
X468189Y527718D01*
X471812D01*
X472080Y526720D01*
X473199Y524781D01*
X474781Y523199D01*
X476720Y522080D01*
X478881Y521501D01*
X481119D01*
X483281Y522080D01*
X485220Y523199D01*
X486802Y524781D01*
X487921Y526720D01*
X488189Y527718D01*
X491812D01*
X492080Y526720D01*
X493199Y524781D01*
X494781Y523199D01*
X496720Y522080D01*
X498881Y521501D01*
X501119D01*
X503281Y522080D01*
X505220Y523199D01*
X506802Y524781D01*
X507921Y526720D01*
X508189Y527718D01*
X511812D01*
X512080Y526720D01*
X513199Y524781D01*
X514781Y523199D01*
X516720Y522080D01*
X518881Y521501D01*
X521120D01*
X523281Y522080D01*
X525220Y523199D01*
X526802Y524781D01*
X527921Y526720D01*
X528189Y527718D01*
X531812D01*
X532080Y526720D01*
X533199Y524781D01*
X534781Y523199D01*
X536720Y522080D01*
X538881Y521501D01*
X541120D01*
X543281Y522080D01*
X545220Y523199D01*
X546802Y524781D01*
X547921Y526720D01*
X548189Y527718D01*
X551812D01*
X552080Y526720D01*
X553199Y524781D01*
X554781Y523199D01*
X556720Y522080D01*
X558881Y521501D01*
X561120D01*
X563281Y522080D01*
X565220Y523199D01*
X566802Y524781D01*
X567921Y526720D01*
X568189Y527718D01*
X571812D01*
X572080Y526720D01*
X573199Y524781D01*
X574781Y523199D01*
X576720Y522080D01*
X578881Y521501D01*
X581120D01*
X583281Y522080D01*
X585220Y523199D01*
X586802Y524781D01*
X587921Y526720D01*
X588189Y527718D01*
X591812D01*
X592080Y526720D01*
X593199Y524781D01*
X594781Y523199D01*
X596720Y522080D01*
X598881Y521501D01*
X601120D01*
X603281Y522080D01*
X605220Y523199D01*
X606802Y524781D01*
X607921Y526720D01*
X608501Y528881D01*
Y531120D01*
X607921Y533281D01*
X606802Y535220D01*
X605220Y536802D01*
X603281Y537921D01*
X601120Y538501D01*
D02*
G37*
G36*
X361119D02*
X358881D01*
X356720Y537921D01*
X354781Y536802D01*
X353199Y535220D01*
X352080Y533281D01*
X351812Y532283D01*
X348189D01*
X347921Y533281D01*
X346802Y535220D01*
X345219Y536802D01*
X343281Y537921D01*
X341119Y538501D01*
X338881D01*
X336720Y537921D01*
X334781Y536802D01*
X333199Y535220D01*
X332080Y533281D01*
X331812Y532283D01*
X328189D01*
X327921Y533281D01*
X326802Y535220D01*
X325219Y536802D01*
X323281Y537921D01*
X321119Y538501D01*
X318881D01*
X316719Y537921D01*
X314781Y536802D01*
X313199Y535220D01*
X312080Y533281D01*
X311812Y532283D01*
X308189D01*
X307921Y533281D01*
X306802Y535220D01*
X305219Y536802D01*
X303281Y537921D01*
X301119Y538501D01*
X298881D01*
X296719Y537921D01*
X294781Y536802D01*
X293199Y535220D01*
X292080Y533281D01*
X291812Y532283D01*
X288189D01*
X287921Y533281D01*
X286802Y535220D01*
X285219Y536802D01*
X283281Y537921D01*
X281119Y538501D01*
X278881D01*
X276719Y537921D01*
X274781Y536802D01*
X273199Y535220D01*
X272080Y533281D01*
X271812Y532283D01*
X268189D01*
X267921Y533281D01*
X266802Y535220D01*
X265219Y536802D01*
X263281Y537921D01*
X261119Y538501D01*
X258881D01*
X256719Y537921D01*
X254781Y536802D01*
X253199Y535220D01*
X252080Y533281D01*
X251812Y532283D01*
X248189D01*
X247921Y533281D01*
X246802Y535220D01*
X245219Y536802D01*
X243281Y537921D01*
X241119Y538501D01*
X238881D01*
X236719Y537921D01*
X234781Y536802D01*
X233199Y535220D01*
X232080Y533281D01*
X231812Y532283D01*
X228189D01*
X227921Y533281D01*
X226802Y535220D01*
X225219Y536802D01*
X223281Y537921D01*
X221119Y538501D01*
X218881D01*
X216719Y537921D01*
X214781Y536802D01*
X213199Y535220D01*
X212080Y533281D01*
X211812Y532283D01*
X208189D01*
X207921Y533281D01*
X206802Y535220D01*
X205219Y536802D01*
X203281Y537921D01*
X201119Y538501D01*
X198881D01*
X196719Y537921D01*
X194781Y536802D01*
X193199Y535220D01*
X192080Y533281D01*
X191812Y532283D01*
X188189D01*
X187921Y533281D01*
X186802Y535220D01*
X185219Y536802D01*
X183281Y537921D01*
X181119Y538501D01*
X178881D01*
X176719Y537921D01*
X174781Y536802D01*
X173199Y535220D01*
X172080Y533281D01*
X171812Y532283D01*
X168189D01*
X167921Y533281D01*
X166802Y535220D01*
X165219Y536802D01*
X163281Y537921D01*
X161119Y538501D01*
X158881D01*
X156719Y537921D01*
X154781Y536802D01*
X153199Y535220D01*
X152080Y533281D01*
X151500Y531120D01*
Y528881D01*
X152080Y526720D01*
X153199Y524781D01*
X154781Y523199D01*
X156719Y522080D01*
X158881Y521501D01*
X161119D01*
X163281Y522080D01*
X165219Y523199D01*
X166802Y524781D01*
X167921Y526720D01*
X168189Y527718D01*
X171812D01*
X172080Y526720D01*
X173199Y524781D01*
X174781Y523199D01*
X176719Y522080D01*
X178881Y521501D01*
X181119D01*
X183281Y522080D01*
X185219Y523199D01*
X186802Y524781D01*
X187921Y526720D01*
X188189Y527718D01*
X191812D01*
X192080Y526720D01*
X193199Y524781D01*
X194781Y523199D01*
X196719Y522080D01*
X198881Y521501D01*
X201119D01*
X203281Y522080D01*
X205219Y523199D01*
X206802Y524781D01*
X207921Y526720D01*
X208189Y527718D01*
X211812D01*
X212080Y526720D01*
X213199Y524781D01*
X214781Y523199D01*
X216719Y522080D01*
X218881Y521501D01*
X221119D01*
X223281Y522080D01*
X225219Y523199D01*
X226802Y524781D01*
X227921Y526720D01*
X228189Y527718D01*
X231812D01*
X232080Y526720D01*
X233199Y524781D01*
X234781Y523199D01*
X236719Y522080D01*
X238881Y521501D01*
X241119D01*
X243281Y522080D01*
X245219Y523199D01*
X246802Y524781D01*
X247921Y526720D01*
X248189Y527718D01*
X251812D01*
X252080Y526720D01*
X253199Y524781D01*
X254781Y523199D01*
X256719Y522080D01*
X258881Y521501D01*
X261119D01*
X263281Y522080D01*
X265219Y523199D01*
X266802Y524781D01*
X267921Y526720D01*
X268189Y527718D01*
X271812D01*
X272080Y526720D01*
X273199Y524781D01*
X274781Y523199D01*
X276719Y522080D01*
X278881Y521501D01*
X281119D01*
X283281Y522080D01*
X285219Y523199D01*
X286802Y524781D01*
X287921Y526720D01*
X288189Y527718D01*
X291812D01*
X292080Y526720D01*
X293199Y524781D01*
X294781Y523199D01*
X296719Y522080D01*
X298881Y521501D01*
X301119D01*
X303281Y522080D01*
X305219Y523199D01*
X306802Y524781D01*
X307921Y526720D01*
X308189Y527718D01*
X311812D01*
X312080Y526720D01*
X313199Y524781D01*
X314781Y523199D01*
X316719Y522080D01*
X318881Y521501D01*
X321119D01*
X323281Y522080D01*
X325219Y523199D01*
X326802Y524781D01*
X327921Y526720D01*
X328189Y527718D01*
X331812D01*
X332080Y526720D01*
X333199Y524781D01*
X334781Y523199D01*
X336720Y522080D01*
X338881Y521501D01*
X341119D01*
X343281Y522080D01*
X345219Y523199D01*
X346802Y524781D01*
X347921Y526720D01*
X348189Y527718D01*
X351812D01*
X352080Y526720D01*
X353199Y524781D01*
X354781Y523199D01*
X356720Y522080D01*
X358881Y521501D01*
X361119D01*
X363281Y522080D01*
X365219Y523199D01*
X366802Y524781D01*
X367921Y526720D01*
X368500Y528881D01*
Y531120D01*
X367921Y533281D01*
X366802Y535220D01*
X365219Y536802D01*
X363281Y537921D01*
X361119Y538501D01*
D02*
G37*
G36*
X661120D02*
X658882D01*
X656720Y537921D01*
X654781Y536802D01*
X653199Y535220D01*
X652080Y533281D01*
X651501Y531120D01*
Y528881D01*
X652080Y526720D01*
X653199Y524781D01*
X654781Y523199D01*
X656720Y522080D01*
X658882Y521501D01*
X661120D01*
X663281Y522080D01*
X665220Y523199D01*
X666802Y524781D01*
X667921Y526720D01*
X668501Y528881D01*
Y531120D01*
X667921Y533281D01*
X666802Y535220D01*
X665220Y536802D01*
X663281Y537921D01*
X661120Y538501D01*
D02*
G37*
G36*
X768869Y536000D02*
X766631D01*
X764469Y535421D01*
X762531Y534302D01*
X760948Y532719D01*
X759829Y530781D01*
X759250Y528619D01*
Y526381D01*
X759829Y524219D01*
X760948Y522281D01*
X762531Y520698D01*
X764469Y519579D01*
X766631Y519000D01*
X768869D01*
X771031Y519579D01*
X772969Y520698D01*
X774552Y522281D01*
X775671Y524219D01*
X776250Y526381D01*
Y528619D01*
X775671Y530781D01*
X774552Y532719D01*
X772969Y534302D01*
X771031Y535421D01*
X768869Y536000D01*
D02*
G37*
G36*
X733619D02*
X731381D01*
X729219Y535421D01*
X727281Y534302D01*
X725698Y532719D01*
X724579Y530781D01*
X724000Y528619D01*
Y526381D01*
X724579Y524219D01*
X725698Y522281D01*
X727281Y520698D01*
X729219Y519579D01*
X731381Y519000D01*
X733619D01*
X735781Y519579D01*
X737719Y520698D01*
X739302Y522281D01*
X740421Y524219D01*
X741000Y526381D01*
Y528619D01*
X740421Y530781D01*
X739302Y532719D01*
X737719Y534302D01*
X735781Y535421D01*
X733619Y536000D01*
D02*
G37*
G36*
X351119Y518501D02*
X348881D01*
X346720Y517921D01*
X344781Y516802D01*
X343199Y515220D01*
X342080Y513281D01*
X341812Y512283D01*
X338189D01*
X337921Y513281D01*
X336802Y515220D01*
X335219Y516802D01*
X333281Y517921D01*
X331119Y518501D01*
X328881D01*
X326720Y517921D01*
X324781Y516802D01*
X323199Y515220D01*
X322080Y513281D01*
X321812Y512283D01*
X318189D01*
X317921Y513281D01*
X316802Y515220D01*
X315219Y516802D01*
X313281Y517921D01*
X311119Y518501D01*
X308881D01*
X306719Y517921D01*
X304781Y516802D01*
X303199Y515220D01*
X302080Y513281D01*
X301812Y512283D01*
X298189D01*
X297921Y513281D01*
X296802Y515220D01*
X295219Y516802D01*
X293281Y517921D01*
X291119Y518501D01*
X288881D01*
X286719Y517921D01*
X284781Y516802D01*
X283199Y515220D01*
X282080Y513281D01*
X281812Y512283D01*
X278189D01*
X277921Y513281D01*
X276802Y515220D01*
X275219Y516802D01*
X273281Y517921D01*
X271119Y518501D01*
X268881D01*
X266719Y517921D01*
X264781Y516802D01*
X263199Y515220D01*
X262080Y513281D01*
X261812Y512283D01*
X258189D01*
X257921Y513281D01*
X256802Y515220D01*
X255219Y516802D01*
X253281Y517921D01*
X251119Y518501D01*
X248881D01*
X246719Y517921D01*
X244781Y516802D01*
X243199Y515220D01*
X242080Y513281D01*
X241500Y511120D01*
Y508881D01*
X242080Y506720D01*
X243199Y504781D01*
X244781Y503199D01*
X246719Y502080D01*
X248881Y501501D01*
X251119D01*
X253281Y502080D01*
X255219Y503199D01*
X256802Y504781D01*
X257921Y506720D01*
X258189Y507718D01*
X261812D01*
X262080Y506720D01*
X263199Y504781D01*
X264781Y503199D01*
X266719Y502080D01*
X268881Y501501D01*
X271119D01*
X273281Y502080D01*
X275219Y503199D01*
X276802Y504781D01*
X277921Y506720D01*
X278189Y507718D01*
X281812D01*
X282080Y506720D01*
X283199Y504781D01*
X284781Y503199D01*
X286719Y502080D01*
X288881Y501501D01*
X291119D01*
X293281Y502080D01*
X295219Y503199D01*
X296802Y504781D01*
X297921Y506720D01*
X298189Y507718D01*
X301812D01*
X302080Y506720D01*
X303199Y504781D01*
X304781Y503199D01*
X306719Y502080D01*
X308881Y501501D01*
X311119D01*
X313281Y502080D01*
X315219Y503199D01*
X316802Y504781D01*
X317921Y506720D01*
X318189Y507718D01*
X321812D01*
X322080Y506720D01*
X323199Y504781D01*
X324781Y503199D01*
X326720Y502080D01*
X328881Y501501D01*
X331119D01*
X333281Y502080D01*
X335219Y503199D01*
X336802Y504781D01*
X337921Y506720D01*
X338189Y507718D01*
X341812D01*
X342080Y506720D01*
X343199Y504781D01*
X344781Y503199D01*
X346720Y502080D01*
X348881Y501501D01*
X351119D01*
X353281Y502080D01*
X355219Y503199D01*
X356802Y504781D01*
X357921Y506720D01*
X358500Y508881D01*
Y511120D01*
X357921Y513281D01*
X356802Y515220D01*
X355219Y516802D01*
X353281Y517921D01*
X351119Y518501D01*
D02*
G37*
G36*
X791120D02*
X788882D01*
X786720Y517921D01*
X784781Y516802D01*
X783199Y515220D01*
X782080Y513281D01*
X781501Y511120D01*
Y508881D01*
X782080Y506720D01*
X783199Y504781D01*
X784781Y503199D01*
X786720Y502080D01*
X788882Y501501D01*
X791120D01*
X793281Y502080D01*
X795220Y503199D01*
X796802Y504781D01*
X797921Y506720D01*
X798501Y508881D01*
Y511120D01*
X797921Y513281D01*
X796802Y515220D01*
X795220Y516802D01*
X793281Y517921D01*
X791120Y518501D01*
D02*
G37*
G36*
X741120Y498501D02*
X738882D01*
X736720Y497921D01*
X734781Y496802D01*
X733199Y495220D01*
X732080Y493281D01*
X731812Y492283D01*
X728189D01*
X727921Y493281D01*
X726802Y495220D01*
X725220Y496802D01*
X723281Y497921D01*
X721120Y498501D01*
X718882D01*
X716720Y497921D01*
X714781Y496802D01*
X713199Y495220D01*
X712080Y493281D01*
X711812Y492283D01*
X708189D01*
X707921Y493281D01*
X706802Y495220D01*
X705220Y496802D01*
X703281Y497921D01*
X701120Y498501D01*
X698882D01*
X696720Y497921D01*
X694781Y496802D01*
X693199Y495220D01*
X692080Y493281D01*
X691501Y491119D01*
Y488881D01*
X692080Y486720D01*
X693199Y484781D01*
X694781Y483199D01*
X696720Y482080D01*
X698882Y481501D01*
X701120D01*
X703281Y482080D01*
X705220Y483199D01*
X706802Y484781D01*
X707921Y486720D01*
X708189Y487718D01*
X711812D01*
X712080Y486720D01*
X713199Y484781D01*
X714781Y483199D01*
X716720Y482080D01*
X718882Y481501D01*
X721120D01*
X723281Y482080D01*
X725220Y483199D01*
X726802Y484781D01*
X727921Y486720D01*
X728189Y487718D01*
X731812D01*
X732080Y486720D01*
X733199Y484781D01*
X734781Y483199D01*
X736720Y482080D01*
X738882Y481501D01*
X741120D01*
X743281Y482080D01*
X745220Y483199D01*
X746802Y484781D01*
X747921Y486720D01*
X748501Y488881D01*
Y491119D01*
X747921Y493281D01*
X746802Y495220D01*
X745220Y496802D01*
X743281Y497921D01*
X741120Y498501D01*
D02*
G37*
G36*
X501119D02*
X498881D01*
X496720Y497921D01*
X494781Y496802D01*
X493199Y495220D01*
X492080Y493281D01*
X491812Y492283D01*
X488189D01*
X487921Y493281D01*
X486802Y495220D01*
X485220Y496802D01*
X483281Y497921D01*
X481119Y498501D01*
X478881D01*
X476720Y497921D01*
X474781Y496802D01*
X473199Y495220D01*
X472080Y493281D01*
X471812Y492283D01*
X468189D01*
X467921Y493281D01*
X466802Y495220D01*
X465220Y496802D01*
X463281Y497921D01*
X461119Y498501D01*
X458881D01*
X456720Y497921D01*
X454781Y496802D01*
X453199Y495220D01*
X452080Y493281D01*
X451501Y491119D01*
Y488881D01*
X452080Y486720D01*
X453199Y484781D01*
X454781Y483199D01*
X456720Y482080D01*
X458881Y481501D01*
X461119D01*
X463281Y482080D01*
X465220Y483199D01*
X466802Y484781D01*
X467921Y486720D01*
X468189Y487718D01*
X471812D01*
X472080Y486720D01*
X473199Y484781D01*
X474781Y483199D01*
X476720Y482080D01*
X478881Y481501D01*
X481119D01*
X483281Y482080D01*
X485220Y483199D01*
X486802Y484781D01*
X487921Y486720D01*
X488189Y487718D01*
X491812D01*
X492080Y486720D01*
X493199Y484781D01*
X494781Y483199D01*
X496720Y482080D01*
X498881Y481501D01*
X501119D01*
X503281Y482080D01*
X505220Y483199D01*
X506802Y484781D01*
X507921Y486720D01*
X508501Y488881D01*
Y491119D01*
X507921Y493281D01*
X506802Y495220D01*
X505220Y496802D01*
X503281Y497921D01*
X501119Y498501D01*
D02*
G37*
G36*
X228500Y513500D02*
X141500D01*
Y426500D01*
X228500D01*
Y446556D01*
X232000Y447017D01*
X232080Y446720D01*
X233199Y444781D01*
X234781Y443199D01*
X236719Y442080D01*
X238881Y441501D01*
X241119D01*
X243281Y442080D01*
X245219Y443199D01*
X246802Y444781D01*
X247921Y446720D01*
X248189Y447718D01*
X251812D01*
X252080Y446720D01*
X253199Y444781D01*
X254781Y443199D01*
X256719Y442080D01*
X258881Y441501D01*
X261119D01*
X263281Y442080D01*
X265219Y443199D01*
X266802Y444781D01*
X267921Y446720D01*
X268500Y448881D01*
Y451119D01*
X267921Y453281D01*
X266802Y455220D01*
X265219Y456802D01*
X263281Y457921D01*
X261119Y458501D01*
X258881D01*
X256719Y457921D01*
X254781Y456802D01*
X253199Y455220D01*
X252080Y453281D01*
X251812Y452283D01*
X248189D01*
X247921Y453281D01*
X246802Y455220D01*
X245219Y456802D01*
X243281Y457921D01*
X241119Y458501D01*
X238881D01*
X236719Y457921D01*
X234781Y456802D01*
X233199Y455220D01*
X232080Y453281D01*
X232000Y452984D01*
X228500Y453445D01*
Y486556D01*
X232000Y487017D01*
X232080Y486720D01*
X233199Y484781D01*
X234781Y483199D01*
X236719Y482080D01*
X238881Y481501D01*
X241119D01*
X243281Y482080D01*
X245219Y483199D01*
X246802Y484781D01*
X247921Y486720D01*
X248189Y487718D01*
X251812D01*
X252080Y486720D01*
X253199Y484781D01*
X254781Y483199D01*
X256719Y482080D01*
X258881Y481501D01*
X261119D01*
X263281Y482080D01*
X265219Y483199D01*
X266802Y484781D01*
X267921Y486720D01*
X268500Y488881D01*
Y491119D01*
X267921Y493281D01*
X266802Y495220D01*
X265219Y496802D01*
X263281Y497921D01*
X261119Y498501D01*
X258881D01*
X256719Y497921D01*
X254781Y496802D01*
X253199Y495220D01*
X252080Y493281D01*
X251812Y492283D01*
X248189D01*
X247921Y493281D01*
X246802Y495220D01*
X245219Y496802D01*
X243281Y497921D01*
X241119Y498501D01*
X238881D01*
X236719Y497921D01*
X234781Y496802D01*
X233199Y495220D01*
X232080Y493281D01*
X232000Y492984D01*
X228500Y493445D01*
Y513500D01*
D02*
G37*
G36*
X391119Y478501D02*
X388881D01*
X386720Y477921D01*
X384781Y476802D01*
X383199Y475220D01*
X382080Y473281D01*
X381812Y472283D01*
X378189D01*
X377921Y473281D01*
X376802Y475220D01*
X375219Y476802D01*
X373281Y477921D01*
X371119Y478501D01*
X368881D01*
X366720Y477921D01*
X364781Y476802D01*
X363199Y475220D01*
X362080Y473281D01*
X361500Y471119D01*
Y468881D01*
X362080Y466720D01*
X363199Y464781D01*
X364781Y463199D01*
X366720Y462080D01*
X368881Y461501D01*
X371119D01*
X373281Y462080D01*
X375219Y463199D01*
X376802Y464781D01*
X377921Y466720D01*
X378189Y467718D01*
X381812D01*
X382080Y466720D01*
X383199Y464781D01*
X384781Y463199D01*
X386720Y462080D01*
X388881Y461501D01*
X391119D01*
X393281Y462080D01*
X395220Y463199D01*
X396802Y464781D01*
X397921Y466720D01*
X398500Y468881D01*
Y471119D01*
X397921Y473281D01*
X396802Y475220D01*
X395220Y476802D01*
X393281Y477921D01*
X391119Y478501D01*
D02*
G37*
G36*
X271119D02*
X268881D01*
X266719Y477921D01*
X264781Y476802D01*
X263199Y475220D01*
X262080Y473281D01*
X261812Y472283D01*
X258189D01*
X257921Y473281D01*
X256802Y475220D01*
X255219Y476802D01*
X253281Y477921D01*
X251119Y478501D01*
X248881D01*
X246719Y477921D01*
X244781Y476802D01*
X243199Y475220D01*
X242080Y473281D01*
X241500Y471119D01*
Y468881D01*
X242080Y466720D01*
X243199Y464781D01*
X244781Y463199D01*
X246719Y462080D01*
X248881Y461501D01*
X251119D01*
X253281Y462080D01*
X255219Y463199D01*
X256802Y464781D01*
X257921Y466720D01*
X258189Y467718D01*
X261812D01*
X262080Y466720D01*
X263199Y464781D01*
X264781Y463199D01*
X266719Y462080D01*
X268881Y461501D01*
X271119D01*
X273281Y462080D01*
X275219Y463199D01*
X276802Y464781D01*
X277921Y466720D01*
X278500Y468881D01*
Y471119D01*
X277921Y473281D01*
X276802Y475220D01*
X275219Y476802D01*
X273281Y477921D01*
X271119Y478501D01*
D02*
G37*
G36*
X751120D02*
X748882D01*
X746720Y477921D01*
X744781Y476802D01*
X743199Y475220D01*
X742080Y473281D01*
X741812Y472283D01*
X738189D01*
X737921Y473281D01*
X736802Y475220D01*
X735220Y476802D01*
X733281Y477921D01*
X731120Y478501D01*
X728882D01*
X726720Y477921D01*
X724781Y476802D01*
X723199Y475220D01*
X722080Y473281D01*
X721812Y472283D01*
X718189D01*
X717921Y473281D01*
X716802Y475220D01*
X715220Y476802D01*
X713281Y477921D01*
X711120Y478501D01*
X708882D01*
X706720Y477921D01*
X704781Y476802D01*
X703199Y475220D01*
X702080Y473281D01*
X701501Y471119D01*
Y468881D01*
X702080Y466720D01*
X703199Y464781D01*
X704781Y463199D01*
X706720Y462080D01*
X708882Y461501D01*
X711120D01*
X713281Y462080D01*
X715220Y463199D01*
X716802Y464781D01*
X717921Y466720D01*
X718189Y467718D01*
X721812D01*
X722080Y466720D01*
X723199Y464781D01*
X724781Y463199D01*
X726720Y462080D01*
X728882Y461501D01*
X731120D01*
X733281Y462080D01*
X735220Y463199D01*
X736802Y464781D01*
X737921Y466720D01*
X738189Y467718D01*
X741812D01*
X742080Y466720D01*
X743199Y464781D01*
X744781Y463199D01*
X746720Y462080D01*
X748882Y461501D01*
X751120D01*
X753281Y462080D01*
X755220Y463199D01*
X756802Y464781D01*
X757921Y466720D01*
X758501Y468881D01*
Y471119D01*
X757921Y473281D01*
X756802Y475220D01*
X755220Y476802D01*
X753281Y477921D01*
X751120Y478501D01*
D02*
G37*
G36*
X631120D02*
X628881D01*
X626720Y477921D01*
X624781Y476802D01*
X623199Y475220D01*
X622080Y473281D01*
X621812Y472283D01*
X618189D01*
X617921Y473281D01*
X616802Y475220D01*
X615220Y476802D01*
X613281Y477921D01*
X611120Y478501D01*
X608881D01*
X606720Y477921D01*
X604781Y476802D01*
X603199Y475220D01*
X602080Y473281D01*
X601501Y471119D01*
Y468881D01*
X602080Y466720D01*
X603199Y464781D01*
X604781Y463199D01*
X606720Y462080D01*
X608881Y461501D01*
X611120D01*
X613281Y462080D01*
X615220Y463199D01*
X616802Y464781D01*
X617921Y466720D01*
X618189Y467718D01*
X621812D01*
X622080Y466720D01*
X623199Y464781D01*
X624781Y463199D01*
X626720Y462080D01*
X628881Y461501D01*
X631120D01*
X633281Y462080D01*
X635220Y463199D01*
X636802Y464781D01*
X637921Y466720D01*
X638501Y468881D01*
Y471119D01*
X637921Y473281D01*
X636802Y475220D01*
X635220Y476802D01*
X633281Y477921D01*
X631120Y478501D01*
D02*
G37*
G36*
X511120D02*
X508881D01*
X506720Y477921D01*
X504781Y476802D01*
X503199Y475220D01*
X502080Y473281D01*
X501812Y472283D01*
X498189D01*
X497921Y473281D01*
X496802Y475220D01*
X495220Y476802D01*
X493281Y477921D01*
X491119Y478501D01*
X488881D01*
X486720Y477921D01*
X484781Y476802D01*
X483199Y475220D01*
X482080Y473281D01*
X481812Y472283D01*
X478189D01*
X477921Y473281D01*
X476802Y475220D01*
X475220Y476802D01*
X473281Y477921D01*
X471119Y478501D01*
X468881D01*
X466720Y477921D01*
X464781Y476802D01*
X463199Y475220D01*
X462080Y473281D01*
X461501Y471119D01*
Y468881D01*
X462080Y466720D01*
X463199Y464781D01*
X464781Y463199D01*
X466720Y462080D01*
X468881Y461501D01*
X471119D01*
X473281Y462080D01*
X475220Y463199D01*
X476802Y464781D01*
X477921Y466720D01*
X478189Y467718D01*
X481812D01*
X482080Y466720D01*
X483199Y464781D01*
X484781Y463199D01*
X486720Y462080D01*
X488881Y461501D01*
X491119D01*
X493281Y462080D01*
X495220Y463199D01*
X496802Y464781D01*
X497921Y466720D01*
X498189Y467718D01*
X501812D01*
X502080Y466720D01*
X503199Y464781D01*
X504781Y463199D01*
X506720Y462080D01*
X508881Y461501D01*
X511120D01*
X513281Y462080D01*
X515220Y463199D01*
X516802Y464781D01*
X517921Y466720D01*
X518501Y468881D01*
Y471119D01*
X517921Y473281D01*
X516802Y475220D01*
X515220Y476802D01*
X513281Y477921D01*
X511120Y478501D01*
D02*
G37*
G36*
X571120D02*
X568881D01*
X566720Y477921D01*
X564781Y476802D01*
X563199Y475220D01*
X562080Y473281D01*
X561501Y471119D01*
Y468881D01*
X562080Y466720D01*
X563199Y464781D01*
X564781Y463199D01*
X566720Y462080D01*
X568881Y461501D01*
X571120D01*
X573281Y462080D01*
X575220Y463199D01*
X576802Y464781D01*
X577921Y466720D01*
X578501Y468881D01*
Y471119D01*
X577921Y473281D01*
X576802Y475220D01*
X575220Y476802D01*
X573281Y477921D01*
X571120Y478501D01*
D02*
G37*
G36*
X331119D02*
X328881D01*
X326720Y477921D01*
X324781Y476802D01*
X323199Y475220D01*
X322080Y473281D01*
X321500Y471119D01*
Y468881D01*
X322080Y466720D01*
X323199Y464781D01*
X324781Y463199D01*
X326720Y462080D01*
X328881Y461501D01*
X331119D01*
X333281Y462080D01*
X335219Y463199D01*
X336802Y464781D01*
X337921Y466720D01*
X338500Y468881D01*
Y471119D01*
X337921Y473281D01*
X336802Y475220D01*
X335219Y476802D01*
X333281Y477921D01*
X331119Y478501D01*
D02*
G37*
G36*
X511119Y426000D02*
X508881D01*
X506719Y425421D01*
X504781Y424302D01*
X503198Y422719D01*
X502681Y421824D01*
X500781Y422921D01*
X498619Y423500D01*
X496381D01*
X494219Y422921D01*
X492281Y421802D01*
X490698Y420219D01*
X489579Y418281D01*
X489000Y416119D01*
Y413881D01*
X489579Y411719D01*
X490698Y409781D01*
X491729Y408750D01*
X490698Y407719D01*
X489579Y405781D01*
X489000Y403619D01*
Y401381D01*
X489579Y399219D01*
X490698Y397281D01*
X491729Y396250D01*
X490698Y395219D01*
X489579Y393281D01*
X489000Y391119D01*
Y388881D01*
X489579Y386719D01*
X490698Y384781D01*
X492281Y383198D01*
X494219Y382079D01*
X496381Y381500D01*
X498667Y381167D01*
X499000Y378881D01*
X499579Y376719D01*
X500698Y374781D01*
X501729Y373750D01*
X500698Y372719D01*
X499579Y370781D01*
X499000Y368619D01*
Y366381D01*
X499579Y364219D01*
X500698Y362281D01*
X501729Y361250D01*
X500698Y360219D01*
X499579Y358281D01*
X499000Y356119D01*
Y353881D01*
X499579Y351719D01*
X500698Y349781D01*
X502281Y348198D01*
X504219Y347079D01*
X506381Y346500D01*
X508619D01*
X509335Y346692D01*
X512500Y347500D01*
X512500Y347500D01*
X525689D01*
X526529Y344000D01*
X525587Y343520D01*
X522085Y340976D01*
X519024Y337915D01*
X516480Y334413D01*
X514515Y330556D01*
X513177Y326440D01*
X512500Y322164D01*
Y317836D01*
X513177Y313560D01*
X514515Y309444D01*
X516480Y305587D01*
X519024Y302085D01*
X522085Y299024D01*
X525587Y296480D01*
X529444Y294515D01*
X533560Y293177D01*
X537836Y292500D01*
X542164D01*
X546440Y293177D01*
X550556Y294515D01*
X554413Y296480D01*
X557915Y299024D01*
X560976Y302085D01*
X563520Y305587D01*
X565485Y309444D01*
X566823Y313560D01*
X567500Y317836D01*
Y322164D01*
X566823Y326440D01*
X565485Y330556D01*
X563520Y334413D01*
X560976Y337915D01*
X557915Y340976D01*
X554413Y343520D01*
X553471Y344000D01*
X554312Y347500D01*
X567500D01*
Y352940D01*
X568881Y354000D01*
X571119D01*
X573281Y354579D01*
X575219Y355698D01*
X576802Y357281D01*
X577921Y359219D01*
X578500Y361381D01*
Y363619D01*
X577921Y365781D01*
X576802Y367719D01*
X575219Y369302D01*
X573281Y370421D01*
X571119Y371000D01*
X568881D01*
X567500Y372060D01*
Y402500D01*
X560435D01*
X558158Y405600D01*
X561719Y407079D01*
X563881Y406500D01*
X566119D01*
X568281Y407079D01*
X570219Y408198D01*
X571802Y409781D01*
X572921Y411719D01*
X573500Y413881D01*
Y416119D01*
X572921Y418281D01*
X571802Y420219D01*
X570219Y421802D01*
X568281Y422921D01*
X566119Y423500D01*
X563881D01*
X561719Y422921D01*
X559781Y421802D01*
X558198Y420219D01*
X557079Y418281D01*
X556500Y416119D01*
Y415471D01*
X553000Y414021D01*
X552719Y414302D01*
X550781Y415421D01*
X548619Y416000D01*
X546381D01*
X544219Y415421D01*
X542281Y414302D01*
X541250Y413271D01*
X540219Y414302D01*
X538281Y415421D01*
X536119Y416000D01*
X533881D01*
X531719Y415421D01*
X529781Y414302D01*
X528750Y413271D01*
X527719Y414302D01*
X525781Y415421D01*
X523619Y416000D01*
X521812D01*
X521319Y416057D01*
X518500Y418619D01*
X517921Y420781D01*
X516802Y422719D01*
X515219Y424302D01*
X513281Y425421D01*
X511119Y426000D01*
D02*
G37*
G36*
X391119D02*
X388881D01*
X386719Y425421D01*
X384781Y424302D01*
X383198Y422719D01*
X382681Y421824D01*
X380781Y422921D01*
X378619Y423500D01*
X376381D01*
X374219Y422921D01*
X372281Y421802D01*
X370698Y420219D01*
X369579Y418281D01*
X369000Y416119D01*
Y413881D01*
X369579Y411719D01*
X370698Y409781D01*
X371729Y408750D01*
X370698Y407719D01*
X369579Y405781D01*
X369000Y403619D01*
Y401381D01*
X369579Y399219D01*
X370698Y397281D01*
X371729Y396250D01*
X370698Y395219D01*
X369579Y393281D01*
X369000Y391119D01*
Y388881D01*
X369579Y386719D01*
X370698Y384781D01*
X372281Y383198D01*
X374219Y382079D01*
X376381Y381500D01*
X378667Y381167D01*
X379000Y378881D01*
X379579Y376719D01*
X380698Y374781D01*
X381729Y373750D01*
X380698Y372719D01*
X379579Y370781D01*
X379000Y368619D01*
Y366381D01*
X379579Y364219D01*
X380698Y362281D01*
X381729Y361250D01*
X380698Y360219D01*
X379579Y358281D01*
X379000Y356119D01*
Y353881D01*
X379579Y351719D01*
X380698Y349781D01*
X382281Y348198D01*
X384219Y347079D01*
X386381Y346500D01*
X388619D01*
X389335Y346692D01*
X392500Y347500D01*
X392500Y347500D01*
X405688D01*
X406529Y344000D01*
X405587Y343520D01*
X402085Y340976D01*
X399024Y337915D01*
X396480Y334413D01*
X394515Y330556D01*
X393177Y326440D01*
X392500Y322164D01*
Y317836D01*
X393177Y313560D01*
X394515Y309444D01*
X396480Y305587D01*
X399024Y302085D01*
X402085Y299024D01*
X405587Y296480D01*
X409444Y294515D01*
X413560Y293177D01*
X417836Y292500D01*
X422164D01*
X426440Y293177D01*
X430556Y294515D01*
X434413Y296480D01*
X437915Y299024D01*
X440976Y302085D01*
X443520Y305587D01*
X445485Y309444D01*
X446823Y313560D01*
X447500Y317836D01*
Y322164D01*
X446823Y326440D01*
X445485Y330556D01*
X443520Y334413D01*
X440976Y337915D01*
X437915Y340976D01*
X434413Y343520D01*
X433471Y344000D01*
X434312Y347500D01*
X447500D01*
Y352940D01*
X448881Y354000D01*
X451119D01*
X453281Y354579D01*
X455219Y355698D01*
X456802Y357281D01*
X457921Y359219D01*
X458500Y361381D01*
Y363619D01*
X457921Y365781D01*
X456802Y367719D01*
X455219Y369302D01*
X453281Y370421D01*
X451119Y371000D01*
X448881D01*
X447500Y372060D01*
Y402500D01*
X440435D01*
X438157Y405600D01*
X441719Y407079D01*
X443881Y406500D01*
X446119D01*
X448281Y407079D01*
X450219Y408198D01*
X451802Y409781D01*
X452921Y411719D01*
X453500Y413881D01*
Y416119D01*
X452921Y418281D01*
X451802Y420219D01*
X450219Y421802D01*
X448281Y422921D01*
X446119Y423500D01*
X443881D01*
X441719Y422921D01*
X439781Y421802D01*
X438198Y420219D01*
X437079Y418281D01*
X436500Y416119D01*
Y415471D01*
X433000Y414021D01*
X432719Y414302D01*
X430781Y415421D01*
X428619Y416000D01*
X426381D01*
X424219Y415421D01*
X422281Y414302D01*
X421250Y413271D01*
X420219Y414302D01*
X418281Y415421D01*
X416119Y416000D01*
X413881D01*
X411719Y415421D01*
X409781Y414302D01*
X408750Y413271D01*
X407719Y414302D01*
X405781Y415421D01*
X403619Y416000D01*
X401812D01*
X401319Y416057D01*
X398500Y418619D01*
X397921Y420781D01*
X396802Y422719D01*
X395219Y424302D01*
X393281Y425421D01*
X391119Y426000D01*
D02*
G37*
G36*
X271119D02*
X268881D01*
X266719Y425421D01*
X264781Y424302D01*
X263198Y422719D01*
X262681Y421824D01*
X260781Y422921D01*
X258619Y423500D01*
X256381D01*
X254219Y422921D01*
X252281Y421802D01*
X250698Y420219D01*
X249579Y418281D01*
X249000Y416119D01*
Y413881D01*
X249579Y411719D01*
X250698Y409781D01*
X251729Y408750D01*
X250698Y407719D01*
X249579Y405781D01*
X249000Y403619D01*
Y401381D01*
X249579Y399219D01*
X250698Y397281D01*
X251729Y396250D01*
X250698Y395219D01*
X249579Y393281D01*
X249000Y391119D01*
Y388881D01*
X249579Y386719D01*
X250698Y384781D01*
X252281Y383198D01*
X254219Y382079D01*
X256381Y381500D01*
X258668Y381167D01*
X259000Y378881D01*
X259579Y376719D01*
X260698Y374781D01*
X261729Y373750D01*
X260698Y372719D01*
X259579Y370781D01*
X259000Y368619D01*
Y366381D01*
X259579Y364219D01*
X260698Y362281D01*
X261729Y361250D01*
X260698Y360219D01*
X259579Y358281D01*
X259000Y356119D01*
Y353881D01*
X259579Y351719D01*
X260698Y349781D01*
X262281Y348198D01*
X264219Y347079D01*
X266381Y346500D01*
X268619D01*
X269335Y346692D01*
X272500Y347500D01*
X272500Y347500D01*
X285688D01*
X286529Y344000D01*
X285587Y343520D01*
X282085Y340976D01*
X279024Y337915D01*
X276480Y334413D01*
X274515Y330556D01*
X273177Y326440D01*
X272500Y322164D01*
Y317836D01*
X273177Y313560D01*
X274515Y309444D01*
X276480Y305587D01*
X279024Y302085D01*
X282085Y299024D01*
X285587Y296480D01*
X289444Y294515D01*
X293560Y293177D01*
X297836Y292500D01*
X302164D01*
X306440Y293177D01*
X310556Y294515D01*
X314413Y296480D01*
X317915Y299024D01*
X320976Y302085D01*
X323520Y305587D01*
X325485Y309444D01*
X326823Y313560D01*
X327500Y317836D01*
Y322164D01*
X326823Y326440D01*
X325485Y330556D01*
X323520Y334413D01*
X320976Y337915D01*
X317915Y340976D01*
X314413Y343520D01*
X313471Y344000D01*
X314312Y347500D01*
X327500D01*
Y352940D01*
X328881Y354000D01*
X331119D01*
X333281Y354579D01*
X335219Y355698D01*
X336802Y357281D01*
X337921Y359219D01*
X338500Y361381D01*
Y363619D01*
X337921Y365781D01*
X336802Y367719D01*
X335219Y369302D01*
X333281Y370421D01*
X331119Y371000D01*
X328881D01*
X327500Y372060D01*
Y402500D01*
X320435D01*
X318157Y405600D01*
X321719Y407079D01*
X323881Y406500D01*
X326119D01*
X328281Y407079D01*
X330219Y408198D01*
X331802Y409781D01*
X332921Y411719D01*
X333500Y413881D01*
Y416119D01*
X332921Y418281D01*
X331802Y420219D01*
X330219Y421802D01*
X328281Y422921D01*
X326119Y423500D01*
X323881D01*
X321719Y422921D01*
X319781Y421802D01*
X318198Y420219D01*
X317079Y418281D01*
X316500Y416119D01*
Y415471D01*
X313000Y414021D01*
X312719Y414302D01*
X310781Y415421D01*
X308619Y416000D01*
X306381D01*
X304219Y415421D01*
X302281Y414302D01*
X301250Y413271D01*
X300219Y414302D01*
X298281Y415421D01*
X296119Y416000D01*
X293881D01*
X291719Y415421D01*
X289781Y414302D01*
X288750Y413271D01*
X287719Y414302D01*
X285781Y415421D01*
X283619Y416000D01*
X281812D01*
X281319Y416057D01*
X278500Y418619D01*
X277921Y420781D01*
X276802Y422719D01*
X275219Y424302D01*
X273281Y425421D01*
X271119Y426000D01*
D02*
G37*
G36*
X751119Y426000D02*
X748881D01*
X746719Y425421D01*
X744781Y424302D01*
X743198Y422719D01*
X742681Y421824D01*
X740781Y422921D01*
X738619Y423500D01*
X736381D01*
X734219Y422921D01*
X732281Y421802D01*
X730698Y420219D01*
X729579Y418281D01*
X729000Y416119D01*
Y413881D01*
X729579Y411719D01*
X730698Y409781D01*
X731729Y408750D01*
X730698Y407719D01*
X729579Y405781D01*
X729000Y403619D01*
Y401381D01*
X729579Y399219D01*
X730698Y397281D01*
X731729Y396250D01*
X730698Y395219D01*
X729579Y393281D01*
X729000Y391119D01*
Y388881D01*
X729579Y386719D01*
X730698Y384781D01*
X732281Y383198D01*
X734219Y382079D01*
X736381Y381500D01*
X738188D01*
X738681Y381443D01*
X741500Y378881D01*
X742079Y376719D01*
X743198Y374781D01*
X744229Y373750D01*
X743198Y372719D01*
X742079Y370781D01*
X741500Y368619D01*
Y366381D01*
X742079Y364219D01*
X743198Y362281D01*
X744781Y360698D01*
X746719Y359579D01*
X748881Y359000D01*
X751119D01*
X752500Y357940D01*
Y347500D01*
X765688D01*
X766529Y344000D01*
X765587Y343520D01*
X762085Y340976D01*
X759024Y337915D01*
X756480Y334413D01*
X754515Y330556D01*
X753177Y326440D01*
X752500Y322164D01*
Y317836D01*
X753177Y313560D01*
X754515Y309444D01*
X756480Y305587D01*
X759024Y302085D01*
X762085Y299024D01*
X765587Y296480D01*
X769444Y294515D01*
X773560Y293177D01*
X777836Y292500D01*
X782164D01*
X786440Y293177D01*
X790556Y294515D01*
X794413Y296480D01*
X797915Y299024D01*
X800976Y302085D01*
X803520Y305587D01*
X805485Y309444D01*
X806823Y313560D01*
X807500Y317836D01*
Y322164D01*
X806823Y326440D01*
X805485Y330556D01*
X803520Y334413D01*
X800976Y337915D01*
X797915Y340976D01*
X794413Y343520D01*
X793471Y344000D01*
X794312Y347500D01*
X807500D01*
Y402500D01*
X798177D01*
X795898Y406000D01*
X796000Y406381D01*
Y408619D01*
X795606Y410089D01*
X798805Y411674D01*
X799781Y410698D01*
X801719Y409579D01*
X803881Y409000D01*
X806119D01*
X808281Y409579D01*
X810219Y410698D01*
X811802Y412281D01*
X812921Y414219D01*
X813500Y416381D01*
Y418619D01*
X812921Y420781D01*
X811802Y422719D01*
X810219Y424302D01*
X808281Y425421D01*
X806119Y426000D01*
X803881D01*
X801719Y425421D01*
X799781Y424302D01*
X798198Y422719D01*
X797079Y420781D01*
X796500Y418619D01*
Y416381D01*
X796894Y414911D01*
X793695Y413326D01*
X792719Y414302D01*
X790781Y415421D01*
X788619Y416000D01*
X786381D01*
X784219Y415421D01*
X782281Y414302D01*
X781250Y413271D01*
X780219Y414302D01*
X778281Y415421D01*
X776119Y416000D01*
X773881D01*
X771719Y415421D01*
X769781Y414302D01*
X768750Y413271D01*
X767719Y414302D01*
X765781Y415421D01*
X763619Y416000D01*
X761812D01*
X761319Y416057D01*
X758500Y418619D01*
X757921Y420781D01*
X756802Y422719D01*
X755219Y424302D01*
X753281Y425421D01*
X751119Y426000D01*
D02*
G37*
G36*
X631119D02*
X628881D01*
X626719Y425421D01*
X624781Y424302D01*
X623198Y422719D01*
X622681Y421824D01*
X620781Y422921D01*
X618619Y423500D01*
X616381D01*
X614219Y422921D01*
X612281Y421802D01*
X610698Y420219D01*
X609579Y418281D01*
X609000Y416119D01*
Y413881D01*
X609579Y411719D01*
X610698Y409781D01*
X611729Y408750D01*
X610698Y407719D01*
X609579Y405781D01*
X609000Y403619D01*
Y401381D01*
X609579Y399219D01*
X610698Y397281D01*
X611729Y396250D01*
X610698Y395219D01*
X609579Y393281D01*
X609000Y391119D01*
Y388881D01*
X609579Y386719D01*
X610698Y384781D01*
X612281Y383198D01*
X614219Y382079D01*
X616381Y381500D01*
X618667Y381167D01*
X619000Y378881D01*
X619579Y376719D01*
X620698Y374781D01*
X621729Y373750D01*
X620698Y372719D01*
X619579Y370781D01*
X619000Y368619D01*
Y366381D01*
X619579Y364219D01*
X620698Y362281D01*
X621729Y361250D01*
X620698Y360219D01*
X619579Y358281D01*
X619000Y356119D01*
Y353881D01*
X619579Y351719D01*
X620698Y349781D01*
X622281Y348198D01*
X624219Y347079D01*
X626381Y346500D01*
X628619D01*
X629335Y346692D01*
X632500Y347500D01*
X632500Y347500D01*
X645688D01*
X646529Y344000D01*
X645587Y343520D01*
X642085Y340976D01*
X639024Y337915D01*
X636480Y334413D01*
X634515Y330556D01*
X633177Y326440D01*
X632500Y322164D01*
Y317836D01*
X633177Y313560D01*
X634515Y309444D01*
X636480Y305587D01*
X639024Y302085D01*
X642085Y299024D01*
X645587Y296480D01*
X649444Y294515D01*
X653560Y293177D01*
X657836Y292500D01*
X662164D01*
X666440Y293177D01*
X670556Y294515D01*
X674413Y296480D01*
X677915Y299024D01*
X680976Y302085D01*
X683520Y305587D01*
X685485Y309444D01*
X686823Y313560D01*
X687500Y317836D01*
Y322164D01*
X686823Y326440D01*
X685485Y330556D01*
X683520Y334413D01*
X680976Y337915D01*
X677915Y340976D01*
X674413Y343520D01*
X673471Y344000D01*
X674312Y347500D01*
X687500D01*
Y352940D01*
X688881Y354000D01*
X691119D01*
X693281Y354579D01*
X695219Y355698D01*
X696802Y357281D01*
X697921Y359219D01*
X698500Y361381D01*
Y363619D01*
X697921Y365781D01*
X696802Y367719D01*
X695219Y369302D01*
X693281Y370421D01*
X691119Y371000D01*
X688881D01*
X687500Y372060D01*
Y402500D01*
X680434D01*
X678157Y405600D01*
X681719Y407079D01*
X683881Y406500D01*
X686119D01*
X688281Y407079D01*
X690219Y408198D01*
X691802Y409781D01*
X692921Y411719D01*
X693500Y413881D01*
Y416119D01*
X692921Y418281D01*
X691802Y420219D01*
X690219Y421802D01*
X688281Y422921D01*
X686119Y423500D01*
X683881D01*
X681719Y422921D01*
X679781Y421802D01*
X678198Y420219D01*
X677079Y418281D01*
X676500Y416119D01*
Y415471D01*
X673000Y414021D01*
X672719Y414302D01*
X670781Y415421D01*
X668619Y416000D01*
X666381D01*
X664219Y415421D01*
X662281Y414302D01*
X661250Y413271D01*
X660219Y414302D01*
X658281Y415421D01*
X656119Y416000D01*
X653881D01*
X651719Y415421D01*
X649781Y414302D01*
X648750Y413271D01*
X647719Y414302D01*
X645781Y415421D01*
X643619Y416000D01*
X641812D01*
X641319Y416057D01*
X638500Y418619D01*
X637921Y420781D01*
X636802Y422719D01*
X635219Y424302D01*
X633281Y425421D01*
X631119Y426000D01*
D02*
G37*
G36*
X200000Y274619D02*
X195197Y274146D01*
X190579Y272745D01*
X186323Y270470D01*
X182592Y267408D01*
X179530Y263677D01*
X177255Y259421D01*
X175854Y254803D01*
X175382Y250000D01*
X175854Y245197D01*
X177255Y240579D01*
X179530Y236323D01*
X182592Y232592D01*
X186323Y229530D01*
X190579Y227255D01*
X195197Y225854D01*
X200000Y225382D01*
X204803Y225854D01*
X209421Y227255D01*
X213677Y229530D01*
X217408Y232592D01*
X220470Y236323D01*
X222745Y240579D01*
X224146Y245197D01*
X224618Y250000D01*
X224146Y254803D01*
X222745Y259421D01*
X220470Y263677D01*
X217408Y267408D01*
X213677Y270470D01*
X209421Y272745D01*
X204803Y274146D01*
X200000Y274619D01*
D02*
G37*
%LPD*%
D50*
X933000Y540000D02*
X945000D01*
D52*
X390300Y172700D02*
D03*
X390300Y147300D02*
D03*
X415700Y147300D02*
D03*
X441100Y147300D02*
D03*
X466500Y147300D02*
D03*
X491900Y147300D02*
D03*
X517300Y147300D02*
D03*
X542700Y147300D02*
D03*
X568100Y147300D02*
D03*
X593500Y147300D02*
D03*
X618900Y147300D02*
D03*
X644300Y147300D02*
D03*
X669700Y172700D02*
D03*
X695100Y172700D02*
D03*
X720500Y172700D02*
D03*
X720500Y147300D02*
D03*
X745900Y172700D02*
D03*
Y147300D02*
D03*
X771300Y172700D02*
D03*
X771300Y147300D02*
D03*
D55*
X540000Y265000D02*
D03*
X780000Y265000D02*
D03*
X660000Y265000D02*
D03*
X420000Y265000D02*
D03*
X300000D02*
D03*
X540000Y925000D02*
D03*
X660000Y925000D02*
D03*
X300000Y895000D02*
D03*
X780000Y915000D02*
D03*
X420000Y925000D02*
D03*
D57*
X857300Y775900D02*
D03*
X882700Y775900D02*
D03*
X857300Y750500D02*
D03*
X882700Y750500D02*
D03*
X857300Y725100D02*
D03*
X882700Y725100D02*
D03*
X857300Y699700D02*
D03*
X882700Y699700D02*
D03*
X857300Y674300D02*
D03*
X882700Y674300D02*
D03*
X857300Y648900D02*
D03*
X882700Y648900D02*
D03*
X857300Y623500D02*
D03*
X882700Y623500D02*
D03*
X857300Y598100D02*
D03*
X882700Y598100D02*
D03*
X857300Y572700D02*
D03*
X882700Y572700D02*
D03*
X857300Y547300D02*
D03*
X882700Y547300D02*
D03*
X857300Y521900D02*
D03*
X882700Y521900D02*
D03*
X857300Y496500D02*
D03*
D59*
X185000Y360000D02*
D03*
Y770000D02*
D03*
D60*
X945000Y540000D02*
D03*
X712000Y636000D02*
D03*
X630000Y575000D02*
D03*
X435000D02*
D03*
X366000D02*
D03*
X234000D02*
D03*
X809000Y541000D02*
D03*
X637500Y75000D02*
D03*
X537500Y45000D02*
D03*
X405000Y45000D02*
D03*
X1040000Y470000D02*
D03*
Y530000D02*
D03*
X1035000Y625000D02*
D03*
X977500Y587500D02*
D03*
X1002500D02*
D03*
X788000Y541000D02*
D03*
X665000Y577500D02*
D03*
X400000Y575000D02*
D03*
X320000D02*
D03*
D61*
X933000Y540000D02*
Y617000D01*
Y238000D02*
Y540000D01*
X835200Y172700D02*
X910000Y247500D01*
Y560784D01*
X771300Y172700D02*
X835200D01*
X771300Y172700D02*
X771300Y172700D01*
X815696Y120696D02*
X933000Y238000D01*
X901100Y648900D02*
X933000Y617000D01*
X882700Y572700D02*
X898084D01*
X910000Y560784D01*
X860995Y572700D02*
X860996Y572700D01*
X882700D01*
X882700Y572700D01*
X857300Y572700D02*
X860995D01*
X857300Y572699D02*
X857300Y572700D01*
X857300Y648900D02*
X857300Y648900D01*
Y623500D02*
Y648900D01*
Y623500D02*
X857300Y623500D01*
X857300Y648900D02*
X857300Y648900D01*
X882700D01*
X882700Y648900D01*
X901100D01*
X731519Y120696D02*
X815696D01*
X720500Y131716D02*
Y147300D01*
Y131716D02*
X731519Y120696D01*
X720500Y147300D02*
X720500Y147300D01*
X720500Y147300D02*
Y172700D01*
X720500Y172700D01*
X745900D02*
X745900Y172700D01*
X720500Y172700D02*
X745900D01*
X857300Y547300D02*
X857300Y547300D01*
Y572699D01*
X771300Y147300D02*
Y172700D01*
X771300Y147300D02*
X771300Y147300D01*
X771300Y147300D02*
X771300Y147300D01*
X745900Y147300D02*
X745900Y147300D01*
X771300D01*
M02*
