G04*
G04 #@! TF.GenerationSoftware,Altium Limited,Altium Designer,24.6.1 (21)*
G04*
G04 Layer_Color=128*
%FSLAX44Y44*%
%MOMM*%
G71*
G04*
G04 #@! TF.SameCoordinates,2E76E9DF-5346-47BD-B1D1-113FD9C7C588*
G04*
G04*
G04 #@! TF.FilePolarity,Positive*
G04*
G01*
G75*
%ADD18R,0.9500X0.8000*%
%ADD30R,1.0500X0.9000*%
%ADD32R,0.9000X1.0500*%
%ADD62R,2.1000X2.2500*%
%ADD63O,1.4500X0.6000*%
%ADD64R,1.4500X0.6000*%
%ADD65R,0.5334X1.7018*%
%ADD66R,0.6000X1.4500*%
%ADD67O,0.6000X1.4500*%
%ADD68R,1.7500X1.2500*%
%ADD69R,1.5000X2.1200*%
D18*
X917500Y616500D02*
D03*
Y603500D02*
D03*
X1000000Y674000D02*
D03*
Y661000D02*
D03*
Y699000D02*
D03*
Y686000D02*
D03*
D30*
X930000Y654500D02*
D03*
Y670500D02*
D03*
X917500Y588000D02*
D03*
Y572000D02*
D03*
X400000Y512000D02*
D03*
Y528000D02*
D03*
X640000Y512000D02*
D03*
Y528000D02*
D03*
X560000Y642000D02*
D03*
Y658000D02*
D03*
X320000Y642000D02*
D03*
Y658000D02*
D03*
D32*
X782000Y560000D02*
D03*
X798000D02*
D03*
D62*
X250000Y367250D02*
D03*
Y332750D02*
D03*
X370000Y367250D02*
D03*
Y332750D02*
D03*
X490000Y367250D02*
D03*
Y332750D02*
D03*
X610000Y367250D02*
D03*
Y332750D02*
D03*
X730000Y367250D02*
D03*
Y332750D02*
D03*
X250000Y837250D02*
D03*
Y802750D02*
D03*
X730000Y857250D02*
D03*
Y822750D02*
D03*
X490000Y832750D02*
D03*
Y867250D02*
D03*
X610000D02*
D03*
Y832750D02*
D03*
X370000Y867250D02*
D03*
Y832750D02*
D03*
D63*
X762750Y580950D02*
D03*
Y593650D02*
D03*
Y606350D02*
D03*
Y619050D02*
D03*
X817250Y580950D02*
D03*
Y593650D02*
D03*
Y606350D02*
D03*
D64*
Y619050D02*
D03*
D65*
X934400Y614408D02*
D03*
X947100D02*
D03*
X959800D02*
D03*
X972500D02*
D03*
X985200D02*
D03*
X997900D02*
D03*
X1010600D02*
D03*
Y562592D02*
D03*
X997900D02*
D03*
X985200D02*
D03*
X972500D02*
D03*
X959800D02*
D03*
X947100D02*
D03*
X934400D02*
D03*
D66*
X984050Y650250D02*
D03*
X340950Y547250D02*
D03*
X580950Y547250D02*
D03*
X619050Y622750D02*
D03*
X379050Y622749D02*
D03*
D67*
X971350Y650250D02*
D03*
X958650D02*
D03*
X945950D02*
D03*
X984050Y704750D02*
D03*
X971350D02*
D03*
X958650D02*
D03*
X945950D02*
D03*
X353650Y547250D02*
D03*
X366350D02*
D03*
X379050D02*
D03*
X340950Y492750D02*
D03*
X353650D02*
D03*
X366350D02*
D03*
X379050D02*
D03*
X593650Y547250D02*
D03*
X606350D02*
D03*
X619050D02*
D03*
X580950Y492750D02*
D03*
X593650D02*
D03*
X606350D02*
D03*
X619050D02*
D03*
X580950Y677250D02*
D03*
X593650D02*
D03*
X606350D02*
D03*
X619050D02*
D03*
X580950Y622750D02*
D03*
X593650D02*
D03*
X606350D02*
D03*
X340950Y677249D02*
D03*
X353650D02*
D03*
X366350D02*
D03*
X379050D02*
D03*
X340950Y622749D02*
D03*
X353650D02*
D03*
X366350D02*
D03*
D68*
X926750Y727500D02*
D03*
X953250D02*
D03*
X976750D02*
D03*
X1003250D02*
D03*
D69*
X250000Y728850D02*
D03*
Y771150D02*
D03*
X460000Y758850D02*
D03*
Y801150D02*
D03*
X820000Y748850D02*
D03*
Y791150D02*
D03*
X580000Y811150D02*
D03*
Y768850D02*
D03*
X700000D02*
D03*
Y811150D02*
D03*
X820000Y431150D02*
D03*
Y388850D02*
D03*
X580000Y388850D02*
D03*
Y431150D02*
D03*
X340000Y388850D02*
D03*
Y431150D02*
D03*
X700000Y431150D02*
D03*
Y388850D02*
D03*
X460000Y431150D02*
D03*
Y388850D02*
D03*
M02*
