M48
;Layer_Color=9474304
;FILE_FORMAT=4:4
METRIC,LZ
;TYPE=PLATED
T01F00S00C0.5000
T02F00S00C1.0000
T03F00S00C1.0200
T04F00S00C3.2000
T05F00S00C6.0000
;TYPE=NON_PLATED
T06F00S00C3.2000
%
T01
X0077Y0008
X009485Y003275
X0069Y003625
X006275Y00355
X0057Y003625
X005075Y00355
X0045Y003625
X003875Y00355
X0042Y0003
X0046Y0002
X006
X0064Y0003
X0032Y0011
X0028Y0009
X0018Y0016
X0012Y0023
X002675Y00355
X0033Y003625
X003275Y00415
X003075Y004075
X00295
X002825
X0027Y00405
Y003925
X002575Y0039
Y004025
Y00415
X0027Y004175
X002675Y0038
Y003675
X00246Y00434
X00238Y0045
X00254
X00262Y00466
X00246
X00238Y00482
X00254
X00262Y00498
X00246
X00238Y00514
X00254
X0027
X00286
X00302
X00318
X00334
X00342Y0053
X00326
X0031
X00294
X00278
X00262
X00246
X0023
X00214
X00198
X00182
X00166
X00174Y00546
X0019
X00206
X00222
X00238
X00254
X0027
X00286
X00302
X00318
X00326Y00562
X0031
X00294
X00278
X00262
X00246
X0023
X00214
X00198
X00182
X00174Y00594
X0019
X00206
X00222
X00238
X00254
X0027
X00286
X00302
X00318
X0032Y006175
X00302Y00626
X00286
X0027
X00254
X00238
X00246Y00642
X00262
X00278
X00294
Y0061
X00278
X00262
X00246
X0023
X00214
X00198
X00182
X00166
X0015
X0011725Y00568
X00104Y00534
X0008Y00533
X00056Y00532
X00035Y00525
X0004525Y0057825
X0013775Y00535
X00158Y00418
X00174
X0019
X00206
X00222
X00082Y00435
X00238Y00657999
X00254
X0027
X00262Y00673999
X00246
X00238Y00689999
X002675Y007275
X002925Y007525
X00305
X003175
X0033Y00755
Y007425
X003425Y00745
Y007575
X00342Y00706
X00382Y00722
X003875Y007575
X00406Y00673999
X00422
X00438
X00454
X0047
X00486
X00502
X00518
X00534
X0055
X00566
X00558Y00626
X00542
X00526
X0051
X00494
X00478
X00462
X00446
X0043
X00414
X00398
X00406Y00642
X00422
X00438
X00454
X0047
X00486
X00502
X00518
X00534
Y0061
X0055
X00566
Y00562
X0055
X00534
X00518
X00502
X00486
X0047
X00454
X00438
X00422
X00406
X0039
X00398Y00546
X00414
X0043
X00446
X00462
X00478
X00494
X0051
X00526
X00542
X00558
X00566Y0053
X00582
X00597999
X006075Y005675
X0063Y00562
X00637999Y00546
X00653999
X00662Y0053
X00677999Y00562
X00693999
X00709999
X00726
X00717999Y00578
X00702
Y00546
X00717999
X007325Y005275
X00726Y00498
X00709999
X00693999
X00702Y00482
X00717999
X00733999
X00726Y00466
X00709999
X00685Y004175
X006675Y004075
X00655
X006425
X0063Y00405
Y003925
X006175Y0039
Y004025
Y00415
X0063Y004175
X006275Y0038
Y003675
X0063Y00466
X00613999
X005675Y00415
X005475Y004075
X00535
X005225
X0051Y00405
Y003925
X004975Y0039
Y004025
Y00415
X0051Y004175
X005075Y0038
Y003675
X00502Y00466
X00486
X0047
X00462Y00482
X00478
X00494
X00502Y00498
X00486
X0047
X00454
Y0053
X0047
X00486
X00502
X00518
X00534
X0055
X00438
X004175Y005275
X00358Y0053
X0035Y00514
X00374Y00466
X0039
X0039Y004175
Y00405
Y003925
X003775Y0039
Y004025
Y00415
X004025Y004075
X00415
X004275
X004475Y00415
X003875Y0038
Y003675
X0039Y0061
X00406
X00422
X00438
X00454
X0047
X00486
X00502
X00518
X0051Y00689999
X00494
X00478
X00462
X0047Y00706
X00486
X00502
X00494Y00722
X0051
X00478
X00462
X00454Y00706
X005075Y007575
X006275
X00622Y00722
X00646Y00673999
X00662
X00677999
X00693999
Y00706
X00733999
Y00673999
X00693999Y00642
X00677999
X00662
X00646
X0063
X00613999
X00595Y006425
X00637999Y00626
X00653999
X00669999
X00686
X00677999Y0061
X00662
X00646
X0063
X00653999Y00594
X00669999
X00726
X007375Y00415
Y004025
Y0039
X0039Y00642
X00374
X00355Y006425
X00766Y00642
Y00673999
X00749999
X00742Y00689999
X00749999Y00706
X007475Y0075
X0078625Y0067225
X008075Y006475
X00797999Y0061
X00789999Y00594
X00788Y00541
X00809
X00797999Y00514
X00782
X0076775Y005275
X00742Y00498
Y00466
X0075Y004175
Y00405
Y003925
Y0038
Y003675
X007625Y004075
X00775
X007875
X008075Y00415
X0098Y0041
X01
Y0044
X0098
X01005Y0047
Y0049
Y0051
Y0053
X01035
Y0051
Y0049
Y0047
X010025Y005875
X009775
X00998Y0063
X01011327Y00632157
X01035Y00625
X010175Y00695
X00947Y00631
X00945Y0054
X008225Y007725
X0081
X007975Y007725
X00785
X007725
X0075Y007925
Y00805
Y008175
X0081Y008125
X008125Y00825
X008225Y00815
X007Y0083
X0069Y008375
X006775Y007825
X00665
X006525
X0063Y008025
Y00815
Y008275
X0058Y0083
X0057Y00835
X005575Y007825
X00545
X005325
X0051Y008025
Y00815
Y008275
X004625Y00825
X0045Y008225
X004525Y00835
X0045Y007825
X004625
X004375Y007825
X00425
X004125
X0039Y008025
Y00815
Y008275
X003425Y00795
Y007825
Y0077
X0033Y007675
Y0078
Y007925
X003325Y00805
X0027Y007975
Y00785
Y007725
T02
X008573Y003187
X008827Y003187
X008827Y003441
X008573Y003441
X008573Y003695
X008827Y003695
X008827Y003949
X008827Y004203
X008573Y004203
Y003949
X008573Y004457
X008573Y004711
X008573Y004965
X008827Y004965
X008827Y004711
X008827Y004457
X008827Y005219
X008573Y005219
X008573Y005473
X008573Y005727
X008827Y005727
X008827Y005473
X008827Y005981
X008827Y006235
X008827Y006489
X008573Y006489
X008573Y006235
X008573Y005981
X008573Y006743
X008573Y006997
Y007251
X008573Y007505
X008827Y007505
X008827Y007251
X008827Y006997
Y006743
Y007759
X008827Y008013
X008573Y008013
X008573Y007759
T03
X007459Y001473
X007713
Y001727
X007459
X007205
Y001473
X006951
Y001727
X006697
Y001473
X006443
Y001727
X006189
Y001473
X005935
Y001727
X005681
Y001473
X005427
Y001727
X005173
Y001473
X004919
Y001727
X004665
Y001473
X004411
X004157
X003903
X003649
Y001727
X003903
X004157
X004411
X003395
Y001473
X003141
X002887
Y001727
X003141
T04
X0078Y00265
Y0032
X0066
X0066Y00265
X0054Y00265
Y0032
X0042
Y00265
X003
Y0032
Y00375
X0042
X0054
X0066Y00375
X0078
Y00805
Y0086
Y00915
X0066Y00925
Y0087
Y00815
X0054Y00815
Y0087
Y00925
X0042Y00925
Y0087
Y00815
X003Y0084
Y00895
Y00785
T05
X00185Y0036
Y0047
Y0066
Y0077
T06
X0087Y0025
X0096309Y0028007
X002Y0025
X0009706Y0028007
X0087Y0087
X0053Y0103
X002Y0087
M30
