M48
;Layer_Color=9474304
;FILE_FORMAT=4:4
METRIC,LZ
;TYPE=PLATED
T01F00S00C0.5000
T02F00S00C1.0000
T03F00S00C1.0200
T04F00S00C3.2000
T05F00S00C6.0000
;TYPE=NON_PLATED
T06F00S00C3.0000
T07F00S00C3.2000
%
T01
X009485Y003275
X0069Y003625
X006275Y00355
X0057Y003625
X005075Y00355
X0045Y003625
X003875Y00355
X00405Y00045
X005375Y00045
X006375Y00075
X0033Y003625
X002675Y00355
X002675Y003675
Y0038
X0027Y003925
Y00405
Y004175
X002575Y00415
Y004025
Y0039
X002825Y004075
X00295
X003075
X00325Y00415
X0033Y0047
Y0051
X0031
X0029
X0027
X0025
X0026Y0053
X0028
X003
X0032
X0034
X0031Y0055
X0029
X0027
X0025
X0023
X0021
X0019
X0017
X0018Y0053
X002
X0022
X0024
Y0049
X0026
X0027Y0047
X0025
X0026Y0045
X0024
X00234Y00575
X0023Y0059
X0025
X0027
X0029
X003Y00610001
X0028
X0026
X0024
X0022
X002
X0018
X0016
X0017Y0059
X0019
X0021
X0025Y00630001
X0027
X0029
X003Y00650001
X0028
X0026
X0024
X0025Y00670001
X0027
X0024Y00690001
X002675Y007275
X002925Y007525
X00305
X003175
X0033Y00755
Y007425
X003425Y00745
Y007575
X0032Y00575
X0016Y0053
X00115Y005725
X001025
Y00585
Y005975
X0009
Y00585
Y005675
Y00555
X000825Y00545
X0007Y0054
Y005275
Y00515
X000575
Y005025
X0007
Y0049
X000575
X0035Y0051
X0036Y0053
X00366Y00575
X004
X00435
X0043Y0055
X0045
X0047
X0049
X0051
X0053
X0055
X0056Y0053
X0058
X00600001
X00660001
X00650001Y0055
X00690001
X00710001
X00730001
X007325Y005275
X00740001Y0049
X00720001
X00700001
X00710001Y0047
X00730001
X007375Y00415
Y004025
Y0039
X00685Y00415
X006675Y004075
X00655
X006425
X0063Y00405
Y003925
X006175Y0039
Y004025
Y00415
X0063Y004175
X006275Y0038
Y003675
X00630001Y0047
X00610001
X0057
X0051
X0049
X0047
X0048Y0049
X005
Y0053
X0052
X0054
X0048
X0046
X0044
X0042
X0046Y0049
X0039Y0047
X0037
X003775Y00415
Y004025
Y0039
X0039Y003925
Y00405
Y004175
X004025Y004075
X00415
X004275
X00445Y00415
X004975Y00415
Y004025
Y0039
X0051Y003925
Y00405
Y004175
X005225Y004075
X00535
X005475
X00565Y00415
X005075Y0038
Y003675
X003875
Y0038
X004Y00610001
X0042
X0044
X0046
X0048
X005
X0052
X0054
X0056
X0055Y00630001
X0053
X0051
X0049
X0047
X0045
X0043
X0041
X0039Y00710001
X003875Y007575
X0045Y00710001
X0047
X0049
X0051
X005Y00690001
X0048
X0046
X005075Y007575
X0057Y00710001
X00630001
X006275Y007575
X00650001Y00630001
X00670001
X00680001Y00610001
X00665Y005775
X00650001Y0059
X0063Y00575
X00700001Y0057
X00720001
X00730001Y0059
X00710001
X00712Y00636
X00785Y006465
Y006735
X00800001Y00610001
X00790001Y0059
X00788Y00541
X00809
X00770001Y0055
X0076775Y005275
X00790001Y0051
X00750001Y0047
X0075Y004175
Y00405
Y003925
Y0038
Y003675
X007625Y004075
X00775
X007875
X00805Y004175
X00945Y0054
X009775Y005875
X010025
X00998Y0063
X01011327Y00632157
X01035Y00625
X010175Y00695
X00947Y00631
X0104Y0053
Y0047
X007475Y0075
X0075Y007925
Y00805
Y008175
X0081Y008125
X008125Y00825
X008225Y00815
X008225Y007725
X0081
X007975Y007725
X00785
X007725
X006775Y007825
X00665
X006525
X0063Y008025
Y00815
Y008275
X0058Y0083
X0057Y00835
X005575Y007825
X00545
X005325
X0051Y008025
Y00815
Y008275
X004625Y00825
X0045Y008225
X004525Y00835
X0045Y007825
X004625
X004375Y007825
X00425
X004125
X0039Y008025
Y00815
Y008275
X0069Y008375
X007Y0083
X003425Y00795
Y007825
Y0077
X0033Y007675
Y0078
Y007925
X003325Y00805
X0027Y007975
Y00785
Y007725
T02
X008573Y003187
X008827Y003187
X008827Y003441
X008573Y003441
X008573Y003695
X008827Y003695
X008827Y003949
X008827Y004203
X008573Y004203
Y003949
X008573Y004457
X008573Y004711
X008573Y004965
X008827Y004965
X008827Y004711
X008827Y004457
X008827Y005219
X008573Y005219
X008573Y005473
X008573Y005727
X008827Y005727
X008827Y005473
X008827Y005981
X008827Y006235
X008827Y006489
X008573Y006489
X008573Y006235
X008573Y005981
X008573Y006743
X008573Y006997
Y007251
X008573Y007505
X008827Y007505
X008827Y007251
X008827Y006997
Y006743
Y007759
X008827Y008013
X008573Y008013
X008573Y007759
T03
X007459Y001473
Y001727
X007713Y001727
X007713Y001473
X007205Y001473
X006951Y001473
X006697Y001473
X006697Y001727
X006951Y001727
X007205Y001727
X006443Y001727
X006443Y001473
X006189Y001473
X005935Y001473
X005935Y001727
X006189Y001727
X005681Y001727
X005681Y001473
X005427Y001473
X005173Y001473
X004919Y001473
X004919Y001727
X005173Y001727
X005427Y001727
X004665Y001727
X004411Y001727
X004157Y001727
X004157Y001473
X004411Y001473
X004665Y001473
X003903Y001473
X003903Y001727
X003649Y001727
X003649Y001473
X003395Y001473
X003395Y001727
X003141Y001727
Y001473
X002887Y001473
X002887Y001727
T04
X0078Y00265
Y0032
X0066
X0066Y00265
X0054Y00265
Y0032
X0042
Y00265
X003
Y0032
Y00375
X0042
X0054
X0066Y00375
X0078
Y00805
Y0086
Y00915
X0066Y00925
Y0087
Y00815
X0054Y00815
Y0087
Y00925
X0042Y00925
Y0087
Y00815
X003Y0084
Y00895
Y00785
T05
X00185Y0036
Y0047
Y0066
Y0077
T06
X0096309Y0028007
X0009706
X0053Y0103
T07
X0087Y0025
X002
X0087Y0087
X002
M30
