G04*
G04 #@! TF.GenerationSoftware,Altium Limited,Altium Designer,24.6.1 (21)*
G04*
G04 Layer_Physical_Order=2*
G04 Layer_Color=36540*
%FSLAX44Y44*%
%MOMM*%
G71*
G04*
G04 #@! TF.SameCoordinates,1465A302-DD42-448E-B2BA-17B2A311091A*
G04*
G04*
G04 #@! TF.FilePolarity,Positive*
G04*
G01*
G75*
%ADD47C,0.3500*%
%ADD48C,1.8000*%
%ADD50C,1.5300*%
%ADD51R,4.8000X4.8000*%
%ADD52C,4.8000*%
%ADD53R,8.0000X8.0000*%
%ADD54C,8.0000*%
%ADD55C,1.0000*%
G36*
X538550Y1055913D02*
X554514Y1055411D01*
X562484Y1054918D01*
X562547Y1054926D01*
X562609Y1054912D01*
X564283Y1054860D01*
X567594Y1053940D01*
X570743Y1052351D01*
X573521Y1050178D01*
X575822Y1047505D01*
X577557Y1044435D01*
X578660Y1041085D01*
X579088Y1037584D01*
X578957Y1035826D01*
X578981Y1035624D01*
X578946Y1035425D01*
X579035Y1031726D01*
X578835Y1029616D01*
X578866Y1029316D01*
X578823Y1029017D01*
X579072Y1024308D01*
X579172Y1023919D01*
X579193Y1023518D01*
X580356Y1018949D01*
X580530Y1018586D01*
X580629Y1018197D01*
X582662Y1013942D01*
X582902Y1013621D01*
X583075Y1013258D01*
X585899Y1009482D01*
X586198Y1009214D01*
X586438Y1008892D01*
X589944Y1005739D01*
X590289Y1005534D01*
X590588Y1005266D01*
X594642Y1002858D01*
X595020Y1002724D01*
X595366Y1002518D01*
X599811Y1000947D01*
X600111Y1000904D01*
X600390Y1000790D01*
X602707Y1000338D01*
X602787Y1000339D01*
X602863Y1000311D01*
X605311Y999932D01*
X610202Y999122D01*
X615084Y998261D01*
X619956Y997350D01*
X622387Y996868D01*
X622467Y996869D01*
X622543Y996841D01*
X624874Y996472D01*
X625176Y996484D01*
X625472Y996423D01*
X630188Y996378D01*
X630583Y996453D01*
X630984Y996449D01*
X635618Y997325D01*
X635991Y997475D01*
X636385Y997550D01*
X640759Y999313D01*
X641095Y999533D01*
X641468Y999684D01*
X645414Y1002266D01*
X645700Y1002548D01*
X646036Y1002768D01*
X649402Y1006071D01*
X649629Y1006403D01*
X649915Y1006684D01*
X652572Y1010580D01*
X652730Y1010950D01*
X652956Y1011282D01*
X654802Y1015621D01*
X654864Y1015917D01*
X654995Y1016189D01*
X655530Y1018240D01*
X656880Y1021689D01*
X656905Y1021833D01*
X656975Y1021962D01*
X657515Y1023694D01*
X659250Y1026880D01*
X661573Y1029667D01*
X664395Y1031948D01*
X667608Y1033633D01*
X671088Y1034660D01*
X674701Y1034988D01*
X678309Y1034605D01*
X680041Y1034065D01*
X680068Y1034062D01*
X680091Y1034050D01*
X690850Y1030846D01*
X712076Y1023526D01*
X732970Y1015307D01*
X753495Y1006204D01*
X773612Y996232D01*
X793285Y985413D01*
X812479Y973763D01*
X831158Y961304D01*
X849289Y948060D01*
X866838Y934054D01*
X883773Y919313D01*
X900064Y903862D01*
X915680Y887729D01*
X930594Y870946D01*
X944778Y853541D01*
X958207Y835546D01*
X970855Y816995D01*
X982700Y797922D01*
X993721Y778359D01*
X1003897Y758345D01*
X1013209Y737915D01*
X1021641Y717106D01*
X1026777Y702692D01*
X1023744Y700776D01*
X1022719Y701802D01*
X1020781Y702921D01*
X1018619Y703500D01*
X1016381D01*
X1014219Y702921D01*
X1012281Y701802D01*
X1010698Y700219D01*
X1009579Y698281D01*
X1009000Y696119D01*
Y693881D01*
X1009579Y691719D01*
X1010698Y689781D01*
X1012281Y688198D01*
X1014219Y687079D01*
X1016381Y686500D01*
X1018619D01*
X1020781Y687079D01*
X1022719Y688198D01*
X1024302Y689781D01*
X1025421Y691719D01*
X1026000Y693881D01*
Y694384D01*
X1029500Y694913D01*
X1035805Y674503D01*
X1041510Y652788D01*
X1046284Y630848D01*
X1050117Y608725D01*
X1053003Y586459D01*
X1054936Y564089D01*
X1055912Y541658D01*
X1055931Y519205D01*
X1054991Y496772D01*
X1053095Y474400D01*
X1050246Y452129D01*
X1046449Y429999D01*
X1041711Y408052D01*
X1036041Y386327D01*
X1029450Y364864D01*
X1021948Y343702D01*
X1013550Y322879D01*
X1004271Y302433D01*
X994128Y282402D01*
X983140Y262822D01*
X971326Y243729D01*
X958708Y225157D01*
X945309Y207141D01*
X931153Y189713D01*
X916267Y172904D01*
X900677Y156747D01*
X884412Y141269D01*
X867501Y126499D01*
X849975Y112465D01*
X831866Y99191D01*
X813208Y86702D01*
X794033Y75020D01*
X774377Y64168D01*
X764327Y59166D01*
X764276Y59127D01*
X764215Y59108D01*
X762740Y58317D01*
X759412Y57458D01*
X755891Y57259D01*
X752399Y57752D01*
X749070Y58916D01*
X746032Y60708D01*
X743402Y63057D01*
X741280Y65875D01*
X740515Y67464D01*
X740393Y67626D01*
X740323Y67816D01*
X738398Y70975D01*
X737516Y72902D01*
X737339Y73147D01*
X737227Y73428D01*
X734656Y77380D01*
X734376Y77668D01*
X734156Y78005D01*
X730864Y81380D01*
X730533Y81607D01*
X730253Y81895D01*
X726365Y84563D01*
X725996Y84721D01*
X725665Y84948D01*
X721331Y86807D01*
X720938Y86890D01*
X720569Y87048D01*
X715957Y88026D01*
X715555Y88031D01*
X715162Y88114D01*
X710447Y88173D01*
X710052Y88099D01*
X709651Y88104D01*
X705015Y87242D01*
X704734Y87129D01*
X704435Y87089D01*
X702203Y86321D01*
X702134Y86281D01*
X702055Y86267D01*
X699744Y85372D01*
X695104Y83628D01*
X690444Y81931D01*
X685771Y80286D01*
X683425Y79486D01*
X683355Y79446D01*
X683276Y79433D01*
X681072Y78586D01*
X680817Y78425D01*
X680530Y78330D01*
X676424Y76011D01*
X676119Y75749D01*
X675769Y75551D01*
X672195Y72476D01*
X671947Y72159D01*
X671643Y71897D01*
X668736Y68183D01*
X668555Y67825D01*
X668308Y67508D01*
X666182Y63299D01*
X666075Y62912D01*
X665893Y62553D01*
X664630Y58010D01*
X664600Y57609D01*
X664492Y57222D01*
X664139Y52519D01*
X664188Y52120D01*
X664158Y51720D01*
X664729Y47039D01*
X664824Y46752D01*
X664846Y46450D01*
X665408Y44407D01*
X665964Y40745D01*
X666013Y40607D01*
X666017Y40461D01*
X666415Y38691D01*
X666507Y35064D01*
X665888Y31489D01*
X664584Y28103D01*
X662645Y25037D01*
X660144Y22408D01*
X657179Y20317D01*
X653863Y18844D01*
X652093Y18446D01*
X652069Y18435D01*
X652042Y18434D01*
X644275Y16581D01*
X628635Y13349D01*
X612903Y10592D01*
X597095Y8314D01*
X589160Y7416D01*
X589100Y7397D01*
X589036Y7400D01*
X587379Y7161D01*
X583958Y7492D01*
X580581Y8510D01*
X577468Y10167D01*
X574738Y12400D01*
X572496Y15122D01*
X570828Y18230D01*
X569799Y21603D01*
X569623Y23358D01*
X569563Y23551D01*
X569563Y23754D01*
X568834Y27381D01*
X568664Y29494D01*
X568582Y29785D01*
X568572Y30087D01*
X567509Y34680D01*
X567343Y35046D01*
X567253Y35438D01*
X565313Y39735D01*
X565080Y40062D01*
X564915Y40428D01*
X562174Y44265D01*
X561881Y44540D01*
X561648Y44867D01*
X558212Y48095D01*
X557871Y48308D01*
X557578Y48583D01*
X553578Y51079D01*
X553202Y51221D01*
X552861Y51434D01*
X548451Y53101D01*
X548055Y53167D01*
X547679Y53309D01*
X543028Y54085D01*
X542726Y54075D01*
X542431Y54139D01*
X540071Y54182D01*
X539992Y54167D01*
X539913Y54181D01*
X537435Y54130D01*
X532479Y54078D01*
X527521D01*
X522565Y54130D01*
X520087Y54181D01*
X520008Y54167D01*
X519929Y54182D01*
X517569Y54140D01*
X517274Y54075D01*
X516972Y54085D01*
X512320Y53310D01*
X511944Y53168D01*
X511548Y53102D01*
X507136Y51434D01*
X506796Y51222D01*
X506420Y51080D01*
X502419Y48583D01*
X502126Y48308D01*
X501785Y48096D01*
X498348Y44867D01*
X498115Y44540D01*
X497822Y44265D01*
X495080Y40428D01*
X494915Y40062D01*
X494682Y39735D01*
X492742Y35436D01*
X492651Y35045D01*
X492486Y34679D01*
X491422Y30085D01*
X491412Y29783D01*
X491329Y29492D01*
X491159Y27379D01*
X490429Y23749D01*
X490429Y23602D01*
X490382Y23463D01*
X490151Y21664D01*
X488996Y18224D01*
X487192Y15076D01*
X484809Y12341D01*
X481938Y10122D01*
X478689Y8507D01*
X475187Y7556D01*
X471568Y7307D01*
X469768Y7538D01*
X469742Y7537D01*
X469717Y7545D01*
X461783Y8460D01*
X445981Y10771D01*
X430255Y13562D01*
X414622Y16828D01*
X406858Y18698D01*
X406795Y18700D01*
X406736Y18725D01*
X405097Y19067D01*
X401996Y20548D01*
X399171Y22660D01*
X396812Y25282D01*
X395010Y28314D01*
X393835Y31639D01*
X393330Y35129D01*
X393516Y38651D01*
X393951Y40360D01*
X393962Y40563D01*
X394031Y40753D01*
X394587Y44411D01*
X395149Y46454D01*
X395171Y46755D01*
X395266Y47043D01*
X395837Y51723D01*
X395807Y52123D01*
X395856Y52522D01*
X395504Y57224D01*
X395396Y57611D01*
X395366Y58011D01*
X394103Y62554D01*
X393922Y62913D01*
X393814Y63300D01*
X391689Y67509D01*
X391442Y67825D01*
X391261Y68184D01*
X388355Y71897D01*
X388051Y72159D01*
X387803Y72476D01*
X384229Y75551D01*
X383880Y75749D01*
X383575Y76011D01*
X379470Y78330D01*
X379183Y78424D01*
X378927Y78586D01*
X376724Y79433D01*
X376645Y79446D01*
X376576Y79486D01*
X374229Y80285D01*
X369556Y81932D01*
X364896Y83628D01*
X360255Y85372D01*
X357945Y86267D01*
X357867Y86281D01*
X357797Y86321D01*
X355565Y87089D01*
X355265Y87130D01*
X354985Y87242D01*
X350348Y88105D01*
X349947Y88100D01*
X349552Y88173D01*
X344836Y88115D01*
X344443Y88032D01*
X344042Y88027D01*
X339428Y87050D01*
X339059Y86891D01*
X338666Y86808D01*
X334332Y84950D01*
X334000Y84722D01*
X333631Y84564D01*
X329743Y81896D01*
X329462Y81608D01*
X329131Y81381D01*
X325838Y78005D01*
X325619Y77669D01*
X325338Y77381D01*
X322767Y73428D01*
X322655Y73147D01*
X322478Y72902D01*
X321595Y70975D01*
X319667Y67813D01*
X319617Y67676D01*
X319526Y67561D01*
X318693Y65949D01*
X316431Y63112D01*
X313659Y60771D01*
X310484Y59015D01*
X307028Y57913D01*
X303422Y57506D01*
X299807Y57811D01*
X296320Y58815D01*
X294708Y59647D01*
X294683Y59654D01*
X294662Y59671D01*
X284622Y64694D01*
X264990Y75589D01*
X245840Y87311D01*
X227209Y99841D01*
X209128Y113153D01*
X191633Y127225D01*
X174753Y142031D01*
X158522Y157544D01*
X142966Y173735D01*
X128116Y190575D01*
X113998Y208034D01*
X100638Y226079D01*
X88060Y244678D01*
X76287Y263797D01*
X65341Y283400D01*
X55241Y303453D01*
X46006Y323918D01*
X37653Y344759D01*
X30197Y365938D01*
X23651Y387415D01*
X18028Y409152D01*
X13337Y431109D01*
X9588Y453247D01*
X6787Y475524D01*
X4939Y497901D01*
X4047Y520336D01*
X4114Y542788D01*
X5139Y565218D01*
X7120Y587582D01*
X10053Y609843D01*
X13934Y631957D01*
X18755Y653886D01*
X24507Y675590D01*
X31180Y697028D01*
X38762Y718161D01*
X47239Y738953D01*
X56595Y759363D01*
X66814Y779356D01*
X77876Y798894D01*
X89763Y817942D01*
X102451Y836466D01*
X115918Y854431D01*
X130139Y871806D01*
X145089Y888557D01*
X160741Y904656D01*
X177064Y920072D01*
X194031Y934777D01*
X211610Y948745D01*
X229769Y961950D01*
X248475Y974368D01*
X267694Y985977D01*
X287390Y996755D01*
X307529Y1006683D01*
X328073Y1015742D01*
X348985Y1023916D01*
X370226Y1031191D01*
X380993Y1034371D01*
X381049Y1034401D01*
X381112Y1034409D01*
X382703Y1034932D01*
X386129Y1035200D01*
X389631Y1034784D01*
X392985Y1033692D01*
X396061Y1031968D01*
X398742Y1029676D01*
X400924Y1026905D01*
X402524Y1023762D01*
X403002Y1022065D01*
X403094Y1021884D01*
X403129Y1021684D01*
X404477Y1018240D01*
X405011Y1016189D01*
X405143Y1015917D01*
X405205Y1015620D01*
X407050Y1011282D01*
X407276Y1010950D01*
X407433Y1010580D01*
X410089Y1006684D01*
X410376Y1006403D01*
X410602Y1006071D01*
X413968Y1002768D01*
X414304Y1002549D01*
X414590Y1002267D01*
X418535Y999685D01*
X418908Y999534D01*
X419244Y999314D01*
X423616Y997551D01*
X424011Y997476D01*
X424384Y997326D01*
X429017Y996449D01*
X429418Y996453D01*
X429813Y996379D01*
X434528Y996423D01*
X434824Y996485D01*
X435126Y996472D01*
X437457Y996841D01*
X437533Y996869D01*
X437613Y996868D01*
X440044Y997349D01*
X444919Y998261D01*
X449800Y999122D01*
X454687Y999931D01*
X457137Y1000311D01*
X457213Y1000339D01*
X457293Y1000338D01*
X459610Y1000790D01*
X459890Y1000904D01*
X460189Y1000947D01*
X464635Y1002518D01*
X464981Y1002723D01*
X465359Y1002857D01*
X469414Y1005266D01*
X469713Y1005534D01*
X470058Y1005739D01*
X473565Y1008892D01*
X473806Y1009214D01*
X474104Y1009482D01*
X476929Y1013259D01*
X477102Y1013622D01*
X477342Y1013943D01*
X479376Y1018198D01*
X479475Y1018587D01*
X479648Y1018950D01*
X480812Y1023520D01*
X480834Y1023921D01*
X480933Y1024310D01*
X481183Y1029019D01*
X481140Y1029319D01*
X481171Y1029619D01*
X480971Y1031729D01*
X481060Y1035432D01*
X481035Y1035576D01*
X481057Y1035721D01*
X480972Y1037533D01*
X481512Y1041121D01*
X482742Y1044534D01*
X484614Y1047642D01*
X487056Y1050325D01*
X489975Y1052480D01*
X493259Y1054024D01*
X496780Y1054898D01*
X498592Y1054983D01*
X498618Y1054990D01*
X498644Y1054986D01*
X506615Y1055462D01*
X522579Y1055930D01*
X538550Y1055913D01*
D02*
G37*
%LPC*%
G36*
X531832Y1048600D02*
X528168D01*
X524575Y1047885D01*
X521190Y1046483D01*
X518143Y1044447D01*
X515552Y1041857D01*
X513517Y1038810D01*
X512115Y1035425D01*
X511400Y1031832D01*
Y1028168D01*
X512115Y1024575D01*
X513517Y1021190D01*
X515552Y1018143D01*
X518143Y1015553D01*
X521190Y1013517D01*
X524575Y1012115D01*
X528168Y1011400D01*
X531832D01*
X535425Y1012115D01*
X538810Y1013517D01*
X541857Y1015553D01*
X544448Y1018143D01*
X546483Y1021190D01*
X547885Y1024575D01*
X548600Y1028168D01*
Y1031832D01*
X547885Y1035425D01*
X546483Y1038810D01*
X544448Y1041857D01*
X541857Y1044447D01*
X538810Y1046483D01*
X535425Y1047885D01*
X531832Y1048600D01*
D02*
G37*
G36*
X871832Y888600D02*
X868168D01*
X864575Y887885D01*
X861190Y886483D01*
X858143Y884447D01*
X855553Y881857D01*
X853517Y878810D01*
X852115Y875425D01*
X851400Y871832D01*
Y868168D01*
X852115Y864575D01*
X853517Y861190D01*
X855553Y858143D01*
X858143Y855552D01*
X861190Y853517D01*
X864575Y852115D01*
X868168Y851400D01*
X871832D01*
X875425Y852115D01*
X878810Y853517D01*
X881857Y855552D01*
X884448Y858143D01*
X886483Y861190D01*
X887885Y864575D01*
X888600Y868168D01*
Y871832D01*
X887885Y875425D01*
X886483Y878810D01*
X884448Y881857D01*
X881857Y884447D01*
X878810Y886483D01*
X875425Y887885D01*
X871832Y888600D01*
D02*
G37*
G36*
X201832D02*
X198168D01*
X194575Y887885D01*
X191190Y886483D01*
X188143Y884447D01*
X185553Y881857D01*
X183517Y878810D01*
X182115Y875425D01*
X181400Y871832D01*
Y868168D01*
X182115Y864575D01*
X183517Y861190D01*
X185553Y858143D01*
X188143Y855552D01*
X191190Y853517D01*
X194575Y852115D01*
X198168Y851400D01*
X201832D01*
X205425Y852115D01*
X208810Y853517D01*
X211857Y855552D01*
X214448Y858143D01*
X216483Y861190D01*
X217885Y864575D01*
X218600Y868168D01*
Y871832D01*
X217885Y875425D01*
X216483Y878810D01*
X214448Y881857D01*
X211857Y884447D01*
X208810Y886483D01*
X205425Y887885D01*
X201832Y888600D01*
D02*
G37*
G36*
X422164Y897500D02*
X417836D01*
X413560Y896823D01*
X409444Y895485D01*
X405587Y893520D01*
X402085Y890976D01*
X399024Y887915D01*
X396480Y884413D01*
X394515Y880556D01*
X393177Y876440D01*
X392500Y872164D01*
Y867836D01*
X393177Y863560D01*
X393069Y862563D01*
X391332Y861402D01*
X356215Y826285D01*
X355055Y824548D01*
X354647Y822500D01*
Y805349D01*
X351147Y803900D01*
X340023Y815023D01*
X338866Y815797D01*
X337500Y816069D01*
X319802D01*
X318928Y817437D01*
X318459Y819569D01*
X320976Y822085D01*
X323520Y825587D01*
X325485Y829444D01*
X326823Y833560D01*
X327500Y837836D01*
Y842164D01*
X326823Y846440D01*
X325485Y850556D01*
X323520Y854413D01*
X320976Y857915D01*
X317915Y860976D01*
X314413Y863520D01*
X310556Y865485D01*
X306440Y866823D01*
X302164Y867500D01*
X297836D01*
X293560Y866823D01*
X289444Y865485D01*
X285587Y863520D01*
X282085Y860976D01*
X279024Y857915D01*
X276480Y854413D01*
X274515Y850556D01*
X273177Y846440D01*
X272500Y842164D01*
Y837836D01*
X273177Y833560D01*
X274515Y829444D01*
X276325Y825891D01*
X253715Y803281D01*
X252555Y801544D01*
X252147Y799496D01*
Y772217D01*
X207783Y727853D01*
X130000D01*
X127952Y727445D01*
X126215Y726285D01*
X88715Y688785D01*
X87555Y687048D01*
X87147Y685000D01*
Y445564D01*
X83647Y443358D01*
X83119Y443500D01*
X80881D01*
X78719Y442921D01*
X76781Y441802D01*
X75198Y440219D01*
X74079Y438281D01*
X73500Y436119D01*
Y433881D01*
X74079Y431719D01*
X75198Y429781D01*
X76647Y428332D01*
Y345000D01*
X76927Y343593D01*
X75126Y342041D01*
X74041Y341530D01*
X50603Y364967D01*
Y571582D01*
X52052Y573031D01*
X53171Y574969D01*
X53750Y577131D01*
Y579369D01*
X53171Y581531D01*
X52052Y583469D01*
X50469Y585052D01*
X48531Y586171D01*
X46369Y586750D01*
X44131D01*
X41969Y586171D01*
X40031Y585052D01*
X38448Y583469D01*
X37329Y581531D01*
X36750Y579369D01*
Y577131D01*
X37329Y574969D01*
X38448Y573031D01*
X39897Y571582D01*
Y535756D01*
X36397Y533425D01*
X36119Y533500D01*
X33881D01*
X31719Y532921D01*
X29781Y531802D01*
X28198Y530219D01*
X27079Y528281D01*
X26500Y526119D01*
Y523881D01*
X27079Y521719D01*
X28198Y519781D01*
X29781Y518198D01*
X31719Y517079D01*
X33881Y516500D01*
X36119D01*
X36397Y516575D01*
X39897Y514244D01*
Y362750D01*
X40305Y360702D01*
X41465Y358965D01*
X98260Y302170D01*
X96810Y298670D01*
X95228D01*
X91635Y297955D01*
X88250Y296553D01*
X85203Y294517D01*
X82612Y291927D01*
X80577Y288880D01*
X79175Y285495D01*
X78460Y281902D01*
Y278238D01*
X79175Y274645D01*
X80577Y271260D01*
X82612Y268213D01*
X85203Y265623D01*
X88250Y263587D01*
X91635Y262185D01*
X95228Y261470D01*
X98892D01*
X102485Y262185D01*
X105870Y263587D01*
X108917Y265623D01*
X111508Y268213D01*
X112147Y269170D01*
X115647Y268109D01*
Y268000D01*
X116055Y265952D01*
X117215Y264215D01*
X260215Y121215D01*
X261952Y120055D01*
X264000Y119647D01*
X367729D01*
X369778Y120055D01*
X371514Y121215D01*
X386953Y136653D01*
X388832Y136150D01*
X391768D01*
X394604Y136910D01*
X397146Y138378D01*
X399222Y140454D01*
X400690Y142996D01*
X401188Y144855D01*
X404812D01*
X405310Y142996D01*
X406778Y140454D01*
X408854Y138378D01*
X411396Y136910D01*
X413950Y136226D01*
Y147300D01*
X417450D01*
Y136226D01*
X420004Y136910D01*
X422546Y138378D01*
X424622Y140454D01*
X426090Y142996D01*
X426588Y144855D01*
X430212D01*
X430710Y142996D01*
X432178Y140454D01*
X434254Y138378D01*
X436796Y136910D01*
X439350Y136226D01*
Y147300D01*
X442850D01*
Y136226D01*
X445404Y136910D01*
X447946Y138378D01*
X450022Y140454D01*
X451490Y142996D01*
X451988Y144855D01*
X455612D01*
X456110Y142996D01*
X457578Y140454D01*
X459654Y138378D01*
X462196Y136910D01*
X464750Y136226D01*
Y147300D01*
X468250D01*
Y136226D01*
X470804Y136910D01*
X473346Y138378D01*
X475422Y140454D01*
X476890Y142996D01*
X477388Y144855D01*
X481012D01*
X481510Y142996D01*
X482978Y140454D01*
X485054Y138378D01*
X487596Y136910D01*
X490150Y136226D01*
Y147300D01*
X493650D01*
Y136226D01*
X496204Y136910D01*
X498746Y138378D01*
X500822Y140454D01*
X502290Y142996D01*
X502788Y144855D01*
X506412D01*
X506910Y142996D01*
X508378Y140454D01*
X510454Y138378D01*
X512996Y136910D01*
X515550Y136226D01*
Y147300D01*
X519050D01*
Y136226D01*
X521604Y136910D01*
X524146Y138378D01*
X526222Y140454D01*
X527690Y142996D01*
X528188Y144855D01*
X531812D01*
X532310Y142996D01*
X533778Y140454D01*
X535854Y138378D01*
X538396Y136910D01*
X540950Y136226D01*
Y147300D01*
X544450D01*
Y136226D01*
X547004Y136910D01*
X549546Y138378D01*
X551622Y140454D01*
X553090Y142996D01*
X553588Y144855D01*
X557212D01*
X557710Y142996D01*
X559178Y140454D01*
X561254Y138378D01*
X563796Y136910D01*
X566350Y136226D01*
Y147300D01*
X569850D01*
Y136226D01*
X572404Y136910D01*
X574946Y138378D01*
X577022Y140454D01*
X578490Y142996D01*
X578988Y144855D01*
X582612D01*
X583110Y142996D01*
X584578Y140454D01*
X586654Y138378D01*
X589196Y136910D01*
X591750Y136226D01*
Y147300D01*
X595250D01*
Y136226D01*
X597804Y136910D01*
X600346Y138378D01*
X602422Y140454D01*
X603890Y142996D01*
X604388Y144855D01*
X608012D01*
X608510Y142996D01*
X609978Y140454D01*
X612054Y138378D01*
X614596Y136910D01*
X617150Y136226D01*
Y147300D01*
X620650D01*
Y136226D01*
X623204Y136910D01*
X625746Y138378D01*
X627822Y140454D01*
X629290Y142996D01*
X629788Y144855D01*
X633412D01*
X633910Y142996D01*
X635378Y140454D01*
X637454Y138378D01*
X639996Y136910D01*
X642832Y136150D01*
X645768D01*
X648604Y136910D01*
X651146Y138378D01*
X653222Y140454D01*
X654690Y142996D01*
X655188Y144855D01*
X658812D01*
X659310Y142996D01*
X660778Y140454D01*
X662854Y138378D01*
X665396Y136910D01*
X668232Y136150D01*
X671168D01*
X674004Y136910D01*
X676546Y138378D01*
X678622Y140454D01*
X680090Y142996D01*
X680588Y144855D01*
X684212D01*
X684710Y142996D01*
X686178Y140454D01*
X688254Y138378D01*
X690796Y136910D01*
X693350Y136226D01*
Y147300D01*
X696850D01*
Y136226D01*
X699404Y136910D01*
X701946Y138378D01*
X704022Y140454D01*
X705490Y142996D01*
X705988Y144855D01*
X709612D01*
X710110Y142996D01*
X711578Y140454D01*
X713654Y138378D01*
X716196Y136910D01*
X719032Y136150D01*
X721968D01*
X724804Y136910D01*
X727346Y138378D01*
X729422Y140454D01*
X730890Y142996D01*
X731388Y144855D01*
X735012D01*
X735510Y142996D01*
X736978Y140454D01*
X739054Y138378D01*
X741596Y136910D01*
X744432Y136150D01*
X747368D01*
X750204Y136910D01*
X752746Y138378D01*
X754822Y140454D01*
X756290Y142996D01*
X756788Y144855D01*
X760412D01*
X760910Y142996D01*
X762378Y140454D01*
X764454Y138378D01*
X766996Y136910D01*
X769832Y136150D01*
X772768D01*
X775604Y136910D01*
X778146Y138378D01*
X780222Y140454D01*
X781690Y142996D01*
X782450Y145832D01*
Y148768D01*
X781690Y151604D01*
X780222Y154146D01*
X778146Y156222D01*
X775604Y157690D01*
X773745Y158188D01*
Y161812D01*
X775604Y162310D01*
X778146Y163778D01*
X780222Y165854D01*
X781690Y168396D01*
X782450Y171232D01*
Y174168D01*
X781690Y177004D01*
X780453Y179147D01*
X780918Y180713D01*
X782071Y182647D01*
X864000D01*
X866048Y183055D01*
X867785Y184215D01*
X908785Y225215D01*
X909945Y226952D01*
X910353Y229000D01*
Y294647D01*
X927500D01*
X929548Y295055D01*
X931285Y296215D01*
X952035Y316965D01*
X953195Y318702D01*
X953576Y320616D01*
X953719Y320698D01*
X955302Y322281D01*
X956421Y324219D01*
X957000Y326381D01*
Y328619D01*
X956421Y330781D01*
X955302Y332719D01*
X953719Y334302D01*
X951781Y335421D01*
X949619Y336000D01*
X947381D01*
X945219Y335421D01*
X943281Y334302D01*
X941698Y332719D01*
X940579Y330781D01*
X940000Y328619D01*
Y326381D01*
X940579Y324219D01*
X941698Y322281D01*
X941955Y322025D01*
X925283Y305353D01*
X891582D01*
X890575Y308143D01*
X890531Y308853D01*
X892703Y311025D01*
X894348Y313875D01*
X895200Y317054D01*
Y320345D01*
X894348Y323525D01*
X892703Y326375D01*
X890375Y328702D01*
X889158Y329405D01*
X889157Y333395D01*
X890375Y334098D01*
X892702Y336425D01*
X894348Y339275D01*
X895200Y342454D01*
Y345746D01*
X894348Y348925D01*
X892702Y351775D01*
X890375Y354103D01*
X889158Y354805D01*
X889158Y358795D01*
X890375Y359498D01*
X892703Y361825D01*
X894348Y364675D01*
X895200Y367854D01*
Y371146D01*
X894348Y374325D01*
X892703Y377175D01*
X890375Y379502D01*
X889158Y380205D01*
Y384195D01*
X890375Y384897D01*
X892703Y387225D01*
X894348Y390075D01*
X895200Y393254D01*
Y396545D01*
X894348Y399725D01*
X892703Y402575D01*
X890375Y404902D01*
X889158Y405605D01*
X889158Y409594D01*
X890375Y410297D01*
X892702Y412625D01*
X894348Y415475D01*
X895200Y418654D01*
Y421945D01*
X894348Y425125D01*
X892702Y427975D01*
X890375Y430302D01*
X889157Y431006D01*
X889157Y434995D01*
X890375Y435698D01*
X892702Y438025D01*
X894348Y440875D01*
X895200Y444054D01*
Y447346D01*
X894348Y450525D01*
X892702Y453375D01*
X890375Y455703D01*
X889158Y456405D01*
X889158Y460395D01*
X890375Y461097D01*
X892703Y463425D01*
X894348Y466275D01*
X895200Y469454D01*
Y472746D01*
X894348Y475925D01*
X892703Y478775D01*
X890375Y481102D01*
X889158Y481805D01*
X889158Y485795D01*
X890375Y486497D01*
X892703Y488825D01*
X894348Y491675D01*
X895200Y494854D01*
Y498145D01*
X894348Y501325D01*
X892703Y504175D01*
X890375Y506502D01*
X889158Y507205D01*
X889157Y511194D01*
X890375Y511898D01*
X892702Y514225D01*
X894348Y517075D01*
X895172Y520150D01*
X882700D01*
Y523650D01*
X895172D01*
X894348Y526725D01*
X892702Y529575D01*
X890375Y531903D01*
X889158Y532605D01*
X889158Y536595D01*
X890375Y537298D01*
X892702Y539625D01*
X894348Y542475D01*
X895172Y545550D01*
X882700D01*
Y549050D01*
X895172D01*
X894348Y552125D01*
X892702Y554975D01*
X890375Y557303D01*
X889158Y558005D01*
X889158Y561995D01*
X890375Y562698D01*
X892702Y565025D01*
X894348Y567875D01*
X895200Y571054D01*
Y574346D01*
X894348Y577525D01*
X892702Y580375D01*
X890375Y582702D01*
X889157Y583405D01*
X889158Y587395D01*
X890375Y588098D01*
X892702Y590425D01*
X894348Y593275D01*
X895172Y596350D01*
X882700D01*
Y599850D01*
X895172D01*
X894348Y602925D01*
X892702Y605775D01*
X890375Y608103D01*
X889158Y608806D01*
X889158Y612795D01*
X890375Y613498D01*
X892703Y615825D01*
X894348Y618675D01*
X895172Y621750D01*
X882700D01*
Y625250D01*
X895172D01*
X894348Y628325D01*
X892703Y631175D01*
X890375Y633503D01*
X889158Y634205D01*
X889158Y638195D01*
X890375Y638898D01*
X892702Y641225D01*
X894348Y644075D01*
X895200Y647254D01*
Y650546D01*
X894348Y653725D01*
X892702Y656575D01*
X890375Y658903D01*
X889157Y659606D01*
X889157Y663595D01*
X890375Y664298D01*
X892702Y666625D01*
X894348Y669475D01*
X895172Y672550D01*
X882700D01*
Y676050D01*
X895172D01*
X894348Y679125D01*
X892702Y681975D01*
X890375Y684303D01*
X889158Y685006D01*
Y688995D01*
X890375Y689698D01*
X892702Y692025D01*
X894348Y694876D01*
X895172Y697950D01*
X882700D01*
Y701450D01*
X895172D01*
X894348Y704525D01*
X892702Y707376D01*
X890375Y709703D01*
X889158Y710405D01*
X889158Y714395D01*
X890375Y715098D01*
X892702Y717425D01*
X894348Y720275D01*
X895172Y723350D01*
X882700D01*
Y726850D01*
X895172D01*
X894348Y729925D01*
X892702Y732775D01*
X890375Y735102D01*
X889157Y735805D01*
X889158Y739795D01*
X890375Y740498D01*
X892703Y742825D01*
X894348Y745675D01*
X895172Y748750D01*
X882700D01*
Y752250D01*
X895172D01*
X894348Y755325D01*
X892703Y758175D01*
X890375Y760502D01*
X889158Y761205D01*
X889158Y765195D01*
X890375Y765898D01*
X892702Y768225D01*
X894348Y771075D01*
X895172Y774150D01*
X882700D01*
Y777650D01*
X895172D01*
X894348Y780725D01*
X892702Y783575D01*
X890375Y785902D01*
X889158Y786605D01*
X889158Y790595D01*
X890375Y791297D01*
X892702Y793625D01*
X894348Y796475D01*
X895200Y799654D01*
Y802945D01*
X894348Y806125D01*
X892702Y808975D01*
X890375Y811302D01*
X887525Y812948D01*
X884346Y813800D01*
X881054D01*
X877875Y812948D01*
X875025Y811302D01*
X872697Y808975D01*
X871995Y807758D01*
X868005Y807758D01*
X867303Y808975D01*
X864975Y811302D01*
X862125Y812948D01*
X858946Y813800D01*
X855655D01*
X852475Y812948D01*
X849625Y811302D01*
X847298Y808975D01*
X845652Y806125D01*
X844800Y802946D01*
Y799654D01*
X845652Y796475D01*
X847298Y793625D01*
X849625Y791298D01*
X850842Y790595D01*
X850842Y786606D01*
X849624Y785903D01*
X847297Y783575D01*
X845652Y780725D01*
X844828Y777650D01*
X857300D01*
Y774150D01*
X844828D01*
X845652Y771075D01*
X847297Y768225D01*
X849624Y765898D01*
X850842Y765195D01*
X850842Y761205D01*
X849625Y760502D01*
X847298Y758175D01*
X845652Y755325D01*
X844828Y752250D01*
X857300D01*
Y748750D01*
X844828D01*
X845652Y745675D01*
X847298Y742825D01*
X849625Y740498D01*
X850842Y739795D01*
X850842Y735805D01*
X849625Y735103D01*
X847298Y732775D01*
X845652Y729925D01*
X844828Y726850D01*
X857300D01*
Y723350D01*
X844828D01*
X845652Y720275D01*
X847298Y717425D01*
X849625Y715098D01*
X850843Y714395D01*
Y710406D01*
X849625Y709703D01*
X847298Y707375D01*
X845652Y704525D01*
X844828Y701450D01*
X857300D01*
Y697950D01*
X844828D01*
X845652Y694875D01*
X847298Y692025D01*
X849625Y689698D01*
X850842Y688995D01*
X850842Y685005D01*
X849625Y684303D01*
X847298Y681975D01*
X845652Y679125D01*
X844828Y676050D01*
X857300D01*
Y672550D01*
X844609D01*
X841638Y670932D01*
X764639Y747931D01*
X766088Y751431D01*
X830000D01*
X831366Y751703D01*
X832523Y752477D01*
X833297Y753634D01*
X833569Y755000D01*
Y820000D01*
X833297Y821366D01*
X832523Y822523D01*
X820023Y835023D01*
X818866Y835797D01*
X817500Y836069D01*
X799801D01*
X798928Y837437D01*
X798459Y839569D01*
X800976Y842085D01*
X803520Y845587D01*
X805485Y849444D01*
X806823Y853560D01*
X807500Y857836D01*
Y862164D01*
X806823Y866440D01*
X805485Y870556D01*
X803520Y874413D01*
X800976Y877915D01*
X797915Y880976D01*
X794413Y883520D01*
X790556Y885485D01*
X786440Y886823D01*
X782164Y887500D01*
X777836D01*
X773560Y886823D01*
X769444Y885485D01*
X765587Y883520D01*
X762085Y880976D01*
X759024Y877915D01*
X756480Y874413D01*
X754515Y870556D01*
X753177Y866440D01*
X752500Y862164D01*
Y857836D01*
X753177Y853560D01*
X754515Y849444D01*
X756325Y845891D01*
X736353Y825918D01*
X734756Y826169D01*
X732853Y827173D01*
Y835000D01*
X732445Y837048D01*
X731285Y838785D01*
X696285Y873785D01*
X694548Y874945D01*
X692500Y875353D01*
X686995D01*
X686823Y876440D01*
X685485Y880556D01*
X683520Y884413D01*
X680976Y887915D01*
X677915Y890976D01*
X674413Y893520D01*
X670556Y895485D01*
X666440Y896823D01*
X662164Y897500D01*
X657836D01*
X653560Y896823D01*
X649444Y895485D01*
X645587Y893520D01*
X642085Y890976D01*
X639024Y887915D01*
X636480Y884413D01*
X634515Y880556D01*
X633177Y876440D01*
X632500Y872164D01*
Y867836D01*
X633177Y863560D01*
X634515Y859444D01*
X636480Y855587D01*
X639024Y852085D01*
X641541Y849568D01*
X641072Y847437D01*
X640199Y846068D01*
X635000D01*
X633634Y845797D01*
X632477Y845023D01*
X622477Y835023D01*
X621703Y833866D01*
X621431Y832500D01*
Y785712D01*
X618198Y784372D01*
X605353Y797217D01*
Y850000D01*
X604945Y852048D01*
X603785Y853785D01*
X583785Y873785D01*
X582048Y874945D01*
X580000Y875353D01*
X566995D01*
X566823Y876440D01*
X565485Y880556D01*
X563520Y884413D01*
X560976Y887915D01*
X557915Y890976D01*
X554413Y893520D01*
X550556Y895485D01*
X546440Y896823D01*
X542164Y897500D01*
X537836D01*
X533560Y896823D01*
X529444Y895485D01*
X525587Y893520D01*
X522085Y890976D01*
X519024Y887915D01*
X516480Y884413D01*
X514515Y880556D01*
X513177Y876440D01*
X512500Y872164D01*
Y867836D01*
X513177Y863560D01*
X514515Y859444D01*
X516480Y855587D01*
X519024Y852085D01*
X521541Y849568D01*
X521072Y847437D01*
X520199Y846068D01*
X515000D01*
X513634Y845797D01*
X512477Y845023D01*
X502477Y835023D01*
X501703Y833866D01*
X501431Y832500D01*
Y777500D01*
X501703Y776134D01*
X502477Y774977D01*
X507953Y769500D01*
X506503Y766000D01*
X506381D01*
X504219Y765421D01*
X502281Y764302D01*
X500674Y762729D01*
X499306Y763297D01*
X498848Y763388D01*
X498406Y763538D01*
X498171Y763523D01*
X497940Y763569D01*
X476852D01*
X473568Y765000D01*
Y830000D01*
X473297Y831366D01*
X472523Y832523D01*
X460023Y845023D01*
X458866Y845797D01*
X457500Y846069D01*
X439801D01*
X438928Y847437D01*
X438459Y849569D01*
X440976Y852085D01*
X443520Y855587D01*
X445485Y859444D01*
X446823Y863560D01*
X447500Y867836D01*
Y872164D01*
X446823Y876440D01*
X445485Y880556D01*
X443520Y884413D01*
X440976Y887915D01*
X437915Y890976D01*
X434413Y893520D01*
X430556Y895485D01*
X426440Y896823D01*
X422164Y897500D01*
D02*
G37*
G36*
X1012446Y640657D02*
X1010208D01*
X1008046Y640078D01*
X1006107Y638959D01*
X1004525Y637376D01*
X1004273Y636940D01*
X1003219Y636802D01*
X1001281Y637921D01*
X999119Y638500D01*
X996881D01*
X994719Y637921D01*
X992781Y636802D01*
X991832Y635853D01*
X954013D01*
X953802Y636219D01*
X952219Y637802D01*
X950281Y638921D01*
X948119Y639500D01*
X945881D01*
X943719Y638921D01*
X941781Y637802D01*
X940198Y636219D01*
X939079Y634281D01*
X938500Y632119D01*
Y629881D01*
X939079Y627719D01*
X940198Y625781D01*
X941781Y624198D01*
X943719Y623079D01*
X945881Y622500D01*
X948119D01*
X950281Y623079D01*
X952219Y624198D01*
X953168Y625147D01*
X990987D01*
X991198Y624781D01*
X992781Y623198D01*
X994719Y622079D01*
X996881Y621500D01*
X999119D01*
X1001281Y622079D01*
X1003219Y623198D01*
X1004802Y624781D01*
X1005053Y625217D01*
X1006107Y625355D01*
X1008046Y624236D01*
X1010208Y623657D01*
X1012446D01*
X1014607Y624236D01*
X1016546Y625355D01*
X1018128Y626938D01*
X1019247Y628876D01*
X1019827Y631038D01*
Y633276D01*
X1019247Y635438D01*
X1018128Y637376D01*
X1016546Y638959D01*
X1014607Y640078D01*
X1012446Y640657D01*
D02*
G37*
G36*
X946119Y548500D02*
X943881D01*
X941719Y547921D01*
X939781Y546802D01*
X938198Y545219D01*
X937079Y543281D01*
X936500Y541119D01*
Y538881D01*
X937079Y536719D01*
X938198Y534781D01*
X939781Y533198D01*
X941719Y532079D01*
X943881Y531500D01*
X946119D01*
X948281Y532079D01*
X950219Y533198D01*
X951802Y534781D01*
X952921Y536719D01*
X953500Y538881D01*
Y541119D01*
X952921Y543281D01*
X951802Y545219D01*
X950219Y546802D01*
X948281Y547921D01*
X946119Y548500D01*
D02*
G37*
G36*
X964922Y298670D02*
X961258D01*
X957665Y297955D01*
X954280Y296553D01*
X951233Y294517D01*
X948643Y291927D01*
X946607Y288880D01*
X945205Y285495D01*
X944490Y281902D01*
Y278238D01*
X945205Y274645D01*
X946607Y271260D01*
X948643Y268213D01*
X951233Y265623D01*
X954280Y263587D01*
X957665Y262185D01*
X961258Y261470D01*
X964922D01*
X968515Y262185D01*
X971900Y263587D01*
X974947Y265623D01*
X977538Y268213D01*
X979573Y271260D01*
X980975Y274645D01*
X981690Y278238D01*
Y281902D01*
X980975Y285495D01*
X979573Y288880D01*
X977538Y291927D01*
X974947Y294517D01*
X971900Y296553D01*
X968515Y297955D01*
X964922Y298670D01*
D02*
G37*
%LPD*%
G36*
X710000Y830000D02*
Y775014D01*
X709308Y774290D01*
X706500Y772653D01*
X705496Y772853D01*
X633003D01*
X631746Y773103D01*
X629467D01*
X625000Y777570D01*
Y832500D01*
X635000Y842500D01*
X697500D01*
X710000Y830000D01*
D02*
G37*
G36*
X470000Y830000D02*
Y765000D01*
X397500D01*
X385000Y777500D01*
Y832500D01*
X395000Y842500D01*
X457500D01*
X470000Y830000D01*
D02*
G37*
G36*
X590000Y830000D02*
Y765000D01*
X517500D01*
X505000Y777500D01*
Y832500D01*
X515000Y842500D01*
X577500D01*
X590000Y830000D01*
D02*
G37*
G36*
X830000Y820000D02*
Y755000D01*
X762953D01*
X762695Y756294D01*
X761535Y758031D01*
X745103Y774463D01*
Y819528D01*
X758074Y832500D01*
X817500D01*
X830000Y820000D01*
D02*
G37*
G36*
X700000Y615000D02*
X657500Y572500D01*
X614428D01*
X614302Y572719D01*
X612719Y574302D01*
X610781Y575421D01*
X608619Y576000D01*
X606381D01*
X604219Y575421D01*
X602281Y574302D01*
X600698Y572719D01*
X600572Y572500D01*
X132853D01*
Y697783D01*
X145217Y710147D01*
X218000D01*
X220049Y710555D01*
X221785Y711715D01*
X240070Y730000D01*
X257940D01*
X259000Y728619D01*
Y726381D01*
X259579Y724219D01*
X260698Y722281D01*
X262281Y720698D01*
X264219Y719579D01*
X266381Y719000D01*
X268619D01*
X270781Y719579D01*
X272719Y720698D01*
X274302Y722281D01*
X275421Y724219D01*
X276000Y726381D01*
Y728619D01*
X277060Y730000D01*
X282128D01*
X283663Y728465D01*
X285399Y727305D01*
X287448Y726897D01*
X355900D01*
X357948Y727305D01*
X359684Y728465D01*
X363785Y732566D01*
X364945Y734302D01*
X365353Y736350D01*
Y750353D01*
X374679Y759679D01*
X378304Y759526D01*
X379000Y758619D01*
Y756381D01*
X379579Y754219D01*
X380698Y752281D01*
X382281Y750698D01*
X384219Y749579D01*
X386381Y749000D01*
X388619D01*
X390781Y749579D01*
X392719Y750698D01*
X394302Y752281D01*
X395421Y754219D01*
X396000Y756381D01*
Y758619D01*
X397060Y760000D01*
X497940D01*
X499000Y758619D01*
Y756381D01*
X499579Y754219D01*
X500698Y752281D01*
X502281Y750698D01*
X504219Y749579D01*
X506381Y749000D01*
X508619D01*
X510781Y749579D01*
X512719Y750698D01*
X514302Y752281D01*
X515421Y754219D01*
X516000Y756381D01*
Y758619D01*
X517060Y760000D01*
X617940D01*
X619000Y758619D01*
Y756381D01*
X619579Y754219D01*
X620698Y752281D01*
X622281Y750698D01*
X624219Y749579D01*
X626381Y749000D01*
X628619D01*
X630781Y749579D01*
X632719Y750698D01*
X634302Y752281D01*
X635421Y754219D01*
X636000Y756381D01*
Y758619D01*
X637060Y760000D01*
X700000D01*
Y615000D01*
D02*
G37*
G36*
X350000Y800000D02*
Y737603D01*
X289665D01*
X283483Y743785D01*
X281746Y744945D01*
X279698Y745353D01*
X267147D01*
X265000Y747500D01*
Y799426D01*
X278074Y812500D01*
X337500D01*
X350000Y800000D01*
D02*
G37*
G36*
X123715Y703785D02*
X122555Y702048D01*
X122147Y700000D01*
Y578756D01*
X118647Y576426D01*
X118369Y576500D01*
X116131D01*
X113969Y575921D01*
X112031Y574802D01*
X110448Y573219D01*
X109329Y571281D01*
X108750Y569119D01*
Y566881D01*
X109329Y564719D01*
X110448Y562781D01*
X112031Y561198D01*
X113969Y560079D01*
X116131Y559500D01*
X118369D01*
X118647Y559575D01*
X122147Y557244D01*
Y337500D01*
X122555Y335452D01*
X123715Y333715D01*
X121177Y331393D01*
X97853Y354717D01*
Y682783D01*
X121177Y706107D01*
X123715Y703785D01*
D02*
G37*
G36*
X782107Y683319D02*
X781280Y679196D01*
X781031Y679052D01*
X779448Y677469D01*
X778329Y675531D01*
X777750Y673369D01*
Y671131D01*
X778329Y668969D01*
X779448Y667031D01*
X781031Y665448D01*
X782969Y664329D01*
X785131Y663750D01*
X785430D01*
X799330Y649850D01*
X799000Y648619D01*
Y646381D01*
X799579Y644219D01*
X800698Y642281D01*
X802281Y640698D01*
X804219Y639579D01*
X806381Y639000D01*
X808619D01*
X810781Y639579D01*
X811147Y639791D01*
X814647Y637899D01*
Y551596D01*
X813921Y550775D01*
X811147Y549225D01*
X810119Y549500D01*
X807881D01*
X805719Y548921D01*
X803781Y547802D01*
X802198Y546219D01*
X801079Y544281D01*
X800500Y542119D01*
Y539881D01*
X801079Y537719D01*
X802198Y535781D01*
X803781Y534198D01*
X805719Y533079D01*
X807881Y532500D01*
X810119D01*
X811147Y532775D01*
X813921Y531225D01*
X814647Y530404D01*
Y450000D01*
Y430000D01*
X250000D01*
X230000Y410000D01*
X150000D01*
X132853Y427147D01*
Y524244D01*
X136353Y526575D01*
X136631Y526500D01*
X138869D01*
X141031Y527079D01*
X142969Y528198D01*
X144552Y529781D01*
X145671Y531719D01*
X146250Y533881D01*
Y536119D01*
X145671Y538281D01*
X144552Y540219D01*
X142969Y541802D01*
X141031Y542921D01*
X138869Y543500D01*
X136631D01*
X136353Y543425D01*
X132853Y545756D01*
Y568931D01*
X598760D01*
X599000Y568619D01*
Y566381D01*
X599579Y564219D01*
X600698Y562281D01*
X602281Y560698D01*
X604219Y559579D01*
X606381Y559000D01*
X608619D01*
X610781Y559579D01*
X612719Y560698D01*
X614302Y562281D01*
X615421Y564219D01*
X616000Y566381D01*
Y568619D01*
X616240Y568931D01*
X657500D01*
X658866Y569203D01*
X660023Y569977D01*
X662547Y572500D01*
X667500D01*
X705000Y610000D01*
X707500Y612500D01*
Y752500D01*
X712926D01*
X782107Y683319D01*
D02*
G37*
G36*
X561819Y422813D02*
X561979Y421500D01*
X560698Y420219D01*
X559579Y418281D01*
X559000Y416119D01*
Y413881D01*
X559579Y411719D01*
X560698Y409781D01*
X562281Y408198D01*
X564219Y407079D01*
X566381Y406500D01*
X568619D01*
X570781Y407079D01*
X571500Y407495D01*
X574669Y406014D01*
X575000Y405643D01*
Y357500D01*
X565000Y347500D01*
X502500D01*
X490000Y360000D01*
Y425000D01*
X560821D01*
X561819Y422813D01*
D02*
G37*
G36*
X441819D02*
X441979Y421500D01*
X440698Y420219D01*
X439579Y418281D01*
X439000Y416119D01*
Y413881D01*
X439579Y411719D01*
X440698Y409781D01*
X442281Y408198D01*
X444219Y407079D01*
X446381Y406500D01*
X448619D01*
X450781Y407079D01*
X451500Y407495D01*
X454669Y406014D01*
X455000Y405643D01*
Y357500D01*
X445000Y347500D01*
X382500D01*
X370000Y360000D01*
Y425000D01*
X440821D01*
X441819Y422813D01*
D02*
G37*
G36*
X321819D02*
X321979Y421500D01*
X320698Y420219D01*
X319579Y418281D01*
X319000Y416119D01*
Y413881D01*
X319579Y411719D01*
X320698Y409781D01*
X322281Y408198D01*
X324219Y407079D01*
X326381Y406500D01*
X328619D01*
X330781Y407079D01*
X331500Y407495D01*
X334669Y406014D01*
X335000Y405643D01*
Y357500D01*
X325000Y347500D01*
X262500D01*
X250000Y360000D01*
Y424953D01*
X250047Y425000D01*
X320821D01*
X321819Y422813D01*
D02*
G37*
G36*
X801819Y422813D02*
X801979Y421500D01*
X800698Y420219D01*
X799579Y418281D01*
X799000Y416119D01*
Y413881D01*
X799579Y411719D01*
X800698Y409781D01*
X802281Y408198D01*
X804219Y407079D01*
X806381Y406500D01*
X808619D01*
X810781Y407079D01*
X811147Y407291D01*
X814647Y405399D01*
Y357147D01*
X805000Y347500D01*
X742500D01*
X730000Y360000D01*
Y425000D01*
X800821D01*
X801819Y422813D01*
D02*
G37*
G36*
X676014Y424669D02*
X677495Y421500D01*
X677079Y420781D01*
X676500Y418619D01*
Y416381D01*
X677079Y414219D01*
X678198Y412281D01*
X679781Y410698D01*
X681719Y409579D01*
X683881Y409000D01*
X686119D01*
X688281Y409579D01*
X690219Y410698D01*
X691500Y411979D01*
X692813Y411819D01*
X695000Y410821D01*
Y357500D01*
X685000Y347500D01*
X622500D01*
X610000Y360000D01*
Y425000D01*
X675643D01*
X676014Y424669D01*
D02*
G37*
G36*
X606432Y425000D02*
Y360000D01*
X606703Y358634D01*
X607477Y357477D01*
X619977Y344977D01*
X621134Y344203D01*
X622500Y343932D01*
X640199D01*
X641072Y342563D01*
X641541Y340432D01*
X639024Y337915D01*
X636480Y334413D01*
X634515Y330556D01*
X633177Y326440D01*
X632500Y322164D01*
Y317836D01*
X633177Y313560D01*
X634515Y309444D01*
X636480Y305587D01*
X637127Y304697D01*
X538915Y206485D01*
X537755Y204748D01*
X537347Y202700D01*
Y182484D01*
X535854Y181622D01*
X533778Y179546D01*
X532310Y177004D01*
X531812Y175145D01*
X528188D01*
X527690Y177004D01*
X526222Y179546D01*
X524146Y181622D01*
X521604Y183090D01*
X518768Y183850D01*
X515832D01*
X512853Y186472D01*
Y285283D01*
X524697Y297127D01*
X525587Y296480D01*
X529444Y294515D01*
X533560Y293177D01*
X537836Y292500D01*
X542164D01*
X546440Y293177D01*
X550556Y294515D01*
X554413Y296480D01*
X557915Y299024D01*
X560976Y302085D01*
X563520Y305587D01*
X565485Y309444D01*
X566823Y313560D01*
X567500Y317836D01*
Y322164D01*
X566823Y326440D01*
X565485Y330556D01*
X563520Y334413D01*
X560976Y337915D01*
X558459Y340432D01*
X558928Y342563D01*
X559801Y343932D01*
X565000D01*
X566366Y344203D01*
X567523Y344977D01*
X577523Y354977D01*
X578297Y356134D01*
X578569Y357500D01*
Y405643D01*
X578452Y406229D01*
X578369Y406820D01*
X578317Y406908D01*
X578297Y407009D01*
X577965Y407505D01*
X577662Y408020D01*
X577331Y408390D01*
X577314Y408404D01*
X577302Y408423D01*
X576758Y408823D01*
X576219Y409228D01*
X575607Y412416D01*
X576000Y413881D01*
Y416119D01*
X575421Y418281D01*
X574302Y420219D01*
X572719Y421802D01*
X570781Y422921D01*
X570741Y422931D01*
X571202Y426431D01*
X603148D01*
X606432Y425000D01*
D02*
G37*
G36*
X814647Y347528D02*
Y254717D01*
X782783Y222853D01*
X695373D01*
X693923Y226353D01*
X764697Y297127D01*
X765587Y296480D01*
X769444Y294515D01*
X773560Y293177D01*
X777836Y292500D01*
X782164D01*
X786440Y293177D01*
X790556Y294515D01*
X794413Y296480D01*
X797915Y299024D01*
X800976Y302085D01*
X803520Y305587D01*
X805485Y309444D01*
X806823Y313560D01*
X807500Y317836D01*
Y322164D01*
X806823Y326440D01*
X805485Y330556D01*
X803520Y334413D01*
X800976Y337915D01*
X798459Y340432D01*
X798928Y342563D01*
X799801Y343932D01*
X805000D01*
X806366Y344203D01*
X807523Y344977D01*
X811414Y348867D01*
X814647Y347528D01*
D02*
G37*
G36*
X726432Y425000D02*
Y360000D01*
X726703Y358634D01*
X727477Y357477D01*
X739977Y344977D01*
X741134Y344203D01*
X742500Y343932D01*
X760199D01*
X761072Y342563D01*
X761541Y340432D01*
X759024Y337915D01*
X756480Y334413D01*
X754515Y330556D01*
X753177Y326440D01*
X752500Y322164D01*
Y317836D01*
X753177Y313560D01*
X754515Y309444D01*
X756480Y305587D01*
X757127Y304697D01*
X685283Y232853D01*
X622900D01*
X620852Y232445D01*
X619115Y231285D01*
X571234Y183404D01*
X569568Y183850D01*
X566632D01*
X563796Y183090D01*
X561254Y181622D01*
X559178Y179546D01*
X557710Y177004D01*
X557212Y175145D01*
X553588D01*
X553090Y177004D01*
X551622Y179546D01*
X549546Y181622D01*
X548053Y182484D01*
Y200483D01*
X644697Y297127D01*
X645587Y296480D01*
X649444Y294515D01*
X653560Y293177D01*
X657836Y292500D01*
X662164D01*
X666440Y293177D01*
X670556Y294515D01*
X674413Y296480D01*
X677915Y299024D01*
X680976Y302085D01*
X683520Y305587D01*
X685485Y309444D01*
X686823Y313560D01*
X687500Y317836D01*
Y322164D01*
X686823Y326440D01*
X685485Y330556D01*
X683520Y334413D01*
X680976Y337915D01*
X678459Y340432D01*
X678928Y342563D01*
X679801Y343932D01*
X685000D01*
X686366Y344203D01*
X687523Y344977D01*
X697523Y354977D01*
X698297Y356134D01*
X698569Y357500D01*
Y410821D01*
X698445Y411442D01*
X698344Y412068D01*
X698310Y412123D01*
X698297Y412186D01*
X697945Y412713D01*
X697612Y413252D01*
X697559Y413290D01*
X697523Y413344D01*
X696996Y413696D01*
X696482Y414067D01*
X694295Y415065D01*
X693500Y416381D01*
Y418619D01*
X692921Y420781D01*
X691802Y422719D01*
X691589Y422931D01*
X693039Y426431D01*
X723148D01*
X726432Y425000D01*
D02*
G37*
G36*
X147477Y407477D02*
X148634Y406703D01*
X150000Y406431D01*
X230000D01*
X231366Y406703D01*
X232523Y407477D01*
X243198Y418151D01*
X246432Y416812D01*
Y360000D01*
X246703Y358634D01*
X247477Y357477D01*
X259977Y344977D01*
X261134Y344203D01*
X262500Y343932D01*
X280198D01*
X281072Y342563D01*
X281541Y340432D01*
X279024Y337915D01*
X276480Y334413D01*
X274515Y330556D01*
X273177Y326440D01*
X272500Y322164D01*
Y317836D01*
X273177Y313560D01*
X274515Y309444D01*
X276480Y305587D01*
X279024Y302085D01*
X282085Y299024D01*
X285587Y296480D01*
X289444Y294515D01*
X293560Y293177D01*
X297836Y292500D01*
X302164D01*
X306440Y293177D01*
X310450Y294480D01*
X378577Y226353D01*
X378544Y225762D01*
X377447Y222853D01*
X299717D01*
X216285Y306285D01*
X214548Y307445D01*
X212500Y307853D01*
X164717D01*
X132853Y339717D01*
Y417528D01*
X136086Y418867D01*
X147477Y407477D01*
D02*
G37*
G36*
X703477Y188647D02*
X698233Y183404D01*
X696568Y183850D01*
X693632D01*
X690796Y183090D01*
X688254Y181622D01*
X686178Y179546D01*
X684710Y177004D01*
X684212Y175145D01*
X680588D01*
X680090Y177004D01*
X678622Y179546D01*
X676546Y181622D01*
X674004Y183090D01*
X671450Y183774D01*
Y172700D01*
X667950D01*
Y183774D01*
X667874Y183754D01*
X666062Y186892D01*
X671317Y192147D01*
X702027D01*
X703477Y188647D01*
D02*
G37*
G36*
X366431Y425000D02*
Y360000D01*
X366703Y358634D01*
X367477Y357477D01*
X379977Y344977D01*
X381134Y344203D01*
X382500Y343932D01*
X400199D01*
X401072Y342563D01*
X401541Y340432D01*
X399024Y337915D01*
X396480Y334413D01*
X394515Y330556D01*
X393177Y326440D01*
X392500Y322164D01*
Y317836D01*
X393177Y313560D01*
X394515Y309444D01*
X396480Y305587D01*
X399024Y302085D01*
X402085Y299024D01*
X405587Y296480D01*
X409444Y294515D01*
X413560Y293177D01*
X417836Y292500D01*
X422164D01*
X426440Y293177D01*
X430556Y294515D01*
X434413Y296480D01*
X435303Y297127D01*
X486547Y245883D01*
Y182484D01*
X485054Y181622D01*
X482978Y179546D01*
X481510Y177004D01*
X481012Y175145D01*
X477388D01*
X476890Y177004D01*
X475422Y179546D01*
X473346Y181622D01*
X470804Y183090D01*
X467968Y183850D01*
X465032D01*
X463366Y183404D01*
X412985Y233785D01*
X411249Y234945D01*
X409200Y235353D01*
X384717D01*
X319480Y300590D01*
X320976Y302085D01*
X323520Y305587D01*
X325485Y309444D01*
X326823Y313560D01*
X327500Y317836D01*
Y322164D01*
X326823Y326440D01*
X325485Y330556D01*
X323520Y334413D01*
X320976Y337915D01*
X318459Y340432D01*
X318928Y342563D01*
X319802Y343932D01*
X325000D01*
X326366Y344203D01*
X327523Y344977D01*
X337523Y354977D01*
X338297Y356134D01*
X338569Y357500D01*
Y405643D01*
X338452Y406229D01*
X338369Y406820D01*
X338317Y406908D01*
X338297Y407009D01*
X337965Y407505D01*
X337662Y408020D01*
X337331Y408390D01*
X337314Y408404D01*
X337302Y408423D01*
X336758Y408823D01*
X336219Y409228D01*
X335607Y412416D01*
X336000Y413881D01*
Y416119D01*
X335421Y418281D01*
X334302Y420219D01*
X332719Y421802D01*
X330781Y422921D01*
X330741Y422931D01*
X331202Y426431D01*
X363148D01*
X366431Y425000D01*
D02*
G37*
%LPC*%
G36*
X596119Y651000D02*
X593881D01*
X591719Y650421D01*
X589781Y649302D01*
X588198Y647719D01*
X587079Y645781D01*
X586500Y643619D01*
Y641381D01*
X587079Y639219D01*
X588198Y637281D01*
X589781Y635698D01*
X591719Y634579D01*
X593881Y634000D01*
X596119D01*
X598281Y634579D01*
X600219Y635698D01*
X601802Y637281D01*
X602921Y639219D01*
X603500Y641381D01*
Y643619D01*
X602921Y645781D01*
X601802Y647719D01*
X600219Y649302D01*
X598281Y650421D01*
X596119Y651000D01*
D02*
G37*
G36*
X356119D02*
X353881D01*
X351719Y650421D01*
X349781Y649302D01*
X348198Y647719D01*
X347079Y645781D01*
X346500Y643619D01*
Y641381D01*
X347079Y639219D01*
X348198Y637281D01*
X349781Y635698D01*
X351719Y634579D01*
X353881Y634000D01*
X356119D01*
X358281Y634579D01*
X360219Y635698D01*
X361802Y637281D01*
X362921Y639219D01*
X363500Y641381D01*
Y643619D01*
X362921Y645781D01*
X361802Y647719D01*
X360219Y649302D01*
X358281Y650421D01*
X356119Y651000D01*
D02*
G37*
G36*
X321119Y626000D02*
X318881D01*
X316719Y625421D01*
X314781Y624302D01*
X313198Y622719D01*
X312079Y620781D01*
X311500Y618619D01*
Y616381D01*
X312079Y614219D01*
X313198Y612281D01*
X314781Y610698D01*
X316719Y609579D01*
X318881Y609000D01*
X321119D01*
X323281Y609579D01*
X325219Y610698D01*
X326802Y612281D01*
X327921Y614219D01*
X328500Y616381D01*
Y618619D01*
X327921Y620781D01*
X326802Y622719D01*
X325219Y624302D01*
X323281Y625421D01*
X321119Y626000D01*
D02*
G37*
G36*
X768869Y536000D02*
X766631D01*
X764469Y535421D01*
X762531Y534302D01*
X761082Y532853D01*
X739168D01*
X737719Y534302D01*
X735781Y535421D01*
X733619Y536000D01*
X731381D01*
X729219Y535421D01*
X727281Y534302D01*
X725698Y532719D01*
X724579Y530781D01*
X724000Y528619D01*
Y526381D01*
X724579Y524219D01*
X725698Y522281D01*
X727281Y520698D01*
X729219Y519579D01*
X731381Y519000D01*
X733619D01*
X735781Y519579D01*
X737719Y520698D01*
X739168Y522147D01*
X761082D01*
X762531Y520698D01*
X764469Y519579D01*
X766631Y519000D01*
X768869D01*
X771031Y519579D01*
X772969Y520698D01*
X774552Y522281D01*
X775671Y524219D01*
X776250Y526381D01*
Y528619D01*
X775671Y530781D01*
X774552Y532719D01*
X772969Y534302D01*
X771031Y535421D01*
X768869Y536000D01*
D02*
G37*
G36*
X789119Y549500D02*
X786881D01*
X784719Y548921D01*
X782781Y547802D01*
X781198Y546219D01*
X780079Y544281D01*
X779500Y542119D01*
Y539881D01*
X780079Y537719D01*
X781198Y535781D01*
X782781Y534198D01*
X784719Y533079D01*
X786881Y532500D01*
X789119D01*
X791281Y533079D01*
X793219Y534198D01*
X794802Y535781D01*
X795921Y537719D01*
X796500Y539881D01*
Y542119D01*
X795921Y544281D01*
X794802Y546219D01*
X793219Y547802D01*
X791281Y548921D01*
X789119Y549500D01*
D02*
G37*
G36*
X418619Y536000D02*
X416381D01*
X414219Y535421D01*
X412281Y534302D01*
X410698Y532719D01*
X409579Y530781D01*
X409000Y528619D01*
Y526381D01*
X409579Y524219D01*
X410698Y522281D01*
X412281Y520698D01*
X414219Y519579D01*
X416381Y519000D01*
X418619D01*
X420781Y519579D01*
X422719Y520698D01*
X424302Y522281D01*
X425421Y524219D01*
X426000Y526381D01*
Y528619D01*
X425421Y530781D01*
X424302Y532719D01*
X422719Y534302D01*
X420781Y535421D01*
X418619Y536000D01*
D02*
G37*
%LPD*%
D47*
X82000Y345000D02*
X132000Y295000D01*
X82000Y345000D02*
Y435000D01*
X132000Y278000D02*
Y295000D01*
Y278000D02*
X218000Y192000D01*
X371000D01*
X45250Y362750D02*
Y578250D01*
Y362750D02*
X121000Y287000D01*
Y268000D02*
Y287000D01*
Y268000D02*
X264000Y125000D01*
X367729D01*
X371000Y192000D02*
X390300Y172700D01*
X92500Y685000D02*
X130000Y722500D01*
X92500Y352500D02*
X155000Y290000D01*
X92500Y352500D02*
Y685000D01*
X127500Y337500D02*
Y700000D01*
X600000Y795000D02*
Y850000D01*
X540000Y870000D02*
X580000D01*
X600000Y850000D01*
X737250Y745754D02*
Y750250D01*
X727500Y760000D02*
X737250Y750250D01*
Y745754D02*
X743254Y739750D01*
X727500Y760000D02*
Y835000D01*
X600000Y795000D02*
X627250Y767750D01*
X210000Y722500D02*
X257500Y770000D01*
Y799496D02*
X298004Y840000D01*
X257500Y770000D02*
Y799496D01*
X367729Y125000D02*
X390029Y147300D01*
X207500Y290000D02*
X292500Y205000D01*
X383400D01*
X415700Y172700D01*
X409200Y230000D02*
X466500Y172700D01*
X300000Y312500D02*
X382500Y230000D01*
X409200D01*
X212500Y302500D02*
X297500Y217500D01*
X396300D01*
X441100Y172700D01*
X155000Y290000D02*
X207500D01*
X162500Y302500D02*
X212500D01*
X839500Y244500D02*
Y665500D01*
X739750Y772246D02*
X757750Y754246D01*
Y747250D02*
X839500Y665500D01*
X757750Y747250D02*
Y754246D01*
X750250Y739750D02*
X830000Y660000D01*
X743254Y739750D02*
X750250D01*
X830000Y247500D02*
Y660000D01*
X820000Y252500D02*
Y652996D01*
X705496Y767500D02*
X820000Y652996D01*
X631996Y767500D02*
X705496D01*
X739750Y772246D02*
Y821746D01*
X807500Y647500D02*
Y649250D01*
X786250Y670500D02*
X807500Y649250D01*
X786250Y670500D02*
Y672250D01*
X864000Y188000D02*
X905000Y229000D01*
X710400Y188000D02*
X864000D01*
X695100Y172700D02*
X710400Y188000D01*
X905000Y229000D02*
Y300000D01*
X927500D01*
X865000D02*
X905000D01*
X130000Y722500D02*
X210000D01*
X127500Y337500D02*
X162500Y302500D01*
X127500Y700000D02*
X143000Y715500D01*
X218000D02*
X242500Y740000D01*
X279698D02*
X287448Y732250D01*
X242500Y740000D02*
X279698D01*
X287448Y732250D02*
X355900D01*
X360000Y822500D02*
X395117Y857617D01*
X355900Y732250D02*
X360000Y736350D01*
Y822500D01*
X627250Y767750D02*
X631746D01*
X631996Y767500D01*
X143000Y715500D02*
X218000D01*
X732500Y527500D02*
X767750D01*
X792500Y197500D02*
X839500Y244500D01*
X644300Y172700D02*
X669100Y197500D01*
X792500D01*
X653700Y207500D02*
X790000D01*
X618900Y172700D02*
X653700Y207500D01*
X790000D02*
X830000Y247500D01*
X593500Y172700D02*
X638300Y217500D01*
X785000D02*
X820000Y252500D01*
X638300Y217500D02*
X785000D01*
X927500Y300000D02*
X948250Y320750D01*
Y327250D02*
X948500Y327500D01*
X948250Y320750D02*
Y327250D01*
X857300Y307700D02*
Y318700D01*
Y307700D02*
X865000Y300000D01*
X739750Y821746D02*
X778005Y860000D01*
X780000D01*
X997500Y630500D02*
X998000Y630000D01*
X947000Y631000D02*
X947500Y630500D01*
X997500D01*
X692500Y870000D02*
X727500Y835000D01*
X660000Y870000D02*
X692500D01*
X395117Y857617D02*
X395967D01*
X408349Y870000D02*
X420000D01*
X395967Y857617D02*
X408349Y870000D01*
X300000Y312500D02*
Y320000D01*
X507500Y182500D02*
X517300Y172700D01*
X507500Y182500D02*
Y287500D01*
X540000Y320000D01*
X568100Y172700D02*
X622900Y227500D01*
X687500D02*
X780000Y320000D01*
X622900Y227500D02*
X687500D01*
X542700Y172700D02*
Y202700D01*
X660000Y320000D01*
X298004Y840000D02*
X300000D01*
X491900Y172700D02*
Y248100D01*
X420000Y320000D02*
X491900Y248100D01*
D48*
X882700Y750500D02*
D03*
X882700Y623500D02*
D03*
X882700Y598100D02*
D03*
Y699700D02*
D03*
Y674300D02*
D03*
Y775900D02*
D03*
X882700Y725100D02*
D03*
X882700Y547300D02*
D03*
X882700Y521900D02*
D03*
X857300Y318700D02*
D03*
X857300Y699700D02*
D03*
Y725100D02*
D03*
X857300Y674300D02*
D03*
X857300Y750500D02*
D03*
X857300Y775900D02*
D03*
D50*
X695100Y147300D02*
D03*
Y172700D02*
D03*
X669700D02*
D03*
X644300D02*
D03*
X618900Y147300D02*
D03*
Y172700D02*
D03*
X593500D02*
D03*
Y147300D02*
D03*
X568100D02*
D03*
Y172700D02*
D03*
X542700D02*
D03*
Y147300D02*
D03*
X517300D02*
D03*
Y172700D02*
D03*
X491900D02*
D03*
Y147300D02*
D03*
X466500D02*
D03*
X441100D02*
D03*
X415700D02*
D03*
X390300D02*
D03*
Y172700D02*
D03*
X415700D02*
D03*
X441100D02*
D03*
X466500D02*
D03*
D51*
X540000Y375000D02*
D03*
X780000Y375000D02*
D03*
X660000D02*
D03*
X420000Y375000D02*
D03*
X300000D02*
D03*
X540000Y815000D02*
D03*
X660000Y815000D02*
D03*
X300000Y785000D02*
D03*
X780000Y805000D02*
D03*
X420000Y815000D02*
D03*
D52*
X540000Y320000D02*
D03*
Y265000D02*
D03*
X780000Y265000D02*
D03*
Y320000D02*
D03*
X660000Y265000D02*
D03*
X660000Y320000D02*
D03*
X420000Y265000D02*
D03*
Y320000D02*
D03*
X300000Y265000D02*
D03*
Y320000D02*
D03*
X540000Y870000D02*
D03*
Y925000D02*
D03*
X660000Y870000D02*
D03*
Y925000D02*
D03*
X300000Y840000D02*
D03*
Y895000D02*
D03*
X780000Y860000D02*
D03*
Y915000D02*
D03*
X420000Y925000D02*
D03*
Y870000D02*
D03*
D53*
X185000Y470000D02*
D03*
Y660000D02*
D03*
D54*
Y360000D02*
D03*
Y770000D02*
D03*
D55*
X82000Y435000D02*
D03*
X80000Y533000D02*
D03*
X104000Y534000D02*
D03*
X56000Y532000D02*
D03*
X45250Y578250D02*
D03*
X980000Y410000D02*
D03*
X1000000D02*
D03*
Y440000D02*
D03*
X980000D02*
D03*
X1005000Y470000D02*
D03*
X1035000Y490000D02*
D03*
X1005000D02*
D03*
X1035000Y510000D02*
D03*
X1005000D02*
D03*
Y530000D02*
D03*
X786250Y672250D02*
D03*
X807500Y647500D02*
D03*
X770000Y80000D02*
D03*
X320000Y110000D02*
D03*
X640000Y30000D02*
D03*
X600000Y20000D02*
D03*
X420000Y30000D02*
D03*
X460000Y20000D02*
D03*
X280000Y90000D02*
D03*
X120000Y230000D02*
D03*
X180000Y160000D02*
D03*
X797999Y610000D02*
D03*
Y514000D02*
D03*
X789999Y594000D02*
D03*
X782000Y514000D02*
D03*
X766000Y673999D02*
D03*
Y642000D02*
D03*
X749999Y706000D02*
D03*
Y673999D02*
D03*
X733999Y706000D02*
D03*
X742000Y689999D02*
D03*
X733999Y673999D02*
D03*
X742000Y498000D02*
D03*
X733999Y482000D02*
D03*
X742000Y466000D02*
D03*
X726000Y594000D02*
D03*
X717999Y578000D02*
D03*
X726000Y562000D02*
D03*
X717999Y546000D02*
D03*
X726000Y498000D02*
D03*
X717999Y482000D02*
D03*
X726000Y466000D02*
D03*
X702000Y578000D02*
D03*
X709999Y562000D02*
D03*
X702000Y546000D02*
D03*
X709999Y498000D02*
D03*
X702000Y482000D02*
D03*
X709999Y466000D02*
D03*
X693999Y562000D02*
D03*
Y498000D02*
D03*
X677999Y562000D02*
D03*
X653999Y546000D02*
D03*
X662000Y530000D02*
D03*
X637999Y546000D02*
D03*
X630000Y562000D02*
D03*
Y466000D02*
D03*
X613999D02*
D03*
X597999Y530000D02*
D03*
X582000D02*
D03*
X566000Y562000D02*
D03*
X558000Y546000D02*
D03*
X566000Y530000D02*
D03*
X550000Y562000D02*
D03*
X542000Y546000D02*
D03*
X550000Y530000D02*
D03*
X534000Y562000D02*
D03*
X526000Y546000D02*
D03*
X534000Y530000D02*
D03*
X518000Y562000D02*
D03*
X510000Y546000D02*
D03*
X518000Y530000D02*
D03*
X502000Y562000D02*
D03*
X494000Y546000D02*
D03*
X502000Y530000D02*
D03*
Y498000D02*
D03*
X494000Y482000D02*
D03*
X502000Y466000D02*
D03*
X486000Y562000D02*
D03*
X478000Y546000D02*
D03*
X486000Y530000D02*
D03*
Y498000D02*
D03*
X478000Y482000D02*
D03*
X486000Y466000D02*
D03*
X470000Y562000D02*
D03*
X462000Y546000D02*
D03*
X470000Y530000D02*
D03*
Y498000D02*
D03*
X462000Y482000D02*
D03*
X470000Y466000D02*
D03*
X454000Y562000D02*
D03*
X446000Y546000D02*
D03*
X454000Y530000D02*
D03*
Y498000D02*
D03*
X438000Y562000D02*
D03*
X430000Y546000D02*
D03*
X438000Y530000D02*
D03*
X422000Y562000D02*
D03*
X414000Y546000D02*
D03*
X406000Y562000D02*
D03*
X398000Y546000D02*
D03*
X390000Y562000D02*
D03*
Y466000D02*
D03*
X374000D02*
D03*
X358000Y530000D02*
D03*
X350000Y514000D02*
D03*
X342000Y530000D02*
D03*
X334000Y514000D02*
D03*
X326000Y562000D02*
D03*
X318000Y546000D02*
D03*
X326000Y530000D02*
D03*
X318000Y514000D02*
D03*
X310000Y562000D02*
D03*
X302000Y546000D02*
D03*
X310000Y530000D02*
D03*
X302000Y514000D02*
D03*
X294000Y562000D02*
D03*
X286000Y546000D02*
D03*
X294000Y530000D02*
D03*
X286000Y514000D02*
D03*
X278000Y562000D02*
D03*
X270000Y546000D02*
D03*
X278000Y530000D02*
D03*
X270000Y514000D02*
D03*
X262000Y562000D02*
D03*
X254000Y546000D02*
D03*
X262000Y530000D02*
D03*
X254000Y514000D02*
D03*
X262000Y498000D02*
D03*
X254000Y482000D02*
D03*
X262000Y466000D02*
D03*
X254000Y450000D02*
D03*
X246000Y562000D02*
D03*
X238000Y546000D02*
D03*
X246000Y530000D02*
D03*
X238000Y514000D02*
D03*
X246000Y498000D02*
D03*
X238000Y482000D02*
D03*
X246000Y466000D02*
D03*
X238000Y450000D02*
D03*
X246000Y434000D02*
D03*
X230000Y562000D02*
D03*
X222000Y546000D02*
D03*
X230000Y530000D02*
D03*
X222000Y418000D02*
D03*
X214000Y562000D02*
D03*
X206000Y546000D02*
D03*
X214000Y530000D02*
D03*
X206000Y418000D02*
D03*
X198000Y562000D02*
D03*
X190000Y546000D02*
D03*
X198000Y530000D02*
D03*
X190000Y418000D02*
D03*
X182000Y562000D02*
D03*
X174000Y546000D02*
D03*
X182000Y530000D02*
D03*
X174000Y418000D02*
D03*
X166000Y530000D02*
D03*
X158000Y418000D02*
D03*
X693999Y706000D02*
D03*
Y673999D02*
D03*
Y642000D02*
D03*
X686000Y626000D02*
D03*
X677999Y673999D02*
D03*
Y642000D02*
D03*
X669999Y626000D02*
D03*
X677999Y610000D02*
D03*
X669999Y594000D02*
D03*
X662000Y673999D02*
D03*
Y642000D02*
D03*
X653999Y626000D02*
D03*
X662000Y610000D02*
D03*
X653999Y594000D02*
D03*
X646000Y673999D02*
D03*
Y642000D02*
D03*
X637999Y626000D02*
D03*
X646000Y610000D02*
D03*
X622000Y722000D02*
D03*
X630000Y642000D02*
D03*
Y610000D02*
D03*
X613999Y642000D02*
D03*
X566000Y673999D02*
D03*
X558000Y626000D02*
D03*
X566000Y610000D02*
D03*
X550000Y673999D02*
D03*
X542000Y626000D02*
D03*
X550000Y610000D02*
D03*
X534000Y673999D02*
D03*
Y642000D02*
D03*
X526000Y626000D02*
D03*
X534000Y610000D02*
D03*
X510000Y722000D02*
D03*
Y689999D02*
D03*
X518000Y673999D02*
D03*
Y642000D02*
D03*
X510000Y626000D02*
D03*
X518000Y610000D02*
D03*
X494000Y722000D02*
D03*
X502000Y706000D02*
D03*
X494000Y689999D02*
D03*
X502000Y673999D02*
D03*
Y642000D02*
D03*
X494000Y626000D02*
D03*
X502000Y610000D02*
D03*
X478000Y722000D02*
D03*
X486000Y706000D02*
D03*
X478000Y689999D02*
D03*
X486000Y673999D02*
D03*
Y642000D02*
D03*
X478000Y626000D02*
D03*
X486000Y610000D02*
D03*
X462000Y722000D02*
D03*
X470000Y706000D02*
D03*
X462000Y689999D02*
D03*
X470000Y673999D02*
D03*
Y642000D02*
D03*
X462000Y626000D02*
D03*
X470000Y610000D02*
D03*
X454000Y706000D02*
D03*
Y673999D02*
D03*
Y642000D02*
D03*
X446000Y626000D02*
D03*
X454000Y610000D02*
D03*
X438000Y673999D02*
D03*
Y642000D02*
D03*
X430000Y626000D02*
D03*
X438000Y610000D02*
D03*
X422000Y673999D02*
D03*
Y642000D02*
D03*
X414000Y626000D02*
D03*
X422000Y610000D02*
D03*
X406000Y673999D02*
D03*
Y642000D02*
D03*
X398000Y626000D02*
D03*
X406000Y610000D02*
D03*
X382000Y722000D02*
D03*
X390000Y642000D02*
D03*
Y610000D02*
D03*
X374000Y642000D02*
D03*
X342000Y706000D02*
D03*
X318000Y594000D02*
D03*
X302000Y626000D02*
D03*
Y594000D02*
D03*
X294000Y642000D02*
D03*
X286000Y626000D02*
D03*
X294000Y610000D02*
D03*
X286000Y594000D02*
D03*
X270000Y657999D02*
D03*
X278000Y642000D02*
D03*
X270000Y626000D02*
D03*
X278000Y610000D02*
D03*
X270000Y594000D02*
D03*
X262000Y673999D02*
D03*
X254000Y657999D02*
D03*
X262000Y642000D02*
D03*
X254000Y626000D02*
D03*
X262000Y610000D02*
D03*
X254000Y594000D02*
D03*
X238000Y689999D02*
D03*
X246000Y673999D02*
D03*
X238000Y657999D02*
D03*
X246000Y642000D02*
D03*
X238000Y626000D02*
D03*
X246000Y610000D02*
D03*
X238000Y594000D02*
D03*
X230000Y610000D02*
D03*
X222000Y594000D02*
D03*
X214000Y610000D02*
D03*
X206000Y594000D02*
D03*
X198000Y610000D02*
D03*
X190000Y594000D02*
D03*
X182000Y610000D02*
D03*
X174000Y594000D02*
D03*
X166000Y610000D02*
D03*
X150000D02*
D03*
X1035000Y470000D02*
D03*
Y530000D02*
D03*
Y625000D02*
D03*
X977500Y587500D02*
D03*
X1002500D02*
D03*
X948500Y327500D02*
D03*
X947000Y631000D02*
D03*
X998000Y630000D02*
D03*
X822500Y772500D02*
D03*
X700000Y830000D02*
D03*
X580000D02*
D03*
X462500Y782500D02*
D03*
X267500Y355000D02*
D03*
X267500Y367500D02*
D03*
Y380000D02*
D03*
X257500Y390000D02*
D03*
X270000Y392500D02*
D03*
X257500Y402500D02*
D03*
X270000Y405000D02*
D03*
X257500Y415000D02*
D03*
X270000Y417500D02*
D03*
X282500Y407500D02*
D03*
X295000D02*
D03*
X307500D02*
D03*
X330000Y362500D02*
D03*
X387500Y355000D02*
D03*
X387500Y367500D02*
D03*
Y380000D02*
D03*
X377500Y390000D02*
D03*
X390000Y392500D02*
D03*
X377500Y402500D02*
D03*
X390000Y405000D02*
D03*
X377500Y415000D02*
D03*
X390000Y417500D02*
D03*
X402500Y407500D02*
D03*
X415000D02*
D03*
X427500D02*
D03*
X450000Y362500D02*
D03*
X507500Y355000D02*
D03*
X507500Y367500D02*
D03*
Y380000D02*
D03*
X497500Y390000D02*
D03*
X510000Y392500D02*
D03*
X497500Y402500D02*
D03*
X510000Y405000D02*
D03*
X497500Y415000D02*
D03*
X510000Y417500D02*
D03*
X522500Y407500D02*
D03*
X535000D02*
D03*
X547500D02*
D03*
X570000Y362500D02*
D03*
X627500Y355000D02*
D03*
X627500Y367500D02*
D03*
Y380000D02*
D03*
X617500Y390000D02*
D03*
X630000Y392500D02*
D03*
X617500Y402500D02*
D03*
X630000Y405000D02*
D03*
X617500Y415000D02*
D03*
X630000Y417500D02*
D03*
X642500Y407500D02*
D03*
X655000D02*
D03*
X667500D02*
D03*
X690000Y362500D02*
D03*
X750000Y367500D02*
D03*
Y380000D02*
D03*
X737500Y390000D02*
D03*
X750000Y392500D02*
D03*
X737500Y402500D02*
D03*
X750000Y405000D02*
D03*
X737500Y415000D02*
D03*
X750000Y417500D02*
D03*
X762500Y407500D02*
D03*
X775000D02*
D03*
X787500D02*
D03*
X812500Y825000D02*
D03*
X822500Y815000D02*
D03*
X810000Y812500D02*
D03*
X810000Y772500D02*
D03*
X797500Y772500D02*
D03*
X785000D02*
D03*
X772500D02*
D03*
X750000Y817500D02*
D03*
Y805000D02*
D03*
Y792500D02*
D03*
X690000Y837500D02*
D03*
X677500Y782500D02*
D03*
X665000D02*
D03*
X652500D02*
D03*
X630000Y827500D02*
D03*
Y815000D02*
D03*
Y802500D02*
D03*
X570000Y835000D02*
D03*
X557500Y782500D02*
D03*
X545000D02*
D03*
X532500D02*
D03*
X510000Y827500D02*
D03*
Y815000D02*
D03*
Y802500D02*
D03*
X452500Y835000D02*
D03*
X462500Y825000D02*
D03*
X450000Y822500D02*
D03*
X450000Y782500D02*
D03*
X437500Y782500D02*
D03*
X425000D02*
D03*
X412500D02*
D03*
X390000Y827500D02*
D03*
Y815000D02*
D03*
Y802500D02*
D03*
X732500Y527500D02*
D03*
X767750D02*
D03*
X270000Y772500D02*
D03*
Y785000D02*
D03*
Y797500D02*
D03*
X292500Y752500D02*
D03*
X305000D02*
D03*
X317500D02*
D03*
X330000Y742500D02*
D03*
X342500Y745000D02*
D03*
X330000Y755000D02*
D03*
X342500Y757500D02*
D03*
X330000Y767500D02*
D03*
X342500Y770000D02*
D03*
X330000Y780000D02*
D03*
X342500Y782500D02*
D03*
X330000Y792500D02*
D03*
X342500Y795000D02*
D03*
X332500Y805000D02*
D03*
M02*
