G04*
G04 #@! TF.GenerationSoftware,Altium Limited,Altium Designer,24.6.1 (21)*
G04*
G04 Layer_Physical_Order=4*
G04 Layer_Color=16711680*
%FSLAX44Y44*%
%MOMM*%
G71*
G04*
G04 #@! TF.SameCoordinates,1A36414E-C70D-48DA-9C8D-44165C4E84B5*
G04*
G04*
G04 #@! TF.FilePolarity,Positive*
G04*
G01*
G75*
%ADD18R,0.9500X0.8000*%
%ADD30R,1.0500X0.9000*%
%ADD32R,0.9000X1.0500*%
%ADD50C,0.3500*%
%ADD51C,2.9000*%
%ADD52C,1.5300*%
%ADD53R,1.5300X1.5300*%
%ADD54R,4.8000X4.8000*%
%ADD55C,4.8000*%
%ADD56C,3.2000*%
%ADD57C,1.8000*%
%ADD58R,8.0000X8.0000*%
%ADD59C,8.0000*%
%ADD60C,1.0000*%
%ADD62R,2.1000X2.2500*%
%ADD63O,1.4500X0.6000*%
%ADD64R,1.4500X0.6000*%
%ADD65R,0.5334X1.7018*%
%ADD66R,0.6000X1.4500*%
%ADD67O,0.6000X1.4500*%
%ADD68R,1.7500X1.2500*%
%ADD69R,1.5000X2.1200*%
%ADD70C,1.8000*%
%ADD71C,0.7500*%
%ADD72C,2.5000*%
G36*
X564480Y1054996D02*
X587344Y1052995D01*
X610099Y1050000D01*
X632702Y1046014D01*
X655109Y1041047D01*
X677278Y1035106D01*
X699167Y1028205D01*
X720734Y1020355D01*
X741939Y1011572D01*
X762739Y1001872D01*
X783098Y991274D01*
X802974Y979799D01*
X822331Y967467D01*
X841131Y954303D01*
X859340Y940331D01*
X876922Y925578D01*
X893843Y910072D01*
X910073Y893843D01*
X925578Y876922D01*
X940331Y859340D01*
X954303Y841131D01*
X967467Y822331D01*
X979799Y802974D01*
X991274Y783098D01*
X1001872Y762739D01*
X1011572Y741939D01*
X1012309Y740160D01*
X1010364Y737250D01*
X1005000D01*
Y727500D01*
Y717750D01*
X1015500D01*
Y723485D01*
X1018933Y724168D01*
X1020355Y720734D01*
X1027128Y702126D01*
X1024302Y700219D01*
X1022719Y701802D01*
X1020781Y702921D01*
X1018619Y703500D01*
X1016381D01*
X1014219Y702921D01*
X1012281Y701802D01*
X1011750Y701271D01*
X1008250Y702721D01*
Y706500D01*
X1005353D01*
Y706750D01*
X1004945Y708798D01*
X1003785Y710535D01*
X999804Y714516D01*
X1001143Y717750D01*
X1001500D01*
Y727500D01*
Y737250D01*
X991000D01*
X991000Y737250D01*
X989000D01*
Y737250D01*
X987500Y737250D01*
X942500D01*
X940000Y737250D01*
X937500Y737250D01*
X928500D01*
Y727500D01*
X926750D01*
D01*
X928500D01*
Y717750D01*
X937097D01*
X939000Y717750D01*
X940597Y714911D01*
Y712701D01*
X940272Y712278D01*
X939617Y710697D01*
X939394Y709000D01*
Y700500D01*
X939617Y698803D01*
X940272Y697222D01*
X941314Y695864D01*
X942672Y694822D01*
X944253Y694167D01*
X945950Y693944D01*
X947647Y694167D01*
X949228Y694822D01*
X949969Y695391D01*
X952977Y694858D01*
X953615Y694590D01*
X953838Y694353D01*
X954865Y692815D01*
X958966Y688715D01*
X960702Y687555D01*
X961564Y687383D01*
X963037Y683907D01*
X942250Y663120D01*
X941885Y663132D01*
X938750Y664224D01*
X938750Y666000D01*
Y668750D01*
X930000D01*
X921250D01*
Y666000D01*
X921250Y662500D01*
X918640Y660353D01*
X909187D01*
X907139Y659945D01*
X905402Y658785D01*
X900783Y654165D01*
X894094D01*
X892702Y656575D01*
X890375Y658903D01*
X889157Y659606D01*
X889157Y663595D01*
X890375Y664298D01*
X892702Y666625D01*
X894348Y669475D01*
X895172Y672550D01*
X882700D01*
Y676050D01*
X895172D01*
X894348Y679125D01*
X892702Y681975D01*
X890375Y684303D01*
X889158Y685006D01*
Y688995D01*
X890375Y689698D01*
X892702Y692025D01*
X894348Y694876D01*
X895172Y697950D01*
X882700D01*
Y701450D01*
X895172D01*
X894348Y704525D01*
X892702Y707376D01*
X890375Y709703D01*
X889158Y710405D01*
X889158Y714395D01*
X890375Y715098D01*
X892702Y717425D01*
X894348Y720275D01*
X895172Y723350D01*
X882700D01*
Y726850D01*
X895172D01*
X894348Y729925D01*
X892702Y732775D01*
X890375Y735102D01*
X889157Y735805D01*
X889158Y739795D01*
X890375Y740498D01*
X892703Y742825D01*
X894348Y745675D01*
X895172Y748750D01*
X882700D01*
Y752250D01*
X895172D01*
X894348Y755325D01*
X892703Y758175D01*
X890375Y760502D01*
X889158Y761205D01*
X889158Y765195D01*
X890375Y765898D01*
X892702Y768225D01*
X894348Y771075D01*
X895172Y774150D01*
X882700D01*
Y777650D01*
X895172D01*
X894348Y780725D01*
X892702Y783575D01*
X890375Y785902D01*
X889158Y786605D01*
X889158Y790595D01*
X890375Y791297D01*
X892702Y793625D01*
X894348Y796475D01*
X895200Y799654D01*
Y802945D01*
X894348Y806125D01*
X892702Y808975D01*
X890375Y811302D01*
X887525Y812948D01*
X884346Y813800D01*
X881054D01*
X877875Y812948D01*
X875025Y811302D01*
X872697Y808975D01*
X872488Y808613D01*
X867512D01*
X867303Y808975D01*
X864975Y811302D01*
X862125Y812948D01*
X858946Y813800D01*
X855655D01*
X852475Y812948D01*
X849625Y811302D01*
X847298Y808975D01*
X845652Y806125D01*
X844800Y802946D01*
Y799654D01*
X844909Y799250D01*
X836802Y791143D01*
X833569Y792483D01*
Y820000D01*
X833297Y821366D01*
X832523Y822523D01*
X820023Y835023D01*
X818866Y835797D01*
X817500Y836069D01*
X799801D01*
X798928Y837437D01*
X798459Y839569D01*
X800976Y842085D01*
X803520Y845587D01*
X805485Y849444D01*
X806823Y853560D01*
X807500Y857836D01*
Y862164D01*
X806823Y866440D01*
X805485Y870556D01*
X803520Y874413D01*
X800976Y877915D01*
X797915Y880976D01*
X794413Y883520D01*
X790556Y885485D01*
X786440Y886823D01*
X782164Y887500D01*
X777836D01*
X773560Y886823D01*
X769444Y885485D01*
X765587Y883520D01*
X762085Y880976D01*
X759024Y877915D01*
X756480Y874413D01*
X754515Y870556D01*
X753177Y866440D01*
X752500Y862164D01*
Y857836D01*
X753177Y853560D01*
X754515Y849444D01*
X756480Y845587D01*
X759024Y842085D01*
X761541Y839569D01*
X761072Y837437D01*
X760199Y836069D01*
X756478D01*
X750023Y842523D01*
X748866Y843297D01*
X747500Y843569D01*
X744000D01*
Y855500D01*
X716000D01*
Y843207D01*
X714977Y842523D01*
X709977Y837523D01*
X706471Y838576D01*
X700023Y845023D01*
X698866Y845797D01*
X697500Y846068D01*
X679801D01*
X678928Y847437D01*
X678459Y849568D01*
X680976Y852085D01*
X683520Y855587D01*
X685485Y859444D01*
X686823Y863560D01*
X687500Y867836D01*
Y872164D01*
X686823Y876440D01*
X685485Y880556D01*
X683520Y884413D01*
X680976Y887915D01*
X677915Y890976D01*
X674413Y893520D01*
X670556Y895485D01*
X666440Y896823D01*
X662164Y897500D01*
X657836D01*
X653560Y896823D01*
X649444Y895485D01*
X645587Y893520D01*
X642085Y890976D01*
X639024Y887915D01*
X636480Y884413D01*
X634515Y880556D01*
X633177Y876440D01*
X632500Y872164D01*
Y867836D01*
X633177Y863560D01*
X634515Y859444D01*
X636480Y855587D01*
X639024Y852085D01*
X641541Y849568D01*
X641072Y847437D01*
X640199Y846068D01*
X636478D01*
X630023Y852523D01*
X628866Y853297D01*
X627500Y853568D01*
X624000D01*
Y865500D01*
X596000D01*
Y853207D01*
X594977Y852523D01*
X589977Y847523D01*
X589203Y846366D01*
X588931Y845000D01*
Y840688D01*
X585698Y839349D01*
X580023Y845023D01*
X578866Y845797D01*
X577500Y846068D01*
X559801D01*
X558928Y847437D01*
X558459Y849568D01*
X560976Y852085D01*
X563520Y855587D01*
X565485Y859444D01*
X566823Y863560D01*
X567500Y867836D01*
Y872164D01*
X566823Y876440D01*
X565485Y880556D01*
X563520Y884413D01*
X560976Y887915D01*
X557915Y890976D01*
X554413Y893520D01*
X550556Y895485D01*
X546440Y896823D01*
X542164Y897500D01*
X537836D01*
X533560Y896823D01*
X529444Y895485D01*
X525587Y893520D01*
X522085Y890976D01*
X519024Y887915D01*
X516480Y884413D01*
X514515Y880556D01*
X513177Y876440D01*
X512500Y872164D01*
Y867836D01*
X513177Y863560D01*
X514515Y859444D01*
X516480Y855587D01*
X519024Y852085D01*
X521541Y849568D01*
X521072Y847437D01*
X520199Y846068D01*
X516478D01*
X510023Y852523D01*
X508866Y853297D01*
X507500Y853568D01*
X504000D01*
Y865500D01*
X476000D01*
Y853207D01*
X474977Y852523D01*
X469977Y847523D01*
X469203Y846366D01*
X468931Y845000D01*
Y840688D01*
X465698Y839349D01*
X460023Y845023D01*
X458866Y845797D01*
X457500Y846069D01*
X439801D01*
X438928Y847437D01*
X438459Y849569D01*
X440976Y852085D01*
X443520Y855587D01*
X445485Y859444D01*
X446823Y863560D01*
X447500Y867836D01*
Y872164D01*
X446823Y876440D01*
X445485Y880556D01*
X443520Y884413D01*
X440976Y887915D01*
X437915Y890976D01*
X434413Y893520D01*
X430556Y895485D01*
X426440Y896823D01*
X422164Y897500D01*
X417836D01*
X413560Y896823D01*
X409444Y895485D01*
X405587Y893520D01*
X402085Y890976D01*
X399024Y887915D01*
X396480Y884413D01*
X394515Y880556D01*
X393177Y876440D01*
X392500Y872164D01*
Y867836D01*
X393177Y863560D01*
X394515Y859444D01*
X396480Y855587D01*
X399024Y852085D01*
X401541Y849569D01*
X401072Y847437D01*
X400199Y846069D01*
X396478D01*
X390023Y852523D01*
X388866Y853297D01*
X387500Y853569D01*
X384000D01*
Y865500D01*
X356000D01*
Y853207D01*
X354977Y852523D01*
X349977Y847523D01*
X349203Y846366D01*
X348931Y845000D01*
X348931Y815000D01*
X349203Y813634D01*
X349977Y812477D01*
X382477Y779977D01*
X392477Y769977D01*
X393634Y769203D01*
X395000Y768931D01*
X449000D01*
Y764203D01*
X392818D01*
X392719Y764302D01*
X390781Y765421D01*
X388619Y766000D01*
X386381D01*
X384219Y765421D01*
X382281Y764302D01*
X380698Y762719D01*
X379579Y760781D01*
X379000Y758619D01*
Y756570D01*
X362565Y740135D01*
X361405Y738399D01*
X360998Y736350D01*
Y688303D01*
X360146Y687622D01*
X357498Y686740D01*
X356928Y687177D01*
X355347Y687832D01*
X353650Y688055D01*
X351954Y687832D01*
X350372Y687177D01*
X349483Y686495D01*
X348885Y686135D01*
X345715D01*
X345117Y686495D01*
X344228Y687177D01*
X342647Y687832D01*
X340950Y688055D01*
X339254Y687832D01*
X337672Y687177D01*
X336315Y686135D01*
X335273Y684777D01*
X334618Y683196D01*
X334539Y682602D01*
X279968D01*
X255353Y707217D01*
Y714750D01*
X261000D01*
Y717396D01*
X264063Y719473D01*
X264500Y719504D01*
X266381Y719000D01*
X268619D01*
X270781Y719579D01*
X272719Y720698D01*
X272931Y720911D01*
X276431Y719461D01*
Y717500D01*
X276703Y716134D01*
X277477Y714977D01*
X278634Y714203D01*
X280000Y713931D01*
X325000D01*
X326366Y714203D01*
X327523Y714977D01*
X352523Y739977D01*
X353297Y741134D01*
X353569Y742500D01*
Y800000D01*
X353297Y801366D01*
X352523Y802523D01*
X340023Y815023D01*
X338866Y815797D01*
X337500Y816069D01*
X319802D01*
X318928Y817437D01*
X318459Y819569D01*
X320976Y822085D01*
X323520Y825587D01*
X325485Y829444D01*
X326823Y833560D01*
X327500Y837836D01*
Y842164D01*
X326823Y846440D01*
X325485Y850556D01*
X323520Y854413D01*
X320976Y857915D01*
X317915Y860976D01*
X314413Y863520D01*
X310556Y865485D01*
X306440Y866823D01*
X302164Y867500D01*
X297836D01*
X293560Y866823D01*
X289444Y865485D01*
X285587Y863520D01*
X282085Y860976D01*
X279024Y857915D01*
X276480Y854413D01*
X274515Y850556D01*
X273177Y846440D01*
X272500Y842164D01*
Y837836D01*
X273177Y833560D01*
X274515Y829444D01*
X276480Y825587D01*
X279024Y822085D01*
X281541Y819569D01*
X281072Y817437D01*
X280198Y816069D01*
X276478D01*
X270023Y822523D01*
X268866Y823297D01*
X267500Y823569D01*
X264000D01*
Y835500D01*
X236000D01*
Y823207D01*
X234977Y822523D01*
X229977Y817523D01*
X229203Y816366D01*
X228931Y815000D01*
Y760000D01*
X229203Y758634D01*
X229977Y757477D01*
X237477Y749977D01*
X238634Y749203D01*
X240000Y748931D01*
X263522D01*
X274094Y738359D01*
X273950Y737633D01*
X272286Y736471D01*
X269983Y735634D01*
X268619Y736000D01*
X266381D01*
X264500Y735496D01*
X264063Y735527D01*
X261000Y737604D01*
Y742950D01*
X239000D01*
Y714750D01*
X244647D01*
Y705000D01*
X245055Y702952D01*
X246215Y701215D01*
X266061Y681368D01*
X266194Y680674D01*
X265350Y677131D01*
X264781Y676802D01*
X263199Y675220D01*
X262080Y673281D01*
X261812Y672283D01*
X258189D01*
X257921Y673281D01*
X256802Y675220D01*
X255219Y676802D01*
X253281Y677921D01*
X251119Y678501D01*
X248881D01*
X246719Y677921D01*
X244781Y676802D01*
X243199Y675220D01*
X242080Y673281D01*
X241500Y671120D01*
Y668882D01*
X242080Y666720D01*
X243199Y664781D01*
X244781Y663199D01*
X246719Y662080D01*
X248881Y661501D01*
X251119D01*
X253281Y662080D01*
X255219Y663199D01*
X256802Y664781D01*
X257921Y666720D01*
X258189Y667718D01*
X261812D01*
X262080Y666720D01*
X263199Y664781D01*
X264781Y663199D01*
X266719Y662080D01*
X268881Y661501D01*
X271119D01*
X273281Y662080D01*
X275219Y663199D01*
X276802Y664781D01*
X277921Y666720D01*
X278500Y668882D01*
Y671120D01*
X279096Y671896D01*
X334539D01*
X334618Y671302D01*
X335273Y669721D01*
X335970Y668813D01*
X335545Y667040D01*
X334541Y665313D01*
X328750D01*
Y666000D01*
X311250D01*
Y655373D01*
X310809Y655115D01*
X306802Y655220D01*
X305219Y656802D01*
X303281Y657921D01*
X301119Y658501D01*
X298881D01*
X296719Y657921D01*
X294781Y656802D01*
X293199Y655220D01*
X292080Y653281D01*
X291812Y652283D01*
X288189D01*
X287921Y653281D01*
X286802Y655220D01*
X285219Y656802D01*
X283281Y657921D01*
X281119Y658501D01*
X278881D01*
X276719Y657921D01*
X274781Y656802D01*
X273199Y655220D01*
X272080Y653281D01*
X271812Y652283D01*
X268189D01*
X267921Y653281D01*
X266802Y655220D01*
X265219Y656802D01*
X263281Y657921D01*
X261119Y658501D01*
X258881D01*
X256719Y657921D01*
X254781Y656802D01*
X253199Y655220D01*
X252080Y653281D01*
X251812Y652283D01*
X248189D01*
X247921Y653281D01*
X246802Y655220D01*
X245219Y656802D01*
X243281Y657921D01*
X241119Y658501D01*
X238881D01*
X236719Y657921D01*
X234781Y656802D01*
X233199Y655220D01*
X232080Y653281D01*
X232000Y652984D01*
X228500Y653445D01*
Y686556D01*
X232000Y687017D01*
X232080Y686720D01*
X233199Y684781D01*
X234781Y683199D01*
X236719Y682080D01*
X238881Y681501D01*
X241119D01*
X243281Y682080D01*
X245219Y683199D01*
X246802Y684781D01*
X247921Y686720D01*
X248500Y688882D01*
Y691120D01*
X247921Y693281D01*
X246802Y695220D01*
X245219Y696802D01*
X243281Y697921D01*
X241119Y698501D01*
X238881D01*
X236719Y697921D01*
X234781Y696802D01*
X233199Y695220D01*
X232080Y693281D01*
X232000Y692984D01*
X228500Y693445D01*
Y703500D01*
X141500D01*
Y616500D01*
X149896D01*
X151973Y613439D01*
X152004Y613000D01*
X151500Y611120D01*
Y608881D01*
X152080Y606720D01*
X153199Y604781D01*
X154781Y603199D01*
X156719Y602080D01*
X158881Y601501D01*
X161119D01*
X163281Y602080D01*
X165219Y603199D01*
X166802Y604781D01*
X167921Y606720D01*
X168189Y607718D01*
X171812D01*
X172080Y606720D01*
X173199Y604781D01*
X174781Y603199D01*
X176719Y602080D01*
X178881Y601501D01*
X181119D01*
X183281Y602080D01*
X185219Y603199D01*
X186802Y604781D01*
X187921Y606720D01*
X188189Y607718D01*
X191812D01*
X192080Y606720D01*
X193199Y604781D01*
X194781Y603199D01*
X196719Y602080D01*
X198881Y601501D01*
X201119D01*
X203281Y602080D01*
X205219Y603199D01*
X206802Y604781D01*
X207921Y606720D01*
X208189Y607718D01*
X211812D01*
X212080Y606720D01*
X213199Y604781D01*
X214781Y603199D01*
X216719Y602080D01*
X218881Y601501D01*
X221119D01*
X223281Y602080D01*
X225219Y603199D01*
X226802Y604781D01*
X227921Y606720D01*
X228189Y607718D01*
X231812D01*
X232080Y606720D01*
X233199Y604781D01*
X234781Y603199D01*
X236719Y602080D01*
X238881Y601501D01*
X241119D01*
X243281Y602080D01*
X245219Y603199D01*
X246802Y604781D01*
X247921Y606720D01*
X248189Y607718D01*
X251812D01*
X252080Y606720D01*
X253199Y604781D01*
X254781Y603199D01*
X256719Y602080D01*
X258881Y601501D01*
X261119D01*
X263281Y602080D01*
X265219Y603199D01*
X266802Y604781D01*
X267921Y606720D01*
X268189Y607718D01*
X271812D01*
X272080Y606720D01*
X273199Y604781D01*
X274781Y603199D01*
X276719Y602080D01*
X278881Y601501D01*
X281119D01*
X283281Y602080D01*
X285219Y603199D01*
X286802Y604781D01*
X287921Y606720D01*
X288189Y607718D01*
X291812D01*
X292080Y606720D01*
X293199Y604781D01*
X294781Y603199D01*
X296719Y602080D01*
X298881Y601501D01*
X301119D01*
X303281Y602080D01*
X305219Y603199D01*
X306802Y604781D01*
X307921Y606720D01*
X308500Y608881D01*
Y611120D01*
X307921Y613281D01*
X306802Y615220D01*
X305219Y616802D01*
X303281Y617921D01*
X301119Y618501D01*
X298881D01*
X296719Y617921D01*
X294781Y616802D01*
X293199Y615220D01*
X292080Y613281D01*
X291812Y612283D01*
X288189D01*
X287921Y613281D01*
X286802Y615220D01*
X285219Y616802D01*
X283281Y617921D01*
X281119Y618501D01*
X278881D01*
X276719Y617921D01*
X274781Y616802D01*
X273199Y615220D01*
X272080Y613281D01*
X271812Y612283D01*
X268189D01*
X267921Y613281D01*
X266802Y615220D01*
X265219Y616802D01*
X263281Y617921D01*
X261119Y618501D01*
X258881D01*
X256719Y617921D01*
X254781Y616802D01*
X253199Y615220D01*
X252080Y613281D01*
X251812Y612283D01*
X248189D01*
X247921Y613281D01*
X246802Y615220D01*
X245219Y616802D01*
X243281Y617921D01*
X241119Y618501D01*
X238881D01*
X236719Y617921D01*
X234781Y616802D01*
X233199Y615220D01*
X233153Y615140D01*
X233015Y615025D01*
X229020Y614814D01*
X228390Y615755D01*
X228500Y616500D01*
X228500D01*
Y646556D01*
X232000Y647017D01*
X232080Y646720D01*
X233199Y644781D01*
X234781Y643199D01*
X236719Y642080D01*
X238881Y641501D01*
X241119D01*
X243281Y642080D01*
X245219Y643199D01*
X246802Y644781D01*
X247921Y646720D01*
X248189Y647718D01*
X251812D01*
X252080Y646720D01*
X253199Y644781D01*
X254781Y643199D01*
X256719Y642080D01*
X258881Y641501D01*
X261119D01*
X263281Y642080D01*
X265219Y643199D01*
X266802Y644781D01*
X267921Y646720D01*
X268189Y647718D01*
X271812D01*
X272080Y646720D01*
X273199Y644781D01*
X274781Y643199D01*
X276719Y642080D01*
X278881Y641501D01*
X281119D01*
X283281Y642080D01*
X285219Y643199D01*
X286802Y644781D01*
X287921Y646720D01*
X288189Y647718D01*
X291812D01*
X292080Y646720D01*
X293199Y644781D01*
X294781Y643199D01*
X296719Y642080D01*
X298881Y641501D01*
X301119D01*
X303281Y642080D01*
X305219Y643199D01*
X306802Y644781D01*
X310809Y644886D01*
X311250Y644629D01*
Y643750D01*
X328750D01*
Y646500D01*
X328750Y650000D01*
X331965Y650687D01*
X548035D01*
X551250Y650000D01*
X551250Y646500D01*
Y643750D01*
X568750D01*
Y646500D01*
X568750Y650000D01*
X570712Y652687D01*
X738687D01*
Y598284D01*
X735220Y596802D01*
X733281Y597921D01*
X731120Y598501D01*
X728882D01*
X726720Y597921D01*
X724781Y596802D01*
X723199Y595220D01*
X722080Y593281D01*
X721812Y592283D01*
X718189D01*
X717921Y593281D01*
X716802Y595220D01*
X715220Y596802D01*
X713281Y597921D01*
X711120Y598501D01*
X708882D01*
X706720Y597921D01*
X704781Y596802D01*
X703199Y595220D01*
X702080Y593281D01*
X701501Y591120D01*
Y588881D01*
X702080Y586720D01*
X703199Y584781D01*
X704781Y583199D01*
X706720Y582080D01*
X708882Y581501D01*
X711120D01*
X713281Y582080D01*
X715220Y583199D01*
X716802Y584781D01*
X717921Y586720D01*
X718189Y587718D01*
X721812D01*
X722080Y586720D01*
X723199Y584781D01*
X724781Y583199D01*
X726720Y582080D01*
X728882Y581501D01*
X731120D01*
X733281Y582080D01*
X735220Y583199D01*
X738687Y581717D01*
Y558284D01*
X735220Y556802D01*
X733281Y557921D01*
X731120Y558501D01*
X728882D01*
X726720Y557921D01*
X724781Y556802D01*
X723199Y555220D01*
X722080Y553281D01*
X721812Y552283D01*
X718189D01*
X717921Y553281D01*
X716802Y555220D01*
X715220Y556802D01*
X713281Y557921D01*
X711120Y558501D01*
X708882D01*
X706720Y557921D01*
X704781Y556802D01*
X703199Y555220D01*
X702080Y553281D01*
X701812Y552283D01*
X698189D01*
X697921Y553281D01*
X696802Y555220D01*
X695220Y556802D01*
X693281Y557921D01*
X691120Y558501D01*
X688882D01*
X686720Y557921D01*
X684781Y556802D01*
X683199Y555220D01*
X682080Y553281D01*
X681501Y551120D01*
Y551019D01*
X678001Y549569D01*
X649569Y578001D01*
X651019Y581501D01*
X651120D01*
X653281Y582080D01*
X655220Y583199D01*
X656802Y584781D01*
X657921Y586720D01*
X658501Y588881D01*
Y591120D01*
X657921Y593281D01*
X656802Y595220D01*
X655220Y596802D01*
X653281Y597921D01*
X651120Y598501D01*
X648882D01*
X646720Y597921D01*
X644781Y596802D01*
X643199Y595220D01*
X642080Y593281D01*
X641501Y591120D01*
Y591019D01*
X638001Y589569D01*
X637954Y589616D01*
X636218Y590776D01*
X634169Y591184D01*
X611703D01*
Y608851D01*
X612550Y612000D01*
X625550D01*
Y633500D01*
X612550D01*
Y633500D01*
X609050Y632917D01*
X608047Y633333D01*
X606350Y633556D01*
X604653Y633333D01*
X603072Y632678D01*
X602183Y631996D01*
X601585Y631636D01*
X598415D01*
X597817Y631996D01*
X596928Y632678D01*
X595400Y633311D01*
Y622750D01*
Y612189D01*
X596928Y612822D01*
X597497Y613259D01*
X600145Y612377D01*
X600997Y611696D01*
Y591184D01*
X586303D01*
Y611696D01*
X587155Y612377D01*
X589803Y613259D01*
X590372Y612822D01*
X591900Y612189D01*
Y622750D01*
Y633311D01*
X590372Y632678D01*
X589483Y631996D01*
X588885Y631636D01*
X585715D01*
X585117Y631996D01*
X584228Y632678D01*
X582647Y633333D01*
X580950Y633556D01*
X579253Y633333D01*
X577672Y632678D01*
X576314Y631636D01*
X575272Y630278D01*
X574617Y628697D01*
X574394Y627000D01*
Y618500D01*
X574617Y616803D01*
X575272Y615222D01*
X575597Y614799D01*
Y592252D01*
X371703D01*
Y608850D01*
X372550Y611999D01*
X385550D01*
Y633499D01*
X372550D01*
Y633499D01*
X369050Y632916D01*
X368047Y633332D01*
X366350Y633555D01*
X364654Y633332D01*
X363072Y632677D01*
X362183Y631995D01*
X361585Y631635D01*
X358415D01*
X357817Y631995D01*
X356928Y632677D01*
X355400Y633310D01*
Y622749D01*
Y612188D01*
X356928Y612821D01*
X357498Y613258D01*
X360146Y612376D01*
X360998Y611695D01*
Y592252D01*
X350318D01*
X346303Y596267D01*
Y611695D01*
X347155Y612376D01*
X349803Y613258D01*
X350372Y612821D01*
X351900Y612188D01*
Y622749D01*
Y633310D01*
X350372Y632677D01*
X349483Y631995D01*
X348885Y631635D01*
X345715D01*
X345117Y631995D01*
X344228Y632677D01*
X342647Y633332D01*
X340950Y633555D01*
X339254Y633332D01*
X337672Y632677D01*
X336315Y631635D01*
X335273Y630277D01*
X334618Y628696D01*
X334394Y626999D01*
Y618499D01*
X334618Y616802D01*
X335273Y615221D01*
X335598Y614798D01*
Y594050D01*
X336005Y592001D01*
X337165Y590265D01*
X344315Y583115D01*
X346052Y581954D01*
X348101Y581547D01*
X348297D01*
Y561149D01*
X347450Y558000D01*
X334450D01*
Y536500D01*
X334450Y536500D01*
X334450D01*
X333638Y535669D01*
X333199Y535220D01*
X332080Y533281D01*
X331812Y532283D01*
X328189D01*
X327921Y533281D01*
X326802Y535220D01*
X325219Y536802D01*
X323281Y537921D01*
X321119Y538501D01*
X318881D01*
X316719Y537921D01*
X314781Y536802D01*
X313199Y535220D01*
X312080Y533281D01*
X311812Y532283D01*
X308189D01*
X307921Y533281D01*
X306802Y535220D01*
X305219Y536802D01*
X303281Y537921D01*
X301119Y538501D01*
X298881D01*
X296719Y537921D01*
X294781Y536802D01*
X293199Y535220D01*
X292080Y533281D01*
X291812Y532283D01*
X288189D01*
X287921Y533281D01*
X286802Y535220D01*
X285219Y536802D01*
X283281Y537921D01*
X281119Y538501D01*
X278881D01*
X276719Y537921D01*
X274781Y536802D01*
X273199Y535220D01*
X272080Y533281D01*
X271812Y532283D01*
X268189D01*
X267921Y533281D01*
X266802Y535220D01*
X265219Y536802D01*
X263281Y537921D01*
X261119Y538501D01*
X258881D01*
X256719Y537921D01*
X254781Y536802D01*
X253199Y535220D01*
X252080Y533281D01*
X251812Y532283D01*
X248189D01*
X247921Y533281D01*
X246802Y535220D01*
X245219Y536802D01*
X243281Y537921D01*
X241119Y538501D01*
X238881D01*
X236719Y537921D01*
X234781Y536802D01*
X233199Y535220D01*
X232080Y533281D01*
X231812Y532283D01*
X228189D01*
X227921Y533281D01*
X226802Y535220D01*
X225219Y536802D01*
X223281Y537921D01*
X221119Y538501D01*
X218881D01*
X216719Y537921D01*
X214781Y536802D01*
X213199Y535220D01*
X212080Y533281D01*
X211812Y532283D01*
X208189D01*
X207921Y533281D01*
X206802Y535220D01*
X205219Y536802D01*
X203281Y537921D01*
X201119Y538501D01*
X198881D01*
X196719Y537921D01*
X194781Y536802D01*
X193199Y535220D01*
X192080Y533281D01*
X191812Y532283D01*
X188189D01*
X187921Y533281D01*
X186802Y535220D01*
X185219Y536802D01*
X183281Y537921D01*
X181119Y538501D01*
X178881D01*
X176719Y537921D01*
X174781Y536802D01*
X173199Y535220D01*
X172080Y533281D01*
X171812Y532283D01*
X168189D01*
X167921Y533281D01*
X166802Y535220D01*
X165219Y536802D01*
X163281Y537921D01*
X161119Y538501D01*
X158881D01*
X156719Y537921D01*
X154781Y536802D01*
X153199Y535220D01*
X152080Y533281D01*
X151500Y531120D01*
Y528881D01*
X152080Y526720D01*
X153199Y524781D01*
X154781Y523199D01*
X156719Y522080D01*
X158881Y521501D01*
X161119D01*
X163281Y522080D01*
X165219Y523199D01*
X166802Y524781D01*
X167921Y526720D01*
X168189Y527718D01*
X171812D01*
X172080Y526720D01*
X173199Y524781D01*
X174781Y523199D01*
X176719Y522080D01*
X178881Y521501D01*
X181119D01*
X183281Y522080D01*
X185219Y523199D01*
X186802Y524781D01*
X187921Y526720D01*
X188189Y527718D01*
X191812D01*
X192080Y526720D01*
X193199Y524781D01*
X194781Y523199D01*
X196719Y522080D01*
X198881Y521501D01*
X201119D01*
X203281Y522080D01*
X205219Y523199D01*
X206802Y524781D01*
X207921Y526720D01*
X208189Y527718D01*
X211812D01*
X212080Y526720D01*
X213199Y524781D01*
X214781Y523199D01*
X216719Y522080D01*
X218881Y521501D01*
X221119D01*
X223281Y522080D01*
X225219Y523199D01*
X226802Y524781D01*
X227921Y526720D01*
X228189Y527718D01*
X231812D01*
X232080Y526720D01*
X233199Y524781D01*
X234781Y523199D01*
X236719Y522080D01*
X238881Y521501D01*
X241119D01*
X243281Y522080D01*
X245219Y523199D01*
X246802Y524781D01*
X247921Y526720D01*
X248189Y527718D01*
X251812D01*
X252080Y526720D01*
X253199Y524781D01*
X254781Y523199D01*
X256719Y522080D01*
X258881Y521501D01*
X261119D01*
X263281Y522080D01*
X265219Y523199D01*
X266802Y524781D01*
X267921Y526720D01*
X268189Y527718D01*
X271812D01*
X272080Y526720D01*
X273199Y524781D01*
X274781Y523199D01*
X276719Y522080D01*
X278881Y521501D01*
X281119D01*
X283281Y522080D01*
X285219Y523199D01*
X286802Y524781D01*
X287921Y526720D01*
X288189Y527718D01*
X291812D01*
X292080Y526720D01*
X293199Y524781D01*
X294781Y523199D01*
X296719Y522080D01*
X298881Y521501D01*
X301119D01*
X303281Y522080D01*
X305219Y523199D01*
X306802Y524781D01*
X307921Y526720D01*
X308189Y527718D01*
X311812D01*
X312080Y526720D01*
X313199Y524781D01*
X314781Y523199D01*
X316719Y522080D01*
X318881Y521501D01*
X321119D01*
X323281Y522080D01*
X325219Y523199D01*
X326802Y524781D01*
X327921Y526720D01*
X328189Y527718D01*
X331812D01*
X332080Y526720D01*
X333199Y524781D01*
X334781Y523199D01*
X336720Y522080D01*
X338881Y521501D01*
X341119D01*
X343281Y522080D01*
X345219Y523199D01*
X346802Y524781D01*
X347921Y526720D01*
X348189Y527718D01*
X351812D01*
X352080Y526720D01*
X353199Y524781D01*
X354781Y523199D01*
X356720Y522080D01*
X358881Y521501D01*
X361119D01*
X363281Y522080D01*
X365219Y523199D01*
X366802Y524781D01*
X367921Y526720D01*
X368500Y528881D01*
Y531120D01*
X367963Y533126D01*
X367926Y533409D01*
X367936Y533674D01*
X369463Y537254D01*
X369628Y537322D01*
X370517Y538004D01*
X371115Y538364D01*
X374285D01*
X374883Y538004D01*
X375772Y537322D01*
X377353Y536667D01*
X379050Y536444D01*
X380747Y536667D01*
X382328Y537322D01*
X383686Y538364D01*
X384728Y539722D01*
X385383Y541303D01*
X385606Y543000D01*
Y551500D01*
X385383Y553197D01*
X384728Y554778D01*
X384403Y555201D01*
Y581547D01*
X577912D01*
X578902Y580886D01*
X580950Y580478D01*
X588297D01*
Y561149D01*
X587450Y558000D01*
X574450D01*
Y536500D01*
X574450Y536500D01*
X574450D01*
X573638Y535669D01*
X573199Y535220D01*
X572080Y533281D01*
X571812Y532283D01*
X568189D01*
X567921Y533281D01*
X566802Y535220D01*
X565220Y536802D01*
X563281Y537921D01*
X561120Y538501D01*
X558881D01*
X556720Y537921D01*
X554781Y536802D01*
X553199Y535220D01*
X552080Y533281D01*
X551812Y532283D01*
X548189D01*
X547921Y533281D01*
X546802Y535220D01*
X545220Y536802D01*
X543281Y537921D01*
X541120Y538501D01*
X538881D01*
X536720Y537921D01*
X534781Y536802D01*
X533199Y535220D01*
X532080Y533281D01*
X531812Y532283D01*
X528189D01*
X527921Y533281D01*
X526802Y535220D01*
X525220Y536802D01*
X523281Y537921D01*
X521120Y538501D01*
X518881D01*
X516720Y537921D01*
X514781Y536802D01*
X513199Y535220D01*
X512080Y533281D01*
X511812Y532283D01*
X508189D01*
X507921Y533281D01*
X506802Y535220D01*
X505220Y536802D01*
X503281Y537921D01*
X501119Y538501D01*
X498881D01*
X496720Y537921D01*
X494781Y536802D01*
X493199Y535220D01*
X492080Y533281D01*
X491812Y532283D01*
X488189D01*
X487921Y533281D01*
X486802Y535220D01*
X485220Y536802D01*
X483281Y537921D01*
X481119Y538501D01*
X478881D01*
X476720Y537921D01*
X474781Y536802D01*
X473199Y535220D01*
X472080Y533281D01*
X471812Y532283D01*
X468189D01*
X467921Y533281D01*
X466802Y535220D01*
X465220Y536802D01*
X463281Y537921D01*
X461119Y538501D01*
X458881D01*
X456720Y537921D01*
X454781Y536802D01*
X453199Y535220D01*
X452080Y533281D01*
X451812Y532283D01*
X448189D01*
X447921Y533281D01*
X446802Y535220D01*
X445220Y536802D01*
X443281Y537921D01*
X441119Y538501D01*
X438881D01*
X436720Y537921D01*
X434781Y536802D01*
X433199Y535220D01*
X432080Y533281D01*
X431812Y532283D01*
X428189D01*
X427921Y533281D01*
X426802Y535220D01*
X425220Y536802D01*
X423281Y537921D01*
X421119Y538501D01*
X418881D01*
X416720Y537921D01*
X414781Y536802D01*
X413199Y535220D01*
X409190Y535109D01*
X408750Y535366D01*
Y536000D01*
X401750D01*
Y528000D01*
X400000D01*
Y526250D01*
X391250D01*
Y523500D01*
X391250Y520000D01*
X388035Y519313D01*
X372000D01*
X370107Y519063D01*
X368344Y518333D01*
X366829Y517171D01*
X361839Y512181D01*
X359292Y512445D01*
X357972Y513091D01*
X357921Y513281D01*
X356802Y515220D01*
X355219Y516802D01*
X353281Y517921D01*
X351119Y518501D01*
X348881D01*
X346720Y517921D01*
X344781Y516802D01*
X343199Y515220D01*
X342080Y513281D01*
X341812Y512283D01*
X338189D01*
X337921Y513281D01*
X336802Y515220D01*
X335219Y516802D01*
X333281Y517921D01*
X331119Y518501D01*
X328881D01*
X326720Y517921D01*
X324781Y516802D01*
X323199Y515220D01*
X322080Y513281D01*
X321812Y512283D01*
X318189D01*
X317921Y513281D01*
X316802Y515220D01*
X315219Y516802D01*
X313281Y517921D01*
X311119Y518501D01*
X308881D01*
X306719Y517921D01*
X304781Y516802D01*
X303199Y515220D01*
X302080Y513281D01*
X301812Y512283D01*
X298189D01*
X297921Y513281D01*
X296802Y515220D01*
X295219Y516802D01*
X293281Y517921D01*
X291119Y518501D01*
X288881D01*
X286719Y517921D01*
X284781Y516802D01*
X283199Y515220D01*
X282080Y513281D01*
X281812Y512283D01*
X278189D01*
X277921Y513281D01*
X276802Y515220D01*
X275219Y516802D01*
X273281Y517921D01*
X271119Y518501D01*
X268881D01*
X266719Y517921D01*
X264781Y516802D01*
X263199Y515220D01*
X262080Y513281D01*
X261812Y512283D01*
X258189D01*
X257921Y513281D01*
X256802Y515220D01*
X255219Y516802D01*
X253281Y517921D01*
X251119Y518501D01*
X248881D01*
X246719Y517921D01*
X244781Y516802D01*
X243199Y515220D01*
X242080Y513281D01*
X241500Y511120D01*
Y508881D01*
X242080Y506720D01*
X243199Y504781D01*
X244781Y503199D01*
X246719Y502080D01*
X248881Y501501D01*
X251119D01*
X253281Y502080D01*
X255219Y503199D01*
X256802Y504781D01*
X257921Y506720D01*
X258189Y507718D01*
X261812D01*
X262080Y506720D01*
X263199Y504781D01*
X264781Y503199D01*
X266719Y502080D01*
X268881Y501501D01*
X271119D01*
X273281Y502080D01*
X275219Y503199D01*
X276802Y504781D01*
X277921Y506720D01*
X278189Y507718D01*
X281812D01*
X282080Y506720D01*
X283199Y504781D01*
X284781Y503199D01*
X286719Y502080D01*
X288881Y501501D01*
X291119D01*
X293281Y502080D01*
X295219Y503199D01*
X296802Y504781D01*
X297921Y506720D01*
X298189Y507718D01*
X301812D01*
X302080Y506720D01*
X303199Y504781D01*
X304781Y503199D01*
X306719Y502080D01*
X308881Y501501D01*
X311119D01*
X313281Y502080D01*
X315219Y503199D01*
X316802Y504781D01*
X317921Y506720D01*
X318189Y507718D01*
X321812D01*
X322080Y506720D01*
X323199Y504781D01*
X324781Y503199D01*
X326720Y502080D01*
X328881Y501501D01*
X331119D01*
X332215Y501794D01*
X334524Y499480D01*
X334748Y499011D01*
X334617Y498697D01*
X334394Y497000D01*
Y488500D01*
X334617Y486803D01*
X335272Y485222D01*
X336314Y483864D01*
X337672Y482822D01*
X339253Y482167D01*
X340950Y481944D01*
X342647Y482167D01*
X344228Y482822D01*
X344797Y483259D01*
X347445Y482377D01*
X348297Y481696D01*
Y473367D01*
X341506Y466576D01*
X338368Y468388D01*
X338500Y468881D01*
Y471119D01*
X337921Y473281D01*
X336802Y475220D01*
X335219Y476802D01*
X333281Y477921D01*
X331119Y478501D01*
X328881D01*
X326720Y477921D01*
X324781Y476802D01*
X323199Y475220D01*
X322080Y473281D01*
X321500Y471119D01*
Y468881D01*
X322080Y466720D01*
X323199Y464781D01*
X324781Y463199D01*
X326720Y462080D01*
X328881Y461501D01*
X331119D01*
X332374Y461837D01*
X334187Y460289D01*
X334404Y460037D01*
X334953Y459038D01*
X334647Y457500D01*
Y445250D01*
X329000D01*
Y426059D01*
X326119Y423500D01*
X323881D01*
X321719Y422921D01*
X319781Y421802D01*
X319569Y421589D01*
X316069Y423039D01*
Y442500D01*
X315797Y443866D01*
X315023Y445023D01*
X313866Y445797D01*
X312500Y446069D01*
X275000D01*
X273634Y445797D01*
X272477Y445023D01*
X232477Y405023D01*
X231703Y403866D01*
X231431Y402500D01*
Y360000D01*
X231703Y358634D01*
X232477Y357477D01*
X236000Y353953D01*
Y352500D01*
X236413D01*
X237575Y351000D01*
X236000Y347500D01*
X236000D01*
Y334500D01*
X250000D01*
X264000D01*
Y346431D01*
X283821D01*
X283893Y346313D01*
X284777Y342931D01*
X282085Y340976D01*
X279024Y337915D01*
X276480Y334413D01*
X274515Y330556D01*
X273177Y326440D01*
X272500Y322164D01*
Y317836D01*
X273177Y313560D01*
X274515Y309444D01*
X276480Y305587D01*
X279024Y302085D01*
X282085Y299024D01*
X285587Y296480D01*
X289444Y294515D01*
X293560Y293177D01*
X297836Y292500D01*
X302164D01*
X306440Y293177D01*
X310556Y294515D01*
X314413Y296480D01*
X317915Y299024D01*
X320976Y302085D01*
X323520Y305587D01*
X325485Y309444D01*
X326823Y313560D01*
X327500Y317836D01*
Y322164D01*
X326823Y326440D01*
X325485Y330556D01*
X323520Y334413D01*
X320976Y337915D01*
X317915Y340976D01*
X315223Y342931D01*
X316107Y346313D01*
X316179Y346431D01*
X327500D01*
X328866Y346703D01*
X330023Y347477D01*
X348198Y365651D01*
X351431Y364312D01*
Y360000D01*
X351703Y358634D01*
X352477Y357477D01*
X356000Y353953D01*
Y352500D01*
X356413D01*
X357575Y351000D01*
X356000Y347500D01*
X356000D01*
Y334500D01*
X370000D01*
Y332750D01*
D01*
Y334500D01*
X384000D01*
Y346431D01*
X403821D01*
X403893Y346313D01*
X404777Y342931D01*
X402085Y340976D01*
X399024Y337915D01*
X396480Y334413D01*
X394515Y330556D01*
X393177Y326440D01*
X392500Y322164D01*
Y317836D01*
X393177Y313560D01*
X394515Y309444D01*
X396480Y305587D01*
X399024Y302085D01*
X402085Y299024D01*
X405587Y296480D01*
X409444Y294515D01*
X413560Y293177D01*
X417836Y292500D01*
X422164D01*
X426440Y293177D01*
X430556Y294515D01*
X434413Y296480D01*
X437915Y299024D01*
X440976Y302085D01*
X443520Y305587D01*
X445485Y309444D01*
X446823Y313560D01*
X447500Y317836D01*
Y322164D01*
X446823Y326440D01*
X445485Y330556D01*
X443520Y334413D01*
X440976Y337915D01*
X437915Y340976D01*
X435223Y342931D01*
X436107Y346313D01*
X436179Y346431D01*
X447500D01*
X448866Y346703D01*
X450023Y347477D01*
X468198Y365651D01*
X471431Y364312D01*
Y360000D01*
X471703Y358634D01*
X472477Y357477D01*
X476000Y353953D01*
Y352500D01*
X476413D01*
X477575Y351000D01*
X476000Y347500D01*
X476000D01*
Y334500D01*
X490000D01*
X504000D01*
Y346431D01*
X523821D01*
X523893Y346313D01*
X524777Y342931D01*
X522085Y340976D01*
X519024Y337915D01*
X516480Y334413D01*
X514515Y330556D01*
X513177Y326440D01*
X512500Y322164D01*
Y317836D01*
X513177Y313560D01*
X514515Y309444D01*
X516480Y305587D01*
X519024Y302085D01*
X522085Y299024D01*
X525587Y296480D01*
X529444Y294515D01*
X533560Y293177D01*
X537836Y292500D01*
X542164D01*
X546440Y293177D01*
X550556Y294515D01*
X554413Y296480D01*
X557915Y299024D01*
X560976Y302085D01*
X563520Y305587D01*
X565485Y309444D01*
X566823Y313560D01*
X567500Y317836D01*
Y322164D01*
X566823Y326440D01*
X565485Y330556D01*
X563520Y334413D01*
X560976Y337915D01*
X557915Y340976D01*
X555224Y342931D01*
X556107Y346313D01*
X556179Y346431D01*
X567500D01*
X568866Y346703D01*
X570023Y347477D01*
X588198Y365651D01*
X591431Y364312D01*
Y360000D01*
X591703Y358634D01*
X592477Y357477D01*
X596000Y353953D01*
Y352500D01*
X596413D01*
X597575Y351000D01*
X596000Y347500D01*
X596000D01*
Y334500D01*
X610000D01*
X624000D01*
Y346431D01*
X643821D01*
X643893Y346313D01*
X644777Y342931D01*
X642085Y340976D01*
X639024Y337915D01*
X636480Y334413D01*
X634515Y330556D01*
X633177Y326440D01*
X632500Y322164D01*
Y317836D01*
X633177Y313560D01*
X634515Y309444D01*
X636480Y305587D01*
X639024Y302085D01*
X642085Y299024D01*
X645587Y296480D01*
X649444Y294515D01*
X653560Y293177D01*
X657836Y292500D01*
X662164D01*
X666440Y293177D01*
X670556Y294515D01*
X674413Y296480D01*
X677915Y299024D01*
X680976Y302085D01*
X683520Y305587D01*
X685485Y309444D01*
X686823Y313560D01*
X687500Y317836D01*
Y322164D01*
X686823Y326440D01*
X685485Y330556D01*
X683520Y334413D01*
X680976Y337915D01*
X677915Y340976D01*
X675223Y342931D01*
X676107Y346313D01*
X676179Y346431D01*
X687500D01*
X688866Y346703D01*
X690023Y347477D01*
X708198Y365651D01*
X711431Y364312D01*
Y360000D01*
X711703Y358634D01*
X712477Y357477D01*
X716000Y353953D01*
Y352500D01*
X716413D01*
X717575Y351000D01*
X716000Y347500D01*
X716000D01*
Y334500D01*
X730000D01*
X744000D01*
Y346431D01*
X763821D01*
X763893Y346313D01*
X764777Y342931D01*
X762085Y340976D01*
X759024Y337915D01*
X756480Y334413D01*
X754515Y330556D01*
X753177Y326440D01*
X752500Y322164D01*
Y317836D01*
X753177Y313560D01*
X754515Y309444D01*
X756480Y305587D01*
X759024Y302085D01*
X762085Y299024D01*
X765587Y296480D01*
X769444Y294515D01*
X773560Y293177D01*
X777836Y292500D01*
X782164D01*
X786440Y293177D01*
X790556Y294515D01*
X794413Y296480D01*
X797915Y299024D01*
X800976Y302085D01*
X803520Y305587D01*
X805485Y309444D01*
X806823Y313560D01*
X807500Y317836D01*
Y322164D01*
X806823Y326440D01*
X805485Y330556D01*
X803520Y334413D01*
X800976Y337915D01*
X797915Y340976D01*
X795223Y342931D01*
X796107Y346313D01*
X796179Y346431D01*
X807500D01*
X808866Y346703D01*
X810023Y347477D01*
X826414Y363867D01*
X829647Y362528D01*
Y341000D01*
X830055Y338951D01*
X831215Y337215D01*
X845494Y322936D01*
X844800Y320346D01*
Y317054D01*
X845652Y313875D01*
X847298Y311025D01*
X849625Y308698D01*
X852475Y307052D01*
X855655Y306200D01*
X858946D01*
X862125Y307052D01*
X864975Y308698D01*
X867303Y311025D01*
X868006Y312242D01*
X871995Y312242D01*
X872698Y311025D01*
X875025Y308697D01*
X877875Y307052D01*
X881054Y306200D01*
X884346D01*
X887525Y307052D01*
X890375Y308697D01*
X892703Y311025D01*
X894348Y313875D01*
X895200Y317054D01*
Y320345D01*
X894348Y323525D01*
X892703Y326375D01*
X890375Y328702D01*
X889158Y329405D01*
X889157Y333395D01*
X890375Y334098D01*
X892702Y336425D01*
X894348Y339275D01*
X895200Y342454D01*
Y345746D01*
X894348Y348925D01*
X892702Y351775D01*
X890375Y354103D01*
X889158Y354805D01*
X889158Y358795D01*
X890375Y359498D01*
X892703Y361825D01*
X894348Y364675D01*
X895200Y367854D01*
Y371146D01*
X894348Y374325D01*
X892703Y377175D01*
X890375Y379502D01*
X889158Y380205D01*
Y384195D01*
X890375Y384897D01*
X892703Y387225D01*
X894348Y390075D01*
X895200Y393254D01*
Y396545D01*
X894348Y399725D01*
X892703Y402575D01*
X890375Y404902D01*
X889158Y405605D01*
X889158Y409594D01*
X890375Y410297D01*
X892702Y412625D01*
X894348Y415475D01*
X894518Y416108D01*
X898421Y417154D01*
X903393Y412183D01*
Y299265D01*
X903392Y299261D01*
Y273956D01*
X902212Y273220D01*
X899892Y272742D01*
X896599Y276598D01*
X892110Y280432D01*
X887077Y283516D01*
X881624Y285775D01*
X875884Y287153D01*
X870000Y287616D01*
X864116Y287153D01*
X858376Y285775D01*
X852923Y283516D01*
X847890Y280432D01*
X843401Y276598D01*
X839568Y272110D01*
X836484Y267077D01*
X834225Y261624D01*
X832847Y255884D01*
X832384Y250000D01*
X832847Y244116D01*
X834225Y238376D01*
X836484Y232923D01*
X839568Y227890D01*
X843401Y223402D01*
X847890Y219568D01*
X852923Y216484D01*
X858376Y214225D01*
X864116Y212847D01*
X870000Y212384D01*
X875884Y212847D01*
X881624Y214225D01*
X884733Y215513D01*
X886715Y212546D01*
X794778Y120608D01*
X358222D01*
X353399Y125431D01*
X354849Y128931D01*
X377500D01*
X378866Y129203D01*
X380023Y129977D01*
X380797Y131134D01*
X381069Y132500D01*
Y135866D01*
X381577Y136401D01*
X384569Y137734D01*
X385996Y136910D01*
X388550Y136226D01*
Y147300D01*
X392050D01*
Y136226D01*
X394604Y136910D01*
X397146Y138378D01*
X399222Y140454D01*
X400690Y142996D01*
X401188Y144855D01*
X404812D01*
X405310Y142996D01*
X406778Y140454D01*
X408854Y138378D01*
X411396Y136910D01*
X413950Y136226D01*
Y147300D01*
X417450D01*
Y136226D01*
X420004Y136910D01*
X422546Y138378D01*
X424622Y140454D01*
X426090Y142996D01*
X426588Y144855D01*
X430212D01*
X430710Y142996D01*
X432178Y140454D01*
X434254Y138378D01*
X436796Y136910D01*
X439350Y136226D01*
Y147300D01*
X442850D01*
Y136226D01*
X445404Y136910D01*
X447946Y138378D01*
X450022Y140454D01*
X451490Y142996D01*
X451988Y144855D01*
X455612D01*
X456110Y142996D01*
X457578Y140454D01*
X459654Y138378D01*
X462196Y136910D01*
X464750Y136226D01*
Y147300D01*
X468250D01*
Y136226D01*
X470804Y136910D01*
X473346Y138378D01*
X475422Y140454D01*
X476890Y142996D01*
X477388Y144856D01*
X481012D01*
X481510Y142996D01*
X482978Y140454D01*
X485054Y138378D01*
X487596Y136910D01*
X490150Y136226D01*
Y147300D01*
X493650D01*
Y136226D01*
X496204Y136910D01*
X498746Y138378D01*
X500822Y140454D01*
X502290Y142996D01*
X502788Y144855D01*
X506412D01*
X506910Y142996D01*
X508378Y140454D01*
X510454Y138378D01*
X512996Y136910D01*
X515550Y136226D01*
Y147300D01*
X519050D01*
Y136226D01*
X521604Y136910D01*
X524146Y138378D01*
X526222Y140454D01*
X527690Y142996D01*
X528188Y144855D01*
X531812D01*
X532310Y142996D01*
X533778Y140454D01*
X535854Y138378D01*
X538396Y136910D01*
X540950Y136226D01*
Y147300D01*
X544450D01*
Y136226D01*
X547004Y136910D01*
X549546Y138378D01*
X551622Y140454D01*
X553090Y142996D01*
X553588Y144855D01*
X557212D01*
X557710Y142997D01*
X559178Y140454D01*
X561254Y138378D01*
X563796Y136910D01*
X566350Y136226D01*
Y147300D01*
X569850D01*
Y136226D01*
X572404Y136910D01*
X574946Y138378D01*
X577022Y140454D01*
X578490Y142997D01*
X578988Y144856D01*
X582612D01*
X583110Y142996D01*
X584578Y140454D01*
X586654Y138378D01*
X589196Y136910D01*
X591750Y136225D01*
Y147300D01*
X595250D01*
Y136225D01*
X597804Y136910D01*
X600346Y138378D01*
X602422Y140454D01*
X603890Y142996D01*
X604388Y144855D01*
X608012D01*
X608510Y142996D01*
X609978Y140454D01*
X612054Y138378D01*
X614596Y136910D01*
X617150Y136226D01*
Y147300D01*
X620650D01*
Y136226D01*
X623204Y136910D01*
X625746Y138378D01*
X627822Y140454D01*
X629290Y142996D01*
X629788Y144855D01*
X633412D01*
X633910Y142996D01*
X635378Y140454D01*
X637454Y138378D01*
X639996Y136910D01*
X642550Y136226D01*
Y147300D01*
X646050D01*
Y136226D01*
X648604Y136910D01*
X651146Y138378D01*
X653222Y140454D01*
X654690Y142996D01*
X655188Y144855D01*
X658812D01*
X659310Y142996D01*
X660778Y140454D01*
X662854Y138378D01*
X665396Y136910D01*
X668232Y136150D01*
X671168D01*
X674004Y136910D01*
X676546Y138378D01*
X678622Y140454D01*
X680090Y142996D01*
X680588Y144856D01*
X684212D01*
X684710Y142996D01*
X686178Y140454D01*
X688254Y138378D01*
X690796Y136910D01*
X693632Y136150D01*
X696568D01*
X699404Y136910D01*
X701946Y138378D01*
X704022Y140454D01*
X705490Y142996D01*
X705988Y144855D01*
X709612D01*
X710110Y142996D01*
X711578Y140454D01*
X713654Y138378D01*
X716196Y136910D01*
X719032Y136150D01*
X721968D01*
X724804Y136910D01*
X727346Y138378D01*
X729422Y140454D01*
X730890Y142996D01*
X731388Y144855D01*
X735012D01*
X735510Y142996D01*
X736978Y140454D01*
X739054Y138378D01*
X741596Y136910D01*
X744432Y136150D01*
X747368D01*
X750204Y136910D01*
X752746Y138378D01*
X754822Y140454D01*
X756290Y142996D01*
X756788Y144855D01*
X760412D01*
X760910Y142996D01*
X762378Y140454D01*
X764454Y138378D01*
X766996Y136910D01*
X769832Y136150D01*
X772768D01*
X775604Y136910D01*
X778146Y138378D01*
X780222Y140454D01*
X781690Y142996D01*
X782450Y145832D01*
Y148768D01*
X781690Y151603D01*
X780222Y154146D01*
X778146Y156222D01*
X775604Y157690D01*
X773745Y158188D01*
Y161812D01*
X775604Y162310D01*
X778146Y163778D01*
X780222Y165854D01*
X781690Y168396D01*
X782450Y171232D01*
Y174168D01*
X781690Y177004D01*
X780222Y179546D01*
X778146Y181622D01*
X775604Y183090D01*
X772768Y183850D01*
X769832D01*
X766996Y183090D01*
X764454Y181622D01*
X762378Y179546D01*
X760910Y177004D01*
X760412Y175144D01*
X756788D01*
X756290Y177004D01*
X754822Y179546D01*
X752746Y181622D01*
X750204Y183090D01*
X747368Y183850D01*
X744432D01*
X741596Y183090D01*
X739054Y181622D01*
X736978Y179546D01*
X735510Y177004D01*
X735012Y175145D01*
X731388D01*
X730890Y177004D01*
X729422Y179546D01*
X727346Y181622D01*
X724804Y183090D01*
X721968Y183850D01*
X719032D01*
X716196Y183090D01*
X713654Y181622D01*
X711578Y179546D01*
X710110Y177004D01*
X709612Y175145D01*
X705988D01*
X705490Y177004D01*
X704022Y179546D01*
X701946Y181622D01*
X699404Y183090D01*
X696850Y183775D01*
Y172700D01*
X693350D01*
Y183775D01*
X690796Y183090D01*
X688254Y181622D01*
X686178Y179546D01*
X684710Y177004D01*
X684212Y175145D01*
X680588D01*
X680090Y177004D01*
X678622Y179546D01*
X676546Y181622D01*
X674004Y183090D01*
X671450Y183774D01*
Y172700D01*
X667950D01*
Y183774D01*
X665396Y183090D01*
X662854Y181622D01*
X660778Y179546D01*
X659310Y177004D01*
X658812Y175145D01*
X655188D01*
X654690Y177004D01*
X653222Y179546D01*
X651146Y181622D01*
X648604Y183090D01*
X645768Y183850D01*
X642832D01*
X639996Y183090D01*
X637454Y181622D01*
X635378Y179546D01*
X633910Y177004D01*
X633412Y175145D01*
X629788D01*
X629290Y177004D01*
X627822Y179546D01*
X625746Y181622D01*
X623204Y183090D01*
X620368Y183850D01*
X617432D01*
X614596Y183090D01*
X612054Y181622D01*
X609978Y179546D01*
X608510Y177004D01*
X608012Y175145D01*
X604388D01*
X603890Y177004D01*
X602422Y179546D01*
X600346Y181622D01*
X597804Y183090D01*
X594968Y183850D01*
X592032D01*
X589196Y183090D01*
X586654Y181622D01*
X584578Y179546D01*
X583110Y177004D01*
X582612Y175144D01*
X578988D01*
X578490Y177004D01*
X577022Y179546D01*
X574946Y181622D01*
X572404Y183090D01*
X569568Y183850D01*
X566632D01*
X563796Y183090D01*
X561254Y181622D01*
X559178Y179546D01*
X557710Y177004D01*
X557212Y175145D01*
X553588D01*
X553090Y177004D01*
X551622Y179546D01*
X549546Y181622D01*
X547004Y183090D01*
X544168Y183850D01*
X541232D01*
X538396Y183090D01*
X535854Y181622D01*
X533778Y179546D01*
X532310Y177004D01*
X531812Y175145D01*
X528188D01*
X527690Y177004D01*
X526222Y179546D01*
X524146Y181622D01*
X521604Y183090D01*
X518768Y183850D01*
X515832D01*
X512996Y183090D01*
X510454Y181622D01*
X508378Y179546D01*
X506910Y177004D01*
X506412Y175145D01*
X502788D01*
X502290Y177003D01*
X500822Y179546D01*
X498746Y181622D01*
X496204Y183090D01*
X493368Y183850D01*
X490432D01*
X487596Y183090D01*
X485054Y181622D01*
X482978Y179546D01*
X481510Y177003D01*
X481012Y175144D01*
X477388D01*
X476890Y177004D01*
X475422Y179547D01*
X473346Y181622D01*
X470804Y183090D01*
X467968Y183850D01*
X465032D01*
X462196Y183090D01*
X459654Y181622D01*
X457578Y179547D01*
X456110Y177004D01*
X455612Y175145D01*
X451988D01*
X451490Y177004D01*
X450022Y179546D01*
X447946Y181622D01*
X445404Y183090D01*
X442568Y183850D01*
X439632D01*
X436796Y183090D01*
X434254Y181622D01*
X432178Y179546D01*
X430710Y177004D01*
X430212Y175145D01*
X426588D01*
X426090Y177004D01*
X424622Y179546D01*
X422546Y181622D01*
X420004Y183090D01*
X417168Y183850D01*
X414232D01*
X411396Y183090D01*
X408854Y181622D01*
X406778Y179546D01*
X405310Y177004D01*
X404812Y175145D01*
X401188D01*
X400690Y177004D01*
X399222Y179546D01*
X397146Y181622D01*
X394604Y183090D01*
X392050Y183774D01*
Y172700D01*
X388550D01*
Y183774D01*
X385996Y183090D01*
X384569Y182266D01*
X381577Y183599D01*
X381069Y184134D01*
Y190000D01*
X380797Y191366D01*
X380023Y192523D01*
X378866Y193297D01*
X377500Y193569D01*
X267500D01*
X266134Y193297D01*
X264977Y192523D01*
X264203Y191366D01*
X263931Y190000D01*
Y188778D01*
X213249D01*
X192356Y209670D01*
X194116Y212847D01*
X200000Y212384D01*
X205884Y212847D01*
X211624Y214225D01*
X217077Y216484D01*
X222110Y219568D01*
X226598Y223402D01*
X230432Y227890D01*
X233516Y232923D01*
X235775Y238376D01*
X237153Y244116D01*
X237616Y250000D01*
X237153Y255884D01*
X235775Y261624D01*
X233516Y267077D01*
X230432Y272110D01*
X226598Y276598D01*
X222110Y280432D01*
X217077Y283516D01*
X211624Y285775D01*
X205884Y287153D01*
X200000Y287616D01*
X194116Y287153D01*
X188376Y285775D01*
X182923Y283516D01*
X177890Y280432D01*
X173402Y276598D01*
X169568Y272110D01*
X167077Y268046D01*
X163577Y269033D01*
Y300710D01*
X163577Y300711D01*
X163269Y303847D01*
X162354Y306863D01*
X160868Y309643D01*
X158869Y312079D01*
X158868Y312079D01*
X86077Y384870D01*
Y486031D01*
X90023Y489977D01*
X90797Y491134D01*
X91069Y492500D01*
Y533522D01*
X130023Y572477D01*
X130797Y573634D01*
X131069Y575000D01*
Y607500D01*
X130797Y608866D01*
X130023Y610023D01*
X128866Y610797D01*
X127500Y611069D01*
X80000D01*
X78634Y610797D01*
X77477Y610023D01*
X47477Y580023D01*
X46703Y578866D01*
X46431Y577500D01*
Y482500D01*
X46703Y481134D01*
X47477Y479977D01*
X48634Y479203D01*
X50000Y478931D01*
X53923D01*
Y378211D01*
X54232Y375074D01*
X55146Y372058D01*
X56632Y369279D01*
X58632Y366842D01*
X105144Y320330D01*
X103384Y317153D01*
X97500Y317616D01*
X91616Y317153D01*
X85876Y315775D01*
X80423Y313516D01*
X75390Y310432D01*
X70901Y306598D01*
X67068Y302110D01*
X63984Y297077D01*
X63281Y295380D01*
X59423Y295211D01*
X58278Y297411D01*
X48578Y318211D01*
X39795Y339416D01*
X31945Y360983D01*
X25044Y382872D01*
X19103Y405041D01*
X14136Y427448D01*
X10150Y450051D01*
X7155Y472806D01*
X5154Y495670D01*
X4153Y518599D01*
Y530075D01*
Y541551D01*
X5154Y564480D01*
X7155Y587344D01*
X10150Y610099D01*
X14136Y632702D01*
X19103Y655109D01*
X25044Y677278D01*
X31945Y699167D01*
X39795Y720734D01*
X48578Y741939D01*
X58278Y762739D01*
X68876Y783098D01*
X80351Y802974D01*
X92683Y822331D01*
X105847Y841131D01*
X119819Y859340D01*
X134572Y876922D01*
X150078Y893843D01*
X166307Y910073D01*
X183228Y925578D01*
X200810Y940331D01*
X219019Y954303D01*
X237819Y967467D01*
X257176Y979799D01*
X277052Y991274D01*
X297411Y1001872D01*
X318211Y1011572D01*
X339416Y1020355D01*
X360983Y1028205D01*
X382872Y1035106D01*
X405041Y1041047D01*
X427448Y1046014D01*
X450051Y1050000D01*
X472806Y1052995D01*
X495670Y1054996D01*
X498109Y1055102D01*
X498344Y1054620D01*
X499286Y1051650D01*
X496484Y1047077D01*
X494225Y1041624D01*
X492847Y1035884D01*
X492384Y1030000D01*
X492847Y1024116D01*
X494225Y1018376D01*
X496484Y1012923D01*
X499568Y1007890D01*
X503401Y1003401D01*
X507890Y999568D01*
X512923Y996484D01*
X518376Y994225D01*
X524116Y992847D01*
X530000Y992384D01*
X535885Y992847D01*
X541624Y994225D01*
X547077Y996484D01*
X552110Y999568D01*
X556599Y1003401D01*
X560432Y1007890D01*
X563516Y1012923D01*
X565775Y1018376D01*
X567153Y1024116D01*
X567616Y1030000D01*
X567153Y1035884D01*
X565775Y1041624D01*
X563516Y1047077D01*
X560710Y1051657D01*
X561625Y1054556D01*
X561894Y1055108D01*
X564480Y1054996D01*
D02*
G37*
G36*
X395000Y842500D02*
X457500D01*
X470000Y830000D01*
Y777500D01*
X470000Y777500D01*
X470000Y777500D01*
X467712Y775211D01*
X465450Y772950D01*
X449000D01*
Y772500D01*
X395000D01*
X385000Y782500D01*
X352500Y815000D01*
X352500Y845000D01*
X357500Y850000D01*
X387500D01*
X395000Y842500D01*
D02*
G37*
G36*
X635000Y842500D02*
X697500D01*
X710000Y830000D01*
Y782950D01*
X689000D01*
Y774203D01*
X638850D01*
X636801Y773795D01*
X635065Y772635D01*
X634965Y772535D01*
X625000Y782500D01*
X593569Y813931D01*
Y830000D01*
X593297Y831366D01*
X592523Y832523D01*
X592500Y832547D01*
Y845000D01*
X597500Y850000D01*
X627500D01*
X635000Y842500D01*
D02*
G37*
G36*
X515000Y842500D02*
X577500D01*
X590000Y830000D01*
Y782950D01*
X569000D01*
Y772500D01*
X515000D01*
X505000Y782500D01*
X473568Y813931D01*
Y830000D01*
X473297Y831366D01*
X472523Y832523D01*
X472500Y832547D01*
Y845000D01*
X477500Y850000D01*
X507500D01*
X515000Y842500D01*
D02*
G37*
G36*
X755000Y832500D02*
X817500D01*
X830000Y820000D01*
Y784090D01*
X829667Y783656D01*
X828937Y781892D01*
X828688Y780000D01*
Y766187D01*
X825450Y762950D01*
X809000D01*
Y762500D01*
X755000D01*
X745000Y772500D01*
X713568Y803931D01*
Y830000D01*
X713297Y831366D01*
X712523Y832523D01*
X712500Y832547D01*
Y835000D01*
X717500Y840000D01*
X747500D01*
X755000Y832500D01*
D02*
G37*
G36*
X275000Y812500D02*
X337500D01*
X350000Y800000D01*
Y742500D01*
X325000Y717500D01*
X280000D01*
Y737500D01*
X265000Y752500D01*
X240000D01*
X232500Y760000D01*
Y815000D01*
X237500Y820000D01*
X267500D01*
X275000Y812500D01*
D02*
G37*
G36*
X921250Y646500D02*
X938750D01*
X939617Y644303D01*
X940272Y642722D01*
X941203Y641509D01*
X941324Y641286D01*
X941473Y640153D01*
X941325Y637484D01*
X941200Y637221D01*
X940198Y636219D01*
X939079Y634281D01*
X938500Y632119D01*
Y629881D01*
X936003Y626417D01*
X928233D01*
Y626417D01*
X925750Y624000D01*
X909250D01*
Y609000D01*
Y605250D01*
X917500D01*
Y601750D01*
X909250D01*
Y599293D01*
X908750Y596000D01*
X908750Y592707D01*
Y589750D01*
X926250D01*
Y592707D01*
X926250Y596000D01*
X926059Y597261D01*
X926722Y598157D01*
X930511Y598161D01*
X930768Y598008D01*
X937561Y591215D01*
X939298Y590055D01*
X941346Y589647D01*
X965554D01*
X967602Y590055D01*
X969339Y591215D01*
X976285Y598161D01*
X977445Y599898D01*
X979033Y602399D01*
X991367D01*
X991367Y602399D01*
X991733D01*
Y602399D01*
X994867Y602399D01*
X1000933D01*
X1004067Y602399D01*
Y602399D01*
X1004433D01*
Y602399D01*
X1008850D01*
Y614408D01*
X1012350D01*
Y602399D01*
X1014647D01*
Y574601D01*
X1004433Y574601D01*
X1000933Y574601D01*
X991733Y574601D01*
X988233Y574601D01*
X979033Y574601D01*
X975533Y574601D01*
X966333Y574601D01*
X962833Y574601D01*
X953633Y574601D01*
X950133Y574601D01*
X940933D01*
X940933Y574601D01*
X940567D01*
Y574601D01*
X937433Y574601D01*
X934000D01*
X933483Y574704D01*
X926250D01*
X926250Y580000D01*
X926250Y583500D01*
Y586250D01*
X908750D01*
Y583500D01*
X908750Y580000D01*
X908750Y576500D01*
Y564000D01*
X920140D01*
X920149Y563998D01*
X928233D01*
Y550583D01*
X929400D01*
X929455Y550310D01*
X930615Y548574D01*
X936832Y542357D01*
X936500Y541119D01*
Y538881D01*
X937079Y536719D01*
X938198Y534781D01*
X939781Y533198D01*
X941719Y532079D01*
X943881Y531500D01*
X946119D01*
X948281Y532079D01*
X950219Y533198D01*
X951802Y534781D01*
X952921Y536719D01*
X953500Y538881D01*
Y541119D01*
X952921Y543281D01*
X951802Y545219D01*
X950219Y546802D01*
X949732Y547083D01*
X950670Y550583D01*
X953267Y550583D01*
X956767Y550583D01*
X965967Y550583D01*
X969467Y550583D01*
X978667Y550583D01*
X982167Y550583D01*
X991367Y550583D01*
X994867Y550583D01*
X1004067Y550583D01*
X1007567Y550583D01*
X1014647D01*
Y401217D01*
X949430Y336000D01*
X947381D01*
X945219Y335421D01*
X943281Y334302D01*
X941698Y332719D01*
X940579Y330781D01*
X940000Y328619D01*
Y326381D01*
X940579Y324219D01*
X941698Y322281D01*
X943281Y320698D01*
X945219Y319579D01*
X947381Y319000D01*
X949619D01*
X950506Y315622D01*
X945423Y313516D01*
X940390Y310432D01*
X935901Y306598D01*
X932108Y302157D01*
X931948Y302147D01*
X928608Y303163D01*
Y417405D01*
X928179Y420668D01*
X926919Y423709D01*
X924916Y426320D01*
X898569Y452667D01*
Y502500D01*
X898297Y503866D01*
X897523Y505023D01*
X892523Y510023D01*
X892376Y513769D01*
X892443Y513966D01*
X892702Y514225D01*
X894348Y517075D01*
X895172Y520150D01*
X882700D01*
Y523650D01*
X895172D01*
X894348Y526725D01*
X892702Y529575D01*
X890375Y531903D01*
X889158Y532605D01*
X889158Y536595D01*
X890375Y537298D01*
X892702Y539625D01*
X894348Y542475D01*
X895172Y545550D01*
X882700D01*
Y549050D01*
X895172D01*
X894348Y552125D01*
X892702Y554975D01*
X890375Y557303D01*
X889158Y558005D01*
X889158Y561995D01*
X890375Y562698D01*
X892702Y565025D01*
X894348Y567875D01*
X895200Y571054D01*
Y574346D01*
X894348Y577525D01*
X892702Y580375D01*
X890375Y582702D01*
X889157Y583405D01*
X889158Y587395D01*
X890375Y588098D01*
X892702Y590425D01*
X894348Y593275D01*
X895172Y596350D01*
X882700D01*
Y599850D01*
X895172D01*
X894348Y602925D01*
X892702Y605775D01*
X890375Y608103D01*
X889158Y608806D01*
X889158Y612795D01*
X890375Y613498D01*
X892703Y615825D01*
X894348Y618675D01*
X895172Y621750D01*
X882700D01*
Y625250D01*
X895172D01*
X894348Y628325D01*
X892703Y631175D01*
X890375Y633503D01*
X889158Y634205D01*
X889158Y638195D01*
X890375Y638898D01*
X892702Y641225D01*
X893993Y643460D01*
X903000D01*
X905048Y643867D01*
X906785Y645028D01*
X911404Y649647D01*
X921250D01*
Y646500D01*
D02*
G37*
G36*
X373697Y558304D02*
X372845Y557623D01*
X370197Y556741D01*
X369628Y557178D01*
X368100Y557811D01*
Y547250D01*
X364600D01*
Y557811D01*
X363072Y557178D01*
X362503Y556741D01*
X359855Y557623D01*
X359003Y558304D01*
Y581547D01*
X373697D01*
Y558304D01*
D02*
G37*
G36*
X613697Y558304D02*
X612845Y557623D01*
X610197Y556741D01*
X609628Y557178D01*
X608100Y557811D01*
Y547250D01*
X604600D01*
Y557811D01*
X603072Y557178D01*
X602503Y556741D01*
X599855Y557623D01*
X599003Y558304D01*
Y580478D01*
X613697D01*
Y558304D01*
D02*
G37*
G36*
X650430Y562001D02*
X648980Y558501D01*
X648882D01*
X646720Y557921D01*
X644781Y556802D01*
X643199Y555220D01*
X642080Y553281D01*
X641501Y551120D01*
Y548881D01*
X642080Y546720D01*
X643199Y544781D01*
X644781Y543199D01*
X646720Y542080D01*
X648882Y541501D01*
X651120D01*
X653281Y542080D01*
X655220Y543199D01*
X656802Y544781D01*
X657921Y546720D01*
X658501Y548881D01*
Y548980D01*
X662001Y550429D01*
X688715Y523715D01*
X688025Y519967D01*
X687509Y519313D01*
X665489D01*
X664551Y522812D01*
X665220Y523199D01*
X666802Y524781D01*
X667921Y526720D01*
X668501Y528881D01*
Y531120D01*
X667921Y533281D01*
X666802Y535220D01*
X665220Y536802D01*
X663281Y537921D01*
X661120Y538501D01*
X658882D01*
X656720Y537921D01*
X654781Y536802D01*
X653199Y535220D01*
X649190Y535108D01*
X648750Y535365D01*
Y536000D01*
X641750D01*
Y528000D01*
X640000D01*
Y526250D01*
X631250D01*
Y523500D01*
X631250Y520000D01*
X628035Y519313D01*
X605489D01*
X604551Y522812D01*
X605220Y523199D01*
X606802Y524781D01*
X607921Y526720D01*
X608501Y528881D01*
Y531120D01*
X607963Y533126D01*
X607926Y533410D01*
X607936Y533674D01*
X609463Y537254D01*
X609628Y537322D01*
X610490Y537984D01*
X612700Y538299D01*
X614910Y537984D01*
X615772Y537322D01*
X617353Y536667D01*
X619050Y536444D01*
X620747Y536667D01*
X622328Y537322D01*
X623686Y538364D01*
X624728Y539722D01*
X625383Y541303D01*
X625606Y543000D01*
Y551500D01*
X625383Y553197D01*
X624728Y554778D01*
X624403Y555201D01*
Y580478D01*
X631952D01*
X650430Y562001D01*
D02*
G37*
G36*
X127500Y575000D02*
X87500Y535000D01*
Y492500D01*
X77500Y482500D01*
X50000D01*
Y577500D01*
X80000Y607500D01*
X127500D01*
Y575000D01*
D02*
G37*
G36*
X846267Y668411D02*
X847298Y666625D01*
X849625Y664298D01*
X850843Y663595D01*
X850843Y659605D01*
X849625Y658902D01*
X847298Y656575D01*
X845652Y653725D01*
X844800Y650546D01*
Y647254D01*
X845652Y644075D01*
X847298Y641225D01*
X849625Y638897D01*
X850842Y638195D01*
X850842Y634205D01*
X849625Y633502D01*
X847298Y631175D01*
X845652Y628325D01*
X844800Y625146D01*
Y621854D01*
X845652Y618675D01*
X847298Y615825D01*
X849625Y613498D01*
X850842Y612795D01*
X850842Y608805D01*
X849625Y608102D01*
X847297Y605775D01*
X845652Y602925D01*
X844828Y599850D01*
X857300D01*
Y596350D01*
X844828D01*
X845652Y593275D01*
X847297Y590425D01*
X849625Y588097D01*
X850842Y587394D01*
X850843Y583405D01*
X849625Y582702D01*
X847298Y580375D01*
X845652Y577525D01*
X844800Y574346D01*
Y571054D01*
X845652Y567875D01*
X847298Y565025D01*
X849625Y562697D01*
X850842Y561995D01*
X850842Y558005D01*
X849625Y557303D01*
X847297Y554975D01*
X845652Y552125D01*
X844800Y548946D01*
Y545654D01*
X845652Y542475D01*
X847297Y539625D01*
X849625Y537298D01*
X850842Y536595D01*
X850842Y532605D01*
X849625Y531903D01*
X847298Y529575D01*
X845652Y526725D01*
X844828Y523650D01*
X857300D01*
Y520150D01*
X844828D01*
X845652Y517075D01*
X847298Y514225D01*
X849625Y511898D01*
X850843Y511194D01*
X850843Y507205D01*
X849625Y506502D01*
X847298Y504175D01*
X845652Y501325D01*
X844828Y498250D01*
X857300D01*
Y494750D01*
X844828D01*
X845652Y491675D01*
X847298Y488825D01*
X847477Y485023D01*
X843853Y481399D01*
X840353Y482849D01*
Y527500D01*
Y580000D01*
X840164Y580950D01*
X840353Y581900D01*
Y600900D01*
X839945Y602948D01*
X838785Y604684D01*
X833335Y610135D01*
X831598Y611295D01*
X831027Y611409D01*
X828000Y612550D01*
Y625550D01*
X806500D01*
Y620105D01*
X803439Y618028D01*
X803000Y617997D01*
X801120Y618501D01*
X798882D01*
X796720Y617921D01*
X794781Y616802D01*
X793199Y615220D01*
X792080Y613281D01*
X791501Y611120D01*
Y608881D01*
X792080Y606720D01*
X793199Y604781D01*
X794781Y603199D01*
X796720Y602080D01*
X798882Y601501D01*
X801120D01*
X803281Y602080D01*
X803817Y602389D01*
X805318Y602681D01*
X807386Y601194D01*
X807638Y597339D01*
X807322Y596928D01*
X806689Y595400D01*
X817250D01*
Y591900D01*
X806689D01*
X807322Y590372D01*
X808004Y589483D01*
X808364Y588885D01*
Y585715D01*
X808004Y585117D01*
X807322Y584228D01*
X806667Y582647D01*
X806444Y580950D01*
X806667Y579253D01*
X807322Y577672D01*
X808364Y576314D01*
X809722Y575272D01*
X811303Y574617D01*
X813000Y574394D01*
X821500D01*
X823197Y574617D01*
X824778Y575272D01*
X825201Y575597D01*
X829647D01*
Y532853D01*
X774418D01*
X772969Y534302D01*
X771031Y535421D01*
X768869Y536000D01*
X767253D01*
X764330Y538547D01*
X764362Y539574D01*
X764875Y540119D01*
X767650Y541831D01*
X768882Y541501D01*
X771120D01*
X773281Y542080D01*
X775220Y543199D01*
X776802Y544781D01*
X777921Y546720D01*
X778501Y548881D01*
X781947Y551250D01*
X790000Y551250D01*
X793500Y551250D01*
X796250D01*
Y560000D01*
Y568750D01*
X793500D01*
X790000Y568750D01*
X787353Y570809D01*
Y578287D01*
X787673Y578960D01*
X790298Y581501D01*
X791120D01*
X793281Y582080D01*
X795220Y583199D01*
X796802Y584781D01*
X797921Y586720D01*
X798501Y588881D01*
Y591120D01*
X797921Y593281D01*
X796802Y595220D01*
X795220Y596802D01*
X793281Y597921D01*
X791120Y598501D01*
X788882D01*
X786720Y597921D01*
X784781Y596802D01*
X783199Y595220D01*
X782080Y593281D01*
X781617Y591553D01*
X780212Y590788D01*
X778001Y590219D01*
X773402Y594818D01*
X773333Y595347D01*
X772678Y596928D01*
X771996Y597817D01*
X771636Y598415D01*
Y601585D01*
X771996Y602183D01*
X772678Y603072D01*
X773333Y604653D01*
X773402Y605182D01*
X788785Y620565D01*
X789945Y622301D01*
X790353Y624350D01*
Y639832D01*
X791802Y641281D01*
X792921Y643219D01*
X793500Y645381D01*
Y647619D01*
X793080Y649187D01*
X794013Y651124D01*
X795284Y652687D01*
X824284D01*
X826177Y652937D01*
X827941Y653667D01*
X829455Y654829D01*
X841171Y666545D01*
X842333Y668059D01*
X842449Y668338D01*
X842895Y668497D01*
X846267Y668411D01*
D02*
G37*
G36*
X895000Y502500D02*
Y437500D01*
X890000Y432500D01*
X885465D01*
X884346Y432800D01*
X881054D01*
X879935Y432500D01*
X872500D01*
X870000Y430000D01*
X870000Y412500D01*
X865000Y407500D01*
X850000D01*
X845000Y412500D01*
Y477500D01*
X850000Y482500D01*
X867500D01*
X870000Y485000D01*
X870000Y502500D01*
X875000Y507500D01*
X890000D01*
X895000Y502500D01*
D02*
G37*
G36*
X552500Y417500D02*
X556639Y413361D01*
X557079Y411719D01*
X558198Y409781D01*
X559781Y408198D01*
X561719Y407079D01*
X563361Y406639D01*
X570000Y400000D01*
X587500D01*
X590000Y397500D01*
X590000Y372500D01*
X567500Y350000D01*
X485000Y350000D01*
X475000Y360000D01*
Y402500D01*
X515000Y442500D01*
X552500D01*
Y417500D01*
D02*
G37*
G36*
X432500D02*
X436639Y413361D01*
X437079Y411719D01*
X438198Y409781D01*
X439781Y408198D01*
X441719Y407079D01*
X443361Y406639D01*
X450000Y400000D01*
X467500D01*
X470000Y397500D01*
X470000Y372500D01*
X447500Y350000D01*
X365000Y350000D01*
X355000Y360000D01*
Y402500D01*
X395000Y442500D01*
X432500D01*
Y417500D01*
D02*
G37*
G36*
X312500D02*
X316639Y413361D01*
X317079Y411719D01*
X318198Y409781D01*
X319781Y408198D01*
X321719Y407079D01*
X323361Y406639D01*
X330000Y400000D01*
X347500D01*
X350000Y397500D01*
X350000Y372500D01*
X327500Y350000D01*
X245000Y350000D01*
X235000Y360000D01*
Y402500D01*
X275000Y442500D01*
X312500D01*
Y417500D01*
D02*
G37*
G36*
X792500Y417500D02*
X810000Y400000D01*
X827500D01*
X829647Y397853D01*
Y372147D01*
X807500Y350000D01*
X725000Y350000D01*
X715000Y360000D01*
Y402500D01*
X755000Y442500D01*
X792500D01*
Y417500D01*
D02*
G37*
G36*
X672500D02*
X676639Y413361D01*
X677079Y411719D01*
X678198Y409781D01*
X679781Y408198D01*
X681719Y407079D01*
X683361Y406639D01*
X690000Y400000D01*
X707500D01*
X710000Y397500D01*
X710000Y372500D01*
X687500Y350000D01*
X605000Y350000D01*
X595000Y360000D01*
Y402500D01*
X635000Y442500D01*
X672500D01*
Y417500D01*
D02*
G37*
G36*
X1035106Y677278D02*
X1041047Y655109D01*
X1046014Y632702D01*
X1050000Y610099D01*
X1052995Y587344D01*
X1054996Y564480D01*
X1055997Y541551D01*
Y530075D01*
Y518599D01*
X1054996Y495670D01*
X1052995Y472806D01*
X1050000Y450051D01*
X1046014Y427448D01*
X1041047Y405041D01*
X1035106Y382872D01*
X1028205Y360983D01*
X1020355Y339416D01*
X1011572Y318211D01*
X1001872Y297411D01*
X1000644Y295051D01*
X996786Y295219D01*
X996016Y297077D01*
X992932Y302110D01*
X989099Y306598D01*
X984610Y310432D01*
X979577Y313516D01*
X974124Y315775D01*
X968384Y317153D01*
X962500Y317616D01*
X956616Y317153D01*
X952708Y316215D01*
X951781Y319579D01*
X953719Y320698D01*
X955302Y322281D01*
X956421Y324219D01*
X957000Y326381D01*
Y328430D01*
X1023785Y395215D01*
X1024945Y396952D01*
X1025353Y399000D01*
Y623609D01*
X1024945Y625657D01*
X1023785Y627394D01*
X1019827Y631352D01*
Y633276D01*
X1019247Y635438D01*
X1018128Y637376D01*
X1016546Y638959D01*
X1014607Y640078D01*
X1012446Y640657D01*
X1010397D01*
X1007019Y644035D01*
X1005282Y645195D01*
X1003234Y645603D01*
X993754D01*
X990550Y648312D01*
Y648500D01*
X984050D01*
Y652000D01*
X991151D01*
X991750Y653500D01*
X1008250D01*
Y658824D01*
X1009210Y659465D01*
X1021285Y671540D01*
X1022445Y673277D01*
X1022853Y675325D01*
Y688332D01*
X1024302Y689781D01*
X1025421Y691719D01*
X1026000Y693881D01*
Y694520D01*
X1029500Y695059D01*
X1035106Y677278D01*
D02*
G37*
G36*
X131423Y256887D02*
Y231789D01*
X131732Y228653D01*
X132646Y225637D01*
X134132Y222857D01*
X136132Y220421D01*
X195221Y161332D01*
X197657Y159332D01*
X200437Y157847D01*
X203453Y156932D01*
X206589Y156623D01*
X263931D01*
Y132500D01*
X264203Y131134D01*
X264977Y129977D01*
X266134Y129203D01*
X267500Y128931D01*
X326892D01*
Y121500D01*
X327322Y118237D01*
X328582Y115196D01*
X330585Y112585D01*
X344085Y99085D01*
X346696Y97081D01*
X349737Y95822D01*
X353000Y95392D01*
X800000D01*
X803263Y95822D01*
X806304Y97081D01*
X808915Y99085D01*
X925415Y215585D01*
X927419Y218196D01*
X928678Y221237D01*
X929108Y224500D01*
Y256536D01*
X932608Y257258D01*
X935901Y253402D01*
X940390Y249568D01*
X945423Y246484D01*
X950876Y244225D01*
X956616Y242847D01*
X962500Y242384D01*
X966422Y242693D01*
X968436Y239340D01*
X967467Y237819D01*
X954303Y219019D01*
X940331Y200810D01*
X925578Y183228D01*
X910072Y166307D01*
X893843Y150077D01*
X876922Y134572D01*
X859340Y119819D01*
X841131Y105847D01*
X822331Y92683D01*
X802974Y80351D01*
X783098Y68876D01*
X762739Y58278D01*
X741939Y48578D01*
X720734Y39795D01*
X699167Y31945D01*
X677278Y25044D01*
X655109Y19103D01*
X632702Y14136D01*
X610099Y10150D01*
X587344Y7155D01*
X564480Y5154D01*
X541551Y4153D01*
X518599D01*
X495670Y5154D01*
X472806Y7155D01*
X450051Y10150D01*
X427448Y14136D01*
X405041Y19103D01*
X382872Y25044D01*
X360983Y31945D01*
X339416Y39795D01*
X318211Y48578D01*
X297411Y58278D01*
X277052Y68875D01*
X257176Y80351D01*
X237819Y92683D01*
X219019Y105847D01*
X200810Y119819D01*
X183228Y134572D01*
X166307Y150078D01*
X150077Y166307D01*
X134572Y183228D01*
X119819Y200810D01*
X105847Y219019D01*
X92683Y237819D01*
X91722Y239328D01*
X93736Y242680D01*
X97500Y242384D01*
X103385Y242847D01*
X109124Y244225D01*
X114577Y246484D01*
X119610Y249568D01*
X124099Y253402D01*
X127932Y257890D01*
X131423Y256887D01*
D02*
G37*
G36*
X377500Y132500D02*
X267500D01*
Y190000D01*
X377500D01*
Y132500D01*
D02*
G37*
%LPC*%
G36*
X624000Y882000D02*
X611750D01*
Y869000D01*
X624000D01*
Y882000D01*
D02*
G37*
G36*
X608250D02*
X596000D01*
Y869000D01*
X608250D01*
Y882000D01*
D02*
G37*
G36*
X504000D02*
X491750D01*
Y869000D01*
X504000D01*
Y882000D01*
D02*
G37*
G36*
X488250D02*
X476000D01*
Y869000D01*
X488250D01*
Y882000D01*
D02*
G37*
G36*
X384000D02*
X371750D01*
Y869000D01*
X384000D01*
Y882000D01*
D02*
G37*
G36*
X368250D02*
X356000D01*
Y869000D01*
X368250D01*
Y882000D01*
D02*
G37*
G36*
X744000Y872000D02*
X731750D01*
Y859000D01*
X744000D01*
Y872000D01*
D02*
G37*
G36*
X728250D02*
X716000D01*
Y859000D01*
X728250D01*
Y872000D01*
D02*
G37*
G36*
X251750Y852000D02*
Y839000D01*
X264000D01*
Y852000D01*
X251750D01*
D02*
G37*
G36*
X200000Y907616D02*
X194116Y907153D01*
X188376Y905775D01*
X182923Y903516D01*
X177890Y900432D01*
X173402Y896599D01*
X169568Y892110D01*
X166484Y887077D01*
X164225Y881624D01*
X162847Y875884D01*
X162384Y870000D01*
X162847Y864116D01*
X164225Y858376D01*
X166484Y852923D01*
X169568Y847890D01*
X173402Y843401D01*
X177890Y839568D01*
X182923Y836484D01*
X188376Y834225D01*
X194116Y832847D01*
X200000Y832384D01*
X205884Y832847D01*
X211624Y834225D01*
X217077Y836484D01*
X222110Y839568D01*
X226598Y843401D01*
X230432Y847890D01*
X230816Y848517D01*
X232916Y851147D01*
X232916Y851147D01*
X232916D01*
X236000Y850277D01*
X236000Y848882D01*
Y839000D01*
X248250D01*
Y852000D01*
X239038D01*
X236922Y852000D01*
X234798Y854253D01*
D01*
X234798Y854253D01*
X235412Y857499D01*
X235775Y858376D01*
X237153Y864116D01*
X237616Y870000D01*
X237153Y875884D01*
X235775Y881624D01*
X233516Y887077D01*
X230432Y892110D01*
X226598Y896599D01*
X222110Y900432D01*
X217077Y903516D01*
X211624Y905775D01*
X205884Y907153D01*
X200000Y907616D01*
D02*
G37*
G36*
X870000Y907616D02*
X864116Y907153D01*
X858376Y905775D01*
X852923Y903516D01*
X847890Y900432D01*
X843401Y896599D01*
X839568Y892110D01*
X836484Y887077D01*
X834225Y881624D01*
X832847Y875884D01*
X832384Y870000D01*
X832847Y864116D01*
X834225Y858376D01*
X836484Y852923D01*
X839568Y847890D01*
X843401Y843401D01*
X847890Y839568D01*
X852923Y836484D01*
X858376Y834225D01*
X864116Y832847D01*
X870000Y832384D01*
X875884Y832847D01*
X881624Y834225D01*
X887077Y836484D01*
X892110Y839568D01*
X896599Y843401D01*
X900432Y847890D01*
X903516Y852923D01*
X905775Y858376D01*
X907153Y864116D01*
X907616Y870000D01*
X907153Y875884D01*
X905775Y881624D01*
X903516Y887077D01*
X900432Y892110D01*
X896599Y896599D01*
X892110Y900432D01*
X887077Y903516D01*
X881624Y905775D01*
X875884Y907153D01*
X870000Y907616D01*
D02*
G37*
G36*
X925000Y737250D02*
X914500D01*
Y729250D01*
X925000D01*
Y737250D01*
D02*
G37*
G36*
Y725750D02*
X914500D01*
Y717750D01*
X925000D01*
Y725750D01*
D02*
G37*
G36*
X938750Y678500D02*
X931750D01*
Y672250D01*
X938750D01*
Y678500D01*
D02*
G37*
G36*
X928250D02*
X921250D01*
Y672250D01*
X928250D01*
Y678500D01*
D02*
G37*
G36*
X328750Y640250D02*
X321750D01*
Y634000D01*
X328750D01*
Y640250D01*
D02*
G37*
G36*
X318250D02*
X311250D01*
Y634000D01*
X318250D01*
Y640250D01*
D02*
G37*
G36*
X671120Y638501D02*
X668882D01*
X666720Y637921D01*
X664781Y636802D01*
X663199Y635220D01*
X662080Y633281D01*
X661812Y632283D01*
X658189D01*
X657921Y633281D01*
X656802Y635220D01*
X655220Y636802D01*
X653281Y637921D01*
X651120Y638501D01*
X648882D01*
X646720Y637921D01*
X644781Y636802D01*
X643199Y635220D01*
X642080Y633281D01*
X641501Y631120D01*
Y628881D01*
X642080Y626720D01*
X643199Y624781D01*
X644781Y623199D01*
X646720Y622080D01*
X648882Y621501D01*
X651120D01*
X653281Y622080D01*
X655220Y623199D01*
X656802Y624781D01*
X657921Y626720D01*
X658189Y627718D01*
X661812D01*
X662080Y626720D01*
X663199Y624781D01*
X664781Y623199D01*
X666720Y622080D01*
X668882Y621501D01*
X671120D01*
X673281Y622080D01*
X675220Y623199D01*
X676802Y624781D01*
X677921Y626720D01*
X678501Y628881D01*
Y631120D01*
X677921Y633281D01*
X676802Y635220D01*
X675220Y636802D01*
X673281Y637921D01*
X671120Y638501D01*
D02*
G37*
G36*
X568750Y640250D02*
X551250D01*
Y638601D01*
X551119Y638501D01*
X548881D01*
X546720Y637921D01*
X544781Y636802D01*
X543199Y635220D01*
X542080Y633281D01*
X541812Y632283D01*
X538189D01*
X537921Y633281D01*
X536802Y635220D01*
X535220Y636802D01*
X533281Y637921D01*
X531120Y638501D01*
X528881D01*
X526720Y637921D01*
X524781Y636802D01*
X523199Y635220D01*
X522080Y633281D01*
X521812Y632283D01*
X518189D01*
X517921Y633281D01*
X516802Y635220D01*
X515220Y636802D01*
X513281Y637921D01*
X511120Y638501D01*
X508881D01*
X506720Y637921D01*
X504781Y636802D01*
X503199Y635220D01*
X502080Y633281D01*
X501812Y632283D01*
X498189D01*
X497921Y633281D01*
X496802Y635220D01*
X495220Y636802D01*
X493281Y637921D01*
X491119Y638501D01*
X488881D01*
X486720Y637921D01*
X484781Y636802D01*
X483199Y635220D01*
X482080Y633281D01*
X481812Y632283D01*
X478189D01*
X477921Y633281D01*
X476802Y635220D01*
X475220Y636802D01*
X473281Y637921D01*
X471119Y638501D01*
X468881D01*
X466720Y637921D01*
X464781Y636802D01*
X463199Y635220D01*
X462080Y633281D01*
X461812Y632283D01*
X458189D01*
X457921Y633281D01*
X456802Y635220D01*
X455220Y636802D01*
X453281Y637921D01*
X451119Y638501D01*
X448881D01*
X446720Y637921D01*
X444781Y636802D01*
X443199Y635220D01*
X442080Y633281D01*
X441812Y632283D01*
X438189D01*
X437921Y633281D01*
X436802Y635220D01*
X435220Y636802D01*
X433281Y637921D01*
X431119Y638501D01*
X428881D01*
X426720Y637921D01*
X424781Y636802D01*
X423199Y635220D01*
X422080Y633281D01*
X421812Y632283D01*
X418189D01*
X417921Y633281D01*
X416802Y635220D01*
X415220Y636802D01*
X413281Y637921D01*
X411119Y638501D01*
X408881D01*
X406720Y637921D01*
X404781Y636802D01*
X403199Y635220D01*
X402080Y633281D01*
X401501Y631120D01*
Y628881D01*
X402080Y626720D01*
X403199Y624781D01*
X404781Y623199D01*
X406720Y622080D01*
X408881Y621501D01*
X411119D01*
X413281Y622080D01*
X415220Y623199D01*
X416802Y624781D01*
X417921Y626720D01*
X418189Y627718D01*
X421812D01*
X422080Y626720D01*
X423199Y624781D01*
X424781Y623199D01*
X426720Y622080D01*
X428881Y621501D01*
X431119D01*
X433281Y622080D01*
X435220Y623199D01*
X436802Y624781D01*
X437921Y626720D01*
X438189Y627718D01*
X441812D01*
X442080Y626720D01*
X443199Y624781D01*
X444781Y623199D01*
X446720Y622080D01*
X448881Y621501D01*
X451119D01*
X453281Y622080D01*
X455220Y623199D01*
X456802Y624781D01*
X457921Y626720D01*
X458189Y627718D01*
X461812D01*
X462080Y626720D01*
X463199Y624781D01*
X464781Y623199D01*
X466720Y622080D01*
X468881Y621501D01*
X471119D01*
X473281Y622080D01*
X475220Y623199D01*
X476802Y624781D01*
X477921Y626720D01*
X478189Y627718D01*
X481812D01*
X482080Y626720D01*
X483199Y624781D01*
X484781Y623199D01*
X486720Y622080D01*
X488881Y621501D01*
X491119D01*
X493281Y622080D01*
X495220Y623199D01*
X496802Y624781D01*
X497921Y626720D01*
X498189Y627718D01*
X501812D01*
X502080Y626720D01*
X503199Y624781D01*
X504781Y623199D01*
X506720Y622080D01*
X508881Y621501D01*
X511120D01*
X513281Y622080D01*
X515220Y623199D01*
X516802Y624781D01*
X517921Y626720D01*
X518189Y627718D01*
X521812D01*
X522080Y626720D01*
X523199Y624781D01*
X524781Y623199D01*
X526720Y622080D01*
X528881Y621501D01*
X531120D01*
X533281Y622080D01*
X535220Y623199D01*
X536802Y624781D01*
X537921Y626720D01*
X538189Y627718D01*
X541812D01*
X542080Y626720D01*
X543199Y624781D01*
X544781Y623199D01*
X546720Y622080D01*
X548881Y621501D01*
X551120D01*
X553281Y622080D01*
X555220Y623199D01*
X556802Y624781D01*
X557921Y626720D01*
X558501Y628881D01*
Y631120D01*
X561352Y634000D01*
X568750D01*
Y640250D01*
D02*
G37*
G36*
X291119Y638501D02*
X288881D01*
X286719Y637921D01*
X284781Y636802D01*
X283199Y635220D01*
X282080Y633281D01*
X281812Y632283D01*
X278189D01*
X277921Y633281D01*
X276802Y635220D01*
X275219Y636802D01*
X273281Y637921D01*
X271119Y638501D01*
X268881D01*
X266719Y637921D01*
X264781Y636802D01*
X263199Y635220D01*
X262080Y633281D01*
X261812Y632283D01*
X258189D01*
X257921Y633281D01*
X256802Y635220D01*
X255219Y636802D01*
X253281Y637921D01*
X251119Y638501D01*
X248881D01*
X246719Y637921D01*
X244781Y636802D01*
X243199Y635220D01*
X242080Y633281D01*
X241500Y631120D01*
Y628881D01*
X242080Y626720D01*
X243199Y624781D01*
X244781Y623199D01*
X246719Y622080D01*
X248881Y621501D01*
X251119D01*
X253281Y622080D01*
X255219Y623199D01*
X256802Y624781D01*
X257921Y626720D01*
X258189Y627718D01*
X261812D01*
X262080Y626720D01*
X263199Y624781D01*
X264781Y623199D01*
X266719Y622080D01*
X268881Y621501D01*
X271119D01*
X273281Y622080D01*
X275219Y623199D01*
X276802Y624781D01*
X277921Y626720D01*
X278189Y627718D01*
X281812D01*
X282080Y626720D01*
X283199Y624781D01*
X284781Y623199D01*
X286719Y622080D01*
X288881Y621501D01*
X291119D01*
X293281Y622080D01*
X295219Y623199D01*
X296802Y624781D01*
X297921Y626720D01*
X298500Y628881D01*
Y631120D01*
X297921Y633281D01*
X296802Y635220D01*
X295219Y636802D01*
X293281Y637921D01*
X291119Y638501D01*
D02*
G37*
G36*
X561120Y618501D02*
X558881D01*
X556720Y617921D01*
X554781Y616802D01*
X553199Y615220D01*
X552080Y613281D01*
X551812Y612283D01*
X548189D01*
X547921Y613281D01*
X546802Y615220D01*
X545220Y616802D01*
X543281Y617921D01*
X541120Y618501D01*
X538881D01*
X536720Y617921D01*
X534781Y616802D01*
X533199Y615220D01*
X532080Y613281D01*
X531812Y612283D01*
X528189D01*
X527921Y613281D01*
X526802Y615220D01*
X525220Y616802D01*
X523281Y617921D01*
X521120Y618501D01*
X518881D01*
X516720Y617921D01*
X514781Y616802D01*
X513199Y615220D01*
X512080Y613281D01*
X511812Y612283D01*
X508189D01*
X507921Y613281D01*
X506802Y615220D01*
X505220Y616802D01*
X503281Y617921D01*
X501119Y618501D01*
X498881D01*
X496720Y617921D01*
X494781Y616802D01*
X493199Y615220D01*
X492080Y613281D01*
X491812Y612283D01*
X488189D01*
X487921Y613281D01*
X486802Y615220D01*
X485220Y616802D01*
X483281Y617921D01*
X481119Y618501D01*
X478881D01*
X476720Y617921D01*
X474781Y616802D01*
X473199Y615220D01*
X472080Y613281D01*
X471812Y612283D01*
X468189D01*
X467921Y613281D01*
X466802Y615220D01*
X465220Y616802D01*
X463281Y617921D01*
X461119Y618501D01*
X458881D01*
X456720Y617921D01*
X454781Y616802D01*
X453199Y615220D01*
X452080Y613281D01*
X451812Y612283D01*
X448189D01*
X447921Y613281D01*
X446802Y615220D01*
X445220Y616802D01*
X443281Y617921D01*
X441119Y618501D01*
X438881D01*
X436720Y617921D01*
X434781Y616802D01*
X433199Y615220D01*
X432080Y613281D01*
X431812Y612283D01*
X428189D01*
X427921Y613281D01*
X426802Y615220D01*
X425220Y616802D01*
X423281Y617921D01*
X421119Y618501D01*
X418881D01*
X416720Y617921D01*
X414781Y616802D01*
X413199Y615220D01*
X412080Y613281D01*
X411812Y612283D01*
X408189D01*
X407921Y613281D01*
X406802Y615220D01*
X405220Y616802D01*
X403281Y617921D01*
X401119Y618501D01*
X398881D01*
X396720Y617921D01*
X394781Y616802D01*
X393199Y615220D01*
X392080Y613281D01*
X391501Y611120D01*
Y608881D01*
X392080Y606720D01*
X393199Y604781D01*
X394781Y603199D01*
X396720Y602080D01*
X398881Y601501D01*
X401119D01*
X403281Y602080D01*
X405220Y603199D01*
X406802Y604781D01*
X407921Y606720D01*
X408189Y607718D01*
X411812D01*
X412080Y606720D01*
X413199Y604781D01*
X414781Y603199D01*
X416720Y602080D01*
X418881Y601501D01*
X421119D01*
X423281Y602080D01*
X425220Y603199D01*
X426802Y604781D01*
X427921Y606720D01*
X428189Y607718D01*
X431812D01*
X432080Y606720D01*
X433199Y604781D01*
X434781Y603199D01*
X436720Y602080D01*
X438881Y601501D01*
X441119D01*
X443281Y602080D01*
X445220Y603199D01*
X446802Y604781D01*
X447921Y606720D01*
X448189Y607718D01*
X451812D01*
X452080Y606720D01*
X453199Y604781D01*
X454781Y603199D01*
X456720Y602080D01*
X458881Y601501D01*
X461119D01*
X463281Y602080D01*
X465220Y603199D01*
X466802Y604781D01*
X467921Y606720D01*
X468189Y607718D01*
X471812D01*
X472080Y606720D01*
X473199Y604781D01*
X474781Y603199D01*
X476720Y602080D01*
X478881Y601501D01*
X481119D01*
X483281Y602080D01*
X485220Y603199D01*
X486802Y604781D01*
X487921Y606720D01*
X488189Y607718D01*
X491812D01*
X492080Y606720D01*
X493199Y604781D01*
X494781Y603199D01*
X496720Y602080D01*
X498881Y601501D01*
X501119D01*
X503281Y602080D01*
X505220Y603199D01*
X506802Y604781D01*
X507921Y606720D01*
X508189Y607718D01*
X511812D01*
X512080Y606720D01*
X513199Y604781D01*
X514781Y603199D01*
X516720Y602080D01*
X518881Y601501D01*
X521120D01*
X523281Y602080D01*
X525220Y603199D01*
X526802Y604781D01*
X527921Y606720D01*
X528189Y607718D01*
X531812D01*
X532080Y606720D01*
X533199Y604781D01*
X534781Y603199D01*
X536720Y602080D01*
X538881Y601501D01*
X541120D01*
X543281Y602080D01*
X545220Y603199D01*
X546802Y604781D01*
X547921Y606720D01*
X548189Y607718D01*
X551812D01*
X552080Y606720D01*
X553199Y604781D01*
X554781Y603199D01*
X556720Y602080D01*
X558881Y601501D01*
X561120D01*
X563281Y602080D01*
X565220Y603199D01*
X566802Y604781D01*
X567921Y606720D01*
X568501Y608881D01*
Y611120D01*
X567921Y613281D01*
X566802Y615220D01*
X565220Y616802D01*
X563281Y617921D01*
X561120Y618501D01*
D02*
G37*
G36*
X681120D02*
X678882D01*
X676720Y617921D01*
X674781Y616802D01*
X673199Y615220D01*
X672080Y613281D01*
X671501Y611120D01*
Y608881D01*
X672080Y606720D01*
X673199Y604781D01*
X674781Y603199D01*
X676720Y602080D01*
X678882Y601501D01*
X681120D01*
X683281Y602080D01*
X685220Y603199D01*
X686802Y604781D01*
X687921Y606720D01*
X688501Y608881D01*
Y611120D01*
X687921Y613281D01*
X686802Y615220D01*
X685220Y616802D01*
X683281Y617921D01*
X681120Y618501D01*
D02*
G37*
G36*
X291119Y598501D02*
X288881D01*
X286719Y597921D01*
X284781Y596802D01*
X283199Y595220D01*
X282080Y593281D01*
X281812Y592283D01*
X278189D01*
X277921Y593281D01*
X276802Y595220D01*
X275219Y596802D01*
X273281Y597921D01*
X271119Y598501D01*
X268881D01*
X266719Y597921D01*
X264781Y596802D01*
X263199Y595220D01*
X262080Y593281D01*
X261812Y592283D01*
X258189D01*
X257921Y593281D01*
X256802Y595220D01*
X255219Y596802D01*
X253281Y597921D01*
X251119Y598501D01*
X248881D01*
X246719Y597921D01*
X244781Y596802D01*
X243199Y595220D01*
X242080Y593281D01*
X241812Y592283D01*
X238189D01*
X237921Y593281D01*
X236802Y595220D01*
X235219Y596802D01*
X233281Y597921D01*
X231119Y598501D01*
X228881D01*
X226719Y597921D01*
X224781Y596802D01*
X223199Y595220D01*
X222080Y593281D01*
X221812Y592283D01*
X218189D01*
X217921Y593281D01*
X216802Y595220D01*
X215219Y596802D01*
X213281Y597921D01*
X211119Y598501D01*
X208881D01*
X206719Y597921D01*
X204781Y596802D01*
X203199Y595220D01*
X202080Y593281D01*
X201812Y592283D01*
X198189D01*
X197921Y593281D01*
X196802Y595220D01*
X195219Y596802D01*
X193281Y597921D01*
X191119Y598501D01*
X188881D01*
X186719Y597921D01*
X184781Y596802D01*
X183199Y595220D01*
X182080Y593281D01*
X181812Y592283D01*
X178189D01*
X177921Y593281D01*
X176802Y595220D01*
X175219Y596802D01*
X173281Y597921D01*
X171119Y598501D01*
X168881D01*
X166719Y597921D01*
X164781Y596802D01*
X163199Y595220D01*
X162080Y593281D01*
X161500Y591120D01*
Y588881D01*
X162080Y586720D01*
X163199Y584781D01*
X164781Y583199D01*
X166719Y582080D01*
X168881Y581501D01*
X171119D01*
X173281Y582080D01*
X175219Y583199D01*
X176802Y584781D01*
X177921Y586720D01*
X178189Y587718D01*
X181812D01*
X182080Y586720D01*
X183199Y584781D01*
X184781Y583199D01*
X186719Y582080D01*
X188881Y581501D01*
X191119D01*
X193281Y582080D01*
X195219Y583199D01*
X196802Y584781D01*
X197921Y586720D01*
X198189Y587718D01*
X201812D01*
X202080Y586720D01*
X203199Y584781D01*
X204781Y583199D01*
X206719Y582080D01*
X208881Y581501D01*
X211119D01*
X213281Y582080D01*
X215219Y583199D01*
X216802Y584781D01*
X217921Y586720D01*
X218189Y587718D01*
X221812D01*
X222080Y586720D01*
X223199Y584781D01*
X224781Y583199D01*
X226719Y582080D01*
X228881Y581501D01*
X231119D01*
X233281Y582080D01*
X235219Y583199D01*
X236802Y584781D01*
X237921Y586720D01*
X238189Y587718D01*
X241812D01*
X242080Y586720D01*
X243199Y584781D01*
X244781Y583199D01*
X246719Y582080D01*
X248881Y581501D01*
X251119D01*
X253281Y582080D01*
X255219Y583199D01*
X256802Y584781D01*
X257921Y586720D01*
X258189Y587718D01*
X261812D01*
X262080Y586720D01*
X263199Y584781D01*
X264781Y583199D01*
X266719Y582080D01*
X268881Y581501D01*
X271119D01*
X273281Y582080D01*
X275219Y583199D01*
X276802Y584781D01*
X277921Y586720D01*
X278189Y587718D01*
X281812D01*
X282080Y586720D01*
X283199Y584781D01*
X284781Y583199D01*
X286719Y582080D01*
X288881Y581501D01*
X291119D01*
X293281Y582080D01*
X295219Y583199D01*
X296802Y584781D01*
X297921Y586720D01*
X298500Y588881D01*
Y591120D01*
X297921Y593281D01*
X296802Y595220D01*
X295219Y596802D01*
X293281Y597921D01*
X291119Y598501D01*
D02*
G37*
G36*
X721120Y578501D02*
X718882D01*
X716720Y577921D01*
X714781Y576802D01*
X713199Y575220D01*
X712080Y573281D01*
X711812Y572283D01*
X708189D01*
X707921Y573281D01*
X706802Y575220D01*
X705220Y576802D01*
X703281Y577921D01*
X701120Y578501D01*
X698882D01*
X696720Y577921D01*
X694781Y576802D01*
X693199Y575220D01*
X692080Y573281D01*
X691501Y571120D01*
Y568881D01*
X692080Y566720D01*
X693199Y564781D01*
X694781Y563199D01*
X696720Y562080D01*
X698882Y561501D01*
X701120D01*
X703281Y562080D01*
X705220Y563199D01*
X706802Y564781D01*
X707921Y566720D01*
X708189Y567718D01*
X711812D01*
X712080Y566720D01*
X713199Y564781D01*
X714781Y563199D01*
X716720Y562080D01*
X718882Y561501D01*
X721120D01*
X723281Y562080D01*
X725220Y563199D01*
X726802Y564781D01*
X727921Y566720D01*
X728501Y568881D01*
Y571120D01*
X727921Y573281D01*
X726802Y575220D01*
X725220Y576802D01*
X723281Y577921D01*
X721120Y578501D01*
D02*
G37*
G36*
X551120Y558501D02*
X548881D01*
X546720Y557921D01*
X544781Y556802D01*
X543199Y555220D01*
X542080Y553281D01*
X541812Y552283D01*
X538189D01*
X537921Y553281D01*
X536802Y555220D01*
X535220Y556802D01*
X533281Y557921D01*
X531120Y558501D01*
X528881D01*
X526720Y557921D01*
X524781Y556802D01*
X523199Y555220D01*
X522080Y553281D01*
X521812Y552283D01*
X518189D01*
X517921Y553281D01*
X516802Y555220D01*
X515220Y556802D01*
X513281Y557921D01*
X511120Y558501D01*
X508881D01*
X506720Y557921D01*
X504781Y556802D01*
X503199Y555220D01*
X502080Y553281D01*
X501812Y552283D01*
X498189D01*
X497921Y553281D01*
X496802Y555220D01*
X495220Y556802D01*
X493281Y557921D01*
X491119Y558501D01*
X488881D01*
X486720Y557921D01*
X484781Y556802D01*
X483199Y555220D01*
X482080Y553281D01*
X481812Y552283D01*
X478189D01*
X477921Y553281D01*
X476802Y555220D01*
X475220Y556802D01*
X473281Y557921D01*
X471119Y558501D01*
X468881D01*
X466720Y557921D01*
X464781Y556802D01*
X463199Y555220D01*
X462080Y553281D01*
X461812Y552283D01*
X458189D01*
X457921Y553281D01*
X456802Y555220D01*
X455220Y556802D01*
X453281Y557921D01*
X451119Y558501D01*
X448881D01*
X446720Y557921D01*
X444781Y556802D01*
X443199Y555220D01*
X442080Y553281D01*
X441812Y552283D01*
X438189D01*
X437921Y553281D01*
X436802Y555220D01*
X435220Y556802D01*
X433281Y557921D01*
X431119Y558501D01*
X428881D01*
X426720Y557921D01*
X424781Y556802D01*
X423199Y555220D01*
X422080Y553281D01*
X421501Y551120D01*
Y548881D01*
X422080Y546720D01*
X423199Y544781D01*
X424781Y543199D01*
X426720Y542080D01*
X428881Y541501D01*
X431119D01*
X433281Y542080D01*
X435220Y543199D01*
X436802Y544781D01*
X437921Y546720D01*
X438189Y547718D01*
X441812D01*
X442080Y546720D01*
X443199Y544781D01*
X444781Y543199D01*
X446720Y542080D01*
X448881Y541501D01*
X451119D01*
X453281Y542080D01*
X455220Y543199D01*
X456802Y544781D01*
X457921Y546720D01*
X458189Y547718D01*
X461812D01*
X462080Y546720D01*
X463199Y544781D01*
X464781Y543199D01*
X466720Y542080D01*
X468881Y541501D01*
X471119D01*
X473281Y542080D01*
X475220Y543199D01*
X476802Y544781D01*
X477921Y546720D01*
X478189Y547718D01*
X481812D01*
X482080Y546720D01*
X483199Y544781D01*
X484781Y543199D01*
X486720Y542080D01*
X488881Y541501D01*
X491119D01*
X493281Y542080D01*
X495220Y543199D01*
X496802Y544781D01*
X497921Y546720D01*
X498189Y547718D01*
X501812D01*
X502080Y546720D01*
X503199Y544781D01*
X504781Y543199D01*
X506720Y542080D01*
X508881Y541501D01*
X511120D01*
X513281Y542080D01*
X515220Y543199D01*
X516802Y544781D01*
X517921Y546720D01*
X518189Y547718D01*
X521812D01*
X522080Y546720D01*
X523199Y544781D01*
X524781Y543199D01*
X526720Y542080D01*
X528881Y541501D01*
X531120D01*
X533281Y542080D01*
X535220Y543199D01*
X536802Y544781D01*
X537921Y546720D01*
X538189Y547718D01*
X541812D01*
X542080Y546720D01*
X543199Y544781D01*
X544781Y543199D01*
X546720Y542080D01*
X548881Y541501D01*
X551120D01*
X553281Y542080D01*
X555220Y543199D01*
X556802Y544781D01*
X557921Y546720D01*
X558501Y548881D01*
Y551120D01*
X557921Y553281D01*
X556802Y555220D01*
X555220Y556802D01*
X553281Y557921D01*
X551120Y558501D01*
D02*
G37*
G36*
X311119D02*
X308881D01*
X306719Y557921D01*
X304781Y556802D01*
X303199Y555220D01*
X302080Y553281D01*
X301812Y552283D01*
X298189D01*
X297921Y553281D01*
X296802Y555220D01*
X295219Y556802D01*
X293281Y557921D01*
X291119Y558501D01*
X288881D01*
X286719Y557921D01*
X284781Y556802D01*
X283199Y555220D01*
X282080Y553281D01*
X281812Y552283D01*
X278189D01*
X277921Y553281D01*
X276802Y555220D01*
X275219Y556802D01*
X273281Y557921D01*
X271119Y558501D01*
X268881D01*
X266719Y557921D01*
X264781Y556802D01*
X263199Y555220D01*
X262080Y553281D01*
X261812Y552283D01*
X258189D01*
X257921Y553281D01*
X256802Y555220D01*
X255219Y556802D01*
X253281Y557921D01*
X251119Y558501D01*
X248881D01*
X246719Y557921D01*
X244781Y556802D01*
X243199Y555220D01*
X242080Y553281D01*
X241812Y552283D01*
X238189D01*
X237921Y553281D01*
X236802Y555220D01*
X235219Y556802D01*
X233281Y557921D01*
X231119Y558501D01*
X228881D01*
X226719Y557921D01*
X224781Y556802D01*
X223199Y555220D01*
X222080Y553281D01*
X221812Y552283D01*
X218189D01*
X217921Y553281D01*
X216802Y555220D01*
X215219Y556802D01*
X213281Y557921D01*
X211119Y558501D01*
X208881D01*
X206719Y557921D01*
X204781Y556802D01*
X203199Y555220D01*
X202080Y553281D01*
X201812Y552283D01*
X198189D01*
X197921Y553281D01*
X196802Y555220D01*
X195219Y556802D01*
X193281Y557921D01*
X191119Y558501D01*
X188881D01*
X186719Y557921D01*
X184781Y556802D01*
X183199Y555220D01*
X182080Y553281D01*
X181812Y552283D01*
X178189D01*
X177921Y553281D01*
X176802Y555220D01*
X175219Y556802D01*
X173281Y557921D01*
X171119Y558501D01*
X168881D01*
X166719Y557921D01*
X164781Y556802D01*
X163199Y555220D01*
X162080Y553281D01*
X161500Y551120D01*
Y548881D01*
X162080Y546720D01*
X163199Y544781D01*
X164781Y543199D01*
X166719Y542080D01*
X168881Y541501D01*
X171119D01*
X173281Y542080D01*
X175219Y543199D01*
X176802Y544781D01*
X177921Y546720D01*
X178189Y547718D01*
X181812D01*
X182080Y546720D01*
X183199Y544781D01*
X184781Y543199D01*
X186719Y542080D01*
X188881Y541501D01*
X191119D01*
X193281Y542080D01*
X195219Y543199D01*
X196802Y544781D01*
X197921Y546720D01*
X198189Y547718D01*
X201812D01*
X202080Y546720D01*
X203199Y544781D01*
X204781Y543199D01*
X206719Y542080D01*
X208881Y541501D01*
X211119D01*
X213281Y542080D01*
X215219Y543199D01*
X216802Y544781D01*
X217921Y546720D01*
X218189Y547718D01*
X221812D01*
X222080Y546720D01*
X223199Y544781D01*
X224781Y543199D01*
X226719Y542080D01*
X228881Y541501D01*
X231119D01*
X233281Y542080D01*
X235219Y543199D01*
X236802Y544781D01*
X237921Y546720D01*
X238189Y547718D01*
X241812D01*
X242080Y546720D01*
X243199Y544781D01*
X244781Y543199D01*
X246719Y542080D01*
X248881Y541501D01*
X251119D01*
X253281Y542080D01*
X255219Y543199D01*
X256802Y544781D01*
X257921Y546720D01*
X258189Y547718D01*
X261812D01*
X262080Y546720D01*
X263199Y544781D01*
X264781Y543199D01*
X266719Y542080D01*
X268881Y541501D01*
X271119D01*
X273281Y542080D01*
X275219Y543199D01*
X276802Y544781D01*
X277921Y546720D01*
X278189Y547718D01*
X281812D01*
X282080Y546720D01*
X283199Y544781D01*
X284781Y543199D01*
X286719Y542080D01*
X288881Y541501D01*
X291119D01*
X293281Y542080D01*
X295219Y543199D01*
X296802Y544781D01*
X297921Y546720D01*
X298189Y547718D01*
X301812D01*
X302080Y546720D01*
X303199Y544781D01*
X304781Y543199D01*
X306719Y542080D01*
X308881Y541501D01*
X311119D01*
X313281Y542080D01*
X315219Y543199D01*
X316802Y544781D01*
X317921Y546720D01*
X318500Y548881D01*
Y551120D01*
X317921Y553281D01*
X316802Y555220D01*
X315219Y556802D01*
X313281Y557921D01*
X311119Y558501D01*
D02*
G37*
G36*
X398250Y536000D02*
X391250D01*
Y529750D01*
X398250D01*
Y536000D01*
D02*
G37*
G36*
X228500Y513500D02*
X141500D01*
Y426500D01*
X228500D01*
Y446556D01*
X232000Y447017D01*
X232080Y446720D01*
X233199Y444781D01*
X234781Y443199D01*
X236719Y442080D01*
X238881Y441501D01*
X241119D01*
X243281Y442080D01*
X245219Y443199D01*
X246802Y444781D01*
X247921Y446720D01*
X248189Y447718D01*
X251812D01*
X252080Y446720D01*
X253199Y444781D01*
X254781Y443199D01*
X256719Y442080D01*
X258881Y441501D01*
X261119D01*
X263281Y442080D01*
X265219Y443199D01*
X266802Y444781D01*
X267921Y446720D01*
X268500Y448881D01*
Y451119D01*
X267921Y453281D01*
X266802Y455220D01*
X265219Y456802D01*
X263281Y457921D01*
X261119Y458501D01*
X258881D01*
X256719Y457921D01*
X254781Y456802D01*
X253199Y455220D01*
X252080Y453281D01*
X251812Y452283D01*
X248189D01*
X247921Y453281D01*
X246802Y455220D01*
X245219Y456802D01*
X243281Y457921D01*
X241119Y458501D01*
X238881D01*
X236719Y457921D01*
X234781Y456802D01*
X233199Y455220D01*
X232080Y453281D01*
X232000Y452984D01*
X228500Y453445D01*
Y486556D01*
X232000Y487017D01*
X232080Y486720D01*
X233199Y484781D01*
X234781Y483199D01*
X236719Y482080D01*
X238881Y481501D01*
X241119D01*
X243281Y482080D01*
X245219Y483199D01*
X246802Y484781D01*
X247921Y486720D01*
X248189Y487718D01*
X251812D01*
X252080Y486720D01*
X253199Y484781D01*
X254781Y483199D01*
X256719Y482080D01*
X258881Y481501D01*
X261119D01*
X263281Y482080D01*
X265219Y483199D01*
X266802Y484781D01*
X267921Y486720D01*
X268500Y488881D01*
Y491119D01*
X267921Y493281D01*
X266802Y495220D01*
X265219Y496802D01*
X263281Y497921D01*
X261119Y498501D01*
X258881D01*
X256719Y497921D01*
X254781Y496802D01*
X253199Y495220D01*
X252080Y493281D01*
X251812Y492283D01*
X248189D01*
X247921Y493281D01*
X246802Y495220D01*
X245219Y496802D01*
X243281Y497921D01*
X241119Y498501D01*
X238881D01*
X236719Y497921D01*
X234781Y496802D01*
X233199Y495220D01*
X232080Y493281D01*
X232000Y492984D01*
X228500Y493445D01*
Y513500D01*
D02*
G37*
G36*
X271119Y478501D02*
X268881D01*
X266719Y477921D01*
X264781Y476802D01*
X263199Y475220D01*
X262080Y473281D01*
X261812Y472283D01*
X258189D01*
X257921Y473281D01*
X256802Y475220D01*
X255219Y476802D01*
X253281Y477921D01*
X251119Y478501D01*
X248881D01*
X246719Y477921D01*
X244781Y476802D01*
X243199Y475220D01*
X242080Y473281D01*
X241500Y471119D01*
Y468881D01*
X242080Y466720D01*
X243199Y464781D01*
X244781Y463199D01*
X246719Y462080D01*
X248881Y461501D01*
X251119D01*
X253281Y462080D01*
X255219Y463199D01*
X256802Y464781D01*
X257921Y466720D01*
X258189Y467718D01*
X261812D01*
X262080Y466720D01*
X263199Y464781D01*
X264781Y463199D01*
X266719Y462080D01*
X268881Y461501D01*
X271119D01*
X273281Y462080D01*
X275219Y463199D01*
X276802Y464781D01*
X277921Y466720D01*
X278500Y468881D01*
Y471119D01*
X277921Y473281D01*
X276802Y475220D01*
X275219Y476802D01*
X273281Y477921D01*
X271119Y478501D01*
D02*
G37*
G36*
X504000Y331000D02*
X491750D01*
Y318000D01*
X504000D01*
Y331000D01*
D02*
G37*
G36*
X488250D02*
X476000D01*
Y318000D01*
X488250D01*
Y331000D01*
D02*
G37*
G36*
X384000D02*
X371750D01*
Y318000D01*
X384000D01*
Y331000D01*
D02*
G37*
G36*
X368250D02*
X356000D01*
Y318000D01*
X368250D01*
Y331000D01*
D02*
G37*
G36*
X264000D02*
X251750D01*
Y318000D01*
X264000D01*
Y331000D01*
D02*
G37*
G36*
X248250D02*
X236000D01*
Y318000D01*
X248250D01*
Y331000D01*
D02*
G37*
G36*
X744000Y331000D02*
X731750D01*
Y318000D01*
X744000D01*
Y331000D01*
D02*
G37*
G36*
X728250D02*
X716000D01*
Y318000D01*
X728250D01*
Y331000D01*
D02*
G37*
G36*
X624000D02*
X611750D01*
Y318000D01*
X624000D01*
Y331000D01*
D02*
G37*
G36*
X608250D02*
X596000D01*
Y318000D01*
X608250D01*
Y331000D01*
D02*
G37*
G36*
X638250Y536000D02*
X631250D01*
Y529750D01*
X638250D01*
Y536000D01*
D02*
G37*
G36*
X799750Y568750D02*
Y561750D01*
X806000D01*
Y568750D01*
X799750D01*
D02*
G37*
G36*
X806000Y558250D02*
X799750D01*
Y551250D01*
X806000D01*
Y558250D01*
D02*
G37*
%LPD*%
D18*
X917500Y616500D02*
D03*
Y603500D02*
D03*
X1000000Y674000D02*
D03*
Y661000D02*
D03*
Y699000D02*
D03*
Y686000D02*
D03*
D30*
X930000Y654500D02*
D03*
Y670500D02*
D03*
X917500Y588000D02*
D03*
Y572000D02*
D03*
X400000Y512000D02*
D03*
Y528000D02*
D03*
X640000Y512000D02*
D03*
Y528000D02*
D03*
X560000Y642000D02*
D03*
Y658000D02*
D03*
X320000Y642000D02*
D03*
Y658000D02*
D03*
D32*
X782000Y560000D02*
D03*
X798000D02*
D03*
D50*
X1017500Y675325D02*
Y695000D01*
X1005425Y663250D02*
X1017500Y675325D01*
X945950Y650250D02*
Y659250D01*
X934400Y552359D02*
X945000Y541759D01*
X934400Y552359D02*
Y568434D01*
X920149Y569351D02*
X933483D01*
X934400Y568434D01*
X945000Y540000D02*
Y541759D01*
X917500Y572000D02*
X920149Y569351D01*
X958650Y645323D02*
X959800Y644174D01*
X958650Y645323D02*
Y650250D01*
X959800Y614408D02*
Y644174D01*
X606350Y538189D02*
X613419Y531120D01*
X636130D01*
X606350Y538189D02*
Y547250D01*
X639250Y528000D02*
X640000D01*
X636130Y531120D02*
X639250Y528000D01*
X381350Y528000D02*
X400000D01*
X366350Y543000D02*
Y547250D01*
Y543000D02*
X381350Y528000D01*
X379050Y547250D02*
Y585950D01*
X380000Y586899D02*
X580950D01*
X580000Y434250D02*
Y456000D01*
Y428050D02*
Y431150D01*
X593650Y469650D02*
Y492750D01*
X580000Y456000D02*
X593650Y469650D01*
X580000Y431150D02*
Y434250D01*
X757500Y496750D02*
X820000Y434250D01*
Y428050D02*
Y434250D01*
X798000Y560000D02*
Y578650D01*
X930050Y654450D02*
X944795D01*
X945950Y650250D02*
Y653295D01*
X944795Y654450D02*
X945950Y653295D01*
X929500Y655000D02*
X930050Y654450D01*
X971801Y685100D02*
X983900D01*
X945950Y659250D02*
X971801Y685100D01*
X983900D02*
Y704599D01*
X998250Y662750D02*
X1000000Y661000D01*
X975451Y662750D02*
X998250D01*
X971350Y658650D02*
X975451Y662750D01*
X971350Y650250D02*
Y658650D01*
X1000000Y661000D02*
X1002250Y663250D01*
X1005425D01*
X1000000Y674000D02*
Y686000D01*
X328194Y416244D02*
X340000Y428050D01*
X326244Y416244D02*
X328194D01*
X340000Y428050D02*
Y457500D01*
X325000Y415000D02*
X326244Y416244D01*
X446244D02*
X448194D01*
X460000Y428050D02*
Y450000D01*
X448194Y416244D02*
X460000Y428050D01*
X445000Y415000D02*
X446244Y416244D01*
X566244D02*
X568194D01*
X580000Y428050D01*
X565000Y415000D02*
X566244Y416244D01*
X688194D02*
X700000Y428050D01*
X685000Y415000D02*
X686244Y416244D01*
X688194D01*
X700000Y428050D02*
Y447500D01*
X515101Y766850D02*
X578000D01*
X580000Y768850D01*
X507500Y759249D02*
X515101Y766850D01*
X507500Y757500D02*
Y759249D01*
X353650Y658000D02*
Y677249D01*
X917500Y588000D02*
Y603500D01*
X979250Y727500D02*
X1000000Y706750D01*
X976750Y727500D02*
X979250D01*
X1000000Y699000D02*
Y706750D01*
X882787Y648813D02*
X903000D01*
X909187Y655000D02*
X929500D01*
X903000Y648813D02*
X909187Y655000D01*
X983900Y685100D02*
X999100D01*
X1000000Y686000D01*
X1011451Y632157D02*
X1020000Y623609D01*
X948500Y327500D02*
X1020000Y399000D01*
Y623609D01*
X1011327Y632157D02*
X1011451D01*
X806244Y418744D02*
X810694D01*
X805000Y417500D02*
X806244Y418744D01*
X757500Y579273D02*
X759176Y580950D01*
X810694Y418744D02*
X820000Y428050D01*
X757500Y496750D02*
Y579273D01*
X759176Y580950D02*
X762750D01*
X1003234Y640250D02*
X1011327Y632157D01*
X993754Y640250D02*
X1003234D01*
X985200Y631696D02*
X993754Y640250D01*
X985200Y614408D02*
Y631696D01*
X947000Y631000D02*
X947050Y630950D01*
Y614458D02*
Y630950D01*
Y614458D02*
X947100Y614408D01*
X997950Y614458D02*
Y629950D01*
X998000Y630000D01*
X997900Y614408D02*
X997950Y614458D01*
X972500Y601946D02*
Y614408D01*
X934400Y601946D02*
Y615583D01*
X941346Y595000D02*
X965554D01*
X972500Y601946D01*
X934400D02*
X941346Y595000D01*
X933483Y616500D02*
X934400Y615583D01*
X917500Y616500D02*
X933483D01*
X971350Y722100D02*
X976750Y727500D01*
X971350Y704750D02*
Y722100D01*
X958650Y696600D02*
Y704750D01*
Y696600D02*
X962751Y692500D01*
X967500D02*
X971350Y696350D01*
Y704750D01*
X962751Y692500D02*
X967500D01*
X950750Y727500D02*
X953250D01*
X945950Y704750D02*
Y722700D01*
X950750Y727500D01*
X353650Y471150D02*
Y492750D01*
X340000Y457500D02*
X353650Y471150D01*
X417250Y492750D02*
X460000Y450000D01*
X379050Y492750D02*
X417250D01*
X654750Y492750D02*
X700000Y447500D01*
X619050Y492750D02*
X654750D01*
X692500Y527500D02*
X732500D01*
X634169Y585831D02*
X692500Y527500D01*
X366350Y492750D02*
Y506350D01*
X767750Y527500D02*
X835000D01*
Y580000D01*
Y341000D02*
Y527500D01*
X834050Y580950D02*
X835000Y580000D01*
Y341000D02*
X857300Y318700D01*
X835000Y581900D02*
Y600900D01*
X834050Y580950D02*
X835000Y581900D01*
X817250Y580950D02*
X834050D01*
X250000Y728850D02*
X251350Y727500D01*
X267500D01*
X811750Y740000D02*
X814250D01*
X785000Y735000D02*
X806750D01*
X811750Y740000D01*
X820000Y745750D02*
Y748850D01*
X814250Y740000D02*
X820000Y745750D01*
X785000Y673500D02*
Y735000D01*
X762500D02*
X785000D01*
X747500Y750000D02*
X762500Y735000D01*
X762750Y606350D02*
X767000D01*
X785000Y624350D02*
Y646500D01*
X767000Y606350D02*
X785000Y624350D01*
X746350Y593650D02*
X762750D01*
X606350Y492750D02*
Y511350D01*
X593650Y661150D02*
Y677250D01*
X638850Y768850D02*
X700000D01*
X627500Y757500D02*
X638850Y768850D01*
X606350Y736350D02*
X627500Y757500D01*
X606350Y677250D02*
Y736350D01*
X580000Y768850D02*
X580950Y767900D01*
Y677250D02*
Y767900D01*
X388850Y758850D02*
X460000D01*
X387500Y757500D02*
X388850Y758850D01*
X366350Y736350D02*
X387500Y757500D01*
X366350Y677249D02*
Y736350D01*
X277751Y677249D02*
X340950D01*
X250000Y705000D02*
Y728850D01*
Y705000D02*
X277751Y677249D01*
X620835Y585831D02*
X634169D01*
X607500D02*
X620835D01*
X619050Y547250D02*
Y584046D01*
X620835Y585831D01*
X593650D02*
X607500D01*
X606350Y586981D02*
Y622750D01*
Y586981D02*
X607500Y585831D01*
X580950D02*
Y622750D01*
Y585831D02*
X593650D01*
Y547250D02*
Y585831D01*
X367500Y586899D02*
X380000D01*
X379050Y585950D02*
X380000Y586899D01*
X354500D02*
X367500D01*
X348101D02*
X354500D01*
X353650Y547250D02*
Y586049D01*
X354500Y586899D01*
X366350Y588049D02*
Y622749D01*
Y588049D02*
X367500Y586899D01*
X340950Y594050D02*
Y622749D01*
Y594050D02*
X348101Y586899D01*
X817250Y606350D02*
X829549D01*
X835000Y600900D01*
X813000Y593650D02*
X817250D01*
X798000Y578650D02*
X813000Y593650D01*
X767000D02*
X782000Y578650D01*
Y560000D02*
Y578650D01*
D51*
X97060Y280070D02*
D03*
X963090D02*
D03*
X530000Y1030000D02*
D03*
D52*
X466500Y172700D02*
D03*
X441100Y172700D02*
D03*
X415700Y172700D02*
D03*
X390300Y172700D02*
D03*
X364900Y172700D02*
D03*
X339500Y172700D02*
D03*
X314100Y172700D02*
D03*
X288700Y147300D02*
D03*
X314100Y147300D02*
D03*
X339500Y147300D02*
D03*
X364900Y147300D02*
D03*
X390300Y147300D02*
D03*
X415700Y147300D02*
D03*
X441100Y147300D02*
D03*
X466500Y147300D02*
D03*
X491900Y147300D02*
D03*
X491900Y172700D02*
D03*
X517300Y172700D02*
D03*
X517300Y147300D02*
D03*
X542700Y147300D02*
D03*
X542700Y172700D02*
D03*
X568100Y172700D02*
D03*
X568100Y147300D02*
D03*
X593500Y147300D02*
D03*
X593500Y172700D02*
D03*
X618900Y172700D02*
D03*
X618900Y147300D02*
D03*
X644300Y147300D02*
D03*
X644300Y172700D02*
D03*
X669700Y172700D02*
D03*
X669700Y147300D02*
D03*
X695100Y172700D02*
D03*
X695100Y147300D02*
D03*
X720500Y172700D02*
D03*
X720500Y147300D02*
D03*
X745900Y172700D02*
D03*
Y147300D02*
D03*
X771300Y172700D02*
D03*
X771300Y147300D02*
D03*
D53*
X288700Y172700D02*
D03*
D54*
X540000Y375000D02*
D03*
X780000Y375000D02*
D03*
X660000D02*
D03*
X420000Y375000D02*
D03*
X300000D02*
D03*
X540000Y815000D02*
D03*
X660000Y815000D02*
D03*
X300000Y785000D02*
D03*
X780000Y805000D02*
D03*
X420000Y815000D02*
D03*
D55*
X540000Y320000D02*
D03*
Y265000D02*
D03*
X780000Y265000D02*
D03*
Y320000D02*
D03*
X660000Y265000D02*
D03*
X660000Y320000D02*
D03*
X420000Y265000D02*
D03*
Y320000D02*
D03*
X300000Y265000D02*
D03*
Y320000D02*
D03*
X540000Y870000D02*
D03*
Y925000D02*
D03*
X660000Y870000D02*
D03*
Y925000D02*
D03*
X300000Y840000D02*
D03*
Y895000D02*
D03*
X780000Y860000D02*
D03*
Y915000D02*
D03*
X420000Y925000D02*
D03*
Y870000D02*
D03*
D56*
X200000Y250000D02*
D03*
Y870000D02*
D03*
X870000Y250000D02*
D03*
Y870000D02*
D03*
D57*
X857300Y801300D02*
D03*
X882700Y801300D02*
D03*
X857300Y775900D02*
D03*
X882700Y775900D02*
D03*
X857300Y750500D02*
D03*
X882700Y750500D02*
D03*
X857300Y725100D02*
D03*
X882700Y725100D02*
D03*
X857300Y699700D02*
D03*
X882700Y699700D02*
D03*
X857300Y674300D02*
D03*
X882700Y674300D02*
D03*
X857300Y648900D02*
D03*
X882700Y648900D02*
D03*
X857300Y623500D02*
D03*
X882700Y623500D02*
D03*
X857300Y598100D02*
D03*
X882700Y598100D02*
D03*
X857300Y572700D02*
D03*
X882700Y572700D02*
D03*
X857300Y547300D02*
D03*
X882700Y547300D02*
D03*
X857300Y521900D02*
D03*
X882700Y521900D02*
D03*
X857300Y496500D02*
D03*
X882700Y496500D02*
D03*
X857300Y471100D02*
D03*
X882700Y471100D02*
D03*
X857300Y445700D02*
D03*
X882700Y445700D02*
D03*
X857300Y420300D02*
D03*
X882700Y420300D02*
D03*
X857300Y394900D02*
D03*
X882700Y394900D02*
D03*
X857300Y369500D02*
D03*
X882700Y369500D02*
D03*
X857300Y344100D02*
D03*
X882700Y344100D02*
D03*
X857300Y318700D02*
D03*
X882700Y318700D02*
D03*
D58*
X185000Y470000D02*
D03*
Y660000D02*
D03*
D59*
Y360000D02*
D03*
Y770000D02*
D03*
D60*
X1017500Y695000D02*
D03*
X945000Y540000D02*
D03*
X712000Y636000D02*
D03*
X630000Y575000D02*
D03*
X435000D02*
D03*
X366000D02*
D03*
X234000D02*
D03*
X809000Y541000D02*
D03*
X90000Y567500D02*
D03*
X82500Y545000D02*
D03*
X115000Y572500D02*
D03*
X325000Y415000D02*
D03*
X445000D02*
D03*
X565000D02*
D03*
X685000D02*
D03*
X637500Y75000D02*
D03*
X537500Y45000D02*
D03*
X405000Y45000D02*
D03*
X1040000Y470000D02*
D03*
Y530000D02*
D03*
X1035000Y625000D02*
D03*
X977500Y587500D02*
D03*
X1002500D02*
D03*
X948500Y327500D02*
D03*
X805000Y417500D02*
D03*
X788000Y541000D02*
D03*
X1011327Y632157D02*
D03*
X947000Y631000D02*
D03*
X998000Y630000D02*
D03*
X800001Y610001D02*
D03*
X790001Y590000D02*
D03*
Y510000D02*
D03*
X770001Y550000D02*
D03*
X750001Y470000D02*
D03*
X730001Y590000D02*
D03*
Y550000D02*
D03*
X740001Y490000D02*
D03*
X730001Y470000D02*
D03*
X710001Y590000D02*
D03*
X720001Y570000D02*
D03*
X710001Y550000D02*
D03*
X720001Y490000D02*
D03*
X710001Y470000D02*
D03*
X700001Y570000D02*
D03*
X690001Y550000D02*
D03*
X700001Y490000D02*
D03*
X650001Y550000D02*
D03*
X660001Y530000D02*
D03*
X630001Y470000D02*
D03*
X610001D02*
D03*
X600001Y530000D02*
D03*
X580000D02*
D03*
X570000Y470000D02*
D03*
X550000Y550000D02*
D03*
X560000Y530000D02*
D03*
X530000Y550000D02*
D03*
X540000Y530000D02*
D03*
X510000Y550000D02*
D03*
X520000Y530000D02*
D03*
X510000Y470000D02*
D03*
X490000Y550000D02*
D03*
X500000Y530000D02*
D03*
Y490000D02*
D03*
X490000Y470000D02*
D03*
X470000Y550000D02*
D03*
X480000Y530000D02*
D03*
Y490000D02*
D03*
X470000Y470000D02*
D03*
X450000Y550000D02*
D03*
X460000Y530000D02*
D03*
Y490000D02*
D03*
X430000Y550000D02*
D03*
X440000Y530000D02*
D03*
X420000D02*
D03*
X390000Y470000D02*
D03*
X370000D02*
D03*
X360000Y530000D02*
D03*
X350000Y510000D02*
D03*
X340000Y530000D02*
D03*
X330000Y510000D02*
D03*
Y470000D02*
D03*
X310000Y550000D02*
D03*
X320000Y530000D02*
D03*
X310000Y510000D02*
D03*
X290000Y550000D02*
D03*
X300000Y530000D02*
D03*
X290000Y510000D02*
D03*
X270000Y550000D02*
D03*
X280000Y530000D02*
D03*
X270000Y510000D02*
D03*
Y470000D02*
D03*
X250000Y550000D02*
D03*
X260000Y530000D02*
D03*
X250000Y510000D02*
D03*
X260000Y490000D02*
D03*
X250000Y470000D02*
D03*
X260000Y450000D02*
D03*
X230000Y550000D02*
D03*
X240000Y530000D02*
D03*
Y490000D02*
D03*
Y450000D02*
D03*
X210000Y550000D02*
D03*
X220000Y530000D02*
D03*
X190000Y550000D02*
D03*
X200000Y530000D02*
D03*
X170000Y550000D02*
D03*
X180000Y530000D02*
D03*
X160000D02*
D03*
X670001Y630001D02*
D03*
X680001Y610001D02*
D03*
X650001Y630001D02*
D03*
Y590000D02*
D03*
X630001Y710001D02*
D03*
X570000D02*
D03*
X550000Y630001D02*
D03*
X560000Y610001D02*
D03*
X530000Y630001D02*
D03*
X540000Y610001D02*
D03*
X510000Y710001D02*
D03*
Y630001D02*
D03*
X520000Y610001D02*
D03*
X490000Y710001D02*
D03*
X500000Y690001D02*
D03*
X490000Y630001D02*
D03*
X500000Y610001D02*
D03*
X470000Y710001D02*
D03*
X480000Y690001D02*
D03*
X470000Y630001D02*
D03*
X480000Y610001D02*
D03*
X450000Y710001D02*
D03*
X460000Y690001D02*
D03*
X450000Y630001D02*
D03*
X460000Y610001D02*
D03*
X430000Y630001D02*
D03*
X440000Y610001D02*
D03*
X410000Y630001D02*
D03*
X420000Y610001D02*
D03*
X390000Y710001D02*
D03*
X400000Y610001D02*
D03*
X300000Y650001D02*
D03*
X290000Y630001D02*
D03*
X300000Y610001D02*
D03*
X290000Y590000D02*
D03*
X270000Y670001D02*
D03*
X280000Y650001D02*
D03*
X270000Y630001D02*
D03*
X280000Y610001D02*
D03*
X270000Y590000D02*
D03*
X250000Y670001D02*
D03*
X260000Y650001D02*
D03*
X250000Y630001D02*
D03*
X260000Y610001D02*
D03*
X250000Y590000D02*
D03*
X240000Y690001D02*
D03*
Y650001D02*
D03*
Y610001D02*
D03*
X230000Y590000D02*
D03*
X220000Y610001D02*
D03*
X210000Y590000D02*
D03*
X200000Y610001D02*
D03*
X190000Y590000D02*
D03*
X180000Y610001D02*
D03*
X170000Y590000D02*
D03*
X160000Y610001D02*
D03*
X822500Y772500D02*
D03*
X700000Y830000D02*
D03*
X580000D02*
D03*
X462500Y782500D02*
D03*
X267500Y355000D02*
D03*
X267500Y367500D02*
D03*
Y380000D02*
D03*
X257500Y390000D02*
D03*
X270000Y392500D02*
D03*
X257500Y402500D02*
D03*
X270000Y405000D02*
D03*
X257500Y415000D02*
D03*
X270000Y417500D02*
D03*
X282500Y407500D02*
D03*
X295000D02*
D03*
X307500D02*
D03*
X330000Y362500D02*
D03*
X387500Y355000D02*
D03*
X387500Y367500D02*
D03*
Y380000D02*
D03*
X377500Y390000D02*
D03*
X390000Y392500D02*
D03*
X377500Y402500D02*
D03*
X390000Y405000D02*
D03*
X377500Y415000D02*
D03*
X390000Y417500D02*
D03*
X402500Y407500D02*
D03*
X415000D02*
D03*
X427500D02*
D03*
X450000Y362500D02*
D03*
X507500Y355000D02*
D03*
X507500Y367500D02*
D03*
Y380000D02*
D03*
X497500Y390000D02*
D03*
X510000Y392500D02*
D03*
X497500Y402500D02*
D03*
X510000Y405000D02*
D03*
X497500Y415000D02*
D03*
X510000Y417500D02*
D03*
X522500Y407500D02*
D03*
X535000D02*
D03*
X547500D02*
D03*
X570000Y362500D02*
D03*
X627500Y355000D02*
D03*
X627500Y367500D02*
D03*
Y380000D02*
D03*
X617500Y390000D02*
D03*
X630000Y392500D02*
D03*
X617500Y402500D02*
D03*
X630000Y405000D02*
D03*
X617500Y415000D02*
D03*
X630000Y417500D02*
D03*
X642500Y407500D02*
D03*
X655000D02*
D03*
X667500D02*
D03*
X690000Y362500D02*
D03*
X750000Y367500D02*
D03*
Y380000D02*
D03*
X737500Y390000D02*
D03*
X750000Y392500D02*
D03*
X737500Y402500D02*
D03*
X750000Y405000D02*
D03*
X737500Y415000D02*
D03*
X750000Y417500D02*
D03*
X762500Y407500D02*
D03*
X775000D02*
D03*
X787500D02*
D03*
X812500Y825000D02*
D03*
X822500Y815000D02*
D03*
X810000Y812500D02*
D03*
X810000Y772500D02*
D03*
X797500Y772500D02*
D03*
X785000D02*
D03*
X772500D02*
D03*
X750000Y817500D02*
D03*
Y805000D02*
D03*
Y792500D02*
D03*
X690000Y837500D02*
D03*
X677500Y782500D02*
D03*
X665000D02*
D03*
X652500D02*
D03*
X630000Y827500D02*
D03*
Y815000D02*
D03*
Y802500D02*
D03*
X570000Y835000D02*
D03*
X557500Y782500D02*
D03*
X545000D02*
D03*
X532500D02*
D03*
X510000Y827500D02*
D03*
Y815000D02*
D03*
Y802500D02*
D03*
X452500Y835000D02*
D03*
X462500Y825000D02*
D03*
X450000Y822500D02*
D03*
X450000Y782500D02*
D03*
X437500Y782500D02*
D03*
X425000D02*
D03*
X412500D02*
D03*
X390000Y827500D02*
D03*
Y815000D02*
D03*
Y802500D02*
D03*
X732500Y527500D02*
D03*
X665000Y577500D02*
D03*
X400000Y575000D02*
D03*
X320000D02*
D03*
X767750Y527500D02*
D03*
X267500Y727500D02*
D03*
X785000Y673500D02*
D03*
Y646500D02*
D03*
X747500Y750000D02*
D03*
X627500Y757500D02*
D03*
X507500D02*
D03*
X387500D02*
D03*
X270000Y772500D02*
D03*
Y785000D02*
D03*
Y797500D02*
D03*
X292500Y752500D02*
D03*
X305000D02*
D03*
X317500D02*
D03*
X330000Y742500D02*
D03*
X342500Y745000D02*
D03*
X330000Y755000D02*
D03*
X342500Y757500D02*
D03*
X330000Y767500D02*
D03*
X342500Y770000D02*
D03*
X330000Y780000D02*
D03*
X342500Y782500D02*
D03*
X330000Y792500D02*
D03*
X342500Y795000D02*
D03*
X332500Y805000D02*
D03*
X102500Y597500D02*
D03*
X90000D02*
D03*
Y585000D02*
D03*
X102500D02*
D03*
Y572500D02*
D03*
X90000Y555000D02*
D03*
X70000Y540000D02*
D03*
Y527500D02*
D03*
Y515000D02*
D03*
X57500D02*
D03*
Y502500D02*
D03*
X70000D02*
D03*
Y490000D02*
D03*
X57500D02*
D03*
D62*
X250000Y367250D02*
D03*
Y332750D02*
D03*
X370000Y367250D02*
D03*
Y332750D02*
D03*
X490000Y367250D02*
D03*
Y332750D02*
D03*
X610000Y367250D02*
D03*
Y332750D02*
D03*
X730000Y367250D02*
D03*
Y332750D02*
D03*
X250000Y837250D02*
D03*
Y802750D02*
D03*
X730000Y857250D02*
D03*
Y822750D02*
D03*
X490000Y832750D02*
D03*
Y867250D02*
D03*
X610000D02*
D03*
Y832750D02*
D03*
X370000Y867250D02*
D03*
Y832750D02*
D03*
D63*
X762750Y580950D02*
D03*
Y593650D02*
D03*
Y606350D02*
D03*
Y619050D02*
D03*
X817250Y580950D02*
D03*
Y593650D02*
D03*
Y606350D02*
D03*
D64*
Y619050D02*
D03*
D65*
X934400Y614408D02*
D03*
X947100D02*
D03*
X959800D02*
D03*
X972500D02*
D03*
X985200D02*
D03*
X997900D02*
D03*
X1010600D02*
D03*
Y562592D02*
D03*
X997900D02*
D03*
X985200D02*
D03*
X972500D02*
D03*
X959800D02*
D03*
X947100D02*
D03*
X934400D02*
D03*
D66*
X984050Y650250D02*
D03*
X340950Y547250D02*
D03*
X580950Y547250D02*
D03*
X619050Y622750D02*
D03*
X379050Y622749D02*
D03*
D67*
X971350Y650250D02*
D03*
X958650D02*
D03*
X945950D02*
D03*
X984050Y704750D02*
D03*
X971350D02*
D03*
X958650D02*
D03*
X945950D02*
D03*
X353650Y547250D02*
D03*
X366350D02*
D03*
X379050D02*
D03*
X340950Y492750D02*
D03*
X353650D02*
D03*
X366350D02*
D03*
X379050D02*
D03*
X593650Y547250D02*
D03*
X606350D02*
D03*
X619050D02*
D03*
X580950Y492750D02*
D03*
X593650D02*
D03*
X606350D02*
D03*
X619050D02*
D03*
X580950Y677250D02*
D03*
X593650D02*
D03*
X606350D02*
D03*
X619050D02*
D03*
X580950Y622750D02*
D03*
X593650D02*
D03*
X606350D02*
D03*
X340950Y677249D02*
D03*
X353650D02*
D03*
X366350D02*
D03*
X379050D02*
D03*
X340950Y622749D02*
D03*
X353650D02*
D03*
X366350D02*
D03*
D68*
X926750Y727500D02*
D03*
X953250D02*
D03*
X976750D02*
D03*
X1003250D02*
D03*
D69*
X250000Y728850D02*
D03*
Y771150D02*
D03*
X460000Y758850D02*
D03*
Y801150D02*
D03*
X820000Y748850D02*
D03*
Y791150D02*
D03*
X580000Y811150D02*
D03*
Y768850D02*
D03*
X700000D02*
D03*
Y811150D02*
D03*
X820000Y431150D02*
D03*
Y388850D02*
D03*
X580000Y388850D02*
D03*
Y431150D02*
D03*
X340000Y388850D02*
D03*
Y431150D02*
D03*
X700000Y431150D02*
D03*
Y388850D02*
D03*
X460000Y431150D02*
D03*
Y388850D02*
D03*
D70*
X339500Y121500D02*
Y147300D01*
X353000Y108000D02*
X800000D01*
X339500Y121500D02*
X353000Y108000D01*
X800000D02*
X916500Y224500D01*
Y269261D01*
X916001Y299261D02*
Y417405D01*
X916000Y299261D02*
X916001Y299261D01*
X887705Y445700D02*
X916001Y417405D01*
X916000Y269761D02*
Y299261D01*
Y269761D02*
X916500Y269261D01*
X882700Y445700D02*
X887705D01*
D71*
X320000Y658000D02*
X353650D01*
X560000D01*
X366350Y506350D02*
X372000Y512000D01*
X400000D01*
X560000Y660000D02*
X592500D01*
X400000Y512000D02*
X508800D01*
X746000Y660000D02*
X824284D01*
X592500D02*
X746000D01*
Y521908D02*
Y660000D01*
X824284D02*
X836000Y671716D01*
Y780000D01*
X607000Y512000D02*
X640000D01*
X836000Y780000D02*
X857300Y801300D01*
X508800Y512000D02*
X607000D01*
X606350Y511350D02*
X607000Y512000D01*
X640000D02*
X736092D01*
X508800Y512000D02*
X508800Y512000D01*
X736092D02*
X746000Y521908D01*
X746250Y593750D02*
X746350Y593650D01*
X592500Y660000D02*
X593650Y661150D01*
X857300Y801300D02*
X882700D01*
X882700Y801300D01*
X857300Y801300D02*
X857300Y801300D01*
D72*
X70000Y490000D02*
Y502500D01*
Y378211D02*
Y490000D01*
X206589Y172700D02*
X288700D01*
X147500Y231789D02*
X206589Y172700D01*
X70000Y378211D02*
X147500Y300711D01*
Y231789D02*
Y300711D01*
M02*
