G04*
G04 #@! TF.GenerationSoftware,Altium Limited,Altium Designer,24.6.1 (21)*
G04*
G04 Layer_Color=8388736*
%FSLAX44Y44*%
%MOMM*%
G71*
G04*
G04 #@! TF.SameCoordinates,1465A302-DD42-448E-B2BA-17B2A311091A*
G04*
G04*
G04 #@! TF.FilePolarity,Negative*
G04*
G01*
G75*
%ADD26R,1.5500X0.7000*%
%ADD27O,1.5500X0.7000*%
G04:AMPARAMS|DCode=28|XSize=1.1mm|YSize=0.45mm|CornerRadius=0.0938mm|HoleSize=0mm|Usage=FLASHONLY|Rotation=0.000|XOffset=0mm|YOffset=0mm|HoleType=Round|Shape=RoundedRectangle|*
%AMROUNDEDRECTD28*
21,1,1.1000,0.2625,0,0,0.0*
21,1,0.9125,0.4500,0,0,0.0*
1,1,0.1875,0.4563,-0.1313*
1,1,0.1875,-0.4563,-0.1313*
1,1,0.1875,-0.4563,0.1313*
1,1,0.1875,0.4563,0.1313*
%
%ADD28ROUNDEDRECTD28*%
%ADD29R,2.6924X1.4224*%
%ADD30R,1.8024X3.5824*%
%ADD31R,1.0500X0.9000*%
%ADD32R,2.3500X2.2000*%
%ADD33R,1.6000X1.5000*%
%ADD34R,1.5000X1.6000*%
%ADD35R,0.9000X1.0500*%
%ADD36R,0.7100X1.5200*%
%ADD37R,4.0100X3.8500*%
%ADD38C,1.9000*%
%ADD39C,3.4000*%
%ADD40R,1.6300X1.6300*%
%ADD41C,1.6300*%
%ADD42R,4.9000X4.9000*%
%ADD43C,4.9000*%
%ADD44R,8.2032X8.2032*%
%ADD45C,8.2032*%
D26*
X112250Y620950D02*
D03*
Y480950D02*
D03*
D27*
Y633650D02*
D03*
Y646350D02*
D03*
Y659050D02*
D03*
X57750Y620950D02*
D03*
Y633650D02*
D03*
Y646350D02*
D03*
Y659050D02*
D03*
Y519050D02*
D03*
Y506350D02*
D03*
Y493650D02*
D03*
Y480950D02*
D03*
X112250Y519050D02*
D03*
Y506350D02*
D03*
Y493650D02*
D03*
D28*
X127000Y592000D02*
D03*
X127050Y585000D02*
D03*
X127000Y578000D02*
D03*
X108000D02*
D03*
X107950Y585000D02*
D03*
X108000Y592000D02*
D03*
X58000Y578000D02*
D03*
X57950Y585000D02*
D03*
X58000Y592000D02*
D03*
X77000D02*
D03*
X77050Y585000D02*
D03*
X77000Y578000D02*
D03*
D29*
X1027001Y589999D02*
D03*
Y559999D02*
D03*
X933001Y589999D02*
D03*
Y559999D02*
D03*
X1027001Y439999D02*
D03*
Y409999D02*
D03*
X933001Y439999D02*
D03*
Y409999D02*
D03*
X913000Y710000D02*
D03*
X1007000D02*
D03*
D30*
X980001Y628849D02*
D03*
Y521149D02*
D03*
Y478849D02*
D03*
Y371149D02*
D03*
X960000Y671150D02*
D03*
Y748850D02*
D03*
D31*
X55000Y559000D02*
D03*
Y546000D02*
D03*
X80000D02*
D03*
Y559000D02*
D03*
X105000D02*
D03*
Y546000D02*
D03*
X1005000Y661500D02*
D03*
Y648500D02*
D03*
X904000Y618500D02*
D03*
Y631500D02*
D03*
X130000Y546000D02*
D03*
Y559000D02*
D03*
D32*
X257250Y160000D02*
D03*
X222750D02*
D03*
D33*
X1025000Y665000D02*
D03*
Y645000D02*
D03*
X922000Y635000D02*
D03*
Y615000D02*
D03*
D34*
X817500Y162500D02*
D03*
X837500D02*
D03*
X817500Y195000D02*
D03*
X837500D02*
D03*
D35*
X801500Y162500D02*
D03*
X788500D02*
D03*
X801500Y195000D02*
D03*
X788500D02*
D03*
D36*
X760950Y487450D02*
D03*
X773650D02*
D03*
X786350D02*
D03*
X799050D02*
D03*
Y432550D02*
D03*
X786350D02*
D03*
X773650D02*
D03*
X760950D02*
D03*
X640950Y487450D02*
D03*
X653650D02*
D03*
X666350D02*
D03*
X679050D02*
D03*
Y432550D02*
D03*
X666350D02*
D03*
X653650D02*
D03*
X640950D02*
D03*
X520950Y432550D02*
D03*
X533650D02*
D03*
X546350D02*
D03*
X559050D02*
D03*
Y487450D02*
D03*
X546350D02*
D03*
X533650D02*
D03*
X520950D02*
D03*
X400950D02*
D03*
X413650D02*
D03*
X426350D02*
D03*
X439050D02*
D03*
Y432550D02*
D03*
X426350D02*
D03*
X413650D02*
D03*
X400950D02*
D03*
X280950Y487450D02*
D03*
X293650D02*
D03*
X306350D02*
D03*
X319050D02*
D03*
Y432550D02*
D03*
X306350D02*
D03*
X293650D02*
D03*
X280950D02*
D03*
X799050Y692550D02*
D03*
X786350D02*
D03*
X773650D02*
D03*
X760950D02*
D03*
Y747450D02*
D03*
X773650D02*
D03*
X786350D02*
D03*
X799050D02*
D03*
X679050Y702550D02*
D03*
X666350D02*
D03*
X653650D02*
D03*
X640950D02*
D03*
Y757450D02*
D03*
X653650D02*
D03*
X666350D02*
D03*
X679050D02*
D03*
X559050D02*
D03*
X546350D02*
D03*
X533650D02*
D03*
X520950D02*
D03*
Y702550D02*
D03*
X533650D02*
D03*
X546350D02*
D03*
X559050D02*
D03*
X439050Y757450D02*
D03*
X426350D02*
D03*
X413650D02*
D03*
X400950D02*
D03*
Y702550D02*
D03*
X413650D02*
D03*
X426350D02*
D03*
X439050D02*
D03*
X319050Y727450D02*
D03*
X306350D02*
D03*
X293650D02*
D03*
X280950D02*
D03*
Y672550D02*
D03*
X293650D02*
D03*
X306350D02*
D03*
X319050D02*
D03*
D37*
X780000Y466600D02*
D03*
X660000D02*
D03*
X540000Y466600D02*
D03*
X420000D02*
D03*
X300000D02*
D03*
X780000Y713400D02*
D03*
X660000Y723400D02*
D03*
X540000D02*
D03*
X420000Y723400D02*
D03*
X300000Y693400D02*
D03*
D38*
X882700Y750500D02*
D03*
X882700Y623500D02*
D03*
X882700Y598100D02*
D03*
Y699700D02*
D03*
Y674300D02*
D03*
X882700Y801300D02*
D03*
X882700Y775900D02*
D03*
X857300Y801300D02*
D03*
X882700Y648900D02*
D03*
X882700Y572700D02*
D03*
X882700Y725100D02*
D03*
X882700Y547300D02*
D03*
X882700Y471100D02*
D03*
X882700Y394900D02*
D03*
X882700Y369500D02*
D03*
Y496500D02*
D03*
X882700Y445700D02*
D03*
X882700Y521900D02*
D03*
X882700Y420300D02*
D03*
X882700Y344100D02*
D03*
X882700Y318700D02*
D03*
X857300Y318700D02*
D03*
X857300Y699700D02*
D03*
Y725100D02*
D03*
X857300Y674300D02*
D03*
X857300Y648900D02*
D03*
X857300Y521900D02*
D03*
X857300Y623500D02*
D03*
Y572700D02*
D03*
Y750500D02*
D03*
X857300Y547300D02*
D03*
X857300Y775900D02*
D03*
X857300Y598100D02*
D03*
X857300Y496500D02*
D03*
X857300Y420300D02*
D03*
X857300Y445700D02*
D03*
X857300Y394900D02*
D03*
X857300Y344100D02*
D03*
X857300Y471100D02*
D03*
X857300Y369500D02*
D03*
D39*
X870000Y870000D02*
D03*
Y250000D02*
D03*
X200000Y870000D02*
D03*
Y250000D02*
D03*
X97060Y280070D02*
D03*
X963090D02*
D03*
X530000Y1030000D02*
D03*
D40*
X288700Y172700D02*
D03*
D41*
X771300Y147300D02*
D03*
Y172700D02*
D03*
X745900Y147300D02*
D03*
Y172700D02*
D03*
X720500Y147300D02*
D03*
Y172700D02*
D03*
X695100Y147300D02*
D03*
Y172700D02*
D03*
X669700Y147300D02*
D03*
Y172700D02*
D03*
X644300D02*
D03*
Y147300D02*
D03*
X618900D02*
D03*
Y172700D02*
D03*
X593500D02*
D03*
Y147300D02*
D03*
X568100D02*
D03*
Y172700D02*
D03*
X542700D02*
D03*
Y147300D02*
D03*
X517300D02*
D03*
Y172700D02*
D03*
X491900D02*
D03*
Y147300D02*
D03*
X466500D02*
D03*
X441100D02*
D03*
X415700D02*
D03*
X390300D02*
D03*
X364900D02*
D03*
X339500D02*
D03*
X314100D02*
D03*
X288700D02*
D03*
X314100Y172700D02*
D03*
X339500D02*
D03*
X364900D02*
D03*
X390300D02*
D03*
X415700D02*
D03*
X441100D02*
D03*
X466500D02*
D03*
D42*
X540000Y375000D02*
D03*
X780000Y375000D02*
D03*
X660000D02*
D03*
X420000Y375000D02*
D03*
X300000D02*
D03*
X540000Y815000D02*
D03*
X660000Y815000D02*
D03*
X300000Y785000D02*
D03*
X780000Y805000D02*
D03*
X420000Y815000D02*
D03*
D43*
X540000Y320000D02*
D03*
Y265000D02*
D03*
X780000Y265000D02*
D03*
Y320000D02*
D03*
X660000Y265000D02*
D03*
X660000Y320000D02*
D03*
X420000Y265000D02*
D03*
Y320000D02*
D03*
X300000Y265000D02*
D03*
Y320000D02*
D03*
X540000Y870000D02*
D03*
Y925000D02*
D03*
X660000Y870000D02*
D03*
Y925000D02*
D03*
X300000Y840000D02*
D03*
Y895000D02*
D03*
X780000Y860000D02*
D03*
Y915000D02*
D03*
X420000Y925000D02*
D03*
Y870000D02*
D03*
D44*
X185000Y470000D02*
D03*
Y660000D02*
D03*
D45*
Y360000D02*
D03*
Y770000D02*
D03*
M02*
